<?xml version="1.0" encoding="UTF-8"?>
<svg width="120px" height="80px" viewBox="0 0 120 80" version="1.1" xmlns="http://www.w3.org/2000/svg" xmlns:xlink="http://www.w3.org/1999/xlink">
    <!-- Generator: Sketch 52.6 (67491) - http://www.bohemiancoding.com/sketch -->
    <title>Rectangle Copy 17</title>
    <desc>Created with Sketch.</desc>
    <g id="Page-1" stroke="none" stroke-width="1" fill="none" fill-rule="evenodd">
        <g id="Quiz_page_q13_1920" transform="translate(-785.000000, -599.000000)">
            <rect fill="#FFFFFF" x="0" y="0" width="1920" height="1080"></rect>
            <g id="Group" transform="translate(405.000000, 409.000000)">
                <rect id="Rectangle-Copy-17" x="380" y="190" width="120" height="80"></rect>
                <g id="factory-(1)" transform="translate(415.000000, 205.000000)" fill="#030303" fill-rule="nonzero">
                    <path d="M38.5118143,17.5443038 L38.628692,19.9531646 C38.638194,20.1494762 38.5690398,20.3414757 38.4365442,20.4866427 C38.3040486,20.6318097 38.1191459,20.7181643 37.9227848,20.7265823 L37.8873418,20.7265823 C37.4933899,20.7265756 37.1689062,20.4171368 37.150211,20.0236287 L37.0350211,17.6147679 C37.015563,17.2069627 37.3303805,16.8605974 37.7381857,16.8411392 C38.1459908,16.8216811 38.4923562,17.1364986 38.5118143,17.5443038 Z M40.0316456,2.53164557 L42.257384,2.53164557 C42.6651892,2.53164558 42.9957806,2.86223701 42.9957806,3.27004219 C42.9957806,3.67784738 42.6651892,4.00843881 42.257384,4.00843882 L40.0316456,4.00843882 C39.0417435,4.00960136 38.2395592,4.81178566 38.2383966,5.80168776 C38.2383966,6.20949296 37.9078052,6.54008439 37.5,6.54008439 C37.0921948,6.54008439 36.7616034,6.20949296 36.7616034,5.80168776 C36.763696,3.99656084 38.2265186,2.5337382 40.0316456,2.53164557 Z M49.2616034,2.53164557 C49.6694086,2.53164557 50,2.862237 50,3.27004219 C50,3.67784739 49.6694086,4.00843882 49.2616034,4.00843882 L45.3700422,4.00843882 C44.962237,4.00843882 44.6316456,3.67784739 44.6316456,3.27004219 C44.6316456,2.862237 44.962237,2.53164557 45.3700422,2.53164557 L49.2616034,2.53164557 Z M48.2447257,1.47679325 C47.8369205,1.47679325 47.5063291,1.14620182 47.5063291,0.738396624 C47.5063291,0.330591429 47.8369205,1.55842006e-12 48.2447257,1.55842006e-12 L49.2616034,1.55842006e-12 C49.6694086,1.55842006e-12 50,0.330591429 50,0.738396624 C50,1.14620182 49.6694086,1.47679325 49.2616034,1.47679325 L48.2447257,1.47679325 Z M34.9683544,6.54008439 C34.5605492,6.54008439 34.2299578,6.20949296 34.2299578,5.80168776 C34.233446,2.59895006 36.8289079,0.00348819084 40.0316456,1.50013335e-12 L44.1835443,1.50013335e-12 C44.5913495,8.59535225e-09 44.9219409,0.330591436 44.9219409,0.738396624 C44.9219409,1.14620181 44.5913495,1.47679324 44.1835443,1.47679325 L40.0316456,1.47679325 C37.6441327,1.47935134 35.7093091,3.41417488 35.7067511,5.80168776 C35.7067511,6.20949296 35.3761596,6.54008439 34.9683544,6.54008439 Z M49.2616034,45.9915612 C49.6694086,45.9915612 50,46.3221526 50,46.7299578 L50,49.2616034 C50,49.6694086 49.6694086,50 49.2616034,50 L0.738396624,50 C0.330687888,49.9997672 0.000232776955,49.6693121 7.04546595e-15,49.2616034 L7.04546595e-15,46.7299578 C0.000232776955,46.3222491 0.330687888,45.991794 0.738396624,45.9915612 L2.53164557,45.9915612 L2.53164557,25.7383966 L0.738396624,25.7383966 C0.330687888,25.7381638 0.000232776955,25.4077087 5.92118946e-15,25 L5.92118946e-15,22.4683544 C0.000232776955,22.0606457 0.330687888,21.7301906 0.738396624,21.7299578 L22.5983122,21.7299578 C23.006021,21.7301906 23.3364761,22.0606457 23.3367089,22.4683544 L23.3367089,25 C23.3364761,25.4077087 23.006021,25.7381638 22.5983122,25.7383966 L20.8059072,25.7383966 L20.8059072,29.1940928 L30.8649789,29.1940928 L31.7139241,11.4084388 C31.4475247,11.2895885 31.2760655,11.0250419 31.2763713,10.7333333 L31.2763713,8.20168776 C31.2763713,7.79388257 31.6069627,7.46329114 32.0147679,7.46329114 L40.4535865,7.46329114 C40.8613917,7.46329114 41.1919831,7.79388257 41.1919831,8.20168776 L41.1919831,10.7333333 C41.1922889,11.0250419 41.0208297,11.2895885 40.7544304,11.4084388 L41.6025316,29.1940928 L46.7299578,29.1940928 C47.137763,29.1940928 47.4683544,29.5246843 47.4683544,29.9324895 L47.4683544,45.9915612 L49.2616034,45.9915612 Z M32.7531646,8.94177215 L32.7531646,9.99662447 L39.7151899,9.99662447 L39.7151899,8.94177215 L32.7531646,8.94177215 Z M33.1894515,11.4734177 L32.3443038,29.1949367 L40.1227848,29.1949367 L39.278903,11.4734177 L33.1894515,11.4734177 Z M45.9915612,30.67173 L20.8059072,30.6708861 L20.8059072,45.9924051 L45.9915612,45.9924051 L45.9915612,30.67173 Z M1.47679325,23.2067511 L1.47679325,24.2616034 L21.8599156,24.2616034 L21.8599156,23.2067511 L1.47679325,23.2067511 Z M4.00843882,25.7383966 L4.00843882,45.9915612 L8.39831224,45.9915612 L8.39831224,38.2911392 C8.39831224,37.883334 8.72890367,37.5527426 9.13670886,37.5527426 L14.2,37.5527426 C14.6077087,37.5529754 14.9381638,37.8834305 14.9383966,38.2911392 L14.9383966,45.9915612 L19.3291139,45.9915612 L19.3291139,25.7383966 L4.00843882,25.7383966 Z M13.4599156,45.9915612 L13.4599156,39.0295359 L9.87341772,39.0295359 L9.87341772,45.9915612 L13.4599156,45.9915612 Z M48.5232068,48.5232068 L48.5232068,47.4683544 L1.47679325,47.4683544 L1.47679325,48.5232068 L48.5232068,48.5232068 Z M10.4008439,35.3025316 C9.99303869,35.3025316 9.66244726,34.9719402 9.66244726,34.564135 L9.66244726,32.0324895 C9.66233524,31.8366202 9.7400944,31.648741 9.87859492,31.5102405 C10.0170954,31.37174 10.2049746,31.2939808 10.4008439,31.2940928 L12.9324895,31.2940928 C13.3402946,31.2940928 13.6708861,31.6246843 13.6708861,32.0324895 L13.6708861,34.564135 C13.6706533,34.9718438 13.3401982,35.3022989 12.9324895,35.3025316 L10.4008439,35.3025316 Z M11.1392405,32.7708861 L11.1392405,33.8257384 L12.1940928,33.8257384 L12.1940928,32.7708861 L11.1392405,32.7708861 Z M23.864135,40.335443 C23.6682657,40.3355551 23.4803866,40.2577959 23.3418861,40.1192954 C23.2033855,39.9807949 23.1256264,39.7929157 23.1257384,39.5970464 L23.1257384,37.0654008 C23.1257384,36.6575956 23.4563298,36.3270042 23.864135,36.3270042 L26.3957806,36.3270042 C26.8034893,36.327237 27.1339444,36.6576921 27.1341772,37.0654008 L27.1341772,39.5970464 C27.1341772,40.0048516 26.8035858,40.335443 26.3957806,40.335443 L23.864135,40.335443 Z M24.6025316,37.8037975 L24.6025316,38.8586498 L25.657384,38.8586498 L25.657384,37.8037975 L24.6025316,37.8037975 Z M32.1308017,40.335443 C31.9349324,40.3355551 31.7470532,40.2577959 31.6085527,40.1192954 C31.4700522,39.9807949 31.392293,39.7929157 31.3924051,39.5970464 L31.3924051,37.0654008 C31.3924051,36.6575956 31.7229965,36.3270042 32.1308017,36.3270042 L34.6624473,36.3270042 C35.0702525,36.3270042 35.4008439,36.6575956 35.4008439,37.0654008 L35.4008439,39.5970464 C35.4009559,39.7929157 35.3231967,39.9807949 35.1846962,40.1192954 C35.0461957,40.2577959 34.8583165,40.3355551 34.6624473,40.335443 L32.1308017,40.335443 Z M32.8691983,37.8037975 L32.8691983,38.8586498 L33.9240506,38.8586498 L33.9240506,37.8037975 L32.8691983,37.8037975 Z M40.4008439,40.335443 C40.2049746,40.3355551 40.0170954,40.2577959 39.8785949,40.1192954 C39.7400944,39.9807949 39.6623352,39.7929157 39.6624473,39.5970464 L39.6624473,37.0654008 C39.6624473,36.6575956 39.9930387,36.3270042 40.4008439,36.3270042 L42.9324895,36.3270042 C43.3402946,36.3270042 43.6708861,36.6575956 43.6708861,37.0654008 L43.6708861,39.5970464 C43.6709981,39.7929157 43.5932389,39.9807949 43.4547384,40.1192954 C43.3162379,40.2577959 43.1283587,40.3355551 42.9324895,40.335443 L40.4008439,40.335443 Z M41.1392405,37.8037975 L41.1392405,38.8586498 L42.1940928,38.8586498 L42.1940928,37.8037975 L41.1392405,37.8037975 Z" id="Combined-Shape"></path>
                </g>
            </g>
        </g>
    </g>
</svg>