<?xml version="1.0" encoding="UTF-8"?>
<svg width="120px" height="80px" viewBox="0 0 120 80" version="1.1" xmlns="http://www.w3.org/2000/svg" xmlns:xlink="http://www.w3.org/1999/xlink">
    <!-- Generator: Sketch 52.6 (67491) - http://www.bohemiancoding.com/sketch -->
    <title>Rectangle Copy 18</title>
    <desc>Created with Sketch.</desc>
    <g id="Page-1" stroke="none" stroke-width="1" fill="none" fill-rule="evenodd">
        <g id="Quiz_page_q13_1920" transform="translate(-1165.000000, -599.000000)">
            <rect fill="#FFFFFF" x="0" y="0" width="1920" height="1080"></rect>
            <g id="Group" transform="translate(405.000000, 409.000000)">
                <g id="Multiple-selection-item-Copy-4" transform="translate(515.000000, 218.000000)" fill="#595A5A" font-family="Helvetica" font-size="16" font-weight="normal">
                    <g id="Multiple-selection-item">
                        <text id="Product-Manufacturer">
                            <tspan x="34" y="16">Product Manufacturer</tspan>
                        </text>
                    </g>
                </g>
                <rect id="Rectangle-Copy-18" x="760" y="190" width="120" height="80"></rect>
                <g id="shopping-store" transform="translate(797.000000, 208.000000)" fill="#030303" fill-rule="nonzero">
                    <path d="M45.2580645,41.5483871 C45.6678242,41.5483871 46,41.8805629 46,42.2903226 C46,42.7000822 45.6678242,43.0322581 45.2580645,43.0322581 L0.741935484,43.0322581 C0.332175831,43.0322581 3.54447654e-14,42.7000822 3.55271368e-14,42.2903226 C3.55271368e-14,41.8805629 0.332175831,41.5483871 0.741935484,41.5483871 L3.70967742,41.5483871 L3.70967742,22.2580645 L2.22580645,22.2580645 C1.8160468,22.2580645 1.48387097,21.9258887 1.48387097,21.516129 L1.48387097,19.2903226 C1.48387097,18.8805629 1.8160468,18.5483871 2.22580645,18.5483871 L2.22580645,17.0645161 C2.22561669,16.841397 2.3261472,16.6301125 2.49939516,16.4895161 L7.96282258,12.0379032 C8.09509116,11.9300469 8.2605002,11.8710892 8.43116935,11.8709677 L14.8387097,11.8709677 L14.8387097,10.3870968 L8.90322581,10.3870968 C8.49346615,10.3870968 8.16129032,10.0549209 8.16129032,9.64516129 L8.16129032,0.741935484 C8.16129032,0.332175831 8.49346615,-4.68958206e-12 8.90322581,-4.68958206e-12 L37.0967742,-4.68958206e-12 C37.5065338,-4.68958206e-12 37.8387097,0.332175831 37.8387097,0.741935484 L37.8387097,9.64516129 C37.8387097,10.0549209 37.5065338,10.3870968 37.0967742,10.3870968 L31.1612903,10.3870968 L31.1612903,11.8709677 L37.5688306,11.8709677 C37.7394998,11.8710892 37.9049088,11.9300469 38.0371774,12.0379032 L43.5006048,16.4895161 C43.6738528,16.6301125 43.7743833,16.841397 43.7741935,17.0645161 L43.7741935,18.5483871 C44.1839532,18.5483871 44.516129,18.8805629 44.516129,19.2903226 L44.516129,21.516129 C44.516129,21.9258887 44.1839532,22.2580645 43.7741935,22.2580645 L42.2903226,22.2580645 L42.2903226,41.5483871 L45.2580645,41.5483871 Z M9.64516129,8.90322581 L36.3548387,8.90322581 L36.3548387,1.48387097 L9.64516129,1.48387097 L9.64516129,8.90322581 Z M29.6774194,10.3870968 L16.3225806,10.3870968 L16.3225806,11.8709677 L29.6774194,11.8709677 L29.6774194,10.3870968 Z M3.70967742,17.4169355 L3.70967742,18.5483871 L42.2903226,18.5483871 L42.2903226,17.4169355 L37.3045161,13.3548387 L8.69548387,13.3548387 L3.70967742,17.4169355 Z M30.4193548,41.5483871 L30.4193548,26.7096774 L24.483871,26.7096774 L24.483871,41.5483871 L30.4193548,41.5483871 Z M37.8387097,41.5483871 L37.8387097,26.7096774 L31.9032258,26.7096774 L31.9032258,41.5483871 L37.8387097,41.5483871 Z M40.8064516,41.5483871 L40.8064516,22.2580645 L5.19354839,22.2580645 L5.19354839,41.5483871 L23,41.5483871 L23,25.9677419 C23,25.5579823 23.3321758,25.2258065 23.7419355,25.2258065 L38.5806452,25.2258065 C38.9904048,25.2258065 39.3225806,25.5579823 39.3225806,25.9677419 L39.3225806,41.5483871 L40.8064516,41.5483871 Z M2.96774194,20.7741935 L43.0322581,20.7741935 L43.0322581,20.0322581 L2.96774194,20.0322581 L2.96774194,20.7741935 Z M33.3870968,33.3870968 C33.7968564,33.3870968 34.1290323,33.7192726 34.1290323,34.1290323 L34.1290323,35.6129032 C34.1290323,36.0226629 33.7968564,36.3548387 33.3870968,36.3548387 C32.9773371,36.3548387 32.6451613,36.0226629 32.6451613,35.6129032 L32.6451613,34.1290323 C32.6451613,33.7192726 32.9773371,33.3870968 33.3870968,33.3870968 Z M28.9354839,36.3548387 C28.5257242,36.3548387 28.1935484,36.0226629 28.1935484,35.6129032 L28.1935484,34.1290323 C28.1935484,33.7192726 28.5257242,33.3870968 28.9354839,33.3870968 C29.3452435,33.3870968 29.6774194,33.7192726 29.6774194,34.1290323 L29.6774194,35.6129032 C29.6774194,36.0226629 29.3452435,36.3548387 28.9354839,36.3548387 Z M21.516129,25.2258065 C21.9258887,25.2258065 22.2580645,25.5579823 22.2580645,25.9677419 L22.2580645,35.6129032 C22.2580645,36.0226629 21.9258887,36.3548387 21.516129,36.3548387 L6.67741935,36.3548387 C6.2676597,36.3548387 5.93548387,36.0226629 5.93548387,35.6129032 L5.93548387,25.9677419 C5.93548387,25.5579823 6.2676597,25.2258065 6.67741935,25.2258065 L21.516129,25.2258065 Z M20.7741935,34.8709677 L20.7741935,26.7096774 L16.6299274,26.7096774 L11.2827056,32.0568992 C11.0952694,32.2443354 10.8220752,32.3175376 10.5660325,32.2489312 C10.3099899,32.1803248 10.1099978,31.9803327 10.0413914,31.72429 C9.97278499,31.4682474 10.0459872,31.1950532 10.2334234,31.0076169 L14.5313629,26.7096774 L7.41935484,26.7096774 L7.41935484,34.8709677 L10.4872581,34.8709677 C10.5194234,34.8148475 10.5588029,34.7631834 10.6043911,34.7172944 L16.1689073,29.1527782 C16.3563435,28.965342 16.6295377,28.8921398 16.8855804,28.9607462 C17.141623,29.0293526 17.3416151,29.2293447 17.4102215,29.4853874 C17.478828,29.74143 17.4056258,30.0146243 17.2181895,30.2020605 L12.5492823,34.8709677 L20.7741935,34.8709677 Z M20.0322581,2.96774194 C20.4420177,2.96774194 20.7741935,3.29991777 20.7741935,3.70967742 C20.7741935,4.11943707 20.4420177,4.4516129 20.0322581,4.4516129 L11.8709677,4.4516129 C11.4612081,4.4516129 11.1290323,4.11943707 11.1290323,3.70967742 C11.1290323,3.29991777 11.4612081,2.96774194 11.8709677,2.96774194 L20.0322581,2.96774194 Z M14.8387097,5.19354839 C15.2484693,5.19354839 15.5806452,5.52572422 15.5806452,5.93548387 C15.5806452,6.34524352 15.2484693,6.67741935 14.8387097,6.67741935 L11.8709677,6.67741935 C11.4612081,6.67741935 11.1290323,6.34524352 11.1290323,5.93548387 C11.1290323,5.52572422 11.4612081,5.19354839 11.8709677,5.19354839 L14.8387097,5.19354839 Z M17.8064516,5.19354839 C18.2162113,5.19354839 18.5483871,5.52572422 18.5483871,5.93548387 C18.5483871,6.34524352 18.2162113,6.67741935 17.8064516,6.67741935 L17.0645161,6.67741935 C16.6547565,6.67741935 16.3225806,6.34524352 16.3225806,5.93548387 C16.3225806,5.52572422 16.6547565,5.19354839 17.0645161,5.19354839 L17.8064516,5.19354839 Z" id="Combined-Shape"></path>
                </g>
            </g>
        </g>
    </g>
</svg>