<svg width="81" height="81" viewBox="0 0 81 81" fill="none" xmlns="http://www.w3.org/2000/svg">
<mask id="mask0" mask-type="alpha" maskUnits="userSpaceOnUse" x="39" y="12" width="40" height="59">
<path fill-rule="evenodd" clip-rule="evenodd" d="M39.97 12.4685H79V70.4979H39.97V12.4685Z" fill="white"/>
</mask>
<g mask="url(#mask0)">
<path fill-rule="evenodd" clip-rule="evenodd" d="M40.3784 41.0147C40.1261 40.5432 40.3271 40.2123 40.8606 40.1309C41.0069 40.1086 41.1823 40.1282 41.2926 40.0528C41.4549 39.9419 41.6378 39.7804 41.6827 39.6071C41.7135 39.4887 41.5527 39.2801 41.4264 39.1711C41.2462 39.0152 41.0087 38.9282 40.8143 38.7859C40.1881 38.328 40.2324 37.5809 40.9182 37.2188C41.1768 37.0824 41.4711 37.0109 41.7533 36.9227C42.4999 36.6895 43.1699 36.3473 43.6555 35.6412C43.1059 35.1797 42.5154 34.7485 42.5049 33.8365C42.8839 34.4056 43.252 34.8535 43.9567 34.9917C43.8473 33.6347 44.1495 32.3979 44.7931 31.2027C44.5212 31.066 44.2664 30.9539 44.0272 30.8146C43.1102 30.2807 42.4772 29.5015 42.042 28.5397C41.9569 28.3516 41.7819 28.1567 41.5989 28.0712C41.2853 27.9246 41.1211 27.7186 41.147 27.3873C41.1844 26.9059 41.0726 26.4881 40.7491 26.118C40.5061 25.84 40.5405 25.5172 40.7007 25.209C40.7936 25.0302 40.912 24.8646 41.0195 24.6935C41.29 24.2617 41.298 23.8606 40.9826 23.4232C40.4349 22.6632 40.8909 21.7095 41.8234 21.6097C41.9437 21.5967 42.0664 21.6005 42.1855 21.5807C42.8149 21.4762 42.984 21.2003 42.8039 20.587C42.7662 20.4586 42.7347 20.328 42.7075 20.1969C42.6345 19.8445 42.797 19.6594 43.1371 19.6045C43.2303 19.5895 43.323 19.572 43.4164 19.5589C43.8256 19.5015 44.0526 19.2644 44.0421 18.8544C44.0316 18.4429 44.2282 18.2568 44.6136 18.2319C45.0409 18.2041 45.1903 17.946 45.195 17.5555C45.1976 17.3267 45.1932 17.096 45.2225 16.87C45.277 16.4468 45.4951 16.2915 45.921 16.3562C46.0667 16.3784 46.2112 16.4166 46.3523 16.4606C46.843 16.6135 47.2776 16.5708 47.6349 16.1507C47.906 15.8323 48.2157 15.7426 48.5844 16.026C48.8158 16.2035 49.0129 16.1683 49.0959 15.8527C49.1616 15.6028 49.1532 15.2697 49.3139 15.1266C49.465 14.992 49.7946 15.0578 50.0744 15.0331C50.085 14.9329 50.0915 14.83 50.1075 14.7286C50.2043 14.116 50.8213 13.8009 51.342 14.1333C51.7455 14.3909 52.0711 14.3142 52.4064 14.0384C52.5829 13.8933 52.7622 13.749 52.9528 13.6234C53.2487 13.4286 53.568 13.3927 53.8525 13.6276C54.3788 14.0624 54.872 13.9909 55.3937 13.6127C55.8217 13.3027 56.2726 13.0059 56.7626 13.2448C57.0739 12.9881 57.3119 12.699 57.6184 12.5608C58.0809 12.3524 58.5202 12.5093 58.8444 12.9067C59.0338 13.1389 59.2032 13.221 59.4846 13.0189C59.7946 12.7962 60.1533 12.8084 60.4734 13.0194C60.6889 13.1614 60.8561 13.1765 61.0951 13.0428C61.9457 12.5668 62.8555 12.8163 63.3709 13.6352C63.8165 14.3428 63.8717 14.3685 64.6665 14.2371C65.1893 14.1506 65.4264 14.2757 65.5909 14.7638C65.6885 15.0533 65.8709 15.1422 66.149 15.0718C66.279 15.0389 66.4032 14.9836 66.5327 14.9472C67.0113 14.8122 67.3191 14.8634 67.5312 15.3067C67.9903 16.2672 68.6626 16.7185 69.7452 16.5352C69.8776 16.5128 70.0912 16.7274 70.1998 16.8801C70.2936 17.0122 70.2857 17.2143 70.3337 17.3821C70.4232 17.6942 70.6129 17.863 70.9596 17.8131C71.1054 17.7921 71.2551 17.7903 71.4028 17.7931C71.7022 17.7986 71.8816 17.9505 71.9216 18.2513C71.9444 18.4248 71.9609 18.5992 71.9772 18.7733C72.0253 19.2827 72.1962 19.4922 72.6792 19.6309C73.129 19.76 73.203 19.8684 73.1149 20.3257C73.0795 20.5095 73.0073 20.6861 72.956 20.8668C72.8127 21.3709 73.0206 21.7047 73.539 21.8029C73.8029 21.853 74.079 21.8671 74.33 21.954C74.8376 22.1296 74.9974 22.4519 74.8319 22.9634C74.7236 23.2982 74.846 23.5019 75.1406 23.5954C75.5681 23.731 75.8364 23.9749 75.9086 24.4329C75.9241 24.5318 76.0278 24.6541 76.1223 24.6977C77.2209 25.2041 77.195 26.1517 76.821 26.9729C76.587 27.486 76.6379 27.6591 77.1778 27.7937C78.1801 28.044 78.2961 28.5683 78.0948 29.5558C78.0063 29.9893 78.0587 30.3016 78.3307 30.6301C78.8118 31.2108 78.7297 31.8513 78.143 32.3171C77.8139 32.5784 77.8001 32.7294 78.1726 32.9501C78.9647 33.4192 78.894 34.1496 78.1844 34.6672C77.7186 35.0069 77.7043 35.2467 78.1644 35.6048C78.5987 35.9431 78.9053 36.3543 78.9849 36.9007C79.0512 37.3555 78.897 37.7528 78.5566 38.0662C78.0925 38.494 78.0373 39.0225 78.193 39.589C78.4082 40.3725 78.3661 40.466 77.5835 40.7197C77.0963 40.8777 76.9815 41.0443 77.0505 41.5566C77.0969 41.9027 77.1893 42.2428 77.232 42.5893C77.3069 43.1979 77.1521 43.4524 76.5976 43.7016C76.4383 43.7732 76.2422 43.8111 76.1306 43.9284C75.9979 44.0681 75.8604 44.2768 75.86 44.4556C75.8589 45.264 75.732 45.4481 74.9579 45.6252C74.6167 45.7031 74.3392 45.8234 74.4813 46.284C74.5102 46.3779 74.3699 46.5738 74.2581 46.6478C74.1343 46.7297 73.9547 46.7457 73.7974 46.7549C73.1921 46.79 73.0123 46.9886 73.064 47.5913C73.118 48.222 72.7211 48.5942 72.0999 48.4952C71.4355 48.3892 71.3967 48.4238 71.0255 48.9821C70.9281 49.1285 70.7041 49.1882 70.5444 49.2966C70.3459 49.4311 70.0674 49.533 69.9757 49.7227C69.7407 50.2079 69.386 50.4505 68.8692 50.4558C68.5068 50.4594 68.1422 50.388 67.7818 50.4071C67.6166 50.416 67.3547 50.5286 67.3155 50.6516C67.1212 51.2582 66.522 51.4644 65.8909 51.216C65.6945 51.139 65.5672 51.1362 65.3921 51.2909C64.7837 51.8283 64.4427 51.8383 63.739 51.372C63.6046 51.5186 63.4847 51.7009 63.319 51.8204C62.8481 52.1595 62.3415 52.0906 61.865 51.8427C61.2853 51.5412 60.7214 51.4542 60.0797 51.6694C59.5608 51.8433 59.0538 51.6388 58.4996 51.2888C58.5839 51.9992 58.6245 52.6121 58.7338 53.2126C59.1108 55.2873 59.643 57.3284 60.6399 59.1931C61.29 60.4094 62.124 61.5278 62.8803 62.687C63.6447 63.8592 64.4251 65.0211 65.1757 66.202C65.3728 66.5119 65.4851 66.8755 65.6367 67.2151C64.8704 67.2151 64.1612 67.2012 63.4526 67.2179C61.4583 67.2641 59.4537 67.3088 57.5362 67.917C56.2311 68.3311 54.9633 68.8715 53.6973 69.3994C51.7648 70.2053 49.7818 70.6883 47.676 70.4264C45.6196 70.1707 43.8015 69.4295 42.4494 67.7685C42.2263 67.4945 42.2428 67.3376 42.4814 67.0658C44.0193 65.3159 45.5701 63.575 47.0387 61.7679C48.2945 60.2227 49.2595 58.4949 49.7702 56.5465C50.0805 55.3621 50.0546 54.1543 49.7948 52.981C49.4841 51.5786 49.071 50.1966 48.6496 48.822C48.3689 47.9062 47.6956 47.4272 46.7275 47.3531C45.4112 47.2525 44.0968 47.1251 42.781 47.0172C41.0845 46.8784 40.6598 45.9693 40.952 44.3114C41.0638 43.677 41.1002 43.6836 40.4983 43.5114C39.9268 43.348 39.7948 42.9338 40.2214 42.5325C40.4587 42.3097 40.7685 42.1642 41.0496 41.9814C40.8286 41.6684 40.5643 41.3626 40.3784 41.0147Z" fill="url(#paint0_linear)"/>
<path fill-rule="evenodd" clip-rule="evenodd" d="M55.1573 16.8672C55.0278 16.8724 54.9125 16.9202 54.8173 17.0082V17.0082L53.4823 18.3431C53.4698 18.3628 53.3725 18.4034 53.3496 18.3981V18.3981H52.1736C52.0443 18.4034 51.9287 18.4511 51.8335 18.539V18.539L49.2382 21.1342C49.2258 21.1541 49.1283 21.1945 49.1056 21.1893V21.1893H48.1046C48.0458 21.0395 47.9009 20.9328 47.73 20.9328V20.9328C47.5075 20.9328 47.3272 21.1134 47.3272 21.3359V21.3359C47.3272 21.5583 47.5075 21.7388 47.73 21.7388V21.7388C47.9009 21.7388 48.0459 21.6323 48.1047 21.4823V21.4823H49.1056C49.2352 21.4773 49.3503 21.4294 49.4455 21.3415V21.3415L52.041 18.7461C52.0534 18.7264 52.1509 18.6861 52.1736 18.6911V18.6911H53.3496C53.4792 18.6861 53.5945 18.6383 53.6898 18.5502V18.5502L55.0245 17.2154C55.037 17.1955 55.1347 17.1554 55.1573 17.1603V17.1603H62.9132C62.9358 17.1554 63.0334 17.1955 63.0457 17.2154V17.2154L64.598 18.7673C64.6932 18.8555 64.8082 18.9031 64.938 18.9082V18.9082L66.6363 18.9083C66.6591 18.9031 66.7565 18.9436 66.7689 18.9633V18.9633L68.3311 20.5256C68.3136 20.5689 68.3023 20.6156 68.301 20.6652V20.6652C68.2957 20.8877 68.4715 21.0727 68.6941 21.0781V21.0781C68.9165 21.0834 69.1011 20.9076 69.1066 20.685V20.685C69.112 20.4626 68.9361 20.278 68.7137 20.2724V20.2724C68.6487 20.2709 68.5876 20.2861 68.5326 20.3122V20.3122L66.9763 18.756C66.881 18.6681 66.7659 18.6204 66.6363 18.6153V18.6153H64.938C64.9151 18.6204 64.8177 18.5801 64.8052 18.5602V18.5602L63.2529 17.0079C63.1577 16.9202 63.0424 16.8724 62.9132 16.8672V16.8672H55.1573ZM55.6337 18.1371C55.5026 18.1424 55.3876 18.1919 55.2935 18.2832V18.2832L54.1169 19.523C54.106 19.5422 54.0107 19.5831 53.9893 19.5776V19.5776H52.9477C52.8181 19.5829 52.7029 19.6305 52.6076 19.7186V19.7186L50.6755 21.6509C50.6258 21.6292 50.5714 21.6166 50.5139 21.6166V21.6166C50.2914 21.6166 50.1109 21.7971 50.1109 22.0196V22.0196C50.1109 22.242 50.2914 22.4226 50.5139 22.4226V22.4226C50.7363 22.4226 50.9168 22.242 50.9168 22.0196V22.0196C50.9168 21.9621 50.9043 21.9076 50.8826 21.8582V21.8582L52.8149 19.9257C52.8274 19.9061 52.9248 19.8657 52.9477 19.8707V19.8707H53.9893C54.1202 19.8654 54.2353 19.8159 54.3292 19.7247V19.7247L55.5061 18.4849C55.517 18.4657 55.6122 18.4247 55.6337 18.4301V18.4301H62.2913C62.3127 18.4247 62.4076 18.4657 62.4186 18.4849V18.4849L63.1986 19.312C63.1874 19.3473 63.1794 19.3838 63.1783 19.4226V19.4226C63.1728 19.6452 63.3489 19.83 63.5714 19.8354V19.8354C63.7939 19.8409 63.9784 19.6649 63.9839 19.4424V19.4424C63.9892 19.22 63.8134 19.0353 63.591 19.0298V19.0298C63.516 19.0281 63.4461 19.0482 63.385 19.0825V19.0825L62.6316 18.2839C62.5373 18.192 62.4226 18.1424 62.2913 18.1371V18.1371H55.6337ZM51.8492 38.2045C51.844 38.427 52.0199 38.6119 52.2422 38.6173V38.6173C52.3036 38.6188 52.3616 38.6055 52.4141 38.5821V38.5821L53.9555 40.1234C54.0508 40.2112 54.1659 40.259 54.2954 40.2641V40.2641L55.7158 40.2643C55.7386 40.259 55.836 40.2994 55.8484 40.319V40.319L56.7796 41.2503C56.759 41.2969 56.7468 41.348 56.7455 41.4018V41.4018C56.7402 41.6243 56.9162 41.8092 57.1386 41.8148V41.8148C57.3609 41.8201 57.5458 41.6442 57.5513 41.4215V41.4215C57.5564 41.1992 57.3806 41.0146 57.1581 41.0091V41.0091C57.0973 41.0076 57.0396 41.0208 56.9873 41.0437V41.0437L56.0555 40.1119C55.9605 40.024 55.8452 39.9763 55.7158 39.9711V39.9711H54.2954C54.2727 39.9763 54.1753 39.9359 54.1628 39.9162V39.9162L52.6213 38.3745C52.6414 38.3283 52.6534 38.2776 52.6548 38.2242V38.2242C52.6602 38.0018 52.4842 37.8171 52.2619 37.8116V37.8116C52.2586 37.8115 52.2553 37.8115 52.252 37.8115V37.8115C52.0339 37.8115 51.8544 37.9854 51.8492 38.2045V38.2045ZM60.3101 19.2846H56.2684C56.1389 19.2899 56.0236 19.3376 55.9285 19.4255V19.4255L53.0438 22.3101C52.9973 22.2897 52.9462 22.2774 52.8923 22.2761V22.2761C52.6698 22.2706 52.4851 22.4465 52.4795 22.669V22.669C52.4742 22.8914 52.6501 23.0763 52.8725 23.0817V23.0817C53.095 23.0871 53.2798 22.9111 53.2851 22.6888V22.6888C53.2866 22.6277 53.2735 22.5703 53.2506 22.518V22.518L56.1357 19.6326C56.1481 19.6129 56.2455 19.5726 56.2684 19.5778V19.5778H60.3079C60.3648 19.725 60.5058 19.8313 60.6735 19.8354V19.8354C60.896 19.8409 61.0808 19.6649 61.086 19.4424V19.4424C61.0917 19.2199 60.9158 19.0353 60.6932 19.0298V19.0298C60.6898 19.0297 60.6866 19.0297 60.6834 19.0297V19.0297C60.514 19.0297 60.3693 19.1351 60.3101 19.2846V19.2846ZM64.1271 20.0564C64.1217 20.2787 64.2975 20.4636 64.5199 20.4691V20.4691C64.694 20.4733 64.8435 20.366 64.9037 20.2129V20.2129H66.0518C66.0745 20.2077 66.1719 20.2482 66.1842 20.2676V20.2676L70.4571 24.5403C70.4769 24.5529 70.5174 24.6503 70.5122 24.6732V24.6732V25.691C70.3533 25.7418 70.2359 25.8872 70.2315 26.0632V26.0632C70.2262 26.2857 70.4021 26.4706 70.6245 26.476V26.476C70.847 26.4814 71.0317 26.3054 71.0372 26.0828V26.0828C71.0411 25.9182 70.9453 25.7748 70.8054 25.7088V25.7088L70.8051 24.6732C70.8003 24.5437 70.7524 24.4285 70.6646 24.3332V24.3332L66.3919 20.0605C66.2965 19.9726 66.1812 19.9249 66.0518 19.9199V19.9199H64.9052C64.8477 19.7732 64.7068 19.6676 64.5396 19.6636V19.6636C64.5361 19.6636 64.5326 19.6635 64.5292 19.6635V19.6635C64.3114 19.6635 64.1324 19.8374 64.1271 20.0564V20.0564ZM60.2485 20.0416C60.119 20.0468 60.0037 20.0946 59.9085 20.1825V20.1825L59.3475 20.7437C59.2596 20.8388 59.2116 20.954 59.2065 21.0836V21.0836V23.4866C59.0335 23.5282 58.9025 23.6805 58.898 23.8669V23.8669C58.8925 24.0893 59.0686 24.2741 59.2909 24.2797V24.2797C59.5134 24.285 59.6981 24.1091 59.7034 23.8865V23.8865C59.7073 23.7333 59.6237 23.5996 59.4994 23.5282V23.5282V21.0836C59.4945 21.0608 59.5349 20.9633 59.5545 20.9508V20.9508L60.1158 20.3897C60.1282 20.3701 60.2257 20.3296 60.2485 20.3348V20.3348H61.2171C61.2398 20.3296 61.3372 20.3701 61.3496 20.3897V20.3897L63.1439 22.1839C63.1637 22.1963 63.204 22.2939 63.199 22.3167V22.3167V23.4051C63.0399 23.4557 62.9219 23.6011 62.9178 23.7776V23.7776C62.9124 24 63.0884 24.1848 63.3109 24.1903V24.1903C63.5333 24.1956 63.7181 24.0197 63.7235 23.7972V23.7972C63.7276 23.6328 63.6317 23.4894 63.4923 23.4233V23.4233L63.4919 22.3167C63.4869 22.1872 63.439 22.0721 63.3509 21.9769V21.9769L61.5568 20.1825C61.4617 20.0946 61.3464 20.0468 61.2171 20.0416V20.0416H60.2485ZM73.035 38.5201C72.9055 38.5253 72.7903 38.5731 72.6951 38.661V38.661L72.134 39.2222C72.0462 39.3173 71.9982 39.4325 71.9931 39.562V39.562V41.9651C71.8201 42.0067 71.6891 42.159 71.6845 42.3454V42.3454C71.679 42.5678 71.8552 42.7526 72.0775 42.7582V42.7582C72.3 42.7635 72.4847 42.5875 72.4899 42.365V42.365C72.4938 42.2118 72.4103 42.0781 72.286 42.0067V42.0067V39.562C72.2811 39.5393 72.3215 39.4418 72.3411 39.4293V39.4293L72.9024 38.8682C72.9148 38.8486 73.0123 38.8081 73.035 38.8133V38.8133H74.0037C74.0264 38.8081 74.1237 38.8486 74.1361 38.8682V38.8682L75.9305 40.6624C75.9503 40.6748 75.9906 40.7723 75.9856 40.7952V40.7952V41.8836C75.8265 41.9342 75.7085 42.0796 75.7044 42.2561V42.2561C75.699 42.4784 75.8749 42.6633 76.0975 42.6688V42.6688C76.3199 42.6741 76.5046 42.4982 76.51 42.2757V42.2757C76.5141 42.1113 76.4183 41.9679 76.2789 41.9018V41.9018L76.2784 40.7952C76.2735 40.6657 76.2256 40.5506 76.1375 40.4554V40.4554L74.3433 38.661C74.2483 38.5731 74.133 38.5253 74.0037 38.5201V38.5201H73.035ZM60.9968 46.3882C60.8673 46.3934 60.7521 46.4412 60.6569 46.5292V46.5292L60.0958 47.0904C60.008 47.1854 59.9599 47.3007 59.9549 47.4302V47.4302V49.8332C59.7819 49.8749 59.6509 50.0272 59.6463 50.2135V50.2135C59.6408 50.436 59.817 50.6207 60.0393 50.6263V50.6263C60.2618 50.6316 60.4464 50.4557 60.4517 50.2332V50.2332C60.4556 50.0799 60.3721 49.9462 60.2478 49.8749V49.8749V47.4302C60.2429 47.4074 60.2833 47.31 60.3029 47.2975V47.2975L60.8642 46.7364C60.8766 46.7167 60.9741 46.6763 60.9968 46.6815V46.6815H61.9655C61.9882 46.6763 62.0855 46.7167 62.0979 46.7364V46.7364L63.8923 48.5305C63.912 48.543 63.9524 48.6405 63.9473 48.6634V48.6634V49.7518C63.7883 49.8024 63.6703 49.9477 63.6662 50.1243V50.1243C63.6608 50.3466 63.8367 50.5315 64.0592 50.537V50.537C64.2817 50.5423 64.4664 50.3664 64.4718 50.1438V50.1438C64.4759 49.9795 64.3801 49.836 64.2407 49.77V49.77L64.2402 48.6634C64.2353 48.5339 64.1873 48.4187 64.0993 48.3236V48.3236L62.3051 46.5292C62.2101 46.4412 62.0948 46.3934 61.9655 46.3882V46.3882H60.9968ZM57.9492 20.5936C57.9449 20.7677 58.0524 20.9174 58.2056 20.9773V20.9773L58.2054 23.0778C58.2106 23.1005 58.1702 23.1981 58.1504 23.2107V23.2107L56.0473 25.3136C56.0007 25.2932 55.9496 25.281 55.8955 25.2797V25.2797C55.6732 25.2743 55.4885 25.4502 55.483 25.6725V25.6725C55.4777 25.8951 55.6536 26.0798 55.876 26.0853V26.0853C56.0984 26.0908 56.2832 25.9148 56.2887 25.6922V25.6922C56.29 25.6313 56.2769 25.5738 56.2539 25.5215V25.5215L58.3577 23.4178C58.4457 23.3224 58.4933 23.2074 58.4984 23.0778V23.0778V20.9788C58.6452 20.9215 58.7508 20.7806 58.7549 20.6133V20.6133C58.7603 20.391 58.5843 20.2062 58.3617 20.2007V20.2007C58.3584 20.2007 58.355 20.2006 58.3517 20.2006V20.2006C58.1341 20.2006 57.9547 20.3745 57.9492 20.5936V20.5936ZM52.8824 20.8476C52.8824 20.9052 52.8948 20.9596 52.9165 21.0091V21.0091L50.3003 23.6251C50.2879 23.6448 50.1906 23.6852 50.1677 23.6802V23.6802H48.6906C48.6319 23.5303 48.4868 23.4238 48.3161 23.4238V23.4238C48.0936 23.4238 47.9133 23.604 47.9133 23.8267V23.8267C47.9133 24.0492 48.0936 24.2295 48.3161 24.2295V24.2295C48.4869 24.2295 48.6319 24.123 48.6906 23.9731V23.9731H50.1677C50.2971 23.9682 50.4126 23.9203 50.5078 23.8323V23.8323L53.1237 21.2165C53.1731 21.2381 53.2276 21.2506 53.2853 21.2506V21.2506C53.5078 21.2506 53.6881 21.0701 53.6881 20.8476V20.8476C53.6881 20.6253 53.5078 20.4447 53.2853 20.4447V20.4447C53.0627 20.4447 52.8824 20.6253 52.8824 20.8476V20.8476ZM60.2806 21.0666C60.2752 21.289 60.4511 21.4739 60.6735 21.4794V21.4794C60.7345 21.4808 60.792 21.4678 60.8442 21.4448V21.4448L61.4867 22.0871C61.4662 22.1336 61.4539 22.1847 61.4526 22.2387V22.2387C61.4472 22.461 61.623 22.646 61.8454 22.6514V22.6514C62.0681 22.6568 62.2529 22.4809 62.2581 22.2583V22.2583C62.2636 22.036 62.0877 21.8513 61.8653 21.8457V21.8457C61.8045 21.8443 61.7467 21.8575 61.6945 21.8804V21.8804L61.0521 21.2381C61.0725 21.1914 61.085 21.1403 61.0859 21.0862V21.0862C61.0916 20.8637 60.9157 20.6792 60.6931 20.6737V20.6737C60.6898 20.6736 60.6864 20.6736 60.6831 20.6736V20.6736C60.4652 20.6736 60.2857 20.8475 60.2806 21.0666V21.0666ZM60.8434 49.7541C60.838 49.9765 61.0139 50.1614 61.2362 50.1669V50.1669C61.2973 50.1683 61.3547 50.1552 61.407 50.1323V50.1323L62.0495 50.7746C62.029 50.8211 62.0167 50.8722 62.0154 50.9262V50.9262C62.01 51.1485 62.1858 51.3335 62.4081 51.3389V51.3389C62.6309 51.3443 62.8156 51.1684 62.8209 50.9458V50.9458C62.8264 50.7234 62.6505 50.5388 62.4281 50.5332V50.5332C62.3672 50.5318 62.3095 50.5449 62.2573 50.5679V50.5679L61.6149 49.9256C61.6353 49.8789 61.6477 49.8278 61.6487 49.7736V49.7736C61.6544 49.5512 61.4785 49.3667 61.2559 49.3612V49.3612C61.2525 49.3611 61.2492 49.3611 61.2458 49.3611V49.3611C61.028 49.3611 60.8485 49.535 60.8434 49.7541V49.7541ZM55.35 21.3615C55.3485 21.4225 55.3615 21.48 55.3846 21.5322V21.5322L53.822 23.0949C53.778 23.077 53.7307 23.0655 53.6803 23.0642V23.0642C53.4578 23.0588 53.2732 23.2347 53.2678 23.4572V23.4572C53.2624 23.6796 53.4383 23.8644 53.6606 23.87V23.87C53.8831 23.8752 54.0679 23.6992 54.0733 23.4767V23.4767C54.0748 23.4124 54.0599 23.3518 54.0341 23.297V23.297L55.5913 21.7401C55.6377 21.7607 55.689 21.7729 55.7429 21.7742V21.7742C55.9654 21.7797 56.15 21.6037 56.1555 21.381V21.381C56.1608 21.1587 55.9851 20.9741 55.7626 20.9686V20.9686C55.7593 20.9684 55.756 20.9684 55.7527 20.9684V20.9684C55.5346 20.9684 55.3553 21.1424 55.35 21.3615V21.3615ZM56.6959 21.433C56.6944 21.4936 56.7075 21.5508 56.73 21.603V21.603L54.5391 23.7942C54.4864 23.7668 54.4275 23.7493 54.364 23.7478V23.7478C54.1415 23.7423 53.9568 23.9182 53.9515 24.1407V24.1407C53.9462 24.363 54.1221 24.5479 54.3444 24.5535V24.5535C54.5669 24.5587 54.7517 24.3828 54.7571 24.1604V24.1604C54.7583 24.1091 54.749 24.0603 54.7327 24.0148V24.0148L56.9362 21.8115C56.983 21.8322 57.0346 21.8444 57.0889 21.8458V21.8458C57.3114 21.8512 57.4962 21.6753 57.5017 21.4527V21.4527C57.507 21.2301 57.331 21.0456 57.1086 21.0402V21.0402C57.1053 21.0401 57.102 21.0401 57.0987 21.0401V21.0401C56.8808 21.0401 56.7013 21.214 56.6959 21.433V21.433ZM69.4078 21.772C69.4025 21.9943 69.5785 22.1791 69.801 22.1848V22.1848C69.8619 22.1862 69.9193 22.173 69.9715 22.15V22.15L71.8247 24.003C71.8443 24.0156 71.8847 24.1128 71.8799 24.1358V24.1358V26.6182C71.8847 26.7476 71.9326 26.8629 72.0204 26.958V26.958L72.9967 27.9342C73.0163 27.9468 73.0569 28.0444 73.0515 28.0672V28.0672V30.3641C72.9051 30.4216 72.7995 30.5623 72.7957 30.7295V30.7295C72.7904 30.952 72.9663 31.1368 73.1887 31.1421V31.1421C73.411 31.1476 73.5958 30.9716 73.6013 30.7492V30.7492C73.6054 30.5751 73.498 30.4257 73.3451 30.3656V30.3656L73.3449 28.0672C73.3396 27.9376 73.2918 27.8224 73.2041 27.7274V27.7274L72.2277 26.7508C72.2079 26.7383 72.1677 26.6409 72.1727 26.6182V26.6182V24.1358C72.1677 24.0063 72.1196 23.8912 72.0319 23.7958V23.7958L70.1794 21.9433C70.2001 21.8966 70.2121 21.8456 70.2136 21.7916V21.7916C70.2189 21.5691 70.0431 21.3844 69.8205 21.3791V21.3791C69.8171 21.379 69.8136 21.379 69.8103 21.379V21.379C69.5924 21.379 69.4133 21.5529 69.4078 21.772V21.772ZM49.2849 22.3735H48.186C48.0565 22.3787 47.9413 22.4266 47.8461 22.515V22.515L44.9649 25.4076C44.8772 25.5028 44.8295 25.618 44.8245 25.7475V25.7475V26.7243C44.6746 26.7829 44.5681 26.928 44.5681 27.0984V27.0984C44.5681 27.3211 44.7484 27.5015 44.971 27.5015V27.5015C45.1935 27.5015 45.3739 27.3211 45.3739 27.0984V27.0984C45.3739 26.9278 45.2674 26.7829 45.1175 26.7243V26.7243V25.7475C45.1124 25.7246 45.1527 25.627 45.1727 25.6143V25.6143L48.0536 22.7218C48.066 22.7018 48.1634 22.6617 48.186 22.6666V22.6666H49.2849C49.3436 22.8166 49.4887 22.923 49.6592 22.923V22.923C49.8819 22.923 50.0622 22.7427 50.0622 22.5203V22.5203C50.0622 22.2977 49.8819 22.1172 49.6592 22.1172V22.1172C49.4887 22.1172 49.3437 22.2237 49.2849 22.3735V22.3735ZM60.2806 22.6053C60.2752 22.8277 60.4511 23.0125 60.6735 23.018V23.018C60.7343 23.0196 60.792 23.0064 60.8442 22.9835V22.9835L61.4867 23.6257C61.4662 23.6724 61.4539 23.7234 61.4526 23.7775V23.7775C61.4472 23.9998 61.623 24.1846 61.8454 24.1901V24.1901C62.0681 24.1954 62.2529 24.0195 62.2581 23.797V23.797C62.2636 23.5746 62.0877 23.3899 61.8653 23.3844V23.3844C61.8045 23.383 61.7467 23.3962 61.6945 23.4192V23.4192L61.0521 22.7767C61.0725 22.7301 61.085 22.679 61.0859 22.6249V22.6249C61.0916 22.4025 60.9157 22.2179 60.6931 22.2124V22.2124C60.6898 22.2123 60.6864 22.2123 60.6831 22.2123V22.2123C60.4652 22.2123 60.2857 22.3862 60.2806 22.6053V22.6053ZM63.9233 22.6201C63.918 22.8426 64.0938 23.0275 64.3165 23.0331V23.0331C64.461 23.0364 64.5887 22.9628 64.6626 22.85V22.85H65.2215C65.2443 22.8446 65.3416 22.8851 65.3539 22.9049V22.9049L67.9702 25.521C67.9496 25.5674 67.9375 25.6186 67.9361 25.6725V25.6725C67.9308 25.895 68.1066 26.0798 68.329 26.0853V26.0853C68.5515 26.0908 68.7364 25.9148 68.7418 25.6921V25.6921C68.7471 25.4697 68.5712 25.285 68.3489 25.2796V25.2796C68.2877 25.2781 68.2303 25.2913 68.1779 25.3143V25.3143L65.5614 22.6978C65.4661 22.6096 65.3509 22.5618 65.2215 22.5569V22.5569H64.7224C64.6885 22.3733 64.5301 22.2321 64.3361 22.2274V22.2274C64.3328 22.2273 64.3294 22.2273 64.3261 22.2273V22.2273C64.1081 22.2273 63.9289 22.4011 63.9233 22.6201V22.6201ZM67.4435 18.3217C67.4382 18.5442 67.614 18.7291 67.8366 18.7347V18.7347C67.9811 18.738 68.1088 18.6644 68.1827 18.5516V18.5516H68.7416C68.7644 18.5462 68.8618 18.5867 68.8741 18.6065V18.6065L71.4903 21.2225C71.4697 21.269 71.4576 21.3202 71.4562 21.3741V21.3741C71.4509 21.5966 71.6267 21.7814 71.8492 21.7869V21.7869C72.0717 21.7924 72.2566 21.6163 72.262 21.3937V21.3937C72.2672 21.1713 72.0913 20.9866 71.869 20.9812V20.9812C71.8078 20.9797 71.7504 20.9929 71.6981 21.0159V21.0159L69.0816 18.3994C68.9863 18.3112 68.871 18.2634 68.7416 18.2584V18.2584H68.2425C68.2086 18.0749 68.0502 17.9337 67.8563 17.929V17.929C67.8529 17.9289 67.8496 17.9289 67.8462 17.9289V17.9289C67.6282 17.9289 67.4491 18.1027 67.4435 18.3217V18.3217ZM66.4709 17.7139C66.4762 17.4914 66.3004 17.3065 66.0778 17.3009V17.3009C65.9333 17.2975 65.8056 17.3711 65.7317 17.484V17.484H65.1727C65.15 17.4894 65.0526 17.4488 65.0403 17.4291V17.4291L62.4241 14.813C62.4447 14.7666 62.4568 14.7154 62.4582 14.6615V14.6615C62.4634 14.439 62.2876 14.2542 62.0652 14.2487V14.2487C61.8427 14.2432 61.6578 14.4192 61.6524 14.6419V14.6419C61.6471 14.8643 61.8231 15.0489 62.0454 15.0543V15.0543C62.1066 15.0558 62.164 15.0427 62.2163 15.0197V15.0197L64.8328 17.6362C64.9281 17.7243 65.0434 17.7722 65.1727 17.7771V17.7771H65.6719C65.7058 17.9607 65.8642 18.1018 66.0581 18.1066V18.1066C66.0615 18.1067 66.0648 18.1067 66.0682 18.1067V18.1067C66.2861 18.1067 66.4653 17.9328 66.4709 17.7139V17.7139ZM56.704 22.9862C56.7026 23.0472 56.7156 23.1047 56.7385 23.157V23.157L55.0987 24.797C55.0862 24.8166 54.9887 24.8571 54.9661 24.8518V24.8518H52.7938C52.7364 24.7053 52.5956 24.5997 52.4283 24.5956V24.5956C52.2058 24.5903 52.0211 24.7661 52.0157 24.9885V24.9885C52.0103 25.2111 52.1862 25.3958 52.4086 25.4012V25.4012C52.5826 25.4055 52.7321 25.2981 52.7923 25.1449V25.1449H54.9661C55.0956 25.1397 55.2108 25.092 55.3059 25.0041V25.0041L56.9452 23.3649C56.9917 23.3854 57.0429 23.3977 57.0969 23.399V23.399C57.3193 23.4045 57.5041 23.2284 57.5095 23.0058V23.0058C57.5148 22.7835 57.3391 22.5988 57.1166 22.5934V22.5934C57.1132 22.5933 57.1099 22.5933 57.1065 22.5933V22.5933C56.8885 22.5933 56.7093 22.7671 56.704 22.9862V22.9862ZM51.8989 23.6894C51.8975 23.7505 51.9106 23.8079 51.9335 23.8603V23.8603L51.023 24.7707C51.0106 24.7905 50.9132 24.8307 50.8904 24.8256V24.8256H50.0651C50.0126 24.6643 49.8627 24.5471 49.6836 24.5471V24.5471C49.4612 24.5471 49.2809 24.7273 49.2809 24.9499V24.9499C49.2809 25.1723 49.4612 25.3528 49.6836 25.3528V25.3528C49.8457 25.3528 49.9845 25.2565 50.0485 25.1186V25.1186H50.8904C51.0199 25.1134 51.135 25.0656 51.2302 24.9779V24.9779L52.1401 24.0681C52.1868 24.0886 52.2379 24.1008 52.2918 24.1021V24.1021C52.5143 24.1076 52.6991 23.9316 52.7046 23.709V23.709C52.7099 23.4867 52.5341 23.302 52.3116 23.2965V23.2965C52.3082 23.2964 52.3048 23.2964 52.3015 23.2964V23.2964C52.0836 23.2964 51.9043 23.4704 51.8989 23.6894V23.6894ZM73.2304 26.6064C73.2914 26.6099 73.3492 26.5987 73.4023 26.5777V26.5777L74.2804 27.5194C74.2998 27.5325 74.3365 27.6313 74.3307 27.6539V27.6539L74.3019 28.4787C74.1388 28.5255 74.0164 28.6713 74.0102 28.8502V28.8502C74.0024 29.0725 74.1762 29.259 74.3987 29.2668V29.2668C74.621 29.2745 74.8076 29.1006 74.8154 28.8783V28.8783C74.8211 28.7163 74.7297 28.5743 74.5941 28.5055V28.5055L74.6235 27.6641C74.6228 27.5345 74.5791 27.4178 74.4947 27.3196V27.3196L73.6172 26.3785C73.6394 26.3325 73.6533 26.2819 73.6565 26.2281V26.2281C73.6698 26.0059 73.5003 25.8151 73.278 25.8018V25.8018C73.056 25.7888 72.8653 25.958 72.8521 26.1802V26.1802C72.8519 26.1836 72.8517 26.187 72.8516 26.1902V26.1902C72.844 26.408 73.0116 26.5933 73.2304 26.6064V26.6064ZM54.2721 15.788C54.2707 15.8491 54.2838 15.9065 54.3067 15.9589V15.9589L53.3962 16.8693C53.3838 16.8891 53.2863 16.9293 53.2636 16.9242V16.9242H52.4383C52.3858 16.7628 52.2359 16.6456 52.0568 16.6456V16.6456C51.8344 16.6456 51.6541 16.8259 51.6541 17.0485V17.0485C51.6541 17.2709 51.8344 17.4514 52.0568 17.4514V17.4514C52.2189 17.4514 52.3577 17.3551 52.4217 17.2172V17.2172H53.2636C53.3931 17.212 53.5082 17.1642 53.6034 17.0765V17.0765L54.5133 16.1667C54.56 16.1872 54.611 16.1994 54.665 16.2007V16.2007C54.8875 16.2062 55.0723 16.0302 55.0778 15.8075V15.8075C55.0831 15.5852 54.9073 15.4006 54.6847 15.3951V15.3951C54.6814 15.395 54.6779 15.395 54.6747 15.395V15.395C54.4568 15.395 54.2775 15.5689 54.2721 15.788V15.788ZM49.3989 17.152C49.3975 17.2131 49.4107 17.2705 49.4335 17.3228V17.3228L48.523 18.2332C48.5106 18.2531 48.4132 18.2932 48.3904 18.2882V18.2882H47.5651C47.5126 18.1268 47.3627 18.0096 47.1836 18.0096V18.0096C46.9612 18.0096 46.7809 18.1899 46.7809 18.4125V18.4125C46.7809 18.6349 46.9612 18.8154 47.1836 18.8154V18.8154C47.3457 18.8154 47.4845 18.7191 47.5485 18.5812V18.5812H48.3904C48.5199 18.576 48.635 18.5282 48.7302 18.4404V18.4404L49.6401 17.5307C49.6868 17.5512 49.7379 17.5634 49.7918 17.5647V17.5647C50.0144 17.5702 50.1991 17.3942 50.2046 17.1715V17.1715C50.2099 16.9492 50.0341 16.7646 49.8116 16.7591V16.7591C49.8082 16.759 49.8048 16.759 49.8015 16.759V16.759C49.5836 16.759 49.4043 16.9329 49.3989 17.152V17.152ZM45.8238 28.0716C45.8224 28.1327 45.8356 28.1901 45.8585 28.2424V28.2424L44.948 29.1528C44.9356 29.1727 44.8381 29.2128 44.8153 29.2078V29.2078H43.9901C43.9375 29.0464 43.7876 28.9292 43.6086 28.9292V28.9292C43.3862 28.9292 43.2058 29.1095 43.2058 29.3321V29.3321C43.2058 29.5545 43.3862 29.735 43.6086 29.735V29.735C43.7707 29.735 43.9095 29.6387 43.9735 29.5008V29.5008H44.8153C44.9448 29.4956 45.06 29.4478 45.1552 29.3601V29.3601L46.065 28.4503C46.1118 28.4708 46.1628 28.483 46.2168 28.4843V28.4843C46.4393 28.4898 46.6241 28.3138 46.6296 28.0911V28.0911C46.6349 27.8688 46.4591 27.6842 46.2365 27.6787V27.6787C46.2332 27.6786 46.2297 27.6786 46.2265 27.6786V27.6786C46.0086 27.6786 45.8292 27.8525 45.8238 28.0716V28.0716ZM67.5161 47.0235C67.4719 47.0657 67.4406 47.1156 67.4198 47.1688V47.1688L66.1322 47.1687C66.1094 47.174 66.0121 47.1335 65.9996 47.1138V47.1138L65.416 46.5302C65.4929 46.379 65.4698 46.1901 65.3432 46.0635V46.0635C65.1859 45.9062 64.931 45.9062 64.7736 46.0636V46.0636C64.6163 46.2209 64.6162 46.476 64.7735 46.6332V46.6332C64.8881 46.7479 65.0543 46.7779 65.1971 46.7257V46.7257L65.7924 47.3209C65.8876 47.4089 66.0028 47.4565 66.1322 47.4617V47.4617L67.4188 47.4618C67.4374 47.5094 67.4649 47.5541 67.5021 47.5931V47.5931C67.6556 47.7544 67.9107 47.7606 68.072 47.607V47.607C68.2329 47.4536 68.2392 47.1987 68.0857 47.0375V47.0375C68.0834 47.035 68.081 47.0326 68.0787 47.0303V47.0303C67.9246 46.8762 67.6748 46.8724 67.5161 47.0235V47.0235ZM76.7516 37.7983C76.7074 37.8405 76.6761 37.8904 76.6553 37.9436V37.9436L75.3677 37.9435C75.3449 37.9488 75.2476 37.9083 75.2351 37.8886V37.8886L74.6515 37.305C74.7284 37.1538 74.7053 36.9649 74.5787 36.8383V36.8383C74.4214 36.681 74.1665 36.681 74.0091 36.8384V36.8384C73.8518 36.9957 73.8517 37.2508 74.009 37.408V37.408C74.1236 37.5227 74.2898 37.5527 74.4326 37.5005V37.5005L75.0279 38.0958C75.1231 38.1837 75.2383 38.2313 75.3677 38.2365V38.2365L76.6543 38.2366C76.6729 38.2842 76.7004 38.3289 76.7376 38.368V38.368C76.8911 38.5292 77.1462 38.5354 77.3075 38.3818V38.3818C77.4684 38.2284 77.4747 37.9735 77.3212 37.8123V37.8123C77.3189 37.8098 77.3165 37.8074 77.3142 37.8051V37.8051C77.1601 37.651 76.9103 37.6472 76.7516 37.7983V37.7983ZM58.3908 15.7918C58.435 15.834 58.4663 15.8839 58.4871 15.9371V15.9371L59.7747 15.937C59.7975 15.9423 59.8948 15.9018 59.9074 15.8821V15.8821L60.4909 15.2985C60.414 15.1473 60.4371 14.9584 60.5637 14.8318V14.8318C60.721 14.6745 60.9759 14.6745 61.1334 14.8319V14.8319C61.2906 14.9892 61.2907 15.2443 61.1334 15.4016V15.4016C61.0188 15.5162 60.8526 15.5462 60.7098 15.494V15.494L60.1145 16.0893C60.0193 16.1772 59.9041 16.2248 59.7747 16.2301V16.2301L58.4881 16.2301C58.4695 16.2777 58.442 16.3224 58.4048 16.3615V16.3615C58.2513 16.5227 57.9962 16.5289 57.8349 16.3753V16.3753C57.674 16.2219 57.6677 15.967 57.8212 15.8058V15.8058C57.8235 15.8033 57.8259 15.8009 57.8282 15.7986V15.7986C57.9823 15.6445 58.2321 15.6407 58.3908 15.7918V15.7918ZM64.7016 16.0562C64.7458 16.014 64.7771 15.9641 64.7979 15.9109V15.9109L66.0855 15.911C66.1083 15.9057 66.2056 15.9462 66.2181 15.9659V15.9659L66.8016 16.5495C66.7247 16.7007 66.7479 16.8896 66.8744 17.0162V17.0162C67.0317 17.1734 67.2867 17.1735 67.4441 17.0161V17.0161C67.6014 16.8588 67.6015 16.6037 67.4442 16.4464V16.4464C67.3296 16.3318 67.1634 16.3018 67.0206 16.354V16.354L66.4253 15.7587C66.3301 15.6708 66.2148 15.6232 66.0855 15.6179V15.6179L64.7988 15.6179C64.7803 15.5703 64.7528 15.5256 64.7156 15.4865V15.4865C64.5621 15.3253 64.307 15.3191 64.1457 15.4726V15.4726C63.9847 15.6261 63.9785 15.881 64.1319 16.0422V16.0422C64.1342 16.0447 64.1367 16.0471 64.139 16.0494V16.0494C64.293 16.2035 64.5429 16.2073 64.7016 16.0562V16.0562ZM67.6904 23.7173C67.6851 23.9397 67.8608 24.1246 68.0833 24.13V24.13C68.1444 24.1315 68.2017 24.1184 68.2542 24.0953V24.0953L69.1387 24.9798C69.1584 24.9922 69.1988 25.0899 69.1934 25.1126V25.1126V28.1708C69.0399 28.2244 68.9277 28.3677 68.9234 28.54V28.54C68.9182 28.7623 69.094 28.9471 69.3165 28.9526V28.9526C69.5387 28.958 69.7237 28.7821 69.7292 28.5596V28.5596C69.7332 28.3908 69.6325 28.2441 69.4867 28.1808V28.1808L69.4865 25.1126C69.4815 24.9832 69.4336 24.8679 69.3458 24.7726V24.7726L68.462 23.8888C68.4822 23.8422 68.4947 23.791 68.4959 23.7369V23.7369C68.5013 23.5145 68.3255 23.3297 68.1029 23.3243V23.3243C68.0995 23.3242 68.0962 23.3242 68.0928 23.3242V23.3242C67.875 23.3242 67.6957 23.4981 67.6904 23.7173V23.7173ZM62.9587 24.7431H58.7215C58.5921 24.7482 58.4768 24.7958 58.3815 24.8838V24.8838L56.8799 26.3858C56.8394 26.371 56.7967 26.3608 56.7511 26.3596V26.3596C56.5287 26.3542 56.3439 26.5301 56.3384 26.7526V26.7526C56.3331 26.9749 56.509 27.1598 56.7316 27.1653V27.1653C56.9541 27.1707 57.1386 26.9947 57.1441 26.7722V26.7722C57.1458 26.7031 57.1282 26.6387 57.099 26.5809V26.5809L58.5888 25.0911C58.6015 25.0716 58.6987 25.031 58.7215 25.0361V25.0361H62.9371C62.9867 25.1973 63.1329 25.3172 63.3109 25.3216V25.3216C63.5333 25.327 63.718 25.151 63.7234 24.9285V24.9285C63.7287 24.706 63.5528 24.5214 63.3305 24.5159V24.5159C63.3272 24.5158 63.3239 24.5158 63.3207 24.5158V24.5158C63.1618 24.5158 63.0245 24.6085 62.9587 24.7431V24.7431ZM47.9133 24.9498C47.9133 25.1723 48.0936 25.3527 48.3161 25.3527V25.3527C48.3601 25.3527 48.4015 25.3438 48.4411 25.3308V25.3308L49.482 26.3718C49.5772 26.4595 49.6924 26.5073 49.8222 26.5125V26.5125H53.6058C53.6634 26.6593 53.8041 26.7647 53.9714 26.7689V26.7689C54.1938 26.7743 54.3785 26.5983 54.3839 26.3758V26.3758C54.3895 26.1533 54.2135 25.9687 53.991 25.9631V25.9631C53.817 25.959 53.6674 26.0664 53.6072 26.2195V26.2195H49.8222C49.7991 26.2247 49.7017 26.1842 49.6893 26.1645V26.1645L48.6677 25.143C48.6994 25.0854 48.7191 25.0202 48.7191 24.9498V24.9498C48.7191 24.7272 48.5387 24.547 48.3161 24.547V24.547C48.0936 24.547 47.9133 24.7272 47.9133 24.9498V24.9498ZM63.9177 47.337C63.9177 47.5594 64.098 47.7399 64.3205 47.7399V47.7399C64.3645 47.7399 64.4059 47.731 64.4455 47.718V47.718L65.4864 48.7589C65.5816 48.8467 65.6968 48.8945 65.8265 48.8997V48.8997H69.6102C69.6678 49.0464 69.8085 49.1519 69.9758 49.1561V49.1561C70.1982 49.1615 70.3829 48.9855 70.3883 48.7629V48.7629C70.3939 48.5405 70.2179 48.3559 69.9953 48.3503V48.3503C69.8214 48.3462 69.6718 48.4535 69.6116 48.6067V48.6067H65.8265C65.8035 48.6119 65.7061 48.5714 65.6937 48.5516V48.5516L64.6721 47.5302C64.7038 47.4726 64.7235 47.4074 64.7235 47.337V47.337C64.7235 47.1144 64.5431 46.9341 64.3205 46.9341V46.9341C64.098 46.9341 63.9177 47.1144 63.9177 47.337V47.337ZM64.6193 24.6081C64.4616 24.6085 64.3349 24.7353 64.3341 24.8931V24.8931V27.6439C64.3392 27.7734 64.3871 27.8886 64.475 27.9837V27.9837L67.14 30.6487C67.1195 30.6952 67.1073 30.7464 67.1059 30.8002V30.8002C67.1006 31.0228 67.2766 31.2076 67.499 31.213V31.213C67.7213 31.2185 67.9061 31.0426 67.9116 30.82V30.82C67.9169 30.5977 67.741 30.413 67.5185 30.4075V30.4075C67.4573 30.406 67.4 30.4191 67.3478 30.4422V30.4422L64.6823 27.7767C64.6626 27.764 64.6223 27.6667 64.6273 27.6439V27.6439V24.9008H65.3924C65.415 24.8959 65.5128 24.9363 65.5249 24.9561V24.9561L67.9702 27.401C67.9498 27.4476 67.9375 27.4987 67.9361 27.5528V27.5528C67.9308 27.7752 68.1066 27.9599 68.329 27.9654V27.9654C68.5515 27.9707 68.7364 27.7949 68.7418 27.5724V27.5724C68.7471 27.35 68.5712 27.1653 68.3489 27.1598V27.1598C68.2877 27.1583 68.2303 27.1715 68.1779 27.1944V27.1944L65.7322 24.7488C65.6372 24.6607 65.5217 24.6131 65.3924 24.6081V24.6081H64.6193ZM46.6436 25.0962C46.6436 25.3188 46.824 25.4991 47.0465 25.4991V25.4991C47.0973 25.4991 47.1455 25.4887 47.1904 25.4715V25.4715L48.4323 26.7134C48.4519 26.726 48.4923 26.8233 48.4871 26.8462V26.8462L48.4872 31.4287C48.4923 31.5581 48.5401 31.6732 48.6279 31.7685V31.7685L50.4099 33.5506C50.5053 33.6384 50.6206 33.6864 50.75 33.6914V33.6914H52.8561C52.8946 33.8687 53.0493 34.0042 53.239 34.0088V34.0088C53.4614 34.0142 53.6462 33.8383 53.6515 33.6157V33.6157C53.6569 33.3933 53.4811 33.2086 53.2585 33.2032V33.2032C53.109 33.1995 52.9779 33.2789 52.9055 33.3982V33.3982H50.75C50.7272 33.4035 50.6297 33.363 50.6173 33.3435V33.3435L48.8351 31.5614C48.8154 31.5489 48.7752 31.4514 48.7801 31.4287V31.4287V26.8462C48.7752 26.7167 48.7272 26.6014 48.6394 26.5063V26.5063L47.4066 25.2734C47.4332 25.2198 47.4495 25.1602 47.4495 25.0962V25.0962C47.4495 24.8737 47.2691 24.6934 47.0465 24.6934V24.6934C46.824 24.6934 46.6436 24.8737 46.6436 25.0962V25.0962ZM46.1917 26.3539C46.2492 26.3539 46.3036 26.3414 46.3532 26.3198L47.4551 27.4216C47.4749 27.4341 47.5153 27.5317 47.5102 27.5544V31.9414C47.5153 32.0709 47.5631 32.1861 47.6512 32.2813L48.8141 33.4446C48.7937 33.491 48.7814 33.542 48.7801 33.5962C48.7747 33.8186 48.9507 34.0034 49.1732 34.0089C49.3956 34.0143 49.5802 33.8384 49.5857 33.6157C49.5911 33.3933 49.4152 33.2087 49.1927 33.2033C49.1318 33.2019 49.0741 33.2148 49.0218 33.2379L47.8582 32.0741C47.8386 32.0618 47.7981 31.9643 47.8031 31.9414V27.5544C47.7981 27.425 47.7504 27.3097 47.6626 27.2146L46.5604 26.1126C46.582 26.0629 46.5945 26.0084 46.5945 25.9509C46.5945 25.7284 46.4142 25.548 46.1917 25.548C45.9692 25.548 45.7888 25.7284 45.7888 25.9509C45.7888 26.1733 45.9692 26.3539 46.1917 26.3539ZM61.9094 26.1221L59.3939 26.1219C59.2643 26.1272 59.1491 26.1748 59.0539 26.2631V26.2631L56.8567 28.4602C56.8443 28.4798 56.747 28.5201 56.7239 28.5149V28.5149H54.6611C54.6039 28.3683 54.463 28.2629 54.2957 28.2588V28.2588C54.0733 28.2533 53.8885 28.4292 53.883 28.6516V28.6516C53.8777 28.874 54.0536 29.0588 54.2761 29.0644V29.0644C54.4501 29.0686 54.5997 28.9611 54.6598 28.808V28.808H56.7239C56.8536 28.8029 56.9687 28.755 57.0638 28.6673V28.6673L59.2613 26.4699C59.2735 26.4502 59.3711 26.4098 59.3939 26.4149V26.4149H61.9081C61.9654 26.5617 62.1062 26.6672 62.2736 26.6713V26.6713C62.4959 26.6768 62.6807 26.5009 62.6861 26.2783V26.2783C62.6914 26.0557 62.5156 25.871 62.2931 25.8657V25.8657C62.2898 25.8656 62.2866 25.8656 62.2833 25.8656V25.8656C62.1135 25.8656 61.9682 25.9718 61.9094 26.1221V26.1221ZM65.2749 27.1255C65.2698 27.348 65.4455 27.5329 65.6678 27.5383V27.5383C65.7287 27.5399 65.7862 27.5267 65.8386 27.5037V27.5037L69.0164 30.6814C69.0361 30.6938 69.0766 30.7914 69.0711 30.8142V30.8142V34.139C69.0766 34.1618 69.0361 34.2592 69.0164 34.2716V34.2716L67.4459 35.8421C67.3582 35.9373 67.3101 36.0523 67.305 36.182V36.182V40.9076C67.1586 40.9647 67.0531 41.1057 67.0489 41.273V41.273C67.0436 41.4953 67.2196 41.6803 67.4421 41.6856V41.6856C67.6644 41.691 67.849 41.515 67.8546 41.2924V41.2924C67.859 41.1186 67.7515 40.9692 67.5984 40.9088V40.9088L67.5983 36.182C67.5933 36.1594 67.6333 36.0617 67.6532 36.0495V36.0495L69.2238 34.479C69.3113 34.3836 69.3592 34.2683 69.3644 34.139V34.139V30.8142C69.3592 30.6846 69.3113 30.5696 69.2238 30.4742V30.4742L66.0465 27.2972C66.067 27.2504 66.0793 27.1994 66.0807 27.1452V27.1452C66.086 26.9229 65.9102 26.738 65.6878 26.7328V26.7328C65.6844 26.7326 65.681 26.7326 65.6777 26.7326V26.7326C65.4596 26.7326 65.2802 26.9065 65.2749 27.1255V27.1255ZM63.0328 27.1475H60.2729C60.1434 27.1528 60.0282 27.2003 59.9329 27.2884V27.2884L57.1009 30.1205C57.0885 30.1402 56.9912 30.1805 56.9683 30.1755V30.1755H56.3217C56.2644 30.0288 56.1236 29.9232 55.9561 29.9191V29.9191C55.7339 29.9136 55.5491 30.0896 55.5435 30.3121V30.3121C55.5382 30.5345 55.7141 30.7195 55.9367 30.7247V30.7247C56.1106 30.7291 56.2601 30.6216 56.3202 30.4683V30.4683H56.9683C57.0979 30.4634 57.2131 30.4156 57.3082 30.3276V30.3276L60.1401 27.4956C60.1527 27.4759 60.25 27.4354 60.2729 27.4405V27.4405H63.0314C63.0888 27.5872 63.2295 27.6928 63.3967 27.6969V27.6969C63.6192 27.7023 63.804 27.5263 63.8094 27.3038V27.3038C63.8148 27.0813 63.6389 26.8967 63.4162 26.8913V26.8913C63.4129 26.8912 63.4095 26.8912 63.4062 26.8912V26.8912C63.2367 26.8912 63.0917 26.9972 63.0328 27.1475V27.1475ZM55.1307 27.1717H50.6767C50.5471 27.1767 50.4317 27.2246 50.3366 27.3127V27.3127L49.6779 27.9713C49.5897 28.0666 49.5422 28.1818 49.5369 28.3114V28.3114V30.5325C49.3902 30.5898 49.2847 30.7307 49.2807 30.8979V30.8979C49.2753 31.1204 49.4513 31.3052 49.6736 31.3107V31.3107C49.8961 31.3161 50.081 31.1401 50.0862 30.9175V30.9175C50.0906 30.7435 49.9833 30.5941 49.8299 30.534V30.534V28.3114C49.8249 28.2886 49.8652 28.191 49.8849 28.1785V28.1785L50.5439 27.5198C50.5563 27.5 50.6537 27.4598 50.6767 27.4647V27.4647H55.1199C55.1734 27.619 55.3169 27.7317 55.4897 27.7362V27.7362C55.7121 27.7415 55.8969 27.5655 55.9022 27.343V27.343C55.9077 27.1206 55.7318 26.9359 55.5094 26.9304V26.9304C55.506 26.9304 55.5026 26.9303 55.4992 26.9303V26.9303C55.3351 26.9303 55.1933 27.0294 55.1307 27.1717V27.1717ZM70.2316 27.3814C70.2263 27.6038 70.4022 27.7885 70.6245 27.794V27.794C70.6855 27.7956 70.7429 27.7823 70.7952 27.7595V27.7595L71.5562 28.5201C71.5758 28.5326 71.6161 28.6302 71.611 28.653V28.653V35.4084C71.6161 35.4315 71.5758 35.5287 71.5562 35.5411V35.5411L70.1888 36.9082C70.1012 37.0034 70.0533 37.1188 70.0482 37.248V37.248V38.639C69.9017 38.6965 69.7961 38.8372 69.7919 39.0045V39.0045C69.7866 39.2269 69.9625 39.4117 70.1851 39.4171V39.4171C70.4076 39.4226 70.5922 39.2467 70.5978 39.0242V39.0242C70.6017 38.8501 70.4944 38.7004 70.3414 38.6407V38.6407V37.248C70.3363 37.2253 70.3766 37.1279 70.3964 37.1154V37.1154L71.7634 35.7484C71.8512 35.6534 71.8989 35.5379 71.9038 35.4084V35.4084V28.653C71.8989 28.5235 71.8512 28.4083 71.7634 28.3131V28.3131L71.0031 27.5527C71.0235 27.5062 71.0358 27.4551 71.0373 27.4011V27.4011C71.0425 27.1786 70.8667 26.9938 70.6444 26.9884V26.9884C70.6409 26.9884 70.6376 26.9883 70.6342 26.9883V26.9883C70.4162 26.9883 70.2368 27.1623 70.2316 27.3814V27.3814ZM56.5692 42.6847C56.695 42.8047 56.7249 42.9865 56.6592 43.1372V43.1372L59.3566 45.8345C59.5009 45.7714 59.6751 45.7964 59.7962 45.9117V45.9117C59.9572 46.0652 59.9636 46.3203 59.8101 46.4814V46.4814C59.6565 46.6426 59.4015 46.6487 59.2406 46.4952V46.4952C59.1143 46.3752 59.0846 46.1937 59.1504 46.0429V46.0429L56.453 43.3455C56.3088 43.4087 56.1346 43.3836 56.0135 43.2682V43.2682C55.8523 43.1147 55.8459 42.8597 55.9995 42.6986V42.6986C56.0017 42.6962 56.004 42.6939 56.0062 42.6916V42.6916C56.1604 42.5375 56.4102 42.5335 56.5692 42.6847V42.6847ZM60.9983 28.43C60.993 28.6523 61.1688 28.8372 61.3911 28.8426V28.8426C61.4426 28.8438 61.4918 28.8346 61.5373 28.8179V28.8179L64.0782 31.3589C64.0978 31.3713 64.1382 31.4689 64.133 31.4915V31.4915V33.0081C63.9864 33.0656 63.8811 33.2064 63.877 33.3735V33.3735C63.8714 33.596 64.0476 33.7808 64.2699 33.7864V33.7864C64.4924 33.7917 64.6773 33.6157 64.6825 33.3933V33.3933C64.6868 33.2193 64.5795 33.0697 64.4264 33.0096V33.0096L64.4262 31.4915C64.4212 31.362 64.3734 31.2469 64.2853 31.1516V31.1516L61.7577 28.6241C61.7852 28.5714 61.8022 28.5126 61.8037 28.4495V28.4495C61.8093 28.2271 61.6332 28.0424 61.4108 28.0369V28.0369C61.4074 28.0368 61.4041 28.0368 61.4008 28.0368V28.0368C61.183 28.0368 61.0036 28.2108 60.9983 28.43V28.43ZM73.95 30.8229C73.9447 31.0452 74.1205 31.2301 74.3428 31.2355V31.2355C74.3943 31.2367 74.4435 31.2275 74.4889 31.2108V31.2108L77.0299 33.7518C77.0494 33.7642 77.0899 33.8618 77.0847 33.8844V33.8844V35.401C76.938 35.4585 76.8327 35.5993 76.8286 35.7664V35.7664C76.8231 35.9889 76.9992 36.1737 77.2215 36.1793V36.1793C77.4441 36.1846 77.6289 36.0086 77.6341 35.7862V35.7862C77.6384 35.6122 77.5312 35.4626 77.378 35.4025V35.4025L77.3778 33.8844C77.3729 33.7549 77.325 33.6398 77.237 33.5445V33.5445L74.7094 31.017C74.7368 30.9643 74.7539 30.9055 74.7554 30.8424V30.8424C74.761 30.62 74.5849 30.4353 74.3625 30.4298V30.4298C74.3591 30.4297 74.3558 30.4297 74.3524 30.4297V30.4297C74.1346 30.4297 73.9553 30.6037 73.95 30.8229V30.8229ZM46.5667 20.8564C46.572 21.0787 46.3962 21.2636 46.1739 21.269V21.269C46.1224 21.2703 46.0732 21.261 46.0278 21.2444V21.2444L43.4868 23.7853C43.4673 23.7977 43.4268 23.8953 43.432 23.918V23.918V25.4346C43.5786 25.4921 43.684 25.6328 43.6881 25.8V25.8C43.6936 26.0224 43.5175 26.2073 43.2951 26.2129V26.2129C43.0726 26.2182 42.8878 26.0421 42.8826 25.8197V25.8197C42.8783 25.6457 42.9855 25.4962 43.1387 25.4361V25.4361L43.1389 23.918C43.1438 23.7885 43.1917 23.6733 43.2797 23.578V23.578L45.8073 21.0506C45.7799 20.9978 45.7628 20.9391 45.7613 20.8759V20.8759C45.7557 20.6535 45.9318 20.4689 46.1542 20.4634V20.4634C46.1576 20.4633 46.1609 20.4633 46.1643 20.4633V20.4633C46.3821 20.4633 46.5614 20.6372 46.5667 20.8564V20.8564ZM63.0766 28.5832C63.0711 28.8055 63.2471 28.9903 63.4696 28.9959V28.9959C63.5395 28.9975 63.6047 28.9797 63.6628 28.9497V28.9497L65.8882 31.1752C65.9078 31.1876 65.9482 31.2851 65.9433 31.3079V31.3079V33.385C65.9482 33.4077 65.9078 33.5053 65.8882 33.5176V33.5176L65.1437 34.262C65.1314 34.2816 65.034 34.3219 65.0111 34.317V34.317H61.2371C61.2142 34.3219 61.1166 34.2816 61.1044 34.262V34.262L58.481 31.6385C58.5213 31.5775 58.5465 31.5055 58.5484 31.4269V31.4269C58.5537 31.2045 58.3777 31.0198 58.1553 31.0143V31.0143C57.9328 31.0089 57.7481 31.1848 57.7428 31.4071V31.4071C57.7374 31.6297 57.9134 31.8144 58.1357 31.8199V31.8199C58.1705 31.8207 58.2038 31.8158 58.2364 31.8083V31.8083L60.8973 34.4693C60.9922 34.5572 61.1077 34.6048 61.2371 34.6101V34.6101H65.0111C65.1406 34.6048 65.2557 34.5572 65.3511 34.4693V34.4693L66.0954 33.7249C66.1833 33.6296 66.231 33.5144 66.2362 33.385V33.385L66.2361 31.3079C66.231 31.1782 66.1833 31.0631 66.0954 30.968V30.968L63.8567 28.7291C63.871 28.6893 63.8811 28.6474 63.882 28.6029V28.6029C63.8874 28.3804 63.7115 28.1957 63.4891 28.1903V28.1903C63.4858 28.1902 63.4823 28.1902 63.479 28.1902V28.1902C63.2611 28.1902 63.0818 28.364 63.0766 28.5832V28.5832ZM52.1948 28.6514C52.1893 28.8738 52.3652 29.0586 52.5877 29.0642V29.0642C52.6486 29.0657 52.7062 29.0525 52.7585 29.0295V29.0295L53.8891 30.1603C53.8687 30.2068 53.8564 30.2579 53.8551 30.3119V30.3119C53.8499 30.5343 54.0257 30.7193 54.2483 30.7244V30.7244C54.4706 30.7299 54.6552 30.5541 54.6608 30.3315V30.3315C54.6661 30.1091 54.4902 29.9244 54.2677 29.9189V29.9189C54.207 29.9175 54.1493 29.9307 54.0971 29.9535V29.9535L52.9662 28.8228C52.9866 28.7762 52.9989 28.7251 53.0002 28.6711V28.6711C53.0058 28.4486 52.8299 28.264 52.6074 28.2586V28.2586C52.6039 28.2585 52.6006 28.2585 52.5971 28.2585V28.2585C52.3793 28.2585 52.2002 28.4323 52.1948 28.6514V28.6514ZM50.5018 28.6514C50.4962 28.8738 50.6722 29.0586 50.8946 29.0642V29.0642C50.9556 29.0657 51.0129 29.0525 51.0655 29.0296V29.0296L52.1961 30.1603C52.1756 30.2068 52.1634 30.2579 52.1621 30.3119V30.3119C52.1566 30.5343 52.3326 30.7193 52.5551 30.7244V30.7244C52.7776 30.7299 52.9623 30.5541 52.9677 30.3315V30.3315C52.9729 30.1091 52.7971 29.9244 52.5747 29.9189V29.9189C52.5137 29.9175 52.4563 29.9307 52.404 29.9535V29.9535L51.2732 28.8228C51.2936 28.7762 51.3059 28.7251 51.3072 28.6711V28.6711C51.3127 28.4486 51.1368 28.264 50.9144 28.2586V28.2586C50.9109 28.2585 50.9076 28.2585 50.9041 28.2585V28.2585C50.6862 28.2585 50.507 28.4323 50.5018 28.6514V28.6514ZM70.2314 29.1398C70.2273 29.3138 70.3345 29.4634 70.4876 29.5236V29.5236V34.5299C70.4926 34.5525 70.4525 34.6502 70.4328 34.6625V34.6625L68.8459 36.2494C68.7581 36.3445 68.7103 36.4599 68.7053 36.5893V36.5893V39.9091C68.5586 39.9665 68.453 40.1074 68.4489 40.2747V40.2747C68.4436 40.4971 68.6195 40.6818 68.8421 40.6873V40.6873C69.0644 40.6927 69.2492 40.5167 69.2542 40.2941V40.2941C69.2588 40.1203 69.1514 39.9707 68.9984 39.9106V39.9106L68.9981 36.5893C68.9931 36.5665 69.0333 36.469 69.0532 36.4566V36.4566L70.64 34.8698C70.7278 34.7745 70.7756 34.6594 70.7809 34.5299V34.5299V29.5251C70.9275 29.4677 71.0329 29.3269 71.0372 29.1596V29.1596C71.0423 28.9371 70.8665 28.7524 70.6442 28.747V28.747C70.6408 28.7469 70.6373 28.7469 70.634 28.7469V28.7469C70.416 28.7469 70.2366 28.9209 70.2314 29.1398V29.1398ZM59.9363 29.4917C59.9311 29.7142 60.1069 29.899 60.3294 29.9044V29.9044C60.4004 29.9063 60.4666 29.8878 60.5255 29.857V29.857L61.7308 31.0624C61.7191 31.0985 61.7106 31.1359 61.7096 31.1757V31.1757C61.7043 31.3982 61.8802 31.583 62.1026 31.5885V31.5885C62.3251 31.5939 62.5099 31.418 62.5152 31.1954V31.1954C62.5205 30.973 62.3447 30.7884 62.1223 30.7829V30.7829C62.0477 30.7812 61.9783 30.8011 61.9176 30.8348V30.8348L60.7176 29.6348C60.7313 29.5958 60.7408 29.5548 60.7419 29.5114V29.5114C60.7474 29.2889 60.5714 29.1041 60.349 29.0988V29.0988C60.3457 29.0987 60.3424 29.0987 60.3391 29.0987V29.0987C60.1213 29.0987 59.9417 29.2727 59.9363 29.4917V29.4917ZM54.5327 14.3177C54.5275 14.5403 54.7033 14.725 54.9258 14.7304V14.7304C54.9968 14.7324 55.063 14.7139 55.1219 14.683V14.683L56.3271 15.8885C56.3155 15.9245 56.307 15.962 56.306 16.0018V16.0018C56.3007 16.2242 56.4766 16.4091 56.699 16.4146V16.4146C56.9214 16.42 57.1063 16.2441 57.1116 16.0214V16.0214C57.1169 15.799 56.9411 15.6145 56.7187 15.609V15.609C56.6441 15.6073 56.5747 15.6271 56.5139 15.6609V15.6609L55.314 14.4608C55.3277 14.4219 55.3372 14.3809 55.3383 14.3375V14.3375C55.3438 14.115 55.1678 13.9302 54.9453 13.9249V13.9249C54.9421 13.9248 54.9388 13.9248 54.9355 13.9248V13.9248C54.7176 13.9248 54.5381 14.0988 54.5327 14.3177V14.3177ZM51.2484 15.5931C51.2526 15.7671 51.1453 15.9167 50.992 15.9769V15.9769V17.7747C50.9871 17.9044 50.9394 18.0195 50.8515 18.1146V18.1146L48.9471 20.019C48.852 20.1069 48.7368 20.1546 48.6072 20.1598V20.1598H47.9489C47.8915 20.3064 47.7506 20.412 47.5835 20.416V20.416C47.3609 20.4216 47.1762 20.2454 47.1709 20.0229V20.0229C47.1653 19.8004 47.3412 19.6158 47.5637 19.6104V19.6104C47.7378 19.6061 47.8872 19.7136 47.9472 19.8666V19.8666H48.6072C48.6302 19.8718 48.7275 19.8314 48.7399 19.8117V19.8117L50.6441 17.9075C50.6639 17.8951 50.7044 17.7977 50.6991 17.7747V17.7747V15.9783C50.5523 15.9209 50.4469 15.7801 50.4429 15.6127V15.6127C50.4373 15.3903 50.6132 15.2055 50.8358 15.2002V15.2002C50.8393 15.2002 50.8426 15.2001 50.8461 15.2001V15.2001C51.0638 15.2001 51.2431 15.3741 51.2484 15.5931V15.5931ZM58.8433 30.444C58.8379 30.6665 59.0138 30.8513 59.2364 30.8568V30.8568C59.2971 30.8583 59.3549 30.8451 59.407 30.8223V30.8223L60.624 32.0393C60.6036 32.0859 60.5915 32.1369 60.59 32.1908V32.1908C60.5847 32.4132 60.7606 32.5982 60.983 32.6036V32.6036C61.2055 32.609 61.39 32.4331 61.3956 32.2106V32.2106C61.401 31.9881 61.225 31.8035 61.0027 31.7979V31.7979C60.9418 31.7965 60.8842 31.8096 60.8321 31.8325V31.8325L59.6149 30.6155C59.6353 30.5689 59.6475 30.5177 59.649 30.4637V30.4637C59.6543 30.2413 59.4783 30.0566 59.256 30.0512V30.0512C59.2527 30.0511 59.2493 30.0511 59.246 30.0511V30.0511C59.028 30.0511 58.8486 30.225 58.8433 30.444V30.444ZM51.2098 31.2519C51.2044 31.4743 51.3803 31.6592 51.6029 31.6647V31.6647C51.7768 31.6689 51.9263 31.5614 51.9865 31.4083V31.4083H56.0527C56.0755 31.4031 56.1729 31.4437 56.1852 31.4632V31.4632L60.2261 35.5041C60.2458 35.5164 60.2859 35.614 60.2807 35.6368V35.6368V41.6353C60.2859 41.7648 60.3338 41.8801 60.4217 41.9754V41.9754L63.6482 45.2018C63.6278 45.2485 63.6154 45.2994 63.6141 45.3536V45.3536C63.6089 45.5759 63.7848 45.7605 64.0073 45.7662V45.7662C64.2297 45.7716 64.4144 45.5955 64.4199 45.3731V45.3731C64.4252 45.1506 64.2495 44.9659 64.0268 44.9604V44.9604C63.966 44.959 63.9084 44.9721 63.8561 44.9951V44.9951L60.6291 41.768C60.6091 41.7556 60.569 41.6582 60.5741 41.6353V41.6353V35.6368C60.569 35.5074 60.5212 35.3921 60.4332 35.2968V35.2968L56.3924 31.2559C56.2975 31.1681 56.1821 31.1205 56.0527 31.1153V31.1153H51.9879C51.9307 30.9686 51.7898 30.8631 51.6224 30.8591V30.8591C51.6191 30.859 51.6157 30.8589 51.6124 30.8589V30.8589C51.3946 30.8589 51.2151 31.0328 51.2098 31.2519V31.2519ZM62.7795 32.2422C62.778 32.303 62.791 32.3606 62.8138 32.4128V32.4128L62.2287 32.9984C62.182 32.9779 62.131 32.9657 62.077 32.9643V32.9643C61.8546 32.959 61.6698 33.1349 61.6645 33.3572V33.3572C61.6591 33.5797 61.835 33.7645 62.0573 33.77V33.77C62.2798 33.7754 62.4646 33.5994 62.4701 33.3768V33.3768C62.4713 33.316 62.4583 33.2583 62.4354 33.206V33.206L63.0208 32.6209C63.0673 32.6413 63.1186 32.6536 63.1723 32.655V32.655C63.3948 32.6604 63.5796 32.4843 63.5851 32.2618V32.2618C63.5906 32.0393 63.4146 31.8547 63.1921 31.8492V31.8492C63.1888 31.8491 63.1855 31.8491 63.1822 31.8491V31.8491C62.9641 31.8491 62.7849 32.0231 62.7795 32.2422V32.2422ZM56.668 37.4252C56.6665 37.486 56.6795 37.5435 56.7023 37.5958V37.5958L56.1172 38.1813C56.0705 38.1608 56.0195 38.1486 55.9655 38.1472V38.1472C55.7431 38.142 55.5582 38.3179 55.553 38.5402V38.5402C55.5476 38.7627 55.7235 38.9475 55.9458 38.953V38.953C56.1683 38.9584 56.3531 38.7823 56.3586 38.5598V38.5598C56.3598 38.499 56.3468 38.4413 56.3239 38.389V38.389L56.9093 37.8038C56.9558 37.8242 57.0071 37.8365 57.0608 37.8379V37.8379C57.2833 37.8433 57.4681 37.6673 57.4736 37.4448V37.4448C57.4791 37.2223 57.3031 37.0377 57.0805 37.0322V37.0322C57.0773 37.0321 57.074 37.0321 57.0707 37.0321V37.0321C56.8526 37.0321 56.6734 37.2061 56.668 37.4252V37.4252ZM53.3822 14.6416C53.3807 14.7024 53.3938 14.76 53.4166 14.8122V14.8122L52.8314 15.3978C52.7848 15.3773 52.7338 15.3651 52.6798 15.3637V15.3637C52.4574 15.3584 52.2725 15.5343 52.2672 15.7566V15.7566C52.2618 15.9791 52.4377 16.1639 52.6601 16.1694V16.1694C52.8826 16.1748 53.0673 15.9988 53.0728 15.7762V15.7762C53.074 15.7154 53.0611 15.6577 53.0382 15.6054V15.6054L53.6236 15.0203C53.6701 15.0407 53.7213 15.053 53.7751 15.0544V15.0544C53.9976 15.0598 54.1824 14.8837 54.1879 14.6612V14.6612C54.1934 14.4387 54.0173 14.2541 53.7948 14.2486V14.2486C53.7916 14.2485 53.7882 14.2485 53.785 14.2485V14.2485C53.5669 14.2485 53.3876 14.4225 53.3822 14.6416V14.6416ZM74.0941 41.3421C74.0926 41.2813 74.1056 41.2238 74.1284 41.1715V41.1715L73.5433 40.586C73.4966 40.6065 73.4456 40.6187 73.3916 40.6201V40.6201C73.1692 40.6253 72.9844 40.4494 72.9791 40.2271V40.2271C72.9737 40.0046 73.1496 39.8198 73.3719 39.8143V39.8143C73.5944 39.8089 73.7792 39.985 73.7847 40.2075V40.2075C73.7859 40.2683 73.7729 40.326 73.75 40.3783V40.3783L74.3354 40.9635C74.3819 40.9431 74.4332 40.9308 74.4869 40.9294V40.9294C74.7094 40.924 74.8942 41.1 74.8997 41.3225V41.3225C74.9052 41.545 74.7292 41.7296 74.5067 41.7351V41.7351C74.5034 41.7352 74.5001 41.7352 74.4968 41.7352V41.7352C74.2787 41.7352 74.0995 41.5612 74.0941 41.3421V41.3421ZM62.3208 49.2809C62.3193 49.2201 62.3324 49.1625 62.3551 49.1103V49.1103L61.77 48.5247C61.7234 48.5452 61.6723 48.5574 61.6184 48.5588V48.5588C61.396 48.5641 61.2111 48.3882 61.2058 48.1659V48.1659C61.2004 47.9434 61.3763 47.7586 61.5986 47.7531V47.7531C61.8212 47.7477 62.0059 47.9237 62.0114 48.1463V48.1463C62.0126 48.2071 61.9997 48.2648 61.9768 48.3171V48.3171L62.5621 48.9022C62.6086 48.8818 62.6599 48.8695 62.7137 48.8681V48.8681C62.9362 48.8627 63.1209 49.0388 63.1264 49.2613V49.2613C63.1319 49.4838 62.9559 49.6684 62.7334 49.6739V49.6739C62.7302 49.674 62.7268 49.674 62.7236 49.674V49.674C62.5055 49.674 62.3262 49.5 62.3208 49.2809V49.2809ZM59.9815 45.1872C59.98 45.1263 59.9931 45.0688 60.0159 45.0166V45.0166L59.4307 44.431C59.3841 44.4515 59.3331 44.4637 59.2791 44.4651V44.4651C59.0567 44.4704 58.8718 44.2945 58.8665 44.0722V44.0722C58.8611 43.8496 59.037 43.6649 59.2593 43.6594V43.6594C59.4819 43.654 59.6666 43.83 59.6721 44.0525V44.0525C59.6733 44.1134 59.6604 44.171 59.6375 44.2233V44.2233L60.2228 44.8085C60.2694 44.7881 60.3206 44.7758 60.3744 44.7744V44.7744C60.5969 44.769 60.7816 44.945 60.7872 45.1675V45.1675C60.7927 45.3901 60.6166 45.5746 60.3941 45.5801V45.5801C60.3909 45.5802 60.3875 45.5802 60.3843 45.5802V45.5802C60.1662 45.5802 59.9869 45.4062 59.9815 45.1872V45.1872ZM74.0941 44.2549C74.0926 44.194 74.1056 44.1365 74.1284 44.0843V44.0843L73.5433 43.4987C73.4966 43.5192 73.4456 43.5314 73.3916 43.5328V43.5328C73.1692 43.5381 72.9844 43.3622 72.9791 43.1399V43.1399C72.9737 42.9174 73.1496 42.7326 73.3719 42.7271V42.7271C73.5944 42.7217 73.7792 42.8977 73.7847 43.1203V43.1203C73.7859 43.1811 73.7729 43.2387 73.75 43.2911V43.2911L74.3354 43.8762C74.3819 43.8558 74.4332 43.8435 74.4869 43.8421V43.8421C74.7094 43.8367 74.8942 44.0127 74.8997 44.2353V44.2353C74.9052 44.4578 74.7292 44.6423 74.5067 44.6478V44.6478C74.5034 44.648 74.5001 44.648 74.4968 44.648V44.648C74.2787 44.648 74.0995 44.474 74.0941 44.2549V44.2549ZM58.251 14.8053C58.2525 14.7444 58.2395 14.6869 58.2167 14.6347V14.6347L58.8018 14.0491C58.8485 14.0696 58.8995 14.0818 58.9535 14.0832V14.0832C59.1759 14.0885 59.3608 13.9126 59.366 13.6903V13.6903C59.3714 13.4677 59.1955 13.283 58.9732 13.2775V13.2775C58.7507 13.2721 58.5659 13.4481 58.5604 13.6706V13.6706C58.5592 13.7315 58.5722 13.7891 58.5951 13.8414V13.8414L58.0097 14.4266C57.9632 14.4062 57.9119 14.3939 57.8582 14.3925V14.3925C57.6357 14.3871 57.4509 14.5631 57.4454 14.7856V14.7856C57.4399 15.0082 57.6159 15.1927 57.8384 15.1982V15.1982C57.8417 15.1983 57.845 15.1983 57.8483 15.1983V15.1983C58.0664 15.1983 58.2456 15.0243 58.251 14.8053V14.8053ZM72.1524 45.7088C72.1509 45.7697 72.1639 45.8272 72.1867 45.8794V45.8794L71.6015 46.465C71.5549 46.4445 71.5039 46.4323 71.4499 46.4309V46.4309C71.2275 46.4256 71.0426 46.6015 71.0373 46.8238V46.8238C71.032 47.0464 71.2079 47.2311 71.4302 47.2366V47.2366C71.6527 47.242 71.8375 47.066 71.843 46.8435V46.8435C71.8441 46.7826 71.8312 46.725 71.8083 46.6726V46.6726L72.3937 46.0875C72.4402 46.1079 72.4914 46.1202 72.5452 46.1216V46.1216C72.7677 46.127 72.9525 45.951 72.958 45.7285V45.7285C72.9635 45.5059 72.7875 45.3214 72.5649 45.3159V45.3159C72.5617 45.3158 72.5584 45.3158 72.5551 45.3158V45.3158C72.337 45.3158 72.1578 45.4897 72.1524 45.7088V45.7088ZM73.512 23.585C73.5135 23.6459 73.5004 23.7034 73.4776 23.7557V23.7557L74.0628 24.3412C74.1094 24.3207 74.1604 24.3085 74.2144 24.3071V24.3071C74.4368 24.3018 74.6217 24.4778 74.627 24.7001V24.7001C74.6324 24.9226 74.4565 25.1074 74.2341 25.1129V25.1129C74.0116 25.1183 73.8269 24.9422 73.8214 24.7197V24.7197C73.8202 24.6588 73.8331 24.6012 73.856 24.5489V24.5489L73.2706 23.9637C73.2241 23.9841 73.1729 23.9964 73.1191 23.9978V23.9978C72.8966 24.0032 72.7118 23.8272 72.7063 23.6047V23.6047C72.7008 23.3822 72.8769 23.1976 73.0994 23.1921V23.1921C73.1026 23.192 73.106 23.192 73.1092 23.192V23.192C73.3273 23.192 73.5066 23.366 73.512 23.585V23.585ZM74.6819 34.8908C74.6834 34.9516 74.6703 35.0091 74.6475 35.0614V35.0614L75.2327 35.6469C75.2793 35.6264 75.3303 35.6142 75.3843 35.6128V35.6128C75.6067 35.6076 75.7916 35.7835 75.7969 36.0058V36.0058C75.8023 36.2283 75.6264 36.4131 75.404 36.4186V36.4186C75.1815 36.424 74.9968 36.2479 74.9913 36.0254V36.0254C74.9901 35.9645 75.003 35.9069 75.0259 35.8546V35.8546L74.4405 35.2694C74.394 35.2898 74.3428 35.3021 74.289 35.3035V35.3035C74.0665 35.3089 73.8817 35.1329 73.8762 34.9104V34.9104C73.8707 34.6879 74.0468 34.5033 74.2693 34.4978V34.4978C74.2725 34.4977 74.2759 34.4977 74.2791 34.4977V34.4977C74.4972 34.4977 74.6765 34.6717 74.6819 34.8908V34.8908ZM76.6831 29.3663C76.6816 29.4271 76.6947 29.4846 76.7174 29.5369V29.5369L76.1323 30.1224C76.0857 30.1019 76.0346 30.0897 75.9807 30.0883V30.0883C75.7583 30.0831 75.5734 30.259 75.5681 30.4813V30.4813C75.5627 30.7038 75.7386 30.8886 75.9609 30.8941V30.8941C76.1835 30.8995 76.3682 30.7234 76.3737 30.5009V30.5009C76.3749 30.4401 76.362 30.3824 76.3391 30.3301V30.3301L76.9244 29.7449C76.9709 29.7653 77.0222 29.7776 77.076 29.779V29.779C77.2985 29.7844 77.4832 29.6084 77.4887 29.3859V29.3859C77.4942 29.1634 77.3182 28.9788 77.0957 28.9733V28.9733C77.0925 28.9732 77.0891 28.9732 77.0859 28.9732V28.9732C76.8678 28.9732 76.6885 29.1472 76.6831 29.3663V29.3663ZM45.9467 22.4157C45.9452 22.4765 45.9582 22.534 45.981 22.5863V22.5863L45.3959 23.1718C45.3493 23.1513 45.2982 23.1391 45.2443 23.1377V23.1377C45.0218 23.1325 44.837 23.3084 44.8317 23.5307V23.5307C44.8263 23.7532 45.0022 23.938 45.2245 23.9435V23.9435C45.447 23.9489 45.6318 23.7728 45.6373 23.5503V23.5503C45.6385 23.4895 45.6255 23.4318 45.6027 23.3795V23.3795L46.188 22.7943C46.2345 22.8147 46.2858 22.827 46.3395 22.8284V22.8284C46.5621 22.8338 46.7468 22.6578 46.7523 22.4353V22.4353C46.7578 22.2128 46.5818 22.0282 46.3593 22.0227V22.0227C46.356 22.0226 46.3527 22.0226 46.3495 22.0226V22.0226C46.1313 22.0226 45.9521 22.1966 45.9467 22.4157V22.4157ZM44.5823 19.6867C44.5808 19.7475 44.5939 19.805 44.6166 19.8573V19.8573L44.0315 20.4428C43.9849 20.4223 43.9338 20.4101 43.8799 20.4087V20.4087C43.6575 20.4035 43.4726 20.5794 43.4673 20.8017V20.8017C43.4619 21.0242 43.6378 21.209 43.8601 21.2145V21.2145C44.0827 21.2199 44.2674 21.0438 44.2729 20.8213V20.8213C44.2741 20.7605 44.2612 20.7028 44.2383 20.6505V20.6505L44.8236 20.0653C44.8701 20.0857 44.9214 20.098 44.9752 20.0994V20.0994C45.1977 20.1048 45.3824 19.9288 45.3879 19.7063V19.7063C45.3934 19.4838 45.2174 19.2992 44.9949 19.2937V19.2937C44.9917 19.2936 44.9883 19.2936 44.9851 19.2936V19.2936C44.767 19.2936 44.5877 19.4676 44.5823 19.6867V19.6867ZM50.3798 32.2781C50.3745 32.5007 50.5503 32.6855 50.7727 32.6909V32.6909C50.9952 32.6964 51.18 32.5204 51.1853 32.2979V32.2979V32.4461H55.6253C55.648 32.441 55.7456 32.4811 55.758 32.5009V32.5009L59.2004 35.9435C59.2202 35.9561 59.2605 36.0535 59.2551 36.0764V36.0764V42.0747C59.2605 42.2044 59.3081 42.3196 59.3961 42.4148V42.4148L62.9156 45.9342C62.8951 45.9807 62.883 46.0318 62.8816 46.0858V46.0858C62.8763 46.3083 63.052 46.4933 63.2746 46.4985V46.4985C63.4971 46.504 63.6817 46.3281 63.6872 46.1056V46.1056C63.6925 45.8831 63.5167 45.6984 63.2941 45.6931V45.6931C63.2332 45.6914 63.1759 45.7047 63.1234 45.7277V45.7277L59.6033 42.2076C59.5835 42.1949 59.5434 42.0974 59.5483 42.0747V42.0747V36.0764C59.5434 35.9469 59.4955 35.8316 59.4076 35.7363V35.7363L55.9653 32.2937C55.87 32.2057 55.7548 32.1581 55.6253 32.1527V32.1527H51.1853V32.278C51.1801 32.0646 51.0083 31.8907 50.7924 31.8853V31.8853C50.7891 31.8852 50.7857 31.8852 50.7825 31.8852V31.8852C50.5645 31.8852 50.3853 32.0592 50.3798 32.2781V32.2781ZM72.7956 32.2896C72.7914 32.4636 72.8985 32.6132 73.0519 32.6734V32.6734V36.1711C73.057 36.1938 73.0165 36.2912 72.9966 36.304V36.304L72.5818 36.719C72.5369 36.7 72.4885 36.6884 72.4372 36.6871V36.6871C72.2148 36.6817 72.0298 36.8574 72.0245 37.0799V37.0799C72.0191 37.3025 72.195 37.4873 72.4174 37.4927V37.4927C72.64 37.4982 72.8247 37.3222 72.8301 37.0997V37.0997C72.8315 37.0364 72.8172 36.9769 72.7924 36.9229V36.9229L73.2041 36.5112C73.2919 36.4158 73.3395 36.3004 73.345 36.1711V36.1711V32.6748C73.4916 32.6176 73.5971 32.4766 73.6012 32.3093V32.3093C73.6065 32.0869 73.4308 31.9022 73.2083 31.8967V31.8967C73.2049 31.8967 73.2017 31.8966 73.1983 31.8966V31.8966C72.9802 31.8966 72.8009 32.0705 72.7956 32.2896V32.2896ZM67.1061 32.3152C67.102 32.4884 67.2082 32.6375 67.3601 32.6982V32.6982V33.6526C67.3654 33.6756 67.3249 33.773 67.3051 33.7856V33.7856L65.9402 35.1502C65.9278 35.1698 65.8303 35.2103 65.8078 35.2052V35.2052H62.5614C62.5058 35.0551 62.3637 34.9462 62.194 34.9422V34.9422C61.9716 34.9366 61.7869 35.1125 61.7814 35.3351V35.3351C61.776 35.5575 61.9519 35.7424 62.1743 35.7477V35.7477C62.3458 35.7519 62.4937 35.6478 62.5557 35.4983V35.4983H65.8078C65.9373 35.4929 66.0524 35.4453 66.1476 35.3576V35.3576L67.5124 33.9926C67.6001 33.8972 67.6479 33.7822 67.6532 33.6526V33.6526V32.7012C67.801 32.6442 67.9076 32.5032 67.9118 32.3349V32.3349C67.9171 32.1125 67.7412 31.9277 67.5188 31.9224V31.9224C67.5154 31.9223 67.512 31.9223 67.5087 31.9223V31.9223C67.2907 31.9222 67.1116 32.0963 67.1061 32.3152V32.3152ZM54.7384 33.5964C54.7369 33.6571 54.7502 33.7149 54.773 33.7671V33.7671L54.1222 34.4181C54.1097 34.4377 54.0122 34.4782 53.9894 34.473V34.473H50.5964C50.5392 34.3263 50.3982 34.2209 50.2308 34.2168V34.2168C50.0084 34.2114 49.8236 34.3871 49.8183 34.6096V34.6096C49.8128 34.8321 49.9887 35.0169 50.2111 35.0223V35.0223C50.3851 35.0266 50.5347 34.9192 50.5949 34.766V34.766H53.9894C54.1188 34.7609 54.234 34.7132 54.3293 34.6253V34.6253L54.9797 33.975C55.0263 33.9953 55.0774 34.0076 55.1313 34.009V34.009C55.3538 34.0144 55.5386 33.8385 55.544 33.6159V33.6159C55.5495 33.3935 55.3735 33.2088 55.151 33.2034V33.2034C55.1477 33.2033 55.1444 33.2033 55.1412 33.2033V33.2033C54.9233 33.2033 54.7439 33.3771 54.7384 33.5964V33.5964ZM56.5617 34.3103C56.489 34.3101 56.4154 34.3382 56.3599 34.3935V34.3935L56.1014 34.6521C56.055 34.6317 56.004 34.6195 55.9499 34.6181V34.6181C55.7276 34.6127 55.5427 34.7886 55.5372 35.0112V35.0112C55.5319 35.2335 55.7077 35.4183 55.9303 35.424V35.424C56.1528 35.429 56.3374 35.2532 56.3427 35.0306V35.0306C56.3442 34.9697 56.3312 34.9122 56.3082 34.8597V34.8597L56.5616 34.6065L58.1426 36.1875C58.1625 36.1999 58.2028 36.2977 58.1975 36.3203V36.3203V42.3229C58.045 42.3773 57.9338 42.5201 57.9296 42.6916V42.6916C57.9244 42.9141 58.1002 43.0989 58.3225 43.1043V43.1043C58.5449 43.1098 58.7298 42.9337 58.7351 42.7113V42.7113C58.7393 42.5415 58.6374 42.3944 58.4903 42.3315V42.3315V36.3203C58.4855 36.1908 58.4375 36.0756 58.3497 35.9804V35.9804L56.763 34.3935C56.7078 34.3381 56.6341 34.3103 56.5625 34.3103V34.3103C56.5621 34.3103 56.5619 34.3103 56.5617 34.3103V34.3103ZM55.137 36.2555C55.1353 36.3164 55.1484 36.374 55.1714 36.4261V36.4261L54.8932 36.7046C54.8808 36.7245 54.7831 36.7649 54.7604 36.7597V36.7597H51.2628C51.2056 36.6129 51.0646 36.5074 50.8975 36.5033V36.5033C50.6749 36.498 50.4901 36.6739 50.4848 36.8962V36.8962C50.4794 37.1186 50.6552 37.3035 50.8777 37.3089V37.3089C51.0516 37.3132 51.2013 37.2058 51.2612 37.0529V37.0529L54.7604 37.0526C54.8898 37.0475 55.005 36.9997 55.1004 36.9119V36.9119L55.3781 36.6342C55.4247 36.6546 55.4757 36.6669 55.5298 36.6682V36.6682C55.7521 36.6737 55.937 36.4978 55.9424 36.2752V36.2752C55.9478 36.0526 55.772 35.868 55.5495 35.8626V35.8626C55.5461 35.8625 55.5427 35.8625 55.5393 35.8625V35.8625C55.3214 35.8625 55.1423 36.0365 55.137 36.2555V36.2555ZM61.7814 36.4656C61.776 36.6879 61.9519 36.8728 62.1743 36.8783V36.8783C62.3483 36.8826 62.4979 36.7752 62.558 36.6219V36.6219H64.7824C64.805 36.6169 64.9023 36.6571 64.9148 36.677V36.677L65.9643 37.7264C65.9841 37.7389 66.0243 37.8361 66.0192 37.8591V37.8591V41.8804C65.8728 41.9376 65.7673 42.0787 65.7631 42.2458V42.2458C65.7578 42.4681 65.9336 42.653 66.1561 42.6585V42.6585C66.3786 42.6639 66.5632 42.4879 66.5689 42.2654V42.2654C66.573 42.0914 66.4657 41.942 66.3127 41.8819V41.8819L66.3123 37.8591C66.3075 37.7295 66.2593 37.6145 66.1716 37.5193V37.5193L65.1222 36.4695C65.0267 36.3818 64.9118 36.334 64.7824 36.3289V36.3289H62.5596C62.5021 36.1822 62.3613 36.0767 62.194 36.0726V36.0726C62.1907 36.0725 62.1875 36.0725 62.1841 36.0725V36.0725C61.9661 36.0725 61.7867 36.2464 61.7814 36.4656V36.4656ZM61.0262 37.7204C61.0207 37.9427 61.1966 38.1276 61.419 38.133V38.133C61.593 38.1373 61.7426 38.0299 61.8026 37.8768V37.8768H63.5241C63.5469 37.8715 63.6444 37.9122 63.6569 37.9315V37.9315L64.7558 39.0307C64.7357 39.0774 64.7233 39.1283 64.722 39.1824V39.1824C64.7166 39.4049 64.8925 39.5898 65.1149 39.5952V39.5952C65.3372 39.6008 65.522 39.4245 65.5274 39.202V39.202C65.5328 38.9795 65.357 38.7948 65.1344 38.7895V38.7895C65.0737 38.7881 65.0159 38.8012 64.9637 38.8241V38.8241L63.864 37.7244C63.7687 37.6365 63.6533 37.5888 63.5241 37.5838V37.5838H61.8043C61.7467 37.437 61.606 37.3317 61.4387 37.3273V37.3273C61.4354 37.3273 61.4319 37.3272 61.4287 37.3272V37.3272C61.2107 37.3272 61.0315 37.5013 61.0262 37.7204V37.7204ZM67.4776 45.8964C67.4721 45.6741 67.648 45.4892 67.8705 45.4838V45.4838C68.0444 45.4795 68.1941 45.5869 68.2541 45.74V45.74H69.9755C69.9984 45.7453 70.0959 45.7046 70.1084 45.6853V45.6853L71.2073 44.586C71.1871 44.5394 71.1747 44.4885 71.1734 44.4344V44.4344C71.168 44.2119 71.3439 44.027 71.5664 44.0216V44.0216C71.7887 44.016 71.9734 44.1922 71.9788 44.4148V44.4148C71.9842 44.6373 71.8084 44.8219 71.5859 44.8272V44.8272C71.5251 44.8286 71.4674 44.8156 71.4152 44.7927V44.7927L70.3155 45.8924C70.2202 45.9802 70.1048 46.0279 69.9755 46.033V46.033H68.2557C68.1982 46.1798 68.0575 46.2851 67.8902 46.2894V46.2894C67.8869 46.2894 67.8834 46.2895 67.8802 46.2895V46.2895C67.6622 46.2895 67.4829 46.1155 67.4776 45.8964V45.8964ZM71.2432 37.8614C71.2416 37.9224 71.2546 37.9798 71.2778 38.0321V38.0321L71.1137 38.1961C71.0258 38.2913 70.9782 38.4064 70.973 38.5359V38.5359V41.9315C70.9782 41.9541 70.9377 42.0519 70.918 42.0641V42.0641L68.2231 44.7592C68.2106 44.7786 68.1134 44.8191 68.0906 44.814V44.814H66.0282C65.9708 44.6672 65.8298 44.562 65.6626 44.5579V44.5579C65.4403 44.5524 65.2556 44.7284 65.2501 44.9505V44.9505C65.2448 45.1731 65.4206 45.358 65.6431 45.3634V45.3634C65.8171 45.3677 65.9667 45.2603 66.0268 45.1072V45.1072H68.0906C68.2201 45.1021 68.3354 45.0541 68.4303 44.9662V44.9662L71.1253 42.2713C71.2132 42.1763 71.2611 42.0611 71.2661 41.9315V41.9315V38.5359C71.2611 38.513 71.3012 38.4156 71.3211 38.4033V38.4033L71.4843 38.24C71.5309 38.2605 71.5819 38.2728 71.636 38.2741V38.2741C71.8585 38.2796 72.0434 38.1036 72.0486 37.8811V37.8811C72.0539 37.6584 71.878 37.4738 71.6557 37.4686V37.4686C71.6523 37.4685 71.6489 37.4685 71.6455 37.4685V37.4685C71.4276 37.4685 71.2484 37.6423 71.2432 37.8614V37.8614ZM62.369 39.0049C62.3636 39.2273 62.5394 39.4122 62.7619 39.4176V39.4176C62.8227 39.4192 62.8802 39.406 62.9328 39.383V39.383L64.7557 41.2063C64.7356 41.2527 64.7232 41.3039 64.7219 41.3577V41.3577C64.7165 41.5801 64.8924 41.765 65.1148 41.7705V41.7705C65.3371 41.776 65.5219 41.6 65.5273 41.3776V41.3776C65.5327 41.1549 65.3569 40.9703 65.1343 40.9649V40.9649C65.0736 40.9634 65.0158 40.9764 64.9637 40.9994V40.9994L63.1405 39.1764C63.1608 39.1298 63.1731 39.0786 63.1745 39.0246V39.0246C63.18 38.8021 63.0041 38.6174 62.7816 38.612V38.612C62.7781 38.6119 62.7748 38.6118 62.7713 38.6118V38.6118C62.5536 38.6118 62.3743 38.7859 62.369 39.0049V39.0049ZM61.0262 39.0049C61.022 39.1789 61.129 39.3284 61.2821 39.3886V39.3886V41.1962C61.2872 41.3255 61.3351 41.4406 61.4231 41.5359V41.5359L63.6935 43.8064C63.7889 43.8944 63.9039 43.9421 64.0335 43.9471V43.9471H67.4193C67.5488 43.9421 67.664 43.8944 67.7593 43.8064V43.8064L70.012 41.5535C70.0589 41.574 70.11 41.5863 70.1641 41.5876V41.5876C70.3864 41.593 70.5712 41.417 70.5763 41.1944V41.1944C70.5818 40.9721 70.406 40.7874 70.1835 40.7819V40.7819C69.9611 40.7764 69.7764 40.9525 69.7709 41.1748V41.1748C69.7694 41.2358 69.7826 41.2932 69.8056 41.3453V41.3453L67.5518 43.5992C67.5395 43.6188 67.4421 43.6591 67.4193 43.6542V43.6542H64.0335C64.0107 43.6591 63.9131 43.6188 63.9009 43.5992V43.5992L61.6302 41.3287C61.6104 41.3163 61.5702 41.2187 61.5755 41.1962V41.1962V39.3901C61.7219 39.3329 61.8275 39.192 61.8317 39.0246V39.0246C61.837 38.8021 61.661 38.6174 61.4387 38.612V38.612C61.4353 38.6119 61.4318 38.6118 61.4285 38.6118V38.6118C61.2106 38.6118 61.0314 38.7859 61.0262 39.0049V39.0049ZM62.369 40.78C62.3636 41.0026 62.5394 41.1872 62.7619 41.1926V41.1926C62.8227 41.1942 62.8803 41.1812 62.933 41.1581V41.1581L63.8682 42.0936C63.8476 42.14 63.8354 42.191 63.834 42.2452V42.2452C63.8288 42.4675 64.0046 42.6524 64.2269 42.6579V42.6579C64.4495 42.6633 64.6343 42.4872 64.6396 42.2647V42.2647C64.645 42.0423 64.4691 41.8576 64.2465 41.852V41.852C64.1858 41.8507 64.1282 41.864 64.0756 41.8867V41.8867L63.1405 40.9513C63.1608 40.9048 63.1731 40.8538 63.1745 40.7997V40.7997C63.18 40.5774 63.0041 40.3925 62.7816 40.387V40.387C62.7782 40.387 62.775 40.3869 62.7717 40.3869V40.3869C62.5537 40.3869 62.3743 40.5609 62.369 40.78V40.78Z" fill="#FDFDFD"/>
</g>
<path fill-rule="evenodd" clip-rule="evenodd" d="M30.0945 31L2 32.4673L3.90542 68.7015L32 67.2342L30.0945 31Z" fill="url(#paint1_linear)"/>
<path fill-rule="evenodd" clip-rule="evenodd" d="M2.89551 67.985H31.0149V31.7163H2.89551V67.985Z" fill="#FDFDFD"/>
<path fill-rule="evenodd" clip-rule="evenodd" d="M7.01489 36.1941H26.985V35.7463H7.01489V36.1941Z" fill="#E0F4F6"/>
<path fill-rule="evenodd" clip-rule="evenodd" d="M7.01489 37.0894H26.985V36.6416H7.01489V37.0894Z" fill="#E0F4F6"/>
<path fill-rule="evenodd" clip-rule="evenodd" d="M7.01489 37.9851H26.985V37.5374H7.01489V37.9851Z" fill="#E0F4F6"/>
<path fill-rule="evenodd" clip-rule="evenodd" d="M7.23108 40.1869H7.87344V39.5445H7.23108V40.1869ZM7.01489 40.403H8.08952V39.3284H7.01489V40.403Z" fill="#E0F4F6"/>
<path fill-rule="evenodd" clip-rule="evenodd" d="M8.98511 40.1343H16.9553V39.6865H8.98511V40.1343Z" fill="#E0F4F6"/>
<path fill-rule="evenodd" clip-rule="evenodd" d="M7.23108 41.7988H7.87344V41.1565H7.23108V41.7988ZM7.01489 42.0148H8.08952V40.9402H7.01489V42.0148Z" fill="#E0F4F6"/>
<path fill-rule="evenodd" clip-rule="evenodd" d="M8.98511 41.6567H16.9553V41.209H8.98511V41.6567Z" fill="#E0F4F6"/>
<path fill-rule="evenodd" clip-rule="evenodd" d="M7.23108 43.3213H7.87344V42.679H7.23108V43.3213ZM7.01489 43.5373H8.08952V42.4626H7.01489V43.5373Z" fill="#E0F4F6"/>
<path fill-rule="evenodd" clip-rule="evenodd" d="M8.98511 43.2688H16.9553V42.821H8.98511V43.2688Z" fill="#E0F4F6"/>
<path fill-rule="evenodd" clip-rule="evenodd" d="M7.01489 56.6118H26.985V56.1641H7.01489V56.6118Z" fill="#E0F4F6"/>
<path fill-rule="evenodd" clip-rule="evenodd" d="M7.01489 57.5076H26.985V57.0598H7.01489V57.5076Z" fill="#E0F4F6"/>
<path fill-rule="evenodd" clip-rule="evenodd" d="M7.01489 58.4028H26.985V57.9551H7.01489V58.4028Z" fill="#E0F4F6"/>
<path fill-rule="evenodd" clip-rule="evenodd" d="M7.23108 60.6047H7.87344V59.9624H7.23108V60.6047ZM7.01489 60.821H8.08952V59.7463H7.01489V60.821Z" fill="#E0F4F6"/>
<path fill-rule="evenodd" clip-rule="evenodd" d="M8.98511 60.5523H16.9553V60.1045H8.98511V60.5523Z" fill="#E0F4F6"/>
<path fill-rule="evenodd" clip-rule="evenodd" d="M7.23108 62.2168H7.87344V61.5745H7.23108V62.2168ZM7.01489 62.4328H8.08952V61.3582H7.01489V62.4328Z" fill="#C6C6C5"/>
<path fill-rule="evenodd" clip-rule="evenodd" d="M8.98511 62.0747H16.9553V61.627H8.98511V62.0747Z" fill="#C6C6C5"/>
<path fill-rule="evenodd" clip-rule="evenodd" d="M7.23108 63.739H7.87344V63.0967H7.23108V63.739ZM7.01489 63.9552H8.08952V62.8806H7.01489V63.9552Z" fill="#C6C6C5"/>
<path fill-rule="evenodd" clip-rule="evenodd" d="M8.98511 63.6865H16.9553V63.2388H8.98511V63.6865Z" fill="#C6C6C5"/>
<path fill-rule="evenodd" clip-rule="evenodd" d="M7.01489 46.4031H26.985V45.9553H7.01489V46.4031Z" fill="#E0F4F6"/>
<path fill-rule="evenodd" clip-rule="evenodd" d="M7.01489 47.2986H26.985V46.8508H7.01489V47.2986Z" fill="#E0F4F6"/>
<path fill-rule="evenodd" clip-rule="evenodd" d="M7.23108 50.3957H7.87344V49.7534H7.23108V50.3957ZM7.01489 50.612H8.08952V49.5374H7.01489V50.612Z" fill="#E0F4F6"/>
<path fill-rule="evenodd" clip-rule="evenodd" d="M8.98511 50.3433H16.9553V49.8955H8.98511V50.3433Z" fill="#E0F4F6"/>
<path fill-rule="evenodd" clip-rule="evenodd" d="M7.23108 52.0077H7.87344V51.3653H7.23108V52.0077ZM7.01489 52.2238H8.08952V51.1492H7.01489V52.2238Z" fill="#E0F4F6"/>
<path fill-rule="evenodd" clip-rule="evenodd" d="M8.98511 51.8657H16.9553V51.418H8.98511V51.8657Z" fill="#E0F4F6"/>
<path fill-rule="evenodd" clip-rule="evenodd" d="M7.23108 53.5303H7.87344V52.888H7.23108V53.5303ZM7.01489 53.7463H8.08952V52.6716H7.01489V53.7463Z" fill="#E0F4F6"/>
<path fill-rule="evenodd" clip-rule="evenodd" d="M8.98511 53.4775H16.9553V53.0298H8.98511V53.4775Z" fill="#E0F4F6"/>
<path fill-rule="evenodd" clip-rule="evenodd" d="M6.92542 48.1941H16.9553V47.7463H6.92542V48.1941Z" fill="#E0F4F6"/>
<path d="M7.23887 49.9403L7.5523 50.2537" stroke="#00C9C9" stroke-width="2.4" stroke-linecap="round" stroke-linejoin="round"/>
<path d="M8.17911 49.627L7.55225 50.2538" stroke="#00C9C9" stroke-width="2.4" stroke-linecap="round" stroke-linejoin="round"/>
<path d="M7.23887 41.3431L7.5523 41.6565" stroke="#00C9C9" stroke-width="2.4" stroke-linecap="round" stroke-linejoin="round"/>
<path d="M8.17911 41.0298L7.55225 41.6567" stroke="#00C9C9" stroke-width="2.4" stroke-linecap="round" stroke-linejoin="round"/>
<path d="M7.19409 63.1492L7.82096 63.776" stroke="#2D2D2C" stroke-width="2.4" stroke-linecap="round" stroke-linejoin="round"/>
<path d="M7.82096 63.1492L7.19409 63.776" stroke="#2D2D2C" stroke-width="2.4" stroke-linecap="round" stroke-linejoin="round"/>
<defs>
<linearGradient id="paint0_linear" x1="20.455" y1="41.4832" x2="74.2014" y2="77.6325" gradientUnits="userSpaceOnUse">
<stop stop-color="#CDF4F5"/>
<stop offset="1" stop-color="#FFCDF3"/>
</linearGradient>
<linearGradient id="paint1_linear" x1="-13" y1="49.8507" x2="23.7382" y2="79.0842" gradientUnits="userSpaceOnUse">
<stop stop-color="#E3E4FA"/>
<stop offset="1" stop-color="#CEFFCD"/>
</linearGradient>
</defs>
</svg>
