<svg width="1110" height="80" viewBox="0 0 1110 80" fill="none" xmlns="http://www.w3.org/2000/svg">
<rect width="1110" height="80" fill="#F6FAFA"/>
<mask id="mask0" mask-type="alpha" maskUnits="userSpaceOnUse" x="0" y="0" width="1110" height="80">
<rect width="1110" height="80" fill="white"/>
</mask>
<g mask="url(#mask0)">
<path fill-rule="evenodd" clip-rule="evenodd" d="M1029.67 32.6789C1031.09 31.2621 1032.86 32.3738 1035.36 33.2044C1040.07 34.7749 1044.42 37.4636 1047.93 40.9792L1062.88 55.9203L1069.53 62.5774C1069.87 60.1409 1070.97 57.7902 1072.84 55.9203C1077.42 51.3345 1084.85 51.3299 1089.44 55.9203C1094.03 60.5075 1094.03 67.9333 1089.44 72.5212C1084.86 77.0983 1077.41 77.0966 1072.84 72.5221C1072.84 72.5212 1072.84 72.5212 1072.84 72.5212L1061.22 60.9003L1057.9 64.2208L1069.52 75.8421C1073.58 79.9028 1074.03 86.2198 1070.88 90.7898C1073.28 94.2762 1073.66 98.8281 1071.7 102.708C1071.11 103.873 1069.7 104.33 1068.55 103.748C1067.39 103.164 1066.93 101.752 1067.51 100.595C1068.56 98.5031 1068.48 96.0876 1067.42 94.1004C1062.85 96.9531 1056.84 96.367 1052.92 92.4431V92.4423C1048.33 87.8558 1048.33 80.4293 1052.92 75.8421C1054.74 74.0193 1057.06 72.8833 1059.57 72.5319L1052.92 65.8811L1037.98 50.9401C1034.46 47.4268 1031.77 43.0767 1030.2 38.3598C1029.37 35.8603 1028.26 34.0929 1029.67 32.6789ZM1076.16 69.2005C1078.91 71.9472 1083.37 71.9465 1086.12 69.2013C1088.87 66.451 1088.87 61.9936 1086.12 59.24C1083.37 56.4925 1078.92 56.4827 1076.16 59.24C1073.41 61.986 1073.41 66.4545 1076.16 69.2005ZM1056.24 79.1625C1053.48 81.9116 1053.48 86.3696 1056.24 89.1214C1056.24 89.1223 1056.24 89.1223 1056.24 89.1223C1058.98 91.8698 1063.44 91.8794 1066.2 89.1233C1066.2 89.1233 1066.2 89.122 1066.2 89.1216C1066.2 89.1216 1066.2 89.1212 1066.2 89.1207C1068.94 86.3745 1068.94 81.9075 1066.2 79.162C1063.44 76.4102 1058.99 76.4074 1056.24 79.1625Z" fill="url(#paint0_linear)"/>
<path fill-rule="evenodd" clip-rule="evenodd" d="M739.41 22.2501L722.765 -16.0653C722.113 -17.5871 721.054 -18.9336 719.727 -19.9443V-21.2283C719.727 -24.4109 717.158 -27 714 -27C710.842 -27 708.272 -24.4109 708.272 -21.2283V-19.9457C705.92 -18.1528 704.454 -15.349 704.454 -12.25C704.454 -5.53875 711.028 -1.07549 717.06 -3.13704L731.334 30.8265C731.633 31.5378 732.325 32 733.092 32C738.072 32 741.413 26.8496 739.41 22.2501ZM701.504 -7.47642L688.59 22.249C686.588 26.8481 689.925 32 694.908 32C695.675 32 696.367 31.5378 696.666 30.8269L709.469 0.376808C705.541 -1.05452 702.821 -3.94448 701.504 -7.47642ZM701.562 29.0464L712.376 3.32669C712.515 3.38578 712.667 3.44611 712.826 3.50939C714.128 4.02741 715.927 4.74313 715.146 6.59854L705.816 28.7748C705.037 30.628 703.279 29.8257 702.005 29.2444C701.849 29.1733 701.7 29.1056 701.562 29.0464Z" fill="url(#paint1_linear)"/>
<path fill-rule="evenodd" clip-rule="evenodd" d="M314.297 75.0535C315.533 78.5818 317.518 82.5591 319.866 85.6042C325.098 92.3876 333.097 96.1294 335.287 94.4407C337.477 92.7516 331.455 83.4914 326.223 76.708C324.465 74.4281 322.878 72.4436 321.414 70.8417L314.297 75.0535ZM298.595 41.6672C304.407 38.2269 316.28 35.5988 324.419 36.0481C324.461 36.13 324.505 36.2112 324.552 36.291L331.088 47.3329C331.11 47.3706 331.135 47.4065 331.158 47.4435C328.533 52.6881 323.506 58.8381 318.721 63.1247L320.879 66.7707C321.057 67.0702 321.106 67.4209 321.02 67.7577C320.934 68.0949 320.721 68.3779 320.422 68.5553L312.48 73.256C312.278 73.3753 312.05 73.438 311.818 73.438C311.352 73.438 310.932 73.1988 310.695 72.7984L308.433 68.9765C302.226 70.0367 297.269 66.0752 294.557 61.4931C291.129 55.7013 290.001 46.7538 298.595 41.6672ZM327.048 33.347L331.782 24.9397C332.465 23.7253 333.706 23 335.101 23C336.459 23 337.683 23.6984 338.376 24.868L347.753 40.7108C348.454 41.8949 348.469 43.3182 347.794 44.5175C347.118 45.7171 345.894 46.442 344.518 46.4572L334.87 46.5613L334.854 46.5616V46.5616V46.5616C334.341 46.5616 333.861 46.2875 333.6 45.8462L327.064 34.8043C326.8 34.3578 326.794 33.7991 327.048 33.347Z" fill="url(#paint2_linear)"/>
<path fill-rule="evenodd" clip-rule="evenodd" d="M87.0709 -0.0965748C86.5242 0.449798 85.7976 0.750891 85.0246 0.750891C84.2515 0.750891 83.525 0.449798 82.9783 -0.0965748L74.8433 -8.23154C74.433 -8.64218 73.887 -8.86817 73.3065 -8.86817C72.7257 -8.86817 72.1796 -8.64218 71.7693 -8.23154C71.3587 -7.82124 71.1324 -7.27521 71.1327 -6.69474C71.1327 -6.11426 71.3587 -5.56823 71.7693 -5.15793L79.9043 2.97703C81.0325 4.10561 81.0325 5.94144 79.9043 7.07001C79.3576 7.61638 78.631 7.91747 77.858 7.91747C77.0849 7.91747 76.3584 7.61638 75.8117 7.07001L67.6767 -1.06496C67.2664 -1.4756 66.7204 -1.70159 66.1399 -1.70159C65.5591 -1.70159 65.0131 -1.4756 64.6028 -1.06496C63.7553 -0.217493 63.7553 1.16153 64.6028 2.009L72.7377 10.144C73.2841 10.6907 73.5852 11.4176 73.5852 12.1903C73.5852 12.9633 73.2841 13.6902 72.7374 14.2366C72.1913 14.783 71.4645 15.0841 70.6914 15.0841C69.9184 15.0841 69.1918 14.783 68.6451 14.2366L60.5101 6.10163C60.0998 5.69099 59.5538 5.46499 58.9733 5.46499C58.3928 5.46499 57.8468 5.69099 57.4365 6.10163C57.0259 6.51192 56.7999 7.05795 56.7999 7.63843C56.7999 8.21925 57.0259 8.76528 57.4365 9.17558L65.5715 17.3105C66.6997 18.4391 66.6997 20.2749 65.5715 21.4032C65.0248 21.9495 64.2979 22.2506 63.5252 22.2506C62.7525 22.2506 62.0252 21.9495 61.4789 21.4032L53.3429 13.2689C52.9326 12.8583 52.3865 12.6323 51.806 12.6323C51.2252 12.6323 50.6795 12.8583 50.2692 13.2689C49.8586 13.6795 49.6323 14.2256 49.6323 14.806C49.6323 15.3869 49.8586 15.9329 50.2692 16.3432L58.4042 24.4782C59.5324 25.6067 59.5324 27.4426 58.4042 28.5708C57.8575 29.1172 57.1306 29.4183 56.3579 29.4183C55.5852 29.4183 54.858 29.1172 54.3116 28.5708L46.1766 20.4358C45.7663 20.0252 45.2203 19.7992 44.6398 19.7992C44.059 19.7992 43.5133 20.0252 43.103 20.4358C42.2555 21.2833 42.2555 22.6627 43.103 23.5101L51.238 31.6451C51.7843 32.1918 52.0854 32.9184 52.0854 33.6914C52.0854 34.4645 51.7843 35.1914 51.238 35.7377C50.6913 36.2841 49.9644 36.5852 49.1917 36.5852C48.4189 36.5852 47.6917 36.2841 47.1453 35.7377L39.0104 27.6028C38.6001 27.1921 38.054 26.9661 37.4736 26.9661C36.8927 26.9661 36.3471 27.1921 35.9368 27.6028C35.0893 28.4502 35.0893 29.8296 35.9368 30.6771L44.0717 38.812C45.2 39.9402 45.2 41.7761 44.0717 42.9047C43.525 43.4514 42.7981 43.7525 42.0254 43.7525C41.2524 43.7525 40.5255 43.4514 39.9791 42.9047L31.8441 34.77C31.4338 34.3594 30.8878 34.1334 30.3073 34.1334C29.7269 34.1334 29.1808 34.3594 28.7705 34.77C27.9231 35.6175 27.9231 36.9965 28.7705 37.844L36.9055 45.979C38.0334 47.1072 38.0337 48.943 36.9055 50.0716C36.3588 50.6183 35.6322 50.9194 34.8592 50.9194C34.0861 50.9194 33.3592 50.6183 32.8129 50.0716L17.4789 34.7394C16.525 33.7855 16 32.5174 16 31.1687C16 29.8199 16.5254 28.5515 17.4789 27.5976L64.5976 -19.5211C65.5515 -20.4746 66.8196 -21 68.1687 -21C69.5177 -21 70.7858 -20.4746 71.7397 -19.5211L87.0709 -4.1899C88.1995 -3.06098 88.1995 -1.22515 87.0709 -0.0965748Z" fill="url(#paint3_linear)"/>
</g>
<defs>
<linearGradient id="paint0_linear" x1="1124.82" y1="68.0001" x2="1053.33" y2="131.431" gradientUnits="userSpaceOnUse">
<stop stop-color="#E3E4FA"/>
<stop offset="1" stop-color="#FFDBEA"/>
</linearGradient>
<linearGradient id="paint1_linear" x1="662" y1="2.5" x2="720.533" y2="54.088" gradientUnits="userSpaceOnUse">
<stop stop-color="#E3E4FA"/>
<stop offset="1" stop-color="#CEFFCD"/>
</linearGradient>
<linearGradient id="paint2_linear" x1="376.434" y1="58.922" x2="306.677" y2="113.577" gradientUnits="userSpaceOnUse">
<stop stop-color="#E3E4FA"/>
<stop offset="1" stop-color="#FFDBEA"/>
</linearGradient>
<linearGradient id="paint3_linear" x1="-19.9587" y1="14.9597" x2="51.9607" y2="86.877" gradientUnits="userSpaceOnUse">
<stop stop-color="#E3E4FA"/>
<stop offset="1" stop-color="#CEFFCD"/>
</linearGradient>
</defs>
</svg>
