<svg width="129" height="44" viewBox="0 0 129 44" fill="none" xmlns="http://www.w3.org/2000/svg">
<g clip-path="url(#clip0)">
<path d="M65.68 18.9154C63.0486 18.9154 60.9653 20.889 60.9653 23.6301C60.9653 26.2615 63.0486 28.3447 65.68 28.3447C68.3114 28.3447 70.3946 26.3711 70.3946 23.6301C70.3946 20.7793 68.3114 18.9154 65.68 18.9154ZM65.68 26.3711C64.2546 26.3711 63.0486 25.1651 63.0486 23.5204C63.0486 21.8758 64.2546 20.6697 65.68 20.6697C67.1053 20.6697 68.3114 21.7661 68.3114 23.5204C68.3114 25.1651 67.1053 26.3711 65.68 26.3711ZM55.4832 18.9154C52.8518 18.9154 50.7686 20.889 50.7686 23.6301C50.7686 26.2615 52.8518 28.3447 55.4832 28.3447C58.1146 28.3447 60.1978 26.3711 60.1978 23.6301C60.1978 20.7793 58.1146 18.9154 55.4832 18.9154ZM55.4832 26.3711C54.0578 26.3711 52.8518 25.1651 52.8518 23.5204C52.8518 21.8758 54.0578 20.6697 55.4832 20.6697C56.9086 20.6697 58.1146 21.7661 58.1146 23.5204C58.1146 25.1651 56.9086 26.3711 55.4832 26.3711ZM43.3128 20.3408V22.3143H48.0275C47.9178 23.4108 47.4793 24.2879 46.9311 24.8361C46.2732 25.494 45.1768 26.2615 43.3128 26.2615C40.3525 26.2615 38.1596 23.959 38.1596 20.9986C38.1596 18.0383 40.4621 15.7358 43.3128 15.7358C44.8478 15.7358 46.0539 16.3936 46.9311 17.1611L48.3564 15.7358C47.1503 14.6393 45.6153 13.7622 43.4225 13.7622C39.4753 13.7622 36.0764 17.0515 36.0764 20.9986C36.0764 24.9458 39.4753 28.2351 43.4225 28.2351C45.6153 28.2351 47.1503 27.5772 48.4661 26.1518C49.7818 24.8361 50.2203 22.9722 50.2203 21.5468C50.2203 21.1083 50.2203 20.6697 50.1107 20.3408H43.3128ZM93.0907 21.8758C92.6521 20.7793 91.5557 18.9154 89.1436 18.9154C86.7314 18.9154 84.7578 20.7793 84.7578 23.6301C84.7578 26.2615 86.7314 28.3447 89.3628 28.3447C91.4461 28.3447 92.7618 27.029 93.2003 26.2615L91.6653 25.1651C91.1171 25.9326 90.4593 26.4808 89.3628 26.4808C88.2664 26.4808 87.6086 26.0422 87.0603 25.0554L93.31 22.424L93.0907 21.8758ZM86.7314 23.4108C86.7314 21.6565 88.1568 20.6697 89.1436 20.6697C89.9111 20.6697 90.6786 21.1083 90.8978 21.6565L86.7314 23.4108ZM81.5782 27.9061H83.6614V14.2008H81.5782V27.9061ZM78.2889 19.9022C77.7407 19.354 76.8636 18.8058 75.7671 18.8058C73.4646 18.8058 71.2718 20.889 71.2718 23.5204C71.2718 26.1518 73.355 28.1254 75.7671 28.1254C76.8636 28.1254 77.7407 27.5772 78.1793 27.029H78.2889V27.6868C78.2889 29.4411 77.3021 30.4279 75.7671 30.4279C74.5611 30.4279 73.6839 29.5508 73.4646 28.7833L71.7103 29.5508C72.2586 30.7568 73.5743 32.2919 75.8768 32.2919C78.2889 32.2919 80.2625 30.8665 80.2625 27.4676V19.1347H78.2889V19.9022ZM75.8768 26.3711C74.4514 26.3711 73.2453 25.1651 73.2453 23.5204C73.2453 21.8758 74.4514 20.6697 75.8768 20.6697C77.3021 20.6697 78.3986 21.8758 78.3986 23.5204C78.3986 25.1651 77.3021 26.3711 75.8768 26.3711ZM102.63 14.2008H97.6957V27.9061H99.7789V22.7529H102.63C104.932 22.7529 107.125 21.1083 107.125 18.4768C107.125 15.8454 104.932 14.2008 102.63 14.2008ZM102.739 20.7793H99.7789V16.0647H102.739C104.274 16.0647 105.151 17.3804 105.151 18.3672C105.042 19.5733 104.165 20.7793 102.739 20.7793ZM115.348 18.8058C113.813 18.8058 112.278 19.4636 111.73 20.889L113.594 21.6565C114.032 20.889 114.69 20.6697 115.458 20.6697C116.554 20.6697 117.541 21.3276 117.651 22.424V22.5336C117.322 22.3143 116.445 21.9854 115.567 21.9854C113.594 21.9854 111.62 23.0818 111.62 25.0554C111.62 26.9193 113.265 28.1254 115.019 28.1254C116.445 28.1254 117.102 27.4676 117.651 26.8097H117.76V27.9061H119.734V22.6433C119.515 20.2311 117.651 18.8058 115.348 18.8058ZM115.129 26.3711C114.471 26.3711 113.484 26.0422 113.484 25.1651C113.484 24.0686 114.69 23.7397 115.677 23.7397C116.554 23.7397 116.993 23.959 117.541 24.1783C117.322 25.494 116.225 26.3711 115.129 26.3711ZM126.641 19.1347L124.339 25.0554H124.229L121.817 19.1347H119.624L123.242 27.4676L121.159 32.0726H123.242L128.834 19.1347H126.641ZM108.221 27.9061H110.305V14.2008H108.221V27.9061Z" fill="white"/>
<path fill-rule="evenodd" clip-rule="evenodd" d="M39.8043 2.57861C40.2428 2.57861 40.6814 2.68826 41.12 2.90754C41.5586 3.12683 41.8875 3.34611 42.1068 3.67504L41.5586 4.22326C41.12 3.67504 40.5718 3.45576 39.8043 3.45576C39.1464 3.45576 38.4886 3.67504 38.05 4.22326C37.5018 4.66183 37.2825 5.31968 37.2825 6.08718C37.2825 6.85468 37.5018 7.51254 38.05 7.95111C38.5982 8.38968 39.1464 8.71861 39.8043 8.71861C40.5718 8.71861 41.12 8.49933 41.6682 7.95111C41.9971 7.62218 42.2164 7.18361 42.2164 6.6354H39.8043V5.8679H42.9839V6.19683C42.9839 7.07397 42.7646 7.84147 42.2164 8.38968C41.5586 9.04754 40.791 9.37647 39.8043 9.37647C38.8175 9.37647 38.05 9.04754 37.3921 8.38968C36.7343 7.73183 36.4053 6.96433 36.4053 5.97754C36.4053 4.99076 36.7343 4.22326 37.3921 3.5654C38.05 2.90754 38.8175 2.57861 39.8043 2.57861ZM69.2982 2.57861C70.285 2.57861 71.0525 2.90754 71.7103 3.5654C72.3682 4.22326 72.6971 4.99076 72.6971 5.97754C72.6971 6.96433 72.3682 7.73183 71.7103 8.38968C71.0525 9.04754 70.285 9.37647 69.2982 9.37647C68.3114 9.37647 67.5439 9.04754 66.886 8.38968C66.2282 7.73183 65.8993 6.96433 65.8993 5.97754C65.8993 4.99076 66.2282 4.22326 66.886 3.5654C67.5439 2.90754 68.3114 2.57861 69.2982 2.57861ZM48.0275 2.68826V3.45576H45.0671V5.53897H47.8082V6.30647H45.0671V8.38968H48.0275V9.26683H44.19V2.68826H48.0275ZM53.5096 2.68826V3.45576H51.6457V9.26683H50.7686V3.45576H48.9046V2.68826H53.5096ZM57.5664 2.68826V9.26683H56.6893V2.68826H57.5664ZM63.0485 2.68826V3.45576H61.1846V9.26683H60.4171V3.45576H58.5532V2.68826H63.0485ZM74.89 2.68826L78.0696 7.84147V2.68826H78.9468V9.26683H78.0696L74.6707 3.89433V9.26683H73.9032V2.68826H74.89ZM69.2982 3.34611C68.6403 3.34611 67.9825 3.5654 67.5439 4.11361C67.1053 4.55218 66.7764 5.21004 66.7764 5.97754C66.7764 6.74504 66.9957 7.4029 67.5439 7.84147C67.9825 8.28004 68.6403 8.60897 69.2982 8.60897C69.9561 8.60897 70.6139 8.38968 71.0525 7.84147C71.4911 7.4029 71.82 6.74504 71.82 5.97754C71.82 5.21004 71.6007 4.55218 71.0525 4.11361C70.6139 3.67504 69.9561 3.34611 69.2982 3.34611Z" fill="white" stroke="white" stroke-width="0.5"/>
<path fill-rule="evenodd" clip-rule="evenodd" d="M1.41607 3.23633C1.08714 3.56526 0.867859 4.11347 0.867859 4.77133V29.0024C0.867859 29.6603 1.08714 30.2085 1.41607 30.5374L1.52572 30.647L15.1214 17.0513V16.9417V16.832L1.41607 3.23633Z" fill="url(#paint0_linear)"/>
<path fill-rule="evenodd" clip-rule="evenodd" d="M19.6168 21.6563L15.1215 17.161V16.9417V16.832L19.6168 12.3367L19.7265 12.4463L25.099 15.5163C26.634 16.3935 26.634 17.8188 25.099 18.696L19.6168 21.6563Z" fill="url(#paint1_linear)"/>
<path fill-rule="evenodd" clip-rule="evenodd" d="M19.7264 21.5466L15.1214 16.9417L1.41608 30.647C1.96429 31.1952 2.73179 31.1952 3.71858 30.7567L19.7264 21.5466Z" fill="url(#paint2_linear)"/>
<path fill-rule="evenodd" clip-rule="evenodd" d="M19.7264 12.3368L3.71858 3.2364C2.73179 2.68819 1.96429 2.79783 1.41608 3.34604L15.1214 16.9418L19.7264 12.3368Z" fill="url(#paint3_linear)"/>
<path d="M40.776 42.108C39.92 42.108 39.188 41.932 38.58 41.58C37.972 41.228 37.504 40.728 37.176 40.08C36.856 39.424 36.696 38.652 36.696 37.764C36.696 36.876 36.856 36.108 37.176 35.46C37.504 34.812 37.972 34.312 38.58 33.96C39.188 33.608 39.92 33.432 40.776 33.432C41.352 33.432 41.888 33.524 42.384 33.708C42.888 33.884 43.308 34.14 43.644 34.476L43.212 35.472C42.844 35.144 42.464 34.908 42.072 34.764C41.688 34.612 41.268 34.536 40.812 34.536C39.9 34.536 39.204 34.816 38.724 35.376C38.244 35.936 38.004 36.732 38.004 37.764C38.004 38.796 38.244 39.596 38.724 40.164C39.204 40.724 39.9 41.004 40.812 41.004C41.268 41.004 41.688 40.932 42.072 40.788C42.464 40.636 42.844 40.396 43.212 40.068L43.644 41.064C43.308 41.392 42.888 41.648 42.384 41.832C41.888 42.016 41.352 42.108 40.776 42.108ZM47.0835 42.108C46.4915 42.108 45.9795 41.984 45.5475 41.736C45.1155 41.488 44.7795 41.14 44.5395 40.692C44.3075 40.236 44.1915 39.696 44.1915 39.072C44.1915 38.448 44.3075 37.912 44.5395 37.464C44.7795 37.008 45.1155 36.656 45.5475 36.408C45.9795 36.16 46.4915 36.036 47.0835 36.036C47.6595 36.036 48.1635 36.16 48.5955 36.408C49.0275 36.656 49.3635 37.008 49.6035 37.464C49.8435 37.912 49.9635 38.448 49.9635 39.072C49.9635 39.696 49.8435 40.236 49.6035 40.692C49.3635 41.14 49.0275 41.488 48.5955 41.736C48.1635 41.984 47.6595 42.108 47.0835 42.108ZM47.0835 41.172C47.5795 41.172 47.9795 40.992 48.2835 40.632C48.5875 40.272 48.7395 39.752 48.7395 39.072C48.7395 38.392 48.5875 37.876 48.2835 37.524C47.9795 37.164 47.5795 36.984 47.0835 36.984C46.5795 36.984 46.1755 37.164 45.8715 37.524C45.5675 37.876 45.4155 38.392 45.4155 39.072C45.4155 39.752 45.5675 40.272 45.8715 40.632C46.1755 40.992 46.5795 41.172 47.0835 41.172ZM51.3487 42V36.144H52.5247V37.092C52.7007 36.756 52.9447 36.496 53.2567 36.312C53.5687 36.128 53.9327 36.036 54.3487 36.036C55.2447 36.036 55.8247 36.428 56.0887 37.212C56.2727 36.844 56.5367 36.556 56.8807 36.348C57.2247 36.14 57.6167 36.036 58.0567 36.036C59.3687 36.036 60.0247 36.82 60.0247 38.388V42H58.8127V38.448C58.8127 37.952 58.7247 37.588 58.5487 37.356C58.3807 37.124 58.1007 37.008 57.7087 37.008C57.2687 37.008 56.9207 37.164 56.6647 37.476C56.4087 37.78 56.2807 38.196 56.2807 38.724V42H55.0687V38.448C55.0687 37.952 54.9847 37.588 54.8167 37.356C54.6487 37.124 54.3687 37.008 53.9767 37.008C53.5367 37.008 53.1887 37.164 52.9327 37.476C52.6847 37.78 52.5607 38.196 52.5607 38.724V42H51.3487ZM61.6112 34.788V33.528H63.0272V34.788H61.6112ZM61.7192 42V36.144H62.9312V42H61.7192ZM64.6372 42V36.144H65.8132V37.116C66.0132 36.764 66.2852 36.496 66.6292 36.312C66.9812 36.128 67.3732 36.036 67.8052 36.036C69.1892 36.036 69.8812 36.82 69.8812 38.388V42H68.6692V38.46C68.6692 37.956 68.5692 37.588 68.3692 37.356C68.1772 37.124 67.8732 37.008 67.4572 37.008C66.9692 37.008 66.5772 37.164 66.2812 37.476C65.9932 37.78 65.8492 38.184 65.8492 38.688V42H64.6372ZM74.2032 44.268C73.6752 44.268 73.1832 44.204 72.7272 44.076C72.2712 43.956 71.8672 43.764 71.5152 43.5L71.8872 42.636C72.2392 42.876 72.5992 43.052 72.9672 43.164C73.3352 43.276 73.7192 43.332 74.1192 43.332C75.2392 43.332 75.7992 42.772 75.7992 41.652V40.728C75.6312 41.08 75.3672 41.356 75.0072 41.556C74.6552 41.756 74.2592 41.856 73.8192 41.856C73.2912 41.856 72.8312 41.736 72.4392 41.496C72.0472 41.248 71.7432 40.908 71.5272 40.476C71.3112 40.036 71.2032 39.524 71.2032 38.94C71.2032 38.364 71.3112 37.86 71.5272 37.428C71.7432 36.988 72.0472 36.648 72.4392 36.408C72.8312 36.16 73.2912 36.036 73.8192 36.036C74.2672 36.036 74.6672 36.136 75.0192 36.336C75.3712 36.536 75.6312 36.812 75.7992 37.164V36.144H76.9752V41.508C76.9752 42.428 76.7392 43.116 76.2672 43.572C75.7952 44.036 75.1072 44.268 74.2032 44.268ZM74.1072 40.908C74.6192 40.908 75.0272 40.732 75.3312 40.38C75.6352 40.028 75.7872 39.548 75.7872 38.94C75.7872 38.332 75.6352 37.856 75.3312 37.512C75.0272 37.16 74.6192 36.984 74.1072 36.984C73.5952 36.984 73.1872 37.16 72.8832 37.512C72.5792 37.856 72.4272 38.332 72.4272 38.94C72.4272 39.548 72.5792 40.028 72.8832 40.38C73.1872 40.732 73.5952 40.908 74.1072 40.908ZM84.7806 42.108C84.1166 42.108 83.5086 42.024 82.9566 41.856C82.4046 41.68 81.9366 41.436 81.5526 41.124L81.9486 40.14C82.3486 40.444 82.7766 40.672 83.2326 40.824C83.6886 40.976 84.2046 41.052 84.7806 41.052C85.4606 41.052 85.9606 40.932 86.2806 40.692C86.6086 40.444 86.7726 40.124 86.7726 39.732C86.7726 39.412 86.6566 39.16 86.4246 38.976C86.1926 38.784 85.8046 38.632 85.2606 38.52L83.9766 38.256C83.2166 38.096 82.6486 37.832 82.2726 37.464C81.9046 37.096 81.7206 36.6 81.7206 35.976C81.7206 35.472 81.8526 35.028 82.1166 34.644C82.3886 34.26 82.7646 33.964 83.2446 33.756C83.7246 33.54 84.2766 33.432 84.9006 33.432C85.4766 33.432 86.0086 33.52 86.4966 33.696C86.9926 33.864 87.4126 34.112 87.7566 34.44L87.3486 35.388C86.6686 34.788 85.8486 34.488 84.8886 34.488C84.2966 34.488 83.8246 34.62 83.4726 34.884C83.1286 35.148 82.9566 35.5 82.9566 35.94C82.9566 36.276 83.0646 36.544 83.2806 36.744C83.4966 36.944 83.8566 37.096 84.3606 37.2L85.6326 37.464C86.4326 37.632 87.0286 37.892 87.4206 38.244C87.8126 38.588 88.0086 39.056 88.0086 39.648C88.0086 40.144 87.8766 40.576 87.6126 40.944C87.3486 41.312 86.9766 41.6 86.4966 41.808C86.0166 42.008 85.4446 42.108 84.7806 42.108ZM91.8374 42.108C91.2454 42.108 90.7334 41.984 90.3014 41.736C89.8694 41.488 89.5334 41.14 89.2934 40.692C89.0614 40.236 88.9454 39.696 88.9454 39.072C88.9454 38.448 89.0614 37.912 89.2934 37.464C89.5334 37.008 89.8694 36.656 90.3014 36.408C90.7334 36.16 91.2454 36.036 91.8374 36.036C92.4134 36.036 92.9174 36.16 93.3494 36.408C93.7814 36.656 94.1174 37.008 94.3574 37.464C94.5974 37.912 94.7174 38.448 94.7174 39.072C94.7174 39.696 94.5974 40.236 94.3574 40.692C94.1174 41.14 93.7814 41.488 93.3494 41.736C92.9174 41.984 92.4134 42.108 91.8374 42.108ZM91.8374 41.172C92.3334 41.172 92.7334 40.992 93.0374 40.632C93.3414 40.272 93.4934 39.752 93.4934 39.072C93.4934 38.392 93.3414 37.876 93.0374 37.524C92.7334 37.164 92.3334 36.984 91.8374 36.984C91.3334 36.984 90.9294 37.164 90.6254 37.524C90.3214 37.876 90.1694 38.392 90.1694 39.072C90.1694 39.752 90.3214 40.272 90.6254 40.632C90.9294 40.992 91.3334 41.172 91.8374 41.172ZM98.6226 42.108C98.0306 42.108 97.5186 41.984 97.0866 41.736C96.6546 41.488 96.3186 41.14 96.0786 40.692C95.8466 40.236 95.7306 39.696 95.7306 39.072C95.7306 38.448 95.8466 37.912 96.0786 37.464C96.3186 37.008 96.6546 36.656 97.0866 36.408C97.5186 36.16 98.0306 36.036 98.6226 36.036C99.1986 36.036 99.7026 36.16 100.135 36.408C100.567 36.656 100.903 37.008 101.143 37.464C101.383 37.912 101.503 38.448 101.503 39.072C101.503 39.696 101.383 40.236 101.143 40.692C100.903 41.14 100.567 41.488 100.135 41.736C99.7026 41.984 99.1986 42.108 98.6226 42.108ZM98.6226 41.172C99.1186 41.172 99.5186 40.992 99.8226 40.632C100.127 40.272 100.279 39.752 100.279 39.072C100.279 38.392 100.127 37.876 99.8226 37.524C99.5186 37.164 99.1186 36.984 98.6226 36.984C98.1186 36.984 97.7146 37.164 97.4106 37.524C97.1066 37.876 96.9546 38.392 96.9546 39.072C96.9546 39.752 97.1066 40.272 97.4106 40.632C97.7146 40.992 98.1186 41.172 98.6226 41.172ZM102.864 42V36.144H104.04V37.116C104.24 36.764 104.512 36.496 104.856 36.312C105.208 36.128 105.6 36.036 106.032 36.036C107.416 36.036 108.108 36.82 108.108 38.388V42H106.896V38.46C106.896 37.956 106.796 37.588 106.596 37.356C106.404 37.124 106.1 37.008 105.684 37.008C105.196 37.008 104.804 37.164 104.508 37.476C104.22 37.78 104.076 38.184 104.076 38.688V42H102.864ZM109.982 39.66L109.598 33.54H111.098L110.726 39.66H109.982ZM109.634 42V40.572H111.062V42H109.634Z" fill="white"/>
</g>
<defs>
<linearGradient id="paint0_linear" x1="9.59552" y1="4.56268" x2="-2.09261" y2="16.2508" gradientUnits="userSpaceOnUse">
<stop stop-color="#00A0FF"/>
<stop offset="0.00657445" stop-color="#00A1FF"/>
<stop offset="0.2601" stop-color="#00BEFF"/>
<stop offset="0.5122" stop-color="#00D2FF"/>
<stop offset="0.7604" stop-color="#00DFFF"/>
<stop offset="1" stop-color="#00E3FF"/>
</linearGradient>
<linearGradient id="paint1_linear" x1="27.1102" y1="16.9432" x2="0.580076" y2="16.9432" gradientUnits="userSpaceOnUse">
<stop stop-color="#FFE000"/>
<stop offset="0.4087" stop-color="#FFBD00"/>
<stop offset="0.7754" stop-color="#FFA500"/>
<stop offset="1" stop-color="#FF9C00"/>
</linearGradient>
<linearGradient id="paint2_linear" x1="17.2343" y1="21.2983" x2="-2.67348" y2="41.206" gradientUnits="userSpaceOnUse">
<stop stop-color="#FF3A44"/>
<stop offset="1" stop-color="#C31162"/>
</linearGradient>
<linearGradient id="paint3_linear" x1="-1.98581" y1="1.23276" x2="6.87317" y2="10.0917" gradientUnits="userSpaceOnUse">
<stop stop-color="#32A071"/>
<stop offset="0.0685" stop-color="#2DA771"/>
<stop offset="0.4762" stop-color="#15CF74"/>
<stop offset="0.8009" stop-color="#06E775"/>
<stop offset="1" stop-color="#00F076"/>
</linearGradient>
<clipPath id="clip0">
<rect width="129" height="44" fill="white"/>
</clipPath>
</defs>
</svg>
