<svg width="113" height="44" viewBox="0 0 113 44" fill="none" xmlns="http://www.w3.org/2000/svg">
<g clip-path="url(#clip0)">
<path d="M47.3256 17.1556C49.8428 17.1556 51.5021 19.1472 51.5021 22.2234C51.5021 25.3082 49.8525 27.2901 47.3631 27.2901C46.0763 27.3575 44.8643 26.6829 44.2425 25.5533H44.1954V30.4701H42.1596V17.2595H44.1302V18.9105H44.1676C44.817 17.7881 46.0304 17.1138 47.3256 17.1556ZM58.2417 17.1556C60.759 17.1556 62.4182 19.1472 62.4182 22.2234C62.4182 25.3082 60.7686 27.2901 58.2792 27.2901C56.9925 27.3575 55.7804 26.6829 55.1586 25.5533H55.1115V30.4701H53.0757V17.2595H55.0463V18.9105H55.0837C55.7331 17.7881 56.9465 17.1138 58.2417 17.1556ZM72.8573 13.3438C75.7318 13.3438 77.7024 14.9573 77.7687 17.3065H75.7136C75.5906 15.9478 74.4683 15.1276 72.8284 15.1276C71.1884 15.1276 70.0662 15.9574 70.0662 17.1652C70.0662 18.1278 70.7829 18.6942 72.5363 19.1278L74.0351 19.4961C76.8262 20.1568 77.9858 21.2789 77.9858 23.2705C77.9858 25.8177 75.9586 27.4131 72.7342 27.4131C69.7174 27.4131 67.6805 25.8552 67.5489 23.3925L69.6329 23.3926C69.7838 24.7428 71.0943 25.6293 72.8851 25.6293C74.601 25.6293 75.8356 24.7428 75.8356 23.5253C75.8356 22.4685 75.091 21.8357 73.328 21.4021L71.565 20.977C69.067 20.3731 67.9073 19.2039 67.9073 17.3065C67.9073 14.9573 69.9528 13.3438 72.8573 13.3438ZM106.547 17.1374C109.291 17.1374 111.017 19.024 111.017 22.0339V22.732H104.012V22.8551C103.946 23.5941 104.201 24.3257 104.712 24.8636C105.222 25.4016 105.939 25.6941 106.68 25.6668C107.668 25.7595 108.599 25.1917 108.97 24.2706L110.903 24.2706C110.629 26.0726 108.876 27.3093 106.633 27.3093C103.747 27.3093 101.957 25.3745 101.957 22.2705C101.957 19.1568 103.757 17.1374 106.547 17.1374ZM90.0617 17.1374C92.9373 17.1374 94.7666 19.1 94.7666 22.2234C94.7666 25.3553 92.9469 27.3094 90.0617 27.3094C87.1775 27.3094 85.3578 25.3553 85.3578 22.2234C85.3578 19.1001 87.1957 17.1374 90.0617 17.1374ZM82.3795 14.9103V17.2595H84.2655V18.8731H82.3795V24.3456C82.3795 25.1957 82.7571 25.5919 83.5862 25.5919C83.8101 25.588 84.0337 25.5723 84.2559 25.5448V27.1487C83.8831 27.2184 83.5043 27.25 83.1251 27.2429C81.1171 27.2429 80.334 26.4881 80.334 24.5629V18.8731H78.892V17.2595H80.334V14.9103H82.3795ZM100.82 17.1556C101.054 17.1548 101.288 17.1803 101.517 17.2316V19.1375C101.221 19.0469 100.912 19.0053 100.602 19.0144C100.004 18.9901 99.4246 19.2288 99.0167 19.6679C98.6089 20.107 98.4131 20.7026 98.4809 21.2983V27.1862H96.4451V17.2595H98.3868V18.9491H98.4339C98.7047 17.8614 99.7004 17.1128 100.82 17.1556ZM35.9837 13.5708L40.8951 27.1862H38.6614L37.4172 23.5061H32.2319L30.9867 27.1862H28.7904L33.7018 13.5708H35.9837ZM16.1294 9.07095L16.4193 9.0895C18.1678 9.14425 19.7881 10.021 20.7915 11.4552C19.2082 12.4295 18.2339 14.1476 18.21 16.0077C18.2122 18.1121 19.4714 20.0113 21.4079 20.8311C21.0355 22.042 20.4741 23.1863 19.7445 24.2218C18.7648 25.6887 17.7375 27.1218 16.107 27.1483C14.5227 27.1849 13.9903 26.2151 12.1732 26.2151C10.339 26.2151 9.77155 27.1218 8.25207 27.1849C6.6993 27.2425 5.51261 25.6192 4.49722 24.1661C2.46774 21.1985 0.887436 15.8029 3.00607 12.1316C4.00095 10.3423 5.86112 9.20681 7.906 9.14069C9.46018 9.10869 10.9035 10.1912 11.859 10.1912C12.6977 10.1912 14.2137 9.15452 15.8412 9.07469L16.1294 9.07095ZM90.0617 18.8163C88.4121 18.8163 87.4321 20.0905 87.4321 22.2234C87.4321 24.3745 88.4121 25.6294 90.0617 25.6294C91.7113 25.6294 92.6923 24.3745 92.6923 22.2234C92.6923 20.0809 91.7113 18.8163 90.0617 18.8163ZM46.7886 18.8923C45.2331 18.8923 44.1868 20.2415 44.1868 22.2234C44.1868 24.2235 45.2331 25.563 46.7886 25.563C48.3719 25.563 49.4096 24.2514 49.4096 22.2234C49.4096 20.2136 48.3719 18.8923 46.7886 18.8923ZM57.7047 18.8923C56.1493 18.8923 55.103 20.2415 55.103 22.2234C55.103 24.2235 56.1493 25.563 57.7047 25.563C59.288 25.563 60.3257 24.2514 60.3257 22.2234C60.3257 20.2136 59.288 18.8923 57.7047 18.8923ZM34.853 15.8354H34.7963L32.769 21.8079H36.8792L34.853 15.8354ZM106.547 18.7885C105.878 18.7845 105.234 19.0484 104.76 19.5215C104.285 19.9946 104.02 20.6377 104.021 21.3079H108.98C109.017 20.6438 108.775 19.9945 108.313 19.5162C107.852 19.0379 107.212 18.7742 106.547 18.7885ZM103.697 4.83203C105.07 4.83203 105.898 5.77058 105.898 7.32093V7.66092H102.415V7.71552C102.384 8.08188 102.509 8.44426 102.759 8.71353C103.009 8.98281 103.361 9.134 103.728 9.12991C104.205 9.18714 104.668 8.95068 104.902 8.53137L105.839 8.53141C105.566 9.46269 104.666 10.0644 103.701 9.95976C103.044 9.97713 102.412 9.70426 101.973 9.21352C101.534 8.72279 101.333 8.06381 101.423 7.41143C101.335 6.75723 101.536 6.0972 101.972 5.60231C102.408 5.10743 103.038 4.8264 103.697 4.83203ZM81.4287 5.18364C82.1835 5.65238 82.6074 6.50882 82.5228 7.39376C82.609 8.27966 82.1854 9.13775 81.4301 9.6075C80.6747 10.0772 79.7184 10.0772 78.9631 9.6075C78.2077 9.13775 77.7841 8.27966 77.8703 7.39376C77.7857 6.50882 78.2097 5.65238 78.9644 5.18364C79.7191 4.71491 80.674 4.71491 81.4287 5.18364ZM40.2947 5.18364C41.0494 5.65238 41.4734 6.50882 41.3888 7.39376C41.475 8.27966 41.0514 9.13775 40.296 9.6075C39.5407 10.0772 38.5844 10.0772 37.829 9.6075C37.0737 9.13775 36.6501 8.27966 36.7363 7.39376C36.6517 6.50882 37.0757 5.65238 37.8304 5.18364C38.5851 4.71491 39.54 4.71491 40.2947 5.18364ZM61.6973 5.18356C62.4521 5.6523 62.8761 6.50876 62.7916 7.39376C62.8777 8.27969 62.454 9.13776 61.6986 9.60749C60.9432 10.0772 59.9869 10.0772 59.2315 9.60749C58.4761 9.13776 58.0525 8.27969 58.1385 7.39376C58.054 6.50876 58.478 5.6523 59.2328 5.18356C59.9876 4.71481 60.9426 4.71481 61.6973 5.18356ZM66.0224 4.83204C67.259 4.83204 67.9566 5.44824 67.9566 6.49114V9.86448H67.0194V9.17064H66.9424C66.6241 9.67733 66.0581 9.97346 65.4607 9.94582C65.042 9.98942 64.6243 9.85368 64.3111 9.57216C63.9978 9.29064 63.8181 8.88962 63.8165 8.46824C63.8165 7.57953 64.4776 7.06719 65.6511 6.99438L66.9873 6.91729V6.49114C66.9873 5.96969 66.6429 5.67524 65.9774 5.67524C65.434 5.67524 65.0574 5.87493 64.9494 6.22399H64.0069C64.1064 5.37597 64.9034 4.83204 66.0224 4.83204ZM73.8425 3V9.86445H72.9097V9.08442H72.8327C72.5165 9.63749 71.9198 9.96929 71.2836 9.94582C70.0287 9.94587 69.236 8.95756 69.236 7.39376C69.236 5.83371 70.0373 4.84542 71.2836 4.84542C71.9129 4.8164 72.5023 5.1539 72.7963 5.7116H72.869V3H73.8425ZM93.5192 3.69813V4.94981H94.588V5.77053H93.5192V8.30924C93.5192 8.8264 93.7321 9.05286 94.2167 9.05286C94.3408 9.05246 94.4647 9.04495 94.588 9.03037V9.84198C94.4131 9.87328 94.236 9.88994 94.0584 9.89177C92.9758 9.89177 92.5446 9.51058 92.5446 8.55871V5.77049H91.7616V4.94977H92.5446V3.69813H93.5192ZM86.311 4.83202C86.7972 4.79544 87.2736 4.98211 87.6057 5.33934C87.9379 5.69657 88.0897 6.18559 88.0183 6.66832V9.86441H87.0448V6.913C87.0448 6.11959 86.7004 5.72502 85.9804 5.72502C85.6506 5.70965 85.3306 5.83918 85.1042 6.07967C84.8778 6.32015 84.7676 6.6476 84.8026 6.97616V9.86446H83.829V4.92732H84.7662V5.71163H84.8389C85.0919 5.13417 85.6831 4.78094 86.311 4.83202ZM52.5532 4.83202C53.0393 4.79544 53.5158 4.98211 53.8479 5.33934C54.1801 5.69657 54.3319 6.18559 54.2605 6.66832V9.86441H53.287V6.913C53.287 6.11959 52.9426 5.72502 52.2226 5.72502C51.8928 5.70965 51.5728 5.83918 51.3464 6.07967C51.12 6.32015 51.0098 6.6476 51.0447 6.97616V9.86446H50.0712V4.92732H51.0084V5.71163H51.0811C51.3341 5.13417 51.9253 4.78094 52.5532 4.83202ZM96.8827 3V5.72073H96.9597C97.2248 5.13822 97.8263 4.78453 98.4637 4.83631C98.9472 4.80998 99.4172 5.00077 99.7457 5.3567C100.074 5.71263 100.227 6.19664 100.163 6.6769V9.86446H99.1881V6.91726C99.1881 6.12867 98.8211 5.72928 98.1333 5.72928C97.7946 5.70148 97.4609 5.82472 97.2215 6.06605C96.982 6.30737 96.8611 6.64218 96.8913 6.98097V9.86446H95.9177L95.9177 3H96.8827ZM43.0791 4.92732L43.9627 8.69465H44.0355L45.0496 4.92732H45.9836L46.9977 8.69465H47.0748L47.9541 4.92732H48.9276L47.5733 9.86446H46.5634L45.5439 6.22826H45.4669L44.4516 9.86446H43.4514L42.0917 4.92732H43.0791ZM56.7853 3V9.86445H55.8117V3H56.7853ZM34.8204 4.21909C35.4162 4.84879 35.6984 5.71272 35.5895 6.57308C35.5895 8.66315 34.4608 9.86456 32.5138 9.86456H30.1528V3.32235H32.5138C33.3781 3.26027 34.2246 3.58938 34.8204 4.21909ZM66.9873 7.63361L65.7827 7.7107C65.1034 7.7562 64.7953 7.98748 64.7953 8.42273C64.7953 8.86708 65.1804 9.12566 65.71 9.12566C66.0235 9.15742 66.3365 9.06048 66.5773 8.85703C66.818 8.65358 66.966 8.36103 66.9873 8.04637V7.63361ZM39.0641 5.69773C38.2179 5.69773 37.7419 6.32357 37.7419 7.39377C37.7419 8.47254 38.218 9.09356 39.0641 9.09356C39.9072 9.09356 40.3875 8.46824 40.3875 7.39376C40.3875 6.32357 39.9071 5.69773 39.0641 5.69773ZM60.4664 5.69773C59.6202 5.69773 59.1442 6.32357 59.1442 7.39377C59.1442 8.47254 59.6202 9.09356 60.4664 9.09356C61.3094 9.09356 61.7897 8.46824 61.7897 7.39376C61.7897 6.32357 61.3094 5.69773 60.4664 5.69773ZM80.1982 5.69773C79.352 5.69773 78.8759 6.32357 78.8759 7.39377C78.8759 8.47254 79.352 9.09356 80.1982 9.09356C81.0412 9.09356 81.5215 8.46824 81.5215 7.39376C81.5215 6.32357 81.0412 5.69773 80.1982 5.69773ZM71.5596 5.72074C70.7401 5.72074 70.2416 6.35515 70.2416 7.39376C70.2417 8.44094 70.7348 9.07107 71.5596 9.07107C72.3801 9.07107 72.8873 8.43185 72.8873 7.39805C72.8873 6.36907 72.3748 5.72074 71.5596 5.72074ZM32.4004 4.24687H31.168V8.93935H32.4004C33.0181 8.9763 33.6195 8.73274 34.0376 8.27629C34.4558 7.81984 34.6462 7.1991 34.556 6.58642C34.6397 5.97628 34.4465 5.36066 34.0294 4.90793C33.6122 4.4552 33.0148 4.21274 32.4004 4.24687ZM16.4385 3.31059C16.5445 4.69673 16.1066 6.06965 15.2176 7.1378C14.3551 8.21149 13.0482 8.82994 11.6718 8.81575C11.5842 7.46952 12.035 6.14367 12.9247 5.13023C13.8257 4.10306 15.0803 3.45336 16.4385 3.31059ZM103.692 5.66132C103.352 5.65704 103.024 5.79043 102.784 6.03124C102.543 6.27205 102.41 6.59985 102.415 6.9403H104.906C104.931 6.60523 104.813 6.27526 104.582 6.03169C104.351 5.78812 104.027 5.65362 103.692 5.66132Z" fill="white"/>
<path d="M33.776 42.108C32.92 42.108 32.188 41.932 31.58 41.58C30.972 41.228 30.504 40.728 30.176 40.08C29.856 39.424 29.696 38.652 29.696 37.764C29.696 36.876 29.856 36.108 30.176 35.46C30.504 34.812 30.972 34.312 31.58 33.96C32.188 33.608 32.92 33.432 33.776 33.432C34.352 33.432 34.888 33.524 35.384 33.708C35.888 33.884 36.308 34.14 36.644 34.476L36.212 35.472C35.844 35.144 35.464 34.908 35.072 34.764C34.688 34.612 34.268 34.536 33.812 34.536C32.9 34.536 32.204 34.816 31.724 35.376C31.244 35.936 31.004 36.732 31.004 37.764C31.004 38.796 31.244 39.596 31.724 40.164C32.204 40.724 32.9 41.004 33.812 41.004C34.268 41.004 34.688 40.932 35.072 40.788C35.464 40.636 35.844 40.396 36.212 40.068L36.644 41.064C36.308 41.392 35.888 41.648 35.384 41.832C34.888 42.016 34.352 42.108 33.776 42.108ZM40.0835 42.108C39.4915 42.108 38.9795 41.984 38.5475 41.736C38.1155 41.488 37.7795 41.14 37.5395 40.692C37.3075 40.236 37.1915 39.696 37.1915 39.072C37.1915 38.448 37.3075 37.912 37.5395 37.464C37.7795 37.008 38.1155 36.656 38.5475 36.408C38.9795 36.16 39.4915 36.036 40.0835 36.036C40.6595 36.036 41.1635 36.16 41.5955 36.408C42.0275 36.656 42.3635 37.008 42.6035 37.464C42.8435 37.912 42.9635 38.448 42.9635 39.072C42.9635 39.696 42.8435 40.236 42.6035 40.692C42.3635 41.14 42.0275 41.488 41.5955 41.736C41.1635 41.984 40.6595 42.108 40.0835 42.108ZM40.0835 41.172C40.5795 41.172 40.9795 40.992 41.2835 40.632C41.5875 40.272 41.7395 39.752 41.7395 39.072C41.7395 38.392 41.5875 37.876 41.2835 37.524C40.9795 37.164 40.5795 36.984 40.0835 36.984C39.5795 36.984 39.1755 37.164 38.8715 37.524C38.5675 37.876 38.4155 38.392 38.4155 39.072C38.4155 39.752 38.5675 40.272 38.8715 40.632C39.1755 40.992 39.5795 41.172 40.0835 41.172ZM44.3487 42V36.144H45.5247V37.092C45.7007 36.756 45.9447 36.496 46.2567 36.312C46.5687 36.128 46.9327 36.036 47.3487 36.036C48.2447 36.036 48.8247 36.428 49.0887 37.212C49.2727 36.844 49.5367 36.556 49.8807 36.348C50.2247 36.14 50.6167 36.036 51.0567 36.036C52.3687 36.036 53.0247 36.82 53.0247 38.388V42H51.8127V38.448C51.8127 37.952 51.7247 37.588 51.5487 37.356C51.3807 37.124 51.1007 37.008 50.7087 37.008C50.2687 37.008 49.9207 37.164 49.6647 37.476C49.4087 37.78 49.2807 38.196 49.2807 38.724V42H48.0687V38.448C48.0687 37.952 47.9847 37.588 47.8167 37.356C47.6487 37.124 47.3687 37.008 46.9767 37.008C46.5367 37.008 46.1887 37.164 45.9327 37.476C45.6847 37.78 45.5607 38.196 45.5607 38.724V42H44.3487ZM54.6112 34.788V33.528H56.0272V34.788H54.6112ZM54.7192 42V36.144H55.9312V42H54.7192ZM57.6372 42V36.144H58.8132V37.116C59.0132 36.764 59.2852 36.496 59.6292 36.312C59.9812 36.128 60.3732 36.036 60.8052 36.036C62.1892 36.036 62.8812 36.82 62.8812 38.388V42H61.6692V38.46C61.6692 37.956 61.5692 37.588 61.3692 37.356C61.1772 37.124 60.8732 37.008 60.4572 37.008C59.9692 37.008 59.5772 37.164 59.2812 37.476C58.9932 37.78 58.8492 38.184 58.8492 38.688V42H57.6372ZM67.2032 44.268C66.6752 44.268 66.1832 44.204 65.7272 44.076C65.2712 43.956 64.8672 43.764 64.5152 43.5L64.8872 42.636C65.2392 42.876 65.5992 43.052 65.9672 43.164C66.3352 43.276 66.7192 43.332 67.1192 43.332C68.2392 43.332 68.7992 42.772 68.7992 41.652V40.728C68.6312 41.08 68.3672 41.356 68.0072 41.556C67.6552 41.756 67.2592 41.856 66.8192 41.856C66.2912 41.856 65.8312 41.736 65.4392 41.496C65.0472 41.248 64.7432 40.908 64.5272 40.476C64.3112 40.036 64.2032 39.524 64.2032 38.94C64.2032 38.364 64.3112 37.86 64.5272 37.428C64.7432 36.988 65.0472 36.648 65.4392 36.408C65.8312 36.16 66.2912 36.036 66.8192 36.036C67.2672 36.036 67.6672 36.136 68.0192 36.336C68.3712 36.536 68.6312 36.812 68.7992 37.164V36.144H69.9752V41.508C69.9752 42.428 69.7392 43.116 69.2672 43.572C68.7952 44.036 68.1072 44.268 67.2032 44.268ZM67.1072 40.908C67.6192 40.908 68.0272 40.732 68.3312 40.38C68.6352 40.028 68.7872 39.548 68.7872 38.94C68.7872 38.332 68.6352 37.856 68.3312 37.512C68.0272 37.16 67.6192 36.984 67.1072 36.984C66.5952 36.984 66.1872 37.16 65.8832 37.512C65.5792 37.856 65.4272 38.332 65.4272 38.94C65.4272 39.548 65.5792 40.028 65.8832 40.38C66.1872 40.732 66.5952 40.908 67.1072 40.908ZM77.7806 42.108C77.1166 42.108 76.5086 42.024 75.9566 41.856C75.4046 41.68 74.9366 41.436 74.5526 41.124L74.9486 40.14C75.3486 40.444 75.7766 40.672 76.2326 40.824C76.6886 40.976 77.2046 41.052 77.7806 41.052C78.4606 41.052 78.9606 40.932 79.2806 40.692C79.6086 40.444 79.7726 40.124 79.7726 39.732C79.7726 39.412 79.6566 39.16 79.4246 38.976C79.1926 38.784 78.8046 38.632 78.2606 38.52L76.9766 38.256C76.2166 38.096 75.6486 37.832 75.2726 37.464C74.9046 37.096 74.7206 36.6 74.7206 35.976C74.7206 35.472 74.8526 35.028 75.1166 34.644C75.3886 34.26 75.7646 33.964 76.2446 33.756C76.7246 33.54 77.2766 33.432 77.9006 33.432C78.4766 33.432 79.0086 33.52 79.4966 33.696C79.9926 33.864 80.4126 34.112 80.7566 34.44L80.3486 35.388C79.6686 34.788 78.8486 34.488 77.8886 34.488C77.2966 34.488 76.8246 34.62 76.4726 34.884C76.1286 35.148 75.9566 35.5 75.9566 35.94C75.9566 36.276 76.0646 36.544 76.2806 36.744C76.4966 36.944 76.8566 37.096 77.3606 37.2L78.6326 37.464C79.4326 37.632 80.0286 37.892 80.4206 38.244C80.8126 38.588 81.0086 39.056 81.0086 39.648C81.0086 40.144 80.8766 40.576 80.6126 40.944C80.3486 41.312 79.9766 41.6 79.4966 41.808C79.0166 42.008 78.4446 42.108 77.7806 42.108ZM84.8374 42.108C84.2454 42.108 83.7334 41.984 83.3014 41.736C82.8694 41.488 82.5334 41.14 82.2934 40.692C82.0614 40.236 81.9454 39.696 81.9454 39.072C81.9454 38.448 82.0614 37.912 82.2934 37.464C82.5334 37.008 82.8694 36.656 83.3014 36.408C83.7334 36.16 84.2454 36.036 84.8374 36.036C85.4134 36.036 85.9174 36.16 86.3494 36.408C86.7814 36.656 87.1174 37.008 87.3574 37.464C87.5974 37.912 87.7174 38.448 87.7174 39.072C87.7174 39.696 87.5974 40.236 87.3574 40.692C87.1174 41.14 86.7814 41.488 86.3494 41.736C85.9174 41.984 85.4134 42.108 84.8374 42.108ZM84.8374 41.172C85.3334 41.172 85.7334 40.992 86.0374 40.632C86.3414 40.272 86.4934 39.752 86.4934 39.072C86.4934 38.392 86.3414 37.876 86.0374 37.524C85.7334 37.164 85.3334 36.984 84.8374 36.984C84.3334 36.984 83.9294 37.164 83.6254 37.524C83.3214 37.876 83.1694 38.392 83.1694 39.072C83.1694 39.752 83.3214 40.272 83.6254 40.632C83.9294 40.992 84.3334 41.172 84.8374 41.172ZM91.6226 42.108C91.0306 42.108 90.5186 41.984 90.0866 41.736C89.6546 41.488 89.3186 41.14 89.0786 40.692C88.8466 40.236 88.7306 39.696 88.7306 39.072C88.7306 38.448 88.8466 37.912 89.0786 37.464C89.3186 37.008 89.6546 36.656 90.0866 36.408C90.5186 36.16 91.0306 36.036 91.6226 36.036C92.1986 36.036 92.7026 36.16 93.1346 36.408C93.5666 36.656 93.9026 37.008 94.1426 37.464C94.3826 37.912 94.5026 38.448 94.5026 39.072C94.5026 39.696 94.3826 40.236 94.1426 40.692C93.9026 41.14 93.5666 41.488 93.1346 41.736C92.7026 41.984 92.1986 42.108 91.6226 42.108ZM91.6226 41.172C92.1186 41.172 92.5186 40.992 92.8226 40.632C93.1266 40.272 93.2786 39.752 93.2786 39.072C93.2786 38.392 93.1266 37.876 92.8226 37.524C92.5186 37.164 92.1186 36.984 91.6226 36.984C91.1186 36.984 90.7146 37.164 90.4106 37.524C90.1066 37.876 89.9546 38.392 89.9546 39.072C89.9546 39.752 90.1066 40.272 90.4106 40.632C90.7146 40.992 91.1186 41.172 91.6226 41.172ZM95.8637 42V36.144H97.0397V37.116C97.2397 36.764 97.5117 36.496 97.8557 36.312C98.2077 36.128 98.5997 36.036 99.0317 36.036C100.416 36.036 101.108 36.82 101.108 38.388V42H99.8957V38.46C99.8957 37.956 99.7957 37.588 99.5957 37.356C99.4037 37.124 99.0997 37.008 98.6837 37.008C98.1957 37.008 97.8037 37.164 97.5077 37.476C97.2197 37.78 97.0757 38.184 97.0757 38.688V42H95.8637ZM102.982 39.66L102.598 33.54H104.098L103.726 39.66H102.982ZM102.634 42V40.572H104.062V42H102.634Z" fill="white"/>
</g>
<defs>
<clipPath id="clip0">
<rect width="113" height="44" fill="white"/>
</clipPath>
</defs>
</svg>
