<svg width="129" height="39" viewBox="0 0 129 39" fill="none" xmlns="http://www.w3.org/2000/svg">
<g clip-path="url(#clip0)">
<path d="M65.68 17.9154C63.0486 17.9154 60.9653 19.889 60.9653 22.6301C60.9653 25.2615 63.0486 27.3447 65.68 27.3447C68.3114 27.3447 70.3946 25.3711 70.3946 22.6301C70.3946 19.7793 68.3114 17.9154 65.68 17.9154ZM65.68 25.3711C64.2546 25.3711 63.0486 24.1651 63.0486 22.5204C63.0486 20.8758 64.2546 19.6697 65.68 19.6697C67.1053 19.6697 68.3114 20.7661 68.3114 22.5204C68.3114 24.1651 67.1053 25.3711 65.68 25.3711ZM55.4832 17.9154C52.8518 17.9154 50.7686 19.889 50.7686 22.6301C50.7686 25.2615 52.8518 27.3447 55.4832 27.3447C58.1146 27.3447 60.1978 25.3711 60.1978 22.6301C60.1978 19.7793 58.1146 17.9154 55.4832 17.9154ZM55.4832 25.3711C54.0578 25.3711 52.8518 24.1651 52.8518 22.5204C52.8518 20.8758 54.0578 19.6697 55.4832 19.6697C56.9086 19.6697 58.1146 20.7661 58.1146 22.5204C58.1146 24.1651 56.9086 25.3711 55.4832 25.3711ZM43.3128 19.3408V21.3143H48.0275C47.9178 22.4108 47.4793 23.2879 46.9311 23.8361C46.2732 24.494 45.1768 25.2615 43.3128 25.2615C40.3525 25.2615 38.1596 22.959 38.1596 19.9986C38.1596 17.0383 40.4621 14.7358 43.3128 14.7358C44.8478 14.7358 46.0539 15.3936 46.9311 16.1611L48.3564 14.7358C47.1503 13.6393 45.6153 12.7622 43.4225 12.7622C39.4753 12.7622 36.0764 16.0515 36.0764 19.9986C36.0764 23.9458 39.4753 27.2351 43.4225 27.2351C45.6153 27.2351 47.1503 26.5772 48.4661 25.1518C49.7818 23.8361 50.2203 21.9722 50.2203 20.5468C50.2203 20.1083 50.2203 19.6697 50.1107 19.3408H43.3128ZM93.0907 20.8758C92.6521 19.7793 91.5557 17.9154 89.1436 17.9154C86.7314 17.9154 84.7578 19.7793 84.7578 22.6301C84.7578 25.2615 86.7314 27.3447 89.3628 27.3447C91.4461 27.3447 92.7618 26.029 93.2003 25.2615L91.6653 24.1651C91.1171 24.9326 90.4593 25.4808 89.3628 25.4808C88.2664 25.4808 87.6086 25.0422 87.0603 24.0554L93.31 21.424L93.0907 20.8758ZM86.7314 22.4108C86.7314 20.6565 88.1568 19.6697 89.1436 19.6697C89.9111 19.6697 90.6786 20.1083 90.8978 20.6565L86.7314 22.4108ZM81.5782 26.9061H83.6614V13.2008H81.5782V26.9061ZM78.2889 18.9022C77.7407 18.354 76.8636 17.8058 75.7671 17.8058C73.4646 17.8058 71.2718 19.889 71.2718 22.5204C71.2718 25.1518 73.355 27.1254 75.7671 27.1254C76.8636 27.1254 77.7407 26.5772 78.1793 26.029H78.2889V26.6868C78.2889 28.4411 77.3021 29.4279 75.7671 29.4279C74.5611 29.4279 73.6839 28.5508 73.4646 27.7833L71.7103 28.5508C72.2586 29.7568 73.5743 31.2919 75.8768 31.2919C78.2889 31.2919 80.2625 29.8665 80.2625 26.4676V18.1347H78.2889V18.9022ZM75.8768 25.3711C74.4514 25.3711 73.2453 24.1651 73.2453 22.5204C73.2453 20.8758 74.4514 19.6697 75.8768 19.6697C77.3021 19.6697 78.3986 20.8758 78.3986 22.5204C78.3986 24.1651 77.3021 25.3711 75.8768 25.3711ZM102.63 13.2008H97.6957V26.9061H99.7789V21.7529H102.63C104.932 21.7529 107.125 20.1083 107.125 17.4768C107.125 14.8454 104.932 13.2008 102.63 13.2008ZM102.739 19.7793H99.7789V15.0647H102.739C104.274 15.0647 105.151 16.3804 105.151 17.3672C105.042 18.5733 104.165 19.7793 102.739 19.7793ZM115.348 17.8058C113.813 17.8058 112.278 18.4636 111.73 19.889L113.594 20.6565C114.032 19.889 114.69 19.6697 115.458 19.6697C116.554 19.6697 117.541 20.3276 117.651 21.424V21.5336C117.322 21.3143 116.445 20.9854 115.567 20.9854C113.594 20.9854 111.62 22.0818 111.62 24.0554C111.62 25.9193 113.265 27.1254 115.019 27.1254C116.445 27.1254 117.102 26.4676 117.651 25.8097H117.76V26.9061H119.734V21.6433C119.515 19.2311 117.651 17.8058 115.348 17.8058ZM115.129 25.3711C114.471 25.3711 113.484 25.0422 113.484 24.1651C113.484 23.0686 114.69 22.7397 115.677 22.7397C116.554 22.7397 116.993 22.959 117.541 23.1783C117.322 24.494 116.225 25.3711 115.129 25.3711ZM126.641 18.1347L124.339 24.0554H124.229L121.817 18.1347H119.624L123.242 26.4676L121.159 31.0726H123.242L128.834 18.1347H126.641ZM108.221 26.9061H110.305V13.2008H108.221V26.9061Z" fill="white"/>
<path fill-rule="evenodd" clip-rule="evenodd" d="M39.8043 1.57861C40.2428 1.57861 40.6814 1.68826 41.12 1.90754C41.5586 2.12683 41.8875 2.34611 42.1068 2.67504L41.5586 3.22326C41.12 2.67504 40.5718 2.45576 39.8043 2.45576C39.1464 2.45576 38.4886 2.67504 38.05 3.22326C37.5018 3.66183 37.2825 4.31968 37.2825 5.08718C37.2825 5.85468 37.5018 6.51254 38.05 6.95111C38.5982 7.38968 39.1464 7.71861 39.8043 7.71861C40.5718 7.71861 41.12 7.49933 41.6682 6.95111C41.9971 6.62218 42.2164 6.18361 42.2164 5.6354H39.8043V4.8679H42.9839V5.19683C42.9839 6.07397 42.7646 6.84147 42.2164 7.38968C41.5586 8.04754 40.791 8.37647 39.8043 8.37647C38.8175 8.37647 38.05 8.04754 37.3921 7.38968C36.7343 6.73183 36.4053 5.96433 36.4053 4.97754C36.4053 3.99076 36.7343 3.22326 37.3921 2.5654C38.05 1.90754 38.8175 1.57861 39.8043 1.57861ZM69.2982 1.57861C70.285 1.57861 71.0525 1.90754 71.7103 2.5654C72.3682 3.22326 72.6971 3.99076 72.6971 4.97754C72.6971 5.96433 72.3682 6.73183 71.7103 7.38968C71.0525 8.04754 70.285 8.37647 69.2982 8.37647C68.3114 8.37647 67.5439 8.04754 66.886 7.38968C66.2282 6.73183 65.8993 5.96433 65.8993 4.97754C65.8993 3.99076 66.2282 3.22326 66.886 2.5654C67.5439 1.90754 68.3114 1.57861 69.2982 1.57861ZM48.0275 1.68826V2.45576H45.0671V4.53897H47.8082V5.30647H45.0671V7.38968H48.0275V8.26683H44.19V1.68826H48.0275ZM53.5096 1.68826V2.45576H51.6457V8.26683H50.7686V2.45576H48.9046V1.68826H53.5096ZM57.5664 1.68826V8.26683H56.6893V1.68826H57.5664ZM63.0485 1.68826V2.45576H61.1846V8.26683H60.4171V2.45576H58.5532V1.68826H63.0485ZM74.89 1.68826L78.0696 6.84147V1.68826H78.9468V8.26683H78.0696L74.6707 2.89433V8.26683H73.9032V1.68826H74.89ZM69.2982 2.34611C68.6403 2.34611 67.9825 2.5654 67.5439 3.11361C67.1053 3.55218 66.7764 4.21004 66.7764 4.97754C66.7764 5.74504 66.9957 6.4029 67.5439 6.84147C67.9825 7.28004 68.6403 7.60897 69.2982 7.60897C69.9561 7.60897 70.6139 7.38968 71.0525 6.84147C71.4911 6.4029 71.82 5.74504 71.82 4.97754C71.82 4.21004 71.6007 3.55218 71.0525 3.11361C70.6139 2.67504 69.9561 2.34611 69.2982 2.34611Z" fill="white" stroke="white" stroke-width="0.5"/>
<path fill-rule="evenodd" clip-rule="evenodd" d="M1.41607 2.23633C1.08714 2.56526 0.867859 3.11347 0.867859 3.77133V28.0024C0.867859 28.6603 1.08714 29.2085 1.41607 29.5374L1.52572 29.647L15.1214 16.0513V15.9417V15.832L1.41607 2.23633Z" fill="url(#paint0_linear)"/>
<path fill-rule="evenodd" clip-rule="evenodd" d="M19.6168 20.6563L15.1215 16.161V15.9417V15.832L19.6168 11.3367L19.7265 11.4463L25.099 14.5163C26.634 15.3935 26.634 16.8188 25.099 17.696L19.6168 20.6563Z" fill="url(#paint1_linear)"/>
<path fill-rule="evenodd" clip-rule="evenodd" d="M19.7264 20.5466L15.1214 15.9417L1.41608 29.647C1.96429 30.1952 2.73179 30.1952 3.71858 29.7567L19.7264 20.5466Z" fill="url(#paint2_linear)"/>
<path fill-rule="evenodd" clip-rule="evenodd" d="M19.7264 11.3368L3.71858 2.2364C2.73179 1.68819 1.96429 1.79783 1.41608 2.34604L15.1214 15.9418L19.7264 11.3368Z" fill="url(#paint3_linear)"/>
<path d="M39.184 38.072C38.6133 38.072 38.1253 37.9547 37.72 37.72C37.3147 37.4853 37.0027 37.152 36.784 36.72C36.5707 36.2827 36.464 35.768 36.464 35.176C36.464 34.584 36.5707 34.072 36.784 33.64C37.0027 33.208 37.3147 32.8747 37.72 32.64C38.1253 32.4053 38.6133 32.288 39.184 32.288C39.568 32.288 39.9253 32.3493 40.256 32.472C40.592 32.5893 40.872 32.76 41.096 32.984L40.808 33.648C40.5627 33.4293 40.3093 33.272 40.048 33.176C39.792 33.0747 39.512 33.024 39.208 33.024C38.6 33.024 38.136 33.2107 37.816 33.584C37.496 33.9573 37.336 34.488 37.336 35.176C37.336 35.864 37.496 36.3973 37.816 36.776C38.136 37.1493 38.6 37.336 39.208 37.336C39.512 37.336 39.792 37.288 40.048 37.192C40.3093 37.0907 40.5627 36.9307 40.808 36.712L41.096 37.376C40.872 37.5947 40.592 37.7653 40.256 37.888C39.9253 38.0107 39.568 38.072 39.184 38.072ZM44.389 38.072C43.9943 38.072 43.653 37.9893 43.365 37.824C43.077 37.6587 42.853 37.4267 42.693 37.128C42.5383 36.824 42.461 36.464 42.461 36.048C42.461 35.632 42.5383 35.2747 42.693 34.976C42.853 34.672 43.077 34.4373 43.365 34.272C43.653 34.1067 43.9943 34.024 44.389 34.024C44.773 34.024 45.109 34.1067 45.397 34.272C45.685 34.4373 45.909 34.672 46.069 34.976C46.229 35.2747 46.309 35.632 46.309 36.048C46.309 36.464 46.229 36.824 46.069 37.128C45.909 37.4267 45.685 37.6587 45.397 37.824C45.109 37.9893 44.773 38.072 44.389 38.072ZM44.389 37.448C44.7197 37.448 44.9863 37.328 45.189 37.088C45.3917 36.848 45.493 36.5013 45.493 36.048C45.493 35.5947 45.3917 35.2507 45.189 35.016C44.9863 34.776 44.7197 34.656 44.389 34.656C44.053 34.656 43.7837 34.776 43.581 35.016C43.3783 35.2507 43.277 35.5947 43.277 36.048C43.277 36.5013 43.3783 36.848 43.581 37.088C43.7837 37.328 44.053 37.448 44.389 37.448ZM48.2324 38V34.096H49.0164V34.728C49.1338 34.504 49.2964 34.3307 49.5044 34.208C49.7124 34.0853 49.9551 34.024 50.2324 34.024C50.8298 34.024 51.2164 34.2853 51.3924 34.808C51.5151 34.5627 51.6911 34.3707 51.9204 34.232C52.1498 34.0933 52.4111 34.024 52.7044 34.024C53.5791 34.024 54.0164 34.5467 54.0164 35.592V38H53.2084V35.632C53.2084 35.3013 53.1498 35.0587 53.0324 34.904C52.9204 34.7493 52.7338 34.672 52.4724 34.672C52.1791 34.672 51.9471 34.776 51.7764 34.984C51.6058 35.1867 51.5204 35.464 51.5204 35.816V38H50.7124V35.632C50.7124 35.3013 50.6564 35.0587 50.5444 34.904C50.4324 34.7493 50.2458 34.672 49.9844 34.672C49.6911 34.672 49.4591 34.776 49.2884 34.984C49.1231 35.1867 49.0404 35.464 49.0404 35.816V38H48.2324ZM56.0741 33.192V32.352H57.0181V33.192H56.0741ZM56.1461 38V34.096H56.9541V38H56.1461ZM59.0914 38V34.096H59.8754V34.744C60.0088 34.5093 60.1901 34.3307 60.4194 34.208C60.6541 34.0853 60.9154 34.024 61.2034 34.024C62.1261 34.024 62.5874 34.5467 62.5874 35.592V38H61.7794V35.64C61.7794 35.304 61.7128 35.0587 61.5794 34.904C61.4514 34.7493 61.2488 34.672 60.9714 34.672C60.6461 34.672 60.3848 34.776 60.1874 34.984C59.9954 35.1867 59.8994 35.456 59.8994 35.792V38H59.0914ZM66.4688 39.512C66.1168 39.512 65.7888 39.4693 65.4848 39.384C65.1808 39.304 64.9115 39.176 64.6768 39L64.9248 38.424C65.1595 38.584 65.3995 38.7013 65.6448 38.776C65.8901 38.8507 66.1461 38.888 66.4128 38.888C67.1595 38.888 67.5328 38.5147 67.5328 37.768V37.152C67.4208 37.3867 67.2448 37.5707 67.0048 37.704C66.7701 37.8373 66.5061 37.904 66.2128 37.904C65.8608 37.904 65.5541 37.824 65.2928 37.664C65.0315 37.4987 64.8288 37.272 64.6848 36.984C64.5408 36.6907 64.4688 36.3493 64.4688 35.96C64.4688 35.576 64.5408 35.24 64.6848 34.952C64.8288 34.6587 65.0315 34.432 65.2928 34.272C65.5541 34.1067 65.8608 34.024 66.2128 34.024C66.5115 34.024 66.7781 34.0907 67.0128 34.224C67.2475 34.3573 67.4208 34.5413 67.5328 34.776V34.096H68.3168V37.672C68.3168 38.2853 68.1595 38.744 67.8448 39.048C67.5301 39.3573 67.0715 39.512 66.4688 39.512ZM66.4048 37.272C66.7461 37.272 67.0181 37.1547 67.2208 36.92C67.4235 36.6853 67.5248 36.3653 67.5248 35.96C67.5248 35.5547 67.4235 35.2373 67.2208 35.008C67.0181 34.7733 66.7461 34.656 66.4048 34.656C66.0635 34.656 65.7915 34.7733 65.5888 35.008C65.3861 35.2373 65.2848 35.5547 65.2848 35.96C65.2848 36.3653 65.3861 36.6853 65.5888 36.92C65.7915 37.1547 66.0635 37.272 66.4048 37.272ZM75.5204 38.072C75.0777 38.072 74.6724 38.016 74.3044 37.904C73.9364 37.7867 73.6244 37.624 73.3684 37.416L73.6324 36.76C73.899 36.9627 74.1844 37.1147 74.4884 37.216C74.7924 37.3173 75.1364 37.368 75.5204 37.368C75.9737 37.368 76.307 37.288 76.5204 37.128C76.739 36.9627 76.8484 36.7493 76.8484 36.488C76.8484 36.2747 76.771 36.1067 76.6164 35.984C76.4617 35.856 76.203 35.7547 75.8404 35.68L74.9844 35.504C74.4777 35.3973 74.099 35.2213 73.8484 34.976C73.603 34.7307 73.4804 34.4 73.4804 33.984C73.4804 33.648 73.5684 33.352 73.7444 33.096C73.9257 32.84 74.1764 32.6427 74.4964 32.504C74.8164 32.36 75.1844 32.288 75.6004 32.288C75.9844 32.288 76.339 32.3467 76.6644 32.464C76.995 32.576 77.275 32.7413 77.5044 32.96L77.2324 33.592C76.779 33.192 76.2324 32.992 75.5924 32.992C75.1977 32.992 74.883 33.08 74.6484 33.256C74.419 33.432 74.3044 33.6667 74.3044 33.96C74.3044 34.184 74.3764 34.3627 74.5204 34.496C74.6644 34.6293 74.9044 34.7307 75.2404 34.8L76.0884 34.976C76.6217 35.088 77.019 35.2613 77.2804 35.496C77.5417 35.7253 77.6724 36.0373 77.6724 36.432C77.6724 36.7627 77.5844 37.0507 77.4084 37.296C77.2324 37.5413 76.9844 37.7333 76.6644 37.872C76.3444 38.0053 75.963 38.072 75.5204 38.072ZM81.2249 38.072C80.8303 38.072 80.4889 37.9893 80.2009 37.824C79.9129 37.6587 79.6889 37.4267 79.5289 37.128C79.3743 36.824 79.2969 36.464 79.2969 36.048C79.2969 35.632 79.3743 35.2747 79.5289 34.976C79.6889 34.672 79.9129 34.4373 80.2009 34.272C80.4889 34.1067 80.8303 34.024 81.2249 34.024C81.6089 34.024 81.9449 34.1067 82.2329 34.272C82.5209 34.4373 82.7449 34.672 82.9049 34.976C83.0649 35.2747 83.1449 35.632 83.1449 36.048C83.1449 36.464 83.0649 36.824 82.9049 37.128C82.7449 37.4267 82.5209 37.6587 82.2329 37.824C81.9449 37.9893 81.6089 38.072 81.2249 38.072ZM81.2249 37.448C81.5556 37.448 81.8223 37.328 82.0249 37.088C82.2276 36.848 82.3289 36.5013 82.3289 36.048C82.3289 35.5947 82.2276 35.2507 82.0249 35.016C81.8223 34.776 81.5556 34.656 81.2249 34.656C80.8889 34.656 80.6196 34.776 80.4169 35.016C80.2143 35.2507 80.1129 35.5947 80.1129 36.048C80.1129 36.5013 80.2143 36.848 80.4169 37.088C80.6196 37.328 80.8889 37.448 81.2249 37.448ZM86.7484 38.072C86.3537 38.072 86.0124 37.9893 85.7244 37.824C85.4364 37.6587 85.2124 37.4267 85.0524 37.128C84.8977 36.824 84.8204 36.464 84.8204 36.048C84.8204 35.632 84.8977 35.2747 85.0524 34.976C85.2124 34.672 85.4364 34.4373 85.7244 34.272C86.0124 34.1067 86.3537 34.024 86.7484 34.024C87.1324 34.024 87.4684 34.1067 87.7564 34.272C88.0444 34.4373 88.2684 34.672 88.4284 34.976C88.5884 35.2747 88.6684 35.632 88.6684 36.048C88.6684 36.464 88.5884 36.824 88.4284 37.128C88.2684 37.4267 88.0444 37.6587 87.7564 37.824C87.4684 37.9893 87.1324 38.072 86.7484 38.072ZM86.7484 37.448C87.079 37.448 87.3457 37.328 87.5484 37.088C87.751 36.848 87.8524 36.5013 87.8524 36.048C87.8524 35.5947 87.751 35.2507 87.5484 35.016C87.3457 34.776 87.079 34.656 86.7484 34.656C86.4124 34.656 86.143 34.776 85.9404 35.016C85.7377 35.2507 85.6364 35.5947 85.6364 36.048C85.6364 36.5013 85.7377 36.848 85.9404 37.088C86.143 37.328 86.4124 37.448 86.7484 37.448ZM90.5758 38V34.096H91.3598V34.744C91.4931 34.5093 91.6745 34.3307 91.9038 34.208C92.1385 34.0853 92.3998 34.024 92.6878 34.024C93.6105 34.024 94.0718 34.5467 94.0718 35.592V38H93.2638V35.64C93.2638 35.304 93.1971 35.0587 93.0638 34.904C92.9358 34.7493 92.7331 34.672 92.4558 34.672C92.1305 34.672 91.8691 34.776 91.6718 34.984C91.4798 35.1867 91.3838 35.456 91.3838 35.792V38H90.5758ZM96.3212 36.44L96.0652 32.36H97.0652L96.8172 36.44H96.3212ZM96.0892 38V37.048H97.0412V38H96.0892Z" fill="white"/>
</g>
<defs>
<linearGradient id="paint0_linear" x1="9.59552" y1="3.56268" x2="-2.09261" y2="15.2508" gradientUnits="userSpaceOnUse">
<stop stop-color="#00A0FF"/>
<stop offset="0.00657445" stop-color="#00A1FF"/>
<stop offset="0.2601" stop-color="#00BEFF"/>
<stop offset="0.5122" stop-color="#00D2FF"/>
<stop offset="0.7604" stop-color="#00DFFF"/>
<stop offset="1" stop-color="#00E3FF"/>
</linearGradient>
<linearGradient id="paint1_linear" x1="27.1102" y1="15.9432" x2="0.580076" y2="15.9432" gradientUnits="userSpaceOnUse">
<stop stop-color="#FFE000"/>
<stop offset="0.4087" stop-color="#FFBD00"/>
<stop offset="0.7754" stop-color="#FFA500"/>
<stop offset="1" stop-color="#FF9C00"/>
</linearGradient>
<linearGradient id="paint2_linear" x1="17.2343" y1="20.2983" x2="-2.67348" y2="40.206" gradientUnits="userSpaceOnUse">
<stop stop-color="#FF3A44"/>
<stop offset="1" stop-color="#C31162"/>
</linearGradient>
<linearGradient id="paint3_linear" x1="-1.98581" y1="0.232759" x2="6.87317" y2="9.09166" gradientUnits="userSpaceOnUse">
<stop stop-color="#32A071"/>
<stop offset="0.0685" stop-color="#2DA771"/>
<stop offset="0.4762" stop-color="#15CF74"/>
<stop offset="0.8009" stop-color="#06E775"/>
<stop offset="1" stop-color="#00F076"/>
</linearGradient>
<clipPath id="clip0">
<rect width="129" height="39" fill="white"/>
</clipPath>
</defs>
</svg>
