<svg width="110" height="39" viewBox="0 0 110 39" fill="none" xmlns="http://www.w3.org/2000/svg">
<g clip-path="url(#clip0)">
<path d="M46.3256 15.1556C48.8428 15.1556 50.5021 17.1472 50.5021 20.2234C50.5021 23.3082 48.8525 25.2901 46.3631 25.2901C45.0763 25.3575 43.8643 24.6829 43.2425 23.5533H43.1954V28.4701H41.1596V15.2595H43.1302V16.9105H43.1676C43.817 15.7881 45.0304 15.1138 46.3256 15.1556ZM57.2417 15.1556C59.759 15.1556 61.4182 17.1472 61.4182 20.2234C61.4182 23.3082 59.7686 25.2901 57.2792 25.2901C55.9925 25.3575 54.7804 24.6829 54.1586 23.5533H54.1115V28.4701H52.0757V15.2595H54.0463V16.9105H54.0837C54.7331 15.7881 55.9465 15.1138 57.2417 15.1556ZM71.8573 11.3438C74.7318 11.3438 76.7024 12.9573 76.7687 15.3065H74.7136C74.5906 13.9478 73.4683 13.1276 71.8284 13.1276C70.1884 13.1276 69.0662 13.9574 69.0662 15.1652C69.0662 16.1278 69.7829 16.6942 71.5363 17.1278L73.0351 17.4961C75.8262 18.1568 76.9858 19.2789 76.9858 21.2705C76.9858 23.8177 74.9586 25.4131 71.7342 25.4131C68.7174 25.4131 66.6805 23.8552 66.5489 21.3925L68.6329 21.3926C68.7838 22.7428 70.0943 23.6293 71.8851 23.6293C73.601 23.6293 74.8356 22.7428 74.8356 21.5253C74.8356 20.4685 74.091 19.8357 72.328 19.4021L70.565 18.977C68.067 18.3731 66.9073 17.2039 66.9073 15.3065C66.9073 12.9573 68.9528 11.3438 71.8573 11.3438ZM105.547 15.1374C108.291 15.1374 110.017 17.024 110.017 20.0339V20.732H103.012V20.8551C102.946 21.5941 103.201 22.3257 103.712 22.8636C104.222 23.4016 104.939 23.6941 105.68 23.6668C106.668 23.7595 107.599 23.1917 107.97 22.2706L109.903 22.2706C109.629 24.0726 107.876 25.3093 105.633 25.3093C102.747 25.3093 100.957 23.3745 100.957 20.2705C100.957 17.1568 102.757 15.1374 105.547 15.1374ZM89.0617 15.1374C91.9373 15.1374 93.7666 17.1 93.7666 20.2234C93.7666 23.3553 91.9469 25.3094 89.0617 25.3094C86.1775 25.3094 84.3578 23.3553 84.3578 20.2234C84.3578 17.1001 86.1957 15.1374 89.0617 15.1374ZM81.3795 12.9103V15.2595H83.2655V16.8731H81.3795V22.3456C81.3795 23.1957 81.7571 23.5919 82.5862 23.5919C82.8101 23.588 83.0337 23.5723 83.2559 23.5448V25.1487C82.8831 25.2184 82.5043 25.25 82.1251 25.2429C80.1171 25.2429 79.334 24.4881 79.334 22.5629V16.8731H77.892V15.2595H79.334V12.9103H81.3795ZM99.8195 15.1556C100.054 15.1548 100.288 15.1803 100.517 15.2316V17.1375C100.221 17.0469 99.9119 17.0053 99.6023 17.0144C99.0038 16.9901 98.4246 17.2288 98.0167 17.6679C97.6089 18.107 97.4131 18.7026 97.4809 19.2983V25.1862H95.4451V15.2595H97.3868V16.9491H97.4339C97.7047 15.8614 98.7004 15.1128 99.8195 15.1556ZM34.9837 11.5708L39.8951 25.1862H37.6614L36.4172 21.5061H31.2319L29.9867 25.1862H27.7904L32.7018 11.5708H34.9837ZM15.1294 7.07095L15.4193 7.0895C17.1678 7.14425 18.7881 8.021 19.7915 9.45524C18.2082 10.4295 17.2339 12.1476 17.21 14.0077C17.2122 16.1121 18.4714 18.0113 20.4079 18.8311C20.0355 20.042 19.4741 21.1863 18.7445 22.2218C17.7648 23.6887 16.7375 25.1218 15.107 25.1483C13.5227 25.1849 12.9903 24.2151 11.1732 24.2151C9.33905 24.2151 8.77155 25.1218 7.25207 25.1849C5.6993 25.2425 4.51261 23.6192 3.49722 22.1661C1.46774 19.1985 -0.112564 13.8029 2.00607 10.1316C3.00095 8.34226 4.86112 7.20681 6.906 7.14069C8.46018 7.10869 9.90345 8.19122 10.859 8.19122C11.6977 8.19122 13.2137 7.15452 14.8412 7.07469L15.1294 7.07095ZM89.0617 16.8163C87.4121 16.8163 86.4321 18.0905 86.4321 20.2234C86.4321 22.3745 87.4121 23.6294 89.0617 23.6294C90.7113 23.6294 91.6923 22.3745 91.6923 20.2234C91.6923 18.0809 90.7113 16.8163 89.0617 16.8163ZM45.7886 16.8923C44.2331 16.8923 43.1868 18.2415 43.1868 20.2234C43.1868 22.2235 44.2331 23.563 45.7886 23.563C47.3719 23.563 48.4096 22.2514 48.4096 20.2234C48.4096 18.2136 47.3719 16.8923 45.7886 16.8923ZM56.7047 16.8923C55.1493 16.8923 54.103 18.2415 54.103 20.2234C54.103 22.2235 55.1493 23.563 56.7047 23.563C58.288 23.563 59.3257 22.2514 59.3257 20.2234C59.3257 18.2136 58.288 16.8923 56.7047 16.8923ZM33.853 13.8354H33.7963L31.769 19.8079H35.8792L33.853 13.8354ZM105.547 16.7885C104.878 16.7845 104.234 17.0484 103.76 17.5215C103.285 17.9946 103.02 18.6377 103.021 19.3079H107.98C108.017 18.6438 107.775 17.9945 107.313 17.5162C106.852 17.0379 106.212 16.7742 105.547 16.7885ZM102.697 2.83203C104.07 2.83203 104.898 3.77058 104.898 5.32093V5.66092H101.415V5.71552C101.384 6.08188 101.509 6.44426 101.759 6.71353C102.009 6.98281 102.361 7.134 102.728 7.12991C103.205 7.18714 103.668 6.95068 103.902 6.53137L104.839 6.53141C104.566 7.46269 103.666 8.0644 102.701 7.95976C102.044 7.97713 101.412 7.70426 100.973 7.21352C100.534 6.72279 100.333 6.06381 100.423 5.41143C100.335 4.75723 100.536 4.0972 100.972 3.60231C101.408 3.10743 102.038 2.8264 102.697 2.83203ZM80.4287 3.18364C81.1835 3.65238 81.6074 4.50882 81.5228 5.39376C81.609 6.27966 81.1854 7.13775 80.4301 7.6075C79.6747 8.07725 78.7184 8.07725 77.9631 7.6075C77.2077 7.13775 76.7841 6.27966 76.8703 5.39376C76.7857 4.50882 77.2097 3.65238 77.9644 3.18364C78.7191 2.71491 79.674 2.71491 80.4287 3.18364ZM39.2947 3.18364C40.0494 3.65238 40.4734 4.50882 40.3888 5.39376C40.475 6.27966 40.0514 7.13775 39.296 7.6075C38.5407 8.07725 37.5844 8.07725 36.829 7.6075C36.0737 7.13775 35.6501 6.27966 35.7363 5.39376C35.6517 4.50882 36.0757 3.65238 36.8304 3.18364C37.5851 2.71491 38.54 2.71491 39.2947 3.18364ZM60.6973 3.18356C61.4521 3.6523 61.8761 4.50876 61.7916 5.39376C61.8777 6.27969 61.454 7.13776 60.6986 7.60749C59.9432 8.07722 58.9869 8.07722 58.2315 7.60749C57.4761 7.13776 57.0525 6.27969 57.1385 5.39376C57.054 4.50876 57.478 3.6523 58.2328 3.18356C58.9876 2.71481 59.9426 2.71481 60.6973 3.18356ZM65.0224 2.83204C66.259 2.83204 66.9566 3.44824 66.9566 4.49114V7.86448H66.0194V7.17064H65.9424C65.6241 7.67733 65.0581 7.97346 64.4607 7.94582C64.042 7.98942 63.6243 7.85368 63.3111 7.57216C62.9978 7.29064 62.8181 6.88962 62.8165 6.46824C62.8165 5.57953 63.4776 5.06719 64.6511 4.99438L65.9873 4.91729V4.49114C65.9873 3.96969 65.6429 3.67524 64.9774 3.67524C64.434 3.67524 64.0574 3.87493 63.9494 4.22399H63.0069C63.1064 3.37597 63.9034 2.83204 65.0224 2.83204ZM72.8425 1V7.86445H71.9097V7.08442H71.8327C71.5165 7.63749 70.9198 7.96929 70.2836 7.94582C69.0287 7.94587 68.236 6.95756 68.236 5.39376C68.236 3.83371 69.0373 2.84542 70.2836 2.84542C70.9129 2.8164 71.5023 3.1539 71.7963 3.7116H71.869V1H72.8425ZM92.5192 1.69813V2.94981H93.588V3.77053H92.5192V6.30924C92.5192 6.8264 92.7321 7.05286 93.2167 7.05286C93.3408 7.05246 93.4647 7.04495 93.588 7.03037V7.84198C93.4131 7.87328 93.236 7.88994 93.0584 7.89177C91.9758 7.89177 91.5446 7.51058 91.5446 6.55871V3.77049H90.7616V2.94977H91.5446V1.69813H92.5192ZM85.311 2.83202C85.7972 2.79544 86.2736 2.98211 86.6057 3.33934C86.9379 3.69657 87.0897 4.18559 87.0183 4.66832V7.86441H86.0448V4.913C86.0448 4.11959 85.7004 3.72502 84.9804 3.72502C84.6506 3.70965 84.3306 3.83918 84.1042 4.07967C83.8778 4.32015 83.7676 4.6476 83.8026 4.97616V7.86446H82.829V2.92732H83.7662V3.71163H83.8389C84.0919 3.13417 84.6831 2.78094 85.311 2.83202ZM51.5532 2.83202C52.0393 2.79544 52.5158 2.98211 52.8479 3.33934C53.1801 3.69657 53.3319 4.18559 53.2605 4.66832V7.86441H52.287V4.913C52.287 4.11959 51.9426 3.72502 51.2226 3.72502C50.8928 3.70965 50.5728 3.83918 50.3464 4.07967C50.12 4.32015 50.0098 4.6476 50.0447 4.97616V7.86446H49.0712V2.92732H50.0084V3.71163H50.0811C50.3341 3.13417 50.9253 2.78094 51.5532 2.83202ZM95.8827 1V3.72073H95.9597C96.2248 3.13822 96.8263 2.78453 97.4637 2.83631C97.9472 2.80998 98.4172 3.00077 98.7457 3.3567C99.0742 3.71263 99.227 4.19664 99.1626 4.6769V7.86446H98.1881V4.91726C98.1881 4.12867 97.8211 3.72928 97.1333 3.72928C96.7946 3.70148 96.4609 3.82472 96.2215 4.06605C95.982 4.30737 95.8611 4.64218 95.8913 4.98097V7.86446H94.9177L94.9177 1H95.8827ZM42.0791 2.92732L42.9627 6.69465H43.0355L44.0496 2.92732H44.9836L45.9977 6.69465H46.0748L46.9541 2.92732H47.9276L46.5733 7.86446H45.5634L44.5439 4.22826H44.4669L43.4516 7.86446H42.4514L41.0917 2.92732H42.0791ZM55.7853 1V7.86445H54.8117V1H55.7853ZM33.8204 2.21909C34.4162 2.84879 34.6984 3.71272 34.5895 4.57308C34.5895 6.66315 33.4608 7.86456 31.5138 7.86456H29.1528V1.32235H31.5138C32.3781 1.26027 33.2246 1.58938 33.8204 2.21909ZM65.9873 5.63361L64.7827 5.7107C64.1034 5.7562 63.7953 5.98748 63.7953 6.42273C63.7953 6.86708 64.1804 7.12566 64.71 7.12566C65.0235 7.15742 65.3365 7.06048 65.5773 6.85703C65.818 6.65358 65.966 6.36103 65.9873 6.04637V5.63361ZM38.0641 3.69773C37.2179 3.69773 36.7419 4.32357 36.7419 5.39377C36.7419 6.47254 37.218 7.09356 38.0641 7.09356C38.9072 7.09356 39.3875 6.46824 39.3875 5.39376C39.3875 4.32357 38.9071 3.69773 38.0641 3.69773ZM59.4664 3.69773C58.6202 3.69773 58.1442 4.32357 58.1442 5.39377C58.1442 6.47254 58.6202 7.09356 59.4664 7.09356C60.3094 7.09356 60.7897 6.46824 60.7897 5.39376C60.7897 4.32357 60.3094 3.69773 59.4664 3.69773ZM79.1982 3.69773C78.352 3.69773 77.8759 4.32357 77.8759 5.39377C77.8759 6.47254 78.352 7.09356 79.1982 7.09356C80.0412 7.09356 80.5215 6.46824 80.5215 5.39376C80.5215 4.32357 80.0412 3.69773 79.1982 3.69773ZM70.5596 3.72074C69.7401 3.72074 69.2416 4.35515 69.2416 5.39376C69.2417 6.44094 69.7348 7.07107 70.5596 7.07107C71.3801 7.07107 71.8873 6.43185 71.8873 5.39805C71.8873 4.36907 71.3748 3.72074 70.5596 3.72074ZM31.4004 2.24687H30.168V6.93935H31.4004C32.0181 6.9763 32.6195 6.73274 33.0376 6.27629C33.4558 5.81984 33.6462 5.1991 33.556 4.58642C33.6397 3.97628 33.4465 3.36066 33.0294 2.90793C32.6122 2.4552 32.0148 2.21274 31.4004 2.24687ZM15.4385 1.31059C15.5445 2.69673 15.1066 4.06965 14.2176 5.1378C13.3551 6.21149 12.0482 6.82994 10.6718 6.81575C10.5842 5.46952 11.035 4.14367 11.9247 3.13023C12.8257 2.10306 14.0803 1.45336 15.4385 1.31059ZM102.692 3.66132C102.352 3.65704 102.024 3.79043 101.784 4.03124C101.543 4.27205 101.41 4.59985 101.415 4.9403H103.906C103.931 4.60523 103.813 4.27526 103.582 4.03169C103.351 3.78812 103.027 3.65362 102.692 3.66132Z" fill="white"/>
<path d="M32.184 36.072C31.6133 36.072 31.1253 35.9547 30.72 35.72C30.3147 35.4853 30.0027 35.152 29.784 34.72C29.5707 34.2827 29.464 33.768 29.464 33.176C29.464 32.584 29.5707 32.072 29.784 31.64C30.0027 31.208 30.3147 30.8747 30.72 30.64C31.1253 30.4053 31.6133 30.288 32.184 30.288C32.568 30.288 32.9253 30.3493 33.256 30.472C33.592 30.5893 33.872 30.76 34.096 30.984L33.808 31.648C33.5627 31.4293 33.3093 31.272 33.048 31.176C32.792 31.0747 32.512 31.024 32.208 31.024C31.6 31.024 31.136 31.2107 30.816 31.584C30.496 31.9573 30.336 32.488 30.336 33.176C30.336 33.864 30.496 34.3973 30.816 34.776C31.136 35.1493 31.6 35.336 32.208 35.336C32.512 35.336 32.792 35.288 33.048 35.192C33.3093 35.0907 33.5627 34.9307 33.808 34.712L34.096 35.376C33.872 35.5947 33.592 35.7653 33.256 35.888C32.9253 36.0107 32.568 36.072 32.184 36.072ZM37.389 36.072C36.9943 36.072 36.653 35.9893 36.365 35.824C36.077 35.6587 35.853 35.4267 35.693 35.128C35.5383 34.824 35.461 34.464 35.461 34.048C35.461 33.632 35.5383 33.2747 35.693 32.976C35.853 32.672 36.077 32.4373 36.365 32.272C36.653 32.1067 36.9943 32.024 37.389 32.024C37.773 32.024 38.109 32.1067 38.397 32.272C38.685 32.4373 38.909 32.672 39.069 32.976C39.229 33.2747 39.309 33.632 39.309 34.048C39.309 34.464 39.229 34.824 39.069 35.128C38.909 35.4267 38.685 35.6587 38.397 35.824C38.109 35.9893 37.773 36.072 37.389 36.072ZM37.389 35.448C37.7197 35.448 37.9863 35.328 38.189 35.088C38.3917 34.848 38.493 34.5013 38.493 34.048C38.493 33.5947 38.3917 33.2507 38.189 33.016C37.9863 32.776 37.7197 32.656 37.389 32.656C37.053 32.656 36.7837 32.776 36.581 33.016C36.3783 33.2507 36.277 33.5947 36.277 34.048C36.277 34.5013 36.3783 34.848 36.581 35.088C36.7837 35.328 37.053 35.448 37.389 35.448ZM41.2324 36V32.096H42.0164V32.728C42.1338 32.504 42.2964 32.3307 42.5044 32.208C42.7124 32.0853 42.9551 32.024 43.2324 32.024C43.8298 32.024 44.2164 32.2853 44.3924 32.808C44.5151 32.5627 44.6911 32.3707 44.9204 32.232C45.1498 32.0933 45.4111 32.024 45.7044 32.024C46.5791 32.024 47.0164 32.5467 47.0164 33.592V36H46.2084V33.632C46.2084 33.3013 46.1498 33.0587 46.0324 32.904C45.9204 32.7493 45.7338 32.672 45.4724 32.672C45.1791 32.672 44.9471 32.776 44.7764 32.984C44.6058 33.1867 44.5204 33.464 44.5204 33.816V36H43.7124V33.632C43.7124 33.3013 43.6564 33.0587 43.5444 32.904C43.4324 32.7493 43.2458 32.672 42.9844 32.672C42.6911 32.672 42.4591 32.776 42.2884 32.984C42.1231 33.1867 42.0404 33.464 42.0404 33.816V36H41.2324ZM49.0741 31.192V30.352H50.0181V31.192H49.0741ZM49.1461 36V32.096H49.9541V36H49.1461ZM52.0914 36V32.096H52.8754V32.744C53.0088 32.5093 53.1901 32.3307 53.4194 32.208C53.6541 32.0853 53.9154 32.024 54.2034 32.024C55.1261 32.024 55.5874 32.5467 55.5874 33.592V36H54.7794V33.64C54.7794 33.304 54.7128 33.0587 54.5794 32.904C54.4514 32.7493 54.2488 32.672 53.9714 32.672C53.6461 32.672 53.3848 32.776 53.1874 32.984C52.9954 33.1867 52.8994 33.456 52.8994 33.792V36H52.0914ZM59.4688 37.512C59.1168 37.512 58.7888 37.4693 58.4848 37.384C58.1808 37.304 57.9115 37.176 57.6768 37L57.9248 36.424C58.1595 36.584 58.3995 36.7013 58.6448 36.776C58.8901 36.8507 59.1461 36.888 59.4128 36.888C60.1595 36.888 60.5328 36.5147 60.5328 35.768V35.152C60.4208 35.3867 60.2448 35.5707 60.0048 35.704C59.7701 35.8373 59.5061 35.904 59.2128 35.904C58.8608 35.904 58.5541 35.824 58.2928 35.664C58.0315 35.4987 57.8288 35.272 57.6848 34.984C57.5408 34.6907 57.4688 34.3493 57.4688 33.96C57.4688 33.576 57.5408 33.24 57.6848 32.952C57.8288 32.6587 58.0315 32.432 58.2928 32.272C58.5541 32.1067 58.8608 32.024 59.2128 32.024C59.5115 32.024 59.7781 32.0907 60.0128 32.224C60.2475 32.3573 60.4208 32.5413 60.5328 32.776V32.096H61.3168V35.672C61.3168 36.2853 61.1595 36.744 60.8448 37.048C60.5301 37.3573 60.0715 37.512 59.4688 37.512ZM59.4048 35.272C59.7461 35.272 60.0181 35.1547 60.2208 34.92C60.4235 34.6853 60.5248 34.3653 60.5248 33.96C60.5248 33.5547 60.4235 33.2373 60.2208 33.008C60.0181 32.7733 59.7461 32.656 59.4048 32.656C59.0635 32.656 58.7915 32.7733 58.5888 33.008C58.3861 33.2373 58.2848 33.5547 58.2848 33.96C58.2848 34.3653 58.3861 34.6853 58.5888 34.92C58.7915 35.1547 59.0635 35.272 59.4048 35.272ZM68.5204 36.072C68.0777 36.072 67.6724 36.016 67.3044 35.904C66.9364 35.7867 66.6244 35.624 66.3684 35.416L66.6324 34.76C66.899 34.9627 67.1844 35.1147 67.4884 35.216C67.7924 35.3173 68.1364 35.368 68.5204 35.368C68.9737 35.368 69.307 35.288 69.5204 35.128C69.739 34.9627 69.8484 34.7493 69.8484 34.488C69.8484 34.2747 69.771 34.1067 69.6164 33.984C69.4617 33.856 69.203 33.7547 68.8404 33.68L67.9844 33.504C67.4777 33.3973 67.099 33.2213 66.8484 32.976C66.603 32.7307 66.4804 32.4 66.4804 31.984C66.4804 31.648 66.5684 31.352 66.7444 31.096C66.9257 30.84 67.1764 30.6427 67.4964 30.504C67.8164 30.36 68.1844 30.288 68.6004 30.288C68.9844 30.288 69.339 30.3467 69.6644 30.464C69.995 30.576 70.275 30.7413 70.5044 30.96L70.2324 31.592C69.779 31.192 69.2324 30.992 68.5924 30.992C68.1977 30.992 67.883 31.08 67.6484 31.256C67.419 31.432 67.3044 31.6667 67.3044 31.96C67.3044 32.184 67.3764 32.3627 67.5204 32.496C67.6644 32.6293 67.9044 32.7307 68.2404 32.8L69.0884 32.976C69.6217 33.088 70.019 33.2613 70.2804 33.496C70.5417 33.7253 70.6724 34.0373 70.6724 34.432C70.6724 34.7627 70.5844 35.0507 70.4084 35.296C70.2324 35.5413 69.9844 35.7333 69.6644 35.872C69.3444 36.0053 68.963 36.072 68.5204 36.072ZM74.2249 36.072C73.8303 36.072 73.4889 35.9893 73.2009 35.824C72.9129 35.6587 72.6889 35.4267 72.5289 35.128C72.3743 34.824 72.2969 34.464 72.2969 34.048C72.2969 33.632 72.3743 33.2747 72.5289 32.976C72.6889 32.672 72.9129 32.4373 73.2009 32.272C73.4889 32.1067 73.8303 32.024 74.2249 32.024C74.6089 32.024 74.9449 32.1067 75.2329 32.272C75.5209 32.4373 75.7449 32.672 75.9049 32.976C76.0649 33.2747 76.1449 33.632 76.1449 34.048C76.1449 34.464 76.0649 34.824 75.9049 35.128C75.7449 35.4267 75.5209 35.6587 75.2329 35.824C74.9449 35.9893 74.6089 36.072 74.2249 36.072ZM74.2249 35.448C74.5556 35.448 74.8223 35.328 75.0249 35.088C75.2276 34.848 75.3289 34.5013 75.3289 34.048C75.3289 33.5947 75.2276 33.2507 75.0249 33.016C74.8223 32.776 74.5556 32.656 74.2249 32.656C73.8889 32.656 73.6196 32.776 73.4169 33.016C73.2143 33.2507 73.1129 33.5947 73.1129 34.048C73.1129 34.5013 73.2143 34.848 73.4169 35.088C73.6196 35.328 73.8889 35.448 74.2249 35.448ZM79.7484 36.072C79.3537 36.072 79.0124 35.9893 78.7244 35.824C78.4364 35.6587 78.2124 35.4267 78.0524 35.128C77.8977 34.824 77.8204 34.464 77.8204 34.048C77.8204 33.632 77.8977 33.2747 78.0524 32.976C78.2124 32.672 78.4364 32.4373 78.7244 32.272C79.0124 32.1067 79.3537 32.024 79.7484 32.024C80.1324 32.024 80.4684 32.1067 80.7564 32.272C81.0444 32.4373 81.2684 32.672 81.4284 32.976C81.5884 33.2747 81.6684 33.632 81.6684 34.048C81.6684 34.464 81.5884 34.824 81.4284 35.128C81.2684 35.4267 81.0444 35.6587 80.7564 35.824C80.4684 35.9893 80.1324 36.072 79.7484 36.072ZM79.7484 35.448C80.079 35.448 80.3457 35.328 80.5484 35.088C80.751 34.848 80.8524 34.5013 80.8524 34.048C80.8524 33.5947 80.751 33.2507 80.5484 33.016C80.3457 32.776 80.079 32.656 79.7484 32.656C79.4124 32.656 79.143 32.776 78.9404 33.016C78.7377 33.2507 78.6364 33.5947 78.6364 34.048C78.6364 34.5013 78.7377 34.848 78.9404 35.088C79.143 35.328 79.4124 35.448 79.7484 35.448ZM83.5758 36V32.096H84.3598V32.744C84.4931 32.5093 84.6745 32.3307 84.9038 32.208C85.1385 32.0853 85.3998 32.024 85.6878 32.024C86.6105 32.024 87.0718 32.5467 87.0718 33.592V36H86.2638V33.64C86.2638 33.304 86.1971 33.0587 86.0638 32.904C85.9358 32.7493 85.7331 32.672 85.4558 32.672C85.1305 32.672 84.8691 32.776 84.6718 32.984C84.4798 33.1867 84.3838 33.456 84.3838 33.792V36H83.5758ZM89.3212 34.44L89.0652 30.36H90.0652L89.8172 34.44H89.3212ZM89.0892 36V35.048H90.0412V36H89.0892Z" fill="white"/>
</g>
<defs>
<clipPath id="clip0">
<rect width="110" height="39" fill="white"/>
</clipPath>
</defs>
</svg>
