<?xml version="1.0" encoding="UTF-8"?>
<svg width="122px" height="122px" viewBox="0 0 122 122" version="1.1" xmlns="http://www.w3.org/2000/svg" xmlns:xlink="http://www.w3.org/1999/xlink">
    <!-- Generator: Sketch 52.6 (67491) - http://www.bohemiancoding.com/sketch -->
    <title>Oval Copy 2</title>
    <desc>Created with Sketch.</desc>
    <g id="Page-1" stroke="none" stroke-width="1" fill="none" fill-rule="evenodd">
        <g id="Quiz_page_q4_1920" transform="translate(-699.000000, -520.000000)">
            <rect fill="#FFFFFF" x="0" y="0" width="1920" height="1080"></rect>
            <g id="Group" transform="translate(421.000000, 520.000000)">
                <circle id="Oval-Copy-2" stroke="#A7ADAD" cx="339" cy="61" r="60"></circle>
                <g id="Group-4" transform="translate(290.000000, 15.000000)" fill="#A7ADAD">
                    <g id="Group-3" transform="translate(15.000000, 0.000000)">
                        <circle id="Oval" cx="76.5" cy="57.5" r="2.5"></circle>
                        <circle id="Oval" cx="30.5" cy="64.5" r="2.5"></circle>
                        <circle id="Oval" cx="2.5" cy="82.5" r="2.5"></circle>
                        <circle id="Oval" cx="52.5" cy="2.5" r="2.5"></circle>
                        <circle id="Oval" cx="50.5" cy="40.5" r="2.5"></circle>
                        <circle id="Oval-Copy-5" cx="24.5" cy="43.5" r="2.5"></circle>
                        <circle id="Oval" cx="7.5" cy="7.5" r="2.5"></circle>
                    </g>
                    <g id="Group-3" transform="translate(0.000000, 13.000000)">
                        <circle id="Oval" cx="68.5" cy="61.5" r="2.5"></circle>
                        <circle id="Oval" cx="55.5" cy="80.5" r="2.5"></circle>
                        <circle id="Oval" cx="14.5" cy="46.5" r="2.5"></circle>
                        <circle id="Oval" cx="49.5" cy="2.5" r="2.5"></circle>
                        <circle id="Oval" cx="15.5" cy="13.5" r="2.5"></circle>
                        <circle id="Oval-Copy-5" cx="2.5" cy="32.5" r="2.5"></circle>
                        <circle id="Oval" cx="95.5" cy="14.5" r="2.5"></circle>
                    </g>
                </g>
            </g>
        </g>
    </g>
</svg>