<?xml version="1.0" encoding="UTF-8"?>
<svg width="122px" height="122px" viewBox="0 0 122 122" version="1.1" xmlns="http://www.w3.org/2000/svg" xmlns:xlink="http://www.w3.org/1999/xlink">
    <!-- Generator: Sketch 52.6 (67491) - http://www.bohemiancoding.com/sketch -->
    <title>Group 2</title>
    <desc>Created with Sketch.</desc>
    <g id="Page-1" stroke="none" stroke-width="1" fill="none" fill-rule="evenodd">
        <g id="Quiz_page_q4_1920" transform="translate(-1299.000000, -520.000000)">
            <g id="Group" transform="translate(421.000000, 520.000000)">
                <g id="Group-2" transform="translate(879.000000, 1.000000)">
                    <circle id="Oval-Copy-4" stroke="#A7ADAD" cx="60" cy="60" r="60"></circle>
                    <g id="Group-4" transform="translate(8.000000, 5.000000)" fill="#A7ADAD">
                        <g id="Group-3" transform="translate(21.000000, 0.000000)">
                            <circle id="Oval" cx="66.5" cy="85.5" r="2.5"></circle>
                            <circle id="Oval" cx="20.5" cy="67.5" r="2.5"></circle>
                            <circle id="Oval" cx="2.5" cy="92.5" r="2.5"></circle>
                            <circle id="Oval" cx="52.5" cy="12.5" r="2.5"></circle>
                            <circle id="Oval" cx="42.5" cy="12.5" r="2.5"></circle>
                            <circle id="Oval" cx="42.5" cy="2.5" r="2.5"></circle>
                            <circle id="Oval" cx="46.5" cy="30.5" r="2.5"></circle>
                            <circle id="Oval-Copy-5" cx="24.5" cy="53.5" r="2.5"></circle>
                            <circle id="Oval" cx="22.5" cy="27.5" r="2.5"></circle>
                            <circle id="Oval" cx="22.5" cy="37.5" r="2.5"></circle>
                            <circle id="Oval" cx="7.5" cy="24.5" r="2.5"></circle>
                        </g>
                        <g id="Group-3" transform="translate(18.000000, 5.000000)">
                            <circle id="Oval" cx="61.5" cy="65.5" r="2.5"></circle>
                            <circle id="Oval" cx="43.5" cy="98.5" r="2.5"></circle>
                            <circle id="Oval" cx="2.5" cy="64.5" r="2.5"></circle>
                            <circle id="Oval" cx="24.5" cy="2.5" r="2.5"></circle>
                            <circle id="Oval" cx="3.5" cy="24.5" r="2.5"></circle>
                            <circle id="Oval-Copy-5" cx="26.5" cy="85.5" r="2.5"></circle>
                            <circle id="Oval" cx="83.5" cy="32.5" r="2.5"></circle>
                        </g>
                        <g id="Group-3" transform="translate(0.000000, 24.000000)">
                            <circle id="Oval" cx="56.5" cy="15.5" r="2.5"></circle>
                            <circle id="Oval" cx="61.5" cy="64.5" r="2.5"></circle>
                            <circle id="Oval" cx="20.5" cy="31.5" r="2.5"></circle>
                            <circle id="Oval" cx="89.5" cy="27.5" r="2.5"></circle>
                            <circle id="Oval" cx="11.5" cy="2.5" r="2.5"></circle>
                            <circle id="Oval-Copy-5" cx="2.5" cy="22.5" r="2.5"></circle>
                            <circle id="Oval" cx="82.5" cy="4.5" r="2.5"></circle>
                        </g>
                        <g id="Group-3" transform="translate(0.000000, 17.000000)">
                            <circle id="Oval" cx="56.5" cy="42.5" r="2.5"></circle>
                            <circle id="Oval" cx="90.5" cy="2.5" r="2.5"></circle>
                            <circle id="Oval" cx="10.5" cy="62.5" r="2.5"></circle>
                            <circle id="Oval" cx="98.5" cy="57.5" r="2.5"></circle>
                            <circle id="Oval" cx="11.5" cy="29.5" r="2.5"></circle>
                            <circle id="Oval-Copy-5" cx="2.5" cy="49.5" r="2.5"></circle>
                            <circle id="Oval" cx="71.5" cy="39.5" r="2.5"></circle>
                        </g>
                        <g id="Group-3" transform="translate(9.000000, 37.000000)">
                            <circle id="Oval" cx="47.5" cy="42.5" r="2.5"></circle>
                            <circle id="Oval" cx="21.5" cy="2.5" r="2.5"></circle>
                            <circle id="Oval" cx="11.5" cy="7.5" r="2.5"></circle>
                            <circle id="Oval" cx="21.5" cy="62.5" r="2.5"></circle>
                            <circle id="Oval" cx="87.5" cy="51.5" r="2.5"></circle>
                            <circle id="Oval" cx="2.5" cy="29.5" r="2.5"></circle>
                            <circle id="Oval-Copy-5" cx="23.5" cy="39.5" r="2.5"></circle>
                            <circle id="Oval" cx="62.5" cy="39.5" r="2.5"></circle>
                        </g>
                        <g id="Group-3" transform="translate(8.000000, 0.000000)">
                            <circle id="Oval" cx="46.5" cy="23.5" r="2.5"></circle>
                            <circle id="Oval" cx="2.5" cy="89.5" r="2.5"></circle>
                            <circle id="Oval" cx="39.5" cy="76.5" r="2.5"></circle>
                            <circle id="Oval" cx="67.5" cy="98.5" r="2.5"></circle>
                            <circle id="Oval" cx="43.5" cy="2.5" r="2.5"></circle>
                            <circle id="Oval-Copy-5" cx="74.5" cy="57.5" r="2.5"></circle>
                            <circle id="Oval" cx="38.5" cy="105.5" r="2.5"></circle>
                        </g>
                        <g id="Group-3" transform="translate(9.000000, 7.000000)">
                            <circle id="Oval" cx="47.5" cy="42.5" r="2.5"></circle>
                            <circle id="Oval" cx="21.5" cy="2.5" r="2.5"></circle>
                            <circle id="Oval" cx="21.5" cy="62.5" r="2.5"></circle>
                            <circle id="Oval" cx="87.5" cy="51.5" r="2.5"></circle>
                            <circle id="Oval" cx="80.5" cy="64.5" r="2.5"></circle>
                            <circle id="Oval" cx="87.5" cy="81.5" r="2.5"></circle>
                            <circle id="Oval" cx="94.5" cy="42.5" r="2.5"></circle>
                            <circle id="Oval" cx="2.5" cy="29.5" r="2.5"></circle>
                            <circle id="Oval-Copy-5" cx="23.5" cy="39.5" r="2.5"></circle>
                            <circle id="Oval" cx="62.5" cy="39.5" r="2.5"></circle>
                        </g>
                        <g id="Group-3" transform="translate(16.000000, 13.000000)">
                            <circle id="Oval" cx="17.5" cy="75.5" r="2.5"></circle>
                            <circle id="Oval" cx="56.5" cy="11.5" r="2.5"></circle>
                            <circle id="Oval" cx="59.5" cy="75.5" r="2.5"></circle>
                            <circle id="Oval" cx="27.5" cy="5.5" r="2.5"></circle>
                            <circle id="Oval" cx="68.5" cy="27.5" r="2.5"></circle>
                            <circle id="Oval-Copy-5" cx="51.5" cy="54.5" r="2.5"></circle>
                            <circle id="Oval" cx="2.5" cy="2.5" r="2.5"></circle>
                        </g>
                    </g>
                </g>
            </g>
        </g>
    </g>
</svg>