<?xml version="1.0" encoding="UTF-8"?>
<svg width="82px" height="81px" viewBox="0 0 82 81" version="1.1" xmlns="http://www.w3.org/2000/svg" xmlns:xlink="http://www.w3.org/1999/xlink">
    <!-- Generator: Sketch 52.6 (67491) - http://www.bohemiancoding.com/sketch -->
    <title>5</title>
    <desc>Created with Sketch.</desc>
    <g id="Page-1" stroke="none" stroke-width="1" fill="none" fill-rule="evenodd">
        <g id="Quiz_page_q4_320" transform="translate(-119.000000, -352.000000)">
            <g id="5" transform="translate(120.000000, 353.000000)">
                <g id="Group-4" transform="translate(5.264395, 3.290247)" fill="#A7ADAD">
                    <g id="Group-3" transform="translate(13.819036, 0.000000)">
                        <circle id="Oval" cx="43.760282" cy="56.2632197" r="1.64512338"></circle>
                        <circle id="Oval" cx="13.4900118" cy="44.4183314" r="1.64512338"></circle>
                        <circle id="Oval" cx="1.64512338" cy="60.8695652" r="1.64512338"></circle>
                        <circle id="Oval" cx="34.5475911" cy="8.22561692" r="1.64512338"></circle>
                        <circle id="Oval" cx="27.9670975" cy="8.22561692" r="1.64512338"></circle>
                        <circle id="Oval" cx="27.9670975" cy="1.64512338" r="1.64512338"></circle>
                        <circle id="Oval" cx="30.5992949" cy="20.0705053" r="1.64512338"></circle>
                        <circle id="Oval-Copy-5" cx="16.1222092" cy="35.2056404" r="1.64512338"></circle>
                        <circle id="Oval" cx="14.8061105" cy="18.0963572" r="1.64512338"></circle>
                        <circle id="Oval" cx="14.8061105" cy="24.6768508" r="1.64512338"></circle>
                        <circle id="Oval" cx="4.93537015" cy="16.1222092" r="1.64512338"></circle>
                    </g>
                    <g id="Group-3" transform="translate(11.844888, 3.290247)">
                        <circle id="Oval" cx="40.4700353" cy="43.1022327" r="1.64512338"></circle>
                        <circle id="Oval" cx="28.6251469" cy="64.8178613" r="1.64512338"></circle>
                        <circle id="Oval" cx="1.64512338" cy="42.4441833" r="1.64512338"></circle>
                        <circle id="Oval" cx="16.1222092" cy="1.64512338" r="1.64512338"></circle>
                        <circle id="Oval" cx="2.30317274" cy="16.1222092" r="1.64512338"></circle>
                        <circle id="Oval-Copy-5" cx="17.4383079" cy="56.2632197" r="1.64512338"></circle>
                        <circle id="Oval" cx="54.947121" cy="21.386604" r="1.64512338"></circle>
                    </g>
                    <g id="Group-3" transform="translate(0.000000, 15.793184)">
                        <circle id="Oval" cx="37.1797885" cy="10.199765" r="1.64512338"></circle>
                        <circle id="Oval" cx="40.4700353" cy="42.4441833" r="1.64512338"></circle>
                        <circle id="Oval" cx="13.4900118" cy="20.7285546" r="1.64512338"></circle>
                        <circle id="Oval" cx="58.8954172" cy="18.0963572" r="1.64512338"></circle>
                        <circle id="Oval" cx="7.56756757" cy="1.64512338" r="1.64512338"></circle>
                        <circle id="Oval-Copy-5" cx="1.64512338" cy="14.8061105" r="1.64512338"></circle>
                        <circle id="Oval" cx="54.2890717" cy="2.96122209" r="1.64512338"></circle>
                    </g>
                    <g id="Group-3" transform="translate(0.000000, 11.186839)">
                        <circle id="Oval" cx="37.1797885" cy="27.9670975" r="1.64512338"></circle>
                        <circle id="Oval" cx="59.5534665" cy="1.64512338" r="1.64512338"></circle>
                        <circle id="Oval" cx="6.90951821" cy="41.1280846" r="1.64512338"></circle>
                        <circle id="Oval" cx="64.8178613" cy="37.8378378" r="1.64512338"></circle>
                        <circle id="Oval" cx="7.56756757" cy="19.4124559" r="1.64512338"></circle>
                        <circle id="Oval-Copy-5" cx="1.64512338" cy="32.573443" r="1.64512338"></circle>
                        <circle id="Oval" cx="47.0505288" cy="25.9929495" r="1.64512338"></circle>
                    </g>
                    <g id="Group-3" transform="translate(5.922444, 24.347826)">
                        <circle id="Oval" cx="31.2573443" cy="27.9670975" r="1.64512338"></circle>
                        <circle id="Oval" cx="14.1480611" cy="1.64512338" r="1.64512338"></circle>
                        <circle id="Oval" cx="7.56756757" cy="4.93537015" r="1.64512338"></circle>
                        <circle id="Oval" cx="14.1480611" cy="41.1280846" r="1.64512338"></circle>
                        <circle id="Oval" cx="57.5793184" cy="33.8895417" r="1.64512338"></circle>
                        <circle id="Oval" cx="1.64512338" cy="19.4124559" r="1.64512338"></circle>
                        <circle id="Oval-Copy-5" cx="15.4641598" cy="25.9929495" r="1.64512338"></circle>
                        <circle id="Oval" cx="41.1280846" cy="25.9929495" r="1.64512338"></circle>
                    </g>
                    <g id="Group-3" transform="translate(5.264395, 0.000000)">
                        <circle id="Oval" cx="30.5992949" cy="15.4641598" r="1.64512338"></circle>
                        <circle id="Oval" cx="1.64512338" cy="58.8954172" r="1.64512338"></circle>
                        <circle id="Oval" cx="25.9929495" cy="50.3407756" r="1.64512338"></circle>
                        <circle id="Oval" cx="44.4183314" cy="64.8178613" r="1.64512338"></circle>
                        <circle id="Oval" cx="28.6251469" cy="1.64512338" r="1.64512338"></circle>
                        <circle id="Oval-Copy-5" cx="49.0246769" cy="37.8378378" r="1.64512338"></circle>
                        <circle id="Oval" cx="25.3349001" cy="69.4242068" r="1.64512338"></circle>
                    </g>
                    <g id="Group-3" transform="translate(5.922444, 4.606345)">
                        <circle id="Oval" cx="31.2573443" cy="27.9670975" r="1.64512338"></circle>
                        <circle id="Oval" cx="14.1480611" cy="1.64512338" r="1.64512338"></circle>
                        <circle id="Oval" cx="14.1480611" cy="41.1280846" r="1.64512338"></circle>
                        <circle id="Oval" cx="57.5793184" cy="33.8895417" r="1.64512338"></circle>
                        <circle id="Oval" cx="52.972973" cy="42.4441833" r="1.64512338"></circle>
                        <circle id="Oval" cx="57.5793184" cy="53.6310223" r="1.64512338"></circle>
                        <circle id="Oval" cx="62.1856639" cy="27.9670975" r="1.64512338"></circle>
                        <circle id="Oval" cx="1.64512338" cy="19.4124559" r="1.64512338"></circle>
                        <circle id="Oval-Copy-5" cx="15.4641598" cy="25.9929495" r="1.64512338"></circle>
                        <circle id="Oval" cx="41.1280846" cy="25.9929495" r="1.64512338"></circle>
                    </g>
                    <g id="Group-3" transform="translate(10.528790, 8.554642)">
                        <circle id="Oval" cx="11.5158637" cy="49.6827262" r="1.64512338"></circle>
                        <circle id="Oval" cx="37.1797885" cy="7.56756757" r="1.64512338"></circle>
                        <circle id="Oval" cx="39.1539365" cy="49.6827262" r="1.64512338"></circle>
                        <circle id="Oval" cx="18.0963572" cy="3.61927145" r="1.64512338"></circle>
                        <circle id="Oval" cx="45.0763807" cy="18.0963572" r="1.64512338"></circle>
                        <circle id="Oval-Copy-5" cx="33.8895417" cy="35.8636898" r="1.64512338"></circle>
                        <circle id="Oval" cx="1.64512338" cy="1.64512338" r="1.64512338"></circle>
                    </g>
                </g>
                <rect id="Rectangle" stroke="#A7ADAD" x="0" y="0" width="80" height="79" rx="10"></rect>
            </g>
        </g>
    </g>
</svg>