<?xml version="1.0" encoding="UTF-8"?>
<svg width="122px" height="122px" viewBox="0 0 122 122" version="1.1" xmlns="http://www.w3.org/2000/svg" xmlns:xlink="http://www.w3.org/1999/xlink">
    <!-- Generator: Sketch 52.6 (67491) - http://www.bohemiancoding.com/sketch -->
    <title>Oval Copy 3</title>
    <desc>Created with Sketch.</desc>
    <g id="Page-1" stroke="none" stroke-width="1" fill="none" fill-rule="evenodd">
        <g id="Quiz_page_q4_1920" transform="translate(-1099.000000, -520.000000)">
            <rect fill="#FFFFFF" x="0" y="0" width="1920" height="1080"></rect>
            <g id="Group" transform="translate(421.000000, 520.000000)">
                <g id="Group-4" transform="translate(687.000000, 11.000000)" fill="#A7ADAD">
                    <g id="Group-3" transform="translate(21.000000, 5.000000)">
                        <circle id="Oval" cx="66.5" cy="75.5" r="2.5"></circle>
                        <circle id="Oval" cx="30.5" cy="64.5" r="2.5"></circle>
                        <circle id="Oval" cx="2.5" cy="82.5" r="2.5"></circle>
                        <circle id="Oval" cx="52.5" cy="2.5" r="2.5"></circle>
                        <circle id="Oval" cx="46.5" cy="20.5" r="2.5"></circle>
                        <circle id="Oval" cx="22.5" cy="17.5" r="2.5"></circle>
                    </g>
                    <g id="Group-3" transform="translate(18.000000, 0.000000)">
                        <circle id="Oval" cx="61.5" cy="65.5" r="2.5"></circle>
                        <circle id="Oval" cx="2.5" cy="64.5" r="2.5"></circle>
                        <circle id="Oval" cx="24.5" cy="2.5" r="2.5"></circle>
                        <circle id="Oval" cx="13.5" cy="34.5" r="2.5"></circle>
                        <circle id="Oval-Copy-5" cx="26.5" cy="85.5" r="2.5"></circle>
                        <circle id="Oval" cx="83.5" cy="45.5" r="2.5"></circle>
                    </g>
                    <g id="Group-3" transform="translate(0.000000, 19.000000)">
                        <circle id="Oval" cx="61.5" cy="64.5" r="2.5"></circle>
                        <circle id="Oval" cx="32.5" cy="32.5" r="2.5"></circle>
                        <circle id="Oval" cx="89.5" cy="27.5" r="2.5"></circle>
                        <circle id="Oval" cx="11.5" cy="2.5" r="2.5"></circle>
                        <circle id="Oval-Copy-5" cx="2.5" cy="22.5" r="2.5"></circle>
                    </g>
                    <g id="Group-3" transform="translate(0.000000, 52.000000)">
                        <circle id="Oval" cx="56.5" cy="2.5" r="2.5"></circle>
                        <circle id="Oval" cx="10.5" cy="22.5" r="2.5"></circle>
                        <circle id="Oval" cx="96.5" cy="11.5" r="2.5"></circle>
                        <circle id="Oval-Copy-5" cx="2.5" cy="9.5" r="2.5"></circle>
                    </g>
                </g>
                <circle id="Oval-Copy-3" stroke="#A7ADAD" cx="739" cy="61" r="60"></circle>
                <g id="Group-4" transform="translate(682.000000, 10.000000)" fill="#A7ADAD">
                    <g id="Group-3" transform="translate(40.000000, 16.000000)">
                        <circle id="Oval" cx="35.5" cy="59.5" r="2.5"></circle>
                        <circle id="Oval" cx="2.5" cy="82.5" r="2.5"></circle>
                        <circle id="Oval" cx="52.5" cy="2.5" r="2.5"></circle>
                        <circle id="Oval" cx="46.5" cy="20.5" r="2.5"></circle>
                        <circle id="Oval-Copy-5" cx="30.5" cy="46.5" r="2.5"></circle>
                        <circle id="Oval" cx="22.5" cy="17.5" r="2.5"></circle>
                    </g>
                    <g id="Group-3" transform="translate(37.000000, 11.000000)">
                        <circle id="Oval" cx="61.5" cy="65.5" r="2.5"></circle>
                        <circle id="Oval" cx="13.5" cy="90.5" r="2.5"></circle>
                        <circle id="Oval" cx="2.5" cy="64.5" r="2.5"></circle>
                        <circle id="Oval" cx="24.5" cy="2.5" r="2.5"></circle>
                        <circle id="Oval" cx="13.5" cy="34.5" r="2.5"></circle>
                        <circle id="Oval-Copy-5" cx="26.5" cy="85.5" r="2.5"></circle>
                    </g>
                    <g id="Group-3" transform="translate(19.000000, 32.000000)">
                        <circle id="Oval" cx="56.5" cy="13.5" r="2.5"></circle>
                        <circle id="Oval" cx="61.5" cy="62.5" r="2.5"></circle>
                        <circle id="Oval" cx="32.5" cy="30.5" r="2.5"></circle>
                        <circle id="Oval" cx="89.5" cy="25.5" r="2.5"></circle>
                        <circle id="Oval-Copy-5" cx="2.5" cy="10.5" r="2.5"></circle>
                        <circle id="Oval" cx="82.5" cy="2.5" r="2.5"></circle>
                    </g>
                    <g id="Group-3" transform="translate(37.000000, 27.000000) scale(1, -1) translate(-37.000000, -27.000000) ">
                        <circle id="Oval" cx="28.5" cy="42.5" r="2.5"></circle>
                        <circle id="Oval" cx="2.5" cy="2.5" r="2.5"></circle>
                        <circle id="Oval" cx="68.5" cy="51.5" r="2.5"></circle>
                        <circle id="Oval" cx="71.5" cy="37.5" r="2.5"></circle>
                        <circle id="Oval" cx="43.5" cy="39.5" r="2.5"></circle>
                    </g>
                </g>
            </g>
        </g>
    </g>
</svg>