<?xml version="1.0" encoding="UTF-8"?>
<svg width="82px" height="81px" viewBox="0 0 82 81" version="1.1" xmlns="http://www.w3.org/2000/svg" xmlns:xlink="http://www.w3.org/1999/xlink">
    <!-- Generator: Sketch 52.6 (67491) - http://www.bohemiancoding.com/sketch -->
    <title>4</title>
    <desc>Created with Sketch.</desc>
    <g id="Page-1" stroke="none" stroke-width="1" fill="none" fill-rule="evenodd">
        <g id="Quiz_page_q4_320" transform="translate(-19.000000, -352.000000)">
            <g id="4" transform="translate(20.000000, 353.000000)">
                <g id="Group-4" transform="translate(5.000000, 4.000000)" fill="#A7ADAD">
                    <g id="Group-3" transform="translate(13.819036, 3.272365)">
                        <ellipse id="Oval" cx="43.760282" cy="49.4127114" rx="1.64512338" ry="1.6361825"></ellipse>
                        <ellipse id="Oval" cx="20.0705053" cy="46.514331" rx="1.64512338" ry="1.6361825"></ellipse>
                        <ellipse id="Oval" cx="1.64512338" cy="53.9940224" rx="1.64512338" ry="1.6361825"></ellipse>
                        <ellipse id="Oval" cx="34.5475911" cy="1.6361825" rx="1.64512338" ry="1.6361825"></ellipse>
                        <ellipse id="Oval" cx="30.5992949" cy="13.4166965" rx="1.64512338" ry="1.6361825"></ellipse>
                        <ellipse id="Oval" cx="14.8061105" cy="13.6036888" rx="1.64512338" ry="1.6361825"></ellipse>
                    </g>
                    <g id="Group-3" transform="translate(11.844888, 0.000000)">
                        <ellipse id="Oval" cx="40.4700353" cy="42.8679814" rx="1.64512338" ry="1.6361825"></ellipse>
                        <ellipse id="Oval" cx="1.64512338" cy="42.2135084" rx="1.64512338" ry="1.6361825"></ellipse>
                        <ellipse id="Oval" cx="16.1222092" cy="1.6361825" rx="1.64512338" ry="1.6361825"></ellipse>
                        <ellipse id="Oval" cx="8.88366627" cy="22.5793184" rx="1.64512338" ry="1.6361825"></ellipse>
                        <ellipse id="Oval-Copy-5" cx="17.4383079" cy="55.9574414" rx="1.64512338" ry="1.6361825"></ellipse>
                        <ellipse id="Oval" cx="54.947121" cy="29.7785214" rx="1.64512338" ry="1.6361825"></ellipse>
                    </g>
                    <g id="Group-3" transform="translate(0.000000, 12.434987)">
                        <ellipse id="Oval" cx="40.4700353" cy="42.2135084" rx="1.64512338" ry="1.6361825"></ellipse>
                        <ellipse id="Oval" cx="21.386604" cy="21.2703725" rx="1.64512338" ry="1.6361825"></ellipse>
                        <ellipse id="Oval" cx="58.8954172" cy="17.9980075" rx="1.64512338" ry="1.6361825"></ellipse>
                        <ellipse id="Oval" cx="7.56756757" cy="1.6361825" rx="1.64512338" ry="1.6361825"></ellipse>
                        <ellipse id="Oval-Copy-5" cx="1.64512338" cy="14.7256425" rx="1.64512338" ry="1.6361825"></ellipse>
                    </g>
                    <g id="Group-3" transform="translate(0.000000, 34.032596)">
                        <ellipse id="Oval" cx="37.1797885" cy="1.6361825" rx="1.64512338" ry="1.6361825"></ellipse>
                        <ellipse id="Oval" cx="6.90951821" cy="14.7256425" rx="1.64512338" ry="1.6361825"></ellipse>
                        <ellipse id="Oval" cx="63.5017626" cy="7.52643948" rx="1.64512338" ry="1.6361825"></ellipse>
                        <ellipse id="Oval-Copy-5" cx="1.64512338" cy="6.21749349" rx="1.64512338" ry="1.6361825"></ellipse>
                    </g>
                </g>
                <g id="Group-4" transform="translate(3.000000, 4.000000)" fill="#A7ADAD">
                    <g id="Group-3" transform="translate(23.760912, 11.690952)">
                        <ellipse id="Oval" cx="26.1436126" cy="39.1539365" rx="1.65246769" ry="1.64512338"></ellipse>
                        <ellipse id="Oval" cx="1.65246769" cy="48.9557383" rx="1.65246769" ry="1.64512338"></ellipse>
                        <ellipse id="Oval" cx="37.3803928" cy="1.64512338" rx="1.65246769" ry="1.64512338"></ellipse>
                        <ellipse id="Oval" cx="33.4144704" cy="13.4900118" rx="1.65246769" ry="1.64512338"></ellipse>
                        <ellipse id="Oval-Copy-5" cx="22.8386772" cy="30.5992949" rx="1.65246769" ry="1.64512338"></ellipse>
                        <ellipse id="Oval" cx="17.5507806" cy="11.5158637" rx="1.65246769" ry="1.64512338"></ellipse>
                    </g>
                    <g id="Group-3" transform="translate(24.456522, 8.400705)">
                        <ellipse id="Oval" cx="40.6507051" cy="43.1022327" rx="1.65246769" ry="1.64512338"></ellipse>
                        <ellipse id="Oval" cx="8.9233255" cy="59.5534665" rx="1.65246769" ry="1.64512338"></ellipse>
                        <ellipse id="Oval" cx="1.65246769" cy="42.4441833" rx="1.65246769" ry="1.64512338"></ellipse>
                        <ellipse id="Oval" cx="16.1941833" cy="1.64512338" rx="1.65246769" ry="1.64512338"></ellipse>
                        <ellipse id="Oval" cx="8.9233255" cy="22.7027027" rx="1.65246769" ry="1.64512338"></ellipse>
                        <ellipse id="Oval-Copy-5" cx="17.5161575" cy="56.2632197" rx="1.65246769" ry="1.64512338"></ellipse>
                    </g>
                    <g id="Group-3" transform="translate(12.558754, 22.219741)">
                        <ellipse id="Oval" cx="37.3457697" cy="8.88366627" rx="1.65246769" ry="1.64512338"></ellipse>
                        <ellipse id="Oval" cx="40.6507051" cy="41.1280846" rx="1.65246769" ry="1.64512338"></ellipse>
                        <ellipse id="Oval" cx="21.4820799" cy="20.0705053" rx="1.65246769" ry="1.64512338"></ellipse>
                        <ellipse id="Oval" cx="59.1583431" cy="16.7802585" rx="1.65246769" ry="1.64512338"></ellipse>
                        <ellipse id="Oval-Copy-5" cx="1.65246769" cy="6.90951821" rx="1.65246769" ry="1.64512338"></ellipse>
                        <ellipse id="Oval" cx="54.5314336" cy="1.64512338" rx="1.65246769" ry="1.64512338"></ellipse>
                    </g>
                    <g id="Group-3" transform="translate(27.500000, 18.696827) scale(1, -1) translate(-27.500000, -18.696827) translate(0.000000, 0.696827)">
                        <ellipse id="Oval" cx="18.8381316" cy="27.9670975" rx="1.65246769" ry="1.64512338"></ellipse>
                        <ellipse id="Oval" cx="1.65246769" cy="1.64512338" rx="1.65246769" ry="1.64512338"></ellipse>
                        <ellipse id="Oval" cx="45.2776146" cy="33.8895417" rx="1.65246769" ry="1.64512338"></ellipse>
                        <ellipse id="Oval" cx="52.6177187" cy="24.6768508" rx="1.65246769" ry="1.64512338"></ellipse>
                        <ellipse id="Oval" cx="28.7529377" cy="25.9929495" rx="1.65246769" ry="1.64512338"></ellipse>
                    </g>
                </g>
                <rect id="Rectangle" stroke="#A7ADAD" x="0" y="0" width="80" height="79" rx="10"></rect>
            </g>
        </g>
    </g>
</svg>