<?xml version="1.0" encoding="UTF-8"?>
<svg width="82px" height="81px" viewBox="0 0 82 81" version="1.1" xmlns="http://www.w3.org/2000/svg" xmlns:xlink="http://www.w3.org/1999/xlink">
    <!-- Generator: Sketch 52.6 (67491) - http://www.bohemiancoding.com/sketch -->
    <title>3</title>
    <desc>Created with Sketch.</desc>
    <g id="Page-1" stroke="none" stroke-width="1" fill="none" fill-rule="evenodd">
        <g id="Quiz_page_q4_320" transform="translate(-219.000000, -203.000000)">
            <g id="3" transform="translate(220.000000, 204.000000)">
                <g id="Group-4" transform="translate(4.888367, 6.486486)" fill="#A7ADAD">
                    <g id="Group-3" transform="translate(13.819036, 3.948296)">
                        <circle id="Oval" cx="43.760282" cy="49.6827262" r="1.64512338"></circle>
                        <circle id="Oval" cx="50.3407756" cy="36.5217391" r="1.64512338"></circle>
                        <circle id="Oval" cx="20.0705053" cy="42.4441833" r="1.64512338"></circle>
                        <circle id="Oval" cx="1.64512338" cy="54.2890717" r="1.64512338"></circle>
                        <circle id="Oval" cx="34.5475911" cy="1.64512338" r="1.64512338"></circle>
                        <circle id="Oval" cx="33.2314924" cy="26.6509988" r="1.64512338"></circle>
                        <circle id="Oval" cx="26.6509988" cy="33.2314924" r="1.64512338"></circle>
                        <circle id="Oval-Copy-5" cx="16.1222092" cy="28.6251469" r="1.64512338"></circle>
                        <circle id="Oval" cx="19.4124559" cy="4.2773208" r="1.64512338"></circle>
                    </g>
                    <g id="Group-3" transform="translate(11.844888, 0.000000)">
                        <circle id="Oval" cx="40.4700353" cy="43.760282" r="1.64512338"></circle>
                        <circle id="Oval" cx="28.6251469" cy="65.4759107" r="1.64512338"></circle>
                        <circle id="Oval" cx="1.64512338" cy="43.1022327" r="1.64512338"></circle>
                        <circle id="Oval" cx="25.3349001" cy="1.64512338" r="1.64512338"></circle>
                        <circle id="Oval" cx="8.22561692" cy="14.8061105" r="1.64512338"></circle>
                        <circle id="Oval" cx="12.173913" cy="41.1280846" r="1.64512338"></circle>
                        <circle id="Oval" cx="8.88366627" cy="23.3607521" r="1.64512338"></circle>
                        <circle id="Oval-Copy-5" cx="17.4383079" cy="56.9212691" r="1.64512338"></circle>
                        <circle id="Oval" cx="54.947121" cy="22.0446533" r="1.64512338"></circle>
                    </g>
                    <g id="Group-3" transform="translate(0.000000, 13.160987)">
                        <circle id="Oval" cx="37.1797885" cy="10.199765" r="1.64512338"></circle>
                        <circle id="Oval" cx="40.4700353" cy="42.4441833" r="1.64512338"></circle>
                        <circle id="Oval" cx="6.90951821" cy="23.3607521" r="1.64512338"></circle>
                        <circle id="Oval" cx="58.8954172" cy="18.0963572" r="1.64512338"></circle>
                        <circle id="Oval" cx="7.56756757" cy="1.64512338" r="1.64512338"></circle>
                        <circle id="Oval-Copy-5" cx="1.64512338" cy="14.8061105" r="1.64512338"></circle>
                        <circle id="Oval" cx="51.6568743" cy="5.59341951" r="1.64512338"></circle>
                    </g>
                </g>
                <rect id="Rectangle" stroke="#A7ADAD" x="0" y="0" width="80" height="79" rx="10"></rect>
            </g>
        </g>
    </g>
</svg>