<?xml version="1.0" encoding="UTF-8"?>
<svg width="82px" height="81px" viewBox="0 0 82 81" version="1.1" xmlns="http://www.w3.org/2000/svg" xmlns:xlink="http://www.w3.org/1999/xlink">
    <!-- Generator: Sketch 52.6 (67491) - http://www.bohemiancoding.com/sketch -->
    <title>2</title>
    <desc>Created with Sketch.</desc>
    <g id="Page-1" stroke="none" stroke-width="1" fill="none" fill-rule="evenodd">
        <g id="Quiz_page_q4_320" transform="translate(-119.000000, -203.000000)">
            <g id="2" transform="translate(120.000000, 204.000000)">
                <g id="Group-4" transform="translate(2.021152, 4.111153)" fill="#A7ADAD">
                    <g id="Group-3" transform="translate(11.280846, 0.000000)">
                        <ellipse id="Oval" cx="57.5323149" cy="42.6341835" rx="1.88014101" ry="1.85366015"></ellipse>
                        <ellipse id="Oval" cx="22.9377203" cy="47.8244319" rx="1.88014101" ry="1.85366015"></ellipse>
                        <ellipse id="Oval" cx="1.88014101" cy="61.170785" rx="1.88014101" ry="1.85366015"></ellipse>
                        <ellipse id="Oval" cx="39.4829612" cy="1.85366015" rx="1.88014101" ry="1.85366015"></ellipse>
                        <ellipse id="Oval" cx="37.9788484" cy="30.0292945" rx="1.88014101" ry="1.85366015"></ellipse>
                        <ellipse id="Oval-Copy-5" cx="18.4253819" cy="32.2536866" rx="1.88014101" ry="1.85366015"></ellipse>
                        <ellipse id="Oval" cx="5.64042303" cy="5.56098045" rx="1.88014101" ry="1.85366015"></ellipse>
                    </g>
                    <g id="Group-3" transform="translate(0.000000, 9.639033)">
                        <ellipse id="Oval" cx="51.5158637" cy="45.6000397" rx="1.88014101" ry="1.85366015"></ellipse>
                        <ellipse id="Oval" cx="41.7391304" cy="59.6878569" rx="1.88014101" ry="1.85366015"></ellipse>
                        <ellipse id="Oval" cx="10.9048179" cy="34.4780788" rx="1.88014101" ry="1.85366015"></ellipse>
                        <ellipse id="Oval" cx="37.226792" cy="1.85366015" rx="1.88014101" ry="1.85366015"></ellipse>
                        <ellipse id="Oval" cx="11.6568743" cy="10.0097648" rx="1.88014101" ry="1.85366015"></ellipse>
                        <ellipse id="Oval-Copy-5" cx="1.88014101" cy="24.097582" rx="1.88014101" ry="1.85366015"></ellipse>
                        <ellipse id="Oval" cx="71.8213866" cy="10.7512289" rx="1.88014101" ry="1.85366015"></ellipse>
                    </g>
                </g>
                <rect id="Rectangle" stroke="#A7ADAD" x="0" y="0" width="80" height="78.8732394" rx="10"></rect>
            </g>
        </g>
    </g>
</svg>