<?xml version="1.0" encoding="UTF-8"?>
<svg width="122px" height="122px" viewBox="0 0 122 122" version="1.1" xmlns="http://www.w3.org/2000/svg" xmlns:xlink="http://www.w3.org/1999/xlink">
    <title>Group 3</title>
    <g id="Page-1" stroke="none" stroke-width="1" fill="none" fill-rule="evenodd">
        <g id="Quiz_page_q5_1920" transform="translate(-699.000000, -562.000000)">
            <g id="Group-4" transform="translate(421.000000, 562.000000)">
                <g id="Group-5" transform="translate(79.000000, 0.000000)">
                    <g id="Group-3" transform="translate(200.000000, 0.289040)">
                        <path d="M0,53.9487782 C35.0645914,56.0231251 53.6064331,57.5421563 55.625525,58.5058717 C58.6541628,59.9514449 50.6060847,98.3708032 60,98.3708032 C69.3939153,98.3708032 60.3697874,60.0189779 63.217092,58.5058717 C65.1152951,57.4971343 84.0429311,55.9781031 120,53.9487782" id="Path-3" stroke="#A7ADAD"></path>
                        <path d="M59.3093209,27.1639815 C59.3093209,27.1639815 58.7485296,41.4750904 57.8744085,60.7109603 C57.133472,77.015976 54.9775182,97.0393652 60.3967922,97.0393652 C64.2489134,97.0393652 62.6376086,76.7134845 61.4920353,60.6243425 C60.197436,42.4421875 59.5135785,30.0991797 59.3680473,27.5549054 C59.3494175,27.2292066 59.3093209,27.1639815 59.3093209,27.1639815 Z" id="Path-4" fill="#030303"></path>
                        <circle id="Oval-Copy-2" stroke="#A7ADAD" cx="60" cy="60.7109603" r="60"></circle>
                    </g>
                </g>
            </g>
        </g>
    </g>
</svg>