<?xml version="1.0" encoding="UTF-8"?>
<svg width="122px" height="122px" viewBox="0 0 122 122" version="1.1" xmlns="http://www.w3.org/2000/svg" xmlns:xlink="http://www.w3.org/1999/xlink">
    <title>Group 3</title>
    <g id="Page-1" stroke="none" stroke-width="1" fill="none" fill-rule="evenodd">
        <g id="Quiz_page_q5_1920" transform="translate(-1299.000000, -562.000000)">
            <g id="Group-4" transform="translate(421.000000, 562.000000)">
                <g id="Group-5" transform="translate(79.000000, 0.000000)">
                    <g id="Group-3" transform="translate(800.000000, 0.289040)">
                        <path d="M0,53.9487782 C34.6108251,54.9539161 51.9162377,56.6122773 51.9162377,58.9238619 C51.9162377,83.5010706 49.6769079,95.2310943 57.9552248,99 C60.1427582,99.995928 66.0004745,100.782377 68.6212961,95.4645149 C71.2421178,90.1466526 61.8576704,59.5193666 64.2226063,58.011126 C68.8236844,55.076783 87.416149,53.722667 120,53.9487782" id="Path-3" stroke="#A7ADAD"></path>
                        <path d="M60.7097319,26.7109603 C60.7097319,26.7109603 60.4970914,26.8197518 60.3786043,27.2208733 C59.3928843,30.5578903 54.3887878,44.8058249 53.7114389,57.6158208 C52.9526702,71.9656245 51.4712628,94.6963874 57.8012619,97.2894582 C57.8012619,97.2894582 62.9598901,99.1314623 66.4508895,95.9675794 C69.6988136,93.023995 63.806942,73.803736 62.1773296,59.5224157 C59.9911481,40.3635297 60.2854198,30.2365962 60.7097319,27.2208733 C60.7859566,26.6791203 60.7097319,26.7109603 60.7097319,26.7109603 Z" id="Path-4" fill="#030303"></path>
                        <circle id="Oval-Copy-4" stroke="#A7ADAD" cx="60" cy="60.7109603" r="60"></circle>
                    </g>
                </g>
            </g>
        </g>
    </g>
</svg>