<?xml version="1.0" encoding="UTF-8"?>
<svg width="122px" height="122px" viewBox="0 0 122 122" version="1.1" xmlns="http://www.w3.org/2000/svg" xmlns:xlink="http://www.w3.org/1999/xlink">
    <title>Group 3</title>
    <g id="Page-1" stroke="none" stroke-width="1" fill="none" fill-rule="evenodd">
        <g id="Quiz_page_q5_1920" transform="translate(-1099.000000, -562.000000)">
            <g id="Group-4" transform="translate(421.000000, 562.000000)">
                <g id="Group-5" transform="translate(79.000000, 0.000000)">
                    <g id="Group-3" transform="translate(600.000000, 0.289040)">
                        <path d="M0,53.9487782 C34.3513826,55.1083391 52.3515684,56.462455 54.0005574,58.011126 C56.474041,60.3341323 48.5603558,91.8825916 58.1191051,98.7033837 C59.7227112,99.8476615 64.9874205,101.398005 67.2625864,96.2173573 C69.5377524,91.0367095 61.6312802,59.5193666 63.9962162,58.011126 C68.5972943,55.076783 87.2652222,53.722667 120,53.9487782" id="Path-3" stroke="#A7ADAD"></path>
                        <path d="M58.8291402,27.3541579 C58.161411,31.6595828 57.9820208,44.2991219 56.1570218,57.9573513 C54.6692943,69.091452 53.2654601,94.8296721 58.3674478,97.4227429 C58.3674478,97.4227429 62.1478468,99.8228971 64.961597,96.6590142 C67.5794282,93.7154298 63.2080341,73.9370206 61.8945643,59.6557004 C60.132499,40.4968143 58.6209091,30.4406793 58.9629053,27.4249564 C59.0243424,26.8832035 58.8840666,27 58.8291402,27.3541579 Z" id="Path-4" fill="#030303"></path>
                        <circle id="Oval-Copy-3" stroke="#A7ADAD" cx="60" cy="60.7109603" r="60"></circle>
                    </g>
                </g>
            </g>
        </g>
    </g>
</svg>