<?xml version="1.0" encoding="UTF-8"?>
<svg width="82px" height="81px" viewBox="0 0 82 81" version="1.1" xmlns="http://www.w3.org/2000/svg" xmlns:xlink="http://www.w3.org/1999/xlink">
    <!-- Generator: Sketch 52.6 (67491) - http://www.bohemiancoding.com/sketch -->
    <title>4</title>
    <desc>Created with Sketch.</desc>
    <g id="Page-1" stroke="none" stroke-width="1" fill="none" fill-rule="evenodd">
        <g id="Quiz_page_q5_320" transform="translate(-19.000000, -438.000000)">
            <g id="4" transform="translate(20.000000, 439.000000)">
                <rect id="Rectangle" stroke="#A7ADAD" x="0" y="0" width="80" height="79" rx="10"></rect>
                <g id="Group-21" transform="translate(0.000000, 17.000000)">
                    <g id="Group-3" transform="translate(0.000000, 0.215190)">
                        <path d="M0,17.9538828 C22.9009217,18.7264085 34.9010456,19.628551 36.0003716,20.6603104 C37.6493607,22.2079496 32.3735706,43.2262435 38.7460701,47.7704089 C39.8151408,48.5327525 43.324947,49.5656264 44.8417243,46.1141621 C46.3585016,42.6626979 41.0875202,21.6651343 42.6641441,20.6603104 C45.7315295,18.7053851 58.1768148,17.8032425 80,17.9538828" id="Path-3" stroke="#A7ADAD" stroke-width="0.5"></path>
                        <path d="M39.2194268,0.235947987 C38.774274,3.10431897 38.6546805,11.5250646 37.4380145,20.6244846 C36.4461962,28.0422732 35.5103067,45.189655 38.9116319,46.9172171 C38.9116319,46.9172171 41.4318979,48.5162539 43.3077313,46.4084039 C45.0529521,44.4473216 42.1386894,31.2705001 41.2630428,21.7559629 C40.0883327,8.99188164 39.0806061,2.29225803 39.3086035,0.283115517 C39.3495616,-0.0778124883 39.2560444,-1.59847829e-12 39.2194268,0.235947987 Z" id="Path-4" fill="#030303"></path>
                    </g>
                </g>
            </g>
        </g>
    </g>
</svg>