<?xml version="1.0" encoding="UTF-8"?>
<svg width="82px" height="81px" viewBox="0 0 82 81" version="1.1" xmlns="http://www.w3.org/2000/svg" xmlns:xlink="http://www.w3.org/1999/xlink">
    <!-- Generator: Sketch 52.6 (67491) - http://www.bohemiancoding.com/sketch -->
    <title>5</title>
    <desc>Created with Sketch.</desc>
    <g id="Page-1" stroke="none" stroke-width="1" fill="none" fill-rule="evenodd">
        <g id="Quiz_page_q5_320" transform="translate(-119.000000, -438.000000)">
            <g id="5" transform="translate(120.000000, 439.000000)">
                <rect id="Rectangle" stroke="#A7ADAD" x="0" y="0" width="80" height="79" rx="10"></rect>
                <g id="Group-20" transform="translate(0.000000, 16.000000)">
                    <g id="Group-3" transform="translate(0.000000, 0.859360)">
                        <path d="M0,18.6325188 C23.0738834,19.3026107 34.6108251,20.4081849 34.6108251,21.9492413 C34.6108251,38.3340471 33.1179386,46.1540628 38.6368165,48.6666667 C40.0951722,49.3306186 44.0003163,49.8549181 45.7475307,46.3096766 C47.4947452,42.7644351 41.2384469,22.3462444 42.8150709,21.3407506 C45.8824563,19.384522 58.2774326,18.481778 80,18.6325188" id="Path-3" stroke="#A7ADAD" stroke-width="0.5"></path>
                        <path d="M40.4731546,0.474215949 C40.4731546,0.474215949 40.3313943,0.546501179 40.2524029,0.813915515 C39.5952562,3.03859356 36.2591919,12.5372166 35.8076259,21.0772139 C35.3017801,30.6437497 34.3141752,45.7975916 38.5341746,47.5263055 C38.5341746,47.5263055 41.9732601,48.7543082 44.300593,46.6450529 C46.4658758,44.6826633 42.5379613,31.8691573 41.4515531,22.3482771 C39.9940987,9.57568646 40.1902799,2.82439745 40.4731546,0.813915515 C40.523971,0.452746891 40.4731546,0.474215949 40.4731546,0.474215949 Z" id="Path-4" fill="#030303"></path>
                    </g>
                </g>
            </g>
        </g>
    </g>
</svg>