<?xml version="1.0" encoding="UTF-8"?>
<svg width="82px" height="81px" viewBox="0 0 82 81" version="1.1" xmlns="http://www.w3.org/2000/svg" xmlns:xlink="http://www.w3.org/1999/xlink">
    <!-- Generator: Sketch 52.6 (67491) - http://www.bohemiancoding.com/sketch -->
    <title>2</title>
    <desc>Created with Sketch.</desc>
    <g id="Page-1" stroke="none" stroke-width="1" fill="none" fill-rule="evenodd">
        <g id="Quiz_page_q5_320" transform="translate(-119.000000, -290.000000)">
            <g id="2" transform="translate(120.000000, 291.000000)">
                <rect id="Rectangle" stroke="#A7ADAD" x="0" y="2.84217094e-14" width="80" height="78.8732394" rx="10"></rect>
                <g id="Group-27" transform="translate(0.000000, 18.000000)">
                    <g id="Group-3" transform="translate(0.000000, 0.227848)">
                        <path d="M0,17.8142415 C23.3763943,19.1854695 35.7376221,20.1896111 37.0836833,20.8266663 C39.1027752,21.7822491 33.7373898,47.1790119 40,47.1790119 C46.2626102,47.1790119 40.2465249,21.8268911 42.144728,20.8266663 C43.4101967,20.1598497 56.0286207,19.1557081 80,17.8142415" id="Path-3" stroke="#A7ADAD" stroke-width="0.5"></path>
                        <path d="M39.5395472,0.108398428 C39.5395472,0.108398428 39.1656864,9.56862516 38.582939,22.2843198 C38.0889814,33.0626001 36.6516788,46.2988771 40.2645281,46.2988771 C42.832609,46.2988771 41.7584058,32.8626409 40.9946902,22.2270618 C40.131624,10.2079158 39.675719,2.04868419 39.5786982,0.366815077 C39.5662783,0.151514907 39.5395472,0.108398428 39.5395472,0.108398428 Z" id="Path-4" fill="#030303"></path>
                    </g>
                </g>
            </g>
        </g>
    </g>
</svg>