<?xml version="1.0" encoding="UTF-8"?>
<svg width="82px" height="81px" viewBox="0 0 82 81" version="1.1" xmlns="http://www.w3.org/2000/svg" xmlns:xlink="http://www.w3.org/1999/xlink">
    <!-- Generator: Sketch 52.6 (67491) - http://www.bohemiancoding.com/sketch -->
    <title>3</title>
    <desc>Created with Sketch.</desc>
    <g id="Page-1" stroke="none" stroke-width="1" fill="none" fill-rule="evenodd">
        <g id="Quiz_page_q5_320" transform="translate(-219.000000, -290.000000)">
            <g id="3" transform="translate(220.000000, 291.000000)">
                <rect id="Rectangle" stroke="#A7ADAD" x="0" y="0" width="80" height="79" rx="10"></rect>
                <g id="Group-22" transform="translate(0.000000, 17.000000)">
                    <g id="Group-3" transform="translate(0.000000, 0.435897)">
                        <path d="M0,18.4816482 C20.8085273,19.3857566 32.6164151,20.3902442 35.4236634,21.4951109 C39.6345358,23.1524109 32.5183187,48.0764616 40,48.0764616 C47.4816813,48.0764616 39.1074493,22.9532666 43.4752142,21.4951109 C46.3870574,20.523007 58.5619861,19.5185195 80,18.4816482" id="Path-3" stroke="#A7ADAD" stroke-width="0.5"></path>
                        <path d="M39.3333333,0.661268556 C39.3333333,0.661268556 38.8284048,10.2331907 38.0302979,22.9532666 C37.3537937,33.7352608 35.3853231,46.9760984 40.3333333,46.9760984 C43.8504715,46.9760984 42.3792868,33.5352326 41.3333333,22.8959889 C40.1843587,11.2088337 39.5260653,2.92716194 39.3671977,0.922850813 C39.3417066,0.601249066 39.3333333,0.661268556 39.3333333,0.661268556 Z" id="Path-4" fill="#030303"></path>
                    </g>
                </g>
            </g>
        </g>
    </g>
</svg>