<?xml version="1.0" encoding="UTF-8"?>
<svg width="160px" height="127px" viewBox="0 0 160 127" version="1.1" xmlns="http://www.w3.org/2000/svg" xmlns:xlink="http://www.w3.org/1999/xlink">
    <title>calendar</title>
    <defs>
        <path d="M13.3543169,0.8 C5.97857923,0.8 0,6.77857923 0,14.1543169 L0,14.1543169 L0,111.67388 C0,119.049617 5.97857923,125.027322 13.3543169,125.027322 L13.3543169,125.027322 L146.325683,125.027322 C153.654208,125.027322 159.603934,119.124809 159.679126,111.81377 L159.679126,111.81377 L159.679126,14.0144262 C159.603934,6.70338798 153.654208,0.8 146.325683,0.8 L146.325683,0.8 L13.3543169,0.8 Z" id="path-1"></path>
    </defs>
    <g id="Page-1" stroke="none" stroke-width="1" fill="none" fill-rule="evenodd">
        <g id="Quiz_page_q10_1920" transform="translate(-500.000000, -741.000000)">
            <g id="calendar" transform="translate(500.000000, 365.000000)">
                <g transform="translate(0.000000, 376.000000)">
                    <g id="Group-3" transform="translate(0.000000, 0.257049)">
                        <mask id="mask-2" fill="white">
                            <use xlink:href="#path-1"></use>
                        </mask>
                        <g id="Clip-2"></g>
                        <path d="M13.3543169,14 C5.97857923,14 0,19.3438404 0,25.9365046 L0,25.9365046 L0,113.102528 C0,119.695192 5.97857923,125.038251 13.3543169,125.038251 L13.3543169,125.038251 L146.325683,125.038251 C153.654208,125.038251 159.603934,119.762401 159.679126,113.227567 L159.679126,113.227567 L159.679126,25.8114659 C159.603934,19.2766321 153.654208,14 146.325683,14 L146.325683,14 L13.3543169,14 Z" id="Fill-1" fill="#6BD6CD" mask="url(#mask-2)"></path>
                    </g>
                    <g id="Group-18" transform="translate(10.122480, 36.104044)">
                        <g id="Group-2" transform="translate(0.573115, 0.515934)" fill="#FFFFFF">
                            <path d="M15.3628446,14.4262295 L1.18887954,14.4262295 C0.532194769,14.4262295 -1.25447545e-12,13.8273224 -1.25447545e-12,13.0902732 L-1.25447545e-12,1.33595628 C-1.25447545e-12,0.598032787 0.532194769,1.2753017e-12 1.18887954,1.2753017e-12 L15.3628446,1.2753017e-12 C16.0195294,1.2753017e-12 16.5517241,0.598032787 16.5517241,1.33595628 L16.5517241,13.0902732 C16.5517241,13.8273224 16.0195294,14.4262295 15.3628446,14.4262295" id="Fill-4"></path>
                            <path d="M15.3628446,34.3579755 L1.18887954,34.3579755 C0.532194769,34.3579755 0,33.7590684 0,33.0220192 L0,21.2677023 C0,20.5297788 0.532194769,19.931746 1.18887954,19.931746 L15.3628446,19.931746 C16.0195294,19.931746 16.5517241,20.5297788 16.5517241,21.2677023 L16.5517241,33.0220192 C16.5517241,33.7590684 16.0195294,34.3579755 15.3628446,34.3579755" id="Fill-19"></path>
                            <path d="M15.3628446,53.6683203 L1.18887954,53.6683203 C0.532194769,53.6683203 0,53.0694132 0,52.332364 L0,40.5780471 C0,39.8401236 0.532194769,39.2420908 1.18887954,39.2420908 L15.3628446,39.2420908 C16.0195294,39.2420908 16.5517241,39.8401236 16.5517241,40.5780471 L16.5517241,52.332364 C16.5517241,53.0694132 16.0195294,53.6683203 15.3628446,53.6683203" id="Fill-33"></path>
                            <path d="M15.3628446,72.9786652 L1.18887954,72.9786652 C0.532194769,72.9786652 0,72.3797581 0,71.6427089 L0,59.8883919 C0,59.1504684 0.532194769,58.5524357 1.18887954,58.5524357 L15.3628446,58.5524357 C16.0195294,58.5524357 16.5517241,59.1504684 16.5517241,59.8883919 L16.5517241,71.6427089 C16.5517241,72.3797581 16.0195294,72.9786652 15.3628446,72.9786652" id="Fill-47"></path>
                        </g>
                        <g id="Group" transform="translate(20.222348, 0.515934)">
                            <path d="M15.3628446,14.4262295 L1.18887954,14.4262295 C0.532194769,14.4262295 0,13.8273224 0,13.0902732 L0,1.33595628 C0,0.598032787 0.532194769,1.2753017e-12 1.18887954,1.2753017e-12 L15.3628446,1.2753017e-12 C16.0195294,1.2753017e-12 16.5517241,0.598032787 16.5517241,1.33595628 L16.5517241,13.0902732 C16.5517241,13.8273224 16.0195294,14.4262295 15.3628446,14.4262295" id="Fill-6" fill="#28A196"></path>
                            <path d="M15.3628446,34.3579755 L1.18887954,34.3579755 C0.532194769,34.3579755 0,33.7590684 0,33.0220192 L0,21.2677023 C0,20.5297788 0.532194769,19.931746 1.18887954,19.931746 L15.3628446,19.931746 C16.0195294,19.931746 16.5517241,20.5297788 16.5517241,21.2677023 L16.5517241,33.0220192 C16.5517241,33.7590684 16.0195294,34.3579755 15.3628446,34.3579755" id="Fill-21" fill="#FFFFFF"></path>
                            <path d="M15.3628446,53.6683203 L1.18887954,53.6683203 C0.532194769,53.6683203 0,53.0694132 0,52.332364 L0,40.5780471 C0,39.8401236 0.532194769,39.2420908 1.18887954,39.2420908 L15.3628446,39.2420908 C16.0195294,39.2420908 16.5517241,39.8401236 16.5517241,40.5780471 L16.5517241,52.332364 C16.5517241,53.0694132 16.0195294,53.6683203 15.3628446,53.6683203" id="Fill-35" fill="#FFFFFF"></path>
                            <path d="M15.3628446,72.9786652 L1.18887954,72.9786652 C0.532194769,72.9786652 1.25447545e-12,72.3797581 1.25447545e-12,71.6427089 L1.25447545e-12,59.8883919 C1.25447545e-12,59.1504684 0.532194769,58.5524357 1.18887954,58.5524357 L15.3628446,58.5524357 C16.0195294,58.5524357 16.5517241,59.1504684 16.5517241,59.8883919 L16.5517241,71.6427089 C16.5517241,72.3797581 16.0195294,72.9786652 15.3628446,72.9786652" id="Fill-49" fill="#FFFFFF"></path>
                        </g>
                        <g id="Group-4" transform="translate(40.912003, 0.515934)" fill="#FFFFFF">
                            <path d="M15.3635668,14.4262295 L1.18893543,14.4262295 C0.531441688,14.4262295 0,13.8273224 0,13.0902732 L0,1.33595628 C0,0.598032787 0.531441688,1.2753017e-12 1.18893543,1.2753017e-12 L15.3635668,1.2753017e-12 C16.0202824,1.2753017e-12 16.5517241,0.598032787 16.5517241,1.33595628 L16.5517241,13.0902732 C16.5517241,13.8273224 16.0202824,14.4262295 15.3635668,14.4262295" id="Fill-8"></path>
                            <path d="M15.3635668,34.3579755 L1.18893543,34.3579755 C0.531441688,34.3579755 0,33.7590684 0,33.0220192 L0,21.2677023 C0,20.5297788 0.531441688,19.931746 1.18893543,19.931746 L15.3635668,19.931746 C16.0202824,19.931746 16.5517241,20.5297788 16.5517241,21.2677023 L16.5517241,33.0220192 C16.5517241,33.7590684 16.0202824,34.3579755 15.3635668,34.3579755" id="Fill-23"></path>
                            <path d="M15.3635668,53.6683203 L1.18893543,53.6683203 C0.531441688,53.6683203 0,53.0694132 0,52.332364 L0,40.5780471 C0,39.8401236 0.531441688,39.2420908 1.18893543,39.2420908 L15.3635668,39.2420908 C16.0202824,39.2420908 16.5517241,39.8401236 16.5517241,40.5780471 L16.5517241,52.332364 C16.5517241,53.0694132 16.0202824,53.6683203 15.3635668,53.6683203" id="Fill-37"></path>
                            <path d="M15.3635668,72.9786652 L1.18893543,72.9786652 C0.531441688,72.9786652 0,72.3797581 0,71.6427089 L0,59.8883919 C0,59.1504684 0.531441688,58.5524357 1.18893543,58.5524357 L15.3635668,58.5524357 C16.0202824,58.5524357 16.5517241,59.1504684 16.5517241,59.8883919 L16.5517241,71.6427089 C16.5517241,72.3797581 16.0202824,72.9786652 15.3635668,72.9786652" id="Fill-51"></path>
                        </g>
                        <g id="Group-5" transform="translate(61.601658, 0.515934)" fill="#FFFFFF">
                            <path d="M15.3628446,14.4262295 L1.18887954,14.4262295 C0.532194769,14.4262295 -1.25447545e-12,13.8273224 -1.25447545e-12,13.0902732 L-1.25447545e-12,1.33595628 C-1.25447545e-12,0.598032787 0.532194769,1.2753017e-12 1.18887954,1.2753017e-12 L15.3628446,1.2753017e-12 C16.0203074,1.2753017e-12 16.5517241,0.598032787 16.5517241,1.33595628 L16.5517241,13.0902732 C16.5517241,13.8273224 16.0203074,14.4262295 15.3628446,14.4262295" id="Fill-10"></path>
                            <path d="M15.3628446,34.3579755 L1.18887954,34.3579755 C0.532194769,34.3579755 0,33.7590684 0,33.0220192 L0,21.2677023 C0,20.5297788 0.532194769,19.931746 1.18887954,19.931746 L15.3628446,19.931746 C16.0203074,19.931746 16.5517241,20.5297788 16.5517241,21.2677023 L16.5517241,33.0220192 C16.5517241,33.7590684 16.0203074,34.3579755 15.3628446,34.3579755" id="Fill-25"></path>
                            <path d="M15.3628446,53.6683203 L1.18887954,53.6683203 C0.532194769,53.6683203 0,53.0694132 0,52.332364 L0,40.5780471 C0,39.8401236 0.532194769,39.2420908 1.18887954,39.2420908 L15.3628446,39.2420908 C16.0203074,39.2420908 16.5517241,39.8401236 16.5517241,40.5780471 L16.5517241,52.332364 C16.5517241,53.0694132 16.0203074,53.6683203 15.3628446,53.6683203" id="Fill-39"></path>
                            <path d="M15.3628446,72.9786652 L1.18887954,72.9786652 C0.532194769,72.9786652 0,72.3797581 0,71.6427089 L0,59.8883919 C0,59.1504684 0.532194769,58.5524357 1.18887954,58.5524357 L15.3628446,58.5524357 C16.0203074,58.5524357 16.5517241,59.1504684 16.5517241,59.8883919 L16.5517241,71.6427089 C16.5517241,72.3797581 16.0203074,72.9786652 15.3628446,72.9786652" id="Fill-53"></path>
                        </g>
                        <g id="Group-7" transform="translate(82.291313, 0.515934)" fill="#FFFFFF">
                            <path d="M15.3628446,14.4262295 L1.18887954,14.4262295 C0.532194769,14.4262295 0,13.8273224 0,13.0902732 L0,1.33595628 C0,0.598032787 0.532194769,1.2753017e-12 1.18887954,1.2753017e-12 L15.3628446,1.2753017e-12 C16.0195294,1.2753017e-12 16.5517241,0.598032787 16.5517241,1.33595628 L16.5517241,13.0902732 C16.5517241,13.8273224 16.0195294,14.4262295 15.3628446,14.4262295" id="Fill-12"></path>
                            <path d="M15.3628446,34.3579755 L1.18887954,34.3579755 C0.532194769,34.3579755 0,33.7590684 0,33.0220192 L0,21.2677023 C0,20.5297788 0.532194769,19.931746 1.18887954,19.931746 L15.3628446,19.931746 C16.0195294,19.931746 16.5517241,20.5297788 16.5517241,21.2677023 L16.5517241,33.0220192 C16.5517241,33.7590684 16.0195294,34.3579755 15.3628446,34.3579755" id="Fill-27"></path>
                            <path d="M15.3628446,53.6683203 L1.18887954,53.6683203 C0.532194769,53.6683203 0,53.0694132 0,52.332364 L0,40.5780471 C0,39.8401236 0.532194769,39.2420908 1.18887954,39.2420908 L15.3628446,39.2420908 C16.0195294,39.2420908 16.5517241,39.8401236 16.5517241,40.5780471 L16.5517241,52.332364 C16.5517241,53.0694132 16.0195294,53.6683203 15.3628446,53.6683203" id="Fill-41"></path>
                            <path d="M15.3628446,72.9786652 L1.18887954,72.9786652 C0.532194769,72.9786652 0,72.3797581 0,71.6427089 L0,59.8883919 C0,59.1504684 0.532194769,58.5524357 1.18887954,58.5524357 L15.3628446,58.5524357 C16.0195294,58.5524357 16.5517241,59.1504684 16.5517241,59.8883919 L16.5517241,71.6427089 C16.5517241,72.3797581 16.0195294,72.9786652 15.3628446,72.9786652" id="Fill-55"></path>
                        </g>
                        <g id="Group-8" transform="translate(101.601658, 0.515934)" fill="#FFFFFF">
                            <path d="M15.3628446,14.4262295 L1.18887954,14.4262295 C0.531416706,14.4262295 -1.25447545e-12,13.8273224 -1.25447545e-12,13.0902732 L-1.25447545e-12,1.33595628 C-1.25447545e-12,0.598032787 0.531416706,1.2753017e-12 1.18887954,1.2753017e-12 L15.3628446,1.2753017e-12 C16.0195294,1.2753017e-12 16.5517241,0.598032787 16.5517241,1.33595628 L16.5517241,13.0902732 C16.5517241,13.8273224 16.0195294,14.4262295 15.3628446,14.4262295" id="Fill-14"></path>
                            <path d="M15.3628446,34.3579755 L1.18887954,34.3579755 C0.531416706,34.3579755 0,33.7590684 0,33.0220192 L0,21.2677023 C0,20.5297788 0.531416706,19.931746 1.18887954,19.931746 L15.3628446,19.931746 C16.0195294,19.931746 16.5517241,20.5297788 16.5517241,21.2677023 L16.5517241,33.0220192 C16.5517241,33.7590684 16.0195294,34.3579755 15.3628446,34.3579755" id="Fill-29"></path>
                            <path d="M15.3628446,53.6683203 L1.18887954,53.6683203 C0.531416706,53.6683203 0,53.0694132 0,52.332364 L0,40.5780471 C0,39.8401236 0.531416706,39.2420908 1.18887954,39.2420908 L15.3628446,39.2420908 C16.0195294,39.2420908 16.5517241,39.8401236 16.5517241,40.5780471 L16.5517241,52.332364 C16.5517241,53.0694132 16.0195294,53.6683203 15.3628446,53.6683203" id="Fill-43"></path>
                            <path d="M15.3628446,72.9786652 L1.18887954,72.9786652 C0.531416706,72.9786652 0,72.3797581 0,71.6427089 L0,59.8883919 C0,59.1504684 0.531416706,58.5524357 1.18887954,58.5524357 L15.3628446,58.5524357 C16.0195294,58.5524357 16.5517241,59.1504684 16.5517241,59.8883919 L16.5517241,71.6427089 C16.5517241,72.3797581 16.0195294,72.9786652 15.3628446,72.9786652" id="Fill-57"></path>
                        </g>
                        <g id="Group-10" transform="translate(122.291313, 0.515934)" fill="#FFFFFF">
                            <path d="M15.3628446,14.4262295 L1.18887954,14.4262295 C0.532194769,14.4262295 0,13.8273224 0,13.0902732 L0,1.33595628 C0,0.598032787 0.532194769,1.27407663e-12 1.18887954,1.27407663e-12 L15.3628446,1.27407663e-12 C16.0203074,1.27407663e-12 16.5517241,0.598032787 16.5517241,1.33595628 L16.5517241,13.0902732 C16.5517241,13.8273224 16.0203074,14.4262295 15.3628446,14.4262295" id="Fill-16"></path>
                            <path d="M15.3628446,34.3579755 L1.18887954,34.3579755 C0.532194769,34.3579755 0,33.7590684 0,33.0220192 L0,21.2677023 C0,20.5297788 0.532194769,19.931746 1.18887954,19.931746 L15.3628446,19.931746 C16.0203074,19.931746 16.5517241,20.5297788 16.5517241,21.2677023 L16.5517241,33.0220192 C16.5517241,33.7590684 16.0203074,34.3579755 15.3628446,34.3579755" id="Fill-31"></path>
                            <path d="M15.3628446,53.6683203 L1.18887954,53.6683203 C0.532194769,53.6683203 0,53.0694132 0,52.332364 L0,40.5780471 C0,39.8401236 0.532194769,39.2420908 1.18887954,39.2420908 L15.3628446,39.2420908 C16.0203074,39.2420908 16.5517241,39.8401236 16.5517241,40.5780471 L16.5517241,52.332364 C16.5517241,53.0694132 16.0203074,53.6683203 15.3628446,53.6683203" id="Fill-45"></path>
                            <path d="M15.3628446,72.9786652 L1.18887954,72.9786652 C0.532194769,72.9786652 0,72.3797581 0,71.6427089 L0,59.8883919 C0,59.1504684 0.532194769,58.5524357 1.18887954,58.5524357 L15.3628446,58.5524357 C16.0203074,58.5524357 16.5517241,59.1504684 16.5517241,59.8883919 L16.5517241,71.6427089 C16.5517241,72.3797581 16.0203074,72.9786652 15.3628446,72.9786652" id="Fill-59"></path>
                        </g>
                    </g>
                    <text id="2" font-family="LucidaGrande, Lucida Grande" font-size="5.01665574" font-weight="normal" fill="#FFFFFF">
                        <tspan x="53.4340546" y="43.0526301">2</tspan>
                    </text>
                    <g id="Group-23" transform="translate(48.776131, 8.114361)">
                        <path d="M7.41245902,17.6953005 C7.41245902,19.7420765 5.75387978,21.4015301 3.70710383,21.4015301 C1.65945355,21.4015301 0,19.7420765 0,17.6953005 C0,15.6485246 1.65945355,13.989071 3.70710383,13.989071 C5.75387978,13.989071 7.41245902,15.6485246 7.41245902,17.6953005" id="Fill-70" fill="#FFFFFF"></path>
                        <g id="Group-75" transform="translate(1.934251, 0.011541)" fill="#595A5A">
                            <path d="M0,2.10098361 L0,16.0017486 C0,17.1628415 0.941639344,18.1036066 2.10185792,18.1036066 L2.10185792,18.1036066 C3.26295082,18.1036066 4.20371585,17.1628415 4.20371585,16.0017486 L4.20371585,16.0017486 L4.20371585,2.10098361 C4.20371585,0.940765027 3.26295082,0 2.10185792,0 L2.10185792,0 C0.941639344,0 0,0.940765027 0,2.10098361" id="Fill-73"></path>
                        </g>
                        <path d="M62.4953005,17.6953005 C62.4953005,19.7420765 60.8367213,21.4015301 58.789071,21.4015301 C56.7422951,21.4015301 55.0819672,19.7420765 55.0819672,17.6953005 C55.0819672,15.6485246 56.7422951,13.989071 58.789071,13.989071 C60.8367213,13.989071 62.4953005,15.6485246 62.4953005,17.6953005" id="Fill-77" fill="#FFFFFF"></path>
                    </g>
                    <g id="Group-79" transform="translate(103.169399, 4.628634)"></g>
                    <path d="M105.79235,9.96983607 L105.79235,23.8706011 C105.79235,25.031694 106.733115,25.972459 107.893333,25.972459 L107.893333,25.972459 C109.053552,25.972459 109.994317,25.031694 109.994317,23.8706011 L109.994317,23.8706011 L109.994317,9.96983607 C109.994317,8.80961749 109.053552,7.86885246 107.893333,7.86885246 L107.893333,7.86885246 C106.733115,7.86885246 105.79235,8.80961749 105.79235,9.96983607" id="Fill-80" fill="#595A5A"></path>
                </g>
            </g>
        </g>
    </g>
</svg>