<?xml version="1.0" encoding="UTF-8"?>
<svg width="32px" height="32px" viewBox="0 0 32 32" version="1.1" xmlns="http://www.w3.org/2000/svg" xmlns:xlink="http://www.w3.org/1999/xlink">
    <title>btn</title>
    <g id="Page-1" stroke="none" stroke-width="1" fill="none" fill-rule="evenodd">
        <g id="Quiz_page_start-q1_1920" transform="translate(-945.000000, -1060.000000)">
            <g id="q1" transform="translate(405.000000, 673.000000)">
                <g id="add-photo" transform="translate(319.000000, 282.000000)">
                    <g id="Group" transform="translate(221.000000, 105.000000)">
                        <circle id="Oval" fill="#FF6348" cx="16" cy="16" r="16"></circle>
                        <path d="M16.7224432,15.9911222 L19.8305871,12.8828835 C20.0328599,12.6807055 20.0328599,12.3538116 19.8305871,12.1516335 C19.6284091,11.9494555 19.3015152,11.9494555 19.0993371,12.1516335 L15.9910985,15.2598722 L12.8829546,12.1516335 C12.6806818,11.9494555 12.3538826,11.9494555 12.1517045,12.1516335 C11.9494318,12.3538116 11.9494318,12.6807055 12.1517045,12.8828835 L15.2598485,15.9911222 L12.1517045,19.0993608 C11.9494318,19.3015388 11.9494318,19.6284328 12.1517045,19.8306108 C12.2524621,19.9314631 12.3849432,19.982126 12.5173296,19.982126 C12.6497159,19.982126 12.7821023,19.9314631 12.8829546,19.8306108 L15.9910985,16.7223722 L19.0993371,19.8306108 C19.2001894,19.9314631 19.3325758,19.982126 19.4649621,19.982126 C19.5973485,19.982126 19.7297348,19.9314631 19.8305871,19.8306108 C20.0328599,19.6284328 20.0328599,19.3015388 19.8305871,19.0993608 L16.7224432,15.9911222 Z" id="Path" stroke="#FFFFFF" fill="#FFFFFF" fill-rule="nonzero" transform="translate(15.991146, 15.991063) rotate(45.000000) translate(-15.991146, -15.991063) "></path>
                    </g>
                </g>
            </g>
        </g>
    </g>
</svg>