<?xml version="1.0" encoding="UTF-8"?>
<svg width="280px" height="277px" viewBox="0 0 280 277" version="1.1" xmlns="http://www.w3.org/2000/svg" xmlns:xlink="http://www.w3.org/1999/xlink">
    <title>1 - quiz-banner</title>
    <g id="Page-1" stroke="none" stroke-width="1" fill="none" fill-rule="evenodd">
        <g id="Quiz_page_15_Result_320" transform="translate(-20.000000, -97.000000)" fill="#6BD6CD">
            <g id="1---quiz-banner" transform="translate(20.000000, 97.000000)">
                <g id="hair-(1)-copy">
                    <path d="M31.5870622,9.29041148 C31.3440766,9.53324402 31.0211675,9.6670622 30.6775885,9.6670622 C30.3340096,9.6670622 30.0111005,9.53324402 29.7681148,9.29041148 L26.1525742,5.67487081 C25.9702201,5.49236364 25.7275407,5.39192344 25.4695502,5.39192344 C25.2114067,5.39192344 24.9687273,5.49236364 24.7863732,5.67487081 C24.603866,5.85722488 24.5032727,6.09990431 24.5034258,6.35789474 C24.5034258,6.61588517 24.603866,6.85856459 24.7863732,7.04091866 L28.4019139,10.6564593 C28.9033493,11.1580478 28.9033493,11.9739713 28.4019139,12.4755598 C28.1589282,12.7183923 27.8360191,12.8522105 27.4924402,12.8522105 C27.1488612,12.8522105 26.8259522,12.7183923 26.5829665,12.4755598 L22.9674258,8.86001914 C22.7850718,8.67751196 22.5423923,8.57707177 22.2844019,8.57707177 C22.0262584,8.57707177 21.7835789,8.67751196 21.6012249,8.86001914 C21.2245742,9.23666986 21.2245742,9.84956938 21.6012249,10.2262201 L25.2167656,13.8417608 C25.4595981,14.0847464 25.5934163,14.4078086 25.5934163,14.7512344 C25.5934163,15.0948134 25.4595981,15.4178756 25.2166124,15.6607081 C24.973933,15.9035407 24.6508708,16.0373589 24.3072919,16.0373589 C23.9637129,16.0373589 23.6408038,15.9035407 23.3978182,15.6607081 L19.7822775,12.0451675 C19.5999234,11.8626603 19.357244,11.7622201 19.0992536,11.7622201 C18.8412632,11.7622201 18.5985837,11.8626603 18.4162297,12.0451675 C18.2337225,12.2275215 18.1332823,12.470201 18.1332823,12.7281914 C18.1332823,12.9863349 18.2337225,13.2290144 18.4162297,13.4113684 L22.0317703,17.0269091 C22.5332057,17.5284976 22.5332057,18.3444211 22.0317703,18.8458565 C21.7887847,19.088689 21.4657225,19.2225072 21.1222967,19.2225072 C20.7788708,19.2225072 20.4556555,19.088689 20.212823,18.8458565 L16.596823,15.230622 C16.4144689,15.0481148 16.1717895,14.9476746 15.913799,14.9476746 C15.6556555,14.9476746 15.4131292,15.0481148 15.2307751,15.230622 C15.0482679,15.4131292 14.9476746,15.6558086 14.9476746,15.913799 C14.9476746,16.1719426 15.0482679,16.414622 15.2307751,16.5969761 L18.8463158,20.2125167 C19.3477512,20.7141053 19.3477512,21.5300287 18.8463158,22.0314641 C18.6033301,22.2742967 18.2802679,22.4081148 17.9368421,22.4081148 C17.5934163,22.4081148 17.270201,22.2742967 17.0273684,22.0314641 L13.4118278,18.4159234 C13.2294737,18.2334163 12.9867943,18.1329761 12.7288038,18.1329761 C12.4706603,18.1329761 12.228134,18.2334163 12.0457799,18.4159234 C11.6691292,18.7925742 11.6691292,19.4056268 12.0457799,19.7822775 L15.6613206,23.3978182 C15.9041531,23.6408038 16.0379713,23.9637129 16.0379713,24.3072919 C16.0379713,24.6508708 15.9041531,24.973933 15.6613206,25.2167656 C15.4183349,25.4595981 15.0952727,25.5934163 14.7518469,25.5934163 C14.4084211,25.5934163 14.0852057,25.4595981 13.8423732,25.2167656 L10.2268325,21.6012249 C10.0444785,21.4187177 9.80179904,21.3182775 9.54380861,21.3182775 C9.28566507,21.3182775 9.04313876,21.4187177 8.86078469,21.6012249 C8.48413397,21.9778756 8.48413397,22.5909282 8.86078469,22.9675789 L12.4763254,26.5831196 C12.9777608,27.084555 12.9777608,27.9004785 12.4763254,28.402067 C12.2333397,28.6450526 11.9102775,28.7788708 11.5668517,28.7788708 C11.2232727,28.7788708 10.9002105,28.6450526 10.657378,28.402067 L7.04183732,24.7866794 C6.85948325,24.6041722 6.61680383,24.5037321 6.3588134,24.5037321 C6.10082297,24.5037321 5.85814354,24.6041722 5.67578947,24.7866794 C5.29913876,25.1633301 5.29913876,25.7762297 5.67578947,26.1528804 L9.29133014,29.7684211 C9.79261244,30.2698565 9.79276555,31.0857799 9.29133014,31.5873684 C9.0483445,31.8303541 8.72543541,31.9641722 8.38185646,31.9641722 C8.03827751,31.9641722 7.71521531,31.8303541 7.47238278,31.5873684 L0.657301435,24.7730526 C0.233339713,24.3490909 0,23.7854928 0,23.186067 C0,22.5866411 0.233492823,22.02289 0.657301435,21.5989282 L21.5989282,0.657301435 C22.02289,0.233492823 22.586488,0 23.186067,0 C23.7856459,0 24.349244,0.233492823 24.7732057,0.657301435 L31.5870622,7.47115789 C32.0886507,7.97289952 32.0886507,8.78882297 31.5870622,9.29041148 Z" id="Path"></path>
                </g>
                <path d="M279.70243,0.30174494 C279.08319,-0.327940714 278.304687,0.166120338 277.212404,0.535306756 C275.146361,1.23330471 273.239765,2.42823871 271.69897,3.99073413 L265.150448,10.6312147 L262.232742,13.5898935 C262.082848,12.5070217 261.604011,11.4622747 260.784521,10.6312147 C258.774627,8.59309564 255.519658,8.59103315 253.50853,10.6312147 C251.497341,12.6699587 251.496972,15.970324 253.50853,18.0093805 C255.514604,20.0436246 258.778941,20.0428746 260.784521,18.0097555 C260.784521,18.0093805 260.784521,18.0093805 260.784521,18.0093805 L265.877918,12.8445207 L267.332981,14.3203289 L262.239584,19.4853137 C260.459832,21.2900584 260.263033,24.0976127 261.641669,26.1287318 C260.590681,27.6782272 260.424885,29.7012838 261.282958,31.4258412 C261.539973,31.9432772 262.159089,32.1465891 262.664984,31.8878399 C263.172172,31.6283406 263.37575,31.0009675 263.119845,30.4864065 C262.657772,29.5568467 262.692103,28.4832874 263.160092,27.6001024 C265.15994,28.8679737 267.796409,28.6074745 269.515513,26.8635421 L269.515513,26.8631671 C271.526394,24.8247356 271.527441,21.5240577 269.515513,19.4853137 C268.716856,18.6751911 267.700013,18.1703176 266.600519,18.0141305 L269.515513,15.0582017 L276.063972,8.41778366 C277.60409,6.85635073 278.782538,4.9229814 279.471856,2.82655004 C279.837163,1.7156783 280.322903,0.930180599 279.70243,0.30174494 Z M259.329582,16.5335099 C258.125063,17.7542563 256.166879,17.7539438 254.963655,16.5338849 C253.757471,15.3115135 253.756177,13.3304568 254.963655,12.1066478 C256.167188,10.8855264 258.119577,10.8811514 259.329582,12.1066478 C260.532745,13.3270818 260.532745,15.3130759 259.329582,16.5335099 Z M268.060635,20.9610594 C269.26688,22.1828683 269.268113,24.164175 268.060635,25.3872339 C268.060635,25.3876089 268.060635,25.3876089 268.060635,25.3876089 C266.857102,26.6087303 264.905082,26.6129803 263.695263,25.3880464 C263.695263,25.3880464 263.694893,25.3874839 263.69477,25.3872964 C263.69477,25.3872964 263.694338,25.3871089 263.694153,25.3869214 C262.491545,24.1663625 262.49173,22.1810558 263.69477,20.9608094 C264.902001,19.737813 266.854575,19.736563 268.060635,20.9610594 Z" id="Shape" transform="translate(266.000000, 16.000000) scale(-1, 1) translate(-266.000000, -16.000000) "></path>
                <path d="M265.582921,257.598624 C265.097394,257.598624 264.641044,257.787654 264.297604,258.131068 L258.571727,263.85651 C258.228439,264.199924 258.039394,264.656239 258.039394,265.14173 C258.039394,265.627068 258.228439,266.083535 258.571727,266.426645 C258.915015,266.770059 259.371517,266.959089 259.856892,266.959089 C260.342267,266.959089 260.798769,266.770059 261.142209,266.426797 L266.868238,260.701203 C267.57685,259.992646 267.576698,258.839625 266.868086,258.130916 C266.524798,257.787654 266.068448,257.598624 265.582921,257.598624 Z M260.94192,264.916231 L260.487393,265.370723 C260.368861,265.489398 260.213097,265.548812 260.057637,265.548812 C259.902177,265.548812 259.746414,265.489398 259.627881,265.370723 C259.39036,265.133372 259.39036,264.748475 259.627881,264.511276 L260.082408,264.056784 C260.319624,263.819281 260.704855,263.819281 260.94192,264.056784 C261.179289,264.294135 261.179289,264.679032 260.94192,264.916231 Z M263.344481,262.513852 L262.889955,262.968344 C262.771423,263.087019 262.615659,263.146433 262.460199,263.146433 C262.304739,263.146433 262.148975,263.087019 262.030443,262.968344 C261.792922,262.730993 261.792922,262.346096 262.030443,262.108897 L262.484969,261.654405 C262.722186,261.416902 263.107416,261.416902 263.344481,261.654405 C263.582002,261.891604 263.582002,262.276501 263.344481,262.513852 Z M265.812084,260.046437 L265.357557,260.500929 C265.239025,260.619604 265.083261,260.679018 264.927801,260.679018 C264.772341,260.679018 264.616578,260.619604 264.498045,260.500929 C264.260524,260.263578 264.260524,259.878681 264.498045,259.641482 L264.952572,259.18699 C265.189788,258.949487 265.575019,258.949487 265.812084,259.18699 C266.049453,259.424189 266.049453,259.809086 265.812084,260.046437 Z M279.821859,253.749043 C279.584643,253.511541 279.199412,253.511541 278.962347,253.749043 L278.190823,254.52051 L277.336021,253.665773 L278.107698,252.894155 C278.345219,252.656804 278.345219,252.271907 278.107698,252.034708 C277.870481,251.797205 277.485251,251.797205 277.248186,252.034708 L276.476509,252.806326 L275.62186,251.95159 L276.393384,251.180124 C276.630905,250.942773 276.630905,250.557876 276.393384,250.320677 C276.156167,250.083174 275.770937,250.083174 275.533872,250.320677 L274.762347,251.092143 L273.907546,250.237407 L274.679071,249.465941 C274.916592,249.22859 274.916592,248.843692 274.679071,248.606494 C274.441854,248.368991 274.056623,248.368991 273.819559,248.606494 L273.048034,249.37796 L272.193233,248.523223 L272.964757,247.751757 C273.202278,247.514406 273.202278,247.129509 272.964757,246.89231 C272.72754,246.654808 272.34231,246.654808 272.105245,246.89231 L271.33372,247.663776 L270.478919,246.80904 L271.250444,246.037574 C271.487965,245.800223 271.487965,245.415326 271.250444,245.178127 C271.013227,244.940624 270.627996,244.940624 270.390932,245.178127 L269.189651,246.379317 C269.180381,246.388586 269.173998,246.399222 269.165488,246.408947 C269.157738,246.417761 269.148468,246.424751 269.141174,246.43402 L261.630776,256.007675 C260.775822,257.097331 259.846406,258.145655 258.868362,259.123626 L249.448831,268.542745 C247.517056,270.474373 247.517056,273.617371 249.448831,275.548848 C250.38463,276.484575 251.628917,277 252.952377,277 C254.275837,277 255.519972,276.484575 256.455771,275.548848 L265.875301,266.130033 C266.854258,265.151303 267.902814,264.221805 268.991641,263.367981 L278.566023,255.858305 C278.575293,255.851011 278.582284,255.841742 278.590946,255.833992 C278.600519,255.825483 278.611309,255.818949 278.620579,255.809832 L279.821859,254.608642 C280.05938,254.371292 280.05938,253.986394 279.821859,253.749043 Z M267.727751,261.56065 L262.001721,267.286244 C261.428815,267.859259 260.667168,268.174714 259.856892,268.174714 C259.046616,268.174714 258.284969,267.859259 257.712063,267.286244 C257.139156,266.713381 256.823677,265.951792 256.823677,265.14173 C256.823677,264.331515 257.139156,263.569774 257.712215,262.996911 L263.438092,257.271469 C264.01115,256.698454 264.772645,256.382999 265.582921,256.382999 C266.393045,256.382999 267.154844,256.698454 267.727751,257.271317 C268.91034,258.45412 268.91034,260.378303 267.727751,261.56065 Z" id="Shape" transform="translate(264.000000, 261.000000) scale(-1, 1) translate(-264.000000, -261.000000) "></path>
                <path d="M70.9999418,100 C72.7005693,100 74.0840263,101.40425 74.0840263,103.130437 L74.0840263,103.130437 L74.0840263,103.826812 C74.798168,104.375 75.3684099,105.105312 75.7197543,105.930687 L75.7197543,105.930687 L84.6821764,126.711937 C85.7607163,129.206562 83.9620005,132 81.2802441,132 C80.8673251,132 80.4944912,131.749312 80.3338432,131.3635 L80.3338432,131.3635 L72.6477383,112.942625 C69.3996808,114.06075 65.8598214,111.64 65.8598214,108 C65.8598214,106.319187 66.6493303,104.7985 67.9158573,103.826062 L67.9158573,103.826062 L67.9158573,103.130437 C67.9158573,101.40425 69.2993143,100 70.9999418,100 Z M64.2714443,110.589063 C64.98066,112.504688 66.4449028,114.072125 68.5604812,114.848438 L68.5604812,114.848438 L61.6661019,131.36375 C61.5054539,131.749313 61.13262,132 60.7197011,132 C58.0367132,132 56.2398446,129.20575 57.3176456,126.711313 L57.3176456,126.711313 Z M70.1257063,116.448375 C70.8113389,116.742812 72.088703,117.093687 71.6169804,118.222937 L71.6169804,118.222937 L66.5932975,130.25075 C66.1226832,131.378625 64.9878642,130.692937 64.3025395,130.398062 L64.3025395,130.398062 Z" id="Combined-Shape"></path>
            </g>
        </g>
    </g>
</svg>