<?xml version="1.0" encoding="UTF-8"?>
<svg width="110px" height="29px" viewBox="0 0 110 29" version="1.1" xmlns="http://www.w3.org/2000/svg" xmlns:xlink="http://www.w3.org/1999/xlink">
    <title>part</title>
    <g id="Page-1" stroke="none" stroke-width="1" fill="none" fill-rule="evenodd">
        <g id="Home" transform="translate(-583.000000, -744.000000)" fill="#FFFFFF" fill-rule="nonzero">
            <g id="Group-2" transform="translate(405.000000, 402.000000)">
                <g id="copy" transform="translate(0.000000, 139.000000)">
                    <g id="download-apple" transform="translate(160.078571, 196.000000)">
                        <path d="M63.9649062,21.8306055 C66.4820808,21.8306165 68.1413734,23.8221694 68.1413734,26.8983861 C68.1413734,29.983166 66.4917537,31.9650812 64.0023493,31.9650812 C62.7155978,32.0324509 61.5035483,31.3578908 60.8817697,30.2283384 L60.8346646,30.2283384 L60.8346646,35.1451407 L58.7988492,35.1451407 L58.7988492,21.9344702 L60.7694405,21.9344702 L60.7694405,23.5855381 L60.8068836,23.5855381 C61.4562854,22.4630671 62.6696419,21.7887974 63.9649062,21.8306055 Z M74.8810247,21.8306165 C77.3982759,21.8306165 79.0575247,23.8221694 79.0575247,26.8983861 C79.0575247,29.983166 77.4079051,31.9650812 74.9185006,31.9650812 C73.6317492,32.0324509 72.4196996,31.3578908 71.797921,30.2283384 L71.7508159,30.2283384 L71.7508159,35.1451407 L69.7150005,35.1451407 L69.7150005,21.9344702 L71.685548,21.9344702 L71.685548,23.5855381 L71.7229911,23.5855381 C72.3723976,22.4630678 73.5857588,21.7888021 74.8810247,21.8306165 Z M89.4965564,18.018751 C92.3710612,18.018751 94.3416417,19.632343 94.4079722,21.9815289 L92.3528765,21.9815289 C92.2298556,20.6227689 91.1076375,19.8025964 89.467647,19.8025964 C87.8276565,19.8025964 86.7054494,20.6324174 86.7054494,21.8401993 C86.7054494,22.8027868 87.4222133,23.3692018 89.1755956,23.8028064 L90.6743694,24.1711406 C93.4654545,24.8317827 94.6251156,25.9539335 94.6251156,27.9454644 C94.6251156,30.4927311 92.5978557,32.0881224 89.3735026,32.0881224 C86.3566856,32.0881224 84.3198076,30.5302071 84.1882201,28.0675189 L86.2722032,28.0676175 C86.423049,29.4178145 87.7335559,30.3043318 89.5243703,30.3043318 C91.2403204,30.3043318 92.4748567,29.4177706 92.4748567,28.2003402 C92.4748567,27.1435256 91.7302789,26.5107438 89.9672675,26.0770844 L88.2042561,25.651999 C85.7062961,25.0481081 84.5466349,23.8788657 84.5466349,21.9815289 C84.5466349,19.632343 86.5920795,18.018751 89.4965564,18.018751 Z M123.186444,21.8124048 C125.930456,21.8124048 127.656036,23.6990295 127.656036,26.7088575 L127.656036,27.4069755 L120.65104,27.4069755 L120.65104,27.5301044 C120.585638,28.2691319 120.840602,29.0006667 121.351076,29.5386299 C121.861551,30.0765931 122.578336,30.3691344 123.319105,30.3418406 C124.307043,30.4344884 125.238475,29.8666898 125.609528,28.9456046 L127.542633,28.9456156 C127.268766,30.7476508 125.515373,31.9843455 123.272021,31.9843455 C120.386792,31.9843455 118.595967,30.0495328 118.595967,26.9454887 C118.595967,23.831807 120.396421,21.8124048 123.186444,21.8124048 Z M106.700994,21.8124158 C109.576594,21.8124158 111.405936,23.7750229 111.405936,26.8983861 C111.405936,30.0302795 109.586223,31.9843564 106.700994,31.9843564 C103.816783,31.9843564 101.997114,30.0302685 101.997114,26.8983861 C101.997114,23.7750668 103.835012,21.8124158 106.700994,21.8124158 Z M99.01877,19.5852843 L99.01877,21.9344702 L100.904813,21.9344702 L100.904813,23.5480622 L99.01877,23.5480622 L99.01877,29.0205675 C99.01877,29.8707272 99.3964103,30.2668998 100.225492,30.2668998 C100.449396,30.262992 100.672938,30.2472546 100.895184,30.2197533 L100.895184,31.8237077 C100.522428,31.8934182 100.143552,31.9249897 99.7644104,31.9179348 C97.7564198,31.9179348 96.9733254,31.1630656 96.9733254,29.2378906 L96.9733254,23.5480622 L95.5312529,23.5480622 L95.5312529,21.9344702 L96.9733035,21.9344702 L96.9733035,19.5852843 L99.01877,19.5852843 Z M117.458806,21.8305946 C117.693416,21.8297747 117.927378,21.855276 118.156312,21.9066209 L118.156312,23.8125208 C117.860132,23.7219375 117.551165,23.6803477 117.241597,23.6893919 C116.643087,23.66509 116.063862,23.9038256 115.656009,24.3429137 C115.248157,24.7820018 115.052424,25.3775747 115.120204,25.9732526 L115.120204,31.8612056 L113.084388,31.8612056 L113.084388,21.9344702 L115.02607,21.9344702 L115.02607,23.6240666 L115.073175,23.6240666 C115.343949,22.5363968 116.33968,21.7878246 117.458806,21.8305946 Z M52.6229689,18.2457775 L57.5343847,31.8612275 L55.3006512,31.8612275 L54.0564967,28.1811198 L48.8712142,28.1811198 L47.6259752,31.8612275 L45.4296957,31.8612275 L50.3411116,18.2457775 L52.6229689,18.2457775 Z M32.7687268,13.7459462 L33.0586002,13.7644985 C34.807088,13.8192523 36.4274154,14.6959944 37.4307835,16.1302405 C35.8474866,17.1044898 34.8731938,18.8226186 34.8492502,20.6826777 C34.8515104,22.7871127 36.1106765,24.686288 38.0471807,25.5060534 C37.6747479,26.7169776 37.1133568,27.8613461 36.383802,28.8967697 C35.4040384,30.3636815 34.3767645,31.7968014 32.7462936,31.8232911 C31.1620186,31.8598899 30.6295888,30.8901207 28.8124723,30.8901207 C26.9783323,30.8901207 26.4108367,31.7968123 24.8913585,31.8598899 C23.3385891,31.9174524 22.1518918,30.2942447 21.1365037,28.8410931 C19.1070309,25.8734885 17.5267215,20.4779087 19.6453543,16.8066054 C20.6402322,15.0172619 22.500405,13.8818146 24.5452896,13.8156908 C26.0994612,13.783686 27.5427387,14.8662228 28.4982815,14.8662228 C29.3370095,14.8662228 30.8529768,13.8295207 32.480478,13.7496944 L32.7687268,13.7459462 Z M106.700983,23.491322 C105.051363,23.491322 104.071435,24.7654926 104.071435,26.8983861 C104.071435,29.0494803 105.051363,30.3043866 106.700983,30.3043866 C108.350602,30.3043866 109.331604,29.0494803 109.331604,26.8983861 C109.331604,24.755855 108.350602,23.491322 106.700983,23.491322 Z M63.4278646,23.5673374 C61.8723894,23.5673374 60.826131,24.9164599 60.826131,26.8983861 C60.826131,28.898513 61.8723894,30.2379979 63.4278646,30.2379979 C65.0111646,30.2379979 66.0488565,28.9263514 66.0488565,26.8983861 C66.0488565,24.8886325 65.0111537,23.5673374 63.4278646,23.5673374 Z M74.3440159,23.5673374 C72.7885407,23.5673374 71.7422823,24.9164599 71.7422823,26.8983861 C71.7422823,28.898513 72.7885407,30.2379979 74.3440159,30.2379979 C75.927316,30.2379979 76.9650188,28.9263514 76.9650188,26.8983861 C76.9650188,24.8886325 75.927305,23.5673374 74.3440159,23.5673374 Z M51.49225,20.5103959 L51.4355486,20.5103959 L49.4082449,26.4829384 L53.5184363,26.4829384 L51.49225,20.5103959 Z M123.186444,23.4634728 C122.51683,23.4594732 121.873363,23.7233533 121.399064,24.1964607 C120.924765,24.6695681 120.658935,25.3127014 120.66065,25.9829121 L125.619147,25.9829121 C125.656092,25.3188355 125.414575,24.6694489 124.952785,24.191196 C124.490995,23.7129432 123.850801,23.4491867 123.186444,23.4634728 Z M120.33651,9.50703346 C121.709053,9.50703346 122.537073,10.4455763 122.537073,11.9959263 L122.537073,12.3359179 L119.053828,12.3359179 L119.053828,12.39052 C119.023004,12.7568808 119.148017,13.1192588 119.398123,13.3885339 C119.648229,13.657809 120.000221,13.8089959 120.367534,13.8049129 C120.843812,13.8621406 121.307436,13.625683 121.541096,13.2063725 L122.478235,13.2064054 C122.205253,14.1376893 121.304825,14.7394023 120.340793,14.6347558 C119.683035,14.6521344 119.050894,14.3792558 118.61209,13.8885212 C118.173286,13.3977866 117.972182,12.738807 118.062135,12.0864255 C117.974571,11.432231 118.174922,10.7721955 118.611282,10.2773151 C119.047642,9.78243459 119.677074,9.50140522 120.33651,9.50703346 Z M98.0680408,9.85864426 C98.8227432,10.3273834 99.2467069,11.1838182 99.1621228,12.0687621 C99.2483162,12.9546569 98.8247395,13.8127527 98.0693679,14.282501 C97.3139963,14.7522493 96.3577251,14.7522493 95.6023536,14.282501 C94.846982,13.8127527 94.4234052,12.9546569 94.5095986,12.0687621 C94.4250145,11.1838182 94.8489783,10.3273834 95.6036807,9.85864426 C96.3583831,9.38990507 97.3133383,9.38990507 98.0680408,9.85864426 Z M56.9340076,9.85864426 C57.68871,10.3273834 58.1126738,11.1838182 58.0280897,12.0687621 C58.1142831,12.9546569 57.6907063,13.8127527 56.9353348,14.282501 C56.1799632,14.7522493 55.223692,14.7522493 54.4683204,14.282501 C53.7129489,13.8127527 53.2893721,12.9546569 53.3755655,12.0687621 C53.2909814,11.1838182 53.7149452,10.3273834 54.4696476,9.85864426 C55.22435,9.38990507 56.1793052,9.38990507 56.9340076,9.85864426 Z M78.3366118,9.85855746 C79.0913702,10.3273039 79.5154008,11.1837603 79.4308817,12.0687621 C79.5169656,12.9546886 79.0933113,13.8127602 78.3379022,14.2824878 C77.5824931,14.7522154 76.6262093,14.7522154 75.8708002,14.2824878 C75.1153912,13.8127602 74.6917368,12.9546886 74.7778207,12.0687621 C74.6933016,11.1837603 75.1173322,10.3273039 75.8720906,9.85855746 C76.626849,9.38981104 77.5818534,9.38981104 78.3366118,9.85855746 Z M82.6616542,9.50704443 C83.8983377,9.50704443 84.5958433,10.1232373 84.5958433,11.1661382 L84.5958433,14.5394761 L83.6587043,14.5394761 L83.6587043,13.8456452 L83.581682,13.8456452 C83.2633926,14.3523337 82.6973705,14.6484647 82.1000194,14.6208202 C81.681262,14.6644162 81.2636208,14.528677 80.9503443,14.24716 C80.6370678,13.965643 80.4573955,13.5646232 80.4557456,13.1432401 C80.4557456,12.25453 81.1168817,11.7421908 82.2904334,11.669377 L83.6266071,11.5922871 L83.6266071,11.1661382 C83.6266071,10.6446878 83.2821376,10.3502419 82.6167291,10.3502419 C82.073279,10.3502419 81.6967123,10.5499344 81.5886555,10.8989934 L80.6461706,10.8989934 C80.7456609,10.0509717 81.5426568,9.50704443 82.6616542,9.50704443 Z M90.4818302,7.675 L90.4818302,14.5394542 L89.5489745,14.5394542 L89.5489745,13.759422 L89.4719522,13.759422 C89.1557831,14.3124902 88.5591047,14.6442909 87.9228964,14.6208202 C86.6680283,14.620875 85.8753047,13.6325653 85.8753047,12.0687621 C85.8753047,10.5087087 86.6765839,9.52042086 87.9228855,9.52042086 C88.5522057,9.49139854 89.1416224,9.82890418 89.4355717,10.3865994 L89.5083217,10.3865994 L89.5083217,7.675 L90.4818302,7.675 Z M110.158517,8.37312896 L110.158517,9.62481182 L111.227243,9.62481182 L111.227243,10.4455325 L110.158517,10.4455325 L110.158517,12.9842361 C110.158517,13.5013995 110.37141,13.7278559 110.856023,13.7278559 C110.98009,13.7274584 111.104034,13.7199502 111.227243,13.7053681 L111.227243,14.5169774 C111.052417,14.5482813 110.875287,14.5649353 110.697695,14.5667663 C109.615067,14.5667663 109.183935,14.1855819 109.183935,13.2337065 L109.183935,10.4454886 L108.400852,10.4454886 L108.400852,9.62476796 L109.183935,9.62476796 L109.183935,8.37312896 L110.158517,8.37312896 Z M102.950258,9.5070225 C103.436444,9.47043662 103.912873,9.6571125 104.245024,10.0143423 C104.577175,10.371572 104.729004,10.8605896 104.657642,11.3433211 L104.657642,14.5394104 L103.684133,14.5394104 L103.684133,11.5880001 C103.684133,10.7945915 103.339663,10.4000197 102.61969,10.4000197 C102.289917,10.3846468 101.969881,10.5141827 101.743486,10.754667 C101.517091,10.9951513 101.406915,11.3225997 101.441844,11.6511653 L101.441844,14.5394652 L100.468335,14.5394652 L100.468335,9.60232407 L101.405474,9.60232407 L101.405474,10.3866323 L101.478224,10.3866323 C101.731206,9.80917403 102.32235,9.45593712 102.950258,9.5070225 Z M69.1924409,9.5070225 C69.6786275,9.47043662 70.1550559,9.6571125 70.4872068,10.0143423 C70.8193577,10.371572 70.9711866,10.8605896 70.8998245,11.3433211 L70.8998245,14.5394104 L69.926316,14.5394104 L69.926316,11.5880001 C69.926316,10.7945915 69.5818465,10.4000197 68.8618728,10.4000197 C68.5320999,10.3846468 68.212064,10.5141827 67.9856688,10.754667 C67.7592735,10.9951513 67.649098,11.3225997 67.6840269,11.6511653 L67.6840269,14.5394652 L66.7105185,14.5394652 L66.7105185,9.60232407 L67.6476574,9.60232407 L67.6476574,10.3866323 L67.7204074,10.3866323 C67.9733889,9.80917403 68.5645334,9.45593712 69.1924409,9.5070225 Z M113.52194,7.675 L113.52194,10.3957327 L113.598962,10.3957327 C113.864095,9.81322053 114.465586,9.45953348 115.103038,9.51130954 C115.586464,9.48498131 116.056443,9.67576693 116.384963,10.0317007 C116.713484,10.3876345 116.866329,10.8716437 116.801866,11.3518951 L116.801866,14.5394652 L115.827382,14.5394652 L115.827382,11.5922652 C115.827382,10.8036699 115.460401,10.4042848 114.772568,10.4042848 C114.433882,10.3764834 114.100203,10.499719 113.860737,10.7410457 C113.621272,10.9823725 113.500438,11.3171826 113.530539,11.6559677 L113.530539,14.5394652 L112.557031,14.5394652 L112.556987,7.675 L113.52194,7.675 Z M59.718373,9.60232407 L60.6020204,13.3696526 L60.6747703,13.3696526 L61.6889316,9.60232407 L62.6228608,9.60232407 L63.6370221,13.3696526 L63.7140443,13.3696526 L64.5934084,9.60232407 L65.5669169,9.60232407 L64.2125584,14.5394652 L63.2026804,14.5394652 L62.1831733,10.9032585 L62.106151,10.9032585 L61.0909162,14.5394652 L60.0906565,14.5394652 L58.7309521,9.60232407 L59.718373,9.60232407 Z M73.4245358,7.675 L73.4245358,14.5394542 L72.4510274,14.5394542 L72.4510274,7.675 L73.4245358,7.675 Z M51.4596832,8.89408803 C52.0554736,9.5237937 52.3377267,10.387723 52.2287542,11.2480853 C52.2287542,13.3381523 51.1001276,14.5395639 49.1530997,14.5395639 L46.792073,14.5395639 L46.792073,7.99735 L49.1530997,7.99735 C50.0173645,7.9352748 50.8638927,8.26438236 51.4596832,8.89408803 Z M83.6266071,12.3086058 L82.4220209,12.3856957 C81.7427,12.4311975 81.4346,12.6624781 81.4346,13.0977274 C81.4346,13.542077 81.8197223,13.8006587 82.3493148,13.8006587 C82.6628221,13.8324221 82.9757863,13.7354816 83.2165634,13.5320289 C83.4573404,13.3285762 83.605313,13.0360325 83.6266071,12.7213673 L83.6266071,12.3086058 Z M55.7034325,10.3727296 C54.8572282,10.3727296 54.381204,10.998571 54.381204,12.068773 C54.381204,13.1475381 54.857261,13.7685553 55.7034325,13.7685553 C56.546438,13.7685553 57.0267673,13.1432401 57.0267673,12.0687621 C57.0267673,10.998571 56.5464161,10.3727296 55.7034325,10.3727296 Z M77.1056877,10.3727296 C76.2594834,10.3727296 75.7834593,10.998571 75.7834593,12.068773 C75.7834593,13.1475381 76.2595163,13.7685553 77.1056877,13.7685553 C77.9486822,13.7685553 78.4290225,13.1432401 78.4290225,12.0687621 C78.4290225,10.998571 77.9486713,10.3727296 77.1056877,10.3727296 Z M96.8374656,10.3727296 C95.9912613,10.3727296 95.5152372,10.998571 95.5152372,12.068773 C95.5152372,13.1475381 95.9912942,13.7685553 96.8374656,13.7685553 C97.6804601,13.7685553 98.1607895,13.1432401 98.1607895,12.0687621 C98.1607895,10.998571 97.6804492,10.3727296 96.8374656,10.3727296 Z M88.1989321,10.3957436 C87.3794353,10.3957436 86.8809103,11.0301482 86.8809103,12.0687621 C86.8809432,13.1159391 87.3741223,13.7460675 88.1989321,13.7460675 C89.0194368,13.7460675 89.5265393,13.1068497 89.5265393,12.0730491 C89.5265393,11.0440728 89.0141128,10.3957436 88.1989321,10.3957436 Z M49.039697,8.92186954 L47.8072969,8.92186954 L47.8072969,13.6143536 L49.039697,13.6143536 C49.6573452,13.6513054 50.2587506,13.4077415 50.6769253,12.9512904 C51.0951,12.4948392 51.285524,11.874096 51.1953237,11.2614179 C51.2789615,10.6512823 51.0857952,10.0356614 50.6686573,9.58293262 C50.2515194,9.13020384 49.6540629,8.88774462 49.039697,8.92186954 Z M33.0777599,7.98558532 C33.1838175,9.3717259 32.7458407,10.7446512 31.8568403,11.8128008 C30.9943421,12.886493 29.687473,13.5049374 28.3110662,13.4907532 C28.2235326,12.1445173 28.6742559,10.818668 29.5639626,9.80522914 C30.4649733,8.77806161 31.719565,8.12836278 33.0777599,7.98558532 Z M120.331131,10.3363172 C119.99098,10.3320399 119.663519,10.465434 119.423029,10.70624 C119.182539,10.9470461 119.049406,11.2748532 119.053828,11.6153011 L121.545347,11.6153011 C121.570162,11.280233 121.452449,10.950257 121.221217,10.7066898 C120.989984,10.4631226 120.666736,10.3286161 120.331131,10.3363172 Z" id="part"></path>
                    </g>
                </g>
            </g>
        </g>
    </g>
</svg>