<?xml version="1.0" encoding="UTF-8"?>
<svg width="32px" height="26px" viewBox="0 0 32 26" version="1.1" xmlns="http://www.w3.org/2000/svg" xmlns:xlink="http://www.w3.org/1999/xlink">
    <title>Combined Shape</title>
    <g id="Page-1" stroke="none" stroke-width="1" fill="none" fill-rule="evenodd">
        <g id="Home" transform="translate(-1314.000000, -1021.000000)" fill="#34CCBF">
            <g id="Footer" transform="translate(0.000000, 988.000000)">
                <g id="mail" transform="translate(1314.000000, 33.000000)">
                    <path d="M31.9766875,8.1523125 L31.9766875,22.320125 C31.9766875,23.1058125 31.697375,23.777375 31.1380625,24.3366875 C30.5789375,24.896 29.90675,25.1755625 29.12175,25.1755625 L29.12175,25.1755625 L2.855125,25.1755625 C2.0699375,25.1755625 1.3976875,24.896 0.838625,24.3366875 C0.2794375,23.7775625 -1.34292577e-12,23.10575 -1.34292577e-12,22.320125 L-1.34292577e-12,22.320125 L-1.34292577e-12,8.1523125 C0.5234375,8.735125 1.1241875,9.2529375 1.8024375,9.7046875 C6.10875,12.631 9.064875,14.683375 10.6709375,15.861 C11.3489375,16.3604375 11.8991875,16.7503125 12.321375,17.0296875 C12.7436875,17.30925 13.305875,17.59475 14.007625,17.8860625 C14.709375,18.1778125 15.36375,18.32325 15.9704375,18.32325 L15.9704375,18.32325 L16.0065625,18.32325 C16.613375,18.32325 17.267375,18.1778125 17.969125,17.8860625 C18.671125,17.59475 19.2329375,17.30925 19.655375,17.0296875 C20.0778125,16.7503125 20.627875,16.3604375 21.3059375,15.861 C23.328,14.397625 26.2905,12.345375 30.192,9.7046875 C30.8704375,9.240875 31.4650625,8.7230625 31.9766875,8.1523125 L31.9766875,8.1523125 Z M29.1215,0.05125 C29.8945,0.05125 30.56375,0.3306875 31.1288125,0.889875 C31.6939375,1.4489375 31.976625,2.121125 31.976625,2.906375 C31.976625,3.8460625 31.6853125,4.74425 31.1020625,5.6004375 C30.51925,6.457 29.79375,7.18875 28.925375,7.7951875 C24.452625,10.9001875 21.6686875,12.833375 20.5744375,13.5945625 C20.4555,13.678 20.2025,13.859125 19.816,14.1389375 C19.42925,14.4186875 19.10825,14.64475 18.8524375,14.8171875 C18.596625,14.9895 18.287375,15.1826875 17.924625,15.397 C17.5620625,15.6106875 17.2196875,15.77175 16.898625,15.87825 C16.577375,15.9855625 16.279875,16.0388125 16.0063125,16.0388125 L16.0063125,16.0388125 L15.970375,16.0388125 C15.6968125,16.0388125 15.3994375,15.985625 15.0781875,15.87825 C14.757,15.77175 14.4149375,15.610875 14.0520625,15.397 C13.6890625,15.1829375 13.3798125,14.9895625 13.124,14.8171875 C12.868375,14.64475 12.547125,14.4186875 12.1605,14.1389375 C11.7739375,13.859375 11.52125,13.678 11.4023125,13.5945625 C10.31975,12.833375 8.761375,11.748 6.727125,10.338375 C4.6929375,8.92875 3.473625,8.081 3.069125,7.7955625 C2.3316875,7.296 1.6355625,6.6089375 0.9814375,5.7345625 C0.32725,4.86025 -1.00541797e-12,4.048125 -1.00541797e-12,3.2986875 C-1.00541797e-12,2.370875 0.2468125,1.597625 0.7404375,0.979 C1.234125,0.3605 1.939,0.05125 2.8549375,0.05125 L2.8549375,0.05125 Z" id="Combined-Shape"></path>
                </g>
            </g>
        </g>
    </g>
</svg>