<svg width="320" height="397" viewBox="0 0 320 397" fill="none" xmlns="http://www.w3.org/2000/svg">
<rect width="320" height="397" fill="#F6FAFA"/>
<path fill-rule="evenodd" clip-rule="evenodd" d="M66.5874 71.2317C66.2675 71.5514 65.8423 71.7276 65.39 71.7276C64.9376 71.7276 64.5125 71.5514 64.1926 71.2317L59.4324 66.4715C59.1923 66.2312 58.8728 66.099 58.5331 66.099C58.1932 66.099 57.8737 66.2312 57.6336 66.4715C57.3933 66.7116 57.2609 67.0311 57.2611 67.3708C57.2611 67.7104 57.3933 68.03 57.6336 68.27L62.3938 73.0302C63.054 73.6906 63.054 74.7649 62.3938 75.4253C62.0739 75.745 61.6488 75.9212 61.1964 75.9212C60.7441 75.9212 60.3189 75.745 59.999 75.4253L55.2388 70.6651C54.9987 70.4248 54.6792 70.2925 54.3395 70.2925C53.9997 70.2925 53.6802 70.4248 53.4401 70.6651C52.9442 71.161 52.9442 71.9679 53.4401 72.4638L58.2003 77.224C58.52 77.5439 58.6962 77.9693 58.6962 78.4214C58.6962 78.8738 58.52 79.2991 58.2001 79.6188C57.8806 79.9385 57.4552 80.1147 57.0029 80.1147C56.5505 80.1147 56.1254 79.9385 55.8055 79.6188L51.0453 74.8586C50.8052 74.6183 50.4857 74.4861 50.146 74.4861C49.8063 74.4861 49.4868 74.6183 49.2467 74.8586C49.0064 75.0987 48.8742 75.4182 48.8742 75.7579C48.8742 76.0978 49.0064 76.4173 49.2467 76.6573L54.0069 81.4176C54.6671 82.0779 54.6671 83.1522 54.0069 83.8124C53.687 84.1321 53.2617 84.3083 52.8095 84.3083C52.3574 84.3083 51.9318 84.1321 51.6121 83.8124L46.8513 79.0526C46.6112 78.8123 46.2917 78.68 45.952 78.68C45.6122 78.68 45.2929 78.8123 45.0528 79.0526C44.8125 79.2929 44.68 79.6124 44.68 79.952C44.68 80.2919 44.8125 80.6114 45.0528 80.8515L49.813 85.6117C50.4732 86.2721 50.4732 87.3463 49.813 88.0065C49.4931 88.3262 49.0677 88.5024 48.6156 88.5024C48.1634 88.5024 47.7379 88.3262 47.4182 88.0065L42.658 83.2463C42.4179 83.006 42.0984 82.8738 41.7587 82.8738C41.4188 82.8738 41.0995 83.006 40.8594 83.2463C40.3635 83.7422 40.3635 84.5494 40.8594 85.0453L45.6196 89.8055C45.9393 90.1254 46.1155 90.5505 46.1155 91.0029C46.1155 91.4552 45.9393 91.8806 45.6196 92.2003C45.2997 92.52 44.8744 92.6962 44.4222 92.6962C43.9701 92.6962 43.5445 92.52 43.2248 92.2003L38.4646 87.4401C38.2245 87.1998 37.905 87.0676 37.5653 87.0676C37.2255 87.0676 36.9062 87.1998 36.6661 87.4401C36.1702 87.936 36.1702 88.7431 36.6661 89.239L41.4263 93.9992C42.0865 94.6594 42.0865 95.7336 41.4263 96.394C41.1064 96.7139 40.681 96.8901 40.2289 96.8901C39.7765 96.8901 39.3512 96.7139 39.0315 96.394L34.2713 91.634C34.0312 91.3937 33.7117 91.2615 33.372 91.2615C33.0323 91.2615 32.7128 91.3937 32.4727 91.634C31.9768 92.1299 31.9768 92.9369 32.4727 93.4328L37.2329 98.193C37.8929 98.8532 37.8931 99.9274 37.2329 100.588C36.913 100.908 36.4879 101.084 36.0355 101.084C35.5832 101.084 35.1578 100.908 34.8381 100.588L25.8654 91.6161C25.3072 91.0579 25 90.3159 25 89.5267C25 88.7375 25.3074 87.9952 25.8654 87.4371L53.4371 59.8654C53.9952 59.3074 54.7373 59 55.5267 59C56.3161 59 57.0581 59.3074 57.6163 59.8654L66.5874 68.8365C67.2478 69.4971 67.2478 70.5713 66.5874 71.2317Z" fill="url(#paint0_linear)"/>
<path fill-rule="evenodd" clip-rule="evenodd" d="M261.363 59.3626C262.117 58.606 263.066 59.1996 264.396 59.6432C266.914 60.4818 269.237 61.9176 271.114 63.795L279.093 71.7737L282.648 75.3286C282.83 74.0275 283.414 72.7722 284.412 71.7737C286.861 69.3248 290.827 69.3223 293.277 71.7737C295.728 74.2233 295.728 78.1887 293.277 80.6387C290.833 83.0829 286.856 83.082 284.412 80.6392C284.412 80.6387 284.412 80.6387 284.412 80.6387L278.206 74.433L276.433 76.2062L282.639 82.4121C284.808 84.5805 285.047 87.9539 283.368 90.3943C284.648 92.2561 284.85 94.6868 283.805 96.7589C283.492 97.3806 282.737 97.6249 282.121 97.314C281.503 97.0022 281.255 96.2484 281.567 95.6302C282.13 94.5133 282.088 93.2234 281.518 92.1622C279.081 93.6856 275.869 93.3726 273.774 91.2772V91.2768C271.324 88.8275 271.323 84.8617 273.774 82.4121C274.747 81.4387 275.986 80.8321 277.326 80.6444L273.774 77.0928L265.796 69.1142C263.919 67.2381 262.483 64.9151 261.643 62.3962C261.198 61.0614 260.607 60.1176 261.363 59.3626ZM286.185 78.8655C287.652 80.3323 290.038 80.3319 291.504 78.866C292.974 77.3973 292.975 75.017 291.504 73.5466C290.038 72.0794 287.659 72.0741 286.185 73.5466C284.719 75.0129 284.719 77.3992 286.185 78.8655ZM275.547 84.1853C274.077 85.6533 274.076 88.0339 275.547 89.5035C275.547 89.5039 275.547 89.5039 275.547 89.5039C277.013 90.9711 279.392 90.9762 280.866 89.5044C280.866 89.5044 280.866 89.5038 280.866 89.5035C280.866 89.5035 280.867 89.5033 280.867 89.5031C282.332 88.0366 282.332 85.6512 280.866 84.185C279.395 82.7155 277.016 82.714 275.547 84.1853Z" fill="url(#paint1_linear)"/>
<defs>
<linearGradient id="paint0_linear" x1="3.95866" y1="80.0419" x2="46.0425" y2="122.125" gradientUnits="userSpaceOnUse">
<stop stop-color="#E3E4FA"/>
<stop offset="1" stop-color="#CEFFCD"/>
</linearGradient>
<linearGradient id="paint1_linear" x1="312.173" y1="78.2244" x2="273.997" y2="112.097" gradientUnits="userSpaceOnUse">
<stop stop-color="#E3E4FA"/>
<stop offset="1" stop-color="#FFDBEA"/>
</linearGradient>
</defs>
</svg>
