<?xml version="1.0" encoding="UTF-8"?>
<svg width="160px" height="60px" viewBox="0 0 160 60" version="1.1" xmlns="http://www.w3.org/2000/svg" xmlns:xlink="http://www.w3.org/1999/xlink">
    <!-- Generator: Sketch 52.6 (67491) - http://www.bohemiancoding.com/sketch -->
    <title>Logo</title>
    <desc>Created with Sketch.</desc>
    <g id="Landing" stroke="none" stroke-width="1" fill="none" fill-rule="evenodd">
        <g id="16_04_Error_404" transform="translate(-405.000000, -60.000000)">
            <g id="header" transform="translate(405.000000, 60.000000)">
                <g id="Logo">
                    <path d="M0.091264,45.8503253 C0.257664,45.2039253 0.380544,44.5408853 0.598144,43.9111253 C2.076544,39.6487253 4.998784,37.0541653 9.532544,36.5972053 C14.013824,36.1453653 18.406784,38.9805653 19.033984,43.7511253 C19.421824,46.7015253 18.259584,49.5610453 15.566464,50.9498453 C13.431424,52.0519253 10.623104,51.8509653 9.140864,50.0576853 C8.279424,49.0132053 8.306304,47.8407253 9.250944,46.8167253 C9.975424,46.0333653 11.333504,45.9476053 12.226944,46.6285653 C13.131904,47.3184853 13.364864,48.6957653 12.754304,49.7466453 C12.722304,49.8029653 12.692864,49.8592853 12.603264,50.0244053 C12.896384,49.9604053 13.108864,49.9335253 13.308544,49.8669653 C15.601024,49.1028053 16.959104,46.3034453 16.183424,43.9597653 C15.398784,41.5917653 13.423744,40.2784853 11.163264,40.1428053 C8.393344,39.9764053 6.020224,41.5751253 4.911744,44.0468053 C2.916224,48.4909653 5.864064,53.6045653 10.209664,54.8768853 C14.616704,56.1684053 19.426944,54.1229653 21.689984,50.5850453 C23.176064,48.2631253 23.743104,45.7095253 23.507584,42.9677653 C23.255424,40.0148053 22.120064,37.4548053 20.130944,35.2608853 C18.638464,33.6173653 17.084544,32.0212053 15.702144,30.2893653 C12.214144,25.9181653 9.636224,21.0759253 8.454784,15.5578453 C7.794304,12.4730453 7.688064,9.36904533 8.185984,6.25736533 C8.485504,4.38344533 9.084544,2.59528533 9.992064,0.921045333 C10.135424,0.656085333 10.386304,0.447445333 10.587264,0.213205333 C10.620544,0.217045333 10.652544,0.219605333 10.685824,0.222165333 C10.634624,0.981205333 10.642304,1.74920533 10.519424,2.49672533 C9.995904,5.69160533 10.090624,8.87496533 10.693504,12.0429653 C11.508864,16.3194453 13.295744,20.1888853 15.720064,23.7792853 C17.913984,27.0266453 20.562304,29.8784853 23.383424,32.5805653 C25.042304,34.1703253 26.169984,36.1044053 26.966144,38.2381653 C27.850624,40.6074453 28.206464,43.0573653 28.004224,45.5853653 C27.990144,45.7453653 28.025984,45.9092053 28.038784,46.0717653 C28.024704,46.2356053 28.009344,46.3994453 27.993984,46.5632853 C27.933824,46.7476053 27.862144,46.9280853 27.818624,47.1149653 C27.665024,47.7844053 27.569024,48.4704853 27.366784,49.1245653 C26.254464,52.7252053 24.147584,55.5911253 20.936064,57.5917653 C18.930304,58.8410453 16.731264,59.5693653 14.367104,59.7524053 C13.669504,59.8061653 12.971904,59.8368853 12.274304,59.8778453 C12.110464,59.8624853 11.946624,59.8471253 11.782784,59.8317653 C11.609984,59.7856853 11.441024,59.7165653 11.264384,59.6973653 C9.510784,59.5040853 7.868544,58.9652053 6.355584,58.0615253 C2.594944,55.8164053 0.511104,52.5037653 0.100224,48.1415253 C0.059264,47.7063253 0.033664,47.2698453 0.000384,46.8333653 C0.031104,46.5056853 0.061824,46.1780053 0.091264,45.8503253" id="Fill-1" fill="#030303"></path>
                    <polygon id="Fill-4" fill="#030303" points="51.725056 18.7197013 51.725056 36.6704213 47.750656 36.6704213 47.750656 29.1312213 40.286976 29.1312213 40.286976 36.6704213 36.312576 36.6704213 36.312576 18.7197013 40.286976 18.7197013 40.286976 25.3872213 47.750656 25.3872213 47.750656 18.7197013"></polygon>
                    <path d="M65.106304,29.4902613 L62.875264,23.1568213 L60.668544,29.4902613 L65.106304,29.4902613 Z M66.336384,33.0294613 L59.412864,33.0294613 L58.155904,36.6710613 L53.693824,36.6710613 L60.772224,18.7190613 L64.977024,18.7190613 L72.055424,36.6710613 L67.618944,36.6710613 L66.336384,33.0294613 Z" id="Fill-6" fill="#030303"></path>
                    <polygon id="Fill-8" fill="#030303" points="74.02624 36.6711893 78.00064 36.6711893 78.00064 18.7204693 74.02624 18.7204693"></polygon>
                    <path d="M85.742464,26.5415253 L88.358784,26.5415253 C89.948544,26.5415253 90.845824,25.9258453 90.845824,24.4384853 C90.845824,23.1047253 89.948544,22.3354453 88.358784,22.3354453 L85.742464,22.3354453 L85.742464,26.5415253 Z M86.537344,29.8746453 L85.742464,29.8746453 L85.742464,36.6714453 L81.768064,36.6714453 L81.768064,18.7194453 L88.948864,18.7194453 C92.974464,18.7194453 95.050624,21.2077653 95.050624,24.3360853 C95.050624,26.9511253 93.641344,29.0285653 90.871424,29.6698453 L96.000384,36.6714453 L91.025024,36.6714453 L86.537344,29.8746453 Z" id="Fill-10" fill="#030303"></path>
                    <path d="M102.201216,22.3359573 L102.201216,33.0559573 L104.278656,33.0559573 C107.176576,33.0559573 109.356416,31.1577173 109.356416,27.6953173 C109.356416,24.2329173 107.176576,22.3359573 104.278656,22.3359573 L102.201216,22.3359573 Z M113.639296,27.6953173 C113.639296,33.2863573 109.612416,36.6706773 103.944576,36.6706773 L98.226816,36.6706773 L98.226816,18.7199573 L103.944576,18.7199573 C109.612416,18.7199573 113.639296,22.1042773 113.639296,27.6953173 Z" id="Fill-11" fill="#030303"></path>
                    <path d="M125.456256,29.4902613 L123.225216,23.1568213 L121.019776,29.4902613 L125.456256,29.4902613 Z M126.687616,33.0294613 L119.764096,33.0294613 L118.505856,36.6710613 L114.045056,36.6710613 L121.122176,18.7190613 L125.328256,18.7190613 L132.406656,36.6710613 L127.970176,36.6710613 L126.687616,33.0294613 Z" id="Fill-12" fill="#030303"></path>
                    <polygon id="Fill-13" fill="#030303" points="140.685056 30.2084693 140.685056 36.6711893 136.710656 36.6711893 136.710656 30.2084693 130.247936 18.7191893 135.017216 18.7191893 138.658816 26.2340693 138.710016 26.2340693 142.377216 18.7191893 147.147776 18.7191893"></polygon>
                    <path d="M159.272576,19.6428373 L157.606016,23.1564373 C155.965056,22.3871573 154.733696,22.0274773 153.553536,22.0274773 C152.297856,22.0274773 151.912576,22.4639573 151.912576,23.0796373 C151.912576,23.6172373 152.246656,23.9769173 153.273216,24.5925973 L156.246656,26.4652373 C158.400896,27.7721173 159.657856,29.2082773 159.657856,31.7221973 C159.657856,35.1833173 157.297536,37.0559573 153.117056,37.0559573 C150.708096,37.0559573 148.451456,36.4402773 146.425216,35.2601173 L148.219776,31.6965973 C149.937536,32.7474773 151.630976,33.3375573 153.273216,33.3375573 C154.708096,33.3375573 155.477376,32.8498773 155.477376,31.9013973 C155.477376,31.0809173 154.784896,30.5932373 153.785216,29.9775573 L151.040896,28.2597973 C148.707456,26.8748373 147.732096,25.1570773 147.732096,23.1308373 C147.732096,20.2073173 149.655936,18.3359573 153.451136,18.3359573 C155.170176,18.3359573 157.143936,18.7199573 159.272576,19.6428373" id="Fill-14" fill="#030303"></path>
                    <path d="M41.970048,53.2034133 C41.620608,53.0907733 41.318528,52.9243733 41.067648,52.7042133 L41.353088,52.1205333 C41.618048,52.3355733 41.893248,52.4904533 42.177408,52.5851733 C42.461568,52.6798933 42.780288,52.7272533 43.133568,52.7272533 C43.538048,52.7272533 43.850368,52.6517333 44.071808,52.5006933 C44.290688,52.3496533 44.400768,52.1358933 44.400768,51.8594133 C44.400768,51.6238933 44.298368,51.4485333 44.093568,51.3333333 C43.888768,51.2181333 43.561088,51.1093333 43.111808,51.0069333 C42.680448,50.9147733 42.327168,50.8098133 42.050688,50.6920533 C41.774208,50.5742933 41.557888,50.4142933 41.401728,50.2120533 C41.246848,50.0098133 41.167488,49.7525333 41.167488,49.4402133 C41.167488,49.1227733 41.250688,48.8437333 41.417088,48.6030933 C41.583488,48.3624533 41.820288,48.1742933 42.127488,48.0386133 C42.434688,47.9029333 42.791808,47.8350933 43.195008,47.8350933 C43.573888,47.8350933 43.931008,47.8926933 44.266368,48.0078933 C44.601728,48.1230933 44.876928,48.2882133 45.091968,48.5032533 L44.816768,49.0869333 C44.564608,48.8821333 44.307328,48.7298133 44.043648,48.6299733 C43.779968,48.5301333 43.499648,48.4802133 43.202688,48.4802133 C42.813568,48.4802133 42.507648,48.5608533 42.284928,48.7221333 C42.062208,48.8834133 41.950848,49.1074133 41.950848,49.3941333 C41.950848,49.6398933 42.049408,49.8254933 42.242688,49.9509333 C42.437248,50.0763733 42.749568,50.1902933 43.179648,50.2926933 C43.630208,50.3950933 43.995008,50.5013333 44.274048,50.6114133 C44.554368,50.7214933 44.775808,50.8725333 44.942208,51.0645333 C45.108608,51.2565333 45.193088,51.5061333 45.193088,51.8133333 C45.193088,52.1256533 45.108608,52.3995733 44.942208,52.6350933 C44.775808,52.8706133 44.537728,53.0523733 44.227968,53.1803733 C43.918208,53.3083733 43.550848,53.3723733 43.125888,53.3723733 C42.706048,53.3723733 42.320768,53.3160533 41.970048,53.2034133 Z M47.533696,53.3109333 L47.533696,48.5570133 L45.705856,48.5570133 L45.705856,47.8965333 L50.169216,47.8965333 L50.169216,48.5570133 L48.332416,48.5570133 L48.332416,53.3109333 L47.533696,53.3109333 Z M55.444992,47.8965333 L53.285632,50.7842133 L53.285632,53.3109333 L52.494592,53.3109333 L52.494592,50.7842133 L50.337792,47.8965333 L51.244032,47.8965333 L52.895232,50.1314133 L54.546432,47.8965333 L55.444992,47.8965333 Z M56.058752,53.3109333 L56.058752,47.8965333 L56.849792,47.8965333 L56.849792,52.6504533 L59.476352,52.6504533 L59.476352,53.3109333 L56.058752,53.3109333 Z M60.45248,53.3109333 L60.45248,47.8965333 L63.96992,47.8965333 L63.96992,48.5339733 L61.22688,48.5339733 L61.22688,50.2389333 L63.81632,50.2389333 L63.81632,50.8840533 L61.22688,50.8840533 L61.22688,52.6734933 L63.96992,52.6734933 L63.96992,53.3109333 L60.45248,53.3109333 Z M65.949952,52.3971413 L65.949952,53.0192213 C65.949952,53.2598613 65.911552,53.4787413 65.830912,53.6758613 C65.752832,53.8729813 65.617152,54.0662613 65.428992,54.2557013 L65.089792,53.9869013 C65.304832,53.7565013 65.428992,53.5312213 65.458432,53.3110613 L65.036032,53.3110613 L65.036032,52.3971413 L65.949952,52.3971413 Z M70.742528,53.3109333 L70.742528,48.5570133 L68.914688,48.5570133 L68.914688,47.8965333 L73.378048,47.8965333 L73.378048,48.5570133 L71.541248,48.5570133 L71.541248,53.3109333 L70.742528,53.3109333 Z M76.503808,50.4383573 C76.903168,50.4383573 77.198848,50.3602773 77.389568,50.2041173 C77.582848,50.0479573 77.678848,49.8060373 77.678848,49.4783573 C77.678848,49.1506773 77.584128,48.9113173 77.393408,48.7602773 C77.205248,48.6092373 76.907008,48.5337173 76.503808,48.5337173 L75.067648,48.5337173 L75.067648,50.4383573 L76.503808,50.4383573 Z M78.683648,53.3106773 L77.809408,53.3106773 L76.887808,51.5749973 C76.785408,51.3906773 76.662528,51.2613973 76.523008,51.1871573 C76.380928,51.1129173 76.196608,51.0757973 75.964928,51.0757973 L75.075328,51.0757973 L75.075328,53.3106773 L74.290688,53.3106773 L74.290688,47.8962773 L76.594688,47.8962773 C77.193728,47.8962773 77.650688,48.0293973 77.966848,48.2956373 C78.281728,48.5618773 78.439168,48.9509973 78.439168,49.4629973 C78.439168,49.8777173 78.322688,50.2181973 78.088448,50.4844373 C77.856768,50.7506773 77.525248,50.9196373 77.095168,50.9913173 C77.361408,51.0732373 77.581568,51.2729173 77.755648,51.5903573 L78.683648,53.3106773 Z M80.818688,51.3445973 L83.022848,51.3445973 L81.924608,48.7794773 L80.818688,51.3445973 Z M83.867648,53.3106773 L83.291648,51.9743573 L80.549888,51.9743573 L79.973888,53.3106773 L79.175168,53.3106773 L81.586688,47.8962773 L82.247168,47.8962773 L84.658688,53.3106773 L83.867648,53.3106773 Z M86.39872,53.0347093 C86.01088,52.8094293 85.7152,52.4881493 85.50784,52.0708693 C85.30048,51.6535893 85.1968,51.1633493 85.1968,50.6001493 C85.1968,50.0369493 85.30048,49.5467093 85.50784,49.1294293 C85.7152,48.7121493 86.01088,48.3921493 86.39872,48.1694293 C86.78528,47.9467093 87.2384,47.8353493 87.76064,47.8353493 C88.13056,47.8353493 88.47232,47.8929493 88.78976,48.0081493 C89.1072,48.1233493 89.376,48.2884693 89.59744,48.5035093 L89.31968,49.0871893 C89.07008,48.8772693 88.82048,48.7262293 88.57088,48.6340693 C88.32384,48.5419093 88.05632,48.4958293 87.76832,48.4958293 C87.2064,48.4958293 86.77248,48.6775893 86.46784,49.0411093 C86.16192,49.4046293 86.0096,49.9243093 86.0096,50.6001493 C86.0096,51.2759893 86.16192,51.7969493 86.46784,52.1630293 C86.77248,52.5291093 87.2064,52.7121493 87.76832,52.7121493 C88.05632,52.7121493 88.32384,52.6660693 88.57088,52.5739093 C88.82048,52.4817493 89.07008,52.3307093 89.31968,52.1207893 L89.59744,52.7044693 C89.376,52.9195093 89.1072,53.0846293 88.78976,53.1998293 C88.47232,53.3150293 88.13056,53.3726293 87.76064,53.3726293 C87.2384,53.3726293 86.78528,53.2599893 86.39872,53.0347093 Z M95.218816,53.3109333 L94.228096,53.3109333 L91.563136,50.7611733 L91.563136,53.3109333 L90.772096,53.3109333 L90.772096,47.8965333 L91.563136,47.8965333 L91.563136,50.3618133 L94.112896,47.8965333 L95.086976,47.8965333 L92.354176,50.5154133 L95.218816,53.3109333 Z M96.708736,52.3971413 L96.708736,53.0192213 C96.708736,53.2598613 96.669056,53.4787413 96.589696,53.6758613 C96.510336,53.8729813 96.375936,54.0662613 96.186496,54.2557013 L95.848576,53.9869013 C96.063616,53.7565013 96.186496,53.5312213 96.217216,53.3110613 L95.794816,53.3110613 L95.794816,52.3971413 L96.708736,52.3971413 Z M101.301248,51.3445973 L103.505408,51.3445973 L102.407168,48.7794773 L101.301248,51.3445973 Z M104.350208,53.3106773 L103.774208,51.9743573 L101.032448,51.9743573 L100.456448,53.3106773 L99.657728,53.3106773 L102.069248,47.8962773 L102.729728,47.8962773 L105.141248,53.3106773 L104.350208,53.3106773 Z M109.741312,47.8965333 L110.486272,47.8965333 L110.486272,53.3109333 L109.879552,53.3109333 L106.784512,49.2251733 L106.784512,53.3109333 L106.039552,53.3109333 L106.039552,47.8965333 L106.638592,47.8965333 L109.741312,51.9899733 L109.741312,47.8965333 Z M113.7888,52.6503253 C115.12,52.6503253 115.78688,51.9668053 115.78688,50.5997653 C115.78688,49.2378453 115.12,48.5568853 113.7888,48.5568853 L112.72896,48.5568853 L112.72896,52.6503253 L113.7888,52.6503253 Z M111.9392,47.8964053 L113.83488,47.8964053 C114.71168,47.8964053 115.3888,48.1319253 115.87008,48.6029653 C116.35136,49.0740053 116.592,49.7396053 116.592,50.5997653 C116.592,51.4599253 116.35136,52.1268053 115.87008,52.6004053 C115.3888,53.0740053 114.71168,53.3108053 113.83488,53.3108053 L111.9392,53.3108053 L111.9392,47.8964053 Z M120.07872,53.3109333 L120.07872,47.8965333 L123.59616,47.8965333 L123.59616,48.5339733 L120.8544,48.5339733 L120.8544,50.2389333 L123.44256,50.2389333 L123.44256,50.8840533 L120.8544,50.8840533 L120.8544,52.6734933 L123.59616,52.6734933 L123.59616,53.3109333 L120.07872,53.3109333 Z M127.036288,50.5540693 L129.094528,53.3111893 L128.166528,53.3111893 L126.583168,51.1377493 L125.001088,53.3111893 L124.073088,53.3111893 L126.137728,50.5463893 L124.156288,47.8967893 L125.086848,47.8967893 L126.590848,49.9627093 L128.088448,47.8967893 L129.010048,47.8967893 L127.036288,50.5540693 Z M132.075008,50.5077333 C132.832768,50.5077333 133.211648,50.1774933 133.211648,49.5170133 C133.211648,48.8616533 132.832768,48.5339733 132.075008,48.5339733 L130.707968,48.5339733 L130.707968,50.5077333 L132.075008,50.5077333 Z M129.916928,47.8965333 L132.159488,47.8965333 C132.732928,47.8965333 133.178368,48.0373333 133.495808,48.3189333 C133.813248,48.6005333 133.971968,48.9998933 133.971968,49.5170133 C133.971968,50.0290133 133.813248,50.4283733 133.495808,50.7150933 C133.178368,51.0018133 132.732928,51.1451733 132.159488,51.1451733 L130.707968,51.1451733 L130.707968,53.3109333 L129.916928,53.3109333 L129.916928,47.8965333 Z M135.116288,53.3109333 L135.116288,47.8965333 L135.906048,47.8965333 L135.906048,52.6504533 L138.533888,52.6504533 L138.533888,53.3109333 L135.116288,53.3109333 Z M142.818816,52.1740373 C143.120896,51.8053973 143.271936,51.2805973 143.271936,50.5996373 C143.271936,49.9186773 143.122176,49.3951573 142.823936,49.0290773 C142.524416,48.6629973 142.099456,48.4799573 141.552896,48.4799573 C141.015296,48.4799573 140.596736,48.6629973 140.295936,49.0290773 C139.997696,49.3951573 139.847936,49.9186773 139.847936,50.5996373 C139.847936,51.2805973 139.997696,51.8053973 140.295936,52.1740373 C140.596736,52.5426773 141.015296,52.7269973 141.552896,52.7269973 C142.095616,52.7269973 142.518016,52.5426773 142.818816,52.1740373 Z M140.220416,53.0341973 C139.844096,52.8089173 139.552256,52.4889173 139.347456,52.0741973 C139.142656,51.6594773 139.041536,51.1705173 139.041536,50.6073173 C139.041536,50.0389973 139.141376,49.5461973 139.343616,49.1289173 C139.545856,48.7116373 139.836416,48.3916373 140.216576,48.1689173 C140.595456,47.9461973 141.039616,47.8348373 141.552896,47.8348373 C142.068736,47.8348373 142.518016,47.9461973 142.896896,48.1689173 C143.274496,48.3916373 143.565056,48.7116373 143.767296,49.1289173 C143.969536,49.5461973 144.071936,50.0364373 144.071936,50.5996373 C144.071936,51.1628373 143.969536,51.6530773 143.767296,52.0703573 C143.565056,52.4876373 143.274496,52.8089173 142.896896,53.0341973 C142.518016,53.2594773 142.068736,53.3721173 141.552896,53.3721173 C141.039616,53.3721173 140.596736,53.2594773 140.220416,53.0341973 Z M147.55008,50.4383573 C147.94944,50.4383573 148.24512,50.3602773 148.43712,50.2041173 C148.62912,50.0479573 148.72512,49.8060373 148.72512,49.4783573 C148.72512,49.1506773 148.6304,48.9113173 148.44096,48.7602773 C148.25152,48.6092373 147.95456,48.5337173 147.55008,48.5337173 L146.11392,48.5337173 L146.11392,50.4383573 L147.55008,50.4383573 Z M149.7312,53.3106773 L148.85696,53.3106773 L147.93408,51.5749973 C147.83168,51.3906773 147.71008,51.2613973 147.56928,51.1871573 C147.42848,51.1129173 147.24288,51.0757973 147.01248,51.0757973 L146.1216,51.0757973 L146.1216,53.3106773 L145.33824,53.3106773 L145.33824,47.8962773 L147.64224,47.8962773 C148.24128,47.8962773 148.69824,48.0293973 149.01312,48.2956373 C149.328,48.5618773 149.48544,48.9509973 149.48544,49.4629973 C149.48544,49.8777173 149.36896,50.2181973 149.136,50.4844373 C148.90304,50.7506773 148.57152,50.9196373 148.14144,50.9913173 C148.40768,51.0732373 148.62784,51.2729173 148.8032,51.5903573 L149.7312,53.3106773 Z M150.83008,53.3109333 L150.83008,47.8965333 L154.34752,47.8965333 L154.34752,48.5339733 L151.60448,48.5339733 L151.60448,50.2389333 L154.19392,50.2389333 L154.19392,50.8840533 L151.60448,50.8840533 L151.60448,52.6734933 L154.34752,52.6734933 L154.34752,53.3109333 L150.83008,53.3109333 Z" id="Combined-Shape" fill="#A7ADAD"></path>
                    <path d="M17.208704,21.2489813 C17.354624,21.4755413 20.481664,26.2409813 28.027264,30.2064213 C27.565184,29.4384213 27.014784,28.7254613 26.349184,28.0867413 C24.211584,26.0387413 22.203264,23.8781013 20.541824,21.4166613 C18.702464,18.6941013 17.348224,15.7616213 16.731264,12.5206613 C16.274304,10.1193813 16.202624,7.70658133 16.599424,5.28482133 C16.692864,4.71906133 16.685184,4.13666133 16.724864,3.56194133 C16.700544,3.55938133 16.674944,3.55682133 16.650624,3.55426133 C16.498304,3.73218133 16.307584,3.88962133 16.198784,4.09058133 C15.511424,5.35906133 15.057024,6.71458133 14.830464,8.13538133 C14.452864,10.4944213 14.533504,12.8470613 15.033984,15.1843413 C15.494784,17.3347413 16.238464,19.3481813 17.208704,21.2489813" id="Fill-37" fill="#030303"></path>
                    <path d="M21.777536,18.9727573 C21.869696,19.1135573 23.849856,22.0933973 28.601216,24.5548373 C28.308096,24.0748373 27.959936,23.6293973 27.538816,23.2313173 C26.189696,21.9538773 24.922496,20.6034773 23.870336,19.0649173 C22.705536,17.3637973 21.845376,15.5282773 21.446016,13.4969173 C21.150336,11.9903573 21.096576,10.4773973 21.337216,8.95547733 C21.393536,8.59963733 21.387136,8.23355733 21.408896,7.87387733 C21.393536,7.87259733 21.378176,7.87003733 21.362816,7.86875733 C21.268096,7.98139733 21.149056,8.08123733 21.081216,8.20795733 C20.653696,9.00539733 20.374656,9.85915733 20.236416,10.7513173 C20.008576,12.2322773 20.067456,13.7093973 20.391296,15.1749973 C20.686976,16.5228373 21.161856,17.7836373 21.777536,18.9727573" id="Fill-38" fill="#030303"></path>
                </g>
            </g>
        </g>
    </g>
</svg>