<?xml version="1.0" encoding="UTF-8"?>
<svg width="506px" height="308px" viewBox="0 0 506 308" version="1.1" xmlns="http://www.w3.org/2000/svg" xmlns:xlink="http://www.w3.org/1999/xlink">
    <!-- Generator: Sketch 52.6 (67491) - http://www.bohemiancoding.com/sketch -->
    <title>Group 2</title>
    <desc>Created with Sketch.</desc>
    <defs>
        <polygon id="path-1" points="0.000134448054 0 204.330389 0 204.330389 303.796147 0.000134448054 303.796147"></polygon>
    </defs>
    <g id="Page-1" stroke="none" stroke-width="1" fill="none" fill-rule="evenodd">
        <g id="Quiz_page_start-q1_1920" transform="translate(-1009.000000, -186.000000)">
            <g id="Quiz" transform="translate(0.000000, 159.000000)">
                <g id="bg">
                    <g id="Group-2" transform="translate(1009.000000, 27.000000)">
                        <g id="qiuz" transform="translate(0.000000, 37.000000)">
                            <polygon id="Fill-1" fill="#28A196" points="250.977556 0 0 13.1080876 17.0217759 336.8 268 323.692578"></polygon>
                            <polygon id="Fill-2" fill="#6BD6CD" points="8 330.4 259.2 330.4 259.2 6.4 8 6.4"></polygon>
                            <polygon id="Fill-3" fill="#E4F3F2" points="44.8 46.4 223.2 46.4 223.2 42.4 44.8 42.4"></polygon>
                            <polygon id="Fill-4" fill="#E4F3F2" points="44.8 54.4 223.2 54.4 223.2 50.4 44.8 50.4"></polygon>
                            <polygon id="Fill-5" fill="#E4F3F2" points="44.8 62.4 223.2 62.4 223.2 58.4 44.8 58.4"></polygon>
                            <path d="M46.7308126,82.0691874 L52.4691874,82.0691874 L52.4691874,76.3308126 L46.7308126,76.3308126 L46.7308126,82.0691874 Z M44.8,84 L54.4,84 L54.4,74.4 L44.8,74.4 L44.8,84 Z" id="Fill-6" fill="#E4F3F2"></path>
                            <polygon id="Fill-7" fill="#E4F3F2" points="62.4 81.6 133.6 81.6 133.6 77.6 62.4 77.6"></polygon>
                            <path d="M46.7308126,96.4691874 L52.4691874,96.4691874 L52.4691874,90.7308126 L46.7308126,90.7308126 L46.7308126,96.4691874 Z M44.8,98.4 L54.4,98.4 L54.4,88.8 L44.8,88.8 L44.8,98.4 Z" id="Fill-8" fill="#E4F3F2"></path>
                            <polygon id="Fill-9" fill="#E4F3F2" points="62.4 95.2 133.6 95.2 133.6 91.2 62.4 91.2"></polygon>
                            <path d="M46.7308126,110.069187 L52.4691874,110.069187 L52.4691874,104.330813 L46.7308126,104.330813 L46.7308126,110.069187 Z M44.8,112 L54.4,112 L54.4,102.4 L44.8,102.4 L44.8,112 Z" id="Fill-10" fill="#E4F3F2"></path>
                            <polygon id="Fill-11" fill="#E4F3F2" points="62.4 109.6 133.6 109.6 133.6 105.6 62.4 105.6"></polygon>
                            <polygon id="Fill-12" fill="#E4F3F2" points="44.8 228.8 223.2 228.8 223.2 224.8 44.8 224.8"></polygon>
                            <polygon id="Fill-13" fill="#E4F3F2" points="44.8 236.8 223.2 236.8 223.2 232.8 44.8 232.8"></polygon>
                            <polygon id="Fill-14" fill="#E4F3F2" points="44.8 244.8 223.2 244.8 223.2 240.8 44.8 240.8"></polygon>
                            <path d="M46.7308126,264.469187 L52.4691874,264.469187 L52.4691874,258.730813 L46.7308126,258.730813 L46.7308126,264.469187 Z M44.8,266.4 L54.4,266.4 L54.4,256.8 L44.8,256.8 L44.8,266.4 Z" id="Fill-15" fill="#E4F3F2"></path>
                            <polygon id="Fill-16" fill="#E4F3F2" points="62.4 264 133.6 264 133.6 260 62.4 260"></polygon>
                            <polygon id="Fill-21" fill="#E4F3F2" points="44.8 137.6 223.2 137.6 223.2 133.6 44.8 133.6"></polygon>
                            <polygon id="Fill-22" fill="#E4F3F2" points="44.8 145.6 223.2 145.6 223.2 141.6 44.8 141.6"></polygon>
                            <path d="M46.7308126,173.269187 L52.4691874,173.269187 L52.4691874,167.530813 L46.7308126,167.530813 L46.7308126,173.269187 Z M44.8,175.2 L54.4,175.2 L54.4,165.6 L44.8,165.6 L44.8,175.2 Z" id="Fill-23" fill="#E4F3F2"></path>
                            <polygon id="Fill-24" fill="#E4F3F2" points="62.4 172.8 133.6 172.8 133.6 168.8 62.4 168.8"></polygon>
                            <path d="M46.7308126,187.669187 L52.4691874,187.669187 L52.4691874,181.930813 L46.7308126,181.930813 L46.7308126,187.669187 Z M44.8,189.6 L54.4,189.6 L54.4,180 L44.8,180 L44.8,189.6 Z" id="Fill-25" fill="#E4F3F2"></path>
                            <polygon id="Fill-26" fill="#E4F3F2" points="62.4 186.4 133.6 186.4 133.6 182.4 62.4 182.4"></polygon>
                            <path d="M46.7308126,201.269187 L52.4691874,201.269187 L52.4691874,195.530813 L46.7308126,195.530813 L46.7308126,201.269187 Z M44.8,203.2 L54.4,203.2 L54.4,193.6 L44.8,193.6 L44.8,203.2 Z" id="Fill-27" fill="#E4F3F2"></path>
                            <polygon id="Fill-28" fill="#E4F3F2" points="62.4 200.8 133.6 200.8 133.6 196.8 62.4 196.8"></polygon>
                            <polygon id="Fill-29" fill="#E4F3F2" points="44 153.6 133.6 153.6 133.6 149.6 44 149.6"></polygon>
                            <g id="checkmark" transform="translate(46.400000, 166.400000)" stroke="#FF6348" stroke-linecap="round" stroke-linejoin="round" stroke-width="2.4">
                                <path d="M0.4,2.8 L3.2,5.6" id="Stroke-32"></path>
                                <path d="M8.8,0 L3.2,5.6" id="Stroke-33"></path>
                            </g>
                            <g id="checkmark" transform="translate(46.400000, 89.600000)" stroke="#FF6348" stroke-linecap="round" stroke-linejoin="round" stroke-width="2.4">
                                <path d="M0.4,2.8 L3.2,5.6" id="Stroke-32"></path>
                                <path d="M8.8,0 L3.2,5.6" id="Stroke-33"></path>
                            </g>
                        </g>
                        <g id="url" transform="translate(301.000000, 0.000000)">
                            <mask id="mask-2" fill="white">
                                <use xlink:href="#path-1"></use>
                            </mask>
                            <g id="Clip-2"></g>
                            <path d="M2.13835331,149.445254 C0.81771281,146.976783 1.86982025,145.244448 4.66273347,144.818353 C5.4285186,144.701452 6.34678306,144.803952 6.92451033,144.4092 C7.77415909,143.828932 8.7313905,142.983519 8.96688636,142.076267 C9.12783678,141.456184 8.28581198,140.364262 7.62506818,139.793312 C6.6813905,138.977548 5.43783678,138.521804 4.42046074,137.777196 C1.14215496,135.379882 1.3742624,131.468787 4.96430372,129.572961 C6.3179814,128.858849 7.85886983,128.484428 9.33622521,128.022754 C13.2447789,126.802072 16.7526508,125.01044 19.2948202,121.313663 C16.4171963,118.897713 13.3261012,116.640171 13.2710393,111.865874 C15.2549649,114.845151 17.1821343,117.189944 20.8712872,117.913374 C20.2986426,110.809531 21.8810393,104.334242 25.2499855,98.0775062 C23.826845,97.3617004 22.4926508,96.774655 21.240626,96.0452955 C16.4400682,93.250688 13.1261839,89.1710186 10.8474649,84.135812 C10.4018864,83.1514731 9.48616322,82.1307087 8.52808471,81.683436 C6.8863905,80.9159566 6.02657645,79.8375888 6.16211364,78.1027128 C6.35779545,75.5825682 5.77244421,73.3953368 4.07907645,71.4580021 C2.80672107,70.0026715 2.98715496,68.3126921 3.82579132,66.6989525 C4.31203099,65.7628988 4.93211364,64.8963079 5.49459298,64.0000682 C6.91095661,61.7399855 6.95246488,59.6400062 5.30145248,57.3502748 C2.4339938,53.3714112 4.82114256,48.3785599 9.70302273,47.8558946 C10.3332707,47.788126 10.9753781,47.8076095 11.5988492,47.7042624 C14.8940971,47.157031 15.7793244,45.7127128 14.8364938,42.5021756 C14.6391178,41.8295723 14.4739318,41.1459566 14.3316178,40.4597996 C13.9495723,38.6147996 14.8000682,37.6457087 16.580688,37.3585393 C17.0686219,37.2797583 17.5540145,37.1882707 18.0427955,37.119655 C20.1851302,36.8189318 21.3736219,35.5779194 21.3185599,33.4313492 C21.2634979,31.277155 22.2927335,30.3029814 24.3105434,30.1725269 C26.5477541,30.0268244 27.3296343,28.675688 27.3542004,26.6316178 C27.3677541,25.4338079 27.3448822,24.2258326 27.4982087,23.0424236 C27.7836839,20.8272376 28.9255847,20.0140145 31.1551715,20.3528574 C31.9175682,20.4689112 32.6740351,20.6688285 33.4127128,20.8992417 C35.9819897,21.6997583 38.2573202,21.4761219 40.1277335,19.277031 C41.5466384,17.6099236 43.1680021,17.140626 45.0985599,18.6239112 C46.3099236,19.553188 47.3417004,19.3693657 47.7762665,17.7166591 C48.1201921,16.4087252 48.0761426,14.664531 48.9173202,13.915688 C49.7085186,13.2108946 51.4340764,13.5556674 52.8987252,13.4260599 C52.9546343,12.9017004 52.9885186,12.3629401 53.0723822,11.8318037 C53.5789525,8.62465496 56.8089731,6.97533678 59.5349649,8.71529545 C61.6476508,10.0638905 63.352031,9.66236157 65.1072376,8.2188905 C66.0314318,7.45903512 66.9700269,6.70341529 67.9679194,6.04605992 C69.5172789,5.02614256 71.1886219,4.83808471 72.6778368,6.06808471 C75.4334773,8.3442624 78.0154607,7.96984091 80.7465351,5.99015083 C82.9871343,4.36709298 85.3480227,2.81349793 87.913064,4.06382851 C89.5428988,2.72031612 90.7889938,1.20653512 92.3934153,0.483105372 C94.8144483,-0.607969008 97.114345,0.213725207 98.8119483,2.29422107 C99.803064,3.50982025 100.689986,3.93930372 102.163105,2.88126653 C103.786163,1.71564669 105.6642,1.77917975 107.339779,2.88380785 C108.468126,3.62756818 109.343188,3.70634917 110.594366,3.00663843 C115.04761,0.514448347 119.810895,1.82068802 122.508932,6.10789876 C124.841866,9.81229959 125.130729,9.94698967 129.291721,9.25913843 C132.028725,8.80593595 133.269738,9.46075 134.131246,12.0164731 C134.642052,13.5319483 135.596742,13.9970103 137.052919,13.6285186 C137.733147,13.4565558 138.383725,13.166845 139.061411,12.9762459 C141.567155,12.2697583 143.178353,12.5374442 144.288911,14.8585186 C146.692155,19.8869483 150.211886,22.249531 155.879882,21.2897583 C156.572816,21.1728574 157.690998,22.2961219 158.259407,23.0957913 C158.750729,23.787031 158.709221,24.8450682 158.960812,25.7235186 C159.429262,27.3575888 160.422072,28.2411219 162.237424,27.9802128 C163.000667,27.8700888 163.784242,27.8607707 164.557651,27.8751715 C166.1248,27.9039731 167.064242,28.699407 167.273477,30.2741798 C167.392919,31.1822789 167.479324,32.0954607 167.564882,33.0069483 C167.816473,35.6736426 168.711019,36.7706467 171.239634,37.4966178 C173.594593,38.1726095 173.981721,38.7401715 173.520895,41.1340971 C173.335378,42.0964112 172.957568,43.0206054 172.689035,43.9668244 C171.938498,46.605564 173.027031,48.3531467 175.741163,48.8673409 C177.122795,49.1299442 178.567961,49.2036426 179.881824,49.6585393 C182.5392,50.5776508 183.376143,52.2650888 182.509552,54.9427955 C181.942837,56.6954607 182.58325,57.761969 184.125833,58.2515971 C186.36389,58.9614731 187.768395,60.238064 188.146205,62.6362252 C188.227527,63.1538079 188.770523,63.7942211 189.265233,64.022093 C195.016246,66.6735393 194.880709,71.6342004 192.923043,75.9332707 C191.698126,78.6194483 191.964118,79.5258533 194.790915,80.2306467 C200.037899,81.5411219 200.645275,84.28575 199.591473,89.4556467 C199.128105,91.7250475 199.402568,93.3599649 200.826556,95.079593 C203.345006,98.1198616 202.915523,101.472713 199.843911,103.911535 C198.120895,105.279614 198.04889,106.069965 199.998932,107.225419 C204.145523,109.681184 203.775337,113.505027 200.060771,116.214924 C197.621948,117.993002 197.547403,119.248415 199.955729,121.123064 C202.229366,122.894366 203.834634,125.046866 204.251411,127.907548 C204.598725,130.288767 203.791432,132.368415 202.009118,134.009262 C199.579614,136.249014 199.29075,139.015667 200.105667,141.98139 C201.23232,146.083085 201.012072,146.572713 196.914614,147.900977 C194.363973,148.727754 193.763374,149.600275 194.124242,152.282217 C194.367362,154.09418 194.85106,155.8748 195.074696,157.688457 C195.466907,160.874428 194.656225,162.206928 191.753188,163.511473 C190.919634,163.886742 189.89294,164.084965 189.308436,164.699118 C188.613808,165.430171 187.893767,166.52294 187.892072,167.458994 C187.886143,171.691143 187.22201,172.655151 183.169448,173.581886 C181.382899,173.990192 179.93011,174.619593 180.67387,177.031308 C180.825502,177.52263 180.09106,178.548477 179.505709,178.935605 C178.857671,179.364242 177.917382,179.448105 177.093994,179.49639 C173.924965,179.680213 172.983829,180.719614 173.254056,183.875089 C173.53699,187.177114 171.459035,189.125461 168.20699,188.607031 C164.728767,188.052176 164.525461,188.233457 162.582196,191.155977 C162.072238,191.92261 160.899841,192.235192 160.063746,192.802754 C159.024345,193.5067 157.566473,194.040378 157.086163,195.033188 C155.856163,197.573663 153.999304,198.843477 151.293643,198.871432 C149.396122,198.890068 147.487589,198.516494 145.601081,198.616452 C144.736184,198.663043 143.364717,199.25263 143.159717,199.896432 C142.142341,203.072238 139.005502,204.151452 135.701783,202.851143 C134.673395,202.447919 134.006721,202.433519 133.090151,203.243353 C129.905027,206.056597 128.120171,206.109118 124.436101,203.667754 C123.732155,204.435233 123.104448,205.389924 122.23701,206.015089 C119.771928,207.790626 117.119634,207.429758 114.624903,206.13199 C111.590564,204.553829 108.638395,204.098085 105.278767,205.224738 C102.562093,206.135378 99.9081054,205.064634 97.0067624,203.232341 C97.4481054,206.951143 97.6607293,210.159986 98.2325269,213.303601 C100.206287,224.165213 102.992424,234.850626 108.211452,244.612692 C111.61513,250.980399 115.981122,256.835605 119.940502,262.904283 C123.942238,269.040729 128.027837,275.123808 131.957568,281.305998 C132.989345,282.928209 133.577238,284.831659 134.370977,286.609738 C130.359076,286.609738 126.646205,286.536886 122.936721,286.624138 C112.496122,286.866411 102.001308,287.100213 91.9630847,290.28449 C85.1303161,292.452238 78.4932293,295.281576 71.8654607,298.044841 C61.7484566,302.264283 51.367155,304.792899 40.3428988,303.421432 C29.5770103,302.083002 20.0589112,298.202403 12.9804814,289.506845 C11.8123202,288.072692 11.8987252,287.250998 13.1482087,285.827857 C21.1991178,276.667238 29.3177955,267.553209 37.0061426,258.092713 C43.5805434,250.002837 48.6326921,240.957424 51.3061632,230.757403 C52.9309153,224.556576 52.7953781,218.233767 51.4349236,212.09139 C49.8084773,204.74951 47.645812,197.514366 45.4399442,190.318188 C43.9702128,185.52356 40.4453988,183.016122 35.377155,182.628147 C28.485936,182.101246 21.6048822,181.434572 14.7162045,180.869552 C5.83513017,180.142733 3.61147314,175.383684 5.14134917,166.704221 C5.72670041,163.382713 5.91729959,163.417444 2.76605992,162.516122 C-0.225923554,161.660543 -0.917163223,159.491948 1.31665909,157.391122 C2.5585186,156.224655 4.18072934,155.463105 5.65215496,154.505874 C4.4950062,152.867568 3.11167975,151.266535 2.13835331,149.445254 Z" id="Fill-1" fill="#28A196" mask="url(#mask-2)"></path>
                            <g id="Group-3" mask="url(#mask-2)" fill="#6BD6CD">
                                <g transform="translate(15.247934, 4.235537)" id="Fill-1">
                                    <path d="M64.2626059,18.7930087 C63.584632,18.8201276 62.9806702,19.070413 62.4823594,19.5308703 L55.4935782,26.5196515 C55.4280407,26.6224775 54.9184303,26.8354743 54.7986549,26.8077904 L48.6420867,26.8077904 C47.9652427,26.8354743 47.360151,27.0851947 46.8618402,27.5450871 L33.2746777,41.1316845 C33.2097052,41.2356405 32.6995299,41.4475074 32.5803194,41.4198234 L27.340146,41.4198234 C27.0322328,40.6356336 26.273467,40.0774351 25.3791064,40.0774351 C24.2141212,40.0774351 23.2700425,41.0226437 23.2700425,42.1876289 C23.2700425,43.3520491 24.2141212,44.2966928 25.3791064,44.2966928 C26.273467,44.2966928 27.0327978,43.7390592 27.340711,42.9537394 L32.5803194,42.9537394 C33.2588583,42.9277504 33.8616902,42.6769001 34.360001,42.2170078 L47.9477284,28.6292804 C48.0127009,28.5264543 48.5234413,28.3151524 48.6420867,28.3417064 L54.7986549,28.3417064 C55.4771938,28.3151524 56.0805906,28.0648671 56.5794664,27.6038448 L63.5671177,20.6156286 C63.6326552,20.5116726 64.1439605,20.3015006 64.2626059,20.3274896 L104.865899,20.3274896 C104.984545,20.3015006 105.495285,20.5116726 105.559693,20.6156286 L113.68634,28.7405811 C114.184651,29.2021683 114.786918,29.4513237 115.466587,29.4778777 L124.357085,29.4784427 C124.47686,29.4513237 124.98647,29.6631906 125.051443,29.7665816 L133.230068,37.9452071 C133.138542,38.1723283 133.079219,38.4163989 133.072439,38.6762889 C133.044756,39.8412741 133.965105,40.8096469 135.13009,40.8378958 C136.294511,40.8655797 137.261188,39.9452301 137.290002,38.77968 C137.318251,37.6158247 136.397337,36.6491469 135.232916,36.619768 C134.892799,36.6118583 134.573022,36.6915203 134.284883,36.828245 L126.137331,28.6812584 C125.638455,28.2208011 125.035624,27.9710807 124.357085,27.9445267 L115.466587,27.9445267 C115.346246,27.9710807 114.836636,27.7603438 114.771098,27.6563878 L106.644451,19.5297403 C106.14614,19.070413 105.542743,18.8201276 104.865899,18.7930087 L64.2626059,18.7930087 Z M66.755855,25.441108 C66.0694064,25.4687919 65.4677046,25.7281169 64.9750435,26.2060886 L58.8150854,32.6965589 C58.7580226,32.7971251 58.2591468,33.0112518 58.1472811,32.9824379 L52.6941109,32.9824379 C52.015572,33.0101219 51.4127401,33.2592773 50.9138643,33.7202996 L40.7984934,43.8362355 C40.5386034,43.7226749 40.2538543,43.6571374 39.9527209,43.6571374 C38.7877357,43.6571374 37.843092,44.601781 37.843092,45.7667662 C37.843092,46.9311865 38.7877357,47.8763951 39.9527209,47.8763951 C41.1171411,47.8763951 42.0617848,46.9311865 42.0617848,45.7667662 C42.0617848,45.4656328 41.9962473,45.1803188 41.8826867,44.9215587 L51.9986226,34.8044929 C52.0641601,34.7022318 52.5743355,34.4903649 52.6941109,34.5169189 L58.1472811,34.5169189 C58.8325998,34.489235 59.4348666,34.22991 59.9263977,33.7525033 L66.0880507,27.2620329 C66.1451135,27.1614668 66.6434244,26.9467751 66.755855,26.975024 L101.60993,26.975024 C101.721795,26.9467751 102.218411,27.1614668 102.276039,27.2620329 L106.359702,31.5920264 C106.300944,31.7767743 106.259136,31.967737 106.253486,32.1711291 C106.224672,33.3361143 107.146717,34.3039221 108.311137,34.332171 C109.476122,34.3609849 110.442235,33.4395054 110.471049,32.2745202 C110.498733,31.1100999 109.578383,30.1434221 108.413963,30.1146082 C108.021303,30.1055686 107.655197,30.2106545 107.335419,30.3903176 L103.391306,26.2094784 C102.897515,25.7286819 102.296943,25.4687919 101.60993,25.441108 L66.755855,25.441108 Z M46.943216,130.498252 C46.916097,131.663238 47.8370116,132.631045 49.0008668,132.659294 C49.3223395,132.667204 49.6257328,132.597712 49.9008772,132.475111 L57.9704618,140.544131 C58.4693377,141.004023 59.0716045,141.254309 59.7495784,141.280863 L67.1858224,141.281993 C67.3050328,141.254309 67.8152082,141.465611 67.8801807,141.568437 L72.7553782,146.443634 C72.6474674,146.687705 72.5836248,146.955504 72.5768451,147.236864 C72.5485962,148.401849 73.4700757,149.369657 74.6344959,149.399035 C75.7983512,149.426719 76.7661589,148.505805 76.7949728,147.340255 C76.8220918,146.176399 75.9017422,145.209722 74.736757,145.180908 C74.4181093,145.172998 74.1164109,145.24249 73.8423964,145.362266 L68.964374,140.484243 C68.4671931,140.023786 67.8632314,139.774066 67.1858224,139.746947 L59.7495784,139.746947 C59.630933,139.774066 59.1213226,139.562764 59.0557851,139.459373 L50.9856355,131.388658 C51.0907214,131.146283 51.153434,130.881308 51.1607787,130.601643 C51.1890277,129.437223 50.2675481,128.470545 49.1042578,128.441732 C49.0867435,128.441167 49.0692292,128.441167 49.0522798,128.441167 C47.9104588,128.441167 46.9708999,129.351347 46.943216,130.498252 Z M91.2380584,31.4485219 L70.0790572,31.4485219 C69.4010833,31.4762059 68.7976865,31.7259263 68.2993757,32.1863835 L53.1975065,47.2876877 C52.9540009,47.1809069 52.6867661,47.1164993 52.404277,47.1097196 C51.2398568,47.0809057 50.272614,48.0018203 50.2432351,49.1668055 C50.2155512,50.3306607 51.1364658,51.2990335 52.300886,51.3272824 C53.4658712,51.3555313 54.433114,50.4340517 54.4607979,49.2701965 C54.4687076,48.9504188 54.4003452,48.6498504 54.2800049,48.3758359 L69.384134,33.2705769 C69.4491065,33.1671858 69.9592818,32.9564489 70.0790572,32.9835679 L91.2267589,32.9835679 C91.5245024,33.7541983 92.262929,34.3107018 93.1409053,34.332171 C94.3053255,34.3609849 95.2731332,33.4395054 95.3002522,32.2745202 C95.3301961,31.1100999 94.4092815,30.1434221 93.2437313,30.1146082 C93.226217,30.1140433 93.2092676,30.1140433 93.1923183,30.1140433 C92.3058674,30.1140433 91.5482315,30.666027 91.2380584,31.4485219 Z M111.220775,35.4881166 C111.192526,36.6519718 112.112876,37.6197796 113.277296,37.6485935 C114.188606,37.6706276 114.971101,37.1090392 115.286359,36.3073351 L121.297162,36.3073351 C121.415808,36.2802161 121.925983,36.492083 121.990391,36.593779 L144.359575,58.9623987 C144.463531,59.0279362 144.675398,59.5381116 144.648279,59.657887 L144.648279,64.9861971 C143.816066,65.2523018 143.201935,66.0133275 143.178771,66.9348071 C143.151087,68.0997923 144.072001,69.0676001 145.235857,69.095849 C146.400842,69.1240979 147.368085,68.2026183 147.396899,67.0376332 C147.417238,66.1760413 146.915537,65.4251852 146.183325,65.0794185 L146.18163,59.657887 C146.156206,58.9799131 145.905921,58.3770812 145.446029,57.8782054 L123.077409,35.5095857 C122.577968,35.0491284 121.974571,34.7994081 121.297162,34.7734191 L115.294268,34.7734191 C114.993135,34.0056136 114.255838,33.4524999 113.380122,33.4315957 C113.362043,33.4315957 113.343963,33.4310307 113.325884,33.4310307 C112.185758,33.4310307 111.248459,34.3417757 111.220775,35.4881166 Z M90.9154558,35.4112795 C90.2374819,35.4383985 89.6340851,35.6886838 89.1357743,36.1491411 L86.1984523,39.0870281 C85.73856,39.584774 85.4871446,40.1881708 85.4605906,40.8661447 L85.4605906,53.4465159 C84.5549305,53.6645975 83.8690469,54.4617818 83.8453178,55.4374993 C83.8165039,56.6019195 84.7385484,57.5691623 85.9024036,57.5985412 C87.0673888,57.6262251 88.0340667,56.7053105 88.0617506,55.5403253 C88.0820898,54.7380562 87.6447966,54.0380481 86.9939417,53.6645975 L86.9939417,40.8661447 C86.9685176,40.7469343 87.1798195,40.2367589 87.2826456,40.1712214 L90.2210976,37.2338994 C90.2860701,37.1310734 90.7962454,36.9192065 90.9154558,36.9463255 L95.9867008,36.9463255 C96.1053462,36.9192065 96.6149566,37.1310734 96.6799291,37.2338994 L106.073823,46.6266632 C106.177214,46.6916357 106.388516,47.202376 106.361962,47.3221514 L106.361962,53.0199573 C105.529184,53.2849321 104.911663,54.0459578 104.890193,54.9702623 C104.861944,56.1341175 105.782859,57.1019253 106.947844,57.1307392 C108.112264,57.1584231 109.079507,56.2375085 109.107756,55.0725233 C109.129225,54.2120614 108.627525,53.4612053 107.897573,53.1154386 L107.895313,47.3221514 C107.869324,46.6441775 107.618473,46.0413457 107.157451,45.5430348 L97.7646874,36.1491411 C97.2669416,35.6886838 96.6635448,35.4383985 95.9867008,35.4112795 L90.9154558,35.4112795 Z M157.855919,132.14876 C157.177945,132.175879 156.574549,132.426165 156.076238,132.886622 L153.138916,135.824509 C152.679024,136.322255 152.427608,136.925652 152.401054,137.603626 L152.401054,150.183997 C151.495394,150.402078 150.80951,151.199263 150.785781,152.17498 C150.756967,153.3394 151.679012,154.306643 152.842867,154.336022 C154.007852,154.363706 154.97453,153.442791 155.002214,152.277806 C155.022553,151.475537 154.58526,150.775529 153.934405,150.402078 L153.934405,137.603626 C153.908981,137.484415 154.120283,136.97424 154.223109,136.908702 L157.161561,133.97138 C157.226534,133.868554 157.736709,133.656687 157.855919,133.683806 L162.927164,133.683806 C163.04581,133.656687 163.55542,133.868554 163.620393,133.97138 L173.014286,143.364144 C173.117677,143.429116 173.328979,143.939857 173.302425,144.059632 L173.302425,149.757438 C172.469647,150.022413 171.852126,150.783439 171.830657,151.707743 C171.802408,152.871598 172.723323,153.839406 173.888308,153.86822 C175.052728,153.895904 176.019971,152.974989 176.04822,151.810004 C176.069689,150.949542 175.567988,150.198686 174.838036,149.852919 L174.835776,144.059632 C174.809787,143.381658 174.558937,142.778826 174.097915,142.280516 L164.705151,132.886622 C164.207405,132.426165 163.604008,132.175879 162.927164,132.14876 L157.855919,132.14876 Z M94.8331075,173.342815 C94.1551336,173.369934 93.5517368,173.620219 93.053426,174.080676 L90.116104,177.018563 C89.6562117,177.516309 89.4047963,178.119706 89.3782423,178.79768 L89.3782423,191.378051 C88.4725822,191.596133 87.7866986,192.393317 87.7629695,193.369034 C87.7341556,194.533455 88.6562001,195.500697 89.8200553,195.530076 C90.9850405,195.55776 91.9517184,194.636846 91.9794023,193.47186 C91.9997415,192.669591 91.5624483,191.969583 90.9115934,191.596133 L90.9115934,178.79768 C90.8861693,178.678469 91.0974712,178.168294 91.2002973,178.102757 L94.1387492,175.165435 C94.2037218,175.062608 94.7138971,174.850742 94.8331075,174.877861 L99.9043525,174.877861 C100.022998,174.850742 100.532608,175.062608 100.597581,175.165435 L109.991475,184.558198 C110.094866,184.623171 110.306167,185.133911 110.279613,185.253687 L110.279613,190.951492 C109.446835,191.216467 108.829314,191.977493 108.807845,192.901797 C108.779596,194.065653 109.700511,195.03346 110.865496,195.062274 C112.029916,195.089958 112.997159,194.169044 113.025408,193.004058 C113.046877,192.143597 112.545176,191.39274 111.815224,191.046974 L111.812964,185.253687 C111.786975,184.575713 111.536125,183.972881 111.075103,183.47457 L101.682339,174.080676 C101.184593,173.620219 100.581196,173.369934 99.9043525,173.342815 L94.8331075,173.342815 Z M78.8785938,38.3000134 C78.8559947,39.2118883 79.418713,39.9955132 80.2204172,40.3090761 L80.2198522,51.3058132 C80.2469712,51.4244586 80.0351043,51.935199 79.9317133,52.0013015 L68.9214167,63.010468 C68.6773461,62.9036871 68.4101114,62.8398446 68.1270573,62.8330649 C66.9632021,62.8048159 65.9959593,63.7257305 65.9671454,64.8895858 C65.9394614,66.054571 66.860376,67.0218138 68.0247962,67.0506277 C69.1892164,67.0794415 70.1564592,66.157962 70.1852731,64.9924118 C70.1920529,64.6737641 70.1236905,64.3726307 70.0033501,64.0986162 L81.0170365,53.0854948 C81.4774938,52.586054 81.7266493,51.9837871 81.7537682,51.3058132 L81.7537682,40.3169858 C82.5221387,40.0169824 83.0746874,39.2791208 83.0961566,38.4034044 C83.1244055,37.2395492 82.2034909,36.2723064 81.0379407,36.2434925 C81.0204264,36.2434925 81.0029121,36.2429275 80.9853978,36.2429275 C79.8464016,36.2429275 78.9074077,37.1531075 78.8785938,38.3000134 Z M52.352864,39.6299723 C52.352864,39.9316707 52.4178365,40.2164197 52.5313971,40.4757447 L38.8351939,54.170818 C38.7702214,54.274209 38.260611,54.4855109 38.1408356,54.4595219 L30.407978,54.4595219 C30.1006298,53.6747671 29.340734,53.1171335 28.4475034,53.1171335 C27.2825182,53.1171335 26.3384395,54.0606473 26.3384395,55.2261974 C26.3384395,56.3911826 27.2825182,57.3352613 28.4475034,57.3352613 C29.341299,57.3352613 30.1006298,56.7776278 30.407978,55.9928729 L38.1408356,55.9928729 C38.8182445,55.9668839 39.4227713,55.7165986 39.9210821,55.2555763 L53.6161554,41.561633 C53.8749154,41.6746286 54.1602295,41.7401661 54.4619279,41.7401661 C55.6269131,41.7401661 56.5709918,40.7949575 56.5709918,39.6299723 C56.5709918,38.466117 55.6269131,37.5209084 54.4619279,37.5209084 C53.2969427,37.5209084 52.352864,38.466117 52.352864,39.6299723 Z M91.0843843,40.7785731 C91.0561354,41.9429933 91.97705,42.9108011 93.1409053,42.939615 C93.460683,42.9469597 93.7612514,42.8785973 94.0347009,42.7582569 L97.3985815,46.1210076 C97.2912356,46.3645133 97.2268281,46.631748 97.2200484,46.9148021 C97.1917995,48.0786573 98.1121491,49.0470301 99.2760043,49.075279 C100.442119,49.1035279 101.409362,48.1826133 101.437046,47.0170632 C101.46586,45.8532079 100.544945,44.8865301 99.3805253,44.8571512 C99.0618775,44.8498065 98.7596142,44.9187339 98.4861647,45.0390742 L95.123414,41.6763236 C95.2301949,41.431688 95.2951674,41.1644532 95.3002522,40.8808342 C95.3301961,39.7164139 94.4092815,38.7503011 93.2437313,38.7214872 C93.226217,38.7209222 93.2087026,38.7209222 93.1911883,38.7209222 C92.0504972,38.7209222 91.1109383,39.6316672 91.0843843,40.7785731 Z M94.0295585,190.96261 C94.0013096,192.12703 94.9222242,193.094838 96.0860794,193.123651 C96.4058571,193.130996 96.7064256,193.062634 96.9798751,192.942293 L100.343756,196.305044 C100.23641,196.54855 100.172002,196.815784 100.165223,197.098839 C100.136974,198.262694 101.057323,199.231067 102.221178,199.259315 C103.387294,199.287564 104.354536,198.36665 104.38222,197.2011 C104.411034,196.037244 103.49012,195.070567 102.325699,195.041188 C102.007052,195.033843 101.704788,195.10277 101.431339,195.223111 L98.0685882,191.86036 C98.1753691,191.615724 98.2403416,191.34849 98.2454264,191.064871 C98.2753702,189.90045 97.3544556,188.934338 96.1889055,188.905524 C96.1713911,188.904959 96.1538768,188.904959 96.1363625,188.904959 C94.9956714,188.904959 94.0561125,189.815704 94.0295585,190.96261 Z M65.2705272,42.3209638 C65.2626175,42.6401765 65.3309798,42.9413099 65.4518852,43.2147594 L57.2709998,51.3956448 C57.0410537,51.3018584 56.7930282,51.2419707 56.5291834,51.2351909 C55.3647631,51.206942 54.3980853,52.1278566 54.3698364,53.2922768 C54.3415875,54.456697 55.2625021,55.4245048 56.4263573,55.4533187 C57.5913425,55.4810026 58.5585853,54.5595231 58.5868342,53.3945379 C58.5947439,53.0578108 58.5167769,52.740858 58.3817471,52.4538491 L66.5338186,44.3029075 C66.7767592,44.4108184 67.0451239,44.4746609 67.327613,44.4814407 C68.4925982,44.5102546 69.4587111,43.588775 69.487525,42.4232248 C69.5152089,41.2593696 68.5954243,40.2926918 67.4304391,40.2638779 C67.4134897,40.2633129 67.3959754,40.2633129 67.3790261,40.2633129 C66.237205,40.2633129 65.2982111,41.1740579 65.2705272,42.3209638 Z M72.3163712,42.6961093 C72.3084615,43.0130622 72.3768239,43.3125006 72.4949043,43.5859501 L61.0247155,55.0572689 C60.7490061,54.9137644 60.4405279,54.822238 60.1083207,54.8143283 C58.9433355,54.7855144 57.9766577,55.706429 57.9484088,56.8714142 C57.9207248,58.0352694 58.8416394,59.0030772 60.0054947,59.032456 C61.1704799,59.059575 62.1377227,58.1386604 62.1659716,56.9742402 C62.1721863,56.7058755 62.1235982,56.4505053 62.0382865,56.2120845 L73.5740128,44.6774881 C73.8192134,44.785964 74.089273,44.8498065 74.3734571,44.8571512 C75.5384423,44.8854001 76.5056851,43.9644856 76.5344989,42.7989354 C76.5621829,41.6339502 75.6412683,40.6678373 74.4768481,40.6395884 C74.4593338,40.6390235 74.4423844,40.6390235 74.4248701,40.6390235 C73.284179,40.6390235 72.3446201,41.5492035 72.3163712,42.6961093 Z M138.865727,44.4707061 C138.838043,45.6345613 139.759522,46.6023691 140.924507,46.631748 C141.243155,46.6390927 141.543724,46.5701653 141.817173,46.449825 L151.51898,56.1505019 C151.621806,56.2166043 151.833108,56.7256498 151.807684,56.8459901 L151.807684,69.8416203 C151.833108,70.5190293 152.083958,71.122991 152.543286,71.6207369 L157.654644,76.7315303 C157.75747,76.7970678 157.969902,77.3083731 157.941653,77.4275835 L157.941653,89.4525811 C157.174977,89.7531495 156.622429,90.4898812 156.60209,91.3650325 C156.574406,92.5300177 157.49532,93.4978255 158.65974,93.5255094 C159.823596,93.5543233 160.790838,92.6328437 160.819652,91.4684235 C160.841121,90.5571136 160.278968,89.7746187 159.478394,89.4599258 L159.477264,77.4275835 C159.44958,76.7490446 159.199295,76.1462128 158.740532,75.648467 L153.628609,70.5359786 C153.525218,70.4704411 153.314481,69.9608307 153.341035,69.8416203 L153.341035,56.8459901 C153.314481,56.1680162 153.063066,55.5651844 152.603738,55.0657436 L142.905321,45.3678916 C143.013797,45.123256 143.07651,44.8560213 143.084419,44.5735321 C143.112103,43.4085469 142.191754,42.4418691 141.026769,42.4141852 C141.008689,42.4136202 140.99061,42.4136202 140.973096,42.4136202 C139.832404,42.4136202 138.894541,43.3238002 138.865727,44.4707061 Z M33.5181834,47.61933 L27.7655746,47.61933 C27.0876007,47.6464489 26.4842039,47.8972993 25.9858931,48.3600165 L10.9021032,63.5031291 C10.4433408,64.0020049 10.1936204,64.6048367 10.1670665,65.2828106 L10.1670665,70.396429 C9.38231165,70.7032122 8.82524308,71.4631079 8.82524308,72.3552086 C8.82524308,73.5207588 9.76875679,74.4654025 10.934307,74.4654025 C12.0992922,74.4654025 13.0433708,73.5207588 13.0433708,72.3552086 C13.0433708,71.461978 12.4857373,70.7032122 11.7009825,70.396429 L11.7009825,65.2828106 C11.6744285,65.1630353 11.8857304,64.6517299 11.9902513,64.5856275 L27.0723463,49.4425149 C27.1373188,49.3379939 27.6469292,49.127822 27.7655746,49.153811 L33.5181834,49.153811 C33.8255316,49.9391308 34.5854273,50.4961993 35.478093,50.4961993 C36.6436432,50.4961993 37.5877219,49.5521207 37.5877219,48.3877004 C37.5877219,47.2221503 36.6436432,46.2775066 35.478093,46.2775066 C34.5854273,46.2775066 33.8260965,46.8351402 33.5181834,47.61933 Z M91.0843843,48.8334683 C91.0561354,49.9978885 91.97705,50.9656963 93.1409053,50.9945102 C93.459553,51.0024199 93.7612514,50.9334925 94.0347009,50.8137171 L97.3985815,54.1759028 C97.2912356,54.4199734 97.2268281,54.6872082 97.2200484,54.9702623 C97.1917995,56.1341175 98.1121491,57.1019253 99.2760043,57.1307392 C100.442119,57.1584231 101.409362,56.2375085 101.437046,55.0725233 C101.46586,53.9081031 100.544945,52.9414253 99.3805253,52.9126114 C99.0618775,52.9052667 98.7596142,52.974194 98.4861647,53.0945344 L95.123414,49.7312188 C95.2301949,49.4871482 95.2951674,49.2193485 95.3002522,48.9362943 C95.3301961,47.7718741 94.4092815,46.8057613 93.2437313,46.7769474 C93.226217,46.7763824 93.2087026,46.7763824 93.1911883,46.7763824 C92.0504972,46.7763824 91.1109383,47.6865624 91.0843843,48.8334683 Z M110.154661,48.9097404 C110.126977,50.0747256 111.047327,51.0425333 112.212877,51.0719122 C112.969383,51.0894265 113.637752,50.7041113 114.024762,50.1131441 L116.950785,50.1131441 C117.069995,50.0848952 117.579605,50.297327 117.644013,50.400718 L131.340781,64.0963563 C131.23287,64.3392969 131.169593,64.6076616 131.162248,64.8895858 C131.134564,66.054571 132.054914,67.0218138 133.219334,67.0506277 C134.384319,67.0794415 135.352127,66.157962 135.380376,64.9924118 C135.40806,63.8279916 134.487145,62.8613138 133.32329,62.8330649 C133.002947,62.8251552 132.702379,62.8940825 132.428364,63.0144229 L118.730466,49.3165247 C118.23159,48.8549375 117.628193,48.6046521 116.950785,48.5786631 L114.33776,48.5786631 C114.160357,47.6176351 113.330969,46.8786435 112.315703,46.8537844 C112.298188,46.8532195 112.280674,46.8532195 112.26316,46.8532195 C111.121904,46.8532195 110.18404,47.7633994 110.154661,48.9097404 Z M128.582601,26.4075033 C128.554917,27.5724885 129.475266,28.5402963 130.640817,28.5696752 C131.397322,28.5871895 132.065692,28.2018743 132.452702,27.610907 L135.378724,27.610907 C135.497935,27.5826581 136.007545,27.7950899 136.071953,27.898481 L149.768721,41.5941192 C149.66081,41.8370599 149.597532,42.1054246 149.590188,42.3873487 C149.562504,43.5523339 150.482853,44.5195767 151.647274,44.5483906 C152.812259,44.5772045 153.780067,43.6557249 153.808315,42.4901748 C153.835999,41.3257545 152.915085,40.3590767 151.75123,40.3308278 C151.430887,40.3229181 151.130318,40.3918455 150.856304,40.5121858 L137.158406,26.8142877 C136.65953,26.3527004 136.056133,26.102415 135.378724,26.076426 L132.7657,26.076426 C132.588297,25.115398 131.758909,24.3764064 130.743643,24.3515474 C130.726128,24.3509824 130.708614,24.3509824 130.6911,24.3509824 C129.549843,24.3509824 128.61198,25.2611624 128.582601,26.4075033 Z M123.490786,23.2241897 C123.51847,22.0592045 122.59812,21.0913967 121.43257,21.0620178 C120.676064,21.0445035 120.007695,21.4298187 119.620685,22.0207859 L116.694662,22.0207859 C116.575452,22.0490348 116.065841,21.836603 116.001434,21.733212 L102.304666,8.03757374 C102.412576,7.79463308 102.475854,7.5262684 102.483199,7.24434425 C102.510883,6.07935905 101.590533,5.11211625 100.426113,5.08330236 C99.2611277,5.05448847 98.2933199,5.97596803 98.265071,7.1415182 C98.237387,8.30593842 99.1583016,9.27261624 100.322157,9.30086515 C100.6425,9.30877485 100.943068,9.2398475 101.217082,9.11950713 L114.914981,22.8174053 C115.413856,23.2789925 116.017253,23.5292779 116.694662,23.5552669 L119.307687,23.5552669 C119.48509,24.516295 120.314478,25.2552865 121.329744,25.2801456 C121.347258,25.2807106 121.364773,25.2807106 121.382287,25.2807106 C122.523543,25.2807106 123.461407,24.3705306 123.490786,23.2241897 Z M72.3593095,50.8278416 C72.3519648,51.1470543 72.4203272,51.4481877 72.5401026,51.7222022 L63.9552577,60.307612 C63.8897203,60.410438 63.3795449,60.6223049 63.2608995,60.594621 L51.8884518,60.594621 C51.5878834,59.8279454 50.8511517,59.2748317 49.9754354,59.2533625 C48.8104502,59.2256786 47.8432074,60.1460282 47.8149585,61.3104484 C47.7867096,62.4754336 48.7076242,63.4426764 49.8720444,63.4709253 C50.7827894,63.4935245 51.5658493,62.9313711 51.8805421,62.1291019 L63.2608995,62.1291019 C63.9388734,62.101983 64.5422702,61.8522626 65.040016,61.3918053 L73.622036,52.8103503 C73.8655416,52.9176962 74.1333413,52.9821037 74.4163954,52.9888835 C75.5808156,53.0176974 76.5480584,52.0956528 76.5763073,50.9306676 C76.6039913,49.7668124 75.6842066,48.7995696 74.5192215,48.7713207 C74.5017071,48.7707557 74.4841928,48.7707557 74.4666785,48.7707557 C73.3254224,48.7707557 72.3869935,49.6809357 72.3593095,50.8278416 Z M47.203087,54.50811 C47.1957423,54.8278877 47.2646697,55.1284562 47.3844451,55.4024706 L42.6177234,60.1686273 C42.5527509,60.2725833 42.0425755,60.4827553 41.9233651,60.4562013 L37.6029763,60.4562013 C37.3278319,59.6115588 36.543077,58.9979924 35.6057781,58.9979924 C34.4413579,58.9979924 33.4972792,59.9415061 33.4972792,61.1070562 C33.4972792,62.2714765 34.4413579,63.2161201 35.6057781,63.2161201 C36.4543754,63.2161201 37.1809375,62.7121595 37.5159696,61.9901173 L41.9233651,61.9901173 C42.601339,61.9629983 43.2041708,61.712713 43.7024817,61.2533856 L48.4658135,56.4906188 C48.7104491,56.5979647 48.9776838,56.6618072 49.2601729,56.668587 C50.4251581,56.6974008 51.3924009,55.7759213 51.4212148,54.6103711 C51.4488987,53.4465159 50.5285491,52.4798381 49.363564,52.4510242 C49.3460496,52.4504592 49.3279703,52.4504592 49.311021,52.4504592 C48.1703298,52.4504592 47.231336,53.3612042 47.203087,54.50811 Z M158.878465,69.7787677 C159.197792,69.797268 159.500583,69.7388723 159.77861,69.6287329 L164.375507,74.5588873 C164.477133,74.6274482 164.669372,75.1446477 164.638673,75.2628587 L164.487894,79.5806157 C163.634164,79.8261149 162.993584,80.5889785 162.960872,81.5257065 C162.920235,82.6894174 163.830226,83.6658491 164.995066,83.7065262 C166.158777,83.7471639 167.135793,82.8366279 167.17643,81.672917 C167.206046,80.8248366 166.727749,80.0811292 166.017839,79.7211023 L166.171655,75.3163916 C166.168214,74.6378843 165.939119,74.0266849 165.497462,73.5126473 L160.903835,68.585999 C161.019653,68.3452588 161.092783,68.0804149 161.109417,67.7983345 C161.178871,66.6350646 160.291709,65.6362518 159.127875,65.5667783 C157.965695,65.4984933 156.967486,66.3845457 156.898032,67.5478156 C156.896856,67.5652996 156.896225,67.5833678 156.895634,67.6003069 C156.855824,68.7403031 157.733244,69.7105095 158.878465,69.7787677 Z M59.6279479,13.1422372 C59.6206032,13.4620149 59.6895306,13.7625834 59.809306,14.0365978 L55.0425843,18.8027545 C54.9776118,18.9067105 54.4674364,19.1168825 54.348226,19.0903285 L50.0278372,19.0903285 C49.7526927,18.245686 48.9679379,17.6321196 48.030639,17.6321196 C46.8662188,17.6321196 45.9221401,18.5756333 45.9221401,19.7411834 C45.9221401,20.9056037 46.8662188,21.8502473 48.030639,21.8502473 C48.8792363,21.8502473 49.6057984,21.3462867 49.9408305,20.6242445 L54.348226,20.6242445 C55.0261999,20.5971255 55.6290317,20.3468402 56.1273426,19.8875128 L60.8906744,15.124746 C61.13531,15.2320919 61.4025447,15.2959344 61.6850338,15.3027142 C62.850019,15.331528 63.8172618,14.4100485 63.8460757,13.2444983 C63.8737596,12.0806431 62.95341,11.1139653 61.7884248,11.0851514 C61.7709105,11.0845864 61.7528312,11.0845864 61.7358819,11.0845864 C60.5951907,11.0845864 59.6561968,11.9953314 59.6279479,13.1422372 Z M34.1156479,20.2856813 C34.1083032,20.605459 34.1772305,20.9060274 34.2970059,21.1800419 L29.5302843,25.9461986 C29.4653117,26.0501546 28.9551364,26.2603265 28.835926,26.2337725 L24.5155371,26.2337725 C24.2403927,25.38913 23.4556379,24.7755636 22.5183389,24.7755636 C21.3539187,24.7755636 20.40984,25.7190773 20.40984,26.8846275 C20.40984,28.0490477 21.3539187,28.9936913 22.5183389,28.9936913 C23.3669363,28.9936913 24.0934984,28.4897307 24.4285305,27.7676885 L28.835926,27.7676885 C29.5138999,27.7405695 30.1167317,27.4902842 30.6150425,27.0309568 L35.3783743,22.26819 C35.6230099,22.3755359 35.8902446,22.4393784 36.1727338,22.4461582 C37.337719,22.4749721 38.3049618,21.5534925 38.3337757,20.3879423 C38.3614596,19.2240871 37.44111,18.2574093 36.2761248,18.2285954 C36.2586105,18.2280304 36.2405312,18.2280304 36.2235818,18.2280304 C35.0828907,18.2280304 34.1438968,19.1387754 34.1156479,20.2856813 Z M15.4000227,77.4502128 C15.392678,77.7699906 15.4616054,78.070559 15.5813808,78.3445735 L10.8146591,83.1107301 C10.7496866,83.2146861 10.2395112,83.4248581 10.1203008,83.3983041 L5.79991197,83.3983041 C5.52476755,82.5536616 4.74001273,81.9400952 3.80271378,81.9400952 C2.63829357,81.9400952 1.69421488,82.8836089 1.69421488,84.0491591 C1.69421488,85.2135793 2.63829357,86.1582229 3.80271378,86.1582229 C4.65131114,86.1582229 5.3778732,85.6542623 5.71290532,84.9322201 L10.1203008,84.9322201 C10.7982747,84.9051011 11.4011065,84.6548158 11.8994174,84.1954884 L16.6627492,79.4327216 C16.9073848,79.5400675 17.1746195,79.60391 17.4571086,79.6106898 C18.6220938,79.6395036 19.5893366,78.7180241 19.6181505,77.5524739 C19.6458344,76.3886187 18.7254848,75.4219409 17.5604997,75.393127 C17.5429853,75.392562 17.524906,75.392562 17.5079567,75.392562 C16.3672655,75.392562 15.4282717,76.303307 15.4000227,77.4502128 Z M128.96282,176.667098 C128.731509,176.888022 128.567714,177.149295 128.458651,177.427746 L121.717888,177.427347 C121.598437,177.454912 121.089075,177.242778 121.023557,177.139707 L117.968581,174.084731 C118.371276,173.292922 118.250228,172.304159 117.587458,171.641389 C116.764088,170.818019 115.429359,170.81762 114.60519,171.641788 C113.781821,172.465158 113.781421,173.800686 114.604791,174.624056 C115.20484,175.224104 116.074951,175.381507 116.822415,175.10785 L119.938914,178.224349 C120.43749,178.684573 121.040735,178.933861 121.717888,178.961427 L128.453857,178.961826 C128.550935,179.210715 128.694755,179.444822 128.889711,179.649366 C129.693106,180.493509 131.028634,180.525869 131.873177,179.722075 C132.715722,178.91868 132.748481,177.58435 131.945087,176.740207 C131.933102,176.727423 131.920318,176.714639 131.908333,176.702654 C131.101742,175.896063 129.79378,175.876088 128.96282,176.667098 Z M177.312344,128.369231 C177.081033,128.590154 176.917238,128.851427 176.808175,129.129879 L170.067412,129.129479 C169.947961,129.157045 169.438599,128.94491 169.373081,128.841839 L166.318104,125.786863 C166.7208,124.995054 166.599752,124.006292 165.936982,123.343521 C165.113612,122.520152 163.778883,122.519752 162.954714,123.343921 C162.131345,124.16729 162.130945,125.502819 162.954315,126.326188 C163.554364,126.926237 164.424475,127.08364 165.171939,126.809982 L168.288438,129.926482 C168.787014,130.386706 169.390259,130.635994 170.067412,130.663559 L176.803381,130.663959 C176.900459,130.912847 177.044279,131.146954 177.239235,131.351498 C178.042629,132.195642 179.378158,132.228001 180.222701,131.424207 C181.065246,130.620813 181.098005,129.286483 180.294611,128.442339 C180.282626,128.429555 180.269842,128.416771 180.257857,128.404786 C179.451266,127.598196 178.143303,127.578221 177.312344,128.369231 Z M81.190713,13.1626193 C81.4220235,13.3835427 81.5858185,13.6448157 81.694882,13.9232672 L88.4356449,13.9228677 C88.5550954,13.9504332 89.0644578,13.7382987 89.1299758,13.6352277 L92.1849521,10.5802515 C91.7822561,9.78844253 91.9033046,8.79968012 92.566075,8.13690967 C93.3894445,7.31354024 94.7241739,7.31314074 95.5483423,8.13730917 C96.3717117,8.9606786 96.3721112,10.296207 95.5487418,11.1195764 C94.9486928,11.7196254 94.0785819,11.8770284 93.3311175,11.6033709 L90.2146182,14.7198701 C89.7160423,15.1800941 89.1127973,15.4293821 88.4356449,15.4569476 L81.699676,15.4573471 C81.6025975,15.7062355 81.4587775,15.9403425 81.2638215,16.1448865 C80.4604271,16.9890299 79.1248987,17.0213894 78.2803557,16.2175955 C77.4378103,15.4142011 77.4050513,14.0798712 78.2084457,13.2357277 C78.2204307,13.2229437 78.2332147,13.2101597 78.2451997,13.1981747 C79.0517902,12.3915843 80.3597531,12.3716093 81.190713,13.1626193 Z M114.227903,14.5451905 C114.459214,14.324267 114.623009,14.062994 114.732072,13.7845425 L121.472835,13.784942 C121.592285,13.7573765 122.101648,13.969511 122.167166,14.072582 L125.222142,17.1275582 C124.819446,17.9193672 124.940495,18.9081296 125.603265,19.5709 C126.426635,20.3942695 127.761364,20.394669 128.585532,19.5705005 C129.408902,18.7471311 129.409301,17.4116027 128.585932,16.5882333 C127.985883,15.9881843 127.115772,15.8307813 126.368308,16.1044388 L123.251808,12.9879396 C122.753232,12.5277156 122.149987,12.2784276 121.472835,12.2508621 L114.736866,12.2504626 C114.639788,12.0015742 114.495968,11.7674672 114.301012,11.5629232 C113.497617,10.7187798 112.162089,10.6864203 111.317546,11.4902142 C110.475,12.2936086 110.442241,13.6279385 111.245636,14.472082 C111.257621,14.484866 111.270405,14.49765 111.28239,14.509635 C112.08898,15.3162254 113.396943,15.3362004 114.227903,14.5451905 Z M129.875792,54.6544394 C129.848108,55.8188596 130.767893,56.7866674 131.932878,56.8149163 C132.252656,56.822826 132.552659,56.7544636 132.827239,56.6335583 L137.457801,61.2641202 C137.561192,61.3290927 137.772494,61.840398 137.744245,61.9590435 L137.744245,77.9693977 C136.940846,78.2501919 136.353268,79.0004831 136.330669,79.9021884 C136.30355,81.0660436 137.2239,82.0338514 138.388885,82.0626653 C139.552175,82.0909142 140.520548,81.1699996 140.549362,80.0050144 C140.570266,79.1213884 140.043141,78.3535829 139.279856,78.0219407 L139.278726,61.9590435 C139.252737,61.2816345 139.001886,60.6782377 138.541994,60.1793619 L133.915387,55.5521899 C134.021038,55.3086843 134.086575,55.0403196 134.09279,54.7572655 C134.121039,53.5928452 133.20069,52.6256024 132.035139,52.5973535 C132.017625,52.5967886 132.000111,52.5967886 131.982596,52.5967886 C130.84247,52.5967886 129.903476,53.5069685 129.875792,54.6544394 Z M105.10432,60.0234279 L82.9215783,60.0234279 C82.2441693,60.0505469 81.6407726,60.2997023 81.1418967,60.7601596 L73.2802241,68.6235272 C73.0683573,68.5461251 72.8446259,68.4924522 72.606205,68.4862374 C71.4417848,68.4579885 70.474542,69.3789031 70.4457281,70.5438883 C70.4180442,71.7077435 71.3389588,72.6755513 72.503944,72.7043652 C73.6689292,72.7326141 74.635042,71.8111346 74.6638559,70.6461494 C74.6723306,70.2845633 74.5802391,69.9472712 74.427695,69.6450079 L82.226655,61.8454828 C82.2933225,61.7432218 82.8023679,61.5307899 82.9215783,61.5573439 L104.991324,61.5573439 C105.25065,62.4014215 106.016195,63.0291123 106.947844,63.0522764 C108.112264,63.0805253 109.079507,62.1590458 109.107756,60.9940606 C109.13544,59.8296404 108.214526,58.8629626 107.05067,58.8341487 C107.033156,58.8335837 107.016207,58.8335837 106.999257,58.8335837 C106.167609,58.8335837 105.448957,59.3189 105.10432,60.0234279 Z M26.3384395,61.1070562 C26.3384395,62.2714765 27.2825182,63.2161201 28.4475034,63.2161201 C28.6774496,63.2161201 28.8944012,63.1697919 29.1017482,63.1014295 L34.5509637,68.5512099 C35.0492745,69.0105373 35.6526713,69.2608226 36.3317752,69.2879416 L56.1399133,69.2879416 C56.4416117,70.0563121 57.1783434,70.6082958 58.0540597,70.63033 C59.2184799,70.6585789 60.1851577,69.7370993 60.2134067,68.5721141 C60.2427855,67.4076939 59.321306,66.4410161 58.1563208,66.4116372 C57.2455758,66.3901681 56.4625159,66.9523214 56.147258,67.7540256 L36.3317752,67.7540256 C36.2108698,67.7811446 35.7012594,67.5692777 35.6362869,67.4658867 L30.2882026,62.1183674 C30.4537412,61.816669 30.5571323,61.4754221 30.5571323,61.1070562 C30.5571323,59.9415061 29.6124886,58.9979924 28.4475034,58.9979924 C27.2825182,58.9979924 26.3384395,59.9415061 26.3384395,61.1070562 Z M110.123967,178.307411 C110.123967,179.471831 111.068046,180.416475 112.233031,180.416475 C112.462977,180.416475 112.679929,180.370147 112.887276,180.301784 L118.336491,185.751565 C118.834802,186.210892 119.438199,186.461177 120.117303,186.488296 L139.925441,186.488296 C140.227139,187.256667 140.963871,187.808651 141.839587,187.830685 C143.004007,187.858934 143.970685,186.937454 143.998934,185.772469 C144.028313,184.608049 143.106833,183.641371 141.941848,183.611992 C141.031103,183.590523 140.248043,184.152676 139.932785,184.95438 L120.117303,184.95438 C119.996397,184.981499 119.486787,184.769632 119.421814,184.666241 L114.07373,179.318722 C114.239269,179.017024 114.34266,178.675777 114.34266,178.307411 C114.34266,177.141861 113.398016,176.198347 112.233031,176.198347 C111.068046,176.198347 110.123967,177.141861 110.123967,178.307411 Z M113.798206,59.3172051 C112.972773,59.319465 112.309488,59.9833145 112.304968,60.8093127 L112.304968,75.2106088 C112.332087,75.8885827 112.582373,76.4914146 113.04283,76.9891604 L126.994403,90.9412988 C126.887057,91.1848044 126.823215,91.4526041 126.81587,91.7345283 C126.788186,92.8995135 127.709666,93.8673213 128.874086,93.8955702 C130.037941,93.9243841 131.005184,93.0034695 131.033998,91.8379193 C131.061682,90.6740641 130.140767,89.7073863 128.976347,89.6785724 C128.656004,89.6706627 128.356001,89.739025 128.082551,89.8599304 L114.128153,75.9055321 C114.024762,75.8394296 113.814025,75.3298192 113.840014,75.2106088 L113.840014,60.8499911 L117.84571,60.8499911 C117.963791,60.8240021 118.475661,61.035869 118.539503,61.13926 L131.340781,73.9388427 C131.234,74.1829133 131.169593,74.4501481 131.162248,74.7337672 C131.134564,75.8976224 132.054914,76.8648652 133.219334,76.8936791 C134.384319,76.921363 135.352127,76.0010134 135.380376,74.8360282 C135.40806,73.671608 134.487145,72.7049302 133.32329,72.6761163 C133.002947,72.6682066 132.702379,72.7371339 132.428364,72.8574743 L119.624262,60.0539367 C119.127081,59.5929145 118.522554,59.3437591 117.84571,59.3172051 L113.798206,59.3172051 Z M19.6909052,61.8737318 C19.6909052,63.038717 20.6349839,63.9827956 21.7999691,63.9827956 C22.0660738,63.9827956 22.3180541,63.9285577 22.5530851,63.8381612 L29.054855,70.3399311 C29.1576811,70.4060336 29.368983,70.915079 29.341864,71.0354194 L29.342429,95.0255267 C29.368983,95.7029357 29.6192683,96.3057675 30.0791606,96.8046433 L39.4080818,106.134129 C39.9075226,106.594022 40.5109194,106.844872 41.1883284,106.871426 L52.2144443,106.871426 C52.4161415,107.799685 53.2257554,108.508733 54.2189872,108.533027 C55.3834074,108.561276 56.3506502,107.640362 56.3783342,106.474811 C56.4065831,105.310391 55.4862335,104.343713 54.3212483,104.315464 C53.5381884,104.296255 52.8523048,104.711514 52.4732044,105.33638 L41.1883284,105.33638 C41.069118,105.364064 40.5589426,105.152197 40.4939701,105.049936 L31.1639189,95.72045 C31.0605279,95.6549125 30.850356,95.1441722 30.87578,95.0255267 L30.87578,71.0354194 C30.850356,70.3574455 30.5989406,69.7534837 30.1390483,69.2557378 L23.6853016,62.8014261 C23.8242862,62.5206319 23.9095979,62.2087639 23.9095979,61.8737318 C23.9095979,60.7087466 22.9655192,59.7646679 21.7999691,59.7646679 C20.6349839,59.7646679 19.6909052,60.7087466 19.6909052,61.8737318 Z M17.3259061,68.4574235 C17.6270396,68.4574235 17.9117886,68.3918861 18.1716786,68.2788904 L23.9401068,74.0473186 C24.0440628,74.112856 24.2553646,74.6235964 24.2288106,74.7422418 L24.2288106,97.7091735 C24.2553646,98.3871474 24.50565,98.9905442 24.9666723,99.4888551 L31.0548781,105.578756 C30.9480972,105.821696 30.8836897,106.088931 30.87691,106.37255 C30.848661,107.536971 31.7701406,108.504213 32.9345608,108.533027 C34.098981,108.561276 35.0656589,107.640362 35.0944727,106.474811 C35.1227217,105.310391 34.2018071,104.343713 33.0368219,104.315464 C32.7181741,104.30812 32.4159108,104.375917 32.1418963,104.496822 L26.0503006,98.4040968 C25.9480395,98.3396893 25.7356077,97.8289489 25.7621617,97.7091735 L25.7621617,74.7422418 C25.7356077,74.0648329 25.4858873,73.4614361 25.02656,72.9636902 L19.2564369,67.1941321 C19.3694325,66.9342421 19.43497,66.6489281 19.43497,66.3477947 C19.43497,65.1828095 18.4908913,64.2387308 17.3259061,64.2387308 C16.1609209,64.2387308 15.2168423,65.1828095 15.2168423,66.3477947 C15.2168423,67.5122149 16.1609209,68.4574235 17.3259061,68.4574235 Z M99.6110364,67.2432852 L86.4419579,67.2421553 C85.763419,67.2698392 85.1605872,67.5189946 84.6617114,67.9811469 L73.1593188,79.4835395 C73.0943463,79.5863655 72.5847359,79.7971024 72.4638305,79.7699835 L61.6648358,79.7699835 C61.3653974,79.002743 60.6275357,78.4507592 59.7518194,78.42929 C58.5873992,78.4004761 57.6201564,79.3213907 57.5913425,80.4858109 C57.5636586,81.6502311 58.4845732,82.6174739 59.6489934,82.6468528 C60.5603033,82.668887 61.3433632,82.1061686 61.6580561,81.3044644 L72.4638305,81.3044644 C73.1429344,81.2779105 73.7457662,81.0270601 74.2435121,80.5677328 L85.7475996,69.0642102 C85.8114421,68.9608192 86.3227475,68.7495173 86.4419579,68.7760713 L99.6042567,68.7760713 C99.9042601,69.5444417 100.641557,70.0969905 101.517838,70.1184597 C102.681693,70.1472736 103.648936,69.226359 103.677185,68.0608088 C103.704869,66.8958236 102.784519,65.9285808 101.620099,65.9008969 C101.602585,65.9003319 101.585635,65.9003319 101.568686,65.9003319 C100.67941,65.9003319 99.9189496,66.4562705 99.6110364,67.2432852 Z M117.230449,72.4975832 C117.20333,73.6625684 118.123114,74.6303761 119.28697,74.658625 C119.606182,74.6670997 119.906751,74.5981724 120.18133,74.477832 L136.81768,91.1136172 C136.921071,91.1785897 137.132938,91.68933 137.104124,91.8091054 L137.104124,109.214956 C137.132938,109.334166 136.921071,109.844342 136.81768,109.909314 L128.596117,118.130878 C128.136789,118.629189 127.884809,119.231456 127.858255,119.91056 L127.858255,144.649828 C127.091579,144.948702 126.539596,145.687128 126.517562,146.562845 C126.489878,147.7267 127.411357,148.695073 128.575777,148.722757 C129.739633,148.751005 130.70631,147.829526 130.735689,146.664541 C130.758288,145.754361 130.19557,144.972431 129.394431,144.656043 L129.393866,119.91056 C129.367312,119.791914 129.576919,119.280609 129.680875,119.216766 L137.903569,110.994638 C138.361766,110.495197 138.612616,109.8918 138.639735,109.214956 L138.639735,91.8091054 C138.612616,91.1305665 138.361766,90.5282997 137.903569,90.0288589 L121.269478,73.3964636 C121.376824,73.151828 121.441232,72.8845933 121.448577,72.6009742 C121.47626,71.4371189 120.555911,70.4693112 119.392056,70.4416272 C119.373976,70.4410623 119.356462,70.4410623 119.338948,70.4410623 C118.197127,70.4410623 117.258133,71.3512422 117.230449,72.4975832 Z M105.491895,72.6111438 L91.0431409,72.6111438 C90.365167,72.6388277 89.7623352,72.8879831 89.2634594,73.3490054 L74.4372996,88.1757302 C74.3723271,88.2785562 73.8627167,88.4898581 73.7429413,88.4633041 L70.3581565,88.4633041 C70.058153,87.6954986 69.3208564,87.1429499 68.4440101,87.1214807 C67.2807198,87.0926668 66.3129121,88.0135814 66.2840982,89.1785666 C66.2558493,90.3429868 67.1767638,91.3113596 68.342314,91.3384785 C69.252494,91.3616426 70.0355539,90.7989243 70.3502468,89.9966551 L73.7429413,89.9966551 C74.4214802,89.9706661 75.024312,89.7203808 75.5226229,89.2599235 L90.3482177,74.4337637 C90.4137551,74.3303727 90.9233655,74.1185058 91.0431409,74.1450598 L105.484551,74.1450598 C105.785119,74.9134302 106.521851,75.465979 107.397002,75.4874482 C108.561987,75.5156971 109.52923,74.5942175 109.557479,73.4297973 C109.585728,72.2648121 108.664813,71.2981343 107.499263,71.2698854 C107.481749,71.2693204 107.464234,71.2693204 107.44672,71.2693204 C106.559139,71.2693204 105.800373,71.824694 105.491895,72.6111438 Z M64.1236213,72.7393939 L40.8058381,72.7393939 C40.1272992,72.7653829 39.5233374,73.0162332 39.0255916,73.4772555 L35.5769642,76.9253179 C35.1153769,77.4241937 34.8667865,78.0270255 34.8391026,78.7055644 L34.8391026,90.3333822 C34.0707321,90.6333856 33.5187484,91.3712473 33.4978442,92.2463986 C33.4695952,93.4113838 34.3905098,94.3786266 35.5543651,94.4074405 C36.7193503,94.4356894 37.687158,93.5147748 37.714842,92.3492247 C37.7374411,91.4384797 37.1758527,90.6559848 36.3730186,90.3412919 L36.3730186,78.7055644 C36.3464646,78.586354 36.5577665,78.0756136 36.6605925,78.0100761 L40.1109148,74.5614488 C40.1758873,74.4580578 40.6854977,74.2473209 40.8058381,74.2733099 L64.0671234,74.2733099 C64.3473527,75.0806638 65.0982088,75.6710661 66.003304,75.6942302 C67.1671592,75.7219142 68.134967,74.8009996 68.1626509,73.6360144 C68.1914648,72.4715942 67.2705502,71.5049163 66.10613,71.4761024 C66.0886157,71.4761024 66.0705364,71.4755375 66.0530221,71.4755375 C65.1936901,71.4755375 64.4513087,71.9941875 64.1236213,72.7393939 Z M143.178771,73.8382766 C143.151087,75.0026968 144.072001,75.9699396 145.235857,75.9987535 C145.555069,76.0066632 145.855638,75.9371709 146.129652,75.8179605 L150.113314,79.7999273 C150.21614,79.8654648 150.426877,80.3762051 150.400323,80.4954156 L150.400323,115.86136 C150.426877,115.982266 150.21614,116.491311 150.113314,116.556284 L142.955039,123.713428 C142.496277,124.211739 142.245427,124.815701 142.218873,125.49198 L142.218873,132.77455 C141.451632,133.075118 140.899083,133.81185 140.877049,134.687566 C140.849365,135.851987 141.77028,136.819794 142.935265,136.848043 C144.10025,136.876857 145.066928,135.955943 145.095742,134.790957 C145.116646,133.879647 144.554493,133.096023 143.753919,132.783025 L143.753919,125.49198 C143.7268,125.373335 143.938102,124.863159 144.041493,124.798187 L151.198072,117.641607 C151.657965,117.143861 151.907685,116.539334 151.933109,115.86136 L151.933109,80.4954156 C151.907685,79.8174416 151.657965,79.2146098 151.198072,78.716299 L147.2178,74.7354621 C147.324581,74.4919565 147.388989,74.2241568 147.396899,73.9416676 C147.424017,72.7766824 146.503668,71.8094396 145.339813,71.7811907 C145.321733,71.7811907 145.304219,71.7806257 145.286705,71.7806257 C144.145449,71.7806257 143.20589,72.6913707 143.178771,73.8382766 Z M71.6536055,153.952693 C72.3123809,154.581107 72.4689849,155.532716 72.1250155,156.321728 L86.2461408,170.442853 C87.0015952,170.112467 87.9136536,170.243103 88.5476601,170.846748 C89.390605,171.650542 89.424163,172.985671 88.6203691,173.829415 C87.8165751,174.673159 86.4814462,174.705119 85.6389008,173.901724 C84.9777284,173.273311 84.8223229,172.3229 85.1666919,171.533488 L71.0455665,157.412363 C70.2905116,157.743149 69.3784532,157.611714 68.7444467,157.00727 C67.9003033,156.203876 67.8671448,154.869146 68.6709387,154.025402 C68.6825242,154.013018 68.6945092,154.001033 68.7064942,153.989048 C69.5134842,153.182058 70.8214471,153.161284 71.6536055,153.952693 Z M94.8414898,79.3264755 C94.8138059,80.4903308 95.7341555,81.4581385 96.8980108,81.4863874 C97.1675054,81.4931672 97.4251355,81.4445791 97.6629913,81.3575724 L110.965405,94.6599858 C111.067666,94.7249583 111.279533,95.2356986 111.252414,95.3543441 L111.252414,103.293984 C110.484608,103.595117 109.933189,104.331849 109.91172,105.207 C109.882906,106.37142 110.804951,107.339228 111.968806,107.368607 C113.133791,107.396291 114.101599,106.474811 114.128718,105.310391 C114.151317,104.399646 113.589729,103.616586 112.788025,103.301893 L112.786895,95.3543441 C112.760906,94.6763702 112.51062,94.0735383 112.049598,93.5746625 L98.8172419,80.3428714 C98.9607464,80.0665971 99.050013,79.7592489 99.0579227,79.4287366 C99.0873016,78.2643164 98.165257,77.2976385 97.0008368,77.2688247 C96.9833225,77.2682597 96.9658081,77.2682597 96.9482938,77.2682597 C95.8081677,77.2682597 94.8691738,78.1790046 94.8414898,79.3264755 Z M162.645237,91.8516043 C162.617553,93.0154595 163.537902,93.9832673 164.701758,94.0115162 C164.971252,94.0182959 165.228882,93.9697078 165.466738,93.8827012 L178.769151,107.185115 C178.871413,107.250087 179.083279,107.760827 179.05616,107.879473 L179.05616,115.819112 C178.288355,116.120246 177.736936,116.856978 177.715467,117.732129 C177.686653,118.896549 178.608698,119.864357 179.772553,119.893736 C180.937538,119.92142 181.905346,118.99994 181.932465,117.83552 C181.955064,116.924775 181.393476,116.141715 180.591771,115.827022 L180.590641,107.879473 C180.564652,107.201499 180.314367,106.598667 179.853345,106.099791 L166.620989,92.8680002 C166.764493,92.5917258 166.85376,92.2843776 166.861669,91.9538653 C166.891048,90.7894451 165.969004,89.8227673 164.804584,89.7939534 C164.787069,89.7933884 164.769555,89.7933884 164.752041,89.7933884 C163.611914,89.7933884 162.672921,90.7041334 162.645237,91.8516043 Z M19.2878864,39.6755943 C19.3155703,40.8394495 18.3952207,41.8072573 17.2313655,41.8355062 C16.9618709,41.8422859 16.7042408,41.7936978 16.4663849,41.7066911 L3.16397153,55.0091045 C3.06171046,55.074077 2.84984361,55.5848174 2.87696257,55.7034628 L2.87696257,63.6431025 C3.64476804,63.9442359 4.19618683,64.6809675 4.217656,65.5561189 C4.2464699,66.7205391 3.32442536,67.6883469 2.16057012,67.7177257 C0.995584927,67.7454097 0.0277771494,66.8239301 0.000658192451,65.6595099 C-0.0219409384,64.7487649 0.539647463,63.9657051 1.34135163,63.6510122 L1.34248159,55.7034628 C1.36847059,55.0254889 1.61875596,54.4226571 2.07977823,53.9237813 L15.3121343,40.6919902 C15.1686298,40.4157158 15.0793633,40.1083676 15.0714536,39.7778553 C15.0420747,38.6134351 15.9641192,37.6467573 17.1285394,37.6179434 C17.1460538,37.6173784 17.1635681,37.6173784 17.1810824,37.6173784 C18.3212086,37.6173784 19.2602025,38.5281234 19.2878864,39.6755943 Z M105.720711,80.1293096 C105.691898,81.2931649 106.612812,82.2604077 107.777797,82.2897865 C108.143903,82.2982612 108.48515,82.2050398 108.789108,82.0479758 L120.439525,93.6989577 C120.542351,93.7639302 120.753653,94.2741056 120.728229,94.393316 L120.728229,105.267453 C120.753653,105.386663 120.542351,105.897404 120.439525,105.961811 L116.542305,109.859031 C116.477898,109.961292 115.967722,110.172594 115.847947,110.146605 L96.0900918,110.146605 C95.9703164,110.172594 95.4595761,109.961292 95.3957335,109.859031 L81.6616768,96.1244095 C81.8724136,95.8051967 82.0046186,95.4277913 82.0142232,95.0164871 C82.0419071,93.8520669 81.1209925,92.885389 79.9565723,92.8565751 C78.7915871,92.8283262 77.8249093,93.7492408 77.7966604,94.913096 C77.7684115,96.0780812 78.689891,97.045324 79.8537463,97.0741379 C80.0362343,97.0780928 80.2102476,97.0526688 80.380871,97.0131203 L94.3115402,110.944354 C94.8081561,111.404247 95.4126829,111.653402 96.0900918,111.681086 L115.847947,111.681086 C116.525921,111.653402 117.128753,111.404247 117.628193,110.944354 L121.524284,107.047134 C121.984741,106.548259 122.234461,105.944862 122.26158,105.267453 L122.261015,94.393316 C122.234461,93.7147771 121.984741,93.1119453 121.524284,92.6141995 L109.804374,80.8931603 C109.879516,80.6846833 109.932059,80.4654717 109.937144,80.2321357 C109.965393,79.0677155 109.044479,78.1004727 107.880058,78.0722238 C107.862544,78.0716588 107.844465,78.0716588 107.82695,78.0716588 C106.686259,78.0716588 105.74783,78.9818388 105.720711,80.1293096 Z M48.7528224,80.4858109 C48.7240085,81.6502311 49.6449231,82.6174739 50.8099083,82.6468528 C51.1285561,82.6547625 51.4302545,82.5852702 51.7037039,82.4649298 L57.6229813,88.3853371 C57.5162004,88.6282778 57.4517929,88.8960775 57.4450131,89.1785666 C57.4173292,90.3429868 58.3376788,91.3113596 59.503229,91.3384785 C60.6670842,91.3672924 61.633762,90.4469428 61.6625759,89.2813926 C61.6908248,88.1169724 60.7699103,87.1502946 59.6049251,87.1214807 C59.2868423,87.114136 58.9851439,87.1830633 58.7116944,87.3022738 L52.7912871,81.3829964 C52.898068,81.1389258 52.9624755,80.8716911 52.9692553,80.588637 C52.9986341,79.4242168 52.0777196,78.4575389 50.9127344,78.42929 C50.8946551,78.428725 50.8771407,78.428725 50.8590614,78.428725 C49.7189353,78.428725 48.7810714,79.338905 48.7528224,80.4858109 Z M39.8900083,80.4858109 C39.8606294,81.6502311 40.782109,82.6174739 41.9465292,82.6468528 C42.2657419,82.6547625 42.5657454,82.5852702 42.8408898,82.4654948 L48.7601672,88.3853371 C48.6528213,88.6282778 48.5889787,88.8960775 48.582199,89.1785666 C48.5533851,90.3429868 49.4742997,91.3113596 50.6392849,91.3384785 C51.8042701,91.3672924 52.7709479,90.4469428 52.7991968,89.2813926 C52.8268808,88.1169724 51.9065311,87.1502946 50.7421109,87.1214807 C50.4228982,87.114136 50.1223298,87.1830633 49.8483153,87.3022738 L43.928473,81.3829964 C44.0352539,81.1389258 44.0996614,80.8716911 44.1064411,80.588637 C44.135255,79.4242168 43.2143405,78.4575389 42.0499202,78.42929 C42.0318409,78.428725 42.0143266,78.428725 41.9962473,78.428725 C40.8555562,78.428725 39.9171273,79.338905 39.8900083,80.4858109 Z M143.178771,83.0423376 C143.157302,83.9530826 143.718325,84.7361425 144.520029,85.0514003 L144.520029,111.260177 C144.546018,111.378823 144.335846,111.890128 144.23302,111.954536 L135.925015,120.262541 C135.465687,120.760287 135.215402,121.364249 135.188848,122.041658 L135.188848,139.421519 C134.421043,139.722088 133.868494,140.459949 133.847025,141.335666 C133.818776,142.500086 134.73969,143.466764 135.905241,143.495578 C137.069096,143.523826 138.036339,142.602347 138.062893,141.437362 C138.086622,140.527182 137.524468,139.744122 136.723329,139.429429 L136.722199,122.041658 C136.695645,121.922447 136.906382,121.411707 137.010338,121.347299 L145.317779,113.039859 C145.777106,112.540983 146.027391,111.938151 146.055075,111.260177 L146.055075,85.05931 C146.822881,84.7587416 147.374299,84.0214449 147.396899,83.1457286 C147.424017,81.9807434 146.503668,81.0140656 145.339813,80.9858167 C145.321733,80.9852517 145.303654,80.9852517 145.28614,80.9852517 C144.144884,80.9852517 143.20589,81.8959967 143.178771,83.0423376 Z M89.2809737,84.8852967 C89.2538548,86.0502819 90.1742044,87.0175247 91.3391895,87.0457736 C91.7109453,87.0559432 92.0572769,86.959332 92.3657551,86.7977482 L98.6754324,93.1085555 C98.6144147,93.2972582 98.5697815,93.4933057 98.5646967,93.7017826 C98.5370127,94.8662029 99.4579273,95.8340106 100.622348,95.8628245 C101.786768,95.8910734 102.754576,94.9701589 102.782259,93.8046087 C102.809943,92.6401885 101.889594,91.6740756 100.725174,91.6452617 C100.334774,91.6362221 99.9714925,91.7401781 99.6534098,91.9170163 L93.3714164,85.6344579 C93.4431686,85.4305008 93.4928867,85.215809 93.4985365,84.9886877 C93.5273504,83.8237026 92.6058708,82.8564598 91.4414506,82.8287758 C91.4245013,82.8282108 91.4069869,82.8282108 91.3900376,82.8282108 C90.2493465,82.8282108 89.3092226,83.7389558 89.2809737,84.8852967 Z M60.9923198,5.44551564 C60.9652008,6.61050083 61.8855504,7.57774363 63.0505356,7.60599254 C63.4222913,7.61616215 63.768623,7.51955087 64.0771011,7.35796708 L70.3867785,13.6687744 C70.3257608,13.8574771 70.2811275,14.0535246 70.2760427,14.2620015 C70.2483588,15.4264218 71.1692734,16.3942295 72.3336936,16.4230434 C73.4981138,16.4512923 74.4659216,15.5303778 74.4936055,14.3648276 C74.5212894,13.2004074 73.6009398,12.2342945 72.4365196,12.2054806 C72.0461196,12.196441 71.6828386,12.300397 71.3647558,12.4772352 L65.0827625,6.19467682 C65.1545147,5.99071967 65.2042328,5.77602792 65.2098826,5.54890666 C65.2386965,4.38392146 64.3172169,3.41667867 63.1527967,3.38899473 C63.1358473,3.38842975 63.118333,3.38842975 63.1013837,3.38842975 C61.9606925,3.38842975 61.0205687,4.29917472 60.9923198,5.44551564 Z M43.7980819,12.1211803 C43.820116,13.0324902 43.2585276,13.8155501 42.4556935,14.130808 L42.4556935,23.542781 C42.4302695,24.2213199 42.1805491,24.8241517 41.7200918,25.3218976 L31.7504852,35.2920691 C31.2527394,35.7519614 30.6493426,36.0016818 29.9708037,36.0288008 L26.5244362,36.0288008 C26.2238678,36.7966062 25.4865711,37.349155 24.6114198,37.3700592 C23.4464346,37.3994381 22.4791918,36.4773935 22.4515079,35.3124083 C22.422129,34.1474231 23.3430436,33.1813103 24.5080288,33.1530614 C25.4193387,33.1304622 26.2018336,33.6931806 26.5159615,34.4943198 L29.9708037,34.4943198 C30.091144,34.5214387 30.6007544,34.3095719 30.6657269,34.2067458 L40.6347685,24.2377043 C40.7381595,24.1727318 40.9500264,23.6631214 40.9223425,23.542781 L40.9223425,14.1381527 C40.153972,13.8375843 39.6019882,13.1002876 39.581084,12.2240063 C39.5517052,11.0595861 40.4726198,10.0923433 41.6381699,10.0646594 C41.6562492,10.0646594 41.6737636,10.0640944 41.6918429,10.0640944 C42.831969,10.0640944 43.7703979,10.9748394 43.7980819,12.1211803 Z M83.5588738,89.8684051 C83.5306249,91.0328253 84.4515395,92.0006331 85.6165246,92.029447 C85.9346074,92.0373567 86.2368708,91.9678643 86.5097553,91.8486539 L92.8810152,98.2199139 C92.7742344,98.4639845 92.7109568,98.7306542 92.7030471,99.0131434 C92.6753632,100.177564 93.5962777,101.145936 94.760698,101.174185 C95.9251182,101.202434 96.891231,100.28152 96.9206099,99.1165344 C96.9488588,97.9521142 96.0273792,96.9854363 94.863524,96.9560575 C94.5448763,96.9487128 94.2431779,97.0176401 93.9702934,97.1374155 L87.5984684,90.7661555 C87.7052493,90.5220849 87.7690919,90.2542852 87.7770016,89.9712311 C87.8046855,88.8068109 86.8832059,87.8401331 85.7193507,87.8118842 C85.7018364,87.8113192 85.684322,87.8113192 85.6668077,87.8113192 C84.5255516,87.8113192 83.5865577,88.7214992 83.5588738,89.8684051 Z M43.5962658,94.1000923 C43.5680169,95.2645125 44.4889314,96.2323203 45.6539166,96.2611342 C46.5646616,96.2831684 47.3471565,95.72045 47.6624144,94.9187458 L68.9496657,94.9187458 C69.0688761,94.8916269 69.5790515,95.1040587 69.643459,95.2063198 L90.7985053,116.361366 C90.9013314,116.425774 91.1115033,116.936514 91.0843843,117.055724 L91.0843843,148.459477 C91.1115033,149.137451 91.3623537,149.740847 91.822246,150.239723 L108.713966,167.130879 C108.607185,167.374949 108.542213,167.641619 108.535433,167.925238 C108.507749,169.089093 109.428664,170.055771 110.593649,170.08515 C111.758069,170.113399 112.724747,169.191919 112.753561,168.027499 C112.781245,166.862514 111.86146,165.895836 110.69591,165.867022 C110.377262,165.859677 110.076129,165.92804 109.802114,166.04838 L92.9081342,149.153835 C92.8036132,149.088862 92.5934413,148.579252 92.6199953,148.459477 L92.6199953,117.055724 C92.5934413,116.378315 92.3431559,115.774919 91.8826986,115.276043 L70.7282173,94.1209965 C70.2310364,93.6611042 69.6270746,93.4119488 68.9496657,93.3848298 L47.6697591,93.3848298 C47.3703206,92.6170244 46.632459,92.0644756 45.7561777,92.0435714 C45.7386634,92.0430064 45.721149,92.0424415 45.7036347,92.0424415 C44.5635086,92.0424415 43.6239497,92.9531864 43.5962658,94.1000923 Z M104.165891,99.2843329 C104.157982,99.6029807 104.226344,99.9041141 104.345554,100.177564 L101.282242,103.243136 C101.038172,103.13579 100.770937,103.071947 100.488448,103.064603 C99.3240274,103.036919 98.3562197,103.957833 98.3285357,105.121688 C98.3002868,106.286674 99.2212014,107.253916 100.385057,107.28273 C101.550042,107.310979 102.517285,106.3895 102.546099,105.224514 C102.552313,104.905867 102.484516,104.604168 102.36474,104.330154 L105.429183,101.266842 C105.672688,101.373623 105.941053,101.43803 106.222412,101.445375 C107.387397,101.473624 108.35464,100.552144 108.383454,99.387159 C108.412268,98.2221738 107.490788,97.2560609 106.325803,97.227247 C106.308854,97.2266821 106.291339,97.2266821 106.27439,97.2266821 C105.132569,97.2266821 104.19414,98.137427 104.165891,99.2843329 Z M72.1699685,126.416849 C72.1620588,126.735497 72.2304212,127.036631 72.3496316,127.31008 L69.2863194,130.375652 C69.0422488,130.268306 68.7750141,130.204464 68.4925249,130.197119 C67.3281047,130.169435 66.3602969,131.09035 66.332613,132.254205 C66.3043641,133.41919 67.2252787,134.386433 68.3891339,134.415247 C69.5541191,134.443496 70.5213619,133.522016 70.5501758,132.357031 C70.5563905,132.038383 70.4885931,131.736685 70.3688178,131.46267 L73.4332599,128.399358 C73.6767655,128.506139 73.9451302,128.570547 74.2264894,128.577891 C75.3914746,128.60614 76.3587174,127.684661 76.3875313,126.519675 C76.4163452,125.35469 75.4948656,124.388577 74.3298804,124.359764 C74.3129311,124.359199 74.2954167,124.359199 74.2784674,124.359199 C73.1366463,124.359199 72.1982174,125.269944 72.1699685,126.416849 Z M54.9702198,7.14029549 C54.9623101,7.45894324 55.0306725,7.76007666 55.1498829,8.03352614 L52.0865707,11.0990982 C51.8425001,10.9917524 51.5752654,10.9279098 51.2927762,10.9205651 C50.128356,10.8928812 49.1605482,11.8137957 49.1328643,12.977651 C49.1046154,14.1426362 50.02553,15.109879 51.1893852,15.1386929 C52.3543704,15.1669418 53.3216132,14.2454622 53.3504271,13.080477 C53.3566419,12.7618293 53.2888445,12.4601309 53.1690691,12.1861164 L56.2335112,9.12280425 C56.4770168,9.22958514 56.7453815,9.29399266 57.0267407,9.30133738 C58.1917259,9.32958629 59.1589687,8.40810673 59.1877826,7.24312154 C59.2165965,6.07813635 58.2951169,5.1120235 57.1301317,5.08320961 C57.1131824,5.08264463 57.0956681,5.08264463 57.0787187,5.08264463 C55.9368976,5.08264463 54.9984687,5.9933896 54.9702198,7.14029549 Z M163.399972,146.92465 C163.392062,146.606002 163.460425,146.304869 163.579635,146.031419 L160.516323,142.965847 C160.272252,143.073193 160.005017,143.137035 159.722528,143.14438 C158.558108,143.172064 157.5903,142.251149 157.562616,141.087294 C157.534367,139.922309 158.455282,138.955066 159.619137,138.926252 C160.784122,138.898003 161.751365,139.819483 161.780179,140.984468 C161.786394,141.303116 161.718597,141.604814 161.598821,141.878829 L164.663263,144.942141 C164.906769,144.83536 165.175134,144.770953 165.456493,144.763608 C166.621478,144.735359 167.588721,145.656839 167.617535,146.821824 C167.646349,147.986809 166.724869,148.952922 165.559884,148.981736 C165.542934,148.982301 165.52542,148.982301 165.508471,148.982301 C164.36665,148.982301 163.428221,148.071556 163.399972,146.92465 Z M101.764237,188.485289 C101.756327,188.166641 101.824689,187.865507 101.9439,187.592058 L98.8805874,184.526486 C98.6365168,184.633832 98.3692821,184.697674 98.086793,184.705019 C96.9223727,184.732703 95.954565,183.811788 95.926881,182.647933 C95.8986321,181.482948 96.8195467,180.515705 97.9834019,180.486891 C99.1483871,180.458642 100.11563,181.380122 100.144444,182.545107 C100.150659,182.863755 100.082861,183.165453 99.9630858,183.439468 L103.027528,186.50278 C103.271034,186.395999 103.539398,186.331591 103.820757,186.324247 C104.985743,186.295998 105.952985,187.217477 105.981799,188.382462 C106.010613,189.547448 105.089134,190.513561 103.924148,190.542374 C103.907199,190.542939 103.889685,190.542939 103.872735,190.542939 C102.730914,190.542939 101.792485,189.632194 101.764237,188.485289 Z M89.5183325,167.054956 C89.5104228,166.736309 89.5787852,166.435175 89.6979956,166.161726 L86.6346834,163.096154 C86.3906128,163.2035 86.1233781,163.267342 85.8408889,163.274687 C84.6764687,163.302371 83.7086609,162.381456 83.680977,161.217601 C83.6527281,160.052616 84.5736427,159.085373 85.7374979,159.056559 C86.9024831,159.02831 87.8697259,159.94979 87.8985398,161.114775 C87.9047546,161.433423 87.8369572,161.735121 87.7171818,162.009136 L90.7816239,165.072448 C91.0251296,164.965667 91.2934942,164.901259 91.5748534,164.893915 C92.7398386,164.865666 93.7070814,165.787145 93.7358953,166.95213 C93.7647092,168.117116 92.8432296,169.083228 91.6782444,169.112042 C91.6612951,169.112607 91.6437808,169.112607 91.6268314,169.112607 C90.4850103,169.112607 89.5465814,168.201862 89.5183325,167.054956 Z M163.399972,162.172584 C163.392062,161.853936 163.460425,161.552802 163.579635,161.279353 L160.516323,158.213781 C160.272252,158.321127 160.005017,158.384969 159.722528,158.392314 C158.558108,158.419998 157.5903,157.499083 157.562616,156.335228 C157.534367,155.170243 158.455282,154.203 159.619137,154.174186 C160.784122,154.145937 161.751365,155.067417 161.780179,156.232402 C161.786394,156.55105 161.718597,156.852748 161.598821,157.126763 L164.663263,160.190075 C164.906769,160.083294 165.175134,160.018886 165.456493,160.011542 C166.621478,159.983293 167.588721,160.904772 167.617535,162.069758 C167.646349,163.234743 166.724869,164.200856 165.559884,164.22967 C165.542934,164.230234 165.52542,164.230234 165.508471,164.230234 C164.36665,164.230234 163.428221,163.31949 163.399972,162.172584 Z M80.4578899,7.9990299 C80.4657996,7.68038216 80.3974373,7.37924874 80.2782269,7.10579926 L83.341539,4.04022716 C83.5856097,4.14757303 83.8528444,4.21141557 84.1353335,4.21876029 C85.2997537,4.24644423 86.2675615,3.32552965 86.2952454,2.16167441 C86.3234944,0.996689215 85.4025798,0.0294464154 84.2387245,0.000632523572 C83.0737393,-0.02761639 82.1064965,0.893863169 82.0776826,2.05884836 C82.0714679,2.37749611 82.1392653,2.6791945 82.2590407,2.95320897 L79.1945985,6.01652115 C78.9510929,5.90974026 78.6827282,5.84533273 78.401369,5.83798802 C77.2363838,5.8097391 76.269141,6.73121866 76.2403272,7.89620386 C76.2115133,9.06118905 77.1329928,10.0273019 78.297978,10.0561158 C78.3149274,10.0566808 78.3324417,10.0566808 78.349391,10.0566808 C79.4912121,10.0566808 80.429641,9.14593579 80.4578899,7.9990299 Z M153.234683,169.784924 C153.226773,170.103571 153.295135,170.404705 153.414346,170.678154 L150.351034,173.743726 C150.106963,173.63638 149.839728,173.572538 149.557239,173.565193 C148.392819,173.537509 147.425011,174.458424 147.397327,175.622279 C147.369078,176.787264 148.289993,177.754507 149.453848,177.783321 C150.618833,177.81157 151.586076,176.89009 151.61489,175.725105 C151.621105,175.406457 151.553307,175.104759 151.433532,174.830745 L154.497974,171.767432 C154.74148,171.874213 155.009844,171.938621 155.291204,171.945965 C156.456189,171.974214 157.423432,171.052735 157.452245,169.88775 C157.481059,168.722764 156.55958,167.756652 155.394595,167.727838 C155.377645,167.727273 155.360131,167.727273 155.343182,167.727273 C154.20136,167.727273 153.262932,168.638018 153.234683,169.784924 Z M160.353497,53.9619173 C160.361406,54.280565 160.293044,54.5816985 160.173834,54.8551479 L163.237146,57.92072 C163.481216,57.8133742 163.748451,57.7495316 164.03094,57.7421869 C165.195361,57.714503 166.163168,58.6354176 166.190852,59.7992728 C166.219101,60.964258 165.298187,61.9315008 164.134331,61.9603147 C162.969346,61.9885636 162.002103,61.067084 161.973289,59.9020988 C161.967075,59.5834511 162.034872,59.2817527 162.154647,59.0077382 L159.090205,55.9444261 C158.8467,56.0512069 158.578335,56.1156145 158.296976,56.1229592 C157.131991,56.1512081 156.164748,55.2297285 156.135934,54.0647433 C156.10712,52.8997582 157.0286,51.9336453 158.193585,51.9048314 C158.210534,51.9042664 158.228048,51.9042664 158.244998,51.9042664 C159.386819,51.9042664 160.325248,52.8150114 160.353497,53.9619173 Z M166.476449,113.150453 C166.484358,113.469101 166.415996,113.770235 166.296786,114.043684 L169.360098,117.109256 C169.604168,117.00191 169.871403,116.938068 170.153892,116.930723 C171.318313,116.903039 172.28612,117.823954 172.313804,118.987809 C172.342053,120.152794 171.421139,121.120037 170.257283,121.148851 C169.092298,121.1771 168.125055,120.25562 168.096241,119.090635 C168.090027,118.771987 168.157824,118.470289 168.277599,118.196274 L165.213157,115.132962 C164.969652,115.239743 164.701287,115.304151 164.419928,115.311495 C163.254943,115.339744 162.2877,114.418265 162.258886,113.253279 C162.230072,112.088294 163.151552,111.122181 164.316537,111.093367 C164.333486,111.092803 164.351,111.092803 164.36795,111.092803 C165.509771,111.092803 166.4482,112.003547 166.476449,113.150453 Z M176.953691,84.2270723 C176.945781,84.5457201 177.014144,84.8468535 177.133354,85.120303 L174.070042,88.1858751 C173.825971,88.0785292 173.558736,88.0146867 173.276247,88.007342 C172.111827,87.979658 171.144019,88.9005726 171.116335,90.0644278 C171.088086,91.229413 172.009001,92.1966558 173.172856,92.2254697 C174.337841,92.2537186 175.305084,91.3322391 175.333898,90.1672539 C175.340113,89.8486061 175.272316,89.5469077 175.15254,89.2728933 L178.216982,86.2095811 C178.460488,86.316362 178.728853,86.3807695 179.010212,86.3881142 C180.175197,86.4163631 181.14244,85.4948836 181.171254,84.3298984 C181.200068,83.1649132 180.278588,82.1988004 179.113603,82.1699865 C179.096653,82.1694215 179.079139,82.1694215 179.06219,82.1694215 C177.920369,82.1694215 176.98194,83.0801665 176.953691,84.2270723 Z M16.0429084,47.8389653 C16.0349987,48.157613 16.1033611,48.4587465 16.2225715,48.7321959 L13.1592593,51.797768 C12.9151887,51.6904222 12.647954,51.6265796 12.3654648,51.6192349 C11.2010446,51.591551 10.2332369,52.5124655 10.2055529,53.6763208 C10.177304,54.841306 11.0982186,55.8085488 12.2620738,55.8373627 C13.427059,55.8656116 14.3943018,54.944132 14.4231157,53.7791468 C14.4293305,53.4604991 14.3615331,53.1588007 14.2417577,52.8847862 L17.3061998,49.821474 C17.5497055,49.9282549 17.8180701,49.9926625 18.0994293,50.0000072 C19.2644145,50.0282561 20.2316573,49.1067765 20.2604712,47.9417913 C20.2892851,46.7768061 19.3678055,45.8106933 18.2028203,45.7818794 C18.185871,45.7813144 18.1683567,45.7813144 18.1514073,45.7813144 C17.0095862,45.7813144 16.0711573,46.6920594 16.0429084,47.8389653 Z M8.8994644,33.5520773 C8.8915547,33.870725 8.95991707,34.1718584 9.07912749,34.4453079 L6.01581531,37.51088 C5.77174469,37.4035341 5.50450997,37.3396916 5.22202084,37.3323469 C4.05760062,37.3046629 3.08979284,38.2255775 3.06210891,39.3894328 C3.03385999,40.554418 3.95477457,41.5216608 5.11862981,41.5504747 C6.28361501,41.5787236 7.25085781,40.657244 7.2796717,39.4922588 C7.28588646,39.1736111 7.21808907,38.8719127 7.09831367,38.5978982 L10.1627558,35.534586 C10.4062614,35.6413669 10.6746261,35.7057744 10.9559853,35.7131192 C12.1209705,35.7413681 13.0882133,34.8198885 13.1170272,33.6549033 C13.1458411,32.4899181 12.2243615,31.5238053 11.0593763,31.4949914 C11.042427,31.4944264 11.0249127,31.4944264 11.0079633,31.4944264 C9.86614222,31.4944264 8.92771331,32.4051714 8.8994644,33.5520773 Z M39.2510179,99.4730357 C39.223334,100.638021 40.1436836,101.605829 41.3081038,101.634078 C42.473089,101.662891 43.4403318,100.741412 43.4680157,99.5764267 L43.4680157,100.352142 L66.7123517,100.352142 C66.8315621,100.325588 67.3423025,100.53576 67.407275,100.639151 L85.4289519,118.661958 C85.5323429,118.72806 85.7436448,119.237671 85.7153958,119.357446 L85.7153958,150.760068 C85.7436448,151.439172 85.9928002,152.042004 86.4532575,152.540315 L104.878894,170.965386 C104.771548,171.208892 104.70827,171.476126 104.700926,171.759181 C104.673242,172.923601 105.593026,173.892538 106.758012,173.919657 C107.922997,173.948471 108.889675,173.027557 108.918488,171.862572 C108.946172,170.697586 108.025823,169.730909 106.860273,169.703225 C106.541625,169.694185 106.241621,169.763677 105.966477,169.884018 L87.5380157,151.455556 C87.4346247,151.389454 87.2244528,150.878714 87.2504418,150.760068 L87.2504418,119.357446 C87.2244528,118.679472 86.9736025,118.076075 86.5137101,117.577199 L68.4925982,99.5543925 C67.9937224,99.0939353 67.3903256,98.8447798 66.7123517,98.8165309 L43.4680157,98.8165309 L43.4680157,99.4724707 C43.4408967,98.3549437 42.5414513,97.4447637 41.4114948,97.4165148 C41.3939805,97.4159498 41.3764661,97.4159498 41.3595168,97.4159498 C40.2182607,97.4159498 39.2798318,98.3266948 39.2510179,99.4730357 Z M156.60209,99.5317934 C156.580055,100.442538 157.141079,101.226163 157.943913,101.540856 L157.943913,119.852367 C157.970467,119.971012 157.7586,120.481188 157.654644,120.547855 L155.482868,122.720762 C155.247837,122.621325 154.994161,122.560308 154.725797,122.553528 C153.561376,122.525279 152.593004,123.445064 152.56532,124.610049 C152.537071,125.775599 153.457985,126.742842 154.622406,126.771091 C155.787391,126.799905 156.754634,125.878425 156.782883,124.71344 C156.790227,124.382363 156.715085,124.07106 156.58514,123.788006 L158.740532,121.632613 C159.200425,121.133173 159.44958,120.529211 159.478394,119.852367 L159.478394,101.548201 C160.245634,101.248762 160.798183,100.510901 160.819652,99.6351844 C160.847336,98.4707642 159.927552,97.5035214 158.762566,97.4747075 C158.745052,97.4747075 158.728103,97.4741425 158.710588,97.4741425 C157.568767,97.4741425 156.629773,98.3848875 156.60209,99.5317934 Z M126.81587,99.6668232 C126.794401,100.573613 127.35034,101.354413 128.145829,101.671931 L128.145829,106.668599 C128.173513,106.788939 127.961646,107.299115 127.85769,107.364652 L120.71241,114.508802 C120.647437,114.611628 120.136697,114.823495 120.019182,114.796941 L103.023505,114.796941 C102.732541,114.011057 101.988465,113.440993 101.100319,113.420089 C99.9358989,113.39071 98.9686561,114.311625 98.9398422,115.47661 C98.9115933,116.64103 99.8325079,117.609403 100.996928,117.637087 C101.894679,117.659121 102.669264,117.113917 102.993561,116.331422 L120.019182,116.331422 C120.697155,116.303173 121.299422,116.054018 121.798298,115.594691 L128.943013,108.448845 C129.402341,107.949405 129.652626,107.347138 129.68031,106.668599 L129.68031,101.68775 C130.453765,101.389442 131.011964,100.651015 131.033998,99.7702142 C131.061682,98.605794 130.140767,97.6385512 128.976347,97.6108673 C128.958833,97.6103023 128.940753,97.6103023 128.923804,97.6103023 C127.782548,97.6097373 126.844684,98.5210473 126.81587,99.6668232 Z M62.0682303,106.37255 C62.0603206,106.690633 62.129813,106.992896 62.2495883,107.266346 L58.8422044,110.674295 C58.7766669,110.777121 58.2664915,110.988988 58.1472811,110.961869 L40.3837993,110.961869 C40.0843608,110.194063 39.3464992,109.64208 38.4702179,109.62061 C37.3057977,109.592361 36.3379899,110.512146 36.310306,111.677131 C36.2814921,112.842116 37.2024067,113.809359 38.3668269,113.837608 C39.2775719,113.860207 40.0611967,113.298054 40.3758896,112.495785 L58.1472811,112.495785 C58.8246901,112.469231 59.4275219,112.21951 59.9263977,111.759053 L63.3315217,108.355059 C63.5755924,108.461275 63.8428271,108.525683 64.1253162,108.533027 C65.2897364,108.561276 66.2575442,107.640362 66.2857931,106.474811 C66.314607,105.310391 65.3931274,104.343713 64.2281423,104.315464 C64.2111929,104.314899 64.1936786,104.314899 64.1767292,104.314899 C63.0360381,104.314899 62.0970442,105.224514 62.0682303,106.37255 Z M71.6135382,110.112706 C71.2327429,110.111577 70.8474277,110.258471 70.5570288,110.548305 L69.2039059,111.901993 C68.9609652,111.795212 68.6937305,111.731369 68.4106764,111.724024 C67.2468212,111.695776 66.2790134,112.61669 66.2501995,113.781675 C66.2225155,114.945531 67.1428652,115.913338 68.3078503,115.942717 C69.4728355,115.969271 70.4395134,115.048922 70.4671973,113.883371 C70.475107,113.564724 70.4067446,113.26359 70.2864042,112.989011 L71.6129732,111.663007 L79.8899049,119.939939 C79.9938609,120.004911 80.2051628,120.516781 80.1774788,120.635427 L80.1774788,152.060083 C79.3791645,152.344832 78.7966719,153.092298 78.7746378,153.990614 C78.7475188,155.155034 79.6678684,156.122842 80.8317237,156.151091 C81.9961439,156.179905 82.9639517,155.25786 82.9916356,154.09344 C83.0136698,153.204729 82.4803303,152.434664 81.7102649,152.105281 L81.7102649,120.635427 C81.6848409,119.957453 81.4339905,119.354056 80.9740982,118.855745 L72.6672227,110.548305 C72.3785188,110.257906 71.9926386,110.112706 71.6174931,110.112706 C71.6157981,110.112706 71.6146682,110.112706 71.6135382,110.112706 Z M64.1549046,120.293897 C64.1464299,120.612545 64.2147923,120.914244 64.3351327,121.187128 L62.8786187,122.644772 C62.8136462,122.749293 62.3023409,122.960595 62.1836954,122.933476 L43.8727497,122.933476 C43.5733112,122.165105 42.8354496,121.612557 41.9602982,121.591087 C40.795313,121.563404 39.8275053,122.484318 39.7998213,123.648173 C39.7715724,124.812594 40.691922,125.780401 41.8569072,125.80865 C42.7670872,125.831249 43.5507121,125.269096 43.864275,124.468522 L62.1836954,124.466827 C62.8611044,124.440273 63.4639362,124.189988 63.963377,123.730095 L65.4170661,122.276406 C65.6611367,122.383187 65.9283714,122.447595 66.2114255,122.454374 C67.3752808,122.483188 68.3430885,121.562274 68.3713375,120.396723 C68.3995864,119.231738 67.4792368,118.26506 66.3148165,118.236812 C66.2967372,118.236247 66.2792229,118.236247 66.2611436,118.236247 C65.1204525,118.236247 64.1825886,119.147556 64.1549046,120.293897 Z M98.9398422,121.393063 C98.9115933,122.556918 99.8325079,123.524726 100.996928,123.55354 C101.907673,123.576139 102.691298,123.013985 103.005991,122.211716 L114.650758,122.211716 C114.769403,122.185162 115.278449,122.395899 115.343986,122.499855 L120.8384,127.993704 C120.942356,128.059241 121.152528,128.568287 121.125974,128.688627 L121.125974,149.740847 C120.359298,150.040286 119.807315,150.778712 119.78528,151.653864 C119.757597,152.817719 120.677946,153.785527 121.842366,153.814341 C123.007352,153.84259 123.974029,152.92111 124.003408,151.756125 C124.024877,150.84538 123.463289,150.06345 122.66215,149.748757 L122.660455,128.688627 C122.635031,128.010088 122.383051,127.407821 121.923723,126.90951 L116.429875,121.413402 C115.929869,120.954639 115.328167,120.704354 114.650758,120.6778 L103.013901,120.6778 C102.713332,119.90943 101.976035,119.357446 101.100319,119.335977 C101.082805,119.335412 101.065855,119.335412 101.048341,119.335412 C99.907085,119.335412 98.9680911,120.245592 98.9398422,121.393063 Z M94.9861243,127.962065 C94.9573104,129.12592 95.878225,130.093728 97.0426452,130.121977 C97.9533902,130.144576 98.737015,129.582423 99.0511429,128.780718 L108.063111,128.780718 C108.182887,128.753035 108.693062,128.966031 108.7586,129.067162 L114.511773,134.822031 C114.406122,135.066102 114.34115,135.332771 114.33437,135.615826 C114.306121,136.780811 115.227036,137.748619 116.391456,137.776867 C117.555311,137.806246 118.522554,136.883637 118.550803,135.718652 C118.579052,134.553666 117.658702,133.586989 116.493717,133.559305 C116.175634,133.55196 115.873371,133.620322 115.599921,133.740098 L109.842793,127.982969 C109.343917,127.523077 108.739955,127.273356 108.063111,127.246802 L99.0596176,127.246802 C98.7584842,126.478432 98.0217525,125.927013 97.1460362,125.904414 C97.1285219,125.904414 97.1104426,125.903849 97.0934932,125.903849 C95.9522371,125.903849 95.0138082,126.815159 94.9861243,127.962065 Z M128.760989,170.765898 C128.732175,169.602043 129.653089,168.634235 130.81751,168.605986 C131.728255,168.583387 132.511879,169.145541 132.826007,169.947245 L141.837976,169.947245 C141.957751,169.974929 142.467927,169.761932 142.533464,169.660801 L148.286638,163.905932 C148.180987,163.661862 148.116014,163.395192 148.109235,163.112138 C148.080986,161.947153 149.0019,160.979345 150.16632,160.951096 C151.330176,160.921717 152.297418,161.844326 152.325667,163.009312 C152.353916,164.174297 151.433567,165.140975 150.268582,165.168659 C149.950499,165.176003 149.648235,165.107641 149.374786,164.987866 L143.617657,170.744994 C143.118781,171.204886 142.51482,171.454607 141.837976,171.481161 L132.834482,171.481161 C132.533349,172.249531 131.796617,172.80095 130.920901,172.823549 C130.903386,172.823549 130.885307,172.824114 130.868358,172.824114 C129.727102,172.824114 128.788673,171.912804 128.760989,170.765898 Z M148.476007,128.701057 C148.467532,129.020269 148.53533,129.320838 148.6568,129.594852 L147.798033,130.453054 C147.337576,130.951365 147.08842,131.554197 147.061301,132.232171 L147.061301,150.008647 C147.08842,150.127292 146.876554,150.639163 146.773163,150.703005 L132.66509,164.812208 C132.599553,164.913904 132.090507,165.125771 131.971297,165.099217 L121.173997,165.099217 C120.873429,164.330846 120.135567,163.779992 119.260416,163.758523 C118.09656,163.729709 117.129318,164.651189 117.100504,165.813914 C117.07282,166.979464 117.993169,167.947272 119.158155,167.975521 C120.0689,167.99812 120.851959,167.435967 121.166652,166.634263 L131.971297,166.634263 C132.649271,166.607709 133.252668,166.356293 133.749848,165.895836 L147.858486,151.787764 C148.318943,151.290583 148.569228,150.687186 148.595782,150.008647 L148.595782,132.232171 C148.569228,132.112395 148.7794,131.60222 148.883356,131.537812 L149.738168,130.683 C149.981674,130.790346 150.248909,130.854754 150.531963,130.861533 C151.696948,130.890347 152.664756,129.968868 152.69244,128.803883 C152.720124,127.638332 151.799209,126.671655 150.635354,126.644536 C150.617275,126.643971 150.59976,126.643971 150.581681,126.643971 C149.44099,126.643971 148.503126,127.554151 148.476007,128.701057 Z M102.016714,134.687566 C101.988465,135.851987 102.908815,136.819794 104.0738,136.848043 C104.391883,136.856518 104.693016,136.787591 104.96816,136.66725 L114.511773,146.212558 C114.406122,146.455499 114.34115,146.723298 114.33437,147.005223 C114.306121,148.169643 115.227036,149.137451 116.391456,149.166264 C117.555311,149.195078 118.522554,148.273599 118.550803,147.109179 C118.579052,145.943628 117.658702,144.976951 116.493717,144.948702 C116.175634,144.940792 115.873371,145.009154 115.600486,145.129495 L106.055744,135.585317 C106.161959,135.341811 106.226367,135.073446 106.233712,134.790957 C106.262526,133.625972 105.341611,132.659294 104.176626,132.631045 C104.158547,132.63048 104.141032,132.629915 104.122953,132.629915 C102.982827,132.629915 102.044398,133.541225 102.016714,134.687566 Z M94.9861243,134.687566 C94.9640901,135.598876 95.5245486,136.381371 96.3262527,136.696629 L96.3262527,146.15945 C96.3528067,146.836294 96.6036571,147.439126 97.0641144,147.938002 L108.950127,159.82458 C109.449568,160.285037 110.051835,160.534757 110.730374,160.561311 L128.455437,160.561311 C129.133411,160.534757 129.736808,160.285037 130.235684,159.82458 L142.02904,148.030093 C142.274241,148.137439 142.54204,148.201847 142.825094,148.208626 C143.98895,148.236875 144.956192,147.315396 144.983311,146.15041 C145.012125,144.986555 144.091776,144.019312 142.92679,143.990499 C141.76237,143.961685 140.795692,144.883729 140.766879,146.047584 C140.758969,146.366797 140.827896,146.667366 140.948237,146.94025 L129.14923,158.739821 C129.084823,158.842647 128.574647,159.053384 128.455437,159.02796 L110.730374,159.02796 C110.610598,159.053384 110.099858,158.842647 110.036015,158.739821 L98.1483077,146.853243 C98.0449166,146.788271 97.8341797,146.277531 97.8618637,146.15945 L97.8618637,136.704539 C98.6285392,136.4051 99.1810879,135.667239 99.2031221,134.790957 C99.230806,133.625972 98.3098915,132.659294 97.1460362,132.631045 C97.1279569,132.63048 97.1098776,132.629915 97.0923633,132.629915 C95.9516721,132.629915 95.0138082,133.541225 94.9861243,134.687566 Z M102.016714,143.983154 C101.988465,145.148704 102.908815,146.115382 104.0738,146.143631 C104.391883,146.15154 104.693581,146.083743 104.96929,145.962838 L109.865392,150.860069 C109.757481,151.10301 109.693639,151.370245 109.686294,151.653864 C109.659175,152.817719 110.579525,153.785527 111.74338,153.814341 C112.908365,153.84259 113.876173,152.92111 113.903857,151.756125 C113.932106,150.591705 113.011191,149.625027 111.845641,149.595648 C111.528123,149.588868 111.226425,149.658361 110.95128,149.777006 L106.055744,144.880339 C106.161959,144.636834 106.226367,144.369599 106.233712,144.086545 C106.262526,142.92269 105.341611,141.954882 104.176626,141.926068 C104.159111,141.926068 104.142162,141.925503 104.124648,141.925503 C102.983392,141.925503 102.044398,142.836248 102.016714,143.983154 Z"></path>
                                </g>
                            </g>
                        </g>
                    </g>
                </g>
            </g>
        </g>
    </g>
</svg>