<?xml version="1.0" encoding="UTF-8"?>
<svg width="1110px" height="80px" viewBox="0 0 1110 80" version="1.1" xmlns="http://www.w3.org/2000/svg" xmlns:xlink="http://www.w3.org/1999/xlink">
    <title>hair</title>
    <defs>
        <rect id="path-1" x="0" y="0" width="1110" height="80" rx="6"></rect>
    </defs>
    <g id="Page-1" stroke="none" stroke-width="1" fill="none" fill-rule="evenodd">
        <g id="Home" transform="translate(-405.000000, -159.000000)">
            <g id="hair" transform="translate(405.000000, 159.000000)">
                <mask id="mask-2" fill="white">
                    <use xlink:href="#path-1"></use>
                </mask>
                <use id="Mask" fill="#34CCBF" xlink:href="#path-1"></use>
                <g id="shape" mask="url(#mask-2)" fill="#6BD6CD">
                    <g transform="translate(1061.000000, 68.000000) scale(-1, 1) translate(-1061.000000, -68.000000) translate(1029.000000, 32.000000)" id="Shape">
                        <path d="M63.3259688,0.6789375 C61.9131094,-0.737859375 60.136875,0.37378125 57.6447188,1.20445312 C52.9308281,2.77495312 48.5807344,5.4635625 45.06525,8.9791875 L30.124125,23.9203125 L23.4670781,30.5773594 C23.1250781,28.1408906 22.0325625,25.7902031 20.1628125,23.9203125 C15.5770312,19.3345312 8.15048437,19.3298906 3.56189062,23.9203125 C-1.02684375,28.5075 -1.0276875,35.9333437 3.56189062,40.5212344 C8.13895312,45.0982969 15.586875,45.0966094 20.1628125,40.5220781 C20.1628125,40.5212344 20.1628125,40.5212344 20.1628125,40.5212344 L31.7839219,28.9002656 L35.1037969,32.2208438 L23.4826875,43.8420938 C19.422,47.9027812 18.9729844,54.2197969 22.1184844,58.7898281 C19.7205469,62.2762031 19.3422656,66.8280937 21.3000469,70.7083594 C21.8864531,71.8725937 23.2990313,72.3300469 24.4532813,71.7478594 C25.6104844,71.1639844 26.0749688,69.7523906 25.4910938,68.594625 C24.4368281,66.5031094 24.5151563,64.0875937 25.5829219,62.1004219 C30.1457813,64.9531406 36.1611563,64.3670156 40.0834688,60.4431563 L40.0834688,60.4423125 C44.6715,55.8558281 44.6738906,48.4292813 40.0834688,43.8420938 C38.26125,42.0193125 35.9412187,40.8833438 33.4326094,40.5319219 L40.0834688,33.8810625 L55.0244531,18.9400781 C58.5383906,15.4268438 61.2271406,11.07675 62.7998906,6.35976563 C63.633375,3.86029687 64.7416406,2.09292187 63.3259688,0.6789375 Z M16.8432187,37.2005156 C14.0949844,39.9472031 9.6271875,39.9465 6.88190625,37.2013594 C4.129875,34.4510156 4.12692187,29.993625 6.88190625,27.2400469 C9.62789062,24.4925156 14.0824687,24.4826719 16.8432187,27.2400469 C19.5883594,29.9860313 19.5883594,34.4545313 16.8432187,37.2005156 Z M36.7640156,47.1625313 C39.5161875,49.9116094 39.519,54.3695625 36.7640156,57.1214531 C36.7640156,57.1222969 36.7640156,57.1222969 36.7640156,57.1222969 C34.0180312,59.8698281 29.5642969,59.8793906 26.8039687,57.1232813 C26.8039687,57.1232813 26.803125,57.1220156 26.8028437,57.1215938 C26.8028437,57.1215938 26.8018594,57.1211719 26.8014375,57.12075 C24.0575625,54.3744844 24.0579844,49.9075313 26.8028437,47.1619688 C29.5572656,44.4102187 34.0122656,44.4074063 36.7640156,47.1625313 Z"></path>
                    </g>
                </g>
                <path d="M713.999892,-27 C717.1582,-27 719.727477,-24.4109141 719.727477,-21.2282559 L719.727477,-21.2282559 L719.727477,-19.9443145 C721.05374,-18.9335938 722.112761,-17.5870801 722.765258,-16.0652949 L722.765258,-16.0652949 L739.409756,22.2501348 C741.412759,26.8495996 738.072287,32 733.091882,32 C732.325032,32 731.632627,31.5377949 731.33428,30.8264531 L731.33428,30.8264531 L717.060085,-3.13703516 C711.027979,-1.07549219 704.453954,-5.53875 704.453954,-12.25 C704.453954,-15.348998 705.920185,-18.1527656 708.272306,-19.9456973 L708.272306,-19.9456973 L708.272306,-21.2282559 C708.272306,-24.4109141 710.841584,-27 713.999892,-27 Z M701.504111,-7.47641602 C702.821226,-3.94448242 705.540534,-1.05451953 709.469465,0.376806641 L709.469465,0.376806641 L696.665618,30.8269141 C696.367272,31.5377949 695.674866,32 694.908016,32 C689.925324,32 686.588283,26.8481016 688.589913,22.2489824 L688.589913,22.2489824 Z M712.376312,3.32669141 C713.649629,3.86956055 716.021877,4.51648633 715.145821,6.59854102 L715.145821,6.59854102 L705.816124,28.7748203 C704.942126,30.8543398 702.834605,29.5901035 701.561859,29.0464277 L701.561859,29.0464277 Z" id="Shape" fill="#6BD6CD" mask="url(#mask-2)"></path>
                <path d="M325.992523,75.0535279 C324.756162,78.5818369 322.771681,82.5591416 320.423184,85.6041545 C315.191287,92.3876052 307.192179,96.1294421 305.002205,94.4406867 C302.81254,92.7516223 308.834892,83.4914335 314.06648,76.7079828 C315.824763,74.4280858 317.411853,72.4436052 318.875956,70.8416824 L325.992523,75.0535279 Z M341.694703,41.6671588 C335.88248,38.2269185 324.009896,35.5987639 315.870188,36.0480687 C315.828471,36.1299571 315.784282,36.2112275 315.737312,36.2909528 L309.20169,47.3329099 C309.179132,47.3706094 309.154411,47.4064549 309.131235,47.4435365 C311.756917,52.688103 316.783939,58.8380773 321.568385,63.1247039 L319.410239,66.7707468 C319.232866,67.0701803 319.183115,67.4209099 319.269329,67.7577339 C319.355544,68.094867 319.568454,68.3779227 319.867887,68.5552961 L327.809827,73.256 C328.010995,73.375279 328.239973,73.4380086 328.471115,73.4380086 C328.937724,73.4380086 329.357673,73.1988326 329.594686,72.7983519 L331.85666,68.9764807 C338.063184,70.0367039 343.020368,66.0751588 345.732574,61.4931159 C349.160454,55.7012876 350.288351,46.7538197 341.694703,41.6671588 Z M313.241415,33.3469871 L308.507956,24.9396738 C307.824111,23.7252532 306.583424,23 305.188849,23 C303.830428,23 302.606428,23.6983691 301.91393,24.8679828 L292.536935,40.7107639 C291.835784,41.8949013 291.820643,43.3182146 292.495527,44.5174936 C293.171029,45.7170815 294.395956,46.4420258 295.771681,46.4571674 L305.419681,46.5613047 L305.43575,46.5616137 L305.43575,46.5616137 L305.43575,46.5616137 C305.948093,46.5616137 306.428608,46.2875193 306.689724,45.8462489 L313.225347,34.8042918 C313.489862,34.3577682 313.495733,33.799073 313.241415,33.3469871 Z" id="Shape" fill="#6BD6CD" mask="url(#mask-2)" transform="translate(320.144747, 58.922013) scale(-1, 1) translate(-320.144747, -58.922013) "></path>
                <path d="M87.07089,-0.0965741627 C86.5241722,0.449799043 85.7976268,0.750889952 85.0245742,0.750889952 C84.2515215,0.750889952 83.5249761,0.449799043 82.9782584,-0.0965741627 L74.8432919,-8.23154067 C74.4329952,-8.64218182 73.8869665,-8.86817225 73.306488,-8.86817225 C72.7256651,-8.86817225 72.1796364,-8.64218182 71.7693397,-8.23154067 C71.3586986,-7.82124402 71.1323636,-7.27521531 71.1327081,-6.69473684 C71.1327081,-6.11425837 71.3586986,-5.56822967 71.7693397,-5.15793301 L79.9043062,2.97703349 C81.0325359,4.10560766 81.0325359,5.94143541 79.9043062,7.07000957 C79.3575885,7.61638278 78.6310431,7.91747368 77.8579904,7.91747368 C77.0849378,7.91747368 76.3583923,7.61638278 75.8116746,7.07000957 L67.6767081,-1.06495694 C67.2664115,-1.47559809 66.7203828,-1.70158852 66.1399043,-1.70158852 C65.5590813,-1.70158852 65.0130526,-1.47559809 64.602756,-1.06495694 C63.7552919,-0.217492823 63.7552919,1.1615311 64.602756,2.00899522 L72.7377225,10.1439617 C73.2840957,10.6906794 73.5851866,11.4175694 73.5851866,12.1902775 C73.5851866,12.9633301 73.2840957,13.6902201 72.737378,14.2365933 C72.1913493,14.7829665 71.4644593,15.0840574 70.6914067,15.0840574 C69.9183541,15.0840574 69.1918086,14.7829665 68.6450909,14.2365933 L60.5101244,6.10162679 C60.0998278,5.69098565 59.553799,5.46499522 58.9733206,5.46499522 C58.3928421,5.46499522 57.8468134,5.69098565 57.4365167,6.10162679 C57.0258756,6.51192344 56.7998852,7.05795215 56.7998852,7.63843062 C56.7998852,8.21925359 57.0258756,8.7652823 57.4365167,9.17557895 L65.5714833,17.3105455 C66.6997129,18.4391196 66.6997129,20.2749474 65.5714833,21.403177 C65.0247656,21.9495502 64.2978756,22.2506411 63.5251675,22.2506411 C62.7524593,22.2506411 62.0252249,21.9495502 61.4788517,21.403177 L53.3428517,13.2688995 C52.932555,12.8582584 52.3865263,12.6322679 51.8060478,12.6322679 C51.2252249,12.6322679 50.6795407,12.8582584 50.269244,13.2688995 C49.8586029,13.6795407 49.6322679,14.2255694 49.6322679,14.8060478 C49.6322679,15.3868708 49.8586029,15.9328995 50.269244,16.3431962 L58.4042105,24.4781627 C59.5324402,25.6067368 59.5324402,27.4425646 58.4042105,28.5707943 C57.8574928,29.1171675 57.1306029,29.4182584 56.3578947,29.4182584 C55.5851866,29.4182584 54.8579522,29.1171675 54.3115789,28.5707943 L46.1766124,20.4358278 C45.7663158,20.0251866 45.2202871,19.7991962 44.6398086,19.7991962 C44.0589856,19.7991962 43.5133014,20.0251866 43.1030048,20.4358278 C42.2555407,21.2832919 42.2555407,22.6626603 43.1030048,23.5101244 L51.2379713,31.6450909 C51.7843445,32.1918086 52.0854354,32.9183541 52.0854354,33.6914067 C52.0854354,34.4644593 51.7843445,35.1913493 51.2379713,35.7377225 C50.6912536,36.2840957 49.9643636,36.5851866 49.1916555,36.5851866 C48.4189474,36.5851866 47.6917129,36.2840957 47.1453397,35.7377225 L39.0103732,27.602756 C38.6000766,27.1921148 38.0540478,26.9661244 37.4735694,26.9661244 C36.8927464,26.9661244 36.3470622,27.1921148 35.9367656,27.602756 C35.0893014,28.4502201 35.0893014,29.8295885 35.9367656,30.6770526 L44.0717321,38.8120191 C45.1999617,39.9402488 45.1999617,41.7760766 44.0717321,42.9046507 C43.5250144,43.4513684 42.7981244,43.7524593 42.0254163,43.7524593 C41.2523636,43.7524593 40.5254737,43.4513684 39.9791005,42.9046507 L31.844134,34.7700287 C31.4338373,34.3593876 30.8878086,34.1333971 30.3073301,34.1333971 C29.7268517,34.1333971 29.180823,34.3593876 28.7705263,34.7700287 C27.9230622,35.6174928 27.9230622,36.9965167 28.7705263,37.8439809 L36.9054928,45.9789474 C38.033378,47.107177 38.0337225,48.9430048 36.9054928,50.0715789 C36.3587751,50.6182967 35.6322297,50.9193876 34.859177,50.9193876 C34.0861244,50.9193876 33.3592344,50.6182967 32.8128612,50.0715789 L17.4789282,34.7393684 C16.5250144,33.7854545 16,32.5173589 16,31.1686507 C16,29.8199426 16.5253589,28.5515024 17.4789282,27.5975885 L64.5975885,-19.5210718 C65.5515024,-20.4746411 66.8195981,-21 68.1686507,-21 C69.5177033,-21 70.785799,-20.4746411 71.7397129,-19.5210718 L87.07089,-4.18989474 C88.1994641,-3.06097608 88.1994641,-1.22514833 87.07089,-0.0965741627 Z" fill="#6BD6CD" mask="url(#mask-2)"></path>
            </g>
        </g>
    </g>
</svg>