<?xml version="1.0" encoding="UTF-8"?>
<svg width="431px" height="1603px" viewBox="0 0 431 1603" version="1.1" xmlns="http://www.w3.org/2000/svg" xmlns:xlink="http://www.w3.org/1999/xlink">
    <title>Illustration</title>
    <defs>
        <linearGradient x1="52.1120617%" y1="13.9053107%" x2="50%" y2="81.2985503%" id="linearGradient-1">
            <stop stop-color="#FFFFFF" stop-opacity="0" offset="0%"></stop>
            <stop stop-color="#FFFFFF" stop-opacity="0.506009615" offset="37.3155655%"></stop>
            <stop stop-color="#FFFFFF" offset="100%"></stop>
        </linearGradient>
    </defs>
    <g id="Page-1" stroke="none" stroke-width="1" fill="none" fill-rule="evenodd">
        <g id="Quiz_page_q9_1_1920-" transform="translate(-617.000000, -392.000000)">
            <g id="Illustration" transform="translate(617.000000, 392.000000)">
                <path d="M8.17086936,782.573251 C8.17086936,782.573251 16.3203012,760.395847 14.8396914,665.045623 C13.3590816,569.692973 22.2451715,551.95396 25.952774,533.475216 C29.6603764,514.996471 35.5828156,452.16777 39.290418,378.250367 C42.9980205,304.335389 51.1425899,304.335389 60.7774939,286.596377 C70.4099667,268.854939 144.501236,251.853233 154.880092,247.419692 C165.254085,242.983726 177.845346,233.376914 179.260313,225.244714 C180.67528,217.112514 179.260313,178.677987 179.260313,178.677987 C158.449115,159.457085 156.312077,128.041522 156.312077,128.041522 C148.93334,128.533868 148.196682,116.513832 147.948698,112.589615 C147.703146,108.665398 142.78723,91.0039964 143.035213,82.1732958 C143.280766,73.3425951 154.179902,76.464021 154.179902,76.464021 C154.179902,6.90739784 190.278578,0 215.497569,0 C240.718991,0 276.817667,6.90739784 276.817667,76.464021 C276.817667,76.464021 287.714371,73.3425951 287.962355,82.1732958 C288.21277,91.0039964 283.296854,108.665398 283.04887,112.589615 C282.800886,116.513832 282.061797,128.533868 274.685492,128.041522 C274.685492,128.041522 272.550885,159.457085 251.739687,178.677987 C251.739687,178.677987 250.322289,217.112514 251.739687,225.244714 C253.154654,233.376914 265.743484,242.983726 276.119908,247.419692 C286.493902,251.853233 360.587602,268.854939 370.222506,286.596377 C379.854979,304.335389 387.999548,304.335389 391.707151,378.250367 C395.414753,452.16777 401.337192,514.996471 405.044795,533.475216 C408.752397,551.95396 417.640918,569.692973 416.157877,665.045623 C414.677268,760.395847 422.829131,782.573251 422.829131,782.573251 C422.829131,782.573251 436.169206,849.098186 428.758863,864.618003 C421.34609,880.14267 412.455137,891.228947 408.010877,890.49164 C403.564185,889.751909 405.786315,881.62456 405.786315,881.62456 C405.786315,881.62456 387.267753,893.516052 382.821061,890.528021 C378.374369,887.535138 376.888897,889.751909 373.188588,884.578636 C369.483417,879.405364 376.152239,874.229666 376.152239,874.229666 C376.152239,874.229666 371.705547,872.750203 368.741896,869.053969 C365.775814,865.36016 389.489883,852.054688 389.489883,833.573518 C389.489883,815.097199 385.784712,794.401684 391.712013,772.966438 C397.636884,751.528766 365.036725,690.179528 359.848513,625.131632 C354.662732,560.08616 361.333985,560.821041 356.145773,539.385795 C350.95756,517.952974 328.731395,441.8188 328.731395,415.947588 L328.731395,412.991086 C328.731395,412.991086 322.804094,449.211268 313.16919,460.297545 C303.534286,471.386246 298.346073,542.344722 301.312155,551.214228 C304.278237,560.08616 358.370334,680.567865 357.626383,759.65854 C356.884862,838.749216 321.479082,986.581597 323.251437,1012.45523 C325.021362,1038.32402 334.661128,1116.67739 335.397786,1180.2434 C336.134444,1243.80941 292.426066,1393.12125 293.906675,1458.90645 C295.387285,1524.68923 320.581964,1566.82242 313.16919,1578.65085 C305.758847,1590.47929 282.054504,1597.8669 273.900209,1597.8669 C273.900209,1597.8669 267.970477,1605.25695 257.598914,1602.30287 C247.227352,1599.34879 244.26127,1574.21004 246.483401,1546.86664 C248.707962,1519.52081 247.968873,1483.2982 242.780661,1467.77839 C237.592448,1452.25372 261.301654,1431.55578 257.598914,1407.1616 C253.893743,1382.77228 262.048037,1363.5538 251.671613,1298.51318 C241.29762,1233.46286 243.529475,1167.67766 250.193434,1135.89344 C256.854963,1104.1068 242.041571,1034.62536 236.111839,1013.93227 C230.182106,993.231907 215.497569,840.313567 215.497569,840.313567 C215.497569,840.313567 200.815463,993.231907 194.88573,1013.93227 C188.953566,1034.62536 174.142606,1104.1068 180.806566,1135.89344 C187.470525,1167.67766 189.70238,1233.46286 179.323525,1298.51318 C168.949531,1363.5538 177.101394,1382.77228 173.398654,1407.1616 C169.695914,1431.55578 193.40512,1452.25372 188.216908,1467.77839 C183.028696,1483.2982 182.289607,1519.52081 184.514168,1546.86664 C186.736298,1574.21004 183.772648,1599.34879 173.398654,1602.30287 C163.027092,1605.25695 157.09736,1597.8669 157.09736,1597.8669 C148.943065,1597.8669 125.238722,1590.47929 117.828379,1578.65085 C110.418036,1566.82242 135.610284,1524.68923 137.090893,1458.90645 C138.571503,1393.12125 94.8606934,1243.80941 95.5997826,1180.2434 C96.3388719,1116.67739 105.976207,1038.32402 107.746131,1012.45523 C109.518487,986.581597 74.1127068,838.749216 73.3711863,759.65854 C72.6296658,680.567865 126.719331,560.08616 129.682982,551.214228 C132.649064,542.344722 127.460852,471.386246 117.828379,460.297545 C108.195906,449.211268 102.268605,412.991086 102.268605,412.991086 L102.268605,415.947588 C102.268605,441.8188 80.0400083,517.952974 74.851796,539.385795 C69.6635838,560.821041 76.3372683,560.08616 71.1466248,625.131632 C65.9608437,690.179528 33.3582541,751.528766 39.2855556,772.966438 C45.2104259,794.401684 41.5101171,815.097199 41.5101171,833.573518 C41.5101171,852.054688 65.2217545,865.36016 62.2556725,869.053969 C59.2920217,872.750203 54.8453299,874.229666 54.8453299,874.229666 C54.8453299,874.229666 61.514152,879.405364 57.8114119,884.578636 C54.1086719,889.751909 52.6231997,887.535138 48.1765079,890.528021 C43.7322474,893.516052 25.2112535,881.62456 25.2112535,881.62456 C25.2112535,881.62456 27.4333837,889.751909 22.9891232,890.49164 C18.5424314,891.228947 9.64904792,880.14267 2.2411366,864.618003 C-5.16920593,849.098186 8.17086936,782.573251 8.17086936,782.573251" id="Fill-" fill="#EBFAF9"></path>
                <rect id="Rectangle" fill="url(#linearGradient-1)" x="0" y="1262" width="431" height="341"></rect>
            </g>
        </g>
    </g>
</svg>