<?xml version="1.0" encoding="UTF-8"?>
<svg width="431px" height="1631px" viewBox="0 0 431 1631" version="1.1" xmlns="http://www.w3.org/2000/svg" xmlns:xlink="http://www.w3.org/1999/xlink">
    <title>Illustration</title>
    <defs>
        <linearGradient x1="52.1120617%" y1="13.9053107%" x2="50%" y2="81.2985503%" id="linearGradient-1">
            <stop stop-color="#FFFFFF" stop-opacity="0" offset="0%"></stop>
            <stop stop-color="#FFFFFF" stop-opacity="0.506009615" offset="37.3155655%"></stop>
            <stop stop-color="#FFFFFF" offset="100%"></stop>
        </linearGradient>
    </defs>
    <g id="Page-1" stroke="none" stroke-width="1" fill="none" fill-rule="evenodd">
        <g id="Quiz_page_q9_11_Hip_length_1920" transform="translate(-617.000000, -364.000000)">
            <g id="Illustration" transform="translate(617.000000, 364.000000)">
                <path d="M14.8396914,693.045623 C13.3590816,597.692973 22.2451715,579.95396 25.952774,561.475216 C29.6603764,542.996471 35.5828156,480.16777 39.290418,406.250367 C42.9980205,332.335389 51.1425899,332.335389 60.7774939,314.596377 C70.4099667,296.854939 144.501236,279.853233 154.880092,275.419692 C165.254085,270.983726 177.845346,261.376914 179.260313,253.244714 C180.67528,245.112514 179.260313,206.677987 179.260313,206.677987 C158.449115,187.457085 156.312077,156.041522 156.312077,156.041522 C148.93334,156.533868 148.196682,144.513832 147.948698,140.589615 C147.703146,136.665398 142.78723,119.003996 143.035213,110.173296 C143.280766,101.342595 154.179902,104.464021 154.179902,104.464021 C154.179902,34.9073978 190.278578,28 215.497569,28 C240.718991,28 276.817667,34.9073978 276.817667,104.464021 C276.817667,104.464021 287.714371,101.342595 287.962355,110.173296 C288.21277,119.003996 283.296854,136.665398 283.04887,140.589615 C282.800886,144.513832 282.061797,156.533868 274.685492,156.041522 C274.685492,156.041522 272.550885,187.457085 251.739687,206.677987 C251.739687,206.677987 250.322289,245.112514 251.739687,253.244714 C253.154654,261.376914 265.743484,270.983726 276.119908,275.419692 C286.493902,279.853233 360.587602,296.854939 370.222506,314.596377 C379.854979,332.335389 387.999548,332.335389 391.707151,406.250367 C395.414753,480.16777 401.337192,542.996471 405.044795,561.475216 C408.752397,579.95396 417.640918,597.692973 416.157877,693.045623 C414.677268,788.395847 422.829131,810.573251 422.829131,810.573251 C422.829131,810.573251 436.169206,877.098186 428.758863,892.618003 C421.34609,908.14267 412.455137,919.228947 408.010877,918.49164 C403.564185,917.751909 405.786315,909.62456 405.786315,909.62456 C405.786315,909.62456 387.267753,921.516052 382.821061,918.528021 C378.374369,915.535138 376.888897,917.751909 373.188588,912.578636 C369.483417,907.405364 376.152239,902.229666 376.152239,902.229666 C376.152239,902.229666 371.705547,900.750203 368.741896,897.053969 C365.775814,893.36016 389.489883,880.054688 389.489883,861.573518 C389.489883,843.097199 385.784712,822.401684 391.712013,800.966438 C397.636884,779.528766 365.036725,718.179528 359.848513,653.131632 C354.662732,588.08616 361.333985,588.821041 356.145773,567.385795 C350.95756,545.952974 328.731395,469.8188 328.731395,443.947588 L328.731395,440.991086 C328.731395,440.991086 322.804094,477.211268 313.16919,488.297545 C303.534286,499.386246 298.346073,570.344722 301.312155,579.214228 C304.278237,588.08616 358.370334,708.567865 357.626383,787.65854 C356.884862,866.749216 321.479082,1014.5816 323.251437,1040.45523 C325.021362,1066.32402 334.661128,1144.67739 335.397786,1208.2434 C336.134444,1271.80941 292.426066,1421.12125 293.906675,1486.90645 C295.387285,1552.68923 320.581964,1594.82242 313.16919,1606.65085 C305.758847,1618.47929 282.054504,1625.8669 273.900209,1625.8669 C273.900209,1625.8669 267.970477,1633.25695 257.598914,1630.30287 C247.227352,1627.34879 244.26127,1602.21004 246.483401,1574.86664 C248.707962,1547.52081 247.968873,1511.2982 242.780661,1495.77839 C237.592448,1480.25372 261.301654,1459.55578 257.598914,1435.1616 C253.893743,1410.77228 262.048037,1391.5538 251.671613,1326.51318 C241.29762,1261.46286 243.529475,1195.67766 250.193434,1163.89344 C256.854963,1132.1068 242.041571,1062.62536 236.111839,1041.93227 C230.182106,1021.23191 215.497569,868.313567 215.497569,868.313567 C215.497569,868.313567 200.815463,1021.23191 194.88573,1041.93227 C188.953566,1062.62536 174.142606,1132.1068 180.806566,1163.89344 C187.470525,1195.67766 189.70238,1261.46286 179.323525,1326.51318 C168.949531,1391.5538 177.101394,1410.77228 173.398654,1435.1616 C169.695914,1459.55578 193.40512,1480.25372 188.216908,1495.77839 C183.028696,1511.2982 182.289607,1547.52081 184.514168,1574.86664 C186.736298,1602.21004 183.772648,1627.34879 173.398654,1630.30287 C163.027092,1633.25695 157.09736,1625.8669 157.09736,1625.8669 C148.943065,1625.8669 125.238722,1618.47929 117.828379,1606.65085 C110.418036,1594.82242 135.610284,1552.68923 137.090893,1486.90645 C138.571503,1421.12125 94.8606934,1271.80941 95.5997826,1208.2434 C96.3388719,1144.67739 105.976207,1066.32402 107.746131,1040.45523 C109.518487,1014.5816 74.1127068,866.749216 73.3711863,787.65854 C72.6296658,708.567865 126.719331,588.08616 129.682982,579.214228 C132.649064,570.344722 127.460852,499.386246 117.828379,488.297545 C108.195906,477.211268 102.268605,440.991086 102.268605,440.991086 L102.268605,443.947588 C102.268605,469.8188 80.0400083,545.952974 74.851796,567.385795 C69.6635838,588.821041 76.3372683,588.08616 71.1466248,653.131632 C65.9608437,718.179528 33.3582541,779.528766 39.2855556,800.966438 C45.2104259,822.401684 41.5101171,843.097199 41.5101171,861.573518 C41.5101171,880.054688 65.2217545,893.36016 62.2556725,897.053969 C59.2920217,900.750203 54.8453299,902.229666 54.8453299,902.229666 C54.8453299,902.229666 61.514152,907.405364 57.8114119,912.578636 C54.1086719,917.751909 52.6231997,915.535138 48.1765079,918.528021 C43.7322474,921.516052 25.2112535,909.62456 25.2112535,909.62456 C25.2112535,909.62456 27.4333837,917.751909 22.9891232,918.49164 C18.5424314,919.228947 9.64904792,908.14267 2.2411366,892.618003 C-5.16920593,877.098186 8.17086936,810.573251 8.17086936,810.573251 C8.17086936,810.573251 16.3203012,788.395847 14.8396914,693.045623 Z" id="Fill-" fill="#EBFAF9"></path>
                <rect id="Rectangle" fill="url(#linearGradient-1)" x="0" y="1290" width="431" height="341"></rect>
                <path d="M281.511933,150.025391 C289.418961,169.378492 292.886072,185.561175 291.913266,198.57344 C290.454057,218.091837 299.745737,227.401536 301.921139,235.07902 C304.630513,244.663338 308.575261,250.889121 312.564772,256.803078 L313.290366,257.875586 C313.411292,258.05399 313.532193,258.232278 313.653036,258.410534 L314.377127,259.480363 C318.714301,265.905172 322.890058,272.508253 325.358661,283.245065 C325.866235,285.45268 326.191712,287.336746 326.360764,288.945809 C332.195375,308.378802 336.523621,333.43595 337.492467,347.696515 C337.885891,353.510795 335.607363,362.839266 337.492467,370.603155 C338.282116,373.85536 339.342138,375.737831 340.369004,377.522327 L340.675766,378.056008 C342.337194,380.959451 343.829197,383.940793 343.829197,392.541554 C343.829197,399.199269 330.141541,419.761398 340.073792,434.088445 C350.458431,449.064965 342.356034,463.520483 343.829197,485.834492 C345.035567,504.209142 364.401282,509.303511 356.47288,522.381871 C347.7035,536.84809 343.075502,542.786424 346.851767,564 C349.81977,580.673077 334.69137,586.930945 340.073792,597.897715 C341.042627,599.871734 342.0639,601.69439 343.037024,603.473513 L343.359477,604.06509 C347.631399,611.935225 350.731476,619.182102 343.829197,635.272176 C335.20135,655.384768 365.105241,659.460561 352.437138,659.460561 C339.905421,659.460561 320.636442,641.164284 310.535649,616.880019 C305.070856,634.259317 326.178022,654.955199 325.195758,654.955199 C319.878754,654.955199 308.429141,656.314153 301.000001,648 C293.57086,639.685847 294.411334,649.932506 297.354482,654.955199 C300.188541,659.791725 292.362215,654.982248 283.038129,650.081415 L282.336158,649.71383 C281.983911,649.530101 281.62988,649.34658 281.274548,649.16377 L280.562293,648.799248 C280.443343,648.738702 280.324284,648.678273 280.205133,648.617978 L279.489285,648.257981 C278.294865,647.661183 277.094939,647.08162 275.907401,646.537951 C254.166038,636.584507 271.270685,608.297535 271.009541,606.686694 C270.036559,600.684935 255.586398,589.227693 259.492277,576 C266.12513,553.537106 255.380893,564 255.380893,546.182964 C255.380893,533.055156 250.039434,537.063646 255.380893,523.195387 C257.788311,516.944904 256.940629,511.376028 255.870521,505.815904 L255.668009,504.773319 L255.668009,504.773319 L255.464727,503.729953 C254.285305,497.639462 253.293292,491.458825 256.456765,484.307651 L256.546558,484.101399 C256.503463,484.105264 256.47571,484.095719 256.463846,484.072279 C258.256438,481.808112 249.492488,469.246866 252.981444,460.253607 C255.287502,454.309429 247.439928,447.507069 249.883693,440.733726 C254.303001,428.484807 255.607194,423.130203 255.002458,416.497362 C254.503214,411.021581 251.795467,404.379907 256.463846,394.866379 C266.787055,373.829066 255.002458,377.088863 255.002458,361.739672 C255.002458,354.372061 256.460939,350.889926 257.940969,347.449302 L258.187593,346.87559 C259.706638,343.33194 261.164118,339.606558 261.000001,331.526168 C260.874881,325.365825 259.96778,323.403716 258.968408,321.877777 L258.814024,321.645951 L258.814024,321.645951 L258.658741,321.417963 C257.803243,320.169003 256.932329,318.956068 256.463846,315.5 C256.070696,312.599678 261.42978,302.798563 259.565538,297.614916 C259.02958,296.12465 257.813864,291.914916 256.557339,287.49844 L256.137862,286.022071 C254.786993,281.262421 253.470948,276.586351 252.981444,275.107351 C251.985726,272.098865 250.933763,262.843401 251.237074,252.479303 L251.243535,252.291899 C249.848153,244.876752 250.92192,228.698343 251.000002,224.582748 C251.128223,217.824347 251.739689,206.677987 251.739689,206.677987 C253.781644,204.725235 256.080592,202.184613 257.860788,199.90118 C262.330303,194.168197 266.444293,187.273193 269.612821,178.849642 C271.158622,172.911342 272.849667,165.308369 274.685494,156.041522 C274.754167,156.043358 274.819237,156.044858 274.880703,156.046021 C274.880945,156.042859 274.881498,156.044196 274.882052,156.045533 C275.156234,156.051196 275.357582,156.049676 275.487868,156.041522 C276.018855,156.008288 276.416626,155.921752 276.681451,155.846032 C277.742815,155.542563 278.506275,154.929874 278.99184,154.453138 C280.040057,153.423982 280.549093,152.299175 280.589774,152.229708 Z M149.391424,149.9504 C151.665856,156.812708 156.312079,156.041522 156.312079,156.041522 C159.680953,190.353601 179.260315,206.677987 179.260315,206.677987 C179.693995,220.088662 179.910836,230.216928 179.910836,237.062786 L179.910251,237.729086 C179.901683,242.545543 179.798977,245.856561 179.607201,249.560088 C179.557463,250.520613 179.441835,251.748822 179.260315,253.244714 C160.726234,227.924884 153.942764,179.399007 153.942764,179.399007 L153.942764,179.399007 Z M208.649235,2.37720577 C243.471271,-8.54720859 267.265172,21.7243361 267.265172,21.7243361 C298.0682,60.0916115 286.07389,96.9675152 283.818268,102.945493 C283.773107,103.556183 283.741818,104.069429 283.741818,104.323674 C282.739064,104.139234 281.843358,104.039945 281.044596,104.005215 C280.36275,104.04575 279.689136,104.064475 279.024413,104.06318 C275.880079,104.412071 274.954577,105.904263 274.954577,105.904263 C232.331093,99.2975365 205.328496,68.5470144 193.150149,51.0718797 C189.659773,50.0201174 186.909,49.1904311 184.897494,48.5837222 C176.479418,54.8742592 159.568552,71.2920519 154.179904,104.464021 L154.147134,104.456255 C153.769482,104.368 150.209891,103.569316 147.756263,104.223108 C147.756263,104.223108 147.744397,104.145021 147.723214,103.993615 L147.708176,104 L147.708176,104 C147.708176,104 125.677794,38.8916382 187.25935,18.0150726 C195.751743,6.90194043 208.649235,2.37720577 208.649235,2.37720577 Z" id="Hip-length" fill="#34CCBF"></path>
            </g>
        </g>
    </g>
</svg>