<?xml version="1.0" encoding="UTF-8"?>
<svg width="431px" height="1631px" viewBox="0 0 431 1631" version="1.1" xmlns="http://www.w3.org/2000/svg" xmlns:xlink="http://www.w3.org/1999/xlink">
    <title>Illustration</title>
    <defs>
        <linearGradient x1="52.1120617%" y1="13.9053107%" x2="50%" y2="81.2985503%" id="linearGradient-1">
            <stop stop-color="#FFFFFF" stop-opacity="0" offset="0%"></stop>
            <stop stop-color="#FFFFFF" stop-opacity="0.506009615" offset="37.3155655%"></stop>
            <stop stop-color="#FFFFFF" offset="100%"></stop>
        </linearGradient>
    </defs>
    <g id="Page-1" stroke="none" stroke-width="1" fill="none" fill-rule="evenodd">
        <g id="Quiz_page_q9_14_Mid-thigh_length_1920" transform="translate(-617.000000, -364.000000)">
            <g id="Illustration" transform="translate(617.000000, 364.000000)">
                <path d="M14.8396914,693.045623 C13.3590816,597.692973 22.2451715,579.95396 25.952774,561.475216 C29.6603764,542.996471 35.5828156,480.16777 39.290418,406.250367 C42.9980205,332.335389 51.1425899,332.335389 60.7774939,314.596377 C70.4099667,296.854939 144.501236,279.853233 154.880092,275.419692 C165.254085,270.983726 177.845346,261.376914 179.260313,253.244714 C180.67528,245.112514 179.260313,206.677987 179.260313,206.677987 C158.449115,187.457085 156.312077,156.041522 156.312077,156.041522 C148.93334,156.533868 148.196682,144.513832 147.948698,140.589615 C147.703146,136.665398 142.78723,119.003996 143.035213,110.173296 C143.280766,101.342595 154.179902,104.464021 154.179902,104.464021 C154.179902,34.9073978 190.278578,28 215.497569,28 C240.718991,28 276.817667,34.9073978 276.817667,104.464021 C276.817667,104.464021 287.714371,101.342595 287.962355,110.173296 C288.21277,119.003996 283.296854,136.665398 283.04887,140.589615 C282.800886,144.513832 282.061797,156.533868 274.685492,156.041522 C274.685492,156.041522 272.550885,187.457085 251.739687,206.677987 C251.739687,206.677987 250.322289,245.112514 251.739687,253.244714 C253.154654,261.376914 265.743484,270.983726 276.119908,275.419692 C286.493902,279.853233 360.587602,296.854939 370.222506,314.596377 C379.854979,332.335389 387.999548,332.335389 391.707151,406.250367 C395.414753,480.16777 401.337192,542.996471 405.044795,561.475216 C408.752397,579.95396 417.640918,597.692973 416.157877,693.045623 C414.677268,788.395847 422.829131,810.573251 422.829131,810.573251 C422.829131,810.573251 436.169206,877.098186 428.758863,892.618003 C421.34609,908.14267 412.455137,919.228947 408.010877,918.49164 C403.564185,917.751909 405.786315,909.62456 405.786315,909.62456 C405.786315,909.62456 387.267753,921.516052 382.821061,918.528021 C378.374369,915.535138 376.888897,917.751909 373.188588,912.578636 C369.483417,907.405364 376.152239,902.229666 376.152239,902.229666 C376.152239,902.229666 371.705547,900.750203 368.741896,897.053969 C365.775814,893.36016 389.489883,880.054688 389.489883,861.573518 C389.489883,843.097199 385.784712,822.401684 391.712013,800.966438 C397.636884,779.528766 365.036725,718.179528 359.848513,653.131632 C354.662732,588.08616 361.333985,588.821041 356.145773,567.385795 C350.95756,545.952974 328.731395,469.8188 328.731395,443.947588 L328.731395,440.991086 C328.731395,440.991086 322.804094,477.211268 313.16919,488.297545 C303.534286,499.386246 298.346073,570.344722 301.312155,579.214228 C304.278237,588.08616 358.370334,708.567865 357.626383,787.65854 C356.884862,866.749216 321.479082,1014.5816 323.251437,1040.45523 C325.021362,1066.32402 334.661128,1144.67739 335.397786,1208.2434 C336.134444,1271.80941 292.426066,1421.12125 293.906675,1486.90645 C295.387285,1552.68923 320.581964,1594.82242 313.16919,1606.65085 C305.758847,1618.47929 282.054504,1625.8669 273.900209,1625.8669 C273.900209,1625.8669 267.970477,1633.25695 257.598914,1630.30287 C247.227352,1627.34879 244.26127,1602.21004 246.483401,1574.86664 C248.707962,1547.52081 247.968873,1511.2982 242.780661,1495.77839 C237.592448,1480.25372 261.301654,1459.55578 257.598914,1435.1616 C253.893743,1410.77228 262.048037,1391.5538 251.671613,1326.51318 C241.29762,1261.46286 243.529475,1195.67766 250.193434,1163.89344 C256.854963,1132.1068 242.041571,1062.62536 236.111839,1041.93227 C230.182106,1021.23191 215.497569,868.313567 215.497569,868.313567 C215.497569,868.313567 200.815463,1021.23191 194.88573,1041.93227 C188.953566,1062.62536 174.142606,1132.1068 180.806566,1163.89344 C187.470525,1195.67766 189.70238,1261.46286 179.323525,1326.51318 C168.949531,1391.5538 177.101394,1410.77228 173.398654,1435.1616 C169.695914,1459.55578 193.40512,1480.25372 188.216908,1495.77839 C183.028696,1511.2982 182.289607,1547.52081 184.514168,1574.86664 C186.736298,1602.21004 183.772648,1627.34879 173.398654,1630.30287 C163.027092,1633.25695 157.09736,1625.8669 157.09736,1625.8669 C148.943065,1625.8669 125.238722,1618.47929 117.828379,1606.65085 C110.418036,1594.82242 135.610284,1552.68923 137.090893,1486.90645 C138.571503,1421.12125 94.8606934,1271.80941 95.5997826,1208.2434 C96.3388719,1144.67739 105.976207,1066.32402 107.746131,1040.45523 C109.518487,1014.5816 74.1127068,866.749216 73.3711863,787.65854 C72.6296658,708.567865 126.719331,588.08616 129.682982,579.214228 C132.649064,570.344722 127.460852,499.386246 117.828379,488.297545 C108.195906,477.211268 102.268605,440.991086 102.268605,440.991086 L102.268605,443.947588 C102.268605,469.8188 80.0400083,545.952974 74.851796,567.385795 C69.6635838,588.821041 76.3372683,588.08616 71.1466248,653.131632 C65.9608437,718.179528 33.3582541,779.528766 39.2855556,800.966438 C45.2104259,822.401684 41.5101171,843.097199 41.5101171,861.573518 C41.5101171,880.054688 65.2217545,893.36016 62.2556725,897.053969 C59.2920217,900.750203 54.8453299,902.229666 54.8453299,902.229666 C54.8453299,902.229666 61.514152,907.405364 57.8114119,912.578636 C54.1086719,917.751909 52.6231997,915.535138 48.1765079,918.528021 C43.7322474,921.516052 25.2112535,909.62456 25.2112535,909.62456 C25.2112535,909.62456 27.4333837,917.751909 22.9891232,918.49164 C18.5424314,919.228947 9.64904792,908.14267 2.2411366,892.618003 C-5.16920593,877.098186 8.17086936,810.573251 8.17086936,810.573251 C8.17086936,810.573251 16.3203012,788.395847 14.8396914,693.045623 Z" id="Fill-" fill="#EBFAF9"></path>
                <rect id="Rectangle" fill="url(#linearGradient-1)" x="0" y="1290" width="431" height="341"></rect>
                <path d="M281.511934,150.025391 C286.878426,163.160323 290.199749,174.834857 291.475902,185.048994 L291.503165,185.1356 C295.314281,197.161358 296.061796,195.847741 305.876768,201.444569 C316.172867,207.315751 316.51114,218.645048 313.111605,228.96097 C309.867065,238.793903 305.494857,243.450564 315.07359,248.961192 C316.950651,250.037515 319.123861,250.723089 321.340766,251.352411 L322.552803,251.692109 C325.58614,252.53746 328.615374,253.391299 331.000353,255.101803 C335.991235,258.667502 334.660933,261.250368 336.689957,266.14945 C338.752524,271.1309 342.570394,275.718479 346.580677,280.296635 L347.384835,281.212255 C347.519135,281.364875 347.653533,281.517514 347.787971,281.670184 L348.594616,282.586708 C357.328463,292.522379 365.742759,302.71461 357.940866,317.073729 C357.034111,318.743504 356.173312,320.18301 355.398557,321.473746 L354.912747,322.283813 C351.547996,327.909965 350.16087,330.79212 354.580863,338.716356 C357.676082,344.266814 363.124172,344.165314 358.47606,350.783357 C357.663994,351.939588 357.00238,353.099102 356.491218,354.261898 C356.509288,357.289105 356.034378,360.196477 355.48603,363.076721 C356.430358,367.648426 359.637105,372.269781 365.105307,376.94048 C362.214562,375.996405 358.240155,374.332154 354.001482,372.146443 C353.708183,375.673191 353.944797,379.302063 355.444339,383.195387 C360.785798,397.063646 355.444339,393.055156 355.444339,406.182964 C355.444339,424 344.700102,413.537106 351.332955,436 C353.523205,443.417525 349.941423,450.278333 346.200739,455.932646 C346.221307,456.190538 346.240495,456.445203 346.258578,456.696515 C346.675249,462.510795 344.262078,471.839266 346.258578,479.603155 C348.544494,488.492515 352.969757,487.148443 352.969757,501.541554 C352.969757,508.199269 338.47327,528.761398 348.992437,543.088445 C353.561594,549.310329 352.874047,556.052592 351.425025,563.147537 L351.25131,563.983853 C350.956833,565.380392 350.639858,566.790238 350.334271,568.212126 L350.152557,569.066693 C349.673076,571.34934 349.240102,573.662169 348.992437,576 C348.346023,582.101835 352.439004,587.243724 352.969757,594.834492 C354.247414,613.209142 364.459977,616.937045 362.086358,627.830453 C360.624856,634.537822 359.280311,639.393175 358.14446,643.222155 C359.415647,646.813302 360.800353,650.599412 362.298174,654.578349 C369.79849,674.502809 366.267741,682.723301 361.980795,689.222126 L361.71197,689.626151 C361.622095,689.760139 361.531985,689.89347 361.441732,690.026234 L361.059795,690.584089 L360.677721,691.136712 L360.582364,691.274227 L360.582364,691.274227 L360.10776,691.959146 C358.722709,693.963473 357.413412,695.938571 356.525376,698.220109 C352.453635,708.681206 367.145431,719.28856 362.298174,733.64379 C356.48614,750.856224 364.386004,753.577301 367.114882,773.972804 C368.76845,786.331495 365.028571,793.482667 362.298174,799.091658 C361.117408,801.517279 360.013473,803.969189 358.981008,806.432582 C360.764784,816.388472 362.282722,826.115226 363.433159,835.38573 C364.246956,841.943498 352.495742,872.480056 353.004154,878.136461 C354.58288,895.700773 362.758815,910.174496 353.004154,921.540533 C329.763358,948.620485 354.257017,955.984675 353.004154,956 C312.128342,956.5 333.660938,927.535397 325.815849,919.221243 C321.803067,914.968534 311.060043,914.871741 301,896.825694 C297.238201,890.07765 292.855496,875.210497 292.855496,858.143574 C292.855496,840.264819 279.641442,841.97979 276.383907,822.412865 C275.354346,816.228637 278.404501,809.081458 281.538166,801.697426 L281.996884,800.61523 C282.421729,799.610807 282.844525,798.602679 283.255299,797.592657 L283.56097,796.834814 L283.56097,796.834814 L283.861199,796.076431 C287.32848,787.22613 289.493686,778.300181 283.676868,770.512308 C261.710722,741.102835 276.659672,717.297535 276.383907,715.686694 C275.356449,709.684935 260.097242,698.227693 264.221807,685 C268.284253,671.971521 267.634262,666.930129 266.371653,661.517266 L266.239021,660.955646 C265.342482,657.198114 264.221807,653.126815 264.221807,646 C264.221807,633.277723 250.428405,602.524364 258.990495,578.29618 C259.098976,577.537565 259.264381,576.771796 259.492277,576 C266.125131,553.537106 255.380894,564 255.380894,546.182964 C255.380894,533.055156 246.178902,528.41433 256.456766,484.307651 L256.503861,484.099919 C256.484552,484.095926 256.471171,484.086751 256.463846,484.072279 L256.503929,484.017348 L256.503929,484.017348 L256.536959,483.963 L256.580582,483.779966 C256.622152,483.60401 256.664022,483.427993 256.706189,483.251916 C256.817983,479.63948 249.797449,468.460789 252.981445,460.253607 C255.287503,454.309429 247.439929,447.507069 249.883694,440.733726 C254.303002,428.484807 255.607195,423.130203 255.002458,416.497362 C254.503215,411.021581 251.795467,404.379907 256.463846,394.866379 C266.787056,373.829066 255.002458,377.088863 255.002458,361.739672 C255.002458,354.372061 256.46094,350.889926 257.940969,347.449302 L258.187594,346.87559 C259.706638,343.33194 261.164119,339.606558 261.000002,331.526168 C260.874882,325.365825 259.96778,323.403716 258.968409,321.877777 L258.814024,321.645951 L258.658742,321.417963 C258.599742,321.331828 258.540669,321.245864 258.481659,321.159324 L258.304959,320.897227 C257.570648,319.791724 256.867712,318.479369 256.463846,315.5 C256.070696,312.599678 261.42978,302.798563 259.565539,297.614916 C259.029581,296.12465 257.813864,291.914916 256.557339,287.49844 L256.137863,286.022071 L256.025388,285.625693 L256.025388,285.625693 L255.801329,284.835701 C254.573393,280.505278 253.430157,276.463101 252.981445,275.107351 C251.985727,272.098865 250.933763,262.843401 251.237075,252.479303 L251.243535,252.291899 C249.848154,244.876752 250.921921,228.698343 251.000003,224.582748 C251.128224,217.824347 251.739689,206.677987 251.739689,206.677987 C253.781644,204.725235 256.080592,202.184613 257.860789,199.90118 C262.330303,194.168197 266.444293,187.273193 269.612822,178.849642 C271.158623,172.911342 272.849668,165.308369 274.685494,156.041522 C274.754168,156.043358 274.819237,156.044858 274.880704,156.046021 C274.880945,156.042859 274.881499,156.044196 274.882053,156.045533 L275.037836,156.048073 L275.037836,156.048073 L275.297302,156.048087 C275.37227,156.046984 275.435754,156.044784 275.487869,156.041522 C276.018856,156.008288 276.416627,155.921752 276.681452,155.846032 C277.742816,155.542563 278.506276,154.929874 278.991841,154.453138 C279.935236,153.526898 280.441894,152.52318 280.563448,152.281058 L280.589774,152.229708 L280.589774,152.229708 L281.511934,150.025391 Z M149.391425,149.9504 C151.665857,156.812708 156.31208,156.041522 156.31208,156.041522 C159.680954,190.353601 179.260316,206.677987 179.260316,206.677987 C179.684961,219.809273 179.901707,229.793492 179.910554,236.630646 L179.910252,237.729086 C179.901683,242.545543 179.798977,245.856561 179.607202,249.560088 C179.557464,250.520613 179.441835,251.748822 179.260316,253.244714 C160.911576,228.178082 154.079609,180.367204 153.944804,179.413493 L153.942764,179.399007 L149.391425,149.9504 Z M267.265172,21.7243361 C298.0682,60.0916115 286.07389,96.9675152 283.818269,102.945493 C283.773108,103.556183 283.741819,104.069429 283.741819,104.323674 C282.739065,104.139234 281.843358,104.039945 281.044597,104.005215 C280.362751,104.04575 279.689137,104.064475 279.024413,104.06318 C275.880079,104.412071 274.954578,105.904263 274.954578,105.904263 C232.331094,99.2975365 205.328497,68.5470144 193.150149,51.0718797 C191.148403,50.4691164 189.390106,49.9387804 187.874926,49.4817729 C186.094471,51.9374028 183.8039,55.8310629 183.187901,57.0069587 C182.862902,57.626229 179.918223,63.38674 178.304518,64.8985418 C175.985245,67.0712556 167.997908,71.0288071 168.775641,73.7972883 C169.633452,76.8355511 168.260106,82.7327127 166.041428,83.7921198 C163.120487,85.1846292 162.242691,91.4134775 160.407583,92.9103727 C158.56195,94.4166344 155.572439,97.0104371 155.792563,99.694015 C155.826867,100.112282 156.239862,100.889341 156.613086,101.71639 L156.729136,101.978864 C157.373731,103.471556 157.749922,105.020235 155.459814,104.855378 C155.002461,104.713075 154.577652,104.569726 154.185387,104.425331 L154.179904,104.464021 L154.147134,104.456255 C153.769483,104.368 150.209892,103.569316 147.756264,104.223108 C147.756264,104.223108 147.744397,104.145021 147.723214,103.993615 L147.708177,104 C147.708177,104 125.677795,38.8916382 187.259351,18.0150726 C195.751744,6.90194043 208.649235,2.37720577 208.649235,2.37720577 C243.471271,-8.54720859 267.265172,21.7243361 267.265172,21.7243361 Z" id="Mid-thigh-lenght" fill="#34CCBF"></path>
            </g>
        </g>
    </g>
</svg>