<?xml version="1.0" encoding="UTF-8"?>
<svg width="431px" height="1625px" viewBox="0 0 431 1625" version="1.1" xmlns="http://www.w3.org/2000/svg" xmlns:xlink="http://www.w3.org/1999/xlink">
    <title>Illustration</title>
    <defs>
        <linearGradient x1="52.1120617%" y1="13.9053107%" x2="50%" y2="81.2985503%" id="linearGradient-1">
            <stop stop-color="#FFFFFF" stop-opacity="0" offset="0%"></stop>
            <stop stop-color="#FFFFFF" stop-opacity="0.506009615" offset="37.3155655%"></stop>
            <stop stop-color="#FFFFFF" offset="100%"></stop>
        </linearGradient>
    </defs>
    <g id="Page-1" stroke="none" stroke-width="1" fill="none" fill-rule="evenodd">
        <g id="Quiz_page_q9_15_Knee_length_1920" transform="translate(-617.000000, -370.000000)">
            <g id="Illustration" transform="translate(617.000000, 370.000000)">
                <path d="M14.8396914,687.045623 C13.3590816,591.692973 22.2451715,573.95396 25.952774,555.475216 C29.6603764,536.996471 35.5828156,474.16777 39.290418,400.250367 C42.9980205,326.335389 51.1425899,326.335389 60.7774939,308.596377 C70.4099667,290.854939 144.501236,273.853233 154.880092,269.419692 C165.254085,264.983726 177.845346,255.376914 179.260313,247.244714 C180.67528,239.112514 179.260313,200.677987 179.260313,200.677987 C158.449115,181.457085 156.312077,150.041522 156.312077,150.041522 C148.93334,150.533868 148.196682,138.513832 147.948698,134.589615 C147.703146,130.665398 142.78723,113.003996 143.035213,104.173296 C143.280766,95.3425951 154.179902,98.464021 154.179902,98.464021 C154.179902,28.9073978 190.278578,22 215.497569,22 C240.718991,22 276.817667,28.9073978 276.817667,98.464021 C276.817667,98.464021 287.714371,95.3425951 287.962355,104.173296 C288.21277,113.003996 283.296854,130.665398 283.04887,134.589615 C282.800886,138.513832 282.061797,150.533868 274.685492,150.041522 C274.685492,150.041522 272.550885,181.457085 251.739687,200.677987 C251.739687,200.677987 250.322289,239.112514 251.739687,247.244714 C253.154654,255.376914 265.743484,264.983726 276.119908,269.419692 C286.493902,273.853233 360.587602,290.854939 370.222506,308.596377 C379.854979,326.335389 387.999548,326.335389 391.707151,400.250367 C395.414753,474.16777 401.337192,536.996471 405.044795,555.475216 C408.752397,573.95396 417.640918,591.692973 416.157877,687.045623 C414.677268,782.395847 422.829131,804.573251 422.829131,804.573251 C422.829131,804.573251 436.169206,871.098186 428.758863,886.618003 C421.34609,902.14267 412.455137,913.228947 408.010877,912.49164 C403.564185,911.751909 405.786315,903.62456 405.786315,903.62456 C405.786315,903.62456 387.267753,915.516052 382.821061,912.528021 C378.374369,909.535138 376.888897,911.751909 373.188588,906.578636 C369.483417,901.405364 376.152239,896.229666 376.152239,896.229666 C376.152239,896.229666 371.705547,894.750203 368.741896,891.053969 C365.775814,887.36016 389.489883,874.054688 389.489883,855.573518 C389.489883,837.097199 385.784712,816.401684 391.712013,794.966438 C397.636884,773.528766 365.036725,712.179528 359.848513,647.131632 C354.662732,582.08616 361.333985,582.821041 356.145773,561.385795 C350.95756,539.952974 328.731395,463.8188 328.731395,437.947588 L328.731395,434.991086 C328.731395,434.991086 322.804094,471.211268 313.16919,482.297545 C303.534286,493.386246 298.346073,564.344722 301.312155,573.214228 C304.278237,582.08616 358.370334,702.567865 357.626383,781.65854 C356.884862,860.749216 321.479082,1008.5816 323.251437,1034.45523 C325.021362,1060.32402 334.661128,1138.67739 335.397786,1202.2434 C336.134444,1265.80941 292.426066,1415.12125 293.906675,1480.90645 C295.387285,1546.68923 320.581964,1588.82242 313.16919,1600.65085 C305.758847,1612.47929 282.054504,1619.8669 273.900209,1619.8669 C273.900209,1619.8669 267.970477,1627.25695 257.598914,1624.30287 C247.227352,1621.34879 244.26127,1596.21004 246.483401,1568.86664 C248.707962,1541.52081 247.968873,1505.2982 242.780661,1489.77839 C237.592448,1474.25372 261.301654,1453.55578 257.598914,1429.1616 C253.893743,1404.77228 262.048037,1385.5538 251.671613,1320.51318 C241.29762,1255.46286 243.529475,1189.67766 250.193434,1157.89344 C256.854963,1126.1068 242.041571,1056.62536 236.111839,1035.93227 C230.182106,1015.23191 215.497569,862.313567 215.497569,862.313567 C215.497569,862.313567 200.815463,1015.23191 194.88573,1035.93227 C188.953566,1056.62536 174.142606,1126.1068 180.806566,1157.89344 C187.470525,1189.67766 189.70238,1255.46286 179.323525,1320.51318 C168.949531,1385.5538 177.101394,1404.77228 173.398654,1429.1616 C169.695914,1453.55578 193.40512,1474.25372 188.216908,1489.77839 C183.028696,1505.2982 182.289607,1541.52081 184.514168,1568.86664 C186.736298,1596.21004 183.772648,1621.34879 173.398654,1624.30287 C163.027092,1627.25695 157.09736,1619.8669 157.09736,1619.8669 C148.943065,1619.8669 125.238722,1612.47929 117.828379,1600.65085 C110.418036,1588.82242 135.610284,1546.68923 137.090893,1480.90645 C138.571503,1415.12125 94.8606934,1265.80941 95.5997826,1202.2434 C96.3388719,1138.67739 105.976207,1060.32402 107.746131,1034.45523 C109.518487,1008.5816 74.1127068,860.749216 73.3711863,781.65854 C72.6296658,702.567865 126.719331,582.08616 129.682982,573.214228 C132.649064,564.344722 127.460852,493.386246 117.828379,482.297545 C108.195906,471.211268 102.268605,434.991086 102.268605,434.991086 L102.268605,437.947588 C102.268605,463.8188 80.0400083,539.952974 74.851796,561.385795 C69.6635838,582.821041 76.3372683,582.08616 71.1466248,647.131632 C65.9608437,712.179528 33.3582541,773.528766 39.2855556,794.966438 C45.2104259,816.401684 41.5101171,837.097199 41.5101171,855.573518 C41.5101171,874.054688 65.2217545,887.36016 62.2556725,891.053969 C59.2920217,894.750203 54.8453299,896.229666 54.8453299,896.229666 C54.8453299,896.229666 61.514152,901.405364 57.8114119,906.578636 C54.1086719,911.751909 52.6231997,909.535138 48.1765079,912.528021 C43.7322474,915.516052 25.2112535,903.62456 25.2112535,903.62456 C25.2112535,903.62456 27.4333837,911.751909 22.9891232,912.49164 C18.5424314,913.228947 9.64904792,902.14267 2.2411366,886.618003 C-5.16920593,871.098186 8.17086936,804.573251 8.17086936,804.573251 C8.17086936,804.573251 16.3203012,782.395847 14.8396914,687.045623 Z" id="Fill-" fill="#EBFAF9"></path>
                <rect id="Rectangle" fill="url(#linearGradient-1)" x="0" y="1284" width="431" height="341"></rect>
                <path d="M233.774538,1.73550542 C242.263232,3.42479414 252.574804,10.7877543 258.157372,16.4028106 C260.91578,18.1606011 263.468804,20.1809091 265.717326,22.5198861 C269.589401,26.5495219 272.849846,31.3925066 275.523662,36.6576653 C281.377119,41.3184778 285.340624,47.9919295 286.358236,49.9704775 L286.455945,50.1641941 C286.542285,50.3393343 286.594375,50.457829 286.610916,50.5114281 C286.727541,50.880832 286.81393,51.2459406 286.904638,51.61964 C286.982388,51.9332038 287.094694,52.2381768 287.150847,52.5517407 C287.116291,52.5302637 287.090374,52.5087867 287.051499,52.4873098 C287.090374,52.6634209 287.111972,52.8352367 287.142208,53.0070525 C293.612743,58.4149548 299.456958,64.3511906 302.083183,72.8002324 C305.16295,82.6968224 305.003131,92.6062985 299.577902,101.04675 C299.573583,101.029568 299.573583,101.016682 299.573583,101.003796 C299.409444,101.27011 299.236666,101.523538 299.063888,101.772671 C299.029332,101.819921 298.994777,101.875761 298.964541,101.92301 C298.81336,102.129189 298.662179,102.313891 298.510998,102.507184 C298.610346,102.842225 298.688096,103.177265 298.817679,103.512306 C298.959325,104.04675 299.085238,104.5844 299.193635,105.125342 C299.664272,105.369731 300.250189,105.641641 300.973629,105.961682 C305.556435,107.697591 309.527361,109.08791 310.748322,115.690733 C311.360203,120.554462 322.050617,129.589149 322.967739,136.187194 C323.295954,140.109556 321.063477,141.521709 318.833999,142.690928 L318.49992,142.864772 L318.49992,142.864772 L318.101792,143.07097 C316.453443,143.928376 314.965409,144.78942 314.719248,146.610608 C314.108767,150.779974 319.912535,149.736836 320.828256,153.211838 C321.425855,155.589661 320.271166,157.054316 319.041706,158.457923 L318.705806,158.839852 C317.532487,160.175786 316.429994,161.526681 316.85733,163.633659 C317.469211,167.108662 320.523015,168.150207 320.523015,172.666754 C320.523015,177.52889 319.302054,177.181709 316.85733,180.656711 C310.444482,188.995442 323.57822,186.561985 318.384933,194.207945 C315.636369,197.681355 312.886405,196.289443 313.498286,202.194717 C313.729863,203.513511 315.060108,206.545795 316.405498,209.74489 L316.715748,210.485399 C317.025281,211.227462 317.331181,211.972073 317.620134,212.700222 C318.390705,214.642034 319.040748,216.466783 319.31772,217.813981 C319.873287,219.710081 318.927035,221.041947 319.129173,222.645469 C319.796171,227.745412 322.932848,230.232281 326.188862,232.536589 L327.352833,233.355895 L327.762066,233.646287 C331.706373,236.462378 335.264793,239.589499 334.171126,247.439372 C333.206053,255.538678 331.101023,256.948685 335.236965,264.335526 C339.167909,270.843548 341.622039,274.448879 338.812761,281.584732 C338.314872,283.100657 337.48178,284.493383 336.577389,285.824428 L336.304197,286.221953 L336.02831,286.616146 C335.843839,286.877912 335.658628,287.137704 335.474787,287.396012 L335.200317,287.782424 C332.65312,291.379705 330.581445,294.73455 334.778516,299.197384 C338.971353,303.32745 344.254366,301.642572 342.338975,310.889548 C341.863189,313.037459 340.781481,314.806186 339.540844,316.448517 C339.312371,317.425274 339.219981,318.537842 339.378999,319.85628 C339.989652,324.719045 342.981332,327.179131 346.196536,329.365474 L346.680223,329.691638 C347.003439,329.908067 347.327812,330.122823 347.651184,330.338035 L348.135221,330.661461 C352.319028,333.472065 356.151355,336.53962 354.892165,344.541396 C353.783725,352.6738 351.55578,354.112185 355.814638,361.470649 C359.868391,367.950317 362.404537,371.536714 359.369877,378.7246 C358.881441,380.102768 358.106883,381.383349 357.249973,382.609527 C358.153493,386.104672 357.846509,387.768817 357.250242,389.614852 L357.142076,389.943301 C356.588878,391.596721 355.852798,393.483882 355.565975,396.985999 C359.803299,400.380555 364.74997,399.222382 362.732274,408.067236 C361.419217,413.468438 356.150825,416.534912 354.230858,421.152207 C350.791356,428.431435 355.249996,431.110914 358.69848,436.804173 C364.038359,446.02964 360.039762,450.777822 354.972615,455.569859 L354.600061,455.92064 C354.537691,455.979138 354.475192,456.037659 354.412579,456.096212 L354.001718,456.479583 L353.588542,456.86435 L353.537909,456.910739 C353.309855,462.404838 352.701836,468.119767 351.573014,473.568272 L351.920292,473.832702 C354.827411,476.055399 357.63611,478.553205 356.601018,483.162443 C356.098638,485.581591 354.447017,487.448375 352.580121,489.169219 C352.827548,490.886931 352.969757,492.961379 352.969757,495.541554 C352.969757,502.199269 338.47327,522.761398 348.992437,537.088445 C354.278325,544.286311 352.528999,552.180616 350.704273,560.511721 L350.518719,561.360448 L350.334271,562.212126 C349.784215,564.771524 349.27106,567.36994 348.992437,570 C348.346023,576.101835 352.439004,581.243724 352.969757,588.834492 C354.247414,607.209142 364.459977,610.937045 362.086358,621.830453 C361.637245,623.891597 361.199177,625.777853 360.774815,627.513182 C360.784324,627.517315 360.792948,627.522323 360.80157,627.527333 C360.74982,627.680775 360.700886,627.83748 360.655352,627.997805 C360.613681,628.167875 360.571971,628.335798 360.530401,628.50228 L360.505211,628.600167 C360.303496,629.540786 360.228196,630.60596 360.378999,631.85628 C360.989652,636.719045 363.981332,639.179131 367.196536,641.365474 L367.680223,641.691638 C368.003439,641.908067 368.327812,642.122823 368.651184,642.338035 L369.135221,642.661461 C373.319028,645.472065 377.151355,648.53962 375.892165,656.541396 C374.783725,664.6738 372.55578,666.112185 376.814638,673.470649 C380.868391,679.950317 383.404537,683.536714 380.369877,690.7246 C379.603586,692.886762 378.13305,694.808731 376.745129,696.657255 L376.45941,697.038716 L376.177597,697.418408 L375.901239,697.796661 C373.488727,701.132502 371.895911,704.338265 375.925983,708.431827 C380.282637,712.524073 385.852489,710.772973 383.732274,720.067236 C382.419217,725.468438 377.150825,728.534912 375.230858,733.152207 C371.791356,740.431435 376.249996,743.110914 379.69848,748.804173 C385.038359,758.02964 381.039762,762.777822 375.972615,767.569859 L375.600061,767.92064 C375.537691,767.979138 375.475192,768.037659 375.412579,768.096212 L375.001718,768.479583 L374.588542,768.86435 C373.346474,770.021256 372.08573,771.203889 370.91951,772.474136 C364.954716,779.311759 368.02171,782.108391 371.767981,784.959201 L372.057355,785.17867 C372.202571,785.288527 372.348475,785.398619 372.494592,785.50918 L372.920292,785.832702 C375.827411,788.055399 378.63611,790.553205 377.601018,795.162443 C377.030436,797.910011 374.977393,799.945058 372.810213,801.863026 L372.288599,802.321395 L372.288599,802.321395 L371.766806,802.777097 C369.956643,804.359449 368.21949,805.926607 367.351067,807.824834 C368.188301,811.071963 369.704411,815.048413 372.345,820.386982 C378.488051,832.806596 365.133092,846.362242 365.133092,852.598443 C365.133092,881.382076 385.79885,869.585439 371.149461,911.907283 C368.832027,918.602312 371.116261,925.850255 374.157982,933.246988 L374.533962,934.153426 L374.915946,935.061187 L375.361457,936.10851 C375.510676,936.457846 375.660476,936.807396 375.810457,937.157118 L376.48525,938.731886 C379.253345,945.209541 381.878336,951.7245 381.828743,958.010638 C381.706784,973.469588 373.589635,977.107281 371.337479,986.319065 C372.159159,987.514895 372.909918,988.550545 373.561175,989.396871 C394.934015,1017.17143 372.011853,1015.5152 372.011853,1038.55143 C372.011853,1052.42757 378.718381,1058.95898 383.464221,1063.68523 L383.964807,1064.18496 C387.410859,1067.63825 389.579906,1070.18742 386.815466,1074.1695 C363.955897,1107.09786 388.068328,1108.61364 386.815466,1108.62896 C345.939653,1109.12896 375.260338,1082.48365 367.41525,1074.1695 C365.750374,1072.40508 357.732759,1069.84286 352.241326,1063.54816 C348.932946,1068.77093 351.555725,1071.66487 354.844646,1074.49583 L355.158249,1074.76407 C355.210794,1074.80877 355.263463,1074.85347 355.316236,1074.89818 L355.752064,1075.26626 L356.190014,1075.63593 C359.257103,1078.23186 362.291608,1081.02679 361.334519,1085.72461 C360.813384,1088.50365 358.826156,1090.53152 356.747511,1092.44775 L356.247585,1092.90583 C353.4127,1095.49319 350.612139,1097.9687 351.303838,1101.94108 L351.812264,1104.14332 L350.150523,1102.20947 C346.248213,1097.53269 348.293338,1095.38772 350.919026,1093.48122 L351.197326,1093.28132 C352.643896,1092.25202 354.206487,1091.26946 355.02176,1089.96472 C358.51326,1084.76706 355.756114,1082.16831 352.260166,1079.40803 L351.896106,1079.12179 L351.896106,1079.12179 L351.528132,1078.83373 C351.466552,1078.78552 351.404865,1078.73722 351.3431,1078.68879 L350.971793,1078.39671 L350.971793,1078.39671 L350.56217,1078.0708 C350.161767,1077.74962 349.763048,1077.42099 349.373647,1077.08108 C351.743236,1087.22053 352.092759,1098.28608 327.049451,1101.93914 C325.809615,1102.12 348.849704,1091.01482 321.658802,1067.90393 C310.246197,1058.20379 307.892138,1029.41757 307.892138,1021.83593 C307.892138,1017.18149 311.635365,998.769628 316.319372,989.566461 C313.718468,986.173407 311.340977,981.92402 310.195218,975.041827 C309.339325,969.900758 311.302889,964.094202 313.79002,958.039314 C313.990184,954.925959 311.920583,952.762208 309.503117,950.671494 L309.071278,950.301418 C308.853933,950.116582 308.634747,949.931912 308.415057,949.7468 L307.884935,949.299177 C305.589534,947.353005 303.356613,945.304855 302.713429,942.458176 C299.992998,931.261904 320.35439,932.225226 308.997953,919.656716 C307.611707,918.198733 306.098903,916.862228 304.637557,915.545808 L304.221584,915.170146 C304.093478,915.054093 303.965906,914.938121 303.83899,914.82216 L303.460338,914.474242 C298.503922,909.891937 294.763894,905.218396 299.807223,896.143572 C300.546035,894.874362 301.336574,893.750979 302.081749,892.693335 C301.720264,892.093214 301.359695,891.470927 301,890.825694 C297.238201,884.07765 292.855496,869.210497 292.855496,852.143574 C292.855496,834.264819 279.641442,835.97979 276.383907,816.412865 C275.379458,810.379472 278.25814,803.429528 281.309081,796.237288 L281.76755,795.156719 L282.22582,794.073021 C282.4392,793.566644 282.651605,793.05941 282.861764,792.551551 L283.175157,791.789321 C287.015632,782.383417 289.869228,772.802977 283.676868,764.512308 C261.710722,735.102835 276.659672,711.297535 276.383907,709.686694 C275.356449,703.684935 260.097242,692.227693 264.221807,679 C264.372925,678.515356 264.517522,678.041765 264.655809,677.578795 L265.126259,675.539737 C265.7759,671.743862 263.095845,669.27948 260.233195,666.777097 L259.711401,666.321395 L259.711401,666.321395 L259.189787,665.863026 C257.022607,663.945058 254.969564,661.910011 254.398982,659.162443 C253.397057,654.700894 255.996542,652.217637 258.800684,650.04727 L259.184017,649.753093 C259.503986,649.509302 259.824604,649.268574 260.140887,649.028464 L260.558688,648.709167 C262.372556,647.311213 263.964408,645.897498 264.349692,643.985304 C264.300484,643.255684 264.264371,642.487748 264.243271,641.677766 C263.860114,640.236588 262.882432,638.539757 261.08049,636.474136 C260.43259,635.768444 259.755516,635.089792 259.068678,634.42757 L258.655559,634.032124 L258.241028,633.640112 C257.895256,633.314724 257.548984,632.992382 257.204638,632.67176 L256.792504,632.287755 C256.655537,632.159971 256.519034,632.032378 256.38315,631.904891 L255.977509,631.522659 C250.934081,626.746594 246.979173,621.99935 252.30152,612.804173 C254.195247,609.677733 256.3936,607.460138 257.42134,604.890567 C256.989581,602.103624 256.642583,599.268822 256.428063,596.419172 C254.292294,592.197286 249.509952,589.177078 248.267726,584.067236 C246.147511,574.772973 251.717363,576.524073 256.074017,572.431827 C260.266696,568.173096 258.373584,564.875253 255.803051,561.392172 L255.525291,561.018223 L255.525291,561.018223 L255.102164,560.453958 C254.912993,560.202151 254.72283,559.948877 254.533646,559.693718 L254.24645,559.303486 L253.962317,558.91001 C253.022032,557.592651 252.1586,556.215746 251.630123,554.7246 C248.595463,547.536714 251.131609,543.950317 255.185362,537.470649 L255.240069,537.375748 C254.491838,529.873259 251.039572,524.253256 251.668269,509.171979 C249.910015,507.243726 248.490352,505.114792 248.003975,502.50602 C246.792106,496.524671 250.251771,492.773821 254.112134,489.412835 C254.745992,486.01547 255.520564,482.325289 256.456766,478.307651 L256.503861,478.099919 C256.484552,478.095926 256.471171,478.086751 256.463846,478.072279 L256.503929,478.017348 L256.537,477.963666 L256.580582,477.779966 L256.706189,477.251916 L256.706189,477.251916 C256.779071,474.899078 253.825966,469.336144 252.637727,463.475132 C245.32227,457.207529 238.544208,451.998361 246.000536,438.658401 C247.816479,435.549943 249.830011,433.081787 251.336954,430.623784 C252.31017,427.797652 253.076921,425.383622 253.659317,423.231087 C253.624392,421.420578 253.161353,419.395725 252.113843,417.017979 C249.66969,410.686351 242.807963,406.545778 241.172619,399.124137 C239.355072,390.301388 242.26545,388.681058 246.14468,386.641237 L246.494564,386.457242 C248.138507,385.591475 249.932063,384.612708 251.600863,382.964635 C253.75904,380.66408 254.715813,378.577147 254.885232,376.606825 L254.878231,377.347354 C254.882978,376.697487 254.887759,376.048979 254.892537,375.402945 C254.674186,372.331742 252.670586,369.506082 250.560423,366.532893 L250.232764,366.070869 C248.592521,363.754297 246.940339,361.336942 246.056986,358.635873 C242.192031,348.779971 245.576883,343.79701 250.999258,334.802646 C256.704876,324.593996 253.805412,322.64786 252.482562,311.459334 C249.554263,290.29378 250.283715,284.914138 252.482562,268.137341 C252.496484,268.02715 252.552363,267.93686 252.646293,267.864728 C251.766777,264.008497 250.967786,255.680834 251.237075,246.479303 L251.243535,246.291899 C249.848154,238.876752 250.921921,222.698343 251.000003,218.582748 C251.035829,216.694371 251.109383,214.463423 251.196784,212.228766 L251.224817,211.523357 L251.250807,210.887539 C251.31166,209.417332 251.376479,207.975218 251.43835,206.659287 C251.391376,204.427839 251.309658,202.496558 251.187351,200.985721 C258.10048,194.102924 261.904507,188.892684 265.925073,180.774821 C267.669494,177.252688 268.923323,174.392799 269.949926,171.537417 C271.403538,165.80492 272.9822,158.639375 274.685494,150.041522 L274.964478,150.036963 C277.44978,149.954899 279.244427,148.764975 280.34842,146.467191 C282.065741,142.892861 282.842202,139.914718 282.842202,136.861753 C282.842202,134.793615 283.552449,131.433393 284.243077,127.955748 L284.439235,126.959955 C284.698386,125.630676 284.944602,124.300592 285.137532,123.034644 C285.211062,122.552164 286.166992,118.545445 286.931535,114.015993 L287.039337,113.365697 C287.057049,113.256829 287.074623,113.147746 287.092045,113.038489 L287.210052,112.279796 L287.322135,111.518506 C287.889654,107.544599 288.171565,103.586593 287.484663,101.554216 C287.389295,101.307015 287.262504,101.035583 287.076078,100.733352 C287.021862,100.659309 286.964825,100.593089 286.904638,100.533462 C285.787368,99.4265899 284.782406,98.7372358 283.6982,98.3543325 L283.453,98.2726664 L283.309362,98.24826 C282.174235,98.0613383 281.183177,97.986514 280.320081,97.9909588 C279.509182,98.0438805 278.610795,98.1650691 277.587977,98.3331398 C275.587987,98.8830136 274.954578,99.9042626 274.954578,99.9042626 C230.286089,92.9805566 202.773374,59.5407177 191.499543,42.6524041 C190.687206,45.7797238 188.821003,48.0724673 184.903872,47.5953418 C183.173408,47.4642462 183.456516,52.8910172 182.459149,51.9753432 C181.363169,50.9691337 179.937781,52.172983 178.182983,55.5868913 C177.784844,61.251617 176.217357,64.2557953 173.480525,64.5994261 L173.296337,64.6183933 L171.768735,64.6183933 C172.991096,69.4837148 176.656781,68.4405772 174.213458,74.0002621 C173.601577,76.0849449 170.547773,75.7377632 170.851613,78.5152169 C171.156854,80.9470814 173.296337,80.2543105 174.213458,81.6430373 C177.586336,86.9418574 175.63648,89.3572483 173.074313,91.6697589 L172.792601,91.9217584 C172.603476,92.0896642 172.412018,92.2575607 172.22004,92.4265174 L171.749467,92.8433183 L171.43752,93.1252725 C169.626228,94.7820611 167.991764,96.6674715 168.10305,99.7076339 C168.10305,102.835454 172.073975,104.920137 172.991096,107.350409 C174.822539,110.825411 175.129179,114.994777 173.601577,118.816961 C172.495431,121.583266 167.870619,125.625226 168.18286,129.097043 C168.706194,132.557844 171.631517,133.659775 171.768735,133.755329 C174.822539,136.187194 177.876343,139.315014 176.960622,144.525925 C176.427737,146.46535 175.003058,148.066406 173.645891,149.56503 L173.375642,149.863459 C170.956619,152.538285 168.963545,154.932191 172.991096,158.421156 C174.151494,159.501676 175.494193,160.084629 176.805153,160.642539 L177.217836,160.818439 C179.547564,161.81674 181.703507,162.894125 182.459149,166.758295 C183.37627,171.625209 179.711986,173.709892 178.794864,177.879257 C176.656781,187.953897 191.928602,184.826077 193.454804,194.900716 C194.677166,202.543491 182.764389,205.671312 189.483878,211.92536 C190.086687,212.524998 190.949399,212.934563 191.856834,213.310272 L192.160674,213.434468 L192.302565,213.491714 L192.302565,213.491714 L192.72846,213.66316 C192.822902,213.701383 192.917092,213.739773 193.010793,213.778505 L193.290188,213.895894 C195.509798,214.84594 197.310668,216.09145 195.412526,220.013842 L195.289046,220.262499 L194.371925,222 L194.371925,220.260906 C194.066685,214.704407 186.124834,214.704407 183.986751,209.839085 C182.48382,206.563856 184.164284,203.988961 185.975683,201.563945 L186.241346,201.210071 C186.285661,201.151249 186.329965,201.0925 186.374214,201.033816 L186.638695,200.682433 C189.00671,197.525874 190.956117,194.51286 185.512953,190.385762 C184.739117,189.829634 183.927296,189.341484 183.108615,188.888365 L182.698846,188.664572 C182.630504,188.627709 182.562151,188.591051 182.493804,188.554579 L182.083941,188.337827 L181.675097,188.124626 C181.607089,188.089337 181.53916,188.054158 181.471327,188.01907 L181.065631,187.809478 L180.863921,187.705213 L180.863921,187.705213 L180.463319,187.497171 C176.146146,185.244438 172.617014,182.972229 174.822539,175.444208 C176.350141,170.583664 179.098704,167.804618 175.433019,162.937703 C173.294937,159.811476 169.018771,158.421156 167.187329,154.602157 C164.133524,147.999335 168.40829,148.348109 170.851613,144.525925 C173.295403,140.357621 170.987898,138.195964 168.363225,135.879768 L168.019442,135.576601 C166.812457,134.511207 165.579551,133.394022 164.742605,132.019421 C161.38216,127.154099 162.605922,124.027872 164.437365,118.468187 C166.270207,112.214138 164.437365,111.521367 162.297882,105.612908 C158.023116,94.4983158 168.297675,87.9001041 167.734849,82.9575534 C167.68664,82.5341937 167.641008,82.0989789 167.597724,81.6596948 L167.52578,80.9041029 L167.474686,80.3374204 C167.424777,79.772173 167.378369,79.2130691 167.334974,78.6766561 L167.306485,78.3225907 C166.955816,73.9433336 166.806828,71.3952049 166.576848,80.2543105 C166.104707,89.658231 161.199113,91.3729608 155.043816,93.7565227 C154.729736,95.2855874 154.441267,96.8550972 154.179904,98.464021 L153.74829,98.4008974 C151.62045,98.0986132 149.945863,97.9963409 148.724528,98.0940805 C147.42177,98.1983361 146.310733,98.556088 145.391415,99.1673361 C143.87135,100.220387 143.079547,102.01299 143.016007,104.545144 C142.977632,106.07444 143.332332,108.93054 143.619763,111.885415 C143.80958,113.836788 146.684276,126.750463 147.376968,131.033325 C147.502454,131.809195 147.753524,132.883439 147.810068,133.473443 C148.174969,137.280969 148.608902,140.864982 148.889122,141.944377 C148.983277,142.30706 149.171849,143.048652 149.39652,143.981505 L149.391425,143.9504 C151.665857,150.812708 156.31208,150.041522 156.31208,150.041522 C159.680954,184.353601 179.260316,200.677987 179.260316,200.677987 C179.684961,213.809273 179.901707,223.793492 179.910554,230.630646 L179.910252,231.729086 C179.903631,235.450894 179.840799,238.273793 179.724096,241.073498 L179.680674,242.062093 C179.657848,242.557334 179.633353,243.055062 179.607202,243.560088 C179.562438,244.424561 179.464302,245.505857 179.312795,246.803977 L179.260313,247.244714 C178.564763,249.650701 177.707788,251.569161 176.689386,253.000096 C175.161784,255.146497 173.790229,256.466132 172.623516,257.613394 C171.506633,258.711657 169.172214,260.78772 166.576848,262.704779 C163.668763,264.852826 160.435114,266.841298 158.260347,267.825608 C152.130255,270.60012 142.785686,273.627098 130.226638,276.906542 C127.237403,273.895018 124.79408,269.973957 122.896669,265.14336 C121.601863,261.846928 123.956581,255.89492 122.896669,251.743102 C122.268825,249.283754 116.464314,244.462494 116.464314,241.606513 C116.464314,233.927187 119.293427,230.047511 118.619103,227.599376 C117.810825,224.664921 113.413379,219.743528 112.816735,217.067042 C110.728741,207.700509 112.669068,202.616629 111.899614,201.850721 C107.318208,196.638217 108.84581,196.289443 112.816735,192.816033 C118.16982,188.160705 115.975364,185.627832 113.219353,182.743852 L112.955402,182.468046 C112.911202,182.421876 112.866916,182.375596 112.822572,182.329199 L112.496759,181.98669 C110.105871,179.45731 107.745712,176.51633 109.761531,171.625209 C111.595774,166.758295 116.48242,167.455843 118.619103,163.28807 C121.979547,157.7252 116.78766,157.034022 114.037697,153.557427 C105.180125,141.745286 121.674307,142.441242 119.841464,134.796875 C119.440836,132.973474 118.163031,132.014569 116.877821,131.076239 L116.511169,130.807976 C114.98887,129.68647 113.573477,128.480218 113.732456,125.765373 C114.028447,122.732335 117.197283,120.027253 119.338605,118.598376 L119.536224,118.468187 L121.370467,117.426641 C130.838519,111.866956 125.950473,110.131048 129.616158,109.08791 C135.726566,107.697591 132.671362,98.6660888 133.281843,94.1495415 C134.020111,88.9714411 135.898124,86.7247928 138.297205,85.479537 C138.44443,84.5296399 138.701229,83.5603161 139.067551,82.5722559 C138.976843,78.972715 137.633494,69.7318406 139.067551,65.6426246 C141.772582,57.955442 143.569126,53.7891446 147.751517,48.2102718 C152.075315,36.1498582 160.698668,24.4208485 176.825316,16.3414432 C176.867699,16.2946709 176.911608,16.2451011 176.960622,16.1952715 C180.905799,12.1843993 189.604956,7.8883584 197.106316,5.07297312 C200.939434,3.63434057 204.137359,3.61064101 206.895182,2.08268713 C210.958667,0.692898595 219.918452,0.577171361 233.774538,1.73550542 Z" id="Knee-lenght" fill="#34CCBF"></path>
            </g>
        </g>
    </g>
</svg>