<?xml version="1.0" encoding="UTF-8"?>
<svg width="431px" height="1631px" viewBox="0 0 431 1631" version="1.1" xmlns="http://www.w3.org/2000/svg" xmlns:xlink="http://www.w3.org/1999/xlink">
    <title>Illustration</title>
    <defs>
        <linearGradient x1="52.1120617%" y1="13.9053107%" x2="50%" y2="81.2985503%" id="linearGradient-1">
            <stop stop-color="#FFFFFF" stop-opacity="0" offset="0%"></stop>
            <stop stop-color="#FFFFFF" stop-opacity="0.506009615" offset="37.3155655%"></stop>
            <stop stop-color="#FFFFFF" offset="100%"></stop>
        </linearGradient>
    </defs>
    <g id="Page-1" stroke="none" stroke-width="1" fill="none" fill-rule="evenodd">
        <g id="Quiz_page_q9_16_Calf_length_1920" transform="translate(-617.000000, -364.000000)">
            <g id="Illustration" transform="translate(617.000000, 364.000000)">
                <path d="M14.8396914,693.045623 C13.3590816,597.692973 22.2451715,579.95396 25.952774,561.475216 C29.6603764,542.996471 35.5828156,480.16777 39.290418,406.250367 C42.9980205,332.335389 51.1425899,332.335389 60.7774939,314.596377 C70.4099667,296.854939 144.501236,279.853233 154.880092,275.419692 C165.254085,270.983726 177.845346,261.376914 179.260313,253.244714 C180.67528,245.112514 179.260313,206.677987 179.260313,206.677987 C158.449115,187.457085 156.312077,156.041522 156.312077,156.041522 C148.93334,156.533868 148.196682,144.513832 147.948698,140.589615 C147.703146,136.665398 142.78723,119.003996 143.035213,110.173296 C143.280766,101.342595 154.179902,104.464021 154.179902,104.464021 C154.179902,34.9073978 190.278578,28 215.497569,28 C240.718991,28 276.817667,34.9073978 276.817667,104.464021 C276.817667,104.464021 287.714371,101.342595 287.962355,110.173296 C288.21277,119.003996 283.296854,136.665398 283.04887,140.589615 C282.800886,144.513832 282.061797,156.533868 274.685492,156.041522 C274.685492,156.041522 272.550885,187.457085 251.739687,206.677987 C251.739687,206.677987 250.322289,245.112514 251.739687,253.244714 C253.154654,261.376914 265.743484,270.983726 276.119908,275.419692 C286.493902,279.853233 360.587602,296.854939 370.222506,314.596377 C379.854979,332.335389 387.999548,332.335389 391.707151,406.250367 C395.414753,480.16777 401.337192,542.996471 405.044795,561.475216 C408.752397,579.95396 417.640918,597.692973 416.157877,693.045623 C414.677268,788.395847 422.829131,810.573251 422.829131,810.573251 C422.829131,810.573251 436.169206,877.098186 428.758863,892.618003 C421.34609,908.14267 412.455137,919.228947 408.010877,918.49164 C403.564185,917.751909 405.786315,909.62456 405.786315,909.62456 C405.786315,909.62456 387.267753,921.516052 382.821061,918.528021 C378.374369,915.535138 376.888897,917.751909 373.188588,912.578636 C369.483417,907.405364 376.152239,902.229666 376.152239,902.229666 C376.152239,902.229666 371.705547,900.750203 368.741896,897.053969 C365.775814,893.36016 389.489883,880.054688 389.489883,861.573518 C389.489883,843.097199 385.784712,822.401684 391.712013,800.966438 C397.636884,779.528766 365.036725,718.179528 359.848513,653.131632 C354.662732,588.08616 361.333985,588.821041 356.145773,567.385795 C350.95756,545.952974 328.731395,469.8188 328.731395,443.947588 L328.731395,440.991086 C328.731395,440.991086 322.804094,477.211268 313.16919,488.297545 C303.534286,499.386246 298.346073,570.344722 301.312155,579.214228 C304.278237,588.08616 358.370334,708.567865 357.626383,787.65854 C356.884862,866.749216 321.479082,1014.5816 323.251437,1040.45523 C325.021362,1066.32402 334.661128,1144.67739 335.397786,1208.2434 C336.134444,1271.80941 292.426066,1421.12125 293.906675,1486.90645 C295.387285,1552.68923 320.581964,1594.82242 313.16919,1606.65085 C305.758847,1618.47929 282.054504,1625.8669 273.900209,1625.8669 C273.900209,1625.8669 267.970477,1633.25695 257.598914,1630.30287 C247.227352,1627.34879 244.26127,1602.21004 246.483401,1574.86664 C248.707962,1547.52081 247.968873,1511.2982 242.780661,1495.77839 C237.592448,1480.25372 261.301654,1459.55578 257.598914,1435.1616 C253.893743,1410.77228 262.048037,1391.5538 251.671613,1326.51318 C241.29762,1261.46286 243.529475,1195.67766 250.193434,1163.89344 C256.854963,1132.1068 242.041571,1062.62536 236.111839,1041.93227 C230.182106,1021.23191 215.497569,868.313567 215.497569,868.313567 C215.497569,868.313567 200.815463,1021.23191 194.88573,1041.93227 C188.953566,1062.62536 174.142606,1132.1068 180.806566,1163.89344 C187.470525,1195.67766 189.70238,1261.46286 179.323525,1326.51318 C168.949531,1391.5538 177.101394,1410.77228 173.398654,1435.1616 C169.695914,1459.55578 193.40512,1480.25372 188.216908,1495.77839 C183.028696,1511.2982 182.289607,1547.52081 184.514168,1574.86664 C186.736298,1602.21004 183.772648,1627.34879 173.398654,1630.30287 C163.027092,1633.25695 157.09736,1625.8669 157.09736,1625.8669 C148.943065,1625.8669 125.238722,1618.47929 117.828379,1606.65085 C110.418036,1594.82242 135.610284,1552.68923 137.090893,1486.90645 C138.571503,1421.12125 94.8606934,1271.80941 95.5997826,1208.2434 C96.3388719,1144.67739 105.976207,1066.32402 107.746131,1040.45523 C109.518487,1014.5816 74.1127068,866.749216 73.3711863,787.65854 C72.6296658,708.567865 126.719331,588.08616 129.682982,579.214228 C132.649064,570.344722 127.460852,499.386246 117.828379,488.297545 C108.195906,477.211268 102.268605,440.991086 102.268605,440.991086 L102.268605,443.947588 C102.268605,469.8188 80.0400083,545.952974 74.851796,567.385795 C69.6635838,588.821041 76.3372683,588.08616 71.1466248,653.131632 C65.9608437,718.179528 33.3582541,779.528766 39.2855556,800.966438 C45.2104259,822.401684 41.5101171,843.097199 41.5101171,861.573518 C41.5101171,880.054688 65.2217545,893.36016 62.2556725,897.053969 C59.2920217,900.750203 54.8453299,902.229666 54.8453299,902.229666 C54.8453299,902.229666 61.514152,907.405364 57.8114119,912.578636 C54.1086719,917.751909 52.6231997,915.535138 48.1765079,918.528021 C43.7322474,921.516052 25.2112535,909.62456 25.2112535,909.62456 C25.2112535,909.62456 27.4333837,917.751909 22.9891232,918.49164 C18.5424314,919.228947 9.64904792,908.14267 2.2411366,892.618003 C-5.16920593,877.098186 8.17086936,810.573251 8.17086936,810.573251 C8.17086936,810.573251 16.3203012,788.395847 14.8396914,693.045623 Z" id="Fill-" fill="#EBFAF9"></path>
                <rect id="Rectangle" fill="url(#linearGradient-1)" x="0" y="1290" width="431" height="341"></rect>
                <path d="M352.467244,552.816871 L352.471506,552.885188 C352.483297,553.078921 352.492593,553.273018 352.499503,553.467475 C352.501884,553.534474 352.503988,553.601721 352.505811,553.669012 C352.507214,553.720874 352.50844,553.772215 352.509505,553.82358 C352.512836,553.984099 352.514594,554.145454 352.514827,554.307051 C352.515174,554.550236 352.512081,554.793478 352.505757,555.037258 C352.490733,555.616238 352.457512,556.197944 352.408864,556.782576 C352.380085,557.128385 352.345946,557.474892 352.306992,557.8224 C352.257972,558.259695 352.201351,558.698414 352.138254,559.138673 L352.133707,559.170323 C352.020313,559.957782 351.886291,560.750166 351.738161,561.547233 L351.734382,561.567551 C351.687807,561.817788 351.639847,562.068486 351.590704,562.319637 C351.536792,562.595159 351.481487,562.87108 351.425025,563.147537 L351.413645,563.203191 C351.357615,563.476858 351.300471,563.751048 351.242469,564.025753 L351.066151,564.851401 C350.947235,565.402849 350.825921,565.956314 350.704273,566.511721 L350.642399,566.794299 C350.561445,567.164179 350.480498,567.534912 350.400163,567.906475 L350.334271,568.212126 C350.261524,568.550616 350.189422,568.889789 350.118423,569.229627 L350.152557,569.066693 C349.872573,570.399604 349.608446,571.742806 349.387814,573.095269 C349.230554,574.059318 349.095462,575.027496 348.992437,576 C348.346023,582.101835 352.439004,587.243724 352.969757,594.834492 C354.247414,613.209142 364.459977,616.937045 362.086358,627.830453 C361.970863,628.360502 361.856099,628.878984 361.74211,629.386309 C361.551935,630.232718 361.363807,631.048545 361.17805,631.835172 C361.141876,631.988364 361.105718,632.140753 361.069652,632.292045 C361.003616,632.569054 360.937977,632.84202 360.872654,633.111401 C360.83971,633.247255 360.807222,633.380659 360.774815,633.513182 C360.784324,633.517315 360.792948,633.522323 360.80157,633.527333 C360.750038,633.68013 360.701297,633.836163 360.655926,633.995784 C360.604762,634.203984 360.55383,634.408793 360.503108,634.611459 L360.505211,634.600167 C360.303496,635.540786 360.228196,636.60596 360.378999,637.85628 C360.989652,642.719045 363.981332,645.179131 367.196536,647.365474 L367.680223,647.691638 C368.003439,647.908067 368.327812,648.122823 368.651184,648.338035 L369.135221,648.661461 C373.319028,651.472064 377.151355,654.53962 375.892165,662.541396 C374.783725,670.6738 372.55578,672.112185 376.814638,679.470649 C380.868391,685.950317 383.404537,689.536714 380.369877,696.7246 C379.603586,698.886762 378.13305,700.808731 376.745129,702.657255 L376.45941,703.038716 L376.177597,703.418408 L375.901239,703.796661 C373.488727,707.132502 371.895911,710.338265 375.925983,714.431827 C377.124063,715.557194 378.413891,716.240659 379.610307,716.833453 L379.934147,716.99314 C382.932442,718.467496 385.216424,719.561252 383.732274,726.067236 C382.419217,731.468438 377.150825,734.534912 375.230858,739.152207 C371.791356,746.431435 376.249996,749.110914 379.69848,754.804173 C384.504371,763.107093 381.746097,767.783413 377.452433,772.129042 L377.091202,772.490483 C376.726676,772.8513 376.352651,773.210456 375.972615,773.569859 L375.600061,773.92064 L375.412579,774.096212 L375.412579,774.096212 L375.001718,774.479583 L374.588542,774.86435 C373.346474,776.021256 372.08573,777.203889 370.91951,778.474136 C365.268652,784.951884 367.723887,787.802815 371.183327,790.508926 L371.473786,790.734175 C371.571279,790.809196 371.669395,790.88418 371.767981,790.959201 L372.057355,791.17867 C372.202571,791.288527 372.348475,791.398619 372.494592,791.50918 L372.920292,791.832702 L373.298615,792.12433 C376.06438,794.276591 378.591106,796.753607 377.601018,801.162443 C377.030436,803.910011 374.977393,805.945058 372.810213,807.863026 L372.288599,808.321395 L371.766806,808.777097 C369.956643,810.359449 368.21949,811.926607 367.351067,813.824834 C368.188301,817.071963 369.704411,821.048413 372.345,826.386982 C378.488051,838.806596 365.133092,852.362242 365.133092,858.598443 C365.133092,887.382076 385.79885,875.585439 371.149461,917.907283 C368.832027,924.602312 371.116261,931.850255 374.157982,939.246988 L374.533962,940.153426 L374.915946,941.061187 L375.361457,942.10851 C375.510676,942.457846 375.660476,942.807396 375.810457,943.157118 L376.48525,944.731886 C379.253345,951.209541 381.878336,957.7245 381.828743,964.010638 C381.706784,979.469588 373.589635,983.107281 371.337479,992.319065 C372.159159,993.514895 372.909918,994.550545 373.561175,995.396871 C394.388763,1022.46286 373.152579,1021.58056 372.055492,1042.83568 C372.677699,1047.22127 373.269699,1051.58331 373.82762,1055.90571 C376.148469,1062.46711 380.254709,1066.48897 383.464221,1069.68523 L383.964807,1070.18496 C387.410859,1073.63825 389.579906,1076.18742 386.815466,1080.1695 C386.063552,1081.2526 385.362458,1082.30172 384.709611,1083.31791 C385.497973,1086.54985 385.514817,1089.85211 384.295268,1093.30875 C379.836804,1105.94564 387.733226,1103 387.733226,1112.34434 C387.733226,1131.86769 373.744683,1128.3376 376.541536,1145.99624 C379.211391,1162.85304 378.90639,1164.58416 376.541536,1171.79087 C370.217293,1191.06353 382.281022,1203.72983 369.173996,1211.73202 C362.354116,1215.89574 387.45128,1246.58062 350.206026,1251.97346 C349.064442,1252.13875 370.18371,1241.33781 344.815378,1217.93825 C334.167745,1208.11695 331.642878,1179.35778 331.549868,1171.79087 C331.492425,1167.11756 334.7591,1148.59449 339.004471,1139.52392 C337.335741,1131.21774 334.671603,1127.80133 332.302371,1124.83935 L331.990918,1124.44996 C331.836161,1124.25621 331.682942,1124.06359 331.531633,1123.87082 L331.231672,1123.4847 C329.002722,1120.58162 327.259443,1117.45265 327.259443,1109.77254 C327.259443,1109.1278 327.24727,1108.50855 327.223694,1107.91285 L327.049451,1107.93914 L327.049451,1107.93914 C326.943803,1107.95455 327.01445,1107.88802 327.215292,1107.73909 C326.918822,1100.92038 325.113994,1097.21239 322.983304,1093.67269 L322.639207,1093.10637 L322.341554,1092.62268 C322.241863,1092.46129 322.141738,1092.29964 322.041289,1092.13745 L321.739088,1091.649 C319.265038,1087.64227 316.66469,1083.14539 315.591064,1074.04183 C315.300979,1071.58212 315.468088,1068.97008 315.91427,1066.25139 C309.409678,1053.68001 307.892138,1033.92322 307.892138,1027.83593 C307.892138,1024.13922 310.253395,1011.76421 313.571858,1002.21715 C312.581569,997.266882 312.229137,992.669795 312.253539,988.543302 C311.395739,986.430436 310.683587,983.975297 310.195218,981.041827 C309.339325,975.900758 311.302889,970.094202 313.79002,964.039314 C313.839235,963.273817 313.751233,962.565727 313.55458,961.902017 C313.185918,961.170576 312.786908,960.404917 312.372085,959.6078 C311.601424,958.561381 310.587251,957.609093 309.503117,956.671494 L309.071278,956.301418 C308.853933,956.116582 308.634747,955.931912 308.415057,955.7468 L307.884935,955.299177 C305.589534,953.353005 303.356613,951.304855 302.713429,948.458176 C301.68847,944.239832 303.93999,941.747549 306.537205,939.607305 C306.611162,938.626106 306.753805,937.632631 306.975501,936.628962 C307.980202,932.080467 308.578021,928.505473 308.892541,925.548305 L308.997953,925.656716 C307.611707,924.198733 306.098903,922.862228 304.637557,921.545808 L304.221584,921.170146 C304.093478,921.054093 303.965906,920.938121 303.83899,920.82216 L303.460338,920.474242 C303.3316,920.355221 303.203682,920.236139 303.076718,920.116919 L302.698818,919.758774 C298.13905,915.394497 295.025885,910.746976 299.807223,902.143572 C300.546035,900.874362 301.336574,899.750979 302.081749,898.693335 C301.720264,898.093214 301.359695,897.470927 301,896.825694 C297.238201,890.07765 292.855496,875.210497 292.855496,858.143574 C292.855496,840.264819 279.641442,841.97979 276.383907,822.412865 C275.379458,816.379472 278.25814,809.429528 281.309081,802.237288 L281.76755,801.156719 L282.22582,800.073021 C282.4392,799.566644 282.651605,799.05941 282.861764,798.551551 L283.175157,797.789321 C287.015632,788.383417 289.869228,778.802977 283.676868,770.512308 C261.710722,741.102835 276.659672,717.297535 276.383907,715.686694 C275.356449,709.684935 260.097242,698.227693 264.221807,685 C264.372925,684.515356 264.517522,684.041765 264.655809,683.578795 L265.126259,681.539737 C265.742585,677.938522 263.361966,675.535739 260.671737,673.161964 L260.233195,672.777097 L260.233195,672.777097 L259.711401,672.321395 L259.189787,671.863026 C257.022607,669.945058 254.969564,667.910011 254.398982,665.162443 C253.397057,660.700894 255.996542,658.217637 258.800684,656.04727 L259.184017,655.753093 C259.503986,655.509302 259.824604,655.268574 260.140887,655.028464 L260.558688,654.709167 C262.372556,653.311213 263.964408,651.897498 264.349692,649.985304 C264.300484,649.255684 264.264371,648.487748 264.243271,647.677766 C263.860114,646.236588 262.882432,644.539757 261.08049,642.474136 C260.43259,641.768444 259.755516,641.089792 259.068678,640.42757 L258.655559,640.032124 L258.241028,639.640112 C257.895256,639.314724 257.548984,638.992382 257.204638,638.67176 L256.792504,638.287755 C256.655537,638.159971 256.519034,638.032378 256.38315,637.904891 L255.977509,637.522659 C250.934081,632.746594 246.979173,627.99935 252.30152,618.804173 C254.195247,615.677733 256.3936,613.460138 257.42134,610.890567 C256.989581,608.103624 256.642583,605.268822 256.428063,602.419172 C254.292294,598.197286 249.509952,595.177078 248.267726,590.067236 C246.783576,583.561252 249.067558,582.467496 252.065853,580.99314 L252.389693,580.833453 C253.586109,580.240659 254.875937,579.557194 256.074017,578.431827 C260.266696,574.173096 258.373584,570.875253 255.803051,567.392172 L255.525291,567.018223 L255.102164,566.453958 C254.912993,566.202151 254.72283,565.948877 254.533646,565.693718 L254.24645,565.303486 L253.962317,564.91001 C253.022032,563.592651 252.1586,562.215746 251.630123,560.7246 C248.595463,553.536714 251.131609,549.950317 255.185362,543.470649 L255.240212,543.377183 C255.103019,542.000872 254.874818,540.687932 254.597493,539.368339 C254.452365,538.677754 254.293692,537.984988 254.127563,537.280347 L254.103674,537.179154 C253.792155,535.861213 253.455638,534.500192 253.133272,533.030641 C252.990197,532.378435 252.849781,531.704211 252.715588,531.002833 C252.62494,530.529048 252.53713,530.04286 252.453217,529.542513 C252.391885,529.176797 252.332672,528.803765 252.275951,528.422488 C252.239993,528.18077 252.205076,527.936025 252.171262,527.687799 C252.070367,526.947044 251.9794,526.17623 251.901013,525.369856 L251.896443,525.322655 C251.891252,525.268826 251.886117,525.21484 251.881039,525.160693 C251.840931,524.733 251.804381,524.295431 251.771785,523.847227 C251.764246,523.743563 251.756884,523.638841 251.749742,523.533537 C251.720207,523.098134 251.694399,522.652557 251.67269,522.196409 C251.667705,522.091663 251.662923,521.986056 251.658362,521.87988 C251.647597,521.629252 251.638069,521.375515 251.629835,521.118519 C251.609942,520.497746 251.59759,519.857678 251.593601,519.197216 C251.590457,518.676309 251.59251,518.143097 251.600156,517.596551 C251.602259,517.446272 251.604781,517.295144 251.607734,517.142997 C251.613498,516.84613 251.62087,516.546409 251.629929,516.242732 C251.638433,515.957684 251.648416,515.669335 251.659934,515.37742 L251.668269,515.171979 L251.668269,515.171979 C249.910015,513.243726 248.490352,511.114792 248.003975,508.50602 C246.792106,502.524671 250.251771,498.773821 254.112134,495.412835 L254.134194,495.292392 C254.171131,495.095196 254.208538,494.897023 254.246419,494.697864 L254.112134,495.412835 C254.189541,494.99795 254.269046,494.578697 254.350688,494.155015 C254.37067,494.04978 254.390723,493.94617 254.410903,493.842297 L254.350688,494.155015 C254.399588,493.901245 254.449255,493.645885 254.499697,493.388922 C254.698046,492.377717 254.908726,491.34106 255.13188,490.278803 C255.436874,488.827065 255.764913,487.328517 256.117553,485.77998 C256.202407,485.407367 256.28853,485.032529 256.37609,484.654779 C256.40296,484.538857 256.429796,484.42339 256.456766,484.307651 L256.503861,484.099919 C256.484552,484.095926 256.471171,484.086751 256.463846,484.072279 L256.503929,484.017348 L256.537,483.963666 L256.580582,483.779966 L256.706189,483.251916 C256.708302,483.183718 256.707872,483.112822 256.705017,483.039301 C256.699791,482.904586 256.686366,482.760634 256.665474,482.608255 C256.643323,482.446442 256.612558,482.274298 256.57417,482.093093 C256.550361,481.980795 256.523725,481.865359 256.494386,481.74659 C256.484846,481.707915 256.475066,481.669122 256.465009,481.629984 L256.494386,481.74659 C256.415653,481.427869 256.317457,481.085147 256.203807,480.720859 C256.189138,480.673785 256.173895,480.625407 256.158393,480.576659 L256.203807,480.720859 C256.143479,480.527486 256.078796,480.328036 256.010357,480.122874 C255.848924,479.638856 255.666189,479.122016 255.470387,478.578069 C255.39225,478.361031 255.312045,478.139684 255.230264,477.914327 C254.871699,476.926247 254.482958,475.8615 254.106273,474.745475 L254.054764,474.592328 C253.943755,474.261023 253.833967,473.925339 253.726497,473.585941 C253.542675,473.005399 253.36572,472.414315 253.201006,471.8157 C253.070654,471.341974 252.947959,470.863492 252.835641,470.38194 L252.818964,470.310077 C252.754894,470.032648 252.69431,469.754228 252.637727,469.475132 C252.198799,469.099076 251.761807,468.72683 251.329707,468.35641 L250.899348,467.986524 C244.32888,462.322025 239.140714,456.931164 246.000536,444.658401 C247.816479,441.549943 249.830011,439.081787 251.336954,436.623784 C251.511917,436.115708 251.680207,435.62095 251.841952,435.138637 C251.933183,434.866192 252.022895,434.59646 252.110522,434.330571 C252.181237,434.116273 252.250335,433.904965 252.318097,433.696062 C252.413309,433.402368 252.50631,433.112292 252.596683,432.826768 L252.732936,432.393436 C252.788139,432.21659 252.842308,432.041502 252.895452,431.868115 C252.913278,431.809907 252.930949,431.752075 252.948505,431.69443 L252.895452,431.868115 C253.162889,430.995573 253.404362,430.166098 253.62096,429.372254 C253.633851,429.325012 253.647037,429.276481 253.660129,429.228083 C253.624392,427.420578 253.161353,425.395725 252.113843,423.017979 C251.075078,420.327037 249.238389,418.031854 247.344099,415.71236 L246.67434,414.892022 C244.330252,412.012516 242.031174,409.020499 241.172619,405.124137 C239.355072,396.301388 242.26545,394.681058 246.14468,392.641237 L246.494564,392.457242 C248.138507,391.591475 249.932063,390.612708 251.600863,388.964635 C253.669116,386.759937 254.633996,384.751429 254.859924,382.85373 L254.883,382.623 L254.885373,382.373712 C254.887758,382.049598 254.890148,381.725962 254.892537,381.402945 C254.674186,378.331742 252.670586,375.506082 250.560423,372.532893 L250.232764,372.070869 C248.592521,369.754297 246.940339,367.336942 246.056986,364.635873 C242.192031,354.779971 245.576883,349.79701 250.999258,340.802646 C256.704876,330.593996 253.805412,328.64786 252.482562,317.459334 C249.554263,296.29378 250.283715,290.914138 252.482562,274.137341 C252.496484,274.02715 252.552363,273.93686 252.646293,273.864728 L252.592554,273.623076 L252.592554,273.623076 L252.576824,273.551808 C252.499457,273.189871 252.422924,272.793695 252.347909,272.365768 C252.336977,272.302074 252.325846,272.237711 252.314751,272.172653 C252.270109,271.912086 252.226285,271.640496 252.183179,271.358301 C252.16416,271.232722 252.145138,271.105213 252.126271,270.975653 L252.094486,270.755387 C252.059881,270.511176 252.025832,270.260026 251.992418,270.002232 C251.95748,269.731916 251.923118,269.454162 251.889548,269.169428 L251.87494,269.045337 C251.831031,268.667584 251.788521,268.277811 251.747623,267.876793 C251.734905,267.751571 251.722262,267.624973 251.709783,267.497297 C251.698567,267.383023 251.687556,267.26814 251.67668,267.152414 L251.637611,266.726056 C251.605602,266.36844 251.574897,266.003238 251.545627,265.630925 C251.520704,265.314207 251.496856,264.992493 251.474126,264.665932 L251.461827,264.486904 C251.456235,264.404662 251.450714,264.322118 251.445266,264.239278 C251.401185,263.569211 251.361869,262.88019 251.32794,262.174225 C251.318004,261.96735 251.308534,261.759265 251.299542,261.549788 C251.290803,261.346299 251.28252,261.141494 251.274704,260.935431 C251.24323,260.105751 251.219306,259.255123 251.203952,258.38772 C251.187815,257.476102 251.181145,256.545919 251.185103,255.601431 L251.18696,255.264979 C251.190857,254.696166 251.19863,254.122381 251.210531,253.544536 C251.217818,253.190758 251.226645,252.835686 251.237075,252.479303 L251.243535,252.291899 C249.848154,244.876752 250.921921,228.698343 251.000003,224.582748 C251.019981,223.529699 251.051692,222.37012 251.090994,221.162774 C251.108872,220.613572 251.128309,220.054807 251.148925,219.491692 C251.158551,219.228794 251.168433,218.964949 251.178533,218.700717 C251.184547,218.543366 251.190631,218.386075 251.196784,218.228766 L251.224817,217.523357 L251.250807,216.887539 C251.261775,216.622564 251.272871,216.358501 251.284056,216.095925 C251.335003,214.89986 251.387797,213.734353 251.438597,212.654023 C251.391376,210.427839 251.309658,208.496558 251.187351,206.985721 C258.10048,200.102924 261.904507,194.892684 265.925073,186.774821 C267.669494,183.252688 268.923323,180.392799 269.949926,177.537417 L269.954938,177.517555 C270.265449,176.292571 270.581661,175.002231 270.903571,173.646543 C271.072921,172.933377 271.243683,172.202798 271.416017,171.454168 C271.486447,171.148189 271.557193,170.83899 271.628203,170.526772 C271.721096,170.118361 271.814433,169.704784 271.90822,169.28604 C272.081918,168.510496 272.257273,167.716735 272.434174,166.905231 C272.545269,166.395611 272.657083,165.878478 272.769507,165.354334 C272.855043,164.955542 272.941063,164.552082 273.027438,164.144552 C273.071854,163.934998 273.116358,163.724384 273.160957,163.512693 C273.241802,163.128948 273.322938,162.741756 273.404382,162.35103 C273.575687,161.529192 273.748358,160.691694 273.922391,159.838557 C274.000208,159.457085 274.078258,159.072678 274.156581,158.685148 C274.331521,157.819562 274.50783,156.938334 274.685494,156.041522 L274.964478,156.036963 C277.44978,155.954899 279.244427,154.764975 280.34842,152.467191 C282.065741,148.892861 282.842202,145.914718 282.842202,142.861753 C282.842202,140.793615 283.552449,137.433393 284.243077,133.955748 L284.439235,132.959955 C284.698386,131.630676 284.944602,130.300592 285.137532,129.034644 C285.211062,128.552164 286.166992,124.545445 286.931535,120.015993 L287.039337,119.365697 C287.057049,119.256829 287.074623,119.147746 287.092045,119.038489 L287.210052,118.279796 L287.322135,117.518506 C287.889654,113.544599 288.171565,109.586593 287.484663,107.554216 C287.389295,107.307015 287.262504,107.035583 287.076078,106.733352 C287.021862,106.659309 286.964825,106.593089 286.904638,106.533462 C285.787368,105.42659 284.782406,104.737236 283.6982,104.354333 L283.455,104.273 L283.39,104.262 L283.309362,104.24826 C283.02558,104.20153 282.750803,104.161805 282.484778,104.128574 L282.12579,104.087062 C281.902676,104.063368 281.686018,104.044351 281.475652,104.029681 C281.440901,104.027258 281.406593,104.024971 281.372453,104.022799 L281.475652,104.029681 C281.392202,104.023862 281.309742,104.018726 281.228263,104.014254 L281.372453,104.022799 C281.25877,104.015568 281.146953,104.009614 281.036976,104.004885 C280.540017,104.035212 280.039946,104.053265 279.544649,104.060099 C278.945438,104.122779 278.297031,104.216639 277.588994,104.332973 C277.508035,104.354454 277.43082,104.377041 277.355711,104.400277 C276.823399,104.565445 276.396689,104.762721 276.059574,104.959363 C276.004118,104.991424 275.9511,105.023762 275.900432,105.055934 C275.885189,105.065866 275.870362,105.075395 275.855739,105.084905 L275.900432,105.055934 C275.880094,105.068848 275.860133,105.081736 275.840547,105.094588 L275.855739,105.084905 C275.776723,105.136295 275.703696,105.187147 275.636359,105.23685 C275.587253,105.272937 275.541377,105.308425 275.498384,105.343073 C275.419406,105.406831 275.35006,105.467714 275.28976,105.524302 C275.280453,105.53296 275.271081,105.541862 275.261935,105.550649 L275.28976,105.524302 C275.262199,105.550167 275.236528,105.575135 275.212678,105.599066 L275.187331,105.624756 C275.169118,105.643481 275.152079,105.661494 275.136178,105.678725 L275.106624,105.711315 C275.095569,105.723703 275.085167,105.735603 275.075402,105.746984 C275.064087,105.760157 275.053858,105.77237 275.044422,105.783868 C275.0278,105.804145 275.013886,105.821859 275.002224,105.837183 L274.978496,105.869246 C274.962227,105.89193 274.954578,105.904263 274.954578,105.904263 C274.5243,105.837569 274.095614,105.768414 273.668518,105.696838 L274.954578,105.904263 C274.367545,105.813271 273.783475,105.7177 273.202366,105.617648 C272.909835,105.567281 272.617832,105.515739 272.326579,105.463072 C272.210603,105.442099 272.095379,105.421065 271.980272,105.399855 C271.671067,105.34288 271.362238,105.284547 271.054261,105.224957 C270.882849,105.191791 270.711563,105.158208 270.540542,105.124238 C270.292849,105.075039 270.045768,105.025039 269.799241,104.974236 C269.560447,104.925026 269.322199,104.875067 269.08447,104.824362 C268.919215,104.789114 268.754411,104.753548 268.589857,104.717626 C268.367461,104.669076 268.145248,104.619811 267.923493,104.569898 C267.687128,104.516696 267.451298,104.46276 267.215989,104.408094 C267.056137,104.370958 266.896557,104.333493 266.737218,104.295693 C266.510499,104.241909 266.284252,104.187445 266.058491,104.13231 C265.844448,104.080036 265.63098,104.027194 265.417948,103.973756 C265.190875,103.916796 264.963968,103.859074 264.737557,103.800678 C264.593861,103.763616 264.450471,103.726311 264.307281,103.688737 C264.022778,103.61408 263.739137,103.538383 263.456285,103.461637 C263.338248,103.429611 263.21989,103.397277 263.101671,103.364759 C262.829582,103.289917 262.55869,103.214238 262.288527,103.137606 C262.128,103.092073 261.967309,103.046081 261.806877,102.999754 C261.582566,102.93498 261.35894,102.869603 261.13582,102.803577 C260.941237,102.745995 260.747224,102.687977 260.553595,102.629471 C260.344618,102.566328 260.135888,102.502555 259.927606,102.438219 C259.739526,102.380123 259.551917,102.321601 259.364673,102.262624 C259.175043,102.202897 258.985602,102.142644 258.796535,102.081928 C258.580046,102.012406 258.364117,101.9423 258.148679,101.871594 C257.970765,101.813204 257.793346,101.754458 257.61626,101.695307 C257.40406,101.624428 257.192494,101.55302 256.981407,101.481039 C256.777813,101.411614 256.57399,101.341422 256.370614,101.270698 C256.19999,101.211363 256.029887,101.151727 255.860098,101.091722 C255.597402,100.998882 255.335418,100.905142 255.074188,100.810531 C254.961708,100.769794 254.848858,100.728709 254.736149,100.687461 C254.406665,100.56688 254.078997,100.445145 253.752527,100.322054 C253.708215,100.305347 253.663294,100.288377 253.618396,100.27138 C253.354964,100.171656 253.092785,100.071233 252.831384,99.9699438 C252.691355,99.9156853 252.551266,99.8610672 252.411401,99.8062018 C252.087247,99.6790437 251.76448,99.5506312 251.442916,99.4209177 C251.402607,99.4046575 251.36236,99.3883948 251.322133,99.3721117 C250.98139,99.2341885 250.641815,99.0947284 250.303594,98.9538376 C250.263144,98.936988 250.221928,98.9197895 250.180732,98.9025699 C250.019084,98.8350004 249.858495,98.7674222 249.698214,98.6995237 C249.164605,98.4734783 248.634118,98.2437594 248.107033,98.0106095 C248.071101,97.9947154 248.03487,97.9786659 247.998655,97.9626002 C247.833783,97.8894591 247.66946,97.8160791 247.505469,97.7423682 C247.297788,97.6490195 247.090439,97.5550486 246.883624,97.4605536 C246.72754,97.3892378 246.571776,97.3176308 246.416316,97.2457286 C246.223265,97.1564406 246.030471,97.0665981 245.838147,96.9763058 C245.676892,96.9005989 245.51634,96.824753 245.356116,96.748596 C245.150453,96.6508405 244.945303,96.552559 244.740695,96.4537726 C244.608378,96.3898897 244.475798,96.3255573 244.343447,96.2610143 C244.123259,96.1536353 243.904134,96.0458873 243.685638,95.9375684 C243.532242,95.8615233 243.37899,95.7851135 243.226048,95.7084252 C243.018467,95.6043397 242.811324,95.4996729 242.604753,95.3945008 C242.483987,95.3330144 242.36355,95.2714239 242.243309,95.2096627 C242.04389,95.1072333 241.8448,95.0042262 241.646247,94.9007565 C241.439549,94.7930409 241.23367,94.6849493 241.028373,94.5763662 C240.856,94.4851975 240.683608,94.3934529 240.511628,94.3013653 C240.409721,94.246799 240.307942,94.1921031 240.206308,94.1372878 C239.973721,94.0118451 239.741786,93.885719 239.510609,93.7589799 C239.354464,93.6733763 239.198693,93.5875081 239.043267,93.5013644 C238.88606,93.4142344 238.728687,93.3265318 238.57167,93.2385496 C238.407508,93.1465634 238.243814,93.0543163 238.080508,92.9617686 C237.86896,92.8418811 237.658243,92.7215925 237.448177,92.6008107 C237.364107,92.552473 237.279794,92.503856 237.195586,92.4551601 C236.942454,92.3087773 236.690461,92.161792 236.439414,92.0141122 C236.328361,91.9487854 236.216962,91.8830075 236.105749,91.817094 C235.952636,91.7263465 235.799907,91.6353592 235.647531,91.544119 C235.455066,91.428873 235.263424,91.3133799 235.072346,91.1974927 C234.935519,91.1145097 234.798375,91.0309541 234.661523,90.9471978 C234.497464,90.846789 234.33432,90.7463987 234.171593,90.645727 C234.013739,90.5480712 233.855882,90.449904 233.698419,90.3514756 C233.504096,90.2300068 233.3103,90.1080937 233.117103,89.9857915 C233.057414,89.9480056 232.997947,89.9102877 232.938538,89.872533 C232.710454,89.7275869 232.482979,89.5819521 232.256345,89.4357911 C232.029774,89.2896708 231.804198,89.1431256 231.57946,88.9960704 C231.485709,88.9347252 231.392058,88.8732611 231.298553,88.8117092 C229.761295,87.7997877 228.262863,86.763685 226.803829,85.7087537 C226.549612,85.5249446 226.296944,85.3408237 226.045469,85.1561588 C226.011461,85.1311863 225.976521,85.1055021 225.941605,85.0798075 C225.686251,84.8918943 225.432879,84.7039823 225.180731,84.5155416 C225.150449,84.4929112 225.119483,84.469747 225.088534,84.4465749 C224.901839,84.3067878 224.716204,84.1670053 224.531239,84.0269463 C224.426476,83.9476189 224.321331,83.8677483 224.216404,83.7877901 C223.511595,83.2506931 222.81715,82.7100837 222.132481,82.1661321 C221.950055,82.0212001 221.768129,81.8758746 221.586898,81.7303228 C221.483556,81.6473266 221.380249,81.5641017 221.277168,81.4808052 C221.138332,81.3686167 220.999364,81.255856 220.860811,81.1429695 C220.69268,81.0059826 220.525616,80.8691868 220.359159,80.7322162 C220.270901,80.6595933 220.182211,80.5864221 220.093693,80.5132025 C219.887306,80.3424842 219.681907,80.171543 219.477448,80.0003573 C219.400699,79.936099 219.323472,79.8712934 219.24638,79.8064538 C219.093427,79.6778107 218.940641,79.5487264 218.788386,79.4195152 C218.696077,79.3411765 218.603702,79.2625693 218.511524,79.1839169 C218.323095,79.0231359 218.13568,78.8623332 217.949084,78.701357 C217.884178,78.6453631 217.818374,78.5884853 217.752672,78.5315866 C217.590876,78.3914671 217.430333,78.2517737 217.270405,78.1119638 C217.169965,78.0241597 217.06927,77.9358724 216.96882,77.8475411 C216.809654,77.7075768 216.651507,77.5678604 216.49397,77.4280437 C216.368696,77.3168605 216.243448,77.2052925 216.118589,77.0936655 C216.005804,76.9928331 215.893245,76.8918705 215.781003,76.7908633 C215.624022,76.649594 215.467899,76.5084527 215.312395,76.3672342 C215.209308,76.2736169 215.106362,76.1798468 215.003689,76.0860456 C214.563942,75.6843019 214.128575,75.2814027 213.69822,74.8781559 C213.647882,74.83099 213.596575,74.7828442 213.54534,74.7346937 C212.266049,73.5324191 211.031799,72.3278134 209.841912,71.1263287 C209.829837,71.1141366 209.817618,71.1017942 209.805404,71.0894521 L209.841912,71.1263287 C209.22349,70.5018796 208.617052,69.8782735 208.02258,69.2563483 C207.940113,69.1700736 207.857747,69.0836953 207.775613,68.9973517 C207.454786,68.6600828 207.137742,68.3236216 206.824214,67.9878224 C206.685384,67.8391296 206.547802,67.6911699 206.410904,67.5433505 C205.880018,66.9701154 205.359299,66.3988663 204.848847,65.8303959 C204.554945,65.5030873 204.264748,65.1770406 203.977944,64.8520405 C203.676883,64.5108852 203.379457,64.170762 203.08577,63.8319402 C203.037854,63.77666 202.989949,63.7213124 202.942144,63.6660003 L203.08577,63.8319402 C202.875138,63.5889371 202.666429,63.3466035 202.459643,63.1049935 C202.384906,63.017672 202.309883,62.9298149 202.235116,62.8420564 C202.190623,62.7898331 202.14573,62.7370688 202.10093,62.6843407 L202.235116,62.8420564 C201.434763,61.9026437 200.663591,60.97452 199.921532,60.0609015 C199.390408,59.4069835 198.874283,58.7606054 198.373042,58.1228344 C197.730764,57.3056115 197.11281,56.5023695 196.51925,55.7157459 C196.312289,55.4414678 196.108198,55.169082 195.907073,54.8988239 C195.495672,54.3459978 195.097525,53.8032408 194.711718,53.2702443 C194.665234,53.2060271 194.618407,53.1412276 194.571763,53.0765746 C194.515715,52.9988881 194.459728,52.9211291 194.404008,52.8435861 C194.045289,52.3443787 193.697569,51.8540645 193.360873,51.3734609 C193.344973,51.3507646 193.328735,51.327573 193.312523,51.3044041 L193.150149,51.0718797 L193.150149,51.0718797 C192.357185,50.8329341 191.602395,50.6054507 190.885773,50.3894399 C189.870933,52.5766421 188.048125,53.978327 184.903872,53.5953418 C183.173408,53.4642462 183.456516,58.8910171 182.459149,57.9753432 C181.363169,56.9691337 179.937781,58.172983 178.182983,61.5868913 C177.784844,67.251617 176.217357,70.2557953 173.480525,70.5994261 L173.296337,70.6183933 L171.768735,70.6183933 C172.991096,75.4837148 176.656781,74.4405772 174.213458,80.0002621 C173.972414,80.8215008 173.352412,81.2653427 172.708008,81.6714831 L172.410149,81.8574924 C171.51912,82.414911 170.685882,83.0002421 170.851613,84.5152169 C171.156854,86.9470814 173.296337,86.2543105 174.213458,87.6430373 C177.465876,92.7526138 175.768966,95.1810425 173.346273,97.4214696 L173.074313,97.6697589 L173.074313,97.6697589 L172.792601,97.9217584 C172.603476,98.0896642 172.412018,98.2575607 172.22004,98.4265174 L171.749467,98.8433183 L171.43752,99.1252725 C169.626228,100.782061 167.991764,102.667472 168.10305,105.707634 C168.10305,108.835454 172.073975,110.920137 172.991096,113.350409 C174.822539,116.825411 175.129179,120.994777 173.601577,124.816961 C172.495431,127.583266 167.870619,131.625226 168.18286,135.097043 C168.706194,138.557844 171.631517,139.659775 171.768735,139.755329 C174.822539,142.187194 177.876343,145.315014 176.960622,150.525925 C176.427737,152.46535 175.003058,154.066406 173.645891,155.56503 L173.375642,155.863459 C170.956619,158.538285 168.963545,160.932191 172.991096,164.421156 C174.151494,165.501676 175.494193,166.084629 176.805153,166.642539 L177.217836,166.818439 C179.547564,167.81674 181.703507,168.894125 182.459149,172.758295 C182.9765,175.503734 182.035993,177.363834 180.953137,179.212226 L180.655272,179.716699 C179.906727,180.980438 179.147603,182.275655 178.794864,183.879257 C177.737835,188.859978 180.936022,190.613838 184.624789,192.331441 L185.13049,192.565735 C188.771405,194.247523 192.717425,196.033194 193.454804,200.900716 C194.677166,208.543491 182.764389,211.671312 189.483878,217.92536 C190.086687,218.524998 190.949399,218.934563 191.856834,219.310272 L192.160674,219.434468 L192.302565,219.491714 L192.72846,219.66316 C192.822902,219.701383 192.917092,219.739773 193.010793,219.778505 L193.290188,219.895894 C195.509798,220.84594 197.310668,222.09145 195.412526,226.013842 L195.289046,226.262499 L194.371925,228 L194.371925,226.260906 C194.066685,220.704407 186.124834,220.704407 183.986751,215.839085 C182.567316,212.745813 183.987391,210.277222 185.675519,207.969597 L185.975683,207.563945 L185.975683,207.563945 L186.241346,207.210071 C186.285661,207.151249 186.329965,207.0925 186.374214,207.033816 L186.638695,206.682433 C189.00671,203.525874 190.956117,200.51286 185.512953,196.385762 C184.739117,195.829634 183.927296,195.341484 183.108615,194.888365 L182.698846,194.664572 C182.630504,194.627709 182.562151,194.591051 182.493804,194.554579 L182.083941,194.337827 L181.675097,194.124626 C181.607089,194.089337 181.53916,194.054158 181.471327,194.01907 L181.065631,193.809478 L180.863921,193.705213 L180.463319,193.497171 L180.261547,193.39154 L180.261547,193.39154 L179.861921,193.179713 C175.82789,191.01987 172.720398,188.619353 174.822539,181.444208 C176.350141,176.583664 179.098704,173.804618 175.433019,168.937703 C173.294937,165.811476 169.018771,164.421156 167.187329,160.602157 C164.133524,153.999335 168.40829,154.348109 170.851613,150.525925 C173.295403,146.357621 170.987898,144.195964 168.363225,141.879768 L168.019442,141.576601 C166.812457,140.511207 165.579551,139.394022 164.742605,138.019421 C161.38216,133.154099 162.605922,130.027872 164.437365,124.468187 C166.270207,118.214138 164.437365,117.521367 162.297882,111.612908 C158.023116,100.498316 168.297675,93.9001041 167.734849,88.9575534 C167.68664,88.5341937 167.641008,88.0989789 167.597724,87.6596948 L167.52578,86.9041029 L167.474686,86.3374204 C167.424777,85.772173 167.378369,85.2130691 167.334974,84.6766561 L167.306485,84.3225907 L167.282885,84.0269549 C166.949002,79.8334018 166.801601,77.5965482 166.576848,86.2543105 C166.104707,95.658231 161.199113,97.3729608 155.043816,99.7565227 C154.838696,100.755129 154.644499,101.770985 154.461643,102.803805 C154.364397,103.353098 154.270522,103.90619 154.179904,104.464021 L153.74829,104.400897 C151.62045,104.098613 149.945863,103.996341 148.724528,104.094081 C147.42177,104.198336 146.310733,104.556088 145.391415,105.167336 C143.87135,106.220387 143.079547,108.01299 143.016007,110.545144 C142.977632,112.07444 143.332332,114.93054 143.619763,117.885415 C143.80958,119.836788 146.684276,132.750463 147.376968,137.033325 C147.502454,137.809195 147.753524,138.883439 147.810068,139.473443 C148.174969,143.280969 148.608902,146.864982 148.889122,147.944377 C148.983277,148.30706 149.171849,149.048652 149.39652,149.981505 L149.391425,149.9504 C151.665857,156.812708 156.31208,156.041522 156.31208,156.041522 C159.680954,190.353601 179.260316,206.677987 179.260316,206.677987 C179.684961,219.809273 179.901707,229.793492 179.910554,236.630646 L179.910252,237.729086 C179.909066,238.395742 179.906076,239.033558 179.901297,239.647565 C179.897856,240.089659 179.893485,240.519567 179.88819,240.939003 L179.887648,240.981653 C179.875247,241.95092 179.857897,242.86442 179.835662,243.745481 C179.817073,244.48215 179.795048,245.196683 179.769638,245.902164 C179.75548,246.295208 179.740308,246.684577 179.724096,247.073498 L179.715748,247.271588 C179.710485,247.39513 179.705117,247.518668 179.699645,247.642276 L179.680674,248.062093 C179.664305,248.417246 179.647077,248.773678 179.628996,249.133163 C179.621834,249.275551 179.614584,249.417529 179.607202,249.560088 C179.562438,250.424561 179.464302,251.505857 179.312795,252.803977 L179.260313,253.244714 C178.564763,255.650701 177.707788,257.569161 176.689386,259.000096 C175.161784,261.146497 173.790229,262.466132 172.623516,263.613394 C171.506633,264.711657 169.172214,266.78772 166.576848,268.704779 C163.668763,270.852826 160.435114,272.841298 158.260347,273.825608 C152.130255,276.60012 142.785686,279.627098 130.226638,282.906542 C127.237403,279.895018 124.79408,275.973957 122.896669,271.14336 C121.601863,267.846928 123.956581,261.89492 122.896669,257.743102 C122.268825,255.283754 116.464314,250.462494 116.464314,247.606513 C116.464314,239.927187 119.293427,236.047511 118.619103,233.599376 C117.810825,230.664921 113.413379,225.743528 112.816735,223.067042 C110.728741,213.700509 112.669068,208.616629 111.899614,207.850721 C107.318208,202.638217 108.84581,202.289443 112.816735,198.816033 C118.16982,194.160705 115.975364,191.627832 113.219353,188.743852 L112.955402,188.468046 C112.911202,188.421876 112.866916,188.375596 112.822572,188.329199 L112.496759,187.98669 C112.347329,187.828604 112.198018,187.66891 112.049889,187.507232 L111.755518,187.181122 C109.661654,184.823445 107.955693,182.006838 109.761531,177.625209 C111.595774,172.758295 116.48242,173.455843 118.619103,169.28807 C121.034422,165.289757 119.031594,163.808168 116.692866,162.000162 L116.386245,161.76225 C115.565299,161.121636 114.725188,160.426576 114.037697,159.557427 C109.166032,153.06075 111.963273,150.347772 115.162363,147.949837 L115.512599,147.689327 C118.029042,145.828905 120.629587,144.083953 119.841464,140.796875 C119.440836,138.973474 118.163031,138.014569 116.877821,137.076239 L116.511169,136.807976 C114.98887,135.68647 113.573477,134.480218 113.732456,131.765373 C114.028447,128.732335 117.197283,126.027253 119.338605,124.598376 L119.536224,124.468187 L121.370467,123.426641 C130.838519,117.866956 125.950473,116.131048 129.616158,115.08791 C135.726566,113.697591 132.671362,104.666089 133.281843,100.149542 C134.020111,94.9714411 135.898124,92.7247928 138.297205,91.479537 C138.44443,90.5296399 138.701229,89.5603161 139.067551,88.5722559 C138.976843,84.972715 137.633494,75.7318406 139.067551,71.6426246 C141.772582,63.955442 143.569126,59.7891446 147.751517,54.2102718 L147.787778,54.1025176 C147.881692,53.8422959 147.977612,53.582233 148.07557,53.3223623 C148.123927,53.2001994 148.170358,53.0781965 148.217242,52.9562396 C148.286486,52.7703275 148.359123,52.5843191 148.432827,52.3984297 C148.512567,52.2026639 148.591471,52.0066919 148.671576,51.8108669 C148.752213,51.6088259 148.83597,51.4074327 148.921014,51.2062108 C149.006941,51.0074133 149.09234,50.8084192 149.179015,50.6096082 C149.245545,50.4528468 149.314441,50.2968017 149.38413,50.1408769 C149.504417,49.8755881 149.62541,49.6102847 149.748744,49.3453673 C149.80516,49.2207148 149.863472,49.0966959 149.922301,48.9727655 C150.032929,48.7429612 150.144061,48.5128409 150.257005,48.2830504 C150.326468,48.1387633 150.398186,47.9944779 150.470625,47.8503287 C150.597009,47.6015764 150.724137,47.353212 150.853444,47.1052842 C150.904903,47.0041313 150.958159,46.9028172 151.011781,46.8015782 C151.174803,46.4961098 151.339962,46.1911958 151.508516,45.8870242 C151.550752,45.8087453 151.594451,45.7303608 151.638376,45.6520266 C151.80246,45.3613397 151.968665,45.0711383 152.138045,44.7816821 C152.173726,44.7189805 152.210359,44.6566779 152.24714,44.5944104 C152.432869,44.2815995 152.621551,43.9693161 152.814033,43.6579845 C152.85781,43.5857455 152.90279,43.5133881 152.947976,43.4410829 C153.132296,43.1474852 153.319026,42.8549375 153.509205,42.5633053 C153.557779,42.4876375 153.607189,42.4122962 153.656831,42.3370171 C153.855655,42.0366096 154.057561,41.7369713 154.263217,41.4383838 C154.300315,41.3835546 154.337879,41.3292388 154.375569,41.2749582 C154.596565,40.9575757 154.821504,40.6409254 155.050786,40.3255538 C155.086357,40.2758408 155.122362,40.2265015 155.158473,40.1771938 C155.385775,39.8675598 155.616888,39.5589536 155.85228,39.2516649 C155.884809,39.208563 155.917841,39.1655815 155.950957,39.122626 C156.196944,38.8041433 156.447188,38.4869402 156.702128,38.1712447 C156.73433,38.1308602 156.766732,38.0908583 156.799209,38.0508809 C157.058319,37.7324031 157.322201,37.4150301 157.590975,37.0992891 C157.610259,37.076231 157.630113,37.0529494 157.649993,37.0296768 C157.931171,36.7009011 158.21713,36.3741218 158.508489,36.049209 C158.538638,36.0152716 158.569248,35.9812252 158.599917,35.9471993 C158.879107,35.6377441 159.162979,35.3299467 159.451846,35.0239338 C159.475926,34.9981804 159.50017,34.9725484 159.524449,34.9469289 C159.828744,34.6260618 160.138388,34.3070967 160.453631,33.9901961 C160.480046,33.9634576 160.506317,33.9371031 160.532627,33.9107628 C161.177703,33.2650895 161.846386,32.6276113 162.539163,31.9995338 C162.580497,31.9619588 162.621971,31.9244707 162.663532,31.8870162 C162.972954,31.6082549 163.287003,31.3313911 163.60589,31.056462 C163.65418,31.0147549 163.702949,30.9728514 163.75183,30.9309931 C164.093309,30.6386454 164.439919,30.3487437 164.792102,30.0611288 C164.827034,30.0325512 164.861925,30.0041254 164.896869,29.9757219 C165.258458,29.6818583 165.626209,29.3901061 165.9999,29.1008498 C166.016858,29.0876908 166.033482,29.0748373 166.050118,29.0619888 C166.823873,28.4644071 167.623157,27.8773999 168.448614,27.3018579 C168.49072,27.2724869 168.533129,27.2429955 168.575608,27.2135343 C168.969253,26.9405314 169.368586,26.6702708 169.773914,26.4026899 C169.81624,26.3747414 169.858518,26.3469037 169.90086,26.3190953 C170.30914,26.0509636 170.723505,25.7855163 171.144007,25.5228644 C171.172575,25.5050169 171.201237,25.4871446 171.229928,25.4692854 C172.122141,24.9139119 173.041813,24.3711427 173.989793,23.8417319 C174.019358,23.8252208 174.049324,23.8085148 174.079318,23.7918221 C174.535923,23.5377121 174.998731,23.2868773 175.468163,23.03922 C175.4931,23.0260635 175.518904,23.0124697 175.544729,22.9988854 C175.966814,22.7768652 176.393373,22.5578451 176.825316,22.3414432 C176.867699,22.2946709 176.911608,22.2451011 176.960622,22.1952715 C179.916058,19.190622 185.539379,16.0259387 191.328448,13.4435779 C199.33738,5.64401745 208.649236,2.37720577 208.649236,2.37720577 C243.471271,-8.54720859 267.265172,21.7243361 267.265172,21.7243361 C275.593323,32.0976167 280.793039,42.3618798 283.90262,51.9359468 C285.124065,53.7265461 285.963163,55.2023353 286.358236,55.9704775 L286.455945,56.1641941 C286.542285,56.3393343 286.594375,56.457829 286.610916,56.5114281 C286.727541,56.880832 286.81393,57.2459406 286.904638,57.61964 C286.982388,57.9332038 287.094694,58.2381768 287.150847,58.5517407 C287.116291,58.5302637 287.090374,58.5087867 287.051499,58.4873098 C287.090374,58.6634209 287.111972,58.8352367 287.142208,59.0070525 C293.612743,64.4149548 299.456958,70.3511906 302.083183,78.8002324 C305.16295,88.6968224 305.003131,98.6062985 299.577902,107.04675 C299.573583,107.029568 299.573583,107.016682 299.573583,107.003796 C299.409444,107.27011 299.236666,107.523538 299.063888,107.772671 C299.029332,107.819921 298.994777,107.875761 298.964541,107.92301 C298.81336,108.129189 298.662179,108.313891 298.510998,108.507184 C298.610346,108.842225 298.688096,109.177265 298.817679,109.512306 C298.959325,110.04675 299.085238,110.5844 299.193635,111.125342 C299.664272,111.369731 300.250189,111.641641 300.973629,111.961682 C305.556435,113.697591 309.527361,115.08791 310.748322,121.690733 C311.360203,126.554462 322.050617,135.589149 322.967739,142.187194 C323.295954,146.109556 321.063477,147.521709 318.833999,148.690928 L318.49992,148.864772 L318.101792,149.07097 C316.453443,149.928376 314.965409,150.78942 314.719248,152.610608 C314.108767,156.779974 319.912535,155.736836 320.828256,159.211838 C321.425855,161.589661 320.271166,163.054316 319.041706,164.457923 L318.705806,164.839852 C317.532487,166.175786 316.429994,167.526681 316.85733,169.633659 C317.469211,173.108662 320.523015,174.150207 320.523015,178.666754 C320.523015,183.52889 319.302054,183.181709 316.85733,186.656711 C313.352634,191.213925 315.686014,192.553755 317.675385,194.079797 L317.927002,194.275884 C319.461242,195.494564 320.619254,196.918404 318.384933,200.207945 C315.636369,203.681355 312.886405,202.289443 313.498286,208.194717 C313.729863,209.513511 315.060108,212.545795 316.405498,215.74489 L316.715748,216.485399 C317.025281,217.227462 317.331181,217.972073 317.620134,218.700222 C318.390705,220.642034 319.040748,222.466783 319.31772,223.813981 C319.873287,225.710081 318.927035,227.041947 319.129173,228.645469 C319.796171,233.745412 322.932848,236.232281 326.188862,238.536589 L327.352833,239.355895 L327.762066,239.646287 L328.168546,239.938897 C331.94625,242.683657 335.227081,245.860184 334.171126,253.439372 C333.206053,261.538678 331.101023,262.948685 335.236965,270.335526 C339.167909,276.843548 341.622039,280.448879 338.812761,287.584732 C338.314872,289.100657 337.48178,290.493383 336.577389,291.824428 L336.304197,292.221953 L336.02831,292.616146 C335.843839,292.877912 335.658628,293.137704 335.474787,293.396012 L335.200317,293.782424 C335.066254,293.971755 334.933508,294.160414 334.802924,294.348598 L334.544889,294.724392 C332.337904,297.9768 330.949609,301.126027 334.778516,305.197384 C338.971353,309.32745 344.254366,307.642572 342.338975,316.889548 C341.863189,319.037459 340.781481,320.806186 339.540844,322.448517 C339.312371,323.425274 339.219981,324.537842 339.378999,325.85628 C339.430514,326.266508 339.498974,326.659635 339.583085,327.036942 C340.615801,328.620343 341.748832,330.129716 343,331.553554 C343.881127,332.556283 344.608902,333.59697 345.203323,334.671823 C345.530223,334.907776 345.862171,335.138105 346.196536,335.365474 L346.680223,335.691638 C347.003439,335.908067 347.327812,336.122823 347.651184,336.338035 L348.135221,336.661461 C352.319028,339.472065 356.151355,342.53962 354.892165,350.541396 C353.783725,358.6738 351.55578,360.112185 355.814638,367.470649 C359.868391,373.950317 362.404537,377.536714 359.369877,384.7246 C358.881441,386.102768 358.106883,387.383349 357.249973,388.609527 C358.153493,392.104672 357.846509,393.768817 357.250242,395.614852 L357.142076,395.943301 C356.588878,397.596721 355.852798,399.483882 355.565975,402.985999 C356.458043,403.700642 357.381551,404.213502 358.264895,404.660397 L358.594127,404.825155 C358.757662,404.906254 358.91947,404.98563 359.079079,405.064179 L359.395227,405.22044 C362.159499,406.595691 364.139351,407.899114 362.732274,414.067236 C361.419217,419.468438 356.150825,422.534912 354.230858,427.152207 C350.791356,434.431435 355.249996,437.110914 358.69848,442.804173 C363.504371,451.107093 360.746097,455.783413 356.452433,460.129042 L356.091202,460.490483 C355.726676,460.8513 355.352651,461.210456 354.972615,461.569859 L354.600061,461.92064 L354.412579,462.096212 L354.412579,462.096212 L354.001718,462.479583 L353.588542,462.86435 L353.537909,462.910739 C353.309855,468.404838 352.701836,474.119767 351.573014,479.568272 L351.920292,479.832702 L352.298615,480.12433 C355.06438,482.276591 357.591106,484.753607 356.601018,489.162443 C356.098638,491.581591 354.447017,493.448375 352.580121,495.169219 L352.625894,495.494541 C352.684625,495.938227 352.736598,496.405047 352.781211,496.897385 C352.783958,496.930773 352.786969,496.96442 352.789946,496.998186 L352.781211,496.897385 C352.837742,497.521264 352.882455,498.186118 352.914123,498.896797 C352.927095,499.188546 352.9379,499.487815 352.946421,499.795133 C352.961811,500.349999 352.969757,500.931648 352.969757,501.541554 C352.969757,501.779797 352.951194,502.035845 352.915878,502.308776 C352.910537,502.350053 352.904828,502.391601 352.898746,502.433529 C352.871457,502.621589 352.836678,502.817073 352.794935,503.019916 C352.784074,503.072702 352.772648,503.12641 352.760753,503.180619 C352.753073,503.215616 352.745266,503.250525 352.737268,503.285638 C352.705124,503.426789 352.669796,503.571701 352.631558,503.719842 C352.621141,503.7602 352.610507,503.800803 352.59966,503.841643 C352.510305,504.178061 352.406613,504.530372 352.290479,504.897808 C352.276348,504.942518 352.262,504.987553 352.247471,505.032813 C352.105771,505.474207 351.946752,505.936974 351.773752,506.419303 C351.54266,507.063627 351.286184,507.743946 351.012566,508.455261 C350.832829,508.922482 350.64742,509.398712 350.45693,509.886963 C350.440316,509.929548 350.423608,509.972364 350.406864,510.015271 L350.45693,509.886963 C350.000325,511.057302 349.514525,512.296712 349.0295,513.589918 C348.954337,513.790323 348.879275,513.991798 348.804343,514.194505 C348.774542,514.275121 348.744583,514.356418 348.714652,514.437909 L348.804343,514.194505 C348.749445,514.343015 348.694617,514.492186 348.639902,514.641996 L348.714652,514.437909 C348.469374,515.105711 348.225968,515.786517 347.988352,516.478331 C347.951311,516.586174 347.914337,516.694504 347.877518,516.803095 C347.737479,517.216124 347.599804,517.632609 347.465204,518.052445 L347.322773,518.50172 C347.172112,518.98245 347.025818,519.467334 346.885101,519.955754 C346.861471,525.025809 346.845165,529.837603 346.843674,533.978899 L346.843705,535.263908 C346.844335,536.734805 346.847081,538.108955 346.852315,539.365791 C346.931962,539.552312 347.01608,539.738161 347.103526,539.923292 C347.139433,539.999545 347.176005,540.075657 347.213152,540.151652 L347.103526,539.923292 C347.176887,540.078602 347.25259,540.233406 347.330677,540.387682 L347.213152,540.151652 C347.288731,540.306271 347.366688,540.460409 347.447065,540.614038 L347.330677,540.387682 C347.40816,540.540763 347.487991,540.693325 347.570211,540.845345 L347.447065,540.614038 C347.529176,540.770982 347.613813,540.927395 347.701017,541.083248 L347.570211,540.845345 C347.651688,540.99599 347.735512,541.146103 347.821723,541.295664 L347.701017,541.083248 C347.786723,541.236423 347.87491,541.389057 347.965619,541.541123 L347.821723,541.295664 C347.90874,541.446623 347.998189,541.597019 348.090113,541.746832 L347.965619,541.541123 C348.136213,541.827109 348.315727,542.111084 348.504434,542.392864 C348.577536,542.502013 348.65189,542.610658 348.727633,542.71896 C348.813818,542.842201 348.902207,542.965553 348.992437,543.088445 C349.430233,543.684597 349.819768,544.285526 350.164999,544.891085 C350.271676,545.07821 350.374035,545.265608 350.472287,545.453443 C350.499631,545.505717 350.526704,545.558118 350.55346,545.610553 C350.584226,545.670846 350.614515,545.731067 350.644391,545.791333 C350.673136,545.849319 350.701355,545.90705 350.729199,545.964821 C350.759701,546.028102 350.790076,546.092122 350.819995,546.156192 C350.849314,546.218979 350.878101,546.281604 350.906457,546.344277 C350.928405,546.39279 350.94998,546.441068 350.971301,546.489374 C351.003381,546.562053 351.034887,546.634795 351.065826,546.7076 C351.091442,546.767876 351.116834,546.828591 351.141835,546.88935 C351.164822,546.945211 351.18751,547.001187 351.209871,547.0572 C351.231487,547.111352 351.252597,547.165021 351.273409,547.218723 C351.299889,547.287048 351.326032,547.355813 351.351693,547.424633 C351.377379,547.493519 351.402585,547.562468 351.427314,547.631472 C351.448381,547.690255 351.46916,547.749247 351.489594,547.80828 C351.510858,547.86971 351.531689,547.931006 351.552153,547.992346 C351.574117,548.058186 351.595606,548.123912 351.616678,548.189687 C351.632682,548.23964 351.648548,548.289951 351.664173,548.34029 C351.685508,548.409027 351.706339,548.477637 351.726727,548.5463 C351.781154,548.729592 351.832427,548.913261 351.880648,549.0973 C351.899597,549.169618 351.918076,549.242002 351.93609,549.314444 C351.985545,549.513318 352.031506,549.712688 352.074084,549.912484 C352.082075,549.94998 352.089912,549.987328 352.097633,550.024691 C352.140275,550.231056 352.179364,550.438018 352.215009,550.645429 C352.220511,550.677444 352.225877,550.709154 352.231164,550.740874 C352.244533,550.821067 352.257491,550.901982 352.269938,550.982966 C352.276877,551.028121 352.283581,551.072775 352.290131,551.117449 C352.301696,551.196319 352.312842,551.275703 352.32351,551.355151 C352.350008,551.552519 352.373504,551.749752 352.394186,551.947374 C352.399564,551.998761 352.404747,552.050127 352.409743,552.10152 C352.416477,552.170805 352.42287,552.240135 352.428927,552.309512 C352.434431,552.372565 352.439653,552.435603 352.444602,552.498679 C352.447253,552.532459 352.449864,552.566763 352.452394,552.601078 L352.467244,552.816871 L352.467244,552.816871 Z" id="Calf-length" fill="#34CCBF"></path>
            </g>
        </g>
    </g>
</svg>