<?xml version="1.0" encoding="UTF-8"?>
<svg width="431px" height="1612px" viewBox="0 0 431 1612" version="1.1" xmlns="http://www.w3.org/2000/svg" xmlns:xlink="http://www.w3.org/1999/xlink">
    <title>Illustration</title>
    <defs>
        <linearGradient x1="52.1120617%" y1="13.9053107%" x2="50%" y2="81.2985503%" id="linearGradient-1">
            <stop stop-color="#FFFFFF" stop-opacity="0" offset="0%"></stop>
            <stop stop-color="#FFFFFF" stop-opacity="0.506009615" offset="37.3155655%"></stop>
            <stop stop-color="#FFFFFF" offset="100%"></stop>
        </linearGradient>
    </defs>
    <g id="Page-1" stroke="none" stroke-width="1" fill="none" fill-rule="evenodd">
        <g id="Quiz_page_q9_3_Tiny_Winy_Afro/Pixie_1920" transform="translate(-617.000000, -383.000000)">
            <g id="Illustration" transform="translate(617.000000, 383.000000)">
                <path d="M14.8396914,674.045623 C13.3590816,578.692973 22.2451715,560.95396 25.952774,542.475216 C29.6603764,523.996471 35.5828156,461.16777 39.290418,387.250367 C42.9980205,313.335389 51.1425899,313.335389 60.7774939,295.596377 C70.4099667,277.854939 144.501236,260.853233 154.880092,256.419692 C165.254085,251.983726 177.845346,242.376914 179.260313,234.244714 C180.67528,226.112514 179.260313,187.677987 179.260313,187.677987 C158.449115,168.457085 156.312077,137.041522 156.312077,137.041522 C148.93334,137.533868 148.196682,125.513832 147.948698,121.589615 C147.703146,117.665398 142.78723,100.003996 143.035213,91.1732958 C143.280766,82.3425951 154.179902,85.464021 154.179902,85.464021 C154.179902,15.9073978 190.278578,9 215.497569,9 C240.718991,9 276.817667,15.9073978 276.817667,85.464021 C276.817667,85.464021 287.714371,82.3425951 287.962355,91.1732958 C288.21277,100.003996 283.296854,117.665398 283.04887,121.589615 C282.800886,125.513832 282.061797,137.533868 274.685492,137.041522 C274.685492,137.041522 272.550885,168.457085 251.739687,187.677987 C251.739687,187.677987 250.322289,226.112514 251.739687,234.244714 C253.154654,242.376914 265.743484,251.983726 276.119908,256.419692 C286.493902,260.853233 360.587602,277.854939 370.222506,295.596377 C379.854979,313.335389 387.999548,313.335389 391.707151,387.250367 C395.414753,461.16777 401.337192,523.996471 405.044795,542.475216 C408.752397,560.95396 417.640918,578.692973 416.157877,674.045623 C414.677268,769.395847 422.829131,791.573251 422.829131,791.573251 C422.829131,791.573251 436.169206,858.098186 428.758863,873.618003 C421.34609,889.14267 412.455137,900.228947 408.010877,899.49164 C403.564185,898.751909 405.786315,890.62456 405.786315,890.62456 C405.786315,890.62456 387.267753,902.516052 382.821061,899.528021 C378.374369,896.535138 376.888897,898.751909 373.188588,893.578636 C369.483417,888.405364 376.152239,883.229666 376.152239,883.229666 C376.152239,883.229666 371.705547,881.750203 368.741896,878.053969 C365.775814,874.36016 389.489883,861.054688 389.489883,842.573518 C389.489883,824.097199 385.784712,803.401684 391.712013,781.966438 C397.636884,760.528766 365.036725,699.179528 359.848513,634.131632 C354.662732,569.08616 361.333985,569.821041 356.145773,548.385795 C350.95756,526.952974 328.731395,450.8188 328.731395,424.947588 L328.731395,421.991086 C328.731395,421.991086 322.804094,458.211268 313.16919,469.297545 C303.534286,480.386246 298.346073,551.344722 301.312155,560.214228 C304.278237,569.08616 358.370334,689.567865 357.626383,768.65854 C356.884862,847.749216 321.479082,995.581597 323.251437,1021.45523 C325.021362,1047.32402 334.661128,1125.67739 335.397786,1189.2434 C336.134444,1252.80941 292.426066,1402.12125 293.906675,1467.90645 C295.387285,1533.68923 320.581964,1575.82242 313.16919,1587.65085 C305.758847,1599.47929 282.054504,1606.8669 273.900209,1606.8669 C273.900209,1606.8669 267.970477,1614.25695 257.598914,1611.30287 C247.227352,1608.34879 244.26127,1583.21004 246.483401,1555.86664 C248.707962,1528.52081 247.968873,1492.2982 242.780661,1476.77839 C237.592448,1461.25372 261.301654,1440.55578 257.598914,1416.1616 C253.893743,1391.77228 262.048037,1372.5538 251.671613,1307.51318 C241.29762,1242.46286 243.529475,1176.67766 250.193434,1144.89344 C256.854963,1113.1068 242.041571,1043.62536 236.111839,1022.93227 C230.182106,1002.23191 215.497569,849.313567 215.497569,849.313567 C215.497569,849.313567 200.815463,1002.23191 194.88573,1022.93227 C188.953566,1043.62536 174.142606,1113.1068 180.806566,1144.89344 C187.470525,1176.67766 189.70238,1242.46286 179.323525,1307.51318 C168.949531,1372.5538 177.101394,1391.77228 173.398654,1416.1616 C169.695914,1440.55578 193.40512,1461.25372 188.216908,1476.77839 C183.028696,1492.2982 182.289607,1528.52081 184.514168,1555.86664 C186.736298,1583.21004 183.772648,1608.34879 173.398654,1611.30287 C163.027092,1614.25695 157.09736,1606.8669 157.09736,1606.8669 C148.943065,1606.8669 125.238722,1599.47929 117.828379,1587.65085 C110.418036,1575.82242 135.610284,1533.68923 137.090893,1467.90645 C138.571503,1402.12125 94.8606934,1252.80941 95.5997826,1189.2434 C96.3388719,1125.67739 105.976207,1047.32402 107.746131,1021.45523 C109.518487,995.581597 74.1127068,847.749216 73.3711863,768.65854 C72.6296658,689.567865 126.719331,569.08616 129.682982,560.214228 C132.649064,551.344722 127.460852,480.386246 117.828379,469.297545 C108.195906,458.211268 102.268605,421.991086 102.268605,421.991086 L102.268605,424.947588 C102.268605,450.8188 80.0400083,526.952974 74.851796,548.385795 C69.6635838,569.821041 76.3372683,569.08616 71.1466248,634.131632 C65.9608437,699.179528 33.3582541,760.528766 39.2855556,781.966438 C45.2104259,803.401684 41.5101171,824.097199 41.5101171,842.573518 C41.5101171,861.054688 65.2217545,874.36016 62.2556725,878.053969 C59.2920217,881.750203 54.8453299,883.229666 54.8453299,883.229666 C54.8453299,883.229666 61.514152,888.405364 57.8114119,893.578636 C54.1086719,898.751909 52.6231997,896.535138 48.1765079,899.528021 C43.7322474,902.516052 25.2112535,890.62456 25.2112535,890.62456 C25.2112535,890.62456 27.4333837,898.751909 22.9891232,899.49164 C18.5424314,900.228947 9.64904792,889.14267 2.2411366,873.618003 C-5.16920593,858.098186 8.17086936,791.573251 8.17086936,791.573251 C8.17086936,791.573251 16.3203012,769.395847 14.8396914,674.045623 Z" id="Fill-" fill="#EBFAF9"></path>
                <rect id="Rectangle" fill="url(#linearGradient-1)" x="0" y="1271" width="431" height="341"></rect>
                <path d="M154.85468,88.390768 C154.635382,87.5245006 154.433376,86.6157363 154.24984,85.6693004 C154.227978,85.6030173 154.204315,85.5346427 154.179902,85.464021 L154.179902,85.464021 L152.315067,85.1091727 C152.315067,84.3774011 152.459364,83.7810276 152.747957,83.3200522 C152.446057,83.1647235 152.210275,82.9392464 152.05683,82.6548948 C151.902138,82.3692904 151.726237,81.804345 152.071801,81.0164278 C151.521643,80.3550283 151.213506,79.8702526 151.258416,79.420551 C151.290852,79.0885986 151.350733,78.7328459 151.571544,78.3996408 C151.606475,78.3470295 151.693801,78.2418068 151.797346,78.1165418 C151.833524,78.076457 151.884672,78.0163297 151.935821,77.9511919 C151.643901,77.6505558 151.350733,77.1870751 151.449287,76.5494759 C151.494198,76.2438292 151.673841,75.9669934 151.888415,75.7277372 C151.863464,75.7064421 151.844752,75.6876523 151.827286,75.6738732 C151.713762,75.5749138 151.627683,75.4922388 151.597742,75.4509014 C151.114951,74.8759348 151.157367,74.0880176 151.711267,73.3451958 C151.645148,73.3176375 151.577782,73.2975951 151.512911,73.2863212 C151.227228,73.2449837 150.996437,73.0307805 150.927823,72.7464288 C150.861705,72.4508033 150.978972,72.1351353 151.225981,71.9610169 C151.339505,71.8795946 151.456772,71.7129921 151.577782,71.537621 C151.585267,71.5275998 151.592752,71.516326 151.59899,71.5075574 C151.439307,71.387303 151.287109,71.2357322 151.158615,71.0277922 C150.790596,70.4315306 151.143644,69.8077106 151.418099,69.4306628 C151.148635,69.2415125 150.750675,68.9584135 150.685804,68.45109 C150.638398,68.0752949 150.854219,67.7621322 150.982714,67.5754873 L150.982714,67.5754873 L151.023882,67.5153601 C151.114951,67.3713052 151.121189,67.3136833 151.121189,67.3124307 C151.106219,67.2748512 150.971486,67.1120066 150.870437,66.9942574 L150.870437,66.9942574 L150.799328,66.9078245 C150.338993,66.3529003 150.593487,65.7566387 150.714497,65.4710343 C150.729467,65.4359601 150.746933,65.39337 150.761903,65.3557905 C150.017132,64.5089987 149.817529,63.7198289 150.166835,63.0120813 C150.237944,62.8705318 150.356458,62.7352455 150.57727,62.485968 C150.638398,62.414567 150.730715,62.3131023 150.810556,62.2179008 C150.659606,61.994929 150.533606,61.7431463 150.474973,61.4262257 C150.386399,60.958987 150.630913,60.5869498 150.761903,60.3877784 C150.821784,60.2950822 150.897883,60.2274391 151.05008,60.0921528 C151.063803,60.0783737 151.085011,60.0608366 151.104971,60.0420468 C150.645883,59.5397339 150.368933,58.9046401 150.692042,58.3108837 C150.876675,57.9689101 151.118694,57.7835178 151.350733,57.6519895 C150.990199,57.0644964 150.919091,56.2815898 151.471743,55.7692557 C151.556574,55.6903387 151.647643,55.6151797 151.743702,55.5487892 C151.678831,55.4748828 151.647643,55.4297874 151.61895,55.3784288 C151.149882,54.5604479 151.273387,53.7762887 151.963266,53.1725111 C152.109226,53.0472461 152.275147,52.9482867 152.439819,52.871875 C152.286374,52.5912813 152.240216,52.5035957 152.217761,52.4472264 C151.91087,51.7256997 152.160375,50.8726447 152.782888,50.4241958 C152.7517,50.3866163 152.725502,50.3477841 152.696809,50.3102046 C152.550849,50.1085278 152.399899,49.9005878 152.256434,49.8016284 C152.04685,49.6575736 151.924593,49.4070435 151.939563,49.1552608 C151.953286,48.9047306 152.094256,48.6842641 152.315067,48.5652623 C152.453542,48.4926086 152.587027,48.4149443 152.723007,48.3372799 C152.807838,48.2884266 152.89267,48.2383205 152.979996,48.1907198 C152.950056,48.1594036 152.930095,48.1343505 152.918868,48.121824 C152.493463,47.5756684 152.394909,46.8340993 152.643165,46.0812563 C152.998709,45.01024 153.984251,44.4102204 154.987259,44.211049 C154.670388,43.7425577 154.272429,43.1638331 154.47328,42.5412658 C154.561854,42.2694406 154.745239,42.0489741 155.024684,41.8848769 C154.903675,41.6531365 154.766447,41.3712902 154.768942,41.045601 C154.776427,40.5019507 155.221793,40.0798074 155.633475,39.9182155 C155.693356,39.8944151 155.753237,39.8718674 155.810623,39.851825 C155.7969,39.8205088 155.78193,39.7879398 155.76696,39.751613 C155.513713,39.2129732 155.586069,38.58289 155.959078,38.0642927 C156.112523,37.8525947 156.51173,37.6120858 156.905947,37.4580098 C156.873511,37.3152076 156.849808,37.1761634 156.826106,37.0408772 C156.781195,36.7853364 156.740027,36.5448275 156.658938,36.3431508 C156.575354,36.1226843 156.600304,35.8859333 156.725056,35.6917725 C156.856046,35.4888431 157.079352,35.3585675 157.316382,35.3435356 C157.486045,35.3335144 157.656955,35.3122194 157.832856,35.2846611 C157.748024,35.0516681 157.694381,34.8074012 157.695628,34.5468499 C157.705608,33.5610139 158.311904,32.7918864 159.241307,32.5839465 C159.261268,32.5789359 159.292456,32.5751779 159.329882,32.5689146 C159.327386,32.5438616 159.327386,32.5188086 159.324891,32.4950083 C159.314911,32.1192131 159.344852,31.6732695 159.621802,31.1985149 C159.80394,30.8878576 160.335384,30.6035059 160.813185,30.4406613 C160.705898,29.8844845 160.720868,29.1617051 161.300966,28.5754647 C161.524272,28.3487349 162.014548,28.1909009 162.438705,28.1032154 C162.332666,27.2639395 162.755576,26.8267645 163.184723,26.6012874 C163.404287,26.4872962 163.678742,26.4284216 164.00185,26.4271689 C163.998108,26.3958527 163.998108,26.3645364 163.99686,26.3319675 C163.985632,25.5340291 164.601908,24.838808 165.399074,24.7473645 C165.434005,24.7448592 165.573727,24.738596 165.749628,24.738596 L165.749628,24.738596 L165.762103,24.738596 C165.747133,24.5744988 165.747133,24.4003803 165.772083,24.214988 C165.861905,23.5460726 166.446993,23.0262227 167.19301,22.9510636 C167.327743,22.9372845 167.46497,22.9297686 167.602198,22.9297686 L167.602198,22.9297686 L167.630891,22.9297686 C167.627148,22.8095141 167.629643,22.6779858 167.634633,22.533931 C167.665821,21.8011304 168.244671,21.2236585 168.966986,21.1935949 C168.960749,21.078351 168.963244,20.9618545 168.984452,20.8441054 C169.112946,20.0148507 169.76041,19.4712004 170.628685,19.4636845 C170.674843,19.4636845 170.717259,19.4649371 170.760922,19.4686951 C170.763417,19.2344494 170.802091,19.0014564 170.876942,18.7609475 C171.115219,18.0081045 171.90989,17.6711415 172.593532,17.6711415 C172.647175,17.6711415 172.702066,17.6736468 172.754462,17.6774047 C172.823076,17.683668 172.890442,17.6886786 172.954065,17.6936892 C172.956561,17.5859613 172.967788,17.4744754 172.992739,17.3654948 C173.169887,16.6402101 173.705074,16.2243301 174.459824,16.2243301 C174.499745,16.2243301 174.53717,16.2255827 174.578339,16.228088 C174.578339,16.0765173 174.593309,15.9186834 174.630735,15.7483229 C174.701843,15.4326549 175.001249,14.6986017 176.232552,14.6986017 C176.289938,14.6986017 176.351067,14.6998544 176.407205,14.704865 C176.4097,14.1549514 176.619284,13.8029566 176.808907,13.5975219 C177.137006,13.2392638 177.643499,13.0488609 178.274745,13.0488609 C178.676447,13.0488609 179.130545,13.1302832 179.542227,13.2693274 L179.542227,13.2693274 L179.538485,13.170368 C179.517277,12.654276 179.482346,11.7924524 180.189691,11.3327296 C180.412997,11.1849169 180.668739,11.1122631 180.944442,11.1122631 L180.944442,11.1122631 L180.960659,11.1122631 C180.959412,11.1009893 180.955669,11.0909681 180.951927,11.0821995 C180.888303,10.8679963 180.929471,10.6312453 181.065451,10.445853 C181.201431,10.2629661 181.414757,10.1527328 181.639311,10.1527328 C181.702935,10.1527328 181.795251,10.1677646 181.855132,10.187807 C182.084676,10.2617134 182.346656,10.2717346 182.631091,10.2742399 C182.584933,10.0800791 182.553745,9.8921815 182.533784,9.70678922 C182.513824,9.50761778 182.578695,9.30468838 182.718417,9.15311767 C182.859387,8.99277839 183.063981,8.9013349 183.278555,8.9013349 C183.333446,8.9013349 183.41703,8.91260876 183.468178,8.92638791 C183.651564,8.97649394 183.839939,8.98275719 184.017088,8.98275719 L184.017088,8.98275719 L184.229166,8.98025189 L184.245384,8.98025189 C184.125622,8.75226949 184.126869,8.47919166 184.250374,8.25496721 C184.386354,8.01696361 184.638353,7.86789819 184.914056,7.86789819 C184.958966,7.86789819 185.040055,7.87791939 185.086214,7.8879406 C185.356926,7.95433108 185.636371,7.98439469 185.928291,8.0144583 C186.051795,8.02698481 186.171557,8.03951132 186.297557,8.05579577 C186.280092,7.81152891 186.260131,7.57978856 186.211478,7.35681676 C186.161577,7.12883436 186.217716,6.8920834 186.363676,6.70919642 C186.509636,6.52881474 186.721714,6.42609739 186.950011,6.42609739 C187.088486,6.42609739 187.221971,6.46367691 187.34298,6.53758329 C187.491435,6.62902678 187.727217,6.66034305 187.986701,6.68664871 C187.992939,6.63779534 187.999177,6.58768931 188.005414,6.53883594 L188.005414,6.53883594 L188.029117,6.31085354 C188.0628,5.91376331 188.395889,5.60060067 188.780125,5.60060067 C188.868699,5.60060067 188.961016,5.61813778 189.045847,5.65070669 C189.317807,5.75342404 189.63842,5.78849825 189.978993,5.82357247 C190.108736,5.83735163 190.239726,5.85238343 190.369468,5.87117319 C190.391923,5.78098235 190.419369,5.69956006 190.440576,5.62565368 C190.638932,4.99557045 191.226515,4.56966925 191.901424,4.56966925 C192.028672,4.56966925 192.155919,4.58595371 192.284413,4.61726998 C192.370492,4.63856504 192.454076,4.66111275 192.53267,4.68366046 C192.533918,4.6773972 192.53766,4.6698813 192.538908,4.6648707 C192.659918,4.37175047 192.823343,4.03478746 193.21257,3.75043579 C193.417163,3.60137037 193.659182,3.52245338 193.918667,3.52245338 C194.25924,3.52245338 194.583596,3.65272904 194.883001,3.83060542 C195.318386,3.30950279 195.8149,3.215554 196.11181,3.215554 C196.409968,3.215554 196.711868,3.30073423 197.013768,3.46733676 C197.364322,2.87984365 197.892023,2.5566598 198.536992,2.5566598 C198.792734,2.5566598 199.065941,2.60927112 199.349129,2.71198847 C199.407762,2.73328353 199.432713,2.73328353 199.432713,2.73328353 C199.435208,2.72952558 199.486356,2.69695666 199.521287,2.6731563 C199.687207,2.56542835 199.960414,2.39130993 200.370849,2.39130993 C200.950946,2.39882583 201.412529,2.63933474 201.821717,2.85228533 C201.879103,2.8836016 201.936489,2.91366521 201.993875,2.94372882 L201.993875,2.94372882 L202.129854,2.87358039 C202.475418,2.1132215 202.994387,1.71362597 203.782821,1.58460296 C203.890107,1.56706585 204.001137,1.5582973 204.117156,1.5582973 C204.339215,1.5582973 204.583729,1.59086622 204.823254,1.64723549 C204.914323,1.3453467 205.193768,1.12488021 205.523113,1.12488021 C205.578004,1.12488021 205.662836,1.13615406 205.716479,1.15118587 C205.90735,1.20254454 206.095726,1.24638731 206.282854,1.28772478 C206.60222,1.36037851 206.927823,1.43428489 207.254673,1.5507814 C207.485465,1.05848973 207.848494,0.870592142 208.160374,0.807959613 C208.303839,0.777896 208.438571,0.762864193 208.573304,0.762864193 C208.765422,0.762864193 208.948808,0.791675156 209.159639,0.851802383 C209.182094,0.814222866 209.208292,0.77914865 209.236985,0.746579736 C209.379203,0.576219259 209.586291,0.479765166 209.80835,0.479765166 C209.858251,0.479765166 209.948073,0.493544322 209.995478,0.503565526 C210.034152,0.51233408 210.263696,0.548660947 210.553121,0.596261668 C211.129476,0.69021046 211.53991,0.757853591 211.838068,0.812970216 C212.017711,0.472249262 212.302146,0.116496502 212.779947,0.028810963 C212.883491,0.0100212045 212.988283,-9.09494702e-13 213.093075,-9.09494702e-13 C213.542182,-9.09494702e-13 213.975072,0.176623729 214.415448,0.539892393 C214.477824,0.591251066 214.642497,0.726537327 214.694892,0.745327085 C214.702378,0.742821784 214.758516,0.739063832 214.916951,0.682694557 L214.916951,0.682694557 L214.976832,0.661399497 C215.130278,0.605030222 215.343604,0.528618538 215.585623,0.528618538 C215.953642,0.528618538 216.258037,0.663904799 216.503799,0.772885398 C216.602353,0.815475517 216.744571,0.880613346 216.808194,0.886876599 C216.810689,0.884371298 216.820669,0.876855394 216.833145,0.865581539 C217.12756,0.581229861 217.488093,0.429659143 217.876073,0.429659143 C218.095636,0.429659143 218.323933,0.477259865 218.549734,0.571208657 C218.872842,0.703989617 219.143555,0.940740573 219.356881,1.14492261 C219.431732,1.1023325 219.509079,1.06099503 219.58892,1.02717346 C219.763573,0.95577238 219.949454,0.916940212 220.139077,0.916940212 C220.502106,0.916940212 220.808996,1.04721587 221.079708,1.16120707 L221.079708,1.16120707 L221.18949,1.20880779 C221.233153,1.2263449 221.251866,1.2263449 221.251866,1.2263449 C221.270579,1.2213343 221.344183,1.17122828 221.381609,1.14492261 C221.558757,1.02466816 221.813251,0.854307684 222.173785,0.854307684 C222.234913,0.854307684 222.301032,0.860570937 222.370893,0.871844792 C222.706477,0.928214067 222.939763,1.06851093 223.113169,1.16997563 C223.166812,1.20003924 223.236673,1.24262936 223.267861,1.25139791 C223.269109,1.25014526 223.304039,1.24012406 223.365168,1.20379719 C223.698256,1.01715226 223.998909,0.924456116 224.282096,0.924456116 C224.598967,0.924456116 224.889639,1.03969997 225.125421,1.25515586 C225.288846,1.40547393 225.432311,1.57082381 225.565796,1.76122669 C225.643142,1.70611007 225.701776,1.67103585 225.724231,1.659762 C225.984963,1.52572839 226.266903,1.4543273 226.558823,1.4543273 C227.010426,1.4543273 227.470762,1.62218248 227.892424,1.93785042 C227.958543,1.99046175 228.013434,2.05058897 228.099513,2.14704307 C228.210542,2.06937873 228.326562,2.00048295 228.451314,1.93409247 C228.733254,1.7862797 229.020184,1.70986802 229.304619,1.70986802 C229.937112,1.70986802 230.519705,2.08691584 230.940119,2.74706269 C231.25699,2.58922871 231.572613,2.50655378 231.873266,2.50655378 C232.167681,2.50655378 232.785204,2.59549197 233.219341,3.25814412 C233.56241,3.06648858 233.905478,2.96752918 234.237319,2.96752918 C234.55918,2.96752918 235.239079,3.07024653 235.699415,3.87069024 C236.01878,3.68279266 236.393037,3.54249579 236.807214,3.54249579 C237.003075,3.54249579 237.200183,3.57506471 237.388559,3.63769724 C237.961171,3.83185807 238.239369,4.30661264 238.376596,4.75881949 C238.609883,4.68240781 238.835684,4.64482829 239.055248,4.64482829 C239.722672,4.64482829 240.239146,4.99306515 240.524828,5.60936922 C240.816748,5.48410417 241.138609,5.39641863 241.477935,5.39641863 C241.728687,5.39641863 241.973201,5.445272 242.203992,5.54172609 C242.557041,5.68578091 242.886387,6.20813619 243.09597,6.67036425 C243.184544,6.66284835 243.273118,6.65783774 243.35795,6.65783774 C244.564303,6.65783774 245.38143,7.43698639 245.627192,8.77231189 C246.031389,8.60821467 246.450556,8.48921287 246.920872,8.48921287 C247.120475,8.48921287 247.317584,8.51050793 247.51594,8.5543507 C247.826573,8.62825708 248.044889,8.8963243 248.061107,9.20823429 C248.069839,9.3472785 248.079819,9.48632272 248.086057,9.62661958 C248.329324,9.53517609 248.587561,9.47755416 248.84954,9.47755416 C249.226292,9.47755416 249.565618,9.59154536 249.86128,9.81451716 C250.229299,10.0951109 250.351556,10.5485704 250.346566,10.9168497 C250.40021,10.9231129 250.453853,10.9281235 250.507497,10.9343868 C250.778209,10.9606924 251.036446,10.9882507 251.288445,10.9882507 C251.44688,10.9882507 251.58785,10.9782295 251.72383,10.9556818 C251.757513,10.9519239 251.812404,10.9481659 251.843592,10.9481659 C252.119295,10.9481659 252.377532,11.094726 252.509769,11.3327296 C252.643254,11.5669753 252.639511,11.8450637 252.499789,12.080562 C252.482323,12.1118783 252.462363,12.1469525 252.447393,12.1832794 C252.637016,12.2070797 252.820402,12.2371434 253.001292,12.267207 C253.253292,12.3110497 253.491568,12.3511346 253.741073,12.3699243 C254.013032,12.392472 254.256299,12.5578219 254.377309,12.8020888 C254.494576,13.0425977 254.475863,13.3169281 254.333645,13.5424052 L254.333645,13.5424052 L254.289982,13.6087957 C254.44717,13.6325961 254.601863,13.6576491 254.751565,13.6839548 C255.034753,13.7315555 255.299227,13.7766509 255.568692,13.7929354 C255.984117,13.8204937 256.307225,14.1649726 256.300987,14.5783473 C256.297245,14.6447377 256.297245,14.7136335 256.295997,14.7812766 C256.61162,14.8163509 256.983381,14.883994 257.371361,15.0869234 C257.632093,15.2234623 258.144824,15.6005101 258.096171,16.4297648 C258.331952,16.5011659 258.557754,16.5863461 258.778565,16.6715263 C258.986901,16.751696 259.197732,16.8331183 259.421039,16.9007614 C259.810266,17.0197632 260.036067,17.4093375 259.952483,17.8076804 C259.935018,17.8941133 259.9188,17.9805462 259.888859,18.070737 C260.033572,18.1346222 260.256878,18.2172971 260.592462,18.3200145 L260.592462,18.3200145 L260.664818,18.3425622 C261.067767,18.4765958 261.284836,18.8962337 261.161331,19.2995872 C261.931052,19.4812216 262.638397,19.8081634 263.308316,20.2854232 C263.569048,20.4683102 263.691305,20.7789675 263.621444,21.0921302 C263.612712,21.1334677 263.603979,21.1710472 263.592751,21.207374 C263.841008,21.2963122 264.078037,21.3965243 264.308829,21.4967363 C264.592016,21.6182434 264.857738,21.7334873 265.138431,21.8186675 C265.431598,21.9088584 265.642429,22.1643991 265.679855,22.4687932 C265.716033,22.7706819 265.571321,23.0663075 265.311836,23.2216361 C265.291876,23.23291 265.275658,23.2441839 265.256945,23.2554577 C265.318074,23.2993005 265.379202,23.3431432 265.437836,23.3857334 C265.717281,23.5886628 265.980508,23.7803183 266.263695,23.903078 C266.440843,23.9782371 266.579318,24.1210392 266.654169,24.3039262 C266.725278,24.4818026 266.730268,24.684732 266.666645,24.8701243 C267.302881,25.1970661 267.860523,25.6918631 268.404442,26.4021159 C268.585333,26.6338563 268.605293,26.9720719 268.458086,27.2426445 C268.404442,27.3378459 268.349551,27.4242788 268.29466,27.5069537 C268.433135,27.6096711 268.560382,27.7161464 268.690125,27.8188637 C268.972065,28.0506041 269.239034,28.2685653 269.540934,28.4025989 C269.812894,28.5228533 269.983805,28.7884152 269.99129,29.094062 C269.99628,29.2907281 269.930161,29.4773731 269.812894,29.6214279 C270.253269,29.897011 270.668694,30.2966065 270.814654,30.8728258 C270.870793,31.0945449 270.88202,31.2862005 270.889505,31.4390238 C270.905723,31.6782801 270.911961,31.7208702 270.996792,31.8110611 C271.177683,32.0089798 271.317405,32.2106566 271.454633,32.4060701 C271.621801,32.6478316 271.767761,32.8570243 271.964869,33.0161109 C272.173205,33.1852187 272.276749,33.4520333 272.240571,33.7301217 C272.203146,34.0082101 272.035978,34.2386978 271.791463,34.3464258 C271.760275,34.3614576 271.730335,34.3752368 271.699147,34.3877633 C272.249304,34.5794188 272.786986,34.8712864 273.224866,35.4299685 C273.418232,35.679246 273.429459,36.0086931 273.281004,36.2542126 C273.299717,36.2679918 273.322173,36.2830236 273.34338,36.2968027 C273.535499,36.4295837 273.717637,36.5761438 273.904765,36.7214513 C274.16425,36.9306439 274.411259,37.1248047 274.675734,37.2726175 C274.907773,37.4028932 275.056228,37.6546759 275.056228,37.9277538 C275.057475,38.0956089 275.002584,38.2559482 274.905278,38.3837186 C275.119851,38.5691108 275.320702,38.7632717 275.515316,38.9549272 C275.75484,39.1854149 275.979394,39.4033761 276.223908,39.6012949 C276.458442,39.7929504 276.554501,40.0898286 276.470917,40.3766856 C276.416026,40.5670885 276.290027,40.7274278 276.127849,40.8288925 C276.336185,41.0418431 276.534541,41.2385092 276.752857,41.3763008 C277.017332,41.5454086 277.155807,41.8685924 277.097173,42.1817551 C277.067233,42.339589 276.989886,42.4786333 276.881352,42.5838559 L276.881352,42.5838559 L276.933748,42.6452358 C277.003609,42.730416 277.06848,42.813091 277.132104,42.8932606 C277.312994,43.1224956 277.466439,43.3204144 277.661053,43.4719851 C277.858161,43.6273138 277.964201,43.8715807 277.946735,44.1271214 C277.936755,44.2674183 277.889349,44.4027045 277.809508,44.519201 C278.062755,44.7359096 278.24115,45.0002188 278.333467,45.2983497 C278.429526,45.609007 278.468199,46.0612139 278.204972,46.6048642 C278.429526,46.8228254 278.63412,47.0508078 278.832476,47.272527 L278.832476,47.272527 L278.973446,47.4278556 C279.123148,47.5982161 279.200495,47.8211879 279.183029,48.0441597 C279.168059,48.2282993 279.094455,48.3936492 278.968456,48.5214196 C279.356435,48.8370875 279.585979,49.2028615 279.64087,49.5974464 C279.674553,49.8417133 279.649602,50.1699077 279.432534,50.5219025 C279.462474,50.5469555 279.491167,50.5695032 279.521108,50.5945563 C279.693266,50.7373584 279.856691,50.8726447 280.032592,50.9828779 C280.277106,51.1344486 280.420571,51.4125371 280.4056,51.7094153 C280.393125,51.9925143 280.227205,52.2455497 279.977701,52.3708148 L279.977701,52.3708148 L279.953998,52.380836 C280.056294,52.5286487 280.137383,52.7027672 280.179799,52.9119598 C280.267126,53.3240818 280.151106,53.7236774 280.047562,54.0744195 C280.006394,54.2172217 279.968968,54.3500026 279.955245,54.4502147 C279.916572,54.7245452 279.736929,54.9412537 279.496157,55.0352025 L279.496157,55.0352025 L279.486177,55.051487 C280.371917,55.6339695 280.868431,56.4932878 280.935797,57.5668093 C280.947025,57.7547069 280.879659,57.9426045 280.751164,58.084154 C280.737441,58.1016911 280.722471,58.1154702 280.707501,58.1292494 C280.751164,58.1831134 280.791085,58.2332194 280.824768,58.2808201 C280.902114,58.3898007 280.976965,58.500034 281.051817,58.6065093 C281.291341,58.9547461 281.5134,59.2804353 281.776627,59.5672922 C281.928824,59.7364001 281.998686,59.9693931 281.96126,60.1911122 C281.921339,60.4115787 281.786607,60.5994763 281.591994,60.7046989 C281.492192,60.7573103 281.348727,60.8174375 281.185302,60.8850806 C281.081757,60.9276707 280.912094,60.9990718 280.771124,61.0679676 C280.940787,61.3322769 281.055559,61.6166286 281.160351,61.8771799 C281.205262,61.9886658 281.250173,62.1001517 281.296331,62.2053743 C281.39239,62.4120617 281.389895,62.6563285 281.292588,62.8567526 C281.196529,63.0509135 281.019381,63.192463 280.807302,63.242569 C280.737441,63.2588534 280.666333,63.2826538 280.593976,63.3102121 C280.726214,63.5081309 280.853461,63.6947758 280.998173,63.8588731 C281.175321,64.0655604 281.233955,64.3524174 281.152866,64.6092108 C281.07552,64.8459617 280.892134,65.0263434 280.656352,65.0964918 C280.950767,65.5587199 281.152866,66.1098861 280.989441,66.6973792 C280.858451,67.1796497 280.635144,67.4827911 280.343224,67.7458478 C280.399363,67.8448072 280.486689,67.9663143 280.537838,68.0377153 C280.602709,68.1304115 280.660095,68.2130864 280.697521,68.2769716 C280.824768,68.4986908 280.835995,68.7692633 280.729956,69.0047616 C280.625164,69.2314913 280.421818,69.3930833 280.181047,69.4394313 C280.265878,69.515843 280.353205,69.5872441 280.443026,69.6473713 C280.6576,69.7864155 280.79358,70.0231665 280.807302,70.2787072 C280.821025,70.5229741 280.722471,70.7522091 280.53659,70.9075378 C280.35071,71.0603612 280.184789,71.1781103 280.002651,71.283333 C280.022611,71.3121439 280.038829,71.3397022 280.060037,71.3660079 C280.2297,71.6052642 280.485442,71.9672802 280.325759,72.5297203 C280.267126,72.7401656 280.141126,72.8867257 280.006394,72.9881904 C280.086235,73.1410137 280.20974,73.3489537 280.37566,73.6082524 C280.439284,73.7097171 280.487937,73.7861288 280.509145,73.8249609 C280.66259,74.1155759 280.630154,74.4462756 280.421818,74.7118375 C280.39562,74.7444065 280.37067,74.7744701 280.343224,74.803281 C280.374412,74.8483765 280.408096,74.8997351 280.449264,74.9586097 L280.449264,74.9586097 L280.484194,75.014979 C280.712491,75.3719844 280.615184,75.8317072 280.262136,76.0872479 C280.21473,76.1223221 280.164829,76.1536383 280.114928,76.183702 C280.272116,76.3715995 280.429303,76.5582445 280.593976,76.7373735 C280.789837,76.9478188 280.858451,77.2634867 280.766134,77.5403225 C280.697521,77.7445046 280.550313,77.9073491 280.361937,77.9962873 C280.381898,78.0063085 280.401858,78.018835 280.420571,78.0301089 C280.66758,78.176669 280.816035,78.4472415 280.809798,78.7378565 C280.80356,79.0222081 280.645125,79.2790015 280.39562,79.4117825 C280.193522,79.5182578 280.000156,79.6197225 279.805543,79.7111659 C279.880394,79.7775564 279.956493,79.8389363 280.037582,79.8915476 C280.255898,80.0343498 280.391878,80.2748587 280.398115,80.5316521 C280.4056,80.7922034 280.283343,81.0452388 280.067522,81.2055781 C279.96273,81.2832424 279.857938,81.3508855 279.755642,81.4122654 C279.912829,81.6302266 280.07376,81.8243874 280.255898,81.9521578 C280.492927,82.120013 280.622669,82.3968488 280.601461,82.6824531 C280.580254,82.9492677 280.426808,83.181008 280.189779,83.3037678 C280.237185,83.3563791 280.259225,83.9047254 280.255898,84.9488066 C278.820416,85.0103983 278.050695,85.1092548 277.946735,85.2453761 C277.94024,85.2538815 277.923567,85.2755346 277.89774,85.3089015 L277.843195,85.3908021 C277.457203,85.9726821 276.461884,87.431248 276.450737,87.4733266 L276.450737,87.4733266 L275.127113,89.286673 C275.127113,89.286673 273.770833,92.9949204 272.814989,93.5935351 C272.247456,93.9489626 272.489074,90.3184551 272.498698,86.4636305 L272.498137,85.8536583 C272.497672,85.7518683 272.497008,85.6500602 272.496127,85.5483023 L272.488075,84.9389075 C272.449693,82.8119775 272.298623,80.7676992 271.859145,79.4409382 C270.519783,75.3974762 268.221795,71.1976477 268.221795,71.1976477 C268.221795,71.1976477 267.423084,52.2584737 264.74554,44.7931779 C264.74554,44.7931779 257.127343,32.3142199 238.760972,29.3586075 C238.760972,29.3586075 238.749632,29.3598354 238.727775,29.3623869 L238.631477,29.3741084 C237.769092,29.4826489 232.832981,30.187701 230.915969,32.3142199 C230.915969,32.3142199 225.950221,35.2435836 216,35.2435836 C206.049779,35.2435836 201.56211,32.3142199 201.56211,32.3142199 C199.644023,30.187701 194.708796,29.4826489 193.846577,29.3741084 L193.750298,29.3623869 C193.728445,29.3598354 193.717107,29.3586075 193.717107,29.3586075 C175.350737,32.3142199 167.6891,46.906704 167.6891,46.906704 C166.867219,49.1971925 166.244252,52.3688402 165.775508,55.6653151 L165.673863,56.3996124 C164.698961,63.6343625 164.444672,71.1976477 164.444672,71.1976477 C164.444672,71.1976477 161.957117,75.3974762 160.616575,79.4409382 C160.132978,80.9034671 160.149742,83.7090153 160.268552,86.4959569 L160.290496,86.9872998 C160.29811,87.1508316 160.305996,87.3140219 160.314073,87.4765935 L160.338795,87.9621752 C160.564993,92.3107173 160.871291,96.0062025 159.66191,93.5935351 C158.071302,90.4203314 156.808761,89.4672267 156.286562,89.1908731 L156.202179,89.1488158 C156.087383,89.0953251 156.026162,89.0828925 156.026162,89.0828925 L156.026162,89.0828925 L155.189001,89.0220375 C155.186938,89.0219649 155.184889,89.0218779 155.182855,89.0217766 L155.12224,89.0167006 C155.122501,89.0157016 155.122762,89.0147026 155.123024,89.0137035 C155.038302,88.9939586 154.988327,88.9392799 154.973553,88.8497819 L154.973553,88.8497819 Z" id="Tiny_Winy_Afro/Pixie" fill="#34CCBF"></path>
            </g>
        </g>
    </g>
</svg>