<?xml version="1.0" encoding="UTF-8"?>
<svg width="431px" height="1625px" viewBox="0 0 431 1625" version="1.1" xmlns="http://www.w3.org/2000/svg" xmlns:xlink="http://www.w3.org/1999/xlink">
    <title>Illustration</title>
    <defs>
        <linearGradient x1="52.1120617%" y1="13.9053107%" x2="50%" y2="81.2985503%" id="linearGradient-1">
            <stop stop-color="#FFFFFF" stop-opacity="0" offset="0%"></stop>
            <stop stop-color="#FFFFFF" stop-opacity="0.506009615" offset="37.3155655%"></stop>
            <stop stop-color="#FFFFFF" offset="100%"></stop>
        </linearGradient>
    </defs>
    <g id="Page-1" stroke="none" stroke-width="1" fill="none" fill-rule="evenodd">
        <g id="Quiz_page_q9_4_Ear_lenght_1920-" transform="translate(-617.000000, -370.000000)">
            <g id="Illustration" transform="translate(617.000000, 370.000000)">
                <path d="M14.8396914,687.045623 C13.3590816,591.692973 22.2451715,573.95396 25.952774,555.475216 C29.6603764,536.996471 35.5828156,474.16777 39.290418,400.250367 C42.9980205,326.335389 51.1425899,326.335389 60.7774939,308.596377 C70.4099667,290.854939 144.501236,273.853233 154.880092,269.419692 C165.254085,264.983726 177.845346,255.376914 179.260313,247.244714 C180.67528,239.112514 179.260313,200.677987 179.260313,200.677987 C158.449115,181.457085 156.312077,150.041522 156.312077,150.041522 C148.93334,150.533868 148.196682,138.513832 147.948698,134.589615 C147.703146,130.665398 142.78723,113.003996 143.035213,104.173296 C143.280766,95.3425951 154.179902,98.464021 154.179902,98.464021 C154.179902,28.9073978 190.278578,22 215.497569,22 C240.718991,22 276.817667,28.9073978 276.817667,98.464021 C276.817667,98.464021 287.714371,95.3425951 287.962355,104.173296 C288.21277,113.003996 283.296854,130.665398 283.04887,134.589615 C282.800886,138.513832 282.061797,150.533868 274.685492,150.041522 C274.685492,150.041522 272.550885,181.457085 251.739687,200.677987 C251.739687,200.677987 250.322289,239.112514 251.739687,247.244714 C253.154654,255.376914 265.743484,264.983726 276.119908,269.419692 C286.493902,273.853233 360.587602,290.854939 370.222506,308.596377 C379.854979,326.335389 387.999548,326.335389 391.707151,400.250367 C395.414753,474.16777 401.337192,536.996471 405.044795,555.475216 C408.752397,573.95396 417.640918,591.692973 416.157877,687.045623 C414.677268,782.395847 422.829131,804.573251 422.829131,804.573251 C422.829131,804.573251 436.169206,871.098186 428.758863,886.618003 C421.34609,902.14267 412.455137,913.228947 408.010877,912.49164 C403.564185,911.751909 405.786315,903.62456 405.786315,903.62456 C405.786315,903.62456 387.267753,915.516052 382.821061,912.528021 C378.374369,909.535138 376.888897,911.751909 373.188588,906.578636 C369.483417,901.405364 376.152239,896.229666 376.152239,896.229666 C376.152239,896.229666 371.705547,894.750203 368.741896,891.053969 C365.775814,887.36016 389.489883,874.054688 389.489883,855.573518 C389.489883,837.097199 385.784712,816.401684 391.712013,794.966438 C397.636884,773.528766 365.036725,712.179528 359.848513,647.131632 C354.662732,582.08616 361.333985,582.821041 356.145773,561.385795 C350.95756,539.952974 328.731395,463.8188 328.731395,437.947588 L328.731395,434.991086 C328.731395,434.991086 322.804094,471.211268 313.16919,482.297545 C303.534286,493.386246 298.346073,564.344722 301.312155,573.214228 C304.278237,582.08616 358.370334,702.567865 357.626383,781.65854 C356.884862,860.749216 321.479082,1008.5816 323.251437,1034.45523 C325.021362,1060.32402 334.661128,1138.67739 335.397786,1202.2434 C336.134444,1265.80941 292.426066,1415.12125 293.906675,1480.90645 C295.387285,1546.68923 320.581964,1588.82242 313.16919,1600.65085 C305.758847,1612.47929 282.054504,1619.8669 273.900209,1619.8669 C273.900209,1619.8669 267.970477,1627.25695 257.598914,1624.30287 C247.227352,1621.34879 244.26127,1596.21004 246.483401,1568.86664 C248.707962,1541.52081 247.968873,1505.2982 242.780661,1489.77839 C237.592448,1474.25372 261.301654,1453.55578 257.598914,1429.1616 C253.893743,1404.77228 262.048037,1385.5538 251.671613,1320.51318 C241.29762,1255.46286 243.529475,1189.67766 250.193434,1157.89344 C256.854963,1126.1068 242.041571,1056.62536 236.111839,1035.93227 C230.182106,1015.23191 215.497569,862.313567 215.497569,862.313567 C215.497569,862.313567 200.815463,1015.23191 194.88573,1035.93227 C188.953566,1056.62536 174.142606,1126.1068 180.806566,1157.89344 C187.470525,1189.67766 189.70238,1255.46286 179.323525,1320.51318 C168.949531,1385.5538 177.101394,1404.77228 173.398654,1429.1616 C169.695914,1453.55578 193.40512,1474.25372 188.216908,1489.77839 C183.028696,1505.2982 182.289607,1541.52081 184.514168,1568.86664 C186.736298,1596.21004 183.772648,1621.34879 173.398654,1624.30287 C163.027092,1627.25695 157.09736,1619.8669 157.09736,1619.8669 C148.943065,1619.8669 125.238722,1612.47929 117.828379,1600.65085 C110.418036,1588.82242 135.610284,1546.68923 137.090893,1480.90645 C138.571503,1415.12125 94.8606934,1265.80941 95.5997826,1202.2434 C96.3388719,1138.67739 105.976207,1060.32402 107.746131,1034.45523 C109.518487,1008.5816 74.1127068,860.749216 73.3711863,781.65854 C72.6296658,702.567865 126.719331,582.08616 129.682982,573.214228 C132.649064,564.344722 127.460852,493.386246 117.828379,482.297545 C108.195906,471.211268 102.268605,434.991086 102.268605,434.991086 L102.268605,437.947588 C102.268605,463.8188 80.0400083,539.952974 74.851796,561.385795 C69.6635838,582.821041 76.3372683,582.08616 71.1466248,647.131632 C65.9608437,712.179528 33.3582541,773.528766 39.2855556,794.966438 C45.2104259,816.401684 41.5101171,837.097199 41.5101171,855.573518 C41.5101171,874.054688 65.2217545,887.36016 62.2556725,891.053969 C59.2920217,894.750203 54.8453299,896.229666 54.8453299,896.229666 C54.8453299,896.229666 61.514152,901.405364 57.8114119,906.578636 C54.1086719,911.751909 52.6231997,909.535138 48.1765079,912.528021 C43.7322474,915.516052 25.2112535,903.62456 25.2112535,903.62456 C25.2112535,903.62456 27.4333837,911.751909 22.9891232,912.49164 C18.5424314,913.228947 9.64904792,902.14267 2.2411366,886.618003 C-5.16920593,871.098186 8.17086936,804.573251 8.17086936,804.573251 C8.17086936,804.573251 16.3203012,782.395847 14.8396914,687.045623 Z" id="Fill-" fill="#EBFAF9"></path>
                <rect id="Rectangle" fill="url(#linearGradient-1)" x="0" y="1284" width="431" height="341"></rect>
                <g id="Ear-length" transform="translate(136.000000, 0.000000)" fill="#34CCBF">
                    <path d="M156.711942,61.2908636 C157.022541,61.2099335 157.310633,61.0031124 157.504195,60.625439 C161.726541,52.4784841 158.381974,39.9747968 150.671016,34.6199275 C149.248563,31.3737347 148.087193,28.0825807 146.048043,25.1106507 C143.797325,21.828489 140.853387,18.9060162 137.450302,16.8288125 C133.308982,14.3064937 128.726521,13.3488219 124.130556,13.555643 C119.332026,10.2150319 114.020333,7.52635692 108.497072,5.80884215 C104.427775,4.54993081 100.637567,3.84853735 96.4872439,4.40155912 C87.6959414,-0.265405084 78.1574008,-1.66819201 68.3892869,2.38730096 C62.5689316,4.80620919 56.8115963,9.44619672 53.2059469,15.1472667 C45.0223381,11.9415388 35.2722301,16.4376508 29.258313,22.2016663 C27.0616127,24.2923584 25.1935172,26.7202588 23.6765336,29.3459882 C17.5005649,31.4726491 11.7072181,36.9264329 8.32213903,42.231845 C5.8193412,46.1479585 4.92805709,50.626086 4.76150399,55.1986319 C3.2940362,57.3567656 2.05614159,59.6542788 1.17836178,62.0911715 C-1.09036144,68.3947204 0.350097746,75.1343922 1.88058563,81.4244528 C2.88890705,85.5653719 4.28885332,89.5938882 5.74731825,93.5864357 C6.81565881,96.505911 7.30183327,99.5151043 7.20584162,102.614015 C7.72988939,100.449888 9.01800119,99.066557 11.070177,98.464021 C13.1223528,97.861485 15.4922611,97.861485 18.1799018,98.464021 C19.3055137,111.336381 20.7205914,118.181708 22.4251347,119 C22.1190371,115.182801 21.7499195,113.989792 22.4251347,110.95042 C23.5234848,105.973224 25.5716377,103.922997 25.6976779,98.860375 C25.7336894,97.3586736 28.8441809,94.602557 29.4518747,95.9513905 C30.6627607,92.7816316 30.6717635,89.423036 30.5862363,85.9835104 C30.5592277,84.5582429 31.2434458,83.7849116 32.2922801,83.0070842 C33.2825958,82.2787141 34.5429976,82.9441387 35.5153075,83.2318898 C36.8162222,83.6320438 37.9775925,79.4012025 38.9003866,78.3670967 C39.6296191,77.5398121 40.9935539,77.4498899 42.0063767,77.3374871 C46.4357887,76.8474109 46.0081524,75.2198184 47.3405771,72.4142445 C47.9032565,71.227271 49.4337444,70.4404514 50.6986476,70.3909941 C51.3603585,70.3640175 58.2790641,70.7911481 57.0816824,68.5925494 C56.5280059,67.5719319 56.5100001,67.5134825 56.1948997,66.3624778 C56.0373495,65.8094561 56.4784901,65.1620159 57.0816824,65.1889926 C60.8718906,65.3823254 63.8338348,64.9596909 67.52051,64.199848 C68.866439,63.921089 70.6850188,64.159383 71.8103775,65.004652 C72.2515181,65.3328682 72.6521458,65.6970533 73.0392692,66.0792228 C78.0718735,69.7570423 79.3817911,79.8283331 76.6089072,84.724599 C75.0379064,87.5121884 72.1524866,88.6676892 69.1275223,88.618232 C72.0579564,89.9535772 75.3980212,90.0345072 78.8866332,88.177613 C82.2987209,86.3521915 84.504424,83.1419676 86.2194708,79.6574809 C92.6475199,66.5872834 84.0227705,58.6021886 83.9957619,58.5527314 C83.986759,58.5482353 82.2987209,56.9476194 83.3700624,57.4466878 C85.7288144,58.5122664 87.2683051,60.2567578 89.4019853,61.6505525 C92.8410816,63.8986085 96.8383558,64.0155074 100.682581,62.6846583 C103.383442,61.749467 105.422592,60.1983084 107.934393,59.0023426 C108.983227,58.5032741 110.396678,57.7389351 111.621068,58.0491668 C112.894974,58.3638947 113.826771,58.9124203 114.619024,59.9914872 C116.761707,62.9229522 118.179659,64.9506987 121.951861,65.8544172 C124.886797,66.5558106 126.318253,67.7158075 127.006973,70.6832414 C127.754211,73.9159459 128.640994,75.9347002 130.900714,78.4390345 C131.868523,79.5091092 132.849835,80.6780983 132.867841,82.2157685 C132.930861,87.494204 127.01385,90.4725453 130.900714,95.0801473 C134.787579,99.6877493 133.91608,112.60098 134.787579,116.001635 C135.659077,119.402291 136.809063,103.010369 140.964744,98.860375 C142.552047,97.275244 148.900088,97.9155619 150.240646,99.6877493 C151.134351,100.869208 151.575515,101.555044 151.564136,101.745257 C152.331157,99.1985415 152.84821,97.3676658 153.115295,96.25263 C155.798151,93.2132584 158.296447,89.98505 159.385794,86.248781 C160.574173,82.193288 160.052007,76.9598137 157.697756,73.2954824 C158.638556,69.2939428 158.206418,65.2114732 156.711942,61.2908636 Z"></path>
                </g>
            </g>
        </g>
    </g>
</svg>