<?xml version="1.0" encoding="UTF-8"?>
<svg width="431px" height="1624px" viewBox="0 0 431 1624" version="1.1" xmlns="http://www.w3.org/2000/svg" xmlns:xlink="http://www.w3.org/1999/xlink">
    <title>Illustration</title>
    <defs>
        <linearGradient x1="52.1120617%" y1="13.9053107%" x2="50%" y2="81.2985503%" id="linearGradient-1">
            <stop stop-color="#FFFFFF" stop-opacity="0" offset="0%"></stop>
            <stop stop-color="#FFFFFF" stop-opacity="0.506009615" offset="37.3155655%"></stop>
            <stop stop-color="#FFFFFF" offset="100%"></stop>
        </linearGradient>
    </defs>
    <g id="Page-1" stroke="none" stroke-width="1" fill="none" fill-rule="evenodd">
        <g id="Quiz_page_q9_5_Chin_length_1920" transform="translate(-617.000000, -372.000000)">
            <g id="Illustration" transform="translate(617.000000, 372.000000)">
                <path d="M14.8396914,685.045623 C13.3590816,589.692973 22.2451715,571.95396 25.952774,553.475216 C29.6603764,534.996471 35.5828156,472.16777 39.290418,398.250367 C42.9980205,324.335389 51.1425899,324.335389 60.7774939,306.596377 C70.4099667,288.854939 144.501236,271.853233 154.880092,267.419692 C165.254085,262.983726 177.845346,253.376914 179.260313,245.244714 C180.67528,237.112514 179.260313,198.677987 179.260313,198.677987 C158.449115,179.457085 156.312077,148.041522 156.312077,148.041522 C148.93334,148.533868 148.196682,136.513832 147.948698,132.589615 C147.703146,128.665398 142.78723,111.003996 143.035213,102.173296 C143.280766,93.3425951 154.179902,96.464021 154.179902,96.464021 C154.179902,26.9073978 190.278578,20 215.497569,20 C240.718991,20 276.817667,26.9073978 276.817667,96.464021 C276.817667,96.464021 287.714371,93.3425951 287.962355,102.173296 C288.21277,111.003996 283.296854,128.665398 283.04887,132.589615 C282.800886,136.513832 282.061797,148.533868 274.685492,148.041522 C274.685492,148.041522 272.550885,179.457085 251.739687,198.677987 C251.739687,198.677987 250.322289,237.112514 251.739687,245.244714 C253.154654,253.376914 265.743484,262.983726 276.119908,267.419692 C286.493902,271.853233 360.587602,288.854939 370.222506,306.596377 C379.854979,324.335389 387.999548,324.335389 391.707151,398.250367 C395.414753,472.16777 401.337192,534.996471 405.044795,553.475216 C408.752397,571.95396 417.640918,589.692973 416.157877,685.045623 C414.677268,780.395847 422.829131,802.573251 422.829131,802.573251 C422.829131,802.573251 436.169206,869.098186 428.758863,884.618003 C421.34609,900.14267 412.455137,911.228947 408.010877,910.49164 C403.564185,909.751909 405.786315,901.62456 405.786315,901.62456 C405.786315,901.62456 387.267753,913.516052 382.821061,910.528021 C378.374369,907.535138 376.888897,909.751909 373.188588,904.578636 C369.483417,899.405364 376.152239,894.229666 376.152239,894.229666 C376.152239,894.229666 371.705547,892.750203 368.741896,889.053969 C365.775814,885.36016 389.489883,872.054688 389.489883,853.573518 C389.489883,835.097199 385.784712,814.401684 391.712013,792.966438 C397.636884,771.528766 365.036725,710.179528 359.848513,645.131632 C354.662732,580.08616 361.333985,580.821041 356.145773,559.385795 C350.95756,537.952974 328.731395,461.8188 328.731395,435.947588 L328.731395,432.991086 C328.731395,432.991086 322.804094,469.211268 313.16919,480.297545 C303.534286,491.386246 298.346073,562.344722 301.312155,571.214228 C304.278237,580.08616 358.370334,700.567865 357.626383,779.65854 C356.884862,858.749216 321.479082,1006.5816 323.251437,1032.45523 C325.021362,1058.32402 334.661128,1136.67739 335.397786,1200.2434 C336.134444,1263.80941 292.426066,1413.12125 293.906675,1478.90645 C295.387285,1544.68923 320.581964,1586.82242 313.16919,1598.65085 C305.758847,1610.47929 282.054504,1617.8669 273.900209,1617.8669 C273.900209,1617.8669 267.970477,1625.25695 257.598914,1622.30287 C247.227352,1619.34879 244.26127,1594.21004 246.483401,1566.86664 C248.707962,1539.52081 247.968873,1503.2982 242.780661,1487.77839 C237.592448,1472.25372 261.301654,1451.55578 257.598914,1427.1616 C253.893743,1402.77228 262.048037,1383.5538 251.671613,1318.51318 C241.29762,1253.46286 243.529475,1187.67766 250.193434,1155.89344 C256.854963,1124.1068 242.041571,1054.62536 236.111839,1033.93227 C230.182106,1013.23191 215.497569,860.313567 215.497569,860.313567 C215.497569,860.313567 200.815463,1013.23191 194.88573,1033.93227 C188.953566,1054.62536 174.142606,1124.1068 180.806566,1155.89344 C187.470525,1187.67766 189.70238,1253.46286 179.323525,1318.51318 C168.949531,1383.5538 177.101394,1402.77228 173.398654,1427.1616 C169.695914,1451.55578 193.40512,1472.25372 188.216908,1487.77839 C183.028696,1503.2982 182.289607,1539.52081 184.514168,1566.86664 C186.736298,1594.21004 183.772648,1619.34879 173.398654,1622.30287 C163.027092,1625.25695 157.09736,1617.8669 157.09736,1617.8669 C148.943065,1617.8669 125.238722,1610.47929 117.828379,1598.65085 C110.418036,1586.82242 135.610284,1544.68923 137.090893,1478.90645 C138.571503,1413.12125 94.8606934,1263.80941 95.5997826,1200.2434 C96.3388719,1136.67739 105.976207,1058.32402 107.746131,1032.45523 C109.518487,1006.5816 74.1127068,858.749216 73.3711863,779.65854 C72.6296658,700.567865 126.719331,580.08616 129.682982,571.214228 C132.649064,562.344722 127.460852,491.386246 117.828379,480.297545 C108.195906,469.211268 102.268605,432.991086 102.268605,432.991086 L102.268605,435.947588 C102.268605,461.8188 80.0400083,537.952974 74.851796,559.385795 C69.6635838,580.821041 76.3372683,580.08616 71.1466248,645.131632 C65.9608437,710.179528 33.3582541,771.528766 39.2855556,792.966438 C45.2104259,814.401684 41.5101171,835.097199 41.5101171,853.573518 C41.5101171,872.054688 65.2217545,885.36016 62.2556725,889.053969 C59.2920217,892.750203 54.8453299,894.229666 54.8453299,894.229666 C54.8453299,894.229666 61.514152,899.405364 57.8114119,904.578636 C54.1086719,909.751909 52.6231997,907.535138 48.1765079,910.528021 C43.7322474,913.516052 25.2112535,901.62456 25.2112535,901.62456 C25.2112535,901.62456 27.4333837,909.751909 22.9891232,910.49164 C18.5424314,911.228947 9.64904792,900.14267 2.2411366,884.618003 C-5.16920593,869.098186 8.17086936,802.573251 8.17086936,802.573251 C8.17086936,802.573251 16.3203012,780.395847 14.8396914,685.045623 Z" id="Fill-" fill="#EBFAF9"></path>
                <rect id="Rectangle" fill="url(#linearGradient-1)" x="0" y="1282" width="431" height="341"></rect>
                <path d="M275.86933,154.111813 C275.86933,154.111813 271.905751,158 263.172463,158.5 C260.586978,158.648025 276.627738,117.140541 269.9001,108.07027 C263.172463,99 267.069375,92.13283 267.046868,91.8069838 C266.566424,84.8513875 256.209037,87.7069398 256.699772,72.6714349 C255.950973,71.1077202 244.93823,67.8718384 243.293854,66.3787853 C234.120208,58.0485699 241.539414,52.4679451 222.634823,50.5456884 C203.729085,48.6234317 199.555056,40.952862 199.555056,40.952862 C192.815867,51.7405302 196.764981,53.0192822 190.025791,59 C187.611976,61.142747 177.27389,67.2574139 174,72.6714349 C170.383537,78.651967 163.314959,90.3412675 164.5,95.2055026 C168.324697,110.904734 159.602914,123.045702 159.99477,125.5649 C161.7088,136.584215 168.977612,154.259694 164.5,158.5 C156.112473,166.443002 139.377013,152.986575 139.377013,152.986575 C139.377013,152.986575 127.692153,154.50492 128.169183,148.389246 C109.545534,141.009036 119.548249,131.032013 127.692153,125.5649 C135.837204,120.098442 120.505748,114.220445 114.757312,108.07027 C109.008876,101.920096 112.121035,97.8204153 125.295538,91.8069838 C138.471187,85.7928981 127.21283,76.090016 126.493845,72.6714349 C125.774861,69.2561251 131.524444,68.5724089 131.764105,61.4643771 C132.003767,54.3589625 137.035512,50.6682034 143.263271,46.9787528 C149.488736,43.2873394 141.106317,40.9646671 149.01056,28.6643176 C152.158236,23.7657361 157.627733,21.1783358 162.879515,18.6377592 C170.815672,14.7986027 178.89394,12.3465963 182.784485,12.3465963 C189.250758,12.3465963 191.887035,5.69063439 199.555056,3.23121878 C202.539931,2.27336178 209.019966,0.631374618 215.5,0.631374618 C221.980034,0.631374618 229.327146,2.27336178 232.312021,3.23121878 C239.980042,5.69063439 236.82758,8.32401527 243.293854,8.32401527 C248.606799,8.32401527 263.331677,15.0990041 273.742346,23.4877402 C276.002285,25.3087598 280.578691,26.4703014 281.988293,28.6643176 C289.89483,40.9646671 281.510117,43.2873394 287.737876,46.9787528 C293.964488,50.6682034 298.995087,54.3589625 299.234748,61.4643771 C299.475556,68.5724089 305.225139,69.2561251 304.506155,72.6714349 C303.78717,76.090016 292.52996,85.7928981 305.704462,91.8069838 C318.878965,97.8204153 321.991124,101.920096 316.242688,108.07027 C310.494252,114.220445 295.162796,120.098442 303.307847,125.5649 C311.451751,131.032013 321.453319,141.009036 302.830817,148.389246 C306.72159,142.443204 295.572497,141.648813 295.572497,141.648813 C295.572497,141.648813 301.692139,158 287.737876,158 C285.413504,158 275.86933,154.111813 275.86933,154.111813 Z" id="Chin-length" fill="#34CCBF"></path>
            </g>
        </g>
    </g>
</svg>