<?xml version="1.0" encoding="UTF-8"?>
<svg width="431px" height="1611px" viewBox="0 0 431 1611" version="1.1" xmlns="http://www.w3.org/2000/svg" xmlns:xlink="http://www.w3.org/1999/xlink">
    <title>Illustration</title>
    <defs>
        <linearGradient x1="52.1120617%" y1="13.9053107%" x2="50%" y2="81.2985503%" id="linearGradient-1">
            <stop stop-color="#FFFFFF" stop-opacity="0" offset="0%"></stop>
            <stop stop-color="#FFFFFF" stop-opacity="0.506009615" offset="37.3155655%"></stop>
            <stop stop-color="#FFFFFF" offset="100%"></stop>
        </linearGradient>
    </defs>
    <g id="Page-1" stroke="none" stroke-width="1" fill="none" fill-rule="evenodd">
        <g id="Quiz_page_q9_6_Shoulder_length_1920" transform="translate(-617.000000, -384.000000)">
            <g id="Illustration" transform="translate(617.000000, 384.000000)">
                <path d="M14.8396914,673.045623 C13.3590816,577.692973 22.2451715,559.95396 25.952774,541.475216 C29.6603764,522.996471 35.5828156,460.16777 39.290418,386.250367 C42.9980205,312.335389 51.1425899,312.335389 60.7774939,294.596377 C70.4099667,276.854939 144.501236,259.853233 154.880092,255.419692 C165.254085,250.983726 177.845346,241.376914 179.260313,233.244714 C180.67528,225.112514 179.260313,186.677987 179.260313,186.677987 C158.449115,167.457085 156.312077,136.041522 156.312077,136.041522 C148.93334,136.533868 148.196682,124.513832 147.948698,120.589615 C147.703146,116.665398 142.78723,99.0039964 143.035213,90.1732958 C143.280766,81.3425951 154.179902,84.464021 154.179902,84.464021 C154.179902,14.9073978 190.278578,8 215.497569,8 C240.718991,8 276.817667,14.9073978 276.817667,84.464021 C276.817667,84.464021 287.714371,81.3425951 287.962355,90.1732958 C288.21277,99.0039964 283.296854,116.665398 283.04887,120.589615 C282.800886,124.513832 282.061797,136.533868 274.685492,136.041522 C274.685492,136.041522 272.550885,167.457085 251.739687,186.677987 C251.739687,186.677987 250.322289,225.112514 251.739687,233.244714 C253.154654,241.376914 265.743484,250.983726 276.119908,255.419692 C286.493902,259.853233 360.587602,276.854939 370.222506,294.596377 C379.854979,312.335389 387.999548,312.335389 391.707151,386.250367 C395.414753,460.16777 401.337192,522.996471 405.044795,541.475216 C408.752397,559.95396 417.640918,577.692973 416.157877,673.045623 C414.677268,768.395847 422.829131,790.573251 422.829131,790.573251 C422.829131,790.573251 436.169206,857.098186 428.758863,872.618003 C421.34609,888.14267 412.455137,899.228947 408.010877,898.49164 C403.564185,897.751909 405.786315,889.62456 405.786315,889.62456 C405.786315,889.62456 387.267753,901.516052 382.821061,898.528021 C378.374369,895.535138 376.888897,897.751909 373.188588,892.578636 C369.483417,887.405364 376.152239,882.229666 376.152239,882.229666 C376.152239,882.229666 371.705547,880.750203 368.741896,877.053969 C365.775814,873.36016 389.489883,860.054688 389.489883,841.573518 C389.489883,823.097199 385.784712,802.401684 391.712013,780.966438 C397.636884,759.528766 365.036725,698.179528 359.848513,633.131632 C354.662732,568.08616 361.333985,568.821041 356.145773,547.385795 C350.95756,525.952974 328.731395,449.8188 328.731395,423.947588 L328.731395,420.991086 C328.731395,420.991086 322.804094,457.211268 313.16919,468.297545 C303.534286,479.386246 298.346073,550.344722 301.312155,559.214228 C304.278237,568.08616 358.370334,688.567865 357.626383,767.65854 C356.884862,846.749216 321.479082,994.581597 323.251437,1020.45523 C325.021362,1046.32402 334.661128,1124.67739 335.397786,1188.2434 C336.134444,1251.80941 292.426066,1401.12125 293.906675,1466.90645 C295.387285,1532.68923 320.581964,1574.82242 313.16919,1586.65085 C305.758847,1598.47929 282.054504,1605.8669 273.900209,1605.8669 C273.900209,1605.8669 267.970477,1613.25695 257.598914,1610.30287 C247.227352,1607.34879 244.26127,1582.21004 246.483401,1554.86664 C248.707962,1527.52081 247.968873,1491.2982 242.780661,1475.77839 C237.592448,1460.25372 261.301654,1439.55578 257.598914,1415.1616 C253.893743,1390.77228 262.048037,1371.5538 251.671613,1306.51318 C241.29762,1241.46286 243.529475,1175.67766 250.193434,1143.89344 C256.854963,1112.1068 242.041571,1042.62536 236.111839,1021.93227 C230.182106,1001.23191 215.497569,848.313567 215.497569,848.313567 C215.497569,848.313567 200.815463,1001.23191 194.88573,1021.93227 C188.953566,1042.62536 174.142606,1112.1068 180.806566,1143.89344 C187.470525,1175.67766 189.70238,1241.46286 179.323525,1306.51318 C168.949531,1371.5538 177.101394,1390.77228 173.398654,1415.1616 C169.695914,1439.55578 193.40512,1460.25372 188.216908,1475.77839 C183.028696,1491.2982 182.289607,1527.52081 184.514168,1554.86664 C186.736298,1582.21004 183.772648,1607.34879 173.398654,1610.30287 C163.027092,1613.25695 157.09736,1605.8669 157.09736,1605.8669 C148.943065,1605.8669 125.238722,1598.47929 117.828379,1586.65085 C110.418036,1574.82242 135.610284,1532.68923 137.090893,1466.90645 C138.571503,1401.12125 94.8606934,1251.80941 95.5997826,1188.2434 C96.3388719,1124.67739 105.976207,1046.32402 107.746131,1020.45523 C109.518487,994.581597 74.1127068,846.749216 73.3711863,767.65854 C72.6296658,688.567865 126.719331,568.08616 129.682982,559.214228 C132.649064,550.344722 127.460852,479.386246 117.828379,468.297545 C108.195906,457.211268 102.268605,420.991086 102.268605,420.991086 L102.268605,423.947588 C102.268605,449.8188 80.0400083,525.952974 74.851796,547.385795 C69.6635838,568.821041 76.3372683,568.08616 71.1466248,633.131632 C65.9608437,698.179528 33.3582541,759.528766 39.2855556,780.966438 C45.2104259,802.401684 41.5101171,823.097199 41.5101171,841.573518 C41.5101171,860.054688 65.2217545,873.36016 62.2556725,877.053969 C59.2920217,880.750203 54.8453299,882.229666 54.8453299,882.229666 C54.8453299,882.229666 61.514152,887.405364 57.8114119,892.578636 C54.1086719,897.751909 52.6231997,895.535138 48.1765079,898.528021 C43.7322474,901.516052 25.2112535,889.62456 25.2112535,889.62456 C25.2112535,889.62456 27.4333837,897.751909 22.9891232,898.49164 C18.5424314,899.228947 9.64904792,888.14267 2.2411366,872.618003 C-5.16920593,857.098186 8.17086936,790.573251 8.17086936,790.573251 C8.17086936,790.573251 16.3203012,768.395847 14.8396914,673.045623 Z" id="Fill-" fill="#EBFAF9"></path>
                <rect id="Rectangle" fill="url(#linearGradient-1)" x="0" y="1270" width="431" height="341"></rect>
                <g id="Shoulder-length" transform="translate(138.000000, 0.000000)" fill="#34CCBF">
                    <path d="M194.530981,143.995096 C187.308862,144.343023 183.563899,136.800309 185.157776,130.760984 C185.995749,127.625346 185.926638,125.181266 184.721512,122.861753 C184.678317,122.88323 184.643762,122.909002 184.600567,122.930479 C184.691275,123.149544 184.712873,123.420154 184.777664,123.656401 C184.440747,122.707118 183.94833,121.843744 183.347927,121.053391 C183.39976,121.109231 183.473191,121.143595 183.520705,121.199435 L183.624372,121.139299 C183.32633,120.761305 182.998051,120.374719 182.635218,119.992429 C179.598645,116.788064 174.268444,116.453023 170.182245,116.929812 C167.728798,117.221899 165.314226,117.655734 162.878057,118.033729 C157.176384,118.922875 156.290896,115.138633 156.761716,111.079484 C158.398788,108.231637 159.621192,105.164725 160.649221,101.956065 C162.053042,97.6091258 161.867305,93.4726604 160.817679,89.5123063 C160.688096,89.1772655 160.610346,88.8422247 160.510998,88.5071839 C160.662179,88.3138911 160.81336,88.1291891 160.964541,87.9230102 C160.994777,87.8757608 161.029332,87.8199207 161.063888,87.7726713 C161.236666,87.5235384 161.409444,87.2701101 161.573583,87.0037956 C161.573583,87.0166818 161.573583,87.029568 161.577902,87.0467496 C167.003131,78.6062985 167.16295,68.6968224 164.083183,58.8002324 C161.456958,50.3511906 155.612743,44.4149548 149.142208,39.0070525 C149.111972,38.8352367 149.090374,38.6634209 149.051499,38.4873097 C149.090374,38.5087867 149.116291,38.5302637 149.150847,38.5517407 C149.094694,38.2381768 148.982388,37.9332038 148.904638,37.61964 C148.81393,37.2459406 148.727541,36.880832 148.610916,36.5114281 C148.360388,35.6995984 139.954443,20 127.907795,18.0798884 C127.942351,18.0068666 127.968267,17.9166634 127.925073,17.8393462 C124.365847,10.6230827 114.241058,4.56228047 106.353743,3.70749687 C103.222142,3.36816067 100.388584,3.50131792 97.7234835,4.00387913 C89.3221546,0.997102665 80.9597008,-0.986502592 73.7980538,2.20497585 C68.6924648,0.160367858 63.2413198,2.79257775 58.2782725,4.47637257 C45.1471467,1.19039544 29.7742267,10.3997222 21.2044393,22.0359471 C17.5847408,24.1492814 14.7252653,28.0323184 12.2372625,31.0605719 C6.18139464,38.414288 4.25530477,42.5836366 1.0675512,51.6426245 C-0.366505968,55.7318405 0.976842761,64.972715 1.0675512,68.5722559 C-1.26495142,74.8635777 0.843003283,80.3952711 7.39141531,85.167336 C9.76120355,83.7069192 12.6906991,83.4724809 16.1799018,84.464021 C18.8652292,85.2271208 22.8794488,87.4851253 25.2869645,89.5123063 C27.5717873,91.4361772 89.8179279,89.2674688 89.982067,89.5123063 C90.2263154,90.0702133 95.6835408,83.8994445 106.353743,71 C109.307652,81.8304073 113.422815,89.467878 118.699231,93.9124119 C121.632018,96.382814 133.865306,85.3289814 138.817667,84.464021 C143.770028,83.5990606 145.94267,83.5990606 148.904638,86.5334624 C151.834292,89.435851 147.301156,107.960993 147.137532,109.034644 C146.389929,113.940192 144.842202,119.808787 144.842202,122.861753 C144.842202,125.914718 144.065741,128.89286 142.34842,132.467191 C141.203539,134.850078 139.315896,136.041522 136.685492,136.041522 C136.058243,140.90848 135.627408,143.868653 135.392989,144.92204 C133.360098,154.057051 131.945639,158.656958 127.925073,166.774821 C123.904507,174.892684 120.10048,180.102924 113.187351,186.985721 C113.626818,192.414379 113.542244,203.271273 113.187351,213.951068 C112.888496,222.944517 112.885849,232.46812 114.821454,236.736635 C116.997291,241.534924 126.015609,249.241631 132.093287,252.412279 C138.484018,255.746243 163.983836,253.845526 164.329392,252.74161 C164.329392,252.74161 164.33803,252.711542 164.346669,252.69436 C164.588558,250.873113 164.506489,248.957367 168.385354,246.43597 C169.789175,245.937704 171.214594,245.606959 172.678887,245.439438 C174.588084,245.147351 176.536155,245.08292 178.449671,244.885332 C181.9873,244.524519 185.343512,243.944641 188.060446,241.534924 C190.051712,239.760926 190.548449,237.084895 190.30656,234.576384 C190.254726,234.091005 190.103545,233.639988 189.891892,233.21904 C190.85513,233.154609 191.822686,232.798091 192.682257,232.222508 C194.099036,231.277521 196.798692,229.155596 195.550371,227.274213 C195.567649,226.956354 195.308482,226.647085 194.893815,226.797424 C186.863958,229.701111 186.06918,219.138735 191.47713,216.471295 C194.142231,215.148313 197.152887,214.903476 200.046918,214.465345 C203.372894,213.962784 206.197814,212.068515 208.400733,209.641617 C212.962071,204.6203 209.735442,199.427168 204.962451,196.888589 C204.88902,196.815567 204.81127,196.73825 204.73784,196.678115 C207.519565,195.415269 209.934137,192.228086 209.67497,189.2299 L209.67497,189.169764 C209.657692,189.053789 209.67497,188.937813 209.657692,188.821837 C209.614498,188.615658 209.420123,188.589886 209.251664,188.624249 C209.065928,188.551228 208.849955,188.572704 208.638302,188.74452 C201.51553,194.66787 196.34515,178.51289 208.137246,173.843795 C212.093862,172.275976 215.294574,171.086152 218.953147,168.856842 C221.959484,167.018413 224.875112,162.783153 224.987418,159.183612 C225.324335,148.2819 218.879717,140.202262 207.48069,141.331951 C203.018699,141.782967 199.088,143.771735 194.530981,143.995096 Z" id="Shoulder_length"></path>
                </g>
            </g>
        </g>
    </g>
</svg>