<?xml version="1.0" encoding="UTF-8"?>
<svg width="431px" height="1617px" viewBox="0 0 431 1617" version="1.1" xmlns="http://www.w3.org/2000/svg" xmlns:xlink="http://www.w3.org/1999/xlink">
    <title>Illustration</title>
    <defs>
        <linearGradient x1="52.1120617%" y1="13.9053107%" x2="50%" y2="81.2985503%" id="linearGradient-1">
            <stop stop-color="#FFFFFF" stop-opacity="0" offset="0%"></stop>
            <stop stop-color="#FFFFFF" stop-opacity="0.506009615" offset="37.3155655%"></stop>
            <stop stop-color="#FFFFFF" offset="100%"></stop>
        </linearGradient>
    </defs>
    <g id="Page-1" stroke="none" stroke-width="1" fill="none" fill-rule="evenodd">
        <g id="Quiz_page_q9_7_Collarbone_length_1920" transform="translate(-617.000000, -378.000000)">
            <g id="Illustration" transform="translate(617.000000, 378.000000)">
                <path d="M14.8396914,679.045623 C13.3590816,583.692973 22.2451715,565.95396 25.952774,547.475216 C29.6603764,528.996471 35.5828156,466.16777 39.290418,392.250367 C42.9980205,318.335389 51.1425899,318.335389 60.7774939,300.596377 C70.4099667,282.854939 144.501236,265.853233 154.880092,261.419692 C165.254085,256.983726 177.845346,247.376914 179.260313,239.244714 C180.67528,231.112514 179.260313,192.677987 179.260313,192.677987 C158.449115,173.457085 156.312077,142.041522 156.312077,142.041522 C148.93334,142.533868 148.196682,130.513832 147.948698,126.589615 C147.703146,122.665398 142.78723,105.003996 143.035213,96.1732958 C143.280766,87.3425951 154.179902,90.464021 154.179902,90.464021 C154.179902,20.9073978 190.278578,14 215.497569,14 C240.718991,14 276.817667,20.9073978 276.817667,90.464021 C276.817667,90.464021 287.714371,87.3425951 287.962355,96.1732958 C288.21277,105.003996 283.296854,122.665398 283.04887,126.589615 C282.800886,130.513832 282.061797,142.533868 274.685492,142.041522 C274.685492,142.041522 272.550885,173.457085 251.739687,192.677987 C251.739687,192.677987 250.322289,231.112514 251.739687,239.244714 C253.154654,247.376914 265.743484,256.983726 276.119908,261.419692 C286.493902,265.853233 360.587602,282.854939 370.222506,300.596377 C379.854979,318.335389 387.999548,318.335389 391.707151,392.250367 C395.414753,466.16777 401.337192,528.996471 405.044795,547.475216 C408.752397,565.95396 417.640918,583.692973 416.157877,679.045623 C414.677268,774.395847 422.829131,796.573251 422.829131,796.573251 C422.829131,796.573251 436.169206,863.098186 428.758863,878.618003 C421.34609,894.14267 412.455137,905.228947 408.010877,904.49164 C403.564185,903.751909 405.786315,895.62456 405.786315,895.62456 C405.786315,895.62456 387.267753,907.516052 382.821061,904.528021 C378.374369,901.535138 376.888897,903.751909 373.188588,898.578636 C369.483417,893.405364 376.152239,888.229666 376.152239,888.229666 C376.152239,888.229666 371.705547,886.750203 368.741896,883.053969 C365.775814,879.36016 389.489883,866.054688 389.489883,847.573518 C389.489883,829.097199 385.784712,808.401684 391.712013,786.966438 C397.636884,765.528766 365.036725,704.179528 359.848513,639.131632 C354.662732,574.08616 361.333985,574.821041 356.145773,553.385795 C350.95756,531.952974 328.731395,455.8188 328.731395,429.947588 L328.731395,426.991086 C328.731395,426.991086 322.804094,463.211268 313.16919,474.297545 C303.534286,485.386246 298.346073,556.344722 301.312155,565.214228 C304.278237,574.08616 358.370334,694.567865 357.626383,773.65854 C356.884862,852.749216 321.479082,1000.5816 323.251437,1026.45523 C325.021362,1052.32402 334.661128,1130.67739 335.397786,1194.2434 C336.134444,1257.80941 292.426066,1407.12125 293.906675,1472.90645 C295.387285,1538.68923 320.581964,1580.82242 313.16919,1592.65085 C305.758847,1604.47929 282.054504,1611.8669 273.900209,1611.8669 C273.900209,1611.8669 267.970477,1619.25695 257.598914,1616.30287 C247.227352,1613.34879 244.26127,1588.21004 246.483401,1560.86664 C248.707962,1533.52081 247.968873,1497.2982 242.780661,1481.77839 C237.592448,1466.25372 261.301654,1445.55578 257.598914,1421.1616 C253.893743,1396.77228 262.048037,1377.5538 251.671613,1312.51318 C241.29762,1247.46286 243.529475,1181.67766 250.193434,1149.89344 C256.854963,1118.1068 242.041571,1048.62536 236.111839,1027.93227 C230.182106,1007.23191 215.497569,854.313567 215.497569,854.313567 C215.497569,854.313567 200.815463,1007.23191 194.88573,1027.93227 C188.953566,1048.62536 174.142606,1118.1068 180.806566,1149.89344 C187.470525,1181.67766 189.70238,1247.46286 179.323525,1312.51318 C168.949531,1377.5538 177.101394,1396.77228 173.398654,1421.1616 C169.695914,1445.55578 193.40512,1466.25372 188.216908,1481.77839 C183.028696,1497.2982 182.289607,1533.52081 184.514168,1560.86664 C186.736298,1588.21004 183.772648,1613.34879 173.398654,1616.30287 C163.027092,1619.25695 157.09736,1611.8669 157.09736,1611.8669 C148.943065,1611.8669 125.238722,1604.47929 117.828379,1592.65085 C110.418036,1580.82242 135.610284,1538.68923 137.090893,1472.90645 C138.571503,1407.12125 94.8606934,1257.80941 95.5997826,1194.2434 C96.3388719,1130.67739 105.976207,1052.32402 107.746131,1026.45523 C109.518487,1000.5816 74.1127068,852.749216 73.3711863,773.65854 C72.6296658,694.567865 126.719331,574.08616 129.682982,565.214228 C132.649064,556.344722 127.460852,485.386246 117.828379,474.297545 C108.195906,463.211268 102.268605,426.991086 102.268605,426.991086 L102.268605,429.947588 C102.268605,455.8188 80.0400083,531.952974 74.851796,553.385795 C69.6635838,574.821041 76.3372683,574.08616 71.1466248,639.131632 C65.9608437,704.179528 33.3582541,765.528766 39.2855556,786.966438 C45.2104259,808.401684 41.5101171,829.097199 41.5101171,847.573518 C41.5101171,866.054688 65.2217545,879.36016 62.2556725,883.053969 C59.2920217,886.750203 54.8453299,888.229666 54.8453299,888.229666 C54.8453299,888.229666 61.514152,893.405364 57.8114119,898.578636 C54.1086719,903.751909 52.6231997,901.535138 48.1765079,904.528021 C43.7322474,907.516052 25.2112535,895.62456 25.2112535,895.62456 C25.2112535,895.62456 27.4333837,903.751909 22.9891232,904.49164 C18.5424314,905.228947 9.64904792,894.14267 2.2411366,878.618003 C-5.16920593,863.098186 8.17086936,796.573251 8.17086936,796.573251 C8.17086936,796.573251 16.3203012,774.395847 14.8396914,679.045623 Z" id="Fill-" fill="#EBFAF9"></path>
                <rect id="Rectangle" fill="url(#linearGradient-1)" x="0" y="1276" width="431" height="341"></rect>
                <g id="Collarbone-length" transform="translate(148.000000, 0.000000)" fill="#34CCBF">
                    <path d="M59.5798333,2.63865313 C92.2919733,-6.21216841 129.116045,17.3726782 132.716671,19.75329 L132.957213,19.9136959 C132.988057,19.9344939 133.003653,19.9451432 133.003653,19.9451432 C174.166085,60.604763 167.932778,97.7609583 162.606303,113.191784 C166.122425,114.829936 168.539828,118.234959 168.539828,122.169654 C168.539828,125.489685 166.813553,128.428424 164.16968,130.251186 C166.813553,132.077049 168.539828,135.009588 168.539828,138.332719 C168.539828,139.885787 168.153644,141.348957 167.4902,142.65713 C172.084796,143.773107 175.487834,147.688326 175.487834,152.35373 C175.487834,154.195092 174.946517,155.921756 174.025617,157.406625 C178.854564,158.364505 182.485351,162.388222 182.485351,167.211722 C182.485351,170.138062 181.135359,172.757508 179.009698,174.59267 L179.009698,174.59267 L179.220943,174.58647 C185.112721,174.58647 189.892157,179.075177 189.892157,184.608563 C189.892157,186.772318 189.156098,188.768677 187.918329,190.405443 C192.67136,191.422222 196.216328,195.40254 196.216328,200.173341 C196.216328,203.037682 194.93235,205.616829 192.882606,207.442691 C198.711669,207.520189 203.415189,211.971697 203.415189,217.464784 C203.415189,220.276426 202.184022,222.812173 200.200292,224.634935 C205.200876,225.468818 209,229.560734 209,234.492732 C209,239.117836 205.666277,242.995856 201.140996,244.158332 C204.557237,245.829197 206.890843,249.180228 206.890843,253.055148 C206.890843,258.591634 202.114707,263.080341 196.216328,263.080341 C195.552884,263.080341 194.899343,263.015242 194.268906,262.906744 C196.737841,264.748106 198.315583,267.575248 198.315583,270.761982 C198.315583,276.295368 193.539448,280.787175 187.641069,280.787175 L187.641069,280.787175 L187.310998,280.768575 C187.525544,281.552859 187.641069,282.371242 187.641069,283.214425 C187.641069,288.75711 182.864934,293.242717 176.966555,293.242717 C175.075245,293.242717 173.296159,292.774627 171.758025,291.965544 C171.325632,297.126937 166.734336,301.190953 161.119819,301.190953 C157.116051,301.190953 153.633796,299.110896 151.805199,296.045059 C149.900686,298.807102 146.599971,300.648464 142.837155,300.648464 C136.938776,300.648464 132.156039,296.153557 132.156039,290.620171 C132.156039,289.795589 132.271564,289.005105 132.469607,288.242521 C130.614605,289.72119 128.208383,290.620171 125.577713,290.620171 C119.679334,290.620171 114.903198,286.128364 114.903198,280.585679 C114.903198,279.041911 115.282781,277.581841 115.952826,276.276768 C114.573127,276.887455 113.044896,277.234648 111.427545,277.234648 C105.529166,277.234648 100.746429,272.742841 100.746429,267.206355 C100.746429,263.176439 103.284679,259.71071 106.935271,258.120443 C102.281262,257.038566 98.8188112,253.101647 98.8188112,248.392844 C98.8188112,244.815518 100.815744,241.684583 103.816095,239.90832 C99.3073171,238.733444 96,234.864724 96,230.255119 C96,226.590995 98.1025559,223.391861 101.228334,221.643497 C98.1025559,219.895133 96,216.696 96,213.028775 C96,208.316873 99.4624507,204.373754 104.129663,203.301176 C100.957675,201.562112 98.8188112,198.338179 98.8188112,194.639955 C98.8188112,191.595818 100.261224,188.877175 102.545319,187.035813 C100.261224,185.197551 98.8188112,182.478907 98.8188112,179.43477 C98.8188112,175.829544 100.855353,172.67381 103.898613,170.909946 C100.855353,169.142983 98.8188112,165.990348 98.8188112,162.382022 C98.8188112,159.331685 100.274427,156.600642 102.565123,154.76548 C100.274427,152.921018 98.8188112,150.196174 98.8188112,147.139637 C98.8188112,142.709829 101.881875,138.955807 106.123295,137.629034 C104.928436,136.013967 101.270271,134.294065 103.816095,127.864182 C97.0617193,124.482631 101.270271,117.016769 101.228334,116.749835 C100.791917,113.971989 51.7537099,82.9612071 37.7308443,49.1802338 L37.9936538,49.8061207 C37.5679796,49.9183782 37.1619983,50.0290827 36.7766923,50.1371529 C30.5778977,54.9353951 20.2738655,67.8942471 13.4016208,102.598481 C13.4016208,102.598481 15.6304546,117.382008 12.1198561,121 C12.1198561,121 -27.367514,40.1599548 37.2154874,16.6265767 C46.021506,5.30942933 59.5798333,2.63865313 59.5798333,2.63865313 Z M1.32455454,135.950375 C3.81952627,142.634103 8.31207714,142.041522 8.31207714,142.041522 C11.6809514,176.353601 31.2603131,192.677987 31.2603131,192.677987 L31.2603131,192.677987 L31.8866313,219.549751 C13.3525505,194.229921 5.9427617,165.399007 5.9427617,165.399007 L5.9427617,165.399007 Z" id="Combined-Shape"></path>
                </g>
            </g>
        </g>
    </g>
</svg>