<?xml version="1.0" encoding="UTF-8"?>
<svg width="431px" height="1631px" viewBox="0 0 431 1631" version="1.1" xmlns="http://www.w3.org/2000/svg" xmlns:xlink="http://www.w3.org/1999/xlink">
    <title>Illustration</title>
    <defs>
        <linearGradient x1="52.1120617%" y1="13.9053107%" x2="50%" y2="81.2985503%" id="linearGradient-1">
            <stop stop-color="#FFFFFF" stop-opacity="0" offset="0%"></stop>
            <stop stop-color="#FFFFFF" stop-opacity="0.506009615" offset="37.3155655%"></stop>
            <stop stop-color="#FFFFFF" offset="100%"></stop>
        </linearGradient>
    </defs>
    <g id="Page-1" stroke="none" stroke-width="1" fill="none" fill-rule="evenodd">
        <g id="Quiz_page_q9_8_Armpit-length_1920" transform="translate(-617.000000, -364.000000)">
            <g id="Illustration" transform="translate(617.000000, 364.000000)">
                <path d="M14.8396914,693.045623 C13.3590816,597.692973 22.2451715,579.95396 25.952774,561.475216 C29.6603764,542.996471 35.5828156,480.16777 39.290418,406.250367 C42.9980205,332.335389 51.1425899,332.335389 60.7774939,314.596377 C70.4099667,296.854939 144.501236,279.853233 154.880092,275.419692 C165.254085,270.983726 177.845346,261.376914 179.260313,253.244714 C180.67528,245.112514 179.260313,206.677987 179.260313,206.677987 C158.449115,187.457085 156.312077,156.041522 156.312077,156.041522 C148.93334,156.533868 148.196682,144.513832 147.948698,140.589615 C147.703146,136.665398 142.78723,119.003996 143.035213,110.173296 C143.280766,101.342595 154.179902,104.464021 154.179902,104.464021 C154.179902,34.9073978 190.278578,28 215.497569,28 C240.718991,28 276.817667,34.9073978 276.817667,104.464021 C276.817667,104.464021 287.714371,101.342595 287.962355,110.173296 C288.21277,119.003996 283.296854,136.665398 283.04887,140.589615 C282.800886,144.513832 282.061797,156.533868 274.685492,156.041522 C274.685492,156.041522 272.550885,187.457085 251.739687,206.677987 C251.739687,206.677987 250.322289,245.112514 251.739687,253.244714 C253.154654,261.376914 265.743484,270.983726 276.119908,275.419692 C286.493902,279.853233 360.587602,296.854939 370.222506,314.596377 C379.854979,332.335389 387.999548,332.335389 391.707151,406.250367 C395.414753,480.16777 401.337192,542.996471 405.044795,561.475216 C408.752397,579.95396 417.640918,597.692973 416.157877,693.045623 C414.677268,788.395847 422.829131,810.573251 422.829131,810.573251 C422.829131,810.573251 436.169206,877.098186 428.758863,892.618003 C421.34609,908.14267 412.455137,919.228947 408.010877,918.49164 C403.564185,917.751909 405.786315,909.62456 405.786315,909.62456 C405.786315,909.62456 387.267753,921.516052 382.821061,918.528021 C378.374369,915.535138 376.888897,917.751909 373.188588,912.578636 C369.483417,907.405364 376.152239,902.229666 376.152239,902.229666 C376.152239,902.229666 371.705547,900.750203 368.741896,897.053969 C365.775814,893.36016 389.489883,880.054688 389.489883,861.573518 C389.489883,843.097199 385.784712,822.401684 391.712013,800.966438 C397.636884,779.528766 365.036725,718.179528 359.848513,653.131632 C354.662732,588.08616 361.333985,588.821041 356.145773,567.385795 C350.95756,545.952974 328.731395,469.8188 328.731395,443.947588 L328.731395,440.991086 C328.731395,440.991086 322.804094,477.211268 313.16919,488.297545 C303.534286,499.386246 298.346073,570.344722 301.312155,579.214228 C304.278237,588.08616 358.370334,708.567865 357.626383,787.65854 C356.884862,866.749216 321.479082,1014.5816 323.251437,1040.45523 C325.021362,1066.32402 334.661128,1144.67739 335.397786,1208.2434 C336.134444,1271.80941 292.426066,1421.12125 293.906675,1486.90645 C295.387285,1552.68923 320.581964,1594.82242 313.16919,1606.65085 C305.758847,1618.47929 282.054504,1625.8669 273.900209,1625.8669 C273.900209,1625.8669 267.970477,1633.25695 257.598914,1630.30287 C247.227352,1627.34879 244.26127,1602.21004 246.483401,1574.86664 C248.707962,1547.52081 247.968873,1511.2982 242.780661,1495.77839 C237.592448,1480.25372 261.301654,1459.55578 257.598914,1435.1616 C253.893743,1410.77228 262.048037,1391.5538 251.671613,1326.51318 C241.29762,1261.46286 243.529475,1195.67766 250.193434,1163.89344 C256.854963,1132.1068 242.041571,1062.62536 236.111839,1041.93227 C230.182106,1021.23191 215.497569,868.313567 215.497569,868.313567 C215.497569,868.313567 200.815463,1021.23191 194.88573,1041.93227 C188.953566,1062.62536 174.142606,1132.1068 180.806566,1163.89344 C187.470525,1195.67766 189.70238,1261.46286 179.323525,1326.51318 C168.949531,1391.5538 177.101394,1410.77228 173.398654,1435.1616 C169.695914,1459.55578 193.40512,1480.25372 188.216908,1495.77839 C183.028696,1511.2982 182.289607,1547.52081 184.514168,1574.86664 C186.736298,1602.21004 183.772648,1627.34879 173.398654,1630.30287 C163.027092,1633.25695 157.09736,1625.8669 157.09736,1625.8669 C148.943065,1625.8669 125.238722,1618.47929 117.828379,1606.65085 C110.418036,1594.82242 135.610284,1552.68923 137.090893,1486.90645 C138.571503,1421.12125 94.8606934,1271.80941 95.5997826,1208.2434 C96.3388719,1144.67739 105.976207,1066.32402 107.746131,1040.45523 C109.518487,1014.5816 74.1127068,866.749216 73.3711863,787.65854 C72.6296658,708.567865 126.719331,588.08616 129.682982,579.214228 C132.649064,570.344722 127.460852,499.386246 117.828379,488.297545 C108.195906,477.211268 102.268605,440.991086 102.268605,440.991086 L102.268605,443.947588 C102.268605,469.8188 80.0400083,545.952974 74.851796,567.385795 C69.6635838,588.821041 76.3372683,588.08616 71.1466248,653.131632 C65.9608437,718.179528 33.3582541,779.528766 39.2855556,800.966438 C45.2104259,822.401684 41.5101171,843.097199 41.5101171,861.573518 C41.5101171,880.054688 65.2217545,893.36016 62.2556725,897.053969 C59.2920217,900.750203 54.8453299,902.229666 54.8453299,902.229666 C54.8453299,902.229666 61.514152,907.405364 57.8114119,912.578636 C54.1086719,917.751909 52.6231997,915.535138 48.1765079,918.528021 C43.7322474,921.516052 25.2112535,909.62456 25.2112535,909.62456 C25.2112535,909.62456 27.4333837,917.751909 22.9891232,918.49164 C18.5424314,919.228947 9.64904792,908.14267 2.2411366,892.618003 C-5.16920593,877.098186 8.17086936,810.573251 8.17086936,810.573251 C8.17086936,810.573251 16.3203012,788.395847 14.8396914,693.045623 Z" id="Fill-" fill="#EBFAF9"></path>
                <rect id="Rectangle" fill="url(#linearGradient-1)" x="0" y="1290" width="431" height="341"></rect>
                <path d="M280.591259,152.23169 C280.395965,152.883015 280.384114,153.34513 280.341723,153.569173 C280.311837,153.727128 280.301573,153.871535 280.299531,154.176734 L280.299941,154.567639 C280.301594,154.87852 280.30534,155.30018 280.307169,155.893935 L280.307905,156.205437 C280.307995,156.259839 280.308067,156.315508 280.308119,156.372477 L280.307974,156.921304 C280.306429,158.027977 280.297015,159.541569 280.268331,161.63642 C280.239299,163.75665 280.481401,166.474965 280.819597,169.169439 L280.909886,169.871396 C281.140485,171.62289 281.405481,173.341242 281.656322,174.853937 L281.755788,175.447637 C281.777166,175.57396 281.798389,175.698559 281.819424,175.821321 C284.857518,186.703167 286.065903,196.292242 285.445336,204.588424 C284.555218,216.488142 283.608209,219.159041 283.498703,221.174086 L283.490664,221.370475 C283.458137,222.572219 283.744526,223.63608 284.549424,226.475197 C287.283429,236.141361 294.590464,242.347763 302.046086,248.459087 L303.040661,249.273662 C311.826989,256.469318 320.546657,263.740522 321.971156,276.584387 C322.537135,281.657747 322.510312,287.261321 320.686301,292.087069 C319.044213,296.451287 316.34183,299.932093 312.797914,302.491464 C316.855815,307.269031 319.852407,308.103139 321.420651,314.623762 C323.409261,322.892234 315.179508,330.096634 318.306127,333.425929 C322.883962,338.300514 326.270607,340.174055 326.969821,346.390482 C327.538127,351.413611 327.511193,356.961704 325.679684,361.739672 C323.27179,368.049895 318.593363,372.494765 312.328527,374.957031 C309.845217,375.929679 306.082703,377 302.31783,377 C298.552958,377 290.813619,375.049208 290.143034,373.724336 C291.24848,372.328081 292.390822,371.008341 293.465003,369.740267 L293.841124,369.294817 C297.881406,364.491465 300.744533,360.400694 296.558115,355.633479 C291.147975,349.472771 291.879669,352.365089 271.443841,340.384626 C267.070886,337.82099 268.087135,332.652405 269.518416,327.957647 L269.688416,327.407694 C270.630652,324.39702 271.664985,321.63528 271.443841,319.956558 C270.22506,310.704658 266.35776,307.432644 262.861798,304.107964 L262.467778,303.731036 L262.467778,303.731036 L262.077903,303.351713 C260.463418,301.76351 258.982264,300.062288 257.951385,297.614916 C254.66753,289.818837 253.290492,281.165278 263.881727,268.238179 C257.888825,263.835217 253.570591,259.423417 251.739687,254.232719 C249.623441,248.233062 250.914111,229.109902 251,224.582748 C251.128221,217.824347 251.739687,206.677987 251.739687,206.677987 C253.781642,204.725235 256.08059,202.184613 257.860786,199.90118 C262.330301,194.168197 266.444291,187.273193 269.61282,178.849642 C271.158621,172.911342 272.849666,165.308369 274.685492,156.041522 C274.754165,156.043358 274.819235,156.044858 274.880701,156.046021 C274.880943,156.042859 274.881497,156.044196 274.88205,156.045533 C275.156233,156.051196 275.35758,156.049676 275.487866,156.041522 C276.018854,156.008288 276.416625,155.921752 276.681449,155.846032 C277.742813,155.542563 278.506273,154.929874 278.991839,154.453138 C280.116092,153.349329 280.620104,152.135488 280.591259,152.23169 Z M149.391423,149.9504 C151.665855,156.812708 156.312077,156.041522 156.312077,156.041522 C159.680952,190.353601 179.260313,206.677987 179.260313,206.677987 L179.260313,206.677987 L179.886632,233.549751 C161.352551,208.229921 153.942762,179.399007 153.942762,179.399007 L153.942762,179.399007 Z M208.649233,2.37720576 C243.471269,-8.54720859 267.26517,21.7243361 267.26517,21.7243361 C298.068198,60.0916115 286.073888,96.9675152 283.818266,102.945493 C283.773105,103.556183 283.741817,104.069429 283.741817,104.323674 C282.539258,104.102483 281.490657,104.003758 280.578588,103.99198 C280.375976,103.998829 280.176173,104.00046 279.977412,103.999889 C276.063588,104.116195 274.954576,105.904263 274.954576,105.904263 C227.360372,98.5270648 199.242892,61.0464498 189.493025,45.5590528 C186.61609,47.1325069 161.045641,62.1992321 154.179902,104.464021 L154.147132,104.456255 C153.76948,104.368 150.209889,103.569316 147.756262,104.223108 C147.756262,104.223108 147.744395,104.145021 147.723212,103.993615 L147.708175,104 L147.708175,104 C147.708175,104 125.677792,38.8916382 187.259348,18.0150726 C195.751742,6.90194043 208.649233,2.37720576 208.649233,2.37720576 Z" id="Armpit-length" fill="#34CCBF"></path>
            </g>
        </g>
    </g>
</svg>