<?xml version="1.0" encoding="UTF-8"?>
<svg width="431px" height="1631px" viewBox="0 0 431 1631" version="1.1" xmlns="http://www.w3.org/2000/svg" xmlns:xlink="http://www.w3.org/1999/xlink">
    <title>Illustration</title>
    <defs>
        <linearGradient x1="52.1120617%" y1="13.9053107%" x2="50%" y2="81.2985503%" id="linearGradient-1">
            <stop stop-color="#FFFFFF" stop-opacity="0" offset="0%"></stop>
            <stop stop-color="#FFFFFF" stop-opacity="0.506009615" offset="37.3155655%"></stop>
            <stop stop-color="#FFFFFF" offset="100%"></stop>
        </linearGradient>
    </defs>
    <g id="Page-1" stroke="none" stroke-width="1" fill="none" fill-rule="evenodd">
        <g id="Quiz_page_q9_10_Waist_length_1920-" transform="translate(-617.000000, -364.000000)">
            <g id="Illustration" transform="translate(617.000000, 364.000000)">
                <path d="M14.8396914,693.045623 C13.3590816,597.692973 22.2451715,579.95396 25.952774,561.475216 C29.6603764,542.996471 35.5828156,480.16777 39.290418,406.250367 C42.9980205,332.335389 51.1425899,332.335389 60.7774939,314.596377 C70.4099667,296.854939 144.501236,279.853233 154.880092,275.419692 C165.254085,270.983726 177.845346,261.376914 179.260313,253.244714 C180.67528,245.112514 179.260313,206.677987 179.260313,206.677987 C158.449115,187.457085 156.312077,156.041522 156.312077,156.041522 C148.93334,156.533868 148.196682,144.513832 147.948698,140.589615 C147.703146,136.665398 142.78723,119.003996 143.035213,110.173296 C143.280766,101.342595 154.179902,104.464021 154.179902,104.464021 C154.179902,34.9073978 190.278578,28 215.497569,28 C240.718991,28 276.817667,34.9073978 276.817667,104.464021 C276.817667,104.464021 287.714371,101.342595 287.962355,110.173296 C288.21277,119.003996 283.296854,136.665398 283.04887,140.589615 C282.800886,144.513832 282.061797,156.533868 274.685492,156.041522 C274.685492,156.041522 272.550885,187.457085 251.739687,206.677987 C251.739687,206.677987 250.322289,245.112514 251.739687,253.244714 C253.154654,261.376914 265.743484,270.983726 276.119908,275.419692 C286.493902,279.853233 360.587602,296.854939 370.222506,314.596377 C379.854979,332.335389 387.999548,332.335389 391.707151,406.250367 C395.414753,480.16777 401.337192,542.996471 405.044795,561.475216 C408.752397,579.95396 417.640918,597.692973 416.157877,693.045623 C414.677268,788.395847 422.829131,810.573251 422.829131,810.573251 C422.829131,810.573251 436.169206,877.098186 428.758863,892.618003 C421.34609,908.14267 412.455137,919.228947 408.010877,918.49164 C403.564185,917.751909 405.786315,909.62456 405.786315,909.62456 C405.786315,909.62456 387.267753,921.516052 382.821061,918.528021 C378.374369,915.535138 376.888897,917.751909 373.188588,912.578636 C369.483417,907.405364 376.152239,902.229666 376.152239,902.229666 C376.152239,902.229666 371.705547,900.750203 368.741896,897.053969 C365.775814,893.36016 389.489883,880.054688 389.489883,861.573518 C389.489883,843.097199 385.784712,822.401684 391.712013,800.966438 C397.636884,779.528766 365.036725,718.179528 359.848513,653.131632 C354.662732,588.08616 361.333985,588.821041 356.145773,567.385795 C350.95756,545.952974 328.731395,469.8188 328.731395,443.947588 L328.731395,440.991086 C328.731395,440.991086 322.804094,477.211268 313.16919,488.297545 C303.534286,499.386246 298.346073,570.344722 301.312155,579.214228 C304.278237,588.08616 358.370334,708.567865 357.626383,787.65854 C356.884862,866.749216 321.479082,1014.5816 323.251437,1040.45523 C325.021362,1066.32402 334.661128,1144.67739 335.397786,1208.2434 C336.134444,1271.80941 292.426066,1421.12125 293.906675,1486.90645 C295.387285,1552.68923 320.581964,1594.82242 313.16919,1606.65085 C305.758847,1618.47929 282.054504,1625.8669 273.900209,1625.8669 C273.900209,1625.8669 267.970477,1633.25695 257.598914,1630.30287 C247.227352,1627.34879 244.26127,1602.21004 246.483401,1574.86664 C248.707962,1547.52081 247.968873,1511.2982 242.780661,1495.77839 C237.592448,1480.25372 261.301654,1459.55578 257.598914,1435.1616 C253.893743,1410.77228 262.048037,1391.5538 251.671613,1326.51318 C241.29762,1261.46286 243.529475,1195.67766 250.193434,1163.89344 C256.854963,1132.1068 242.041571,1062.62536 236.111839,1041.93227 C230.182106,1021.23191 215.497569,868.313567 215.497569,868.313567 C215.497569,868.313567 200.815463,1021.23191 194.88573,1041.93227 C188.953566,1062.62536 174.142606,1132.1068 180.806566,1163.89344 C187.470525,1195.67766 189.70238,1261.46286 179.323525,1326.51318 C168.949531,1391.5538 177.101394,1410.77228 173.398654,1435.1616 C169.695914,1459.55578 193.40512,1480.25372 188.216908,1495.77839 C183.028696,1511.2982 182.289607,1547.52081 184.514168,1574.86664 C186.736298,1602.21004 183.772648,1627.34879 173.398654,1630.30287 C163.027092,1633.25695 157.09736,1625.8669 157.09736,1625.8669 C148.943065,1625.8669 125.238722,1618.47929 117.828379,1606.65085 C110.418036,1594.82242 135.610284,1552.68923 137.090893,1486.90645 C138.571503,1421.12125 94.8606934,1271.80941 95.5997826,1208.2434 C96.3388719,1144.67739 105.976207,1066.32402 107.746131,1040.45523 C109.518487,1014.5816 74.1127068,866.749216 73.3711863,787.65854 C72.6296658,708.567865 126.719331,588.08616 129.682982,579.214228 C132.649064,570.344722 127.460852,499.386246 117.828379,488.297545 C108.195906,477.211268 102.268605,440.991086 102.268605,440.991086 L102.268605,443.947588 C102.268605,469.8188 80.0400083,545.952974 74.851796,567.385795 C69.6635838,588.821041 76.3372683,588.08616 71.1466248,653.131632 C65.9608437,718.179528 33.3582541,779.528766 39.2855556,800.966438 C45.2104259,822.401684 41.5101171,843.097199 41.5101171,861.573518 C41.5101171,880.054688 65.2217545,893.36016 62.2556725,897.053969 C59.2920217,900.750203 54.8453299,902.229666 54.8453299,902.229666 C54.8453299,902.229666 61.514152,907.405364 57.8114119,912.578636 C54.1086719,917.751909 52.6231997,915.535138 48.1765079,918.528021 C43.7322474,921.516052 25.2112535,909.62456 25.2112535,909.62456 C25.2112535,909.62456 27.4333837,917.751909 22.9891232,918.49164 C18.5424314,919.228947 9.64904792,908.14267 2.2411366,892.618003 C-5.16920593,877.098186 8.17086936,810.573251 8.17086936,810.573251 C8.17086936,810.573251 16.3203012,788.395847 14.8396914,693.045623 Z" id="Fill-" fill="#EBFAF9"></path>
                <rect id="Rectangle" fill="url(#linearGradient-1)" x="0" y="1290" width="431" height="341"></rect>
                <path d="M280.591259,152.23169 C280.417666,152.810645 280.389013,153.240102 280.355017,153.485741 L280.341724,153.569173 C280.311838,153.727128 280.301574,153.871535 280.299532,154.176734 L280.299942,154.567639 C280.301595,154.87852 280.305341,155.30018 280.30717,155.893935 L280.307906,156.205438 L280.308027,156.287994 L280.308027,156.287994 L280.307975,156.921304 C280.30643,158.027977 280.297016,159.541569 280.268332,161.63642 C280.2393,163.75665 280.481402,166.474965 280.819597,169.169439 L280.909887,169.871396 C281.140486,171.62289 281.405482,173.341242 281.656322,174.853937 L281.755789,175.447637 C281.777167,175.57396 281.79839,175.698559 281.819425,175.821321 C284.857519,186.703167 286.065904,196.292242 285.445337,204.588424 C283.986128,224.096158 293.277808,233.40077 295.45321,241.074059 C298.065703,250.310617 303.050042,254.376901 308.097082,257.938257 L308.801495,258.432383 L309.505328,258.922772 L310.207186,259.412239 C313.850699,261.960937 317.357486,264.586585 319.844447,269.073378 C328.800356,282.967263 336.188603,312.414259 337.492467,327 C337.84127,330.917693 339.635823,336.024089 341.352096,341.243994 L341.682891,342.255426 C343.985884,349.341334 345.964703,356.508265 343.829197,361.08229 C343.228564,362.370232 342.574981,363.646963 341.906967,364.915442 L341.571936,365.549008 L341.23557,366.181281 C341.131977,366.375635 341.028347,366.569818 340.924819,366.76384 L340.614683,367.345433 C336.126251,375.771825 332.097429,383.913619 340.073791,392.657982 C350.458431,404.040156 342.356034,415.026369 343.829197,431.985046 C345.035566,445.949805 364.401281,449.821531 356.47288,459.761102 C347.7035,470.755448 348.933069,484.679074 357.107964,495.247397 C360.431281,499.545828 333.295815,512.617532 340.073791,517.153244 C346.851766,521.688956 350.229379,539.79621 346.851766,545.780184 C338.642897,560.323494 362.578202,563.632566 354.011472,563.919655 C353.664358,564.093253 352.736304,564.108961 351.06414,563.931959 C338.935075,562.648077 319.115575,567.354104 305.281337,552.678425 C308.541758,559.082299 314.855115,564 314.292195,564 C309.458463,564 285.587817,555.966674 278.833924,550.455761 C274.331329,546.781818 271.814415,543.667221 271.283183,541.11197 C271.228644,539.45883 270.902022,540.736455 270.303319,544.944847 C269.916716,547.662346 272.620311,552.657688 275.295951,555.986905 C275.553597,556.307487 275.827852,556.627952 276.108881,556.944423 L276.320769,557.180965 C276.356244,557.220244 276.391787,557.259445 276.427378,557.298561 L276.641348,557.532176 C276.712762,557.609666 276.784215,557.686755 276.855553,557.763382 L277.069073,557.991819 L277.280984,558.217121 L277.471671,558.419141 C277.503239,558.452554 277.534691,558.485835 277.566012,558.518978 L277.752253,558.716138 C277.782993,558.748707 277.813573,558.781127 277.843979,558.813392 L278.02421,559.005075 C280.425972,561.566462 281.494832,563.036122 273.536117,560.379562 C253.770866,553.782068 255.112708,523.176203 254.8753,522.108481 C253.990754,518.130303 249.400972,512.129213 249.849023,508.168988 C250.548237,501.952561 250.297465,498.735323 254.8753,493.860738 C258.001918,490.531443 252.88669,486.892234 254.8753,478.623762 C254.95727,478.282938 255.043142,477.957649 255.132865,477.646521 C253.317485,472.645725 250.838713,465.776787 252.981443,460.253607 C255.287502,454.309429 247.439927,447.507069 249.883693,440.733726 C254.303,428.484807 255.607193,423.130203 255.002457,416.497362 C254.503213,411.021581 251.795466,404.379907 256.463845,394.866379 C266.787054,373.829066 255.002457,377.088863 255.002457,361.739672 C255.002457,354.372061 256.460938,350.889926 257.940968,347.449302 L258.187593,346.87559 C259.706637,343.33194 261.164118,339.606558 261,331.526168 C260.863606,324.810709 261.771315,321.164142 262.408799,317.861139 L262.500008,317.379909 L262.586443,316.901686 C263.354092,312.525957 263.404718,308.290011 259.565537,297.614916 C257.419163,291.64678 251.980256,272.012871 251.427295,253.151392 C249.758958,246.215759 250.918737,228.866107 251.000001,224.582748 C251.128222,217.824347 251.739688,206.677987 251.739688,206.677987 C253.781643,204.725235 256.080591,202.184613 257.860787,199.90118 C262.330302,194.168197 266.444292,187.273193 269.61282,178.849642 C271.158621,172.911342 272.849667,165.308369 274.685493,156.041522 C274.754166,156.043358 274.819236,156.044858 274.880702,156.046021 C274.880944,156.042859 274.881498,156.044196 274.882051,156.045533 L275.037835,156.048073 L275.037835,156.048073 L275.297301,156.048087 C275.372269,156.046984 275.435753,156.044784 275.487867,156.041522 C276.018855,156.008288 276.416626,155.921752 276.68145,155.846032 C277.742814,155.542563 278.506274,154.929874 278.99184,154.453138 C280.116092,153.349329 280.620105,152.135488 280.591259,152.23169 Z M149.391424,149.9504 C151.665856,156.812708 156.312078,156.041522 156.312078,156.041522 C159.647264,190.010481 178.870348,206.3497 179.254476,206.673088 L179.260314,206.677987 L179.886632,233.549751 C161.537892,208.483119 154.092071,179.975275 153.944989,179.407624 L153.942763,179.399007 L149.391424,149.9504 Z M267.265171,21.7243361 C298.068199,60.0916115 286.073889,96.9675152 283.818267,102.945493 C283.773106,103.556183 283.741818,104.069429 283.741818,104.323674 C282.739063,104.139234 281.843357,104.039945 281.044595,104.005215 C280.36275,104.04575 279.689136,104.064475 279.024412,104.06318 C275.880078,104.412071 274.954577,105.904263 274.954577,105.904263 C232.331093,99.2975365 205.328495,68.5470144 193.150148,51.0718797 C189.659773,50.0201174 186.908999,49.1904311 184.897493,48.5837222 C176.479418,54.8742592 159.568551,71.2920519 154.179903,104.464021 L154.147133,104.456255 C153.769481,104.368 150.20989,103.569316 147.756263,104.223108 C147.756263,104.223108 147.744396,104.145021 147.723213,103.993615 L147.708176,104 C147.708176,104 125.677793,38.8916382 187.259349,18.0150726 C195.751742,6.90194043 208.649234,2.37720577 208.649234,2.37720577 C243.47127,-8.54720859 267.265171,21.7243361 267.265171,21.7243361 Z" id="Armpit-length" fill="#34CCBF"></path>
            </g>
        </g>
    </g>
</svg>