<?xml version="1.0" encoding="UTF-8"?>
<svg width="165px" height="165px" viewBox="0 0 165 165" version="1.1" xmlns="http://www.w3.org/2000/svg" xmlns:xlink="http://www.w3.org/1999/xlink">
    <title>Group 2</title>
    <g id="Page-1" stroke="none" stroke-width="1" fill="none" fill-rule="evenodd">
        <g id="Quiz_page_q6_1920-" transform="translate(-1069.000000, -561.000000)">
            <g id="select_answer" transform="translate(405.000000, 561.000000)">
                <g id="Group-2" transform="translate(664.000000, 0.000000)">
                    <rect id="Rectangle" fill="#EBFAF9" x="0" y="0" width="165" height="165" rx="15"></rect>
                    <path d="M95.0177013,142.59218 C89.8700662,148.150288 91.2279716,144.865288 90.9202689,155.467653 C90.8795256,156.84441 90.9348635,158.224815 90.9822959,159.600964 C91.0412824,161.326775 90.2750662,161.635694 87.1737148,160.983194 C83.3517554,160.179883 79.4045256,160.205423 75.5746608,160.971031 C72.4264851,161.599815 71.4492554,161.413126 71.4790527,159.590626 C71.5295256,156.500221 71.4425662,153.407991 71.5118905,150.318194 C71.5532419,148.462248 70.8636473,146.968126 69.6419581,145.666167 C66.4743229,142.290558 55.8141878,135.679815 55.2060797,133.348937 C54.7852689,131.735018 67.0568905,136.036167 69.5866202,136.500761 C70.0056067,136.577991 70.7493229,136.388869 70.8928364,136.09941 C71.0941202,135.695018 71.0053364,135.023667 70.8095256,134.564545 C68.6379716,129.465558 65.6205392,124.971031 61.3364175,121.372856 C60.3908094,120.578058 58.6905392,119.153261 58.2721608,118.25995 C57.3764175,116.346234 65.5122959,121.186775 69.7793905,120.274613 C70.1661473,120.191302 70.355877,119.827045 70.350404,119.432383 C70.3139175,116.993261 63.3918229,110.97664 60.1214175,107.529883 C59.4093229,106.862788 56.5761473,104.446167 56.0677689,103.682383 C55.9643905,103.526707 56.0805392,103.313869 56.2666202,103.316302 C57.0322283,103.324815 58.7774986,103.81191 59.7401337,104.122653 C62.6718229,105.07191 65.574931,106.10691 68.5151337,107.024545 C68.5777689,107.044004 68.6428364,107.057383 68.7085121,107.065288 C69.624931,107.176572 70.3382419,106.221234 70.0572959,105.342518 C70.0274986,105.250085 69.9897959,105.16191 69.9405392,105.080423 C69.1883094,103.831977 68.347904,102.617585 67.4041202,101.506572 C64.2012148,96.444072 54.0196608,88.6736666 53.2802013,87.9354233 C53.0406067,87.6958287 53.165877,87.2829233 53.4997283,87.219072 C53.7970932,87.1625179 53.908377,87.2549503 54.1905392,87.2695449 C57.69385,88.0090044 61.2014175,88.6992071 64.7035121,89.4453558 C66.4274986,89.8120449 68.1599986,90.1513693 69.8985797,90.4396125 C71.1081067,90.6402882 71.7612148,89.9610314 71.3902689,88.8609639 C70.895877,87.3942071 70.1539851,86.0010314 69.4236473,84.6279233 C66.7309446,79.5678558 58.0252689,70.8275179 57.8732419,70.1245449 C57.7394581,69.506099 59.8052013,70.0260314 60.3518905,70.1403558 C68.7048635,71.8917071 71.9357419,71.9871801 70.468377,68.8645449 C70.2306067,68.358599 69.9587824,67.925626 69.6127689,67.5735314 C64.8847283,62.7725179 60.0891878,58.0383963 55.2972959,53.3012341 C54.7262824,52.7369098 54.0336473,52.2972476 53.41885,51.7742747 C53.1634446,51.5571801 52.9122959,51.3352206 52.6714851,51.0938017 C52.2719581,50.6918422 52.6234446,50.0034639 53.1822959,50.0971125 C59.0657419,51.0871125 64.7503364,52.8342071 70.7699986,54.234072 C71.1816878,54.3295449 71.5283094,53.8990044 71.3452689,53.5183287 C67.7033094,45.9413017 63.1534446,39.2654909 57.9869581,32.9539368 C57.8343229,32.7666395 58.0270932,32.4960314 58.250877,32.5866395 C61.8989175,34.0710314 65.0957419,36.4487341 68.7948635,37.9081936 C69.3561473,38.1295449 69.9064851,37.5396801 69.6462148,36.9948152 C65.9057419,29.1648152 57.2894581,17.6569774 56.0355392,15.1509639 C55.8117554,14.7021801 57.2079716,14.8250179 58.2204716,15.1467071 C61.2087148,16.0977882 64.1647283,17.1546801 67.1620932,18.0717071 C67.734931,18.2468422 68.9712148,18.7777206 69.332431,18.2073152 C70.7645256,15.9457612 59.85385,5.70218007 59.9572283,4.98704494 C60.0709446,4.20197737 90.7810121,4.54555845 101.32135,4.78454494 C101.840674,4.79609899 97.9895256,10.1182612 96.2600662,12.0946125 C95.1575662,13.3540044 93.2699986,16.5033963 95.92135,16.1002206 C95.9280392,16.0996125 95.9341202,16.096572 95.9408094,16.0947476 C99.7165527,14.9679233 103.460066,13.7328558 107.219391,12.5506936 C107.302701,12.5245449 107.387228,12.502653 107.47358,12.4874503 C108.011755,12.3907612 108.390607,13.0183287 108.051282,13.4458287 C107.902904,13.6325179 107.748445,13.8119098 107.577566,13.9736666 C103.678985,17.6654909 100.879255,22.1782612 98.0691878,26.6800855 C96.5695932,29.0815044 92.0981743,35.5444774 95.1204716,35.8552206 C95.1922283,35.8625179 95.2548635,35.8053558 95.3174986,35.7719098 C98.5301337,34.0552206 101.676485,32.2132612 104.856891,30.435153 C105.351891,30.1584639 106.907431,29.1155585 106.996823,29.6154233 C107.044863,29.8848152 106.030539,30.8444098 105.68635,31.1806936 C101.669188,35.1060314 98.6924986,39.8030585 95.8222283,44.5675855 C94.678377,46.466099 93.7011473,48.468599 92.7050662,50.4528558 C92.1535121,51.5529233 92.664931,52.0163017 93.778377,51.7870449 C96.7441202,51.1765044 99.7165527,50.5842071 102.653715,49.8520449 C105.102566,49.2415044 111.133174,46.8072476 111.614796,47.5673828 C111.856215,47.9492747 110.191823,49.3509639 109.637836,49.8891395 C104.377093,55.0021125 100.294863,59.167653 95.0815527,64.3286666 C94.7033094,64.7032612 90.1722959,68.4838693 91.0844581,70.2066395 C91.6968229,71.362653 95.3412148,69.0415044 104.803377,67.3108287 C105.508174,67.1819098 109.315539,66.1718422 105.936891,68.229072 C99.5943229,72.757653 95.6440527,79.1549503 92.1498635,85.908599 C92.0331067,86.1342071 91.9285121,86.3677206 91.8579716,86.6121801 C91.4219581,88.1202882 91.9090527,88.7454233 93.4864851,88.4675179 C96.2655392,87.978599 99.0281743,87.3869098 101.784728,86.7800179 C104.054796,86.280153 110.228309,84.2508963 109.372093,85.5364368 C108.725066,86.5081936 107.626823,87.7773152 106.807701,88.5933963 C103.336012,92.0498828 99.7925662,95.4406936 96.4698635,99.0352206 C95.0906743,100.52691 91.1969581,103.527315 92.4089175,105.667248 C93.5777013,107.731167 101.69108,102.521504 106.700066,101.607518 C106.812566,101.586842 106.88858,101.711504 106.832634,101.810626 C106.570539,102.269748 101.483107,107.03245 99.3389175,109.100018 C96.8189175,111.530018 92.1741878,116.835153 92.8978364,118.169342 C93.4402689,119.170896 99.9902013,116.917248 104.348512,115.562383 C105.247296,115.282653 105.529458,115.677923 105.007093,116.460558 C102.745539,119.846504 88.5510797,136.643058 93.0608094,135.071707 C94.903377,134.430153 103.768985,132.234275 107.483918,131.481437 C108.848512,131.316031 109.268107,131.29414 110.172972,131.264342 C110.453309,131.254613 110.577972,131.614613 110.349323,131.776977 C109.146485,132.628329 98.5909446,138.175491 95.0177013,142.59218" id="Fill-1" fill="#595A5A"></path>
                </g>
            </g>
        </g>
    </g>
</svg>