<?xml version="1.0" encoding="UTF-8"?>
<svg width="165px" height="165px" viewBox="0 0 165 165" version="1.1" xmlns="http://www.w3.org/2000/svg" xmlns:xlink="http://www.w3.org/1999/xlink">
    <title>Group</title>
    <g id="Page-1" stroke="none" stroke-width="1" fill="none" fill-rule="evenodd">
        <g id="Quiz_page_q6_1920-" transform="translate(-405.000000, -561.000000)">
            <g id="Group" transform="translate(405.000000, 561.000000)">
                <rect id="Rectangle-" fill="#EBFAF9" x="0" y="0" width="165" height="165" rx="15"></rect>
                <path d="M70.5,115.021033 C72.9987162,114.522384 73.2206757,114.414141 72.9318243,112.144073 C72.6332432,109.797992 71.9266216,107.507249 71.5386486,105.168465 C71.4334459,104.532384 71.8195946,103.809343 72.0050676,103.132519 C72.2738514,102.149816 72.9008108,101.125154 72.7712838,100.204479 C72.5432432,98.5808299 71.9831757,96.9687353 71.3367568,95.4478569 C70.3899324,93.2215731 70.5012162,92.9217758 72.1218243,91.1290731 C72.7147297,90.4729244 72.8819595,89.1916407 72.8071622,88.2296136 C72.7037838,86.8893434 72.2063514,85.576438 71.8475676,84.260492 C71.4772297,82.9025866 71.3258108,81.7313704 72.4489865,80.4677217 C73.0066216,79.8401542 72.9324324,78.4597488 72.8083784,77.4618434 C72.6028378,75.817519 72.0445946,74.2188028 71.7989189,72.5763028 C71.6888514,71.8386677 71.709527,70.805492 72.1388514,70.321438 C72.9902027,69.3618434 72.9993243,68.4466407 72.6800676,67.3775866 C72.1315541,65.5398839 71.5678378,63.7070461 71.0284459,61.8663028 C70.8758108,61.3463704 70.7858108,60.8081947 70.6702703,60.2900866 C73.0899324,59.5530596 73.2322297,59.4758299 72.9312162,56.9643434 C72.6739865,54.818938 72.102973,52.7130596 71.7794595,50.5737353 C71.675473,49.8811001 71.675473,48.9646812 72.0452027,48.4490055 C73.11,46.960965 73.1276351,45.4394785 72.6235135,43.8249515 C72.0506757,41.9908974 71.4328378,40.171438 70.8198649,38.3507623 C70.5431757,37.5310326 70.5887838,36.9478569 71.5112838,36.4917758 C71.9393919,36.2801542 72.3924324,35.5595461 72.3675,35.0949515 C72.2872297,33.595965 72.0166216,32.1042758 71.7672973,30.6186677 C71.5556757,29.360492 71.4,28.2707623 72.3693243,27.0740055 C72.9439865,26.3637353 72.9233108,24.9796812 72.8029054,23.9416407 C72.6125676,22.2967082 72.0269595,20.7010326 71.7867568,19.0585326 C71.6791216,18.3281947 71.7581757,17.3278569 72.1875,16.8127893 C73.002973,15.8355596 72.9829054,14.9081947 72.6679054,13.8452217 C72.0518919,11.7630596 71.4297973,9.68272175 70.8192568,7.59934337 C70.7365541,7.3171812 70.7055405,7.01981634 70.6289189,6.61542445 C71.7575676,6.36366769 73.0376351,6.35272175 73.2200676,4.81116769 C73.2370946,4.66643796 73.9218243,4.51380283 74.297027,4.51258661 C80.0734459,4.49495147 85.850473,4.49555958 91.6268919,4.51623526 C92.0020946,4.51745147 92.4551351,4.6171812 92.7360811,4.84096499 C93.5156757,5.46366769 94.2229054,6.17637039 95.210473,7.0842758 C94.7148649,8.80765418 94.0654054,10.972519 93.4767568,13.1544109 C93.185473,14.235019 92.5682432,15.466438 94.3797973,15.9456272 C94.5512838,15.9912353 94.6729054,16.7404244 94.5968919,17.1180596 C94.1681757,19.2482623 93.6488514,21.3602217 93.2061486,23.487992 C92.9391892,24.7723163 92.5013514,26.1308299 94.4162838,26.6817758 C94.6449324,26.7474515 94.7683784,27.7210326 94.6856757,28.2330596 C94.3579054,30.2726542 93.8282432,32.2842758 93.5922973,34.3317758 C93.5071622,35.070019 93.8695946,36.0046812 94.3287162,36.6273839 C95.0134459,37.5577893 95.1125676,38.4194785 94.7878378,39.4660326 C94.1882432,41.397992 93.6032432,43.3372488 93.0991216,45.2953569 C92.8437162,46.2871812 92.7464189,47.2808299 93.9857432,47.8938028 C94.2922297,48.0452217 94.4625,48.8582623 94.3913514,49.3204244 C94.0976351,51.2128569 93.6865541,53.0870461 93.3186486,54.9679244 C93.2025,55.5638704 93.0370946,56.1549515 92.9744595,56.7569785 C92.7220946,59.1973163 92.8814189,59.4283974 95.3351351,60.135019 C95.0085811,61.2630596 94.6789865,62.3953569 94.3536486,63.5294785 C94.0191892,64.6952217 93.6616216,65.8548839 93.365473,67.0303569 C93.1246622,67.9869109 92.9002703,68.9538028 94.2660811,69.3569785 C94.4813514,69.4208299 94.715473,70.0119109 94.659527,70.3056272 C94.2885811,72.2394109 93.8252027,74.1561677 93.4238514,76.0850866 C93.2493243,76.9230596 93.0316216,77.7811001 93.0632432,78.6215055 C93.0790541,79.0429244 93.534527,79.6948163 93.9200676,79.8091407 C95.064527,80.1478569 94.962973,80.8161677 94.727027,81.6930596 C94.175473,83.7436001 93.6713514,85.807519 93.1550676,87.8671812 C92.7677027,89.4148163 92.8893243,90.7678569 94.4472973,91.6915731 C95.3156757,92.2060326 95.4147973,92.9473163 95.0158784,93.918465 C94.3275,95.5944109 93.7345946,97.315965 93.2128378,99.0521136 C92.7902027,100.45806 93.0243243,101.669411 93.9322297,103.020019 C94.5263514,103.904208 94.2490541,105.495019 94.0891216,106.733735 C93.9018243,108.179816 93.354527,109.575424 93.0760135,111.014208 C92.5585135,113.686235 92.8382432,114.158127 95.3521622,115.086708 C94.9830405,116.269479 94.5433784,117.446168 94.2551351,118.659343 C93.9310135,120.027587 93.7139189,121.424411 93.5162838,122.817587 C93.4627703,123.192181 93.5077703,123.781438 93.7449324,123.963262 C95.402027,125.234208 94.3962162,126.719208 94.1292568,128.116033 C93.9018243,129.3061 93.4810135,130.459073 93.2383784,131.647316 C92.9574324,133.025897 92.9264189,134.332722 94.2721622,135.342789 C94.6333784,135.613397 94.8012162,136.429479 94.7227703,136.944546 C94.4886486,138.489749 94.197973,140.042857 93.7339865,141.532114 C92.3852027,145.855762 93.0893919,150.287046 92.9252027,154.670897 C92.8662162,156.239816 92.8947973,157.812992 92.9179054,159.383127 C92.9300676,160.242384 92.6412162,160.708195 91.6986486,160.705772 C86.1247297,160.688735 80.5508108,160.711235 74.9768919,160.68387 C73.4943243,160.676573 72.9829054,159.738262 72.9877703,158.367587 C73.0005405,154.516438 73.1197297,150.659208 72.9403378,146.816573 C72.8308784,144.465627 72.3024324,142.125627 71.8615541,139.800222 C71.5575,138.196641 71.1567568,136.746303 72.4015541,135.218735 C72.9555405,134.540087 72.8868243,133.196776 72.7889189,132.1861 C72.6685135,130.940695 72.2239865,129.726911 71.9162838,128.500965 C71.5866892,127.190492 71.574527,126.003465 72.3717568,124.743465 C73.6761486,122.684411 72.3614189,120.757316 71.7192568,118.8211 C71.3118243,117.59333 70.9281081,116.357654 70.5,115.021033" id="Fill-6" fill="#595A5A"></path>
            </g>
        </g>
    </g>
</svg>