<?xml version="1.0" encoding="UTF-8"?>
<svg width="165px" height="165px" viewBox="0 0 165 165" version="1.1" xmlns="http://www.w3.org/2000/svg" xmlns:xlink="http://www.w3.org/1999/xlink">
    <title>Group 8</title>
    <g id="Page-1" stroke="none" stroke-width="1" fill="none" fill-rule="evenodd">
        <g id="Quiz_page_q6_1920-" transform="translate(-724.000000, -561.000000)">
            <g id="select_answer" transform="translate(405.000000, 561.000000)">
                <g id="Group-8" transform="translate(319.000000, 0.000000)">
                    <rect id="Rectangle" fill="#EBFAF9" x="0" y="0" width="165" height="165" rx="15"></rect>
                    <path d="M96.337245,78.6762162 C96.8675153,78.3624324 97.535218,78.759527 97.5230558,79.3755405 C97.5060288,80.2530405 97.4926504,80.9888514 97.3533937,81.6991216 C96.3104883,86.9939189 95.1915693,92.2735135 94.1018396,97.5591892 C93.6950153,99.5306757 93.102718,101.488176 92.9373126,103.480338 C92.7305558,105.971149 93.4359612,106.361554 95.7759612,105.566149 C96.1602855,105.435405 96.5658937,105.369122 97.0298801,105.303446 C97.5783937,105.225608 98.0332585,105.727297 97.9073801,106.267297 C97.4786639,108.105608 97.1058937,109.737162 96.7002855,111.360811 C95.4889342,116.210473 94.250218,121.052838 93.0419072,125.9025 C92.9336639,126.337297 92.9573801,126.806757 92.9360964,127.261622 C92.8783261,128.466892 93.2650828,128.998986 94.6394072,128.764865 C96.8954883,128.379932 97.3260288,128.956419 96.7434612,131.254459 C95.9358937,134.437905 95.1903531,137.639595 94.2848801,140.795068 C92.4854883,147.061014 91.8238666,153.427297 92.2173126,159.929189 C92.3425828,162.009527 92.2312991,162.022905 90.1296774,162.024122 C85.0629207,162.026635 79.9955558,162.026635 74.928191,162.024122 C72.6879207,162.022297 72.6818396,162.015608 72.678191,159.701757 C72.672718,156.154662 72.8058937,152.601486 72.6301504,149.063514 C72.5164342,146.764865 72.0548801,144.467432 71.5781234,142.205878 C70.6945423,138.011757 69.3110964,133.908243 68.774745,129.655743 C68.6871774,128.961284 69.0173801,128.670608 69.4175153,128.591554 C69.8036639,128.515541 70.529745,128.741149 70.9639342,128.85973 C72.0925828,129.169865 72.7329207,128.670608 72.6295423,127.596081 C72.4312991,125.543716 72.194745,123.476757 71.7301504,121.472432 C70.6465018,116.801554 69.4029207,112.168378 68.257245,107.512703 C67.869272,105.93527 68.8404207,105.068716 70.3619072,105.561892 C72.2944747,106.187027 72.8119747,105.891486 72.6356234,103.823311 C72.4349477,101.470541 71.9983261,99.1335811 71.5720423,96.8057432 C71.109272,94.2766216 70.4804883,91.7779054 70.0323126,89.2469595 C69.5050828,86.2739189 68.9906234,83.2923649 68.6719747,80.2931757 C68.4700828,78.3910135 68.7412991,78.3417568 70.4531234,79.1985811 C70.765691,79.3548649 71.131772,79.4022973 71.5063666,79.434527 C71.9369072,79.4710135 72.3133261,79.1511486 72.3565018,78.7218243 C72.3948126,78.3435811 72.4148801,77.9714189 72.3035964,77.6442568 C70.507245,72.3895946 68.6409612,67.1580405 66.8087315,61.9149324 C66.5089342,61.0556757 66.1805558,60.1891216 66.0346099,59.2976351 C65.8029207,57.8801351 66.760691,57.0865541 68.1228531,57.5183108 C69.0362315,57.8071622 69.9070423,58.2310135 70.8198126,58.5229054 C71.221772,58.6518243 71.874272,58.790473 72.0676504,58.5910135 C72.3540693,58.295473 72.5109612,57.6593919 72.4124477,57.2422297 C71.7155558,54.2916892 70.9031234,51.3691216 70.2001504,48.4204054 C69.6279207,46.0208108 69.123191,43.6035811 68.6561639,41.1814865 C68.4573126,40.1501351 68.8848126,39.6131757 70.0663666,39.597973 C72.7724477,39.5633108 73.2388666,38.9649324 72.4714342,36.1420946 C71.5848126,32.8777703 70.473191,29.675473 69.4874477,26.4379054 C68.8623126,24.3867568 68.2730558,22.3246622 67.6162991,20.067973 C67.4685288,19.562027 67.8510288,19.0548649 68.3776504,19.055473 C69.2308261,19.0566892 69.9800153,19.0579054 70.7298126,19.0536486 C72.5565693,19.0439189 72.9579207,18.5464865 72.3534612,16.8644595 C71.1743396,13.5831081 69.9368396,10.3212162 68.7309612,7.04898649 C68.729745,7.04655405 68.7285288,7.04351351 68.7279207,7.04108108 C68.5430558,6.53391892 68.9365018,6 69.4765018,6 L96.376772,6 C96.8954883,6 97.2731234,6.49135135 97.1399477,6.99243243 C97.0079883,7.49047297 96.8742045,7.97148649 96.6948126,8.43486486 C95.7248801,10.9378378 94.6910964,13.4164865 93.710218,15.9152027 C93.6913666,15.9626351 93.676772,16.0143243 93.6664342,16.0635811 C93.2352855,18.2418243 93.5265693,18.8237838 95.431772,19.0080405 C98.5829883,19.3133108 98.6127855,19.3260811 97.6452855,22.3860811 C96.1432585,27.1390541 94.5925828,31.8780405 93.0735288,36.6261486 C93.0437315,36.7173649 93.0206234,36.8152703 93.0054207,36.909527 C92.635691,39.1978378 92.810218,39.5991892 94.7835288,39.6216892 C97.839272,39.6569595 97.8830558,39.6867568 97.1545423,42.5691892 C96.0283261,47.0266216 94.8370423,51.467027 93.7436639,55.9317568 C93.5776504,56.6104054 93.5253531,57.7743243 93.8883937,58.0181757 C94.4241369,58.3787838 95.4238666,58.2772297 96.145691,58.0783784 C97.2110964,57.7852703 98.1518396,57.0567568 99.2087315,56.6931081 C99.768191,56.5003378 100.330691,56.9819595 100.242515,57.5663514 C100.057042,58.7862162 99.7633261,60.0085135 99.3601504,61.1785135 C97.5662315,66.3833108 95.7291369,71.5729054 93.9108937,76.7691892 C93.7935288,77.1030405 93.5515018,77.8060135 93.5630558,78.1398649 C93.5819072,78.6616216 93.5721774,78.9644595 93.8859612,79.2101351 C94.1754207,79.4369595 94.9677855,79.305 95.4421099,79.1280405 C95.7346099,79.0191892 96.010691,78.8689865 96.337245,78.6762162" id="Fill-4" fill="#595A5A"></path>
                </g>
            </g>
        </g>
    </g>
</svg>