<?xml version="1.0" encoding="UTF-8"?>
<svg width="122px" height="122px" viewBox="0 0 122 122" version="1.1" xmlns="http://www.w3.org/2000/svg" xmlns:xlink="http://www.w3.org/1999/xlink">
    <title>Bald</title>
    <g id="Page-1" stroke="none" stroke-width="1" fill="none" fill-rule="evenodd">
        <g id="Hair-lenght-states" transform="translate(-494.000000, -342.000000)">
            <g id="Bald" transform="translate(495.000000, 343.000000)">
                <path d="M78.9704217,34.7383597 C78.9704217,34.7383597 82.4958261,33.7284866 82.5760561,36.585478 C82.6570728,39.4424694 81.0666293,45.1564522 80.9863992,46.4260518 C80.9061691,47.6956514 80.667052,51.5844867 78.2806002,51.4251983 C78.2806002,51.4251983 77.5899922,61.589057 70.8569575,67.807584 C70.8569575,67.807584 70.7309522,71.2243769 70.6770951,74.8548041 L70.6694053,75.4145848 C70.6682274,75.5080185 70.6671037,75.6014847 70.6660374,75.6949293 L70.6593992,76.3666119 C70.6362618,79.157518 70.6720503,81.8124003 70.8569575,82.8732898 C71.314741,85.5042956 75.3875977,88.6123821 78.7446762,90.0475475 C81.4418693,91.2002487 97.452559,94.9789229 105.254585,99.3974848 C94.2536993,112.022096 78.0585193,120 60,120 L60.219411,119.998 L59.7796243,119.999604 C41.5075702,119.933904 25.1603089,111.700634 14.198411,98.7603647 C22.331166,94.6189665 36.9523005,91.1444055 39.5200297,90.0475475 C42.8763216,88.6123821 46.9499649,85.5042956 47.4077483,82.8732898 C47.5554204,82.0245782 47.6078202,80.1557112 47.6110472,78.013169 L47.6105862,77.3629425 C47.6096642,77.0344706 47.6077395,76.7015207 47.6049678,76.3666119 L47.598341,75.6949293 L47.5949789,75.4145848 L47.5949789,75.4145848 L47.5873023,74.8548041 L47.5873023,74.8548041 L47.5784893,74.2983943 C47.5209669,70.8829222 47.4077483,67.807584 47.4077483,67.807584 C40.6747136,61.589057 39.9833191,51.4251983 39.9833191,51.4251983 C37.5960807,51.5844867 37.3577502,47.6956514 37.2775201,46.4260518 C37.1980766,45.1564522 35.6076331,39.4424694 35.6878632,36.585478 C35.7673067,33.7284866 39.2934976,34.7383597 39.2934976,34.7383597 C39.2934976,12.4597825 50.7400694,10.0467218 58.885753,10.0006885 L59.1315664,10 C67.2914381,10 78.9704217,12.2347464 78.9704217,34.7383597 Z" id="Combined-Shape" fill="#EBFAF9"></path>
                <path d="M73.3466211,15.003725 L73.3865848,15.0526191 C73.7874885,15.5297012 74.0815732,15.9229487 74.3268837,16.1638714 C77.7950225,20.436609 79.2159516,29.2544154 78.9704217,34.7383597 C78.313311,35.0859729 77.7566386,35.6829902 77.3004046,36.5294118 C77.3004046,36.5294118 77.4250063,33.4733622 76.9898587,32.2510003 C76.5547111,31.0286385 75.7469084,29.7590062 75.7469084,29.7590062 C75.7469084,29.7590062 74.6965463,24.5354287 72.9161043,21.3382144 C71.2944701,18.426178 69.080807,17.5367189 66.2365371,17.1108237 C66.2365371,17.1108237 64.3713449,17.2987456 63.6877606,18.0043224 L63.6877606,18.0043224 L63.6662477,18.0156051 C63.4654525,18.1184617 61.8589138,18.8898859 58.841686,18.8898859 C55.6089418,18.8898859 54.1509353,18.0043224 54.1509353,18.0043224 C53.4669676,17.2987456 51.6021589,17.1108237 51.6021589,17.1108237 C45.6350775,18.0043224 43.6151982,22.6584204 43.6151982,22.6584204 C42.744903,24.9152223 42.0917875,29.7590062 42.0917875,29.7590062 C42.0917875,29.7590062 41.7741548,31.1882591 41.4307681,32.7333974 L41.2481732,33.5550206 C40.9047865,35.1001589 40.5871538,36.5294118 40.5871538,36.5294118 C40.1311753,35.6829902 39.6999566,35.0859729 39.2934976,34.7383597 C39.2934976,31.89025 39.4827689,29.2589472 39.8613114,26.8444513 C42.3707128,11.8665958 51.9035417,10.0410127 58.9700911,10.0007 L59.2176928,10 C63.700819,10 69.2385266,10.6760277 73.3466211,15.003725 Z" fill="#34CCBF" opacity="0.3"></path>
                <circle id="Oval" stroke="#A7ADAD" cx="60" cy="60" r="60"></circle>
            </g>
        </g>
    </g>
</svg>