<?xml version="1.0" encoding="UTF-8"?>
<svg width="122px" height="122px" viewBox="0 0 122 122" version="1.1" xmlns="http://www.w3.org/2000/svg" xmlns:xlink="http://www.w3.org/1999/xlink">
    <title>Hip length</title>
    <g id="Page-1" stroke="none" stroke-width="1" fill="none" fill-rule="evenodd">
        <g id="Hair-lenght-states" transform="translate(-933.000000, -642.000000)">
            <g id="Hip-length" transform="translate(934.000000, 643.000000)">
                <g id="Illustration" transform="translate(35.000000, 10.000000)">
                    <path d="M31.718691,11.9698357 L31.7505334,11.9615954 C31.9454486,11.9141313 32.9699779,11.7085391 32.9956865,12.6240235 C33.0243799,13.6358746 32.4610979,15.6595768 32.4326831,16.1092267 C32.4042682,16.5588765 32.3195809,17.9361724 31.4743793,17.8797577 C31.4743793,17.8797577 31.2297889,21.4794577 28.8451725,23.6818527 C28.8451725,23.6818527 28.781731,25.4021481 28.7738008,26.9198634 L28.773206,27.3671777 C28.7753868,28.096163 28.7944193,28.7264314 28.8451725,29.0176235 C29.0073041,29.949438 30.4497742,31.0502187 31.6387395,31.5585064 C32.8274262,32.0665163 41.3173294,34.0146284 42.4213288,36.0475015 C42.5660791,36.3140714 42.707897,36.5456812 42.8460204,36.7660205 L42.9489082,36.9295318 C42.9829653,36.983578 43.0167796,37.0372898 43.0503391,37.0910376 L43.1502417,37.2527586 L43.1502417,37.2527586 L43.2485444,37.4169157 C43.9796365,38.6627822 44.5697122,40.3015851 44.883111,46.5495212 C45.3079405,55.0192237 45.9865533,62.2183457 46.4113827,64.3357018 C46.8362122,66.453058 47.8546886,68.4856531 47.6847568,79.4114776 C47.6729753,80.1701961 47.6665166,80.8884806 47.6646981,81.5682881 L47.6646996,82.3657133 C47.6878989,90.8071193 48.4491712,92.878185 48.4491712,92.878185 C48.4491712,92.878185 49.9777215,100.500834 49.1286198,102.279146 C48.2792394,104.058014 47.2604845,105.328317 46.7512463,105.243834 C46.2417295,105.159073 46.4963486,104.227814 46.4963486,104.227814 C46.4963486,104.227814 44.37443,105.590381 43.8649132,105.248002 C43.3553965,104.905068 43.1851861,105.159073 42.7611924,104.566302 C42.3366415,103.973531 43.1007774,103.380483 43.1007774,103.380483 C43.1007774,103.380483 42.5912606,103.210961 42.2516756,102.787434 C41.9118121,102.364185 44.6290491,100.8396 44.6290491,98.7219656 C44.6290491,96.6048874 44.2044982,94.2335263 44.8836682,91.7774043 C45.5625596,89.3210044 41.8271247,82.2914043 41.2326421,74.8379994 C40.840043,69.913612 41.0405397,68.2795969 41.0503182,67.0292504 L41.0501084,66.8293955 C41.0440757,66.2700672 40.9888377,65.7585641 40.8083698,65.0129556 C40.2138871,62.5571115 37.667139,53.8334042 37.667139,50.8689944 L37.667139,50.5302286 C37.667139,50.5302286 36.9879691,54.6804578 35.8839697,55.9507603 C34.7799702,57.2213407 34.1854876,65.3519994 34.5253511,66.368297 C34.8652147,67.3848725 41.0632675,81.1900679 40.978023,90.2525411 C40.9320007,95.1612904 39.7206411,102.380987 38.6521457,108.439104 C34.2668685,109.46041 29.6964482,110 25,110 L25.7763438,109.993904 C25.2036737,104.818133 24.6924298,99.4942629 24.6924298,99.4942629 C24.6924298,99.4942629 24.1820615,104.809894 23.6100058,109.981885 C19.1724564,109.883281 14.854668,109.300761 10.7060523,108.28687 C9.64421113,102.259756 8.45275052,95.1200217 8.40711509,90.2525411 C8.3221492,81.1900679 14.5199234,67.3848725 14.8595084,66.368297 C15.1993719,65.3519994 14.6048893,57.2213407 13.5011684,55.9507603 C12.3974476,54.6804578 11.7182776,50.5302286 11.7182776,50.5302286 L11.7182776,50.8689944 C11.7182776,53.8334042 9.17125095,62.5571115 8.5767683,65.0129556 C8.40691611,65.7147048 8.34801704,66.2090803 8.3366628,66.7311296 L8.33450979,66.9286544 C8.33396499,67.5611648 8.38928889,68.2741313 8.3943005,69.4611551 L8.39408683,69.8522219 C8.38804112,71.0074941 8.33276994,72.5754431 8.15221742,74.8379994 C7.55801335,82.2914043 3.82229995,89.3210044 4.50146991,91.7774043 C5.1803613,94.2335263 4.75636758,96.6048874 4.75636758,98.7219656 C4.75636758,100.8396 7.47332603,102.364185 7.13346247,102.787434 C6.79387749,103.210961 6.28436072,103.380483 6.28436072,103.380483 C6.28436072,103.380483 7.04849658,103.973531 6.62422428,104.566302 C6.19995199,105.159073 6.02974163,104.905068 5.52022486,105.248002 C5.01098668,105.590381 2.88878946,104.227814 2.88878946,104.227814 C2.88878946,104.227814 3.14340855,105.159073 2.63417037,105.243834 C2.1246536,105.328317 1.10562007,104.058014 0.256796902,102.279146 C-0.592304846,100.500834 0.936245447,92.878185 0.936245447,92.878185 C0.936245447,92.878185 1.00127204,92.7012253 1.093888,92.2399277 L1.12400857,92.0846779 C1.35097778,90.8750301 1.70477163,88.0798958 1.72044588,82.3657133 L1.72044383,81.5682881 C1.71862287,80.8884806 1.71216278,80.1701961 1.7003813,79.4114776 C1.5481924,69.6103704 2.35188446,66.965774 2.8256375,64.9966903 L2.87112681,64.80496 C2.90807234,64.6466195 2.94251789,64.4913898 2.97375535,64.3357018 C3.3985848,62.2183457 4.07719762,55.0192237 4.50202707,46.5495212 C4.92685652,38.0800967 5.86008843,38.0800967 6.96408784,36.0475015 C8.06780869,34.0146284 16.5574333,32.0665163 17.7466772,31.5585064 C18.9353639,31.0502187 20.3781126,29.949438 20.5402442,29.0176235 C20.7023758,28.0858089 20.5402442,23.6818527 20.5402442,23.6818527 C18.1556277,21.4794577 17.9107588,17.8797577 17.9107588,17.8797577 C17.0652786,17.9361724 16.9808699,16.5588765 16.952455,16.1092267 C16.9243188,15.6595768 16.3610367,13.6358746 16.3894515,12.6240235 C16.4149081,11.7085391 17.4396414,11.9141313 17.6345978,11.9615954 L17.6664471,11.9698357 L17.6664471,11.9698357 C17.6664471,4.12242184 21.6764618,3.23438541 24.5581945,3.20891858 L24.6924298,3.20833333 C27.5823843,3.20833333 31.718691,3.999806 31.718691,11.9698357 Z" id="Combined-Shape" fill="#EBFAF9"></path>
                    <path d="M32.2565757,17.1904094 C33.1625893,19.4079522 33.5598624,21.262218 33.448395,22.7532066 C33.281194,24.9896897 34.3458657,26.056426 34.5951305,26.9361377 C35.2912891,29.398775 36.699244,29.9262965 37.2806799,32.4551637 C37.3387852,32.7078836 37.3760641,32.9235994 37.39545,33.107858 C38.0637796,35.3334865 38.5599676,38.2057517 38.6710119,39.8402256 C38.7160917,40.5064453 38.4550103,41.5753326 38.6710119,42.4649448 C38.9183256,43.4835173 39.3970955,43.3295091 39.3970955,44.9787198 C39.3970955,45.7415829 37.8287182,48.0976602 38.9667886,49.739301 C40.1566952,51.4553605 39.2282956,53.111722 39.3970955,55.6685355 C39.5353254,57.7739642 41.7543135,58.3576939 40.8458509,59.856256 C39.8410261,61.5138437 39.3107346,62.1942778 39.7434316,64.625 C40.0835154,66.5354568 38.3500528,67.2525041 38.9667886,68.5091132 C39.5835244,69.7657223 40.3857031,70.4870357 39.3970955,72.7916035 C38.408488,75.0961714 41.8349755,75.5631893 40.3834221,75.5631893 C38.947804,75.5631893 36.740539,73.4676397 35.5829544,70.6859585 C34.9571888,72.6766775 37.3745381,75.0469499 37.262014,75.0469499 C36.6527739,75.0469499 35.3408391,75.2026634 34.4895834,74.25 C33.6383277,73.2973366 33.734632,74.471433 34.0718677,75.0469499 C34.4777877,75.7396815 32.97511,74.7054269 31.6143897,74.0824736 C29.1231919,72.9419747 31.0830993,69.7007593 31.0531766,69.5161837 C30.9416891,68.8284821 29.2859414,67.5156732 29.73349,66 C30.4935045,63.4261267 29.262394,64.625 29.262394,62.5834646 C29.262394,61.0792366 28.6503518,61.5385428 29.262394,59.9494714 C29.5344128,59.2432175 29.4437398,58.6129099 29.3235905,57.9846188 L29.2331582,57.5126234 C29.1190966,56.8807199 29.0588625,56.2323504 29.385671,55.4935851 L29.3957869,55.468 L29.3864823,55.4666153 C29.5816134,55.2201513 28.6850771,53.9088514 28.9376938,52.8948318 L28.9874571,52.7373925 C29.251693,52.0562887 28.3524918,51.2768516 28.6325065,50.5007394 C29.1388855,49.0972174 29.2883243,48.4836691 29.2190316,47.7236561 C29.1618266,47.0962228 28.8515639,46.3351977 29.3864823,45.2451059 C30.5693501,42.8345805 29.2190316,43.2080988 29.2190316,41.4493375 C29.2190316,39.6905761 29.9443686,39.8641532 29.9062501,37.9873734 C29.878312,36.6118267 29.51011,37.0630595 29.3864823,36.1510417 C29.3414339,35.8187131 29.9554956,34.6956687 29.7418846,34.1017091 C29.6076884,33.7285677 29.1015693,31.8674985 28.9874571,31.5227173 C28.8725083,31.1754079 28.7510175,30.1015154 28.7883902,28.9031631 C28.6286812,28.0550724 28.751479,26.2045448 28.7604169,25.7334399 C28.7751089,24.9590398 28.8451726,23.6818527 28.8451726,23.6818527 C29.0791467,23.4580999 29.3425678,23.1669869 29.5465486,22.9053436 C30.060055,22.2466762 30.5326052,21.4541451 30.8960565,20.4854133 C31.0716798,19.8063674 31.2647956,18.937691 31.4743795,17.8797577 L31.4957869,17.88 L31.5438712,17.8805233 C31.5527201,17.8803957 31.5602024,17.8801405 31.5663182,17.8797577 C31.6271605,17.8759497 31.6727384,17.8660341 31.7030829,17.8573579 C31.8246975,17.8225853 31.9121773,17.7523814 31.967815,17.6977554 C32.0874342,17.5803114 32.1457743,17.4519964 32.150852,17.4430906 L32.1506626,17.4436026 Z M17.1177674,17.1818166 C17.3783794,17.9681228 17.9107591,17.8797577 17.9107591,17.8797577 C18.2967759,21.8113502 20.5402444,23.6818527 20.5402444,23.6818527 C20.589937,25.2184925 20.6147832,26.379023 20.6147832,27.1634443 L20.6140616,27.4064652 C20.6111789,27.8709961 20.599683,28.2151539 20.5799918,28.5954268 C20.5742927,28.7054869 20.5610436,28.8462191 20.5402444,29.0176235 C18.4165477,26.1163929 17.639275,20.5561363 17.639275,20.5561363 L17.639275,20.5561363 Z M23.9077248,0.272388161 C27.8977498,-0.979367651 30.6241343,2.48924685 30.6241343,2.48924685 C34.1555944,6.88792166 32.7777825,11.1155216 32.5204166,11.7969678 C32.5156116,11.8667486 32.5120834,11.9248544 32.5120834,11.9537543 C32.3876165,11.9308607 32.2775434,11.9194166 32.1803925,11.9164225 C32.1146522,11.9220823 32.0484289,11.923842 31.9829564,11.9239112 C31.6134317,11.9603801 31.505212,12.1348634 31.505212,12.1348634 C26.6202254,11.3776806 23.5258987,7.85283645 22.1308918,5.85070026 C21.7316654,5.73141638 21.4165168,5.63636152 21.186068,5.56685371 C20.2234295,6.28590009 18.284188,8.16708688 17.6664473,11.9698357 C17.6664473,11.9698357 17.2276154,11.8630367 16.9304052,11.9422311 C16.9304052,11.9422311 16.9290474,11.9332966 16.9266235,11.9159726 L16.9248952,11.9166667 C16.9248952,11.9166667 14.4002088,4.45523473 21.4583596,2.06369868 C22.4305405,0.790618172 23.9077248,0.272388161 23.9077248,0.272388161 Z" id="Hip-length" fill="#34CCBF"></path>
                </g>
                <circle id="Oval--" stroke="#A7ADAD" cx="60" cy="60" r="60"></circle>
            </g>
        </g>
    </g>
</svg>