<?xml version="1.0" encoding="UTF-8"?>
<svg width="122px" height="122px" viewBox="0 0 122 122" version="1.1" xmlns="http://www.w3.org/2000/svg" xmlns:xlink="http://www.w3.org/1999/xlink">
    <title>Tailbone_lenght</title>
    <g id="Page-1" stroke="none" stroke-width="1" fill="none" fill-rule="evenodd">
        <g id="Hair-lenght-states" transform="translate(-933.000000, -792.000000)">
            <g id="Tailbone_lenght" transform="translate(934.000000, 793.000000)">
                <path d="M66.4711501,21.9698121 C66.4711501,21.9698121 67.7099865,21.6121494 67.7381796,22.6239985 C67.7666491,23.6358476 67.207763,25.6595459 67.1795699,26.1091949 C67.1513769,26.5588438 67.0673505,27.9361369 66.228745,27.8797224 C66.228745,27.8797224 65.9860635,31.4794152 63.6200572,33.6818059 C63.6200572,33.6818059 63.4589145,38.0857534 63.6200572,39.0175661 C63.7809235,39.9493788 65.2121362,41.0501573 66.3918225,41.558444 C67.5712324,42.0664529 75.9948782,44.0145612 77.0902617,46.0474303 C77.2338823,46.3139996 77.3745935,46.545609 77.5116388,46.7659479 L77.6137237,46.9294589 C77.6306194,46.9564819 77.6474548,46.9834213 77.6642285,47.0103235 L77.7641185,47.1716589 L77.7641185,47.1716589 L77.8624566,47.3343201 C78.6102515,48.5921463 79.2149685,50.1626627 79.5328315,56.5494292 C79.9543455,65.019115 80.6276622,72.2182227 81.0491762,74.3355747 C81.0739711,74.4601248 81.1008042,74.5843816 81.1293155,74.7101726 L81.173296,74.900238 L81.173296,74.900238 L81.219524,75.093975 C81.6921413,77.0542728 82.4613821,79.7709064 82.3126125,89.4113207 C82.300923,90.1700377 82.2945146,90.8883208 82.2927104,91.5681269 L82.2927119,92.3655506 C82.3086476,98.2095893 82.6755735,101.000394 82.8998653,102.164531 L82.9288823,102.310235 C82.9476057,102.401111 82.9650288,102.479636 82.9808049,102.546811 L83.0228453,102.715289 C83.0531836,102.828982 83.0710613,102.878001 83.0710613,102.878001 C83.0710613,102.878001 84.5876823,110.500635 83.7452072,112.278944 C82.9024557,114.057809 81.8916513,115.328109 81.3863874,115.243626 C80.880847,115.158865 81.133479,114.227608 81.133479,114.227608 C81.133479,114.227608 79.0281204,115.590172 78.52258,115.247794 C78.0170396,114.904861 77.8481577,115.158865 77.4274729,114.566095 C77.0062353,113.973326 77.7644077,113.380278 77.7644077,113.380278 C77.7644077,113.380278 77.2588673,113.210757 76.9219325,112.787231 C76.5847214,112.363983 79.2807523,110.8394 79.2807523,108.721771 C79.2807523,106.604697 78.8595148,104.23334 79.5333843,101.777223 C80.2069775,99.3208279 76.500695,92.2912417 75.9108518,84.8378516 C75.321285,77.3847394 76.0797338,77.4689443 75.4898906,75.0128272 C74.9000475,72.5569879 72.3731749,63.8332978 72.3731749,60.8688939 L72.3731749,60.5301287 C72.3731749,60.5301287 71.6993053,64.6803498 70.6039218,65.9506498 C69.5085383,67.2212277 68.9186951,75.3518703 69.2559063,76.3681659 L69.2913345,76.4665939 C69.8930047,78.0635846 75.7407106,91.4136718 75.6582198,100.252363 C75.6260517,103.710405 75.0200716,108.315305 74.2940674,112.853045 L74.1422959,113.790531 C73.892793,115.314607 73.6332143,116.821548 73.3809249,118.264899 C69.2633333,119.278479 64.977623,119.866364 60.5738777,119.979759 C60.5693154,119.940268 60.5652146,119.902866 60.5611172,119.865459 L60.4793072,119.113881 C59.9511488,114.231977 59.4997236,109.494066 59.4997236,109.494066 C59.4997236,109.494066 59.0483732,114.231977 58.5202865,119.113881 L58.4384875,119.865459 C58.4337687,119.908544 58.4290455,119.951621 58.4243181,119.994689 C54.0415093,119.956077 49.7713538,119.445013 45.6614703,118.512044 C45.3961334,116.993281 45.121152,115.401477 44.8574277,113.790531 L44.7056562,112.853045 C44.6806216,112.696571 44.6557296,112.540017 44.6309991,112.383433 L44.4847002,111.443968 C43.8604175,107.37484 43.3703442,103.352676 43.3415038,100.252363 C43.257201,91.1899074 49.4066061,77.3847394 49.7435409,76.3681659 C50.0807521,75.3518703 49.4909089,67.2212277 48.3958018,65.9506498 C47.3006947,64.6803498 46.6268251,60.5301287 46.6268251,60.5301287 L46.6268251,60.8688939 C46.6268251,63.8332978 44.0996761,72.5569879 43.509833,75.0128272 C42.9199898,77.4689443 43.678715,77.3847394 43.0885954,84.8378516 C42.4990286,92.2912417 38.7924697,99.3208279 39.4663393,101.777223 C40.1399324,104.23334 39.7192477,106.604697 39.7192477,108.721771 C39.7192477,110.8394 42.4150022,112.363983 42.0777911,112.787231 C41.7408563,113.210757 41.2353159,113.380278 41.2353159,113.380278 L41.2636426,113.403937 C41.3973892,113.519815 41.9439634,114.043063 41.5725271,114.566095 C41.1515659,115.158865 40.982684,114.904861 40.4771436,115.247794 C39.9718796,115.590172 37.8662446,114.227608 37.8662446,114.227608 C37.8662446,114.227608 38.1188766,115.158865 37.6136126,115.243626 C37.1080723,115.328109 36.0969915,114.057809 35.2547928,112.278944 C34.4123177,110.500635 35.9289387,102.878001 35.9289387,102.878001 C35.9289387,102.878001 35.9468111,102.828982 35.9771402,102.715289 L36.0191678,102.546811 C36.0349391,102.479636 36.0523568,102.401111 36.0710745,102.310235 L36.1000825,102.164531 C36.3243051,101.000394 36.6911137,98.2095893 36.7070191,92.3655506 L36.707017,91.5681269 C36.7052103,90.8883208 36.6988006,90.1700377 36.6871111,89.4113207 C36.5385853,79.7709064 37.3076397,77.0542728 37.7802097,75.093975 L37.8264334,74.900238 L37.8264334,74.900238 L37.8704108,74.7101726 C37.8989204,74.5843816 37.9257524,74.4601248 37.9505474,74.3355747 C38.3720614,72.2182227 39.0453781,65.019115 39.4668921,56.5494292 C39.7847551,50.1626627 40.3894721,48.5921463 41.1373856,47.3343201 L41.2357398,47.1716589 L41.2357398,47.1716589 L41.3356473,47.0103235 C41.352424,46.9834213 41.3692626,46.9564819 41.3861614,46.9294589 L41.4882661,46.7659479 C41.6253388,46.545609 41.7660814,46.3139996 41.9097383,46.0474303 C43.0048454,44.0145612 51.4282148,42.0664529 52.6081775,41.558444 C53.7875874,41.0501573 55.2190765,39.9493788 55.3799428,39.0175661 C55.5408091,38.0857534 55.3799428,33.6818059 55.3799428,33.6818059 C53.0139365,31.4794152 52.7709786,27.8797224 52.7709786,27.8797224 C51.9320967,27.9361369 51.8483467,26.5588438 51.8201537,26.1091949 C51.792237,25.6595459 51.2333509,23.6358476 51.261544,22.6239985 C51.2868019,21.708516 52.3035379,21.9141077 52.4969728,21.9615718 L52.5285735,21.9698121 L52.5285735,21.9698121 C52.5285735,14.1224137 56.507293,13.234379 59.366536,13.2089122 L59.4997236,13.208327 C62.3671242,13.208327 66.4711501,13.9997981 66.4711501,21.9698121 Z" id="Combined-Shape" fill="#EBFAF9"></path>
                <path d="M67.004837,27.1903754 C67.9037798,29.4079139 68.2979524,31.2621759 68.187355,32.7531617 C68.0214589,34.9896403 69.0778216,36.0563745 69.3251411,36.9360845 C70.0158667,39.3987169 71.4128335,39.9262374 71.9897318,42.4550996 C72.0473836,42.707819 72.0843716,42.9235344 72.1036061,43.1077926 C72.76672,45.3334167 73.2590356,48.2056762 73.3692132,49.8401469 C73.4139412,50.5063652 73.1548974,51.5752504 73.3692132,52.4648609 C73.6145968,53.4834314 74.0896303,53.3294235 74.0896303,54.9786309 C74.0896303,55.3656374 73.6891393,56.1626762 73.4419318,57.0684562 C73.9290261,58.9756625 74.2736612,61.038763 74.3658243,62.3297056 C74.4131953,62.9959239 74.1388441,64.0648091 74.3658243,64.9544196 C74.6257081,65.9729901 75.1288122,65.8189821 75.1288122,67.4681896 C75.1288122,67.5608888 75.1044766,67.6771133 75.0638655,67.8127225 C75.5824235,68.4875667 76.0214282,69.0342679 75.5270792,69.8561377 C75.0463255,70.6554392 74.6750516,71.2275283 74.4675984,71.8782206 C74.5248244,71.9982827 74.5939284,72.1152305 74.6766343,72.2287614 C75.9270197,73.9448175 74.9514328,75.6011757 75.1288122,78.1579842 C75.2740678,80.2634087 77.6058393,80.8471373 76.6512027,82.3456964 C75.8918236,83.5377971 75.3903569,84.2244963 75.3377298,85.4203276 C75.4483001,85.4941445 75.4711747,85.5344508 75.3363428,85.5520666 C75.3266511,85.9884805 75.3767945,86.4945387 75.4927514,87.114431 C75.8501204,89.024884 74.028552,89.7419298 74.6766343,90.9985365 C75.3247166,92.2551431 76.1676672,92.9764551 75.1288122,95.2810183 C74.0899572,97.5855816 77.6906011,98.0525986 76.1652703,98.0525986 C74.6678357,98.0525986 72.371477,95.9879177 71.1479657,93.2369479 C70.5637641,95.2143082 73.0438214,97.5363603 72.9271298,97.5363603 C72.2888001,97.5363603 70.9142237,97.6920735 70.0223227,96.7394119 C69.1304217,95.7867504 69.2313243,96.9608445 69.5846621,97.5363603 C69.8114897,97.9058164 69.4695056,97.7840418 68.8846398,97.4954221 L68.6545667,97.3800024 C68.1741965,97.1360556 67.5801223,96.8210667 67.0098459,96.5718859 C64.3996997,95.4313893 66.4531877,92.1901802 66.4218363,92.005605 C66.3050255,91.3179048 64.5702201,90.0050984 65.039138,88.4894282 C65.8354413,85.9155601 64.5455483,87.114431 64.5455483,85.0728996 C64.5455483,83.5686746 63.9042827,84.0279799 64.5455483,82.4389116 C65.186814,80.8498434 63.9042827,79.6452529 64.6747115,77.9830341 C64.704267,77.9192674 64.7381647,77.8473694 64.7764046,77.76734 C64.4956134,77.2341039 64.3154265,76.6347859 64.5014421,75.9998696 C65.2555253,73.4260014 64.0340227,74.6248723 64.0340227,72.5833409 C64.0340227,71.0791159 63.426757,71.5384212 64.0340227,69.949353 C64.3039185,69.2431004 64.2139532,68.6127941 64.0947416,67.9845042 L64.005015,67.5125098 C63.8918436,66.8806075 63.8320795,66.2322393 64.1563376,65.4934754 L64.1671275,65.467 L64.1571426,65.4665057 C64.3507508,65.2200422 63.4612113,63.9087448 63.7118565,62.8947273 L63.7612315,62.7372883 C64.0234051,62.0561858 63.1312215,61.2767503 63.409051,60.5006397 C63.9114781,59.0971204 64.0597506,58.4835733 63.9909987,57.7235618 C63.9342401,57.0961297 63.6263988,56.3351062 64.1571426,55.2450165 C65.3307789,52.8344958 63.9909987,53.2080135 63.9909987,51.4492556 C63.9909987,49.6904977 64.7106749,49.8640744 64.672854,47.9872984 C64.6451339,46.6117543 64.2798054,47.0629863 64.1571426,46.1509702 C64.1124457,45.8186423 64.7217151,44.6956001 64.5097711,44.1016417 C64.3766222,43.728501 63.8744531,41.8674356 63.7612315,41.522655 C63.6471797,41.1753463 63.526637,40.1014559 63.5637181,38.9031059 C63.4052555,38.055017 63.527095,36.2044931 63.5359631,35.733389 C63.5505404,34.9589904 63.6200574,33.6818059 63.6200574,33.6818059 C63.8522054,33.4580535 64.1135707,33.1669411 64.3159596,32.9052983 C64.8243915,32.2480117 65.2923567,31.4574216 65.6526686,30.4914567 C65.82804,29.8115334 66.0201738,28.9408242 66.2287452,27.8797224 L66.2501275,27.88 L66.2976946,27.8804879 C66.3064744,27.8803604 66.3138984,27.8801052 66.3199664,27.8797224 C66.3803339,27.8759143 66.4255561,27.8659988 66.4556638,27.8573226 C66.5763293,27.8225501 66.6631264,27.7523464 66.7183299,27.6977205 C66.8370155,27.5802766 66.8949003,27.4519619 66.8999383,27.4430562 L66.8997504,27.4435681 Z M51.9841758,27.1817827 C52.242754,27.9680873 52.7709788,27.8797224 52.7709788,27.8797224 C53.1539831,31.8113071 55.379943,33.6818059 55.379943,33.6818059 C55.4292477,35.2184427 55.4539001,36.3789709 55.4539001,37.1633906 L55.4531841,37.4064111 C55.4503239,37.870941 55.4389177,38.2150982 55.4193802,38.5953703 C55.4137255,38.7054302 55.4005798,38.8461621 55.379943,39.0175661 C53.2728201,36.1163413 52.5016135,30.5560956 52.5016135,30.5560956 L52.5016135,30.5560956 Z M58.7211427,10.2723876 C62.504078,9.07626776 65.142205,12.1902454 65.3692327,12.4694061 L65.3851355,12.4892419 C68.8890352,16.887908 67.5219761,21.1154996 67.2666188,21.7969445 C67.2618512,21.8667252 67.2583506,21.9248308 67.2583506,21.9537307 C67.1347135,21.9308109 67.0253907,21.9193669 66.9289169,21.9163887 C66.8640086,21.9220594 66.7982901,21.9238191 66.7333167,21.9238876 C66.3666971,21.960381 66.2593371,22.1348394 66.2593371,22.1348394 C61.4132869,21.3777851 58.343326,17.8540029 56.9588729,15.8516959 C56.5616349,15.7312741 56.2486592,15.6361322 56.0199268,15.5665996 C55.0640371,16.2874168 53.1412444,18.168616 52.5285737,21.9698121 C52.5285737,21.9698121 52.0931666,21.8630133 51.7982759,21.9422075 L51.7948708,21.9184441 C51.7947577,21.9176328 51.794642,21.9168011 51.7945237,21.9159491 L51.7928089,21.9166431 C51.7928089,21.9166431 49.2882407,14.456462 56.2891529,12.064289 C57.2554867,10.7906166 58.7211427,10.2723876 58.7211427,10.2723876 Z" fill="#34CCBF"></path>
                <circle id="Oval-" stroke="#A7ADAD" cx="60" cy="60" r="60"></circle>
            </g>
        </g>
    </g>
</svg>