<?xml version="1.0" encoding="UTF-8"?>
<svg width="122px" height="122px" viewBox="0 0 122 122" version="1.1" xmlns="http://www.w3.org/2000/svg" xmlns:xlink="http://www.w3.org/1999/xlink">
    <title>Classic length</title>
    <g id="Page-1" stroke="none" stroke-width="1" fill="none" fill-rule="evenodd">
        <g id="Hair-lenght-states" transform="translate(-933.000000, -942.000000)">
            <g id="Classic-length" transform="translate(934.000000, 943.000000)">
                <path d="M66.3255287,20.6893417 C66.3255287,20.6893417 67.4405403,20.36994 67.4659154,21.2735465 C67.4915393,22.1771531 66.9885153,23.9843663 66.9631402,24.3859141 C66.9377651,24.7874618 66.8621374,26.0174191 66.1073526,25.9670394 C66.1073526,25.9670394 65.8889278,29.1816552 63.7594098,31.1484452 C63.7594098,31.1484452 63.6143737,35.0812805 63.7594098,35.9134126 C63.9041971,36.7455447 65.1923565,37.7285674 66.2541302,38.1824801 C67.3156551,38.6361447 74.897336,40.3758542 75.8832332,42.1912572 C76.0361786,42.4729191 76.1854581,42.7108749 76.3299441,42.9401657 L76.4255456,43.0921271 L76.5177078,43.2406551 C77.2186135,44.3839485 77.7870408,45.6962217 78.0816619,51.569805 C78.4610445,59.1334463 79.0670615,65.5624296 79.4464441,67.4532779 C79.4582998,67.5123669 79.4706732,67.571382 79.4835158,67.6305678 L79.5234024,67.8088823 C79.9353715,69.6020434 80.7258652,71.7690944 80.5835968,80.9162963 C80.4320925,90.6730634 81.2662366,92.9423791 81.2662366,92.9423791 C81.2662366,92.9423791 82.6312676,99.7495818 81.873,101.337656 C81.1144836,102.926227 80.2047117,104.060636 79.7499502,103.985191 C79.2949399,103.909498 79.5223206,103.077862 79.5223206,103.077862 C79.5223206,103.077862 77.6273979,104.294666 77.1723876,103.988914 C76.7173773,103.682665 76.5653755,103.909498 76.1867392,103.38014 C75.8076054,102.850781 76.4899965,102.321175 76.4899965,102.321175 C76.4899965,102.321175 76.0349862,102.169788 75.7317289,101.791569 C75.4282229,101.413598 77.8547787,100.052108 77.8547787,98.1610112 C77.8547787,96.2704111 77.4756449,94.1527305 78.0821595,91.9593564 C78.6884253,89.7657342 75.3525951,83.4881378 74.8217083,76.8320739 C74.4512628,72.1855611 74.672123,70.8194885 74.6586077,69.6718926 L74.6542311,69.4872275 C74.6386171,69.0585538 74.5830575,68.6374631 74.4428233,68.0580813 C73.9119364,65.8649554 71.6376311,58.0744819 71.6376311,55.427195 L71.6376311,55.1246692 C71.6376311,55.1246692 71.0311166,58.8309205 70.0452194,59.9653301 C69.0593223,61.099988 68.5284354,68.3608553 68.8319415,69.2684327 C69.1354476,70.1762582 74.6704528,82.5046187 74.5943275,90.5976181 C74.518451,98.6906174 70.8955339,113.817652 71.0768913,116.465187 C71.1169492,117.050664 71.196403,117.898876 71.2966813,118.935337 C68.5683794,119.457967 65.7741438,119.793051 62.9279039,119.929812 L62.9410284,119.998477 C62.6560601,118.542227 62.3592813,117.31078 62.1602812,116.616326 C61.8925914,115.681836 61.4505383,112.114052 61.0400741,108.418354 L60.9584635,107.678251 C60.7422837,105.704055 60.5389947,103.740985 60.3798402,102.169114 L60.2951765,101.328702 C60.162515,100.005133 60.0737923,99.0880262 60.0547525,98.8905558 L60.050914,98.8506906 C60.050914,98.8506906 59.9570168,99.8286567 59.8066904,101.328702 L59.7220397,102.169114 C59.5629095,103.740985 59.3596505,105.704055 59.1434999,107.678251 L59.0619002,108.418354 C58.6514901,112.114052 58.2094854,115.681836 57.9417956,116.616326 C57.7457052,117.300345 57.4548043,118.505342 57.1737993,119.932988 C54.3266407,119.802552 51.5321286,119.472209 48.802921,118.957046 C48.9047542,117.908819 48.984893,117.054093 49.0251855,116.465187 C49.2065429,113.817652 45.5836258,98.6906174 45.5077493,90.5976181 C45.4318728,82.5046187 50.9666293,70.1762582 51.2698865,69.2684327 C51.5733926,68.3608553 51.0425058,61.099988 50.0568574,59.9653301 C49.071209,58.8309205 48.4646944,55.1246692 48.4646944,55.1246692 L48.4646944,55.427195 C48.4646944,58.0744819 46.1901404,65.8649554 45.6592535,68.0580813 C45.5190193,68.6374631 45.4634771,69.0585538 45.4478794,69.4872275 L45.4435098,69.6718926 C45.4365908,70.2611986 45.4914691,70.9081161 45.4962921,72.0272701 L45.4960208,72.3968684 C45.4901645,73.4269034 45.4404626,74.8227711 45.2801197,76.8320739 C44.7494817,83.4881378 41.4134027,89.7657342 42.0199173,91.9593564 C42.6261831,94.1527305 42.2475469,96.2704111 42.2475469,98.1610112 C42.2475469,100.052108 44.6738539,101.413598 44.3703479,101.791569 C44.0670906,102.169788 43.6120803,102.321175 43.6120803,102.321175 C43.6120803,102.321175 44.2944714,102.850781 43.9155863,103.38014 C43.5367013,103.909498 43.3846995,103.682665 42.9296892,103.988914 C42.4749276,104.294666 40.5797562,103.077862 40.5797562,103.077862 C40.5797562,103.077862 40.8071369,103.909498 40.3523754,103.985191 C39.8973651,104.060636 38.9873444,102.926227 38.2293256,101.337656 C37.471058,99.7495818 38.836089,92.9423791 38.836089,92.9423791 C38.836089,92.9423791 39.6699843,90.6730634 39.51848,80.9162963 C39.3764448,71.7690944 40.1667345,69.6020434 40.5786771,67.8088823 L40.6185617,67.6305678 C40.6314038,67.571382 40.643777,67.5123669 40.6556327,67.4532779 C41.0350153,65.5624296 41.6410323,59.1334463 42.0204149,51.569805 C42.315036,45.6962217 42.8834633,44.3839485 43.5844855,43.2406551 L43.6766636,43.0921271 L43.6766636,43.0921271 L43.7722827,42.9401657 C43.9167963,42.7108749 44.0661084,42.4729191 44.2190924,42.1912572 C45.2047408,40.3758542 52.786173,38.6361447 53.8481954,38.1824801 C54.9097203,37.7285674 56.1981284,36.7455447 56.3429158,35.9134126 C56.4877031,35.0812805 56.3429158,31.1484452 56.3429158,31.1484452 C54.2133978,29.1816552 53.9947242,25.9670394 53.9947242,25.9670394 C53.2396906,26.0174191 53.1643117,24.7874618 53.1389366,24.3859141 C53.1138103,23.9843663 52.6107863,22.1771531 52.6361614,21.2735465 C52.6612877,20.36994 53.7765481,20.6893417 53.7765481,20.6893417 C53.7765481,13.6885988 57.3502501,12.890013 59.9231254,12.8657113 L60.050914,12.8651163 C62.6317107,12.8651163 66.3255287,13.5719198 66.3255287,20.6893417 Z" id="Combined-Shape" fill="#EBFAF9"></path>
                <path d="M66.8185649,25.3514354 C67.6276561,27.3317527 67.9824302,28.9876551 67.8828873,30.3191427 C67.7335729,32.3163741 68.6843495,33.2689944 68.9069487,34.0545974 C69.5286345,36.2537898 70.785971,36.7248787 71.3052068,38.9832159 C71.3228976,39.0601591 71.3384265,39.1332613 71.3518975,39.2027187 C72.967996,42.471642 73.9418549,44.4814384 74.273652,45.2314806 C74.9303092,46.7158836 73.8371733,47.7916131 74.3837412,49.2106908 C74.9303092,50.6297685 74.3837412,50.2195973 74.3837412,51.5629079 C74.3837412,53.3860465 73.2843309,52.3154248 73.9630415,54.6139535 C74.1873377,55.3735576 73.8200708,56.076105 73.4369744,56.6549485 L73.4438029,56.7317364 C73.486439,57.326686 73.2395099,58.2812272 73.4438029,59.0756717 C73.6777106,59.9852806 74.1305282,59.8477476 74.1305282,61.3205311 C74.1305282,61.4034351 74.1085608,61.5074093 74.0719123,61.6287399 C74.53882,62.2308852 74.9339136,62.7190969 74.4889874,63.4530286 C74.056148,64.1670528 73.7219087,64.678041 73.5352255,65.259356 C73.5871336,65.3663921 73.6492408,65.4706368 73.7235466,65.5718409 C74.4661128,66.5830034 73.8518426,67.7284838 73.7235466,68.9395349 C73.6574019,69.5639087 74.0762186,70.0900555 74.1305282,70.8667852 C74.2612652,72.746982 75.3062716,73.1284418 75.0633897,74.2431161 C74.9137944,74.929664 74.7761741,75.4265859 74.6599247,75.8184448 C74.789881,76.1849273 74.9316758,76.5726374 75.0850639,76.9801101 C76.211053,79.9712808 74.907399,80.3845984 74.494359,81.4457786 C74.0777157,82.5162164 75.5810623,83.6016201 75.0850639,85.0705273 C74.4903441,86.8317997 75.2987023,87.1102354 75.5779363,89.1972172 C75.7471386,90.4618274 75.3644534,91.1935752 75.0850639,91.7675185 C73.3092711,95.4154887 76.5262199,97.688439 76.4048168,97.688439 C75.8607512,97.688439 74.6891629,97.8274947 73.9289718,96.9767442 C73.1687806,96.1259936 73.2547826,97.174489 73.5559419,97.688439 C73.5961679,97.7570875 73.6154052,97.8067445 73.6161563,97.8400195 C73.6415062,97.8745406 73.6512178,97.8923178 73.6420261,97.8923178 C73.0979605,97.8923178 71.9263722,98.0318964 71.1661811,97.1779471 C70.4059899,96.3239978 70.4919919,97.3764355 70.7931512,97.8923178 C71.0909158,98.4023851 70.2386302,97.8679219 69.2512422,97.3512795 L68.9912653,97.217606 C68.8604119,97.1516699 68.7287614,97.0876086 68.5985662,97.0277796 C66.3738687,96.0054582 68.1241116,93.1000944 68.0973899,92.9346443 C67.9978289,92.3182017 66.5192077,91.1414248 66.9188791,89.7828042 C67.2699363,88.5894399 67.1452775,88.3008427 66.9431012,88.0470793 L66.8590404,87.9453698 C66.7252234,87.7841583 66.5820121,87.5917311 66.5243946,87.1605704 C64.6401613,86.0314175 66.3207541,83.3902922 66.2938366,83.233057 C66.1887013,82.6189236 64.6272941,81.4465547 65.0493426,80.0930233 C65.7660533,77.7944946 65.0493426,77.9254642 65.0493426,76.1023256 C65.0493426,74.7999137 63.6366289,71.6507671 64.5152533,69.1710799 C64.5255546,69.0949791 64.542352,69.017558 64.5653907,68.9395349 C65.2441013,66.6410062 64.144691,67.7116279 64.144691,65.8884893 C64.144691,64.5451787 63.2030918,64.0703036 64.2547802,59.557062 L64.2598837,59.533 C64.4287423,59.3141664 63.6384644,58.1555216 63.8508733,57.2522286 L63.899166,57.0957179 C64.1351347,56.4874764 63.3321272,55.791421 63.5821869,55.0983348 C64.0343951,53.844957 64.1678474,53.297044 64.1059674,52.6183347 C64.054882,52.0580222 63.7778102,51.3784091 64.2555048,50.4049318 C65.3118332,48.2522765 64.1059674,48.5858371 64.1059674,47.0152223 C64.1059674,45.4446075 64.7537102,45.5996159 64.7196695,43.9236079 C64.6947201,42.6952127 64.3659071,43.0981741 64.2555048,42.2837209 C64.2152755,41.9869438 64.7636468,40.984039 64.5728872,40.4536193 C64.5329405,40.3425446 64.4560897,40.0838306 64.3676019,39.7768415 L64.2574479,39.3916419 C64.1074403,38.8641044 63.9535152,38.3147317 63.899166,38.1505196 C63.7964791,37.8402589 63.6879461,36.8807015 63.7214287,35.8101058 C63.5788542,35.0525744 63.6884351,33.4011078 63.6964138,32.9805603 C63.7095341,32.289003 63.7721026,31.1484452 63.7721026,31.1484452 C63.9810469,30.9486287 64.2162881,30.6886581 64.3984477,30.4550045 C64.8568494,29.8670191 65.2787036,29.1595796 65.6032256,28.2949205 C65.7600914,27.6890487 65.932701,26.9127132 66.1200455,25.9670394 L66.2021489,25.9670394 L66.2021489,25.9670394 C66.2564825,25.9636388 66.2971847,25.9547839 66.324283,25.9470358 C66.4328877,25.9159832 66.5110092,25.8532895 66.5606949,25.8045072 C66.6757347,25.6915592 66.7273081,25.5673522 66.7243565,25.5771961 C66.704373,25.6438434 66.7031603,25.6911295 66.6988227,25.7140549 C66.6965869,25.7258714 66.6954243,25.736947 66.6948791,25.7542526 L66.6944665,25.7862486 L66.6944665,25.7862486 L66.723982,25.5775428 Z M53.299257,25.3437618 C53.5319896,26.0459515 54.007417,25.9670394 54.007417,25.9670394 C54.352139,29.4780429 56.3556086,31.1484452 56.3556086,31.1484452 C56.3999852,32.5207003 56.4221735,33.557081 56.4221735,34.2575874 C56.4221735,34.7878965 56.4116194,35.1401899 56.3911039,35.5363811 C56.3860145,35.6346674 56.3741827,35.7603445 56.3556086,35.9134126 C54.459098,33.3225462 53.7649754,28.3571077 53.7649754,28.3571077 L53.7649754,28.3571077 Z M59.3628469,10.243249 C62.926032,9.12540191 65.3607567,12.2229553 65.3607567,12.2229553 C68.5131098,16.1494264 67.2850462,19.9232518 67.0544708,20.5341991 C67.0499418,20.5964307 67.0467392,20.6489609 67.0467392,20.6749806 C66.9345059,20.6543372 66.835378,20.6441183 66.7480025,20.6415666 C66.6935227,20.6465683 66.638614,20.6480864 66.5842826,20.6483044 C66.311354,20.6720057 66.1948203,20.7798632 66.1597581,20.8208349 L66.1475796,20.8367152 C61.7862838,20.1607056 59.0232745,17.0143683 57.7770455,15.2261774 C57.4187152,15.1180287 57.1370334,15.0330681 56.9312127,14.9709886 C56.0718929,15.614224 54.3407715,17.2941757 53.7892409,20.6893417 C53.7892409,20.6893417 53.3973539,20.5939676 53.1319382,20.6646901 L53.1285419,20.6411036 L53.1285419,20.6411036 L53.1270177,20.6418605 C53.1270177,20.6418605 50.8732435,13.9810798 57.1720287,11.8441102 C58.0424993,10.706457 59.3628469,10.243249 59.3628469,10.243249 Z" fill="#34CCBF"></path>
                <circle id="Oval-" stroke="#A7ADAD" cx="60" cy="60" r="60"></circle>
            </g>
        </g>
    </g>
</svg>