<?xml version="1.0" encoding="UTF-8"?>
<svg width="122px" height="122px" viewBox="0 0 122 122" version="1.1" xmlns="http://www.w3.org/2000/svg" xmlns:xlink="http://www.w3.org/1999/xlink">
    <title>Mid-thigh lenght</title>
    <g id="Page-1" stroke="none" stroke-width="1" fill="none" fill-rule="evenodd">
        <g id="Hair-lenght-states" transform="translate(-933.000000, -1092.000000)">
            <g id="Mid-thigh-lenght" transform="translate(934.000000, 1093.000000)">
                <path d="M66.3255287,20.6893417 C66.3255287,20.6893417 67.4405403,20.36994 67.4659154,21.2735465 C67.4915393,22.1771531 66.9885153,23.9843663 66.9631402,24.3859141 C66.9377651,24.7874618 66.8621374,26.0174191 66.1073526,25.9670394 C66.1073526,25.9670394 65.8889278,29.1816552 63.7594098,31.1484452 C63.7594098,31.1484452 63.6143737,35.0812805 63.7594098,35.9134126 C63.9041971,36.7455447 65.1923565,37.7285674 66.2541302,38.1824801 C67.3156551,38.6361447 74.897336,40.3758542 75.8832332,42.1912572 C76.0361786,42.4729191 76.1854581,42.7108749 76.3299441,42.9401657 L76.4255456,43.0921271 C77.1686675,44.2784603 77.7742312,45.4408485 78.0816619,51.569805 C78.4610445,59.1334463 79.0670615,65.5624296 79.4464441,67.4532779 C79.4582998,67.5123669 79.4706732,67.571382 79.4835158,67.6305678 L79.5234024,67.8088823 C79.9353715,69.6020434 80.7258652,71.7690944 80.5835968,80.9162963 C80.4320925,90.6730634 81.2662366,92.9423791 81.2662366,92.9423791 C81.2662366,92.9423791 82.6312676,99.7495818 81.873,101.337656 C81.1144836,102.926227 80.2047117,104.060636 79.7499502,103.985191 C79.2949399,103.909498 79.5223206,103.077862 79.5223206,103.077862 C79.5223206,103.077862 77.6273979,104.294666 77.1723876,103.988914 C76.7173773,103.682665 76.5653755,103.909498 76.1867392,103.38014 C75.8076054,102.850781 76.4899965,102.321175 76.4899965,102.321175 C76.4899965,102.321175 76.0349862,102.169788 75.7317289,101.791569 C75.4282229,101.413598 77.8547787,100.052108 77.8547787,98.1610112 C77.8547787,96.2704111 77.4756449,94.1527305 78.0821595,91.9593564 C78.6884253,89.7657342 75.3525951,83.4881378 74.8217083,76.8320739 C74.4512628,72.1855611 74.672123,70.8194885 74.6586077,69.6718926 L74.6542311,69.4872275 C74.6386171,69.0585538 74.5830575,68.6374631 74.4428233,68.0580813 C73.9119364,65.8649554 71.6376311,58.0744819 71.6376311,55.427195 L71.6376311,55.1246692 C71.6376311,55.1246692 71.0311166,58.8309205 70.0452194,59.9653301 C69.0593223,61.099988 68.5284354,68.3608553 68.8319415,69.2684327 C69.1354476,70.1762582 74.6704528,82.5046187 74.5943275,90.5976181 C74.518451,98.6906174 70.8955339,113.817652 71.0768913,116.465187 C71.1169507,117.050686 71.196409,117.898939 71.2966925,118.935452 C68.5683794,119.457967 65.7741438,119.793051 62.9279039,119.929812 C62.64656,118.502841 62.3560878,117.299635 62.1602812,116.616326 C61.8925914,115.681836 61.4505383,112.114052 61.0400741,108.418354 L60.9584635,107.678251 C60.7422837,105.704055 60.5389947,103.740985 60.3798402,102.169114 L60.2951765,101.328702 C60.162515,100.005133 60.0737923,99.0880262 60.0547525,98.8905558 L60.050914,98.8506906 L60.050914,98.8506906 C60.050914,98.8506906 59.9570168,99.8286567 59.8066904,101.328702 L59.7220397,102.169114 C59.5629095,103.740985 59.3596505,105.704055 59.1434999,107.678251 L59.0619002,108.418354 C58.6514901,112.114052 58.2094854,115.681836 57.9417956,116.616326 C57.7457262,117.300272 57.4548665,118.505084 57.1738894,119.93253 C54.3266407,119.802552 51.5321286,119.472209 48.802921,118.957046 C48.904769,117.908661 48.9848967,117.054038 49.0251855,116.465187 C49.2065429,113.817652 45.5836258,98.6906174 45.5077493,90.5976181 C45.4318728,82.5046187 50.9666293,70.1762582 51.2698865,69.2684327 C51.5733926,68.3608553 51.0425058,61.099988 50.0568574,59.9653301 C49.071209,58.8309205 48.4646944,55.1246692 48.4646944,55.1246692 L48.4646944,55.427195 C48.4646944,58.0744819 46.1901404,65.8649554 45.6592535,68.0580813 C45.5190193,68.6374631 45.4634771,69.0585538 45.4478794,69.4872275 L45.4435098,69.6718926 C45.4365908,70.2611986 45.4914691,70.9081161 45.4962921,72.0272701 L45.4960208,72.3968684 C45.4901645,73.4269034 45.4404626,74.8227711 45.2801197,76.8320739 C44.7494817,83.4881378 41.4134027,89.7657342 42.0199173,91.9593564 C42.6261831,94.1527305 42.2475469,96.2704111 42.2475469,98.1610112 C42.2475469,100.052108 44.6738539,101.413598 44.3703479,101.791569 C44.0670906,102.169788 43.6120803,102.321175 43.6120803,102.321175 C43.6120803,102.321175 44.2944714,102.850781 43.9155863,103.38014 C43.5367013,103.909498 43.3846995,103.682665 42.9296892,103.988914 C42.4749276,104.294666 40.5797562,103.077862 40.5797562,103.077862 C40.5797562,103.077862 40.8071369,103.909498 40.3523754,103.985191 C39.8973651,104.060636 38.9873444,102.926227 38.2293256,101.337656 C37.471058,99.7495818 38.836089,92.9423791 38.836089,92.9423791 C38.836089,92.9423791 39.6699843,90.6730634 39.51848,80.9162963 C39.3764448,71.7690944 40.1667345,69.6020434 40.5786771,67.8088823 L40.6185617,67.6305678 C40.6314038,67.571382 40.643777,67.5123669 40.6556327,67.4532779 C41.0350153,65.5624296 41.6410323,59.1334463 42.0204149,51.569805 C42.3278456,45.4408485 42.9334094,44.2784603 43.6766636,43.0921271 L43.7722827,42.9401657 C43.9167963,42.7108749 44.0661084,42.4729191 44.2190924,42.1912572 C45.2047408,40.3758542 52.786173,38.6361447 53.8481954,38.1824801 C54.9097203,37.7285674 56.1981284,36.7455447 56.3429158,35.9134126 C56.4877031,35.0812805 56.3429158,31.1484452 56.3429158,31.1484452 C54.2133978,29.1816552 53.9947242,25.9670394 53.9947242,25.9670394 C53.2396906,26.0174191 53.1643117,24.7874618 53.1389366,24.3859141 C53.1138103,23.9843663 52.6107863,22.1771531 52.6361614,21.2735465 C52.6612877,20.36994 53.7765481,20.6893417 53.7765481,20.6893417 C53.7765481,13.6885988 57.3502501,12.890013 59.9231254,12.8657113 L60.050914,12.8651163 C62.6317107,12.8651163 66.3255287,13.5719198 66.3255287,20.6893417 Z" id="Combined-Shape" fill="#EBFAF9"></path>
                <path d="M66.8058723,25.3514354 C67.354824,26.6950398 67.694638,27.889305 67.8253142,28.9342309 L67.8282308,28.9441079 C68.2182055,30.1746506 68.2946954,30.0402339 69.2990182,30.6129326 C70.3525724,31.2137047 70.3871865,32.3729816 70.0393271,33.4285644 C69.7073276,34.434725 69.2599388,34.9112205 70.2400883,35.4750987 C70.7289971,35.7554433 71.4142541,35.7767207 71.8698036,36.1034403 C72.3804985,36.4683025 72.2443745,36.7325958 72.4519956,37.2338972 C73.1555067,38.9329964 75.8547121,40.1842841 74.6265072,42.4447536 C74.0896838,43.4333051 73.7102781,43.6331134 74.282693,44.6593481 C74.599413,45.2273019 75.156892,45.2169159 74.6812713,45.894111 C74.5968815,46.0142662 74.5283704,46.1347678 74.4757378,46.255616 C74.4794436,46.5618762 74.4315449,46.8562872 74.3760946,47.1479372 C74.4699648,47.6169843 74.7983869,48.0912792 75.3596128,48.5706537 C75.0642113,48.47418 74.6582199,48.3042107 74.2251478,48.0809984 C74.1934015,48.4410692 74.2176261,48.8123532 74.3710486,49.2106908 C74.9176166,50.6297685 74.3710486,50.2195973 74.3710486,51.5629079 C74.3710486,53.3860465 73.2716383,52.3154248 73.9503489,54.6139535 C74.1746452,55.3735576 73.8073782,56.076105 73.4242818,56.6549485 L73.4311103,56.7317364 C73.4737465,57.326686 73.2268173,58.2812272 73.4311103,59.0756717 C73.665018,59.9852806 74.1178356,59.8477476 74.1178356,61.3205311 C74.1178356,62.0017857 72.6344742,64.1058175 73.710854,65.5718409 C74.4534202,66.5830034 73.83915,67.7284838 73.710854,68.9395349 C73.6447093,69.5639087 74.063526,70.0900555 74.1178356,70.8667852 C74.2485726,72.746982 75.293579,73.1284418 75.0506971,74.2431161 C74.9011018,74.929664 74.7634815,75.4265859 74.6472321,75.8184448 C74.7771884,76.1849273 74.9189832,76.5726374 75.0723713,76.9801101 C76.1983604,79.9712808 74.8947064,80.3845984 74.4816664,81.4457786 C74.0650231,82.5162164 75.5683697,83.6016201 75.0723713,85.0705273 C74.4776515,86.8317997 75.2860097,87.1102354 75.5652437,89.1972172 C75.734446,90.4618274 75.3517608,91.1935752 75.0723713,91.7675185 C74.9514547,92.0159148 74.8384121,92.2670053 74.7326936,92.5192714 C74.9155674,93.5380731 75.0708285,94.5330296 75.1885093,95.4813305 C75.2717815,96.1523579 74.0693318,99.277029 74.1213553,99.8558239 C74.2828994,101.653102 75.1195067,103.134135 74.1213553,104.297171 C71.7432273,107.068143 74.2495552,107.821688 74.1213553,107.823256 C69.938714,107.874419 72.1420494,104.910599 71.3392962,104.059848 C70.9286859,103.624687 69.8293997,103.614783 68.8,101.768211 C68.4150717,101.077713 67.9666089,99.556423 67.9666089,97.8100402 C67.9666089,95.9805861 66.6144731,96.1560716 66.281144,94.1538746 C66.0241918,92.6104483 68.2506376,90.4808564 67.0274005,88.8431199 C64.7797018,85.8337785 66.3093618,83.3978873 66.281144,83.233057 C66.1760088,82.6189236 64.6146015,81.4465547 65.03665,80.0930233 C65.7533607,77.7944946 65.03665,77.9254642 65.03665,76.1023256 C65.03665,74.7999137 63.6239364,71.6507671 64.5025607,69.1710799 C64.512862,69.0949791 64.5296595,69.017558 64.5526982,68.9395349 C65.2314088,66.6410062 64.1319984,67.7116279 64.1319984,65.8884893 C64.1319984,64.5451787 63.1903993,64.0703036 64.2420877,59.557062 L64.2471911,59.533 C64.4160498,59.3141664 63.6257718,58.1555216 63.8381808,57.2522286 L63.8864734,57.0957179 C64.1224422,56.4874764 63.3194346,55.791421 63.5694943,55.0983348 C64.0217025,53.844957 64.1551548,53.297044 64.0932748,52.6183347 C64.0421894,52.0580222 63.7651176,51.3784091 64.2428122,50.4049318 C65.2991406,48.2522765 64.0932748,48.5858371 64.0932748,47.0152223 C64.0932748,45.4446075 64.7410176,45.5996159 64.7069769,43.9236079 C64.6820276,42.6952127 64.3532145,43.0981741 64.2428122,42.2837209 C64.2025829,41.9869438 64.7509543,40.984039 64.5601947,40.4536193 C64.5202479,40.3425446 64.4433971,40.0838306 64.3549093,39.7768415 L64.2447553,39.3916419 L64.1551086,39.0757551 C64.1403651,39.023756 64.1257894,38.9723524 64.1114851,38.9219515 L64.0297425,38.6348337 C63.9657166,38.4110219 63.913648,38.2326257 63.8864734,38.1505196 C63.7837865,37.8402589 63.6752535,36.8807015 63.7087361,35.8101058 C63.5661616,35.0525744 63.6757425,33.4011078 63.6837212,32.9805603 C63.6968415,32.289003 63.7594101,31.1484452 63.7594101,31.1484452 C63.9683543,30.9486287 64.2035955,30.6886581 64.3857551,30.4550045 C64.8441568,29.8670191 65.266011,29.1595796 65.5905331,28.2949205 C65.7473988,27.6890487 65.9200084,26.9127132 66.1073529,25.9670395 L66.1894563,25.9670395 C66.2437899,25.9636388 66.2844921,25.9547839 66.3115904,25.9470358 C66.4201951,25.9159832 66.4983166,25.8532895 66.5480023,25.8045072 C66.6630422,25.6915592 66.7146155,25.5673522 66.7116639,25.5771961 L66.8058723,25.3514354 Z M53.2865644,25.3437618 C53.519297,26.0459515 53.9947244,25.9670395 53.9947244,25.9670395 C54.3394465,29.4780429 56.342916,31.1484452 56.342916,31.1484452 C56.3872926,32.5207003 56.4094809,33.557081 56.4094809,34.2575874 C56.4094809,34.7878965 56.3989269,35.1401899 56.3784113,35.5363811 C56.3733219,35.6346674 56.3614901,35.7603445 56.342916,35.9134126 C54.4905103,33.3827989 53.7852179,28.5867741 53.7534155,28.3650718 L53.7522829,28.3571077 L53.2865644,25.3437618 Z M65.3480641,12.2229553 C68.5004172,16.1494264 67.2723536,19.9232518 67.0417782,20.5341991 C67.0372492,20.5964307 67.0340466,20.6489609 67.0340466,20.6749806 C66.9218134,20.6543372 66.8226854,20.6441183 66.7353099,20.6415666 C66.6808301,20.6465683 66.6259214,20.6480864 66.57159,20.6483044 C66.2986614,20.6720057 66.1821277,20.7798632 66.1470655,20.8208349 L66.1348871,20.8367152 C61.7735912,20.1607056 59.0105819,17.0143683 57.764353,15.2261774 C57.5585447,15.1640323 57.3784673,15.1097175 57.2233336,15.0629262 C57.0426955,15.313725 56.8079041,15.7128252 56.7448084,15.8332702 C56.7115528,15.8966374 56.4102368,16.486085 56.2451135,16.640781 C56.0077925,16.8631052 55.1904836,17.268064 55.2700656,17.5513504 C55.3578416,17.8622424 55.2173132,18.4656729 54.9902856,18.5740774 C54.6913987,18.7165667 54.6015777,19.3539372 54.4137992,19.5071079 C54.2249437,19.661237 53.9190403,19.9266494 53.9415646,20.2012481 C53.9517257,20.3251411 54.2865898,20.7566758 53.9075159,20.7293875 C53.8604551,20.7147448 53.8167618,20.6999939 53.7764359,20.6851347 L53.7765484,20.6893417 C53.7765484,20.6893417 53.3846613,20.5939677 53.1192456,20.6646901 L53.1158493,20.6411036 L53.1143251,20.6418605 C53.1143251,20.6418605 50.8605509,13.9810798 57.1593361,11.8441102 C58.0298068,10.706457 59.3501543,10.243249 59.3501543,10.243249 C62.9133394,9.12540191 65.3480641,12.2229553 65.3480641,12.2229553 Z" fill="#34CCBF"></path>
                <circle id="Oval-" stroke="#A7ADAD" cx="60" cy="60" r="60"></circle>
            </g>
        </g>
    </g>
</svg>