<?xml version="1.0" encoding="UTF-8"?>
<svg width="122px" height="122px" viewBox="0 0 122 122" version="1.1" xmlns="http://www.w3.org/2000/svg" xmlns:xlink="http://www.w3.org/1999/xlink">
    <title>Knee length</title>
    <g id="Page-1" stroke="none" stroke-width="1" fill="none" fill-rule="evenodd">
        <g id="Hair-lenght-states" transform="translate(-933.000000, -1242.000000)">
            <g id="Knee-length" transform="translate(934.000000, 1243.000000)">
                <g id="Knee_lenght" transform="translate(40.000000, 10.000000)">
                    <path d="M25.5024651,8.98410302 C25.5024651,8.98410302 26.5063491,8.69653447 26.5291952,9.51008311 C26.5522653,10.3236317 26.0993752,11.950729 26.0765291,12.3122565 C26.053683,12.6737841 25.9855927,13.7811576 25.3060336,13.7357991 C25.3060336,13.7357991 25.109378,16.6300302 23.1920985,18.4008 C23.1920985,18.4008 23.1381338,19.8641185 23.1342792,21.1083857 L23.134993,21.5127207 C23.1388001,22.0348625 23.1547896,22.4768106 23.1920985,22.690867 C23.3224556,23.4400647 24.4822305,24.3251144 25.4381825,24.733788 C26.3939105,25.1422381 33.2199633,26.7085594 34.1076011,28.3430303 C34.2205446,28.5510254 34.3312678,28.7325484 34.4392104,28.9050072 L34.5310386,29.0510152 L34.5310386,29.0510152 L34.666056,29.2670319 C34.6956802,29.3151437 34.7250447,29.3635307 34.7541366,29.4125987 L34.8405809,29.5622523 C35.3969816,30.5535601 35.8447182,31.9582486 36.0869234,36.7868652 C36.4284949,43.5966762 36.9741132,49.384915 37.3156846,51.0873119 L37.3513797,51.2575918 L37.3513797,51.2575918 L37.3899384,51.4290215 C37.7621927,53.0393877 38.4670229,55.009595 38.3395029,63.2085387 C38.2074287,71.7140292 38.9073187,73.8995248 38.9518893,74.0297145 L38.9541075,74.0360421 C38.9541075,74.0360421 40.1830927,80.164805 39.5003978,81.5946039 C38.8174789,83.0248496 37.9983795,84.0461984 37.5889417,83.9782723 C37.17928,83.9101228 37.3839989,83.1613721 37.3839989,83.1613721 C37.3839989,83.1613721 35.6779337,84.2569032 35.2682719,83.9816239 C34.8586102,83.7058978 34.7217577,83.9101228 34.3808582,83.4335232 C34.0395108,82.9569236 34.6538914,82.4801005 34.6538914,82.4801005 C34.6538914,82.4801005 34.2442296,82.3438015 33.9711965,82.0032774 C33.6979393,81.6629768 35.8826525,80.4371795 35.8826525,78.7345592 C35.8826525,77.0323858 35.5413051,75.1257638 36.0873714,73.1509923 C36.6332137,71.1759974 33.629849,65.5240576 33.151873,59.5313703 C33.0056224,57.6969426 32.9617376,56.4304189 32.9575392,55.4993585 L32.9578278,55.1442747 C32.9638009,54.1857741 33.0100145,53.6183499 33.0052262,53.1036373 L33.0012699,52.9236118 C32.9874657,52.5359112 32.9375595,52.1557566 32.8107496,51.6318376 C32.3327736,49.6572896 30.2851369,42.6432535 30.2851369,40.2598085 L30.2851369,39.9874339 C30.2851369,39.9874339 29.7390706,43.3243017 28.8514329,44.3456504 C27.9637952,45.3672226 27.4858192,51.9044356 27.7590763,52.7215593 C28.0323334,53.5389065 33.0156924,64.638561 32.9471542,71.9249716 C32.9250834,74.2790428 32.5696767,77.2941429 32.1041303,80.3778137 L31.9683128,81.2602166 C30.999311,87.4429327 29.6747777,93.6742328 29.7802832,95.2144493 C29.9274976,97.3660996 30.6656867,103.459006 30.8576957,108.932335 C28.1754996,109.423222 25.4311176,109.735126 22.6371915,109.855961 C22.7273694,108.552416 22.8712741,107.437238 23.0496464,106.586478 C23.663355,103.658061 22.2986372,97.2569234 21.7523469,95.3505249 C21.2060566,93.443456 19.8532099,79.3555017 19.8532099,79.3555017 C19.8532099,79.3555017 19.4935892,83.101054 19.0703164,86.9909956 L18.9535226,88.052763 C18.5866378,91.350342 18.1932988,94.5161823 17.9542968,95.3505249 C17.4077825,97.2569234 16.0432887,103.658061 16.6572213,106.586478 C16.8350405,107.4346 16.9786055,108.545503 17.0696082,109.841431 C14.2753453,109.708168 11.5316996,109.382714 8.85094838,108.878969 C9.04606912,103.418297 9.77963844,97.3589039 9.92636052,95.2144493 C10.0896429,92.8307808 6.82780381,79.2113823 6.75948952,71.9249716 C6.69117524,64.638561 11.6743103,53.5389065 11.9473434,52.7215593 C12.2206005,51.9044356 11.7426245,45.3672226 10.8552108,44.3456504 C9.96779705,43.3243017 9.42173075,39.9874339 9.42173075,39.9874339 L9.42173075,40.2598085 C9.42173075,42.6432535 7.37387011,49.6572896 6.89589411,51.6318376 C6.74957492,52.2363595 6.7056635,52.6494792 6.70145477,53.1036373 L6.70174013,53.2880403 C6.7129698,54.2890729 6.86684054,55.6179245 6.55454667,59.5313703 C6.07679465,65.5240576 3.07320599,71.1759974 3.61927229,73.1509923 C4.16511462,75.1257638 3.82421514,77.0323858 3.82421514,78.7345592 C3.82421514,80.4371795 6.00870435,81.6629768 5.73544721,82.0032774 C5.46241406,82.3438015 5.05275234,82.4801005 5.05275234,82.4801005 C5.05275234,82.4801005 5.66713293,82.9569236 5.32600947,83.4335232 C4.98488602,83.9101228 4.84803347,83.7058978 4.43837175,83.9816239 C4.06792808,84.2306862 2.63588944,83.357611 2.3664802,83.1890519 L2.32264479,83.1613721 L2.32264479,83.1613721 C2.32264479,83.1613721 2.52736366,83.9101228 2.11792592,83.9782723 C1.7082642,84.0461984 0.888940763,83.0248496 0.206469871,81.5946039 C-0.476225002,80.164805 0.752760158,74.0360421 0.752760158,74.0360421 C0.752760158,74.0360421 1.50354533,71.9928977 1.36714075,63.2085387 C1.24210321,55.1560047 1.91957808,53.1117385 2.29645584,51.5156687 L2.33632428,51.3430627 C2.35560923,51.2573812 2.3738805,51.1724318 2.39095908,51.0873119 C2.73253049,49.384915 3.27814884,43.5966762 3.61972025,36.7868652 C3.86192544,31.9582486 4.30966212,30.5535601 4.86614263,29.5622523 L4.9525999,29.4125987 C4.98169627,29.3635307 5.01106556,29.3151437 5.04069473,29.2670319 L5.17573608,29.0510152 L5.17573608,29.0510152 L5.26758217,28.9050072 C5.3755465,28.7325484 5.48629453,28.5510254 5.59926661,28.3430303 C6.48668035,26.7085594 13.3125092,25.1422381 14.2686852,24.733788 C15.2244132,24.3251144 16.3844121,23.4400647 16.5147692,22.690867 C16.6451263,21.9416694 16.5147692,18.4008 16.5147692,18.4008 C14.5974896,16.6300302 14.4006101,13.7357991 14.4006101,13.7357991 C13.720827,13.7811576 13.6529607,12.6737841 13.6301146,12.3122565 C13.6074925,11.950729 13.1546024,10.3236317 13.1774485,9.51008311 C13.2000706,8.69653447 14.2041786,8.98410302 14.2041786,8.98410302 C14.2041786,2.68652278 17.4161625,1.96333815 19.7321645,1.9402728 L19.8532099,1.93967898 C22.1767914,1.93967898 25.5024651,2.57603891 25.5024651,8.98410302 Z" id="Combined-Shape" fill="#EBFAF9"></path>
                    <path d="M21.5370178,0.0727657405 C22.3213968,0.228860741 23.2747185,0.910786572 23.7879447,1.42866139 C24.0404633,1.58833856 24.2739903,1.77346403 24.4798207,1.98757468 C24.8363553,2.35861728 25.1366019,2.80451207 25.38286,3.28927846 C25.999093,3.77991292 26.3884269,4.51365745 26.4046907,4.56635996 C26.4154351,4.60039215 26.4233939,4.63402861 26.4317506,4.66845653 C26.4389135,4.69734432 26.4492599,4.72544066 26.4544331,4.75432845 L26.450006,4.75136053 L26.4452805,4.74839261 L26.4536372,4.79627511 C27.0497502,5.29449056 27.5881619,5.84137995 27.830109,6.61976739 C28.0935732,7.46638881 28.0996966,8.31403386 27.6990499,9.05339339 L27.5993042,9.22204284 L27.5757761,9.25459107 L27.5757761,9.25459107 L27.5519495,9.28892006 L27.5219051,9.33012473 L27.5010132,9.35658871 C27.5101659,9.38745512 27.5173288,9.41832153 27.5292669,9.44918793 C27.5422012,9.49799043 27.5537116,9.5470832 27.5636381,9.59647383 C27.6065817,9.61999199 27.6608203,9.64517203 27.7278888,9.67484234 C28.1500903,9.83476691 28.515921,9.96285329 28.6284049,10.5711535 C28.6847758,11.0192358 29.6696549,11.8515771 29.7541468,12.4594372 C29.8103887,13.1315606 29.0504775,13.0036209 28.9942355,13.4197182 C28.9379936,13.8038306 29.4726791,13.7077292 29.557042,14.0278718 C29.6020871,14.2071047 29.5390652,14.3300206 29.4526218,14.4396168 L29.3159715,14.5993958 C29.2272681,14.7064214 29.1574662,14.8216258 29.1912113,14.9880061 C29.2475823,15.3081486 29.528921,15.4041034 29.528921,15.8202007 C29.528921,16.2681362 29.4164371,16.2361513 29.1912113,16.5562939 C28.6004129,17.3245187 29.8103887,17.1003309 29.3319452,17.8047326 C29.0787274,18.1247284 28.8253807,17.9964953 28.8817516,18.5405323 C28.9096506,18.6994129 29.1106373,19.1282421 29.2614864,19.5083762 C29.3381111,19.7014676 29.4017993,19.8819947 29.4232946,20.0081952 L29.40051,19.9307938 C29.4856687,20.1322214 29.3802062,20.2635379 29.40051,20.4246049 C29.5468166,21.5432811 30.9829469,21.2972435 30.7862846,22.7088004 C30.697375,23.4549675 30.5034444,23.5848677 30.8844775,24.2653975 C31.2466248,24.864964 31.4727172,25.1971134 31.213906,25.8545202 C31.1591178,26.0213341 31.0602713,26.1719549 30.9587981,26.3160408 L30.8384211,26.486425 C30.6251412,26.7953118 30.4793599,27.0912665 30.8422419,27.4771264 C31.2285166,27.8576182 31.7152263,27.702395 31.5387666,28.5542939 C31.4949088,28.7522874 31.3951658,28.915308 31.2807878,29.0666842 L31.3050023,28.9815606 C31.2679985,29.0912784 31.2466217,29.2191107 31.2660719,29.3803748 C31.4067165,30.5003582 32.9183461,30.2368902 32.6952581,31.6545479 C32.5931405,32.4037644 32.3878859,32.5362789 32.780243,33.2141944 C33.1537044,33.8111488 33.3873526,34.1415538 33.1077776,34.8037543 C33.0627881,34.9306965 32.9914492,35.0486518 32.9125227,35.1615962 C33.073615,35.7859002 32.8160382,35.776513 32.7575326,36.4837196 L32.6983737,36.4350734 C33.0997404,36.812081 33.6128759,36.6507569 33.4175462,37.5070123 C33.2965778,38.0046104 32.8112151,38.2871165 32.6343337,38.7124954 C32.3174616,39.383111 32.7282241,39.6299642 33.0459236,40.1544688 C33.5291508,40.9893184 33.1822835,41.4261836 32.7274008,41.8598222 L32.5704729,42.0073431 C32.5494402,42.5134934 32.4934007,43.0399715 32.389381,43.5418934 C32.6679716,43.7524366 32.9518741,43.9836673 32.8526901,44.4253312 C32.8063158,44.6486406 32.6536468,44.8208612 32.4812371,44.9796578 C32.5049908,45.1360986 32.5181518,45.3275403 32.5181518,45.5657853 C32.5181518,46.1791426 31.1826296,48.0734761 32.1517321,49.3933883 C32.8202904,50.3037733 32.2672414,51.3350894 32.1517321,52.4254411 C32.0921797,52.9875867 32.469255,53.4612951 32.5181518,54.160612 C32.6358589,55.8534191 33.5767148,56.1968607 33.3580397,57.200441 C33.3165361,57.3909162 33.2760563,57.5651796 33.2368478,57.7254592 C33.2383538,57.7245113 33.2390148,57.7248951 33.2396757,57.7252792 C33.2026719,57.834997 33.1812951,57.9628293 33.2007453,58.1240934 C33.2582817,58.5822684 33.5452598,58.8089154 33.8490522,59.0138463 L34.0517381,59.1495521 C34.41934,59.4008902 34.7414754,59.6894377 34.6299315,60.3982665 C34.5278139,61.147483 34.3225593,61.2799975 34.7149164,61.957913 C35.0883778,62.5548674 35.322026,62.8852724 35.042451,63.5474729 C34.8282276,64.1519242 34.0165826,64.5526158 34.633047,65.178792 C35.0344138,65.5557996 35.5475492,65.3944755 35.3522196,66.2507309 C35.2312512,66.748329 34.7458884,67.0308351 34.5690071,67.456214 C34.252135,68.1268296 34.6628975,68.3736828 34.980597,68.8981874 C35.4638242,69.733037 35.1169569,70.1699022 34.6620742,70.6035408 L34.498218,70.7570985 C34.3875583,70.8602381 34.2756216,70.9657702 34.1718142,71.0788373 C33.6398814,71.6886078 33.8876134,71.9495416 34.2170605,72.2038381 L34.3612203,72.3134136 C34.6272242,72.517215 34.8821207,72.7470982 34.7873634,73.1690498 C34.6823207,73.6748704 34.031908,73.918568 33.8420297,74.3378721 C33.9208431,74.6364495 34.0604341,75.0022303 34.3031407,75.4929185 C34.8690835,76.6371041 33.638727,77.8859491 33.638727,78.4604736 C33.638727,81.1122321 35.5426076,80.0254397 34.1929989,83.924437 C33.7411843,85.229722 35.1879658,86.7631324 35.1768524,88.1718148 C35.1656146,89.5962681 34.4175305,89.9312602 34.2102061,90.780262 C34.2873479,90.8917942 34.3557615,90.9861232 34.4151837,91.0633438 C36.3842058,93.6221392 34.2724488,93.4695555 34.2724488,95.5918208 C34.2724488,97.8746272 36.2426476,97.9997464 35.6362657,98.8732171 C33.9046735,101.367511 35.09862,101.905348 35.5137019,102.018532 L35.5736003,102.033406 C35.6168512,102.043102 35.6422222,102.046555 35.6405717,102.047546 C33.1001292,102.078897 33.4971782,100.975643 33.8061142,100.017873 L33.8606409,99.8456213 C33.9824655,99.4487701 34.0554752,99.092063 33.8489761,98.8732171 C33.6957808,98.7108622 32.9587371,98.475186 32.4528769,97.8968007 C31.8299867,98.8779862 33.486803,98.9657477 33.2887748,99.9377588 C33.1716285,100.56246 32.2503462,100.775155 32.3646752,101.431739 L32.4115151,101.634625 L32.2584234,101.456465 C31.6907772,100.77616 32.4891392,100.677363 32.7071973,100.328388 C33.1157505,99.7201911 32.5956138,99.4982503 32.1868805,99.1414786 C32.4051651,100.07587 32.437022,101.095062 30.1301839,101.43156 C30.0159612,101.448221 32.1385824,100.425131 29.633558,98.2959872 C28.5821455,97.4023398 28.3652723,94.7503424 28.3652723,94.0518666 C28.3652723,93.6227757 28.7105932,91.9245315 29.1425279,91.0772455 C28.9023007,90.766847 28.6830683,90.3752727 28.5774489,89.7408524 C28.4990704,89.2700587 28.6773362,88.7386883 28.904513,88.1844857 L28.9026285,88.2303267 C29.0035897,87.5714453 28.0294719,87.3643901 27.8881718,86.7390084 C27.6375459,85.7075261 29.513386,85.7962744 28.4671481,84.6383714 C28.3878244,84.5549428 28.3040027,84.4758317 28.2196127,84.3987999 L28.0512394,84.2468452 C27.5508327,83.7953186 27.1242837,83.3649222 27.6204309,82.4721689 C27.6887494,82.354804 27.761869,82.2509742 27.8307445,82.1532183 C27.7967988,82.0992353 27.7635182,82.0418022 27.7303183,81.9822471 C27.3837538,81.360568 26.9799871,79.9908973 26.9799871,78.4185677 C26.9799871,76.7714462 25.7626119,76.9294419 25.462504,75.1267938 C25.2311609,73.7371932 27.2357081,71.819847 26.1343848,70.3453355 C24.110703,67.6359201 25.4879095,65.442802 25.462504,65.2943995 C25.3678471,64.7414736 23.9620575,63.6859489 24.3420425,62.4673172 L24.383876,62.326 L24.4253672,62.1485325 C24.5378122,61.4915134 23.5674563,61.2674891 23.4370922,60.6397366 C23.342335,60.217785 23.5972315,59.9879018 23.8632353,59.7841003 L24.0073951,59.6745248 C24.1733411,59.546433 24.3185539,59.4166572 24.3538332,59.2414629 C24.349493,59.1773453 24.3462619,59.1098408 24.3442863,59.038813 C24.3131511,58.9038981 24.2227755,58.7445538 24.0526414,58.549524 C23.4557489,57.8993884 22.5900807,57.4983766 23.2438586,56.3688742 C23.4188977,56.0798942 23.6221864,55.8751967 23.7164667,55.6374729 C23.6760834,55.3848981 23.6445251,55.1276522 23.6247598,54.8690426 L23.6554485,54.9269008 C23.4785672,54.5015218 22.9932044,54.2190158 22.8722361,53.7214176 C22.6769064,52.8651623 23.1900418,53.0264864 23.5914086,52.6494788 C24.207873,52.0233026 23.396228,51.6226109 23.1820046,51.0181597 C22.9024296,50.3559591 23.1360779,50.0255541 23.5095392,49.4285997 L23.5144266,49.4183309 C23.4451765,48.7278878 23.1276209,48.2098609 23.1855246,46.8213852 C23.0233931,46.643661 22.8927216,46.4476108 22.8479374,46.2074028 C22.7361955,45.6558854 23.0555669,45.3102099 23.4115792,45.0003677 C23.4689145,44.6888719 23.5403318,44.348587 23.6266702,43.9780723 L23.6309041,43.9559446 C23.7408178,43.8141626 23.401248,43.2318819 23.2752259,42.6131299 L23.2765874,42.6129979 L23.0965274,42.4586995 C22.4998584,41.9425414 22.0377454,41.4445784 22.6633659,40.3252938 C22.8308585,40.038587 23.0165966,39.8110066 23.1554798,39.5842963 C23.2451649,39.3231467 23.3156266,39.1011957 23.3691573,38.9032461 C23.36585,38.7377395 23.3232072,38.5509807 23.2265685,38.33162 C23.0013952,37.7483043 22.3692428,37.3668445 22.218583,36.6831087 C21.9761616,35.5063451 22.6467024,35.7203686 23.179309,35.1943773 C23.7489076,34.5872015 23.4101327,34.1415434 23.0598389,33.6472735 L22.9296904,33.4592332 C22.8237028,33.29995 22.7275383,33.1333546 22.6685666,32.9530342 C22.3124987,32.0450365 22.6243359,31.5859697 23.1238848,30.7573432 C23.6495279,29.8168478 23.3824081,29.6375555 23.2605375,28.6067868 C22.9907613,26.6568614 23.0579637,26.1612495 23.2605375,24.6156484 C23.2617764,24.6058432 23.2666213,24.5977484 23.2747481,24.5912194 C23.1944212,24.2378744 23.1195642,23.4574468 23.1464863,22.5974987 C23.018119,21.915693 23.1167702,20.4289344 23.1239533,20.0503174 C23.1300953,19.7265821 23.1482729,19.2935604 23.16431,18.9524178 C23.1600451,18.7471061 23.1525077,18.5686695 23.1412132,18.4291508 C23.7781011,17.7950572 24.1285559,17.3150519 24.4989598,16.5671751 C24.6613537,16.2392882 24.7775978,15.9736982 24.8727268,15.7078835 L24.8403351,15.8327046 C24.9642347,15.3545778 25.0987122,14.7596423 25.2434005,14.0479556 L25.3060338,13.7357991 L25.4057007,13.7290788 C25.5966558,13.7021977 25.7373369,13.5946733 25.8277439,13.4065056 C25.9859561,13.0772122 26.0574893,12.802844 26.0574893,12.5215825 C26.0574893,12.240321 26.2000772,11.6996632 26.2689519,11.2477282 C26.2830477,11.155236 26.6491326,9.65692631 26.4759155,9.24418118 L26.4575734,9.20988593 L26.4575734,9.20988593 L26.432876,9.171 L26.462876,9.222 L26.4317506,9.17475508 C26.3236356,9.06764627 26.2269357,9.00297424 26.1212009,8.96888149 L26.1403686,8.97117326 C26.0155349,8.94821216 25.9087092,8.93957549 25.8175948,8.94058207 C25.7584178,8.94491607 25.6924846,8.95331297 25.6188385,8.9647634 L25.570876,8.972 L25.4918562,9.00014846 C25.3714445,9.05129549 25.3308238,9.1167886 25.3308238,9.1167886 C21.2146346,8.47877096 18.6797302,5.39670409 17.6415782,3.84119334 C17.5676777,4.13022 17.3957583,4.34168804 17.0346951,4.29770879 C16.8752721,4.28563131 16.9013541,4.78558508 16.8094693,4.70122651 C16.7084997,4.60852714 16.5771825,4.71943453 16.4155177,5.03394869 C16.3817726,5.51407453 16.2568458,5.78674005 16.0407374,5.85194526 L15.9653242,5.86599661 L15.8245903,5.86599661 C15.9372032,6.31422557 16.2749129,6.21812411 16.0498161,6.73032289 C15.9934451,6.9223791 15.7121064,6.89039418 15.7400984,7.14627349 C15.7682194,7.37031461 15.9653242,7.3064915 16.0498161,7.43443116 C16.6406145,8.36258055 15.4587597,8.33044891 15.4868806,9.09867373 C15.4868806,9.38683139 15.8527113,9.5788876 15.9372032,9.802782 C16.105929,10.1229246 16.134179,10.507037 15.9934451,10.8591645 C15.8915389,11.1140168 15.4654674,11.4863916 15.4942334,11.8062407 C15.5424467,12.125075 15.8119488,12.2265929 15.8245903,12.2353961 C16.105929,12.4594372 16.3872678,12.7475949 16.3029048,13.227662 C16.162171,13.7398608 15.3462758,13.9958868 15.9372032,14.5077922 C16.2466629,14.7959499 16.6968565,14.6999951 16.8094693,15.2758703 C16.8939613,15.724246 16.5563806,15.9163022 16.4718887,16.3004146 C16.2749129,17.228564 17.6818645,16.9404063 17.8224694,17.8685557 C17.9350823,18.572664 16.8375903,18.8608216 17.4566387,19.4369902 C17.6677879,19.6470288 18.2250702,19.6039327 18.0389188,20.0987074 L17.9914532,20.2050683 L17.9069613,20.3651396 L17.9069613,20.2049216 C17.8788403,19.6930163 17.147179,19.6930163 16.9502032,19.2447873 C16.8180559,18.9568083 16.9530496,18.7275992 17.1107113,18.5130739 L17.2164945,18.3717486 C17.4240461,18.0915135 17.5753144,17.8199659 17.0908081,17.4526051 C16.5561226,17.068346 15.8245903,17.036361 16.105929,16.07608 C16.2466629,15.6282912 16.4998806,15.3722652 16.162171,14.9238895 C15.9651952,14.6358786 15.5712435,14.5077922 15.4025177,14.1559581 C15.121179,13.5476579 15.5150016,13.5797895 15.7400984,13.227662 C16.0778081,12.6516401 15.4306387,12.4915689 15.1772919,12.0754715 C14.8677032,11.6272426 14.9804451,11.3392316 15.149171,10.8270328 C15.3180258,10.2508642 15.149171,10.1870411 14.9520661,9.64271071 C14.5582435,8.6187533 15.504811,8.01087785 15.4529593,7.55553398 C15.3895106,6.99834834 15.3745257,6.21827083 15.3462758,7.3064915 C15.3028009,8.17240786 14.8513,8.33066159 14.2846355,8.55007825 C14.2550058,8.69034405 14.2283356,8.83539618 14.2041788,8.98410302 L14.0518069,8.96378962 C13.9083434,8.94740722 13.7916043,8.94281781 13.7015897,8.9500214 C13.5815701,8.95962619 13.4792132,8.9925849 13.394519,9.04889754 C13.2544795,9.14591228 13.1815328,9.31105994 13.175679,9.54434049 C13.1721436,9.6852304 13.2048212,9.94835516 13.2313014,10.2205798 C13.2487888,10.4003546 13.5136267,11.5900567 13.5774426,11.9846252 C13.5890033,12.056104 13.6121337,12.1550712 13.617343,12.2094267 C13.6509603,12.5602038 13.6909374,12.8903892 13.7167532,12.989831 C13.7246351,13.0201914 13.7396985,13.0793728 13.757913,13.1544062 L13.7630291,13.1746404 C13.9725664,13.8068464 14.4006104,13.7357991 14.4006104,13.7357991 C14.7109757,16.8968784 16.5147694,18.4008 16.5147694,18.4008 C16.5510911,19.5239721 16.5709029,20.3972274 16.5742049,21.0205657 L16.5739108,21.4263664 C16.5712836,21.7843507 16.5621195,22.0541584 16.5467271,22.3514124 C16.5436723,22.4104061 16.5379196,22.4803603 16.5294689,22.5612748 L16.5147692,22.690867 C16.4506901,22.9125241 16.3717392,23.0892667 16.2779166,23.2210948 C16.1371828,23.418837 16.0108252,23.5404114 15.903339,23.6461056 C15.8004436,23.7472855 15.5853799,23.9385477 15.3462758,24.1151611 C15.0783617,24.3130549 14.7804544,24.4962474 14.580099,24.5869293 C14.0153502,24.8425376 13.1544602,25.1214049 11.997429,25.4235312 C11.7220388,25.1460877 11.496942,24.7848509 11.3221387,24.339821 C11.2028517,24.0361296 11.4197855,23.4877872 11.3221387,23.1052914 C11.2642971,22.8787183 10.7295432,22.4345486 10.7295432,22.1714347 C10.7295432,21.4639592 10.9901817,21.1065351 10.928058,20.880995 C10.8535936,20.6106516 10.4484688,20.1572569 10.3935016,19.9106795 C10.2011403,19.0477661 10.3798974,18.5794019 10.3090096,18.5088408 C9.9432134,18.0926555 10.0001473,18.0130297 10.259975,17.7908895 L10.3935016,17.6764995 C11.3502596,16.8444516 9.68996124,16.7483501 10.1120338,15.724246 C10.2810177,15.2758703 10.7312112,15.3401336 10.928058,14.9561679 C11.2376467,14.4436756 10.7593322,14.3799993 10.5059855,14.05971 C10.0639723,13.4702571 10.3072274,13.2189032 10.5962292,13.0003967 L10.7305343,12.9007683 C10.9298781,12.7514898 11.1039915,12.5954465 11.0406709,12.3313508 C10.956308,11.9473852 10.4497435,11.9795168 10.4778645,11.4993029 C10.5024703,11.247165 10.7425749,11.0196278 10.934175,10.8808753 L11.01255,10.8270328 L11.1815338,10.7310781 C12.0537999,10.2188793 11.6034774,10.0589547 11.9411871,9.96285329 C12.5041225,9.83476691 12.2226548,9.00271899 12.2788967,8.58662166 C12.3468407,8.11007299 12.5195681,7.90303007 12.7402596,7.78823549 C12.7543914,7.70082168 12.7780841,7.61129709 12.8119185,7.52003756 C12.8035617,7.18842156 12.6798026,6.33708472 12.8119185,5.96035628 C13.0608343,5.25298488 13.2262493,4.8692251 13.6105982,4.35616282 C14.0102043,3.2428443 14.8058049,2.16087967 16.294651,1.41626326 L16.3029048,1.404905 C16.6663634,1.03539416 17.4677932,0.639611492 18.1588734,0.380237639 C18.5120081,0.247700302 18.8066243,0.245516925 19.0606952,0.104750655 C19.4350531,-0.0232868147 20.2604939,-0.0339484527 21.5370178,0.0727657405 Z" id="Knee-lenght" fill="#34CCBF"></path>
                </g>
                <circle id="Oval-" stroke="#A7ADAD" cx="60" cy="60" r="60"></circle>
            </g>
        </g>
    </g>
</svg>