<?xml version="1.0" encoding="UTF-8"?>
<svg width="122px" height="122px" viewBox="0 0 122 122" version="1.1" xmlns="http://www.w3.org/2000/svg" xmlns:xlink="http://www.w3.org/1999/xlink">
    <title>Calf length</title>
    <g id="Page-1" stroke="none" stroke-width="1" fill="none" fill-rule="evenodd">
        <g id="Hair-lenght-states" transform="translate(-933.000000, -1392.000000)">
            <g id="Calf-length" transform="translate(934.000000, 1393.000000)">
                <g transform="translate(42.000000, 10.000000)">
                    <path d="M23.5863233,8.90088482 C23.5863233,8.90088482 24.5147799,8.63492289 24.5359094,9.38734511 C24.5572461,10.1397673 24.1383842,11.6446117 24.1172546,11.9789757 L24.1063468,12.1332673 C24.0715452,12.5527241 23.9545883,13.3322662 23.4046507,13.2955596 C23.4046507,13.2955596 23.222771,15.972331 21.4495473,17.6100531 C21.4495473,17.6100531 21.3287775,20.8848773 21.4495473,21.5777835 C21.5701099,22.2706898 22.6427446,23.0892408 23.5268706,23.4672085 C24.4107895,23.8449695 30.723963,25.2936044 31.5449076,26.8052683 C32.365645,28.3167257 33.0596052,28.3167257 33.3755125,34.6146711 C33.6914197,40.9128232 34.1960427,46.2661595 34.51195,47.8406458 C34.5341189,47.9511361 34.5584618,48.061316 34.5845206,48.1734926 L34.6248385,48.3435436 C34.9775073,49.806609 35.5719047,51.7818051 35.4588432,59.0511375 C35.3432004,66.4984504 35.917205,68.7068752 36.0136755,69.0232286 L36.0222491,69.0503951 C36.0255326,69.0603863 36.0272691,69.0651104 36.0272691,69.0651104 C36.0272691,69.0651104 37.1639138,74.7333853 36.5325135,76.0557555 C35.9009062,77.3785389 35.1433502,78.3231481 34.7646758,78.2603257 C34.3857942,78.1972966 34.5751314,77.5048037 34.5751314,77.5048037 C34.5751314,77.5048037 32.9972524,78.5180215 32.6183708,78.2634255 C32.2394892,78.0084161 32.1129192,78.1972966 31.7976334,77.7565066 C31.4819333,77.3157165 32.050152,76.8747198 32.050152,76.8747198 C32.050152,76.8747198 31.6712705,76.7486617 31.4187518,76.4337231 C31.166026,76.1189912 33.1865896,74.9852949 33.1865896,73.4106019 C33.1865896,71.8363221 32.8708895,70.0729553 33.3759268,68.2465594 C33.8807569,66.4199568 31.1030517,61.1926786 30.6609887,55.6502552 C30.2191328,50.1080384 30.7875588,50.1706542 30.3454957,48.3442583 C29.9034327,46.518069 28.0096464,40.0310364 28.0096464,37.8266729 L28.0096464,37.5747633 C28.0096464,37.5747633 27.5046091,40.6609136 26.6836645,41.6055228 C25.8627199,42.5503386 25.4206569,48.5963745 25.6733827,49.3521031 C25.9261085,50.1080384 30.5350401,60.3737143 30.4716515,67.1126564 C30.40847,73.8515986 27.3917111,86.4476961 27.5427251,88.6522663 C27.693532,90.8564232 28.5148909,97.5325429 28.577658,102.948702 C28.5959602,104.527996 28.2922795,106.728477 27.8559609,109.19257 C25.6280301,109.562572 23.3590967,109.807983 21.0559409,109.923524 L21.0625824,109.999794 C20.6419194,105.531838 20.8537311,101.383253 21.3177984,99.1698517 C21.8853957,96.4614624 20.6232168,90.5412779 20.1179723,88.7781177 C19.6458586,87.1299953 18.5224122,75.6452281 18.377105,74.1461159 L18.3654926,74.0260524 L18.3633004,74.003311 L18.3633004,74.003311 L18.3615279,73.9848895 C18.3615279,73.9848895 18.3601831,73.9988959 18.3575639,74.0260524 L18.3459534,74.1461159 C18.2720373,74.9088221 17.9449716,78.2563039 17.5793052,81.5780627 L17.5031696,82.2640998 C17.1714722,85.2279156 16.8206408,88.0263426 16.6052907,88.7781177 C16.0998391,90.5412779 14.8378673,96.4614624 15.4056717,99.1698517 C15.8681423,101.375637 16.0800902,105.503312 15.6649837,109.953686 C13.3699021,109.867532 11.1089243,109.650918 8.88797884,109.312539 C8.44056604,106.798111 8.1269525,104.552928 8.14560503,102.948702 C8.20857933,97.5325429 9.02973105,90.8564232 9.18053793,88.6522663 C9.27553062,87.2655205 8.11709389,81.7670388 7.22881031,76.201061 L7.09448816,75.3447696 C6.63325882,72.349704 6.2730117,69.3952013 6.25161153,67.1126564 C6.22147884,63.8986994 7.2539974,59.882567 8.36980818,56.4784407 L8.58654863,55.8275994 C9.74523946,52.4012546 10.9253563,49.7242559 11.0496731,49.3521031 C11.302399,48.5963745 10.8603359,42.5503386 10.0395985,41.6055228 C9.2188611,40.6609136 8.71382379,37.5747633 8.71382379,37.5747633 L8.71382379,37.8266729 C8.71382379,40.0310364 6.8198303,46.518069 6.37776728,48.3442583 C5.93570427,50.1706542 6.50433734,50.1080384 6.06206718,55.6502552 C5.62021132,61.1926786 2.84229895,66.4199568 3.34733626,68.2465594 C3.85216642,70.0729553 3.53688062,71.8363221 3.53688062,73.4106019 C3.53688062,74.9852949 5.55723702,76.1189912 5.30451121,76.4337231 C5.05199255,76.7486617 4.67311099,76.8747198 4.67311099,76.8747198 C4.67311099,76.8747198 5.24132976,77.3157165 4.9258368,77.7565066 C4.61034385,78.1972966 4.48377379,78.0084161 4.10489223,78.2634255 C3.76408526,78.4925619 2.45175472,77.6947691 2.19269668,77.5329192 L2.14813159,77.5048037 C2.14813159,77.5048037 2.33746879,78.1972966 1.95879439,78.2603257 C1.57991283,78.3231481 0.822149706,77.3785389 0.190956643,76.0557555 C-0.440443572,74.7333853 0.696201107,69.0651104 0.696201107,69.0651104 C0.696201107,69.0651104 1.25864446,67.5345088 1.27916559,61.3057437 L1.27915948,60.5941637 C1.27759384,60.1066732 1.27283025,59.5927602 1.26441987,59.0511375 C1.15154367,51.7818051 1.74579477,49.806609 2.09843065,48.3435436 L2.13874529,48.1734926 C2.16480228,48.061316 2.18914411,47.9511361 2.21131304,47.8406458 C2.5272203,46.2661595 3.03184331,40.9128232 3.34775057,34.6146711 C3.58021063,29.9803339 4.01737647,28.7561693 4.55921156,27.8305755 L4.64338311,27.6901124 L4.7291253,27.5518426 C4.87329283,27.3218219 5.02366741,27.090449 5.17856261,26.8052683 C5.99930003,25.2936044 12.3122664,23.8449695 13.1965996,23.4672085 C14.0805185,23.0892408 15.1533602,22.2706898 15.2739229,21.5777835 C15.3944855,20.8848773 15.2739229,17.6100531 15.2739229,17.6100531 C13.5006992,15.972331 13.3186123,13.2955596 13.3186123,13.2955596 C12.6899051,13.3375101 12.6271379,12.3133396 12.6060084,11.9789757 C12.585086,11.6446117 12.1662241,10.1397673 12.1873536,9.38734511 C12.208276,8.63492289 13.1369397,8.90088482 13.1369397,8.90088482 C13.1369397,3.08012614 16.103868,2.40846919 18.2455501,2.38633755 L18.3615279,2.38574748 C20.5105259,2.38574748 23.5863233,2.97429416 23.5863233,8.90088482 Z" id="Combined-Shape" fill="#EBFAF9"></path>
                    <path d="M21.4372263,44.1402153 L21.441613,43.9432387 L21.441613,43.9432387 L21.4435438,43.8934133 L21.4435438,43.8934133 C21.2930661,43.7301929 21.1725868,43.5491359 21.131245,43.3273913 C21.0280046,42.8178343 21.3226702,42.4982639 21.6515268,42.2119271 L21.6745404,42.0914179 C21.7240523,41.8355863 21.7826324,41.5609627 21.8514673,41.2655629 L21.8559895,41.245 L21.8735987,41.200816 C21.8747202,41.1937519 21.8753967,41.1862265 21.8756548,41.1782562 C21.8760357,41.1673219 21.875587,41.1550814 21.8743603,41.1419785 L21.8756548,41.1782562 C21.8763122,41.1579608 21.874257,41.13478 21.8699278,41.108981 L21.8743603,41.1419785 C21.8721422,41.1182848 21.8673802,41.091771 21.8605322,41.0627161 L21.8699278,41.108981 C21.8600889,41.0503491 21.8385048,40.9781945 21.8103222,40.8956535 L21.7922169,40.843508 C21.7645298,40.7653002 21.7323245,40.6791459 21.6993877,40.5873538 L21.6858249,40.5493969 C21.6256951,40.3797158 21.5648608,40.1924511 21.5260923,40.0014785 L21.3580414,39.8574934 C20.8075573,39.3810671 20.3831227,38.9202856 20.9605414,37.8872379 C21.1156412,37.6217444 21.2876576,37.4110705 21.4161573,37.2011363 L21.4512803,37.0968239 C21.4852356,36.9960832 21.5158853,36.901669 21.5433865,36.8125168 C21.5687773,36.7302446 21.5917606,36.6514577 21.6121198,36.576404 C21.6108118,36.4214621 21.5714515,36.247706 21.4814274,36.0433599 C21.2731726,35.5038719 20.6885174,35.1510733 20.5491774,34.5187104 C20.3249705,33.4303635 20.9451299,33.6283063 21.4377188,33.1418356 C21.6241538,32.9431012 21.7053676,32.7630762 21.7181257,32.5931465 L21.7173741,32.539 L21.7084088,32.4205891 C21.626668,31.9750214 21.1331719,31.5820498 20.9653513,31.068897 C20.6360367,30.2291223 20.9244439,29.8045478 21.3864589,29.0381805 C21.8726075,28.1683497 21.6255579,28.0025287 21.5128441,27.0492074 C21.2633377,25.2457907 21.3254908,24.7874169 21.5128441,23.3579454 C21.5138991,23.3495959 21.5177813,23.3425874 21.5242567,23.3368155 C21.4519889,23.0115981 21.3824141,22.2884744 21.4073603,21.4914912 C21.28866,20.86055 21.3798796,19.4857639 21.3865223,19.1356331 C21.3887073,19.0204628 21.3925393,18.8903374 21.3972722,18.7558458 L21.3998031,18.6857728 C21.405631,18.5283117 21.4124983,18.3674351 21.4192389,18.2196923 L21.4235972,18.1082411 C21.4195887,17.9229757 21.4126976,17.7624238 21.4024854,17.6362737 C21.9915203,17.0498231 22.3156435,16.6058832 22.6582169,15.9141985 C22.7695229,15.6894623 22.8573872,15.4963698 22.9312337,15.3113855 L22.9983741,15.134 L22.9983741,15.1338074 L23.0007567,15.1282322 L23.0153741,15.07 L23.0311258,15.008802 C23.127204,14.6190049 23.2297553,14.1574968 23.3385944,13.6241727 L23.4046509,13.2955596 L23.4968293,13.2893442 C23.6734369,13.2644829 23.8035478,13.1650374 23.887162,12.9910078 C24.0334869,12.686456 24.0996454,12.4327026 24.0996454,12.1725738 C24.0996454,11.912445 24.2315199,11.4124099 24.2952196,10.9944313 C24.3081039,10.9098887 24.6389618,9.55538401 24.4920494,9.15522077 L24.473997,9.117681 L24.4623741,9.098 L24.4693741,9.11280736 L24.4457864,9.07721213 C24.3683297,9.00047636 24.2972081,8.94729161 24.2236301,8.9125604 L24.1563741,8.88580736 L24.0752147,8.87306624 C24.0271575,8.86689105 23.9824223,8.86319124 23.9408084,8.86155746 C23.9359335,8.86136977 23.9322329,8.86124328 23.9285574,8.86113307 C23.8961979,8.86428124 23.8597721,8.86576826 23.8237026,8.86638074 L23.8771484,8.86064094 C23.8225756,8.86468373 23.7617203,8.87245292 23.6937408,8.88302944 L23.668763,8.88638451 C23.5987485,8.9034249 23.5470803,8.9273897 23.5099395,8.95053244 C23.5046401,8.95353486 23.5000345,8.95657604 23.4956695,8.95958386 L23.5099395,8.95053244 C23.4985117,8.95765322 23.4884593,8.96469618 23.479671,8.97143566 L23.4956695,8.95958386 C23.4820551,8.9689654 23.470783,8.97802237 23.4615934,8.98622544 L23.479671,8.97143566 C23.467836,8.98051152 23.4582935,8.98903702 23.450772,8.99646105 L23.4615934,8.98622544 C23.4520531,8.99474162 23.4447574,9.00233748 23.4394157,9.00842077 L23.4275783,9.023601 L23.4275783,9.023601 C23.2968141,9.00333229 23.1677755,8.98039661 23.0404592,8.95494278 C22.7310816,8.89308912 22.4319012,8.8163747 22.1428437,8.72692864 C22.108096,8.71617545 22.0736864,8.70530017 22.0394213,8.69424662 C21.9409914,8.66249539 21.8436536,8.62923653 21.7475097,8.59459009 C21.738445,8.59132376 21.7292242,8.58798439 21.7200145,8.58463231 C21.6434215,8.55675324 21.5677454,8.52805614 21.4928264,8.49852705 C21.4600736,8.48561707 21.4275862,8.47259732 21.3952425,8.45942337 C21.1356277,8.35368936 20.8850044,8.23788668 20.6436079,8.11400872 C20.5049593,8.04286085 20.3692239,7.96897371 20.2365307,7.89277481 L20.1970916,7.87000724 C20.1329587,7.83278937 20.0695428,7.7950349 20.006843,7.75678474 C19.9867595,7.7445335 19.9665219,7.73209037 19.9463594,7.71959661 C19.7164021,7.57710249 19.4962188,7.42802305 19.2857635,7.27442076 C19.2497946,7.24817151 19.2136568,7.22145074 19.1778101,7.19460513 C19.1281224,7.15739299 19.0790937,7.12001816 19.0306216,7.08243279 C19.0008732,7.05936969 18.9706367,7.03567471 18.9406199,7.01190361 C18.8773343,6.96178028 18.8155185,6.91172734 18.7546617,6.8614058 C18.7457509,6.85403902 18.73607,6.84600851 18.7264135,6.83797143 C18.6748418,6.79504443 18.6243644,6.752274 18.5745706,6.70935781 C18.5455054,6.68430973 18.5162381,6.65882933 18.4872107,6.63330578 C18.4558806,6.60575881 18.4246439,6.57799433 18.3936898,6.55018927 C18.3547101,6.51517512 18.3161787,6.48009684 18.278095,6.44497483 C18.2515663,6.42051051 18.2250264,6.39581052 18.1987075,6.37109606 C18.1560581,6.3310475 18.1139081,6.29088299 18.0723396,6.25071096 C18.0376357,6.21717192 18.0034651,6.18375426 17.9696965,6.15034903 C17.9465634,6.12746731 17.9231697,6.1041398 17.899972,6.08082431 C17.8632703,6.04393954 17.826701,6.00671548 17.7906316,5.96954654 C17.7564782,5.93435116 17.7228822,5.89932049 17.689731,5.8643595 C17.6048563,5.7748569 17.5226497,5.68553368 17.443369,5.5970183 C17.4021759,5.55103031 17.3614861,5.50493064 17.3215964,5.45910201 C17.1816243,5.29830355 17.0512042,5.14045766 16.930637,4.98813677 C16.7508435,4.76098843 16.5930002,4.54618517 16.4569024,4.35086466 C16.3886256,4.33042267 16.3236763,4.31094957 16.2620528,4.29245275 C16.1778757,4.4799051 16.0225805,4.59922435 15.7547839,4.56660542 C15.6073392,4.55543538 15.6314615,5.01782485 15.5464806,4.93980461 C15.4530973,4.85407026 15.3316467,4.95664456 15.1821287,5.24752753 C15.150919,5.69157884 15.0353787,5.94375749 14.8355077,6.00406347 L14.7657607,6.01705907 L14.6356009,6.01705907 C14.7397526,6.43161009 15.0520883,6.34272927 14.8439043,6.81644371 C14.7917688,6.99406967 14.5315686,6.96448796 14.5574574,7.20114164 C14.5834655,7.4083493 14.7657607,7.34932158 14.8439043,7.46764842 C15.3903127,8.32606078 14.2972572,8.29634338 14.3232653,9.0068472 C14.3232653,9.27335398 14.661609,9.45097993 14.7397526,9.6580519 C14.8958011,9.95414039 14.9219285,10.3093923 14.7917688,10.6350625 C14.6975193,10.8707663 14.3034609,11.2151625 14.3300656,11.5109796 C14.3746563,11.8058581 14.6239092,11.8997484 14.6356009,11.9078902 C14.8958011,12.1150979 15.1560013,12.3816046 15.0779771,12.8256017 C14.9478173,13.2993161 14.1932248,13.5361055 14.7397526,14.0095486 C15.0259609,14.2760553 15.4423289,14.1873102 15.5464806,14.7199167 C15.6246241,15.1346034 15.3124078,15.3122293 15.2342642,15.6674813 C15.0520883,16.5258936 16.3533278,16.2593868 16.4833683,17.1177992 C16.5875199,17.7690039 15.5724886,18.0355107 16.1450245,18.5683886 C16.3403089,18.7626457 16.8557195,18.7227877 16.6835546,19.1803872 L16.6396554,19.2787567 L16.5615118,19.4268009 L16.5615118,19.278621 C16.5355037,18.8051779 15.8588162,18.8051779 15.6766403,18.3906269 C15.3643046,17.7099762 16.6655442,17.384306 15.8066807,16.7331013 C15.3121692,16.3777137 14.6356009,16.348132 14.8958011,15.4600022 C15.0259609,15.0458583 15.260153,14.8090689 14.9478173,14.3943822 C14.7656414,14.1280111 14.4012895,14.0095486 14.245241,13.6841497 C13.9850408,13.1215545 14.3492734,13.1512719 14.5574574,12.8256017 C14.869793,12.2928595 14.2712491,12.1448153 14.0369377,11.7599816 C13.7506101,11.3454306 13.8548811,11.0790595 14.0109296,10.6053451 C14.1670974,10.0724672 14.0109296,10.0134395 13.8286344,9.51000766 C13.4644018,8.56298585 14.3398484,8.00078347 14.2918927,7.57965211 C14.2870025,7.53670868 14.2824237,7.49233369 14.2781231,7.44764638 L14.2660228,7.3137668 C14.2282507,6.87184012 14.2149977,6.51060773 14.1932248,7.34932158 C14.1530281,8.14994378 13.7356824,8.29645484 13.211809,8.4992936 L13.1826496,8.64091177 C13.1664949,8.72619584 13.1512412,8.81284784 13.13694,8.90088483 L12.9960166,8.88209768 C12.8633323,8.86694618 12.7553645,8.8627016 12.6721131,8.86936395 C12.5611113,8.87824707 12.4664451,8.90872941 12.3881144,8.96081097 C12.2585968,9.05053646 12.191131,9.20327565 12.1857171,9.41902854 C12.1824473,9.54933261 12.2126697,9.79268734 12.2371603,10.0444583 C12.2533337,10.2107256 12.4982729,11.3110387 12.557294,11.6759611 C12.567986,11.7420693 12.5893785,11.8336005 12.5941963,11.883872 C12.6252879,12.2082933 12.6622612,12.51367 12.6861374,12.6056402 C12.6896783,12.6192795 12.6947863,12.639208 12.7010343,12.6640511 L12.7289363,12.7765639 C12.9227299,13.3612687 13.3186125,13.2955596 13.3186125,13.2955596 C13.6056584,16.2191295 15.2739231,17.6100531 15.2739231,17.6100531 C15.310875,18.7527132 15.3293509,19.6156949 15.3293509,20.1989981 C15.3293509,20.64058 15.3205626,20.9339304 15.3034796,21.263834 C15.3006544,21.3183952 15.2953338,21.3830933 15.2875181,21.4579283 L15.2739229,21.5777835 C15.2146584,21.7827863 15.1416395,21.9462492 15.0548664,22.0681724 C14.9247066,22.2510571 14.8078429,22.3634969 14.7084328,22.4612497 C14.6132685,22.5548274 14.4143637,22.731719 14.1932248,22.8950625 C13.9454407,23.0780874 13.6699167,23.2475157 13.4846152,23.3313841 C12.9622991,23.5677872 12.1660925,23.8257016 11.0959955,24.1051275 C10.8412969,23.8485298 10.6331129,23.5144348 10.4714435,23.1028425 C10.3611192,22.8219691 10.5617536,22.3148267 10.4714435,21.9610699 C10.4179479,21.7515205 9.92337303,21.3407238 9.92337303,21.0973791 C9.92337303,20.4430601 10.1644283,20.1124913 10.1069724,19.9038973 C10.0381028,19.6538662 9.66341729,19.2345376 9.61258006,19.0064869 C9.43467195,18.208409 9.59999804,17.7752356 9.53443649,17.7099762 C9.14407656,17.2658435 9.27423631,17.2361261 9.61258006,16.9401733 C10.4974516,16.1706417 8.96190064,16.0817609 9.35226057,15.1346034 C9.50854771,14.7199167 9.92491573,14.7793515 10.1069724,14.4242353 C10.3932999,13.9502494 9.95092382,13.8913574 9.71661242,13.5951332 C8.96190064,12.5886766 10.3672918,12.6479757 10.211124,11.9966353 C10.1330997,11.6415191 9.66459624,11.6712365 9.69060433,11.2271038 C9.71336141,10.9939104 9.93542559,10.7834693 10.1126297,10.655142 L10.1851159,10.6053451 L10.3414031,10.5166 C11.148131,10.0428855 10.7316437,9.89497697 11.0439794,9.80609615 C11.5646183,9.68763361 11.3042988,8.91810207 11.356315,8.53326845 C11.4191931,8.09225101 11.5791025,7.90080044 11.7833946,7.79467117 C11.7959981,7.71434491 11.8179349,7.63138923 11.8492879,7.54682274 C11.841559,7.24012289 11.7270986,6.45275171 11.8492879,6.10432897 C12.0795126,5.4500743 12.2325027,5.0951458 12.5880105,4.62059781 L12.6080213,4.56686299 C12.616826,4.54314492 12.6258286,4.51944447 12.6350325,4.49576511 L12.5880105,4.62059781 C12.6171881,4.53934731 12.6486416,4.4582824 12.6825061,4.37754144 C12.7538942,4.20767384 12.8358308,4.03906358 12.9297639,3.87315358 C12.939848,3.85527982 12.95044,3.83686907 12.9611815,3.81849381 C13.0189559,3.71968748 13.0806983,3.62240163 13.1469972,3.52639595 C13.1633196,3.50280275 13.1799919,3.47914302 13.1969462,3.45556619 C13.3166118,3.28910287 13.4502551,3.12690045 13.5993614,2.97025215 C13.6142341,2.9546717 13.6293686,2.93898966 13.6446603,2.92336531 C13.6818986,2.88528466 13.7196779,2.8479638 13.7583921,2.81099785 C13.7770706,2.79319436 13.7962301,2.7751945 13.8156155,2.75728217 C13.8538105,2.72196262 13.8927714,2.68711028 13.9326225,2.65261338 C13.9517967,2.63603875 13.9711105,2.61957819 13.9906309,2.60320153 C14.0281269,2.57172379 14.0664885,2.54049425 14.1056305,2.5095898 C14.1309224,2.48963537 14.1564468,2.46987262 14.1822984,2.45024866 C14.2164586,2.4243063 14.2512674,2.39856188 14.2866588,2.37306947 C14.3815141,2.30474798 14.4806232,2.23818651 14.5840883,2.17361177 C14.6577974,2.12766957 14.7305978,2.08449352 14.805487,2.04230057 C14.8270166,2.03017263 14.8484035,2.01829817 14.8699593,2.00650391 C14.9254154,1.97615441 14.9824864,1.94608361 15.0407159,1.91657459 C15.0510967,1.91131509 15.0610067,1.90632715 15.0709501,1.90135548 L15.0779771,1.89115404 C15.3300469,1.63488681 15.8098881,1.36495664 16.303667,1.14480562 C16.9854898,0.480586005 17.7780139,0.202550452 17.7780139,0.202550452 C20.7450347,-0.728267193 22.7724004,1.85102786 22.7724004,1.85102786 C23.4818625,2.73471136 23.9248708,3.60910966 24.1898416,4.42473264 C24.3324069,4.63401835 24.4137756,4.79243966 24.4207597,4.81507133 C24.4306967,4.84654649 24.4380575,4.87765567 24.4457864,4.90949682 C24.4524111,4.93621411 24.4619801,4.96219942 24.4667646,4.98891671 C24.4638203,4.98708676 24.4616121,4.98525681 24.4582997,4.98342686 C24.4616121,4.99843246 24.4634523,5.01307207 24.4660286,5.02771168 C25.0173522,5.48849343 25.5153101,5.99429199 25.7390783,6.71419486 C26.0014907,7.55743645 25.9878733,8.40177602 25.5256152,9.12094691 C25.5252472,9.11948294 25.5252472,9.11838497 25.5252472,9.117287 C25.5112617,9.1399784 25.4965401,9.16157183 25.4818185,9.18279926 C25.4788742,9.18682515 25.4759298,9.19158303 25.4733536,9.19560892 L25.4347094,9.2453836 L25.4347094,9.2453836 C25.4431743,9.27393084 25.449799,9.30247808 25.4608402,9.33102532 C25.4729116,9.37657182 25.4836419,9.4223917 25.4928792,9.46849215 C25.5320699,9.48886782 25.5823386,9.51220855 25.6445385,9.53972506 C26.0350177,9.68763361 26.3733615,9.80609615 26.4773938,10.3686914 C26.5295293,10.7831067 27.4404089,11.5529097 27.5185525,12.1150979 C27.5705687,12.7367209 26.8677538,12.618394 26.8157376,13.0032276 C26.7637214,13.3584795 27.258233,13.2695987 27.3362573,13.5656872 C27.4404089,13.9801025 26.9198892,14.0689834 26.9979135,14.4536813 C27.050049,14.7497698 27.3102492,14.8385149 27.3102492,15.2233485 C27.3102492,15.6376282 27.2062168,15.6080464 26.9979135,15.9041349 C26.451505,16.6146388 27.5705687,16.4072954 27.1280733,17.0587715 C26.8938812,17.3547243 26.6595698,17.2361261 26.7117052,17.7392865 C26.737508,17.8862295 26.9233934,18.2828384 27.0629084,18.6344109 C27.116059,18.7683484 27.1624796,18.8957496 27.1907549,19.0003196 L27.2103741,19.089 L27.1914864,19.0250899 C27.2702466,19.2113831 27.1727081,19.3328331 27.1914864,19.4817983 C27.3268001,20.5164221 28.655026,20.2888707 28.4731401,21.5943694 C28.3909108,22.2844729 28.2115512,22.404613 28.5639552,23.0340108 C28.8988923,23.5885285 29.1079972,23.8957217 28.8686319,24.5037339 C28.82571,24.6344183 28.7535511,24.7543571 28.6754442,24.868979 L28.556734,25.0376029 C28.3415942,25.3419241 28.1695342,25.6265643 28.524893,26.0044246 C28.8821447,26.356328 29.3322852,26.2127676 29.1690839,27.0006586 C29.1286189,27.1833356 29.0367158,27.3338227 28.9312512,27.4735403 L28.9528836,27.3958223 C28.9186601,27.4972965 28.8988895,27.615524 28.9168783,27.7646714 L28.9337881,27.8645956 C29.0219264,27.9997393 29.1186162,28.1285808 29.2254067,28.2501092 C29.2995198,28.3344504 29.3608998,28.4219434 29.4111857,28.5122774 C29.4258626,28.5250369 29.4422709,28.5366344 29.4587817,28.548114 L29.6551151,28.6800699 C30.0146293,28.9210009 30.3467574,29.181185 30.2386818,29.8679733 C30.1442369,30.560897 29.9544042,30.6834549 30.3172813,31.3104348 C30.6626824,31.8625367 30.8787754,32.1681166 30.6202064,32.7805623 C30.5786208,32.8979 30.5126933,33.0069355 30.4397463,33.1113397 C30.5133199,33.397307 30.4923544,33.5392781 30.4458048,33.6889213 L30.3957814,33.8390554 C30.3563427,33.95893 30.315082,34.106514 30.2962386,34.3347697 L30.2415633,34.2893113 C30.6127731,34.6379923 31.0873538,34.4887894 30.9067003,35.2807095 C30.794821,35.7409203 30.3459262,36.0022001 30.182335,36.395618 C29.8892712,37.0158465 30.2691708,37.2441523 30.5629998,37.7292479 C31.030234,38.5364671 30.658364,38.9413822 30.2104841,39.361174 L30.1232704,39.4429528 C30.1038203,39.9109675 30.052008,40.3977726 29.9558431,40.861885 C30.2128505,41.0563965 30.4761206,41.270275 30.384285,41.6792167 C30.3414098,41.885677 30.2002935,42.0449193 30.040905,42.191743 L30.0460581,42.2223502 C30.0477415,42.2352037 30.0493586,42.2482843 30.0509074,42.2615999 L30.040905,42.191743 C30.0477608,42.2372741 30.0536647,42.285997 30.0585374,42.3382543 C30.065029,42.4067894 30.0695739,42.4812853 30.0722128,42.5624993 C30.0739758,42.6169336 30.0748825,42.6738457 30.0748825,42.7339822 C30.0748825,42.7822302 30.0659473,42.8390485 30.0501482,42.9033812 C30.038915,42.9492432 30.0238668,42.9998574 30.0059898,43.0540295 C29.9835974,43.1219437 29.9563983,43.1963418 29.9262588,43.2756429 C29.8376712,43.5087446 29.7235256,43.7845307 29.6250996,44.0817825 C29.6158748,44.1096498 29.6069706,44.1371309 29.5982312,44.1647766 L29.6250996,44.0817825 C29.6009127,44.154828 29.5776751,44.2291697 29.555998,44.3044961 C29.5545559,44.6672791 29.5534134,45.0143468 29.5530282,45.325042 L29.5530756,45.7612235 C29.5531973,45.8285132 29.5533805,45.892884 29.5536326,45.9540133 L29.5825338,46.0199372 C29.5951709,46.0459643 29.6085896,46.0718208 29.6228179,46.0974926 C29.6309972,46.1119344 29.6389733,46.1258971 29.6472056,46.1398036 L29.6228179,46.0974926 C29.6560171,46.1573935 29.6936239,46.2162884 29.7359939,46.2739961 C30.3543197,47.1159788 29.8428243,48.0698064 29.7359939,49.0782339 C29.680916,49.5981424 30.0296595,50.0362585 30.0748825,50.6830318 C30.1837455,52.2486489 31.0539097,52.5662858 30.8516649,53.4944615 C30.8132213,53.6708933 30.7757275,53.8322858 30.7394133,53.9807088 C30.7408744,53.979099 30.7415344,53.9794823 30.7421942,53.9798657 C30.7079707,54.0813398 30.6882001,54.1995674 30.7061889,54.3487148 C30.836266,55.3845477 32.2343185,55.1408754 32.0279924,56.4520167 C31.9335475,57.1449404 31.7437148,57.2674983 32.1065919,57.8944782 C32.4519931,58.4465801 32.668086,58.75216 32.409517,59.3646057 C32.2113894,59.9236412 31.4607278,60.2942266 32.0308739,60.8733547 C32.4020837,61.2220356 32.8766644,61.0728327 32.696011,61.8647529 C32.5841316,62.3249637 32.1352369,62.5862435 31.9716456,62.9796614 C31.6785818,63.5998899 32.0584815,63.8281957 32.3523104,64.3132913 C32.9569665,65.3579279 32.1563406,65.7288095 31.604296,66.3300968 C30.6555049,67.4177244 32.3887061,67.3053787 32.1735956,68.2632601 C32.0764021,68.7312835 31.474367,68.9566631 31.2990562,69.3447793 C31.3725177,69.6212859 31.5015764,69.9592936 31.7257553,70.4125236 C32.2491756,71.4707402 31.1112627,72.6257526 31.1112627,73.1571098 C31.1112627,75.6096269 32.8720941,74.6044913 31.623889,78.2105353 C31.2060218,79.417747 32.5440985,80.8359438 32.5338201,82.138784 C32.5234286,83.4559663 31.8318064,83.7659178 31.6399099,84.5508081 C31.7107398,84.653832 31.7742447,84.7414069 31.8293798,84.8130564 C33.6044924,87.1198614 31.7935607,87.0440023 31.7010102,88.8566011 L31.6002811,88.1593151 C31.6902958,88.7658365 31.774823,89.3703833 31.8517475,89.9661545 C32.0264472,90.4635265 32.3221861,90.7898839 32.5779515,91.0476715 L32.7287694,91.198391 C33.0148164,91.4860804 33.190779,91.7018511 32.9587151,92.0361306 C32.8937323,92.1297359 32.8332043,92.2203621 32.7769023,92.3081037 C32.8464674,92.5819599 32.8474887,92.8622859 32.743981,93.155664 C32.3640964,94.2323934 33.0369131,93.9814098 33.0369131,94.7775968 C33.0369131,96.4410893 31.8450156,96.1403068 32.0833222,97.6449157 C32.3108079,99.081204 32.2848203,99.2287043 32.0833222,99.8427544 C31.5444634,101.484886 32.5723566,102.564122 31.455569,103.245951 C30.8744793,103.600722 33.0128899,106.215235 29.8393981,106.674733 C29.7421291,106.688817 31.541602,105.768519 29.3800864,103.774754 C28.472852,102.937928 28.25772,100.487495 28.2497951,99.8427544 C28.2452084,99.4695961 28.4893627,98.0600713 28.8177851,97.2482527 L28.8833741,97.096 L28.8620209,96.9855877 C28.5462245,95.5931684 27.8842283,95.9399477 27.8842283,94.5584656 L27.8797216,94.4002856 C27.8752692,94.4009433 27.8708073,94.4015984 27.8663358,94.4022506 C27.8576687,94.4035149 27.8629268,94.3983063 27.878604,94.3865911 L27.8842283,94.5584656 C27.8842283,93.0351014 27.0866422,93.181226 26.8900209,91.5140209 C26.8653461,91.3047966 26.8794946,91.0826365 26.9173665,90.8514136 C26.3634228,89.7802397 26.2340319,88.095882 26.2340319,87.5770349 C26.2340319,87.2617072 26.435669,86.2053051 26.718913,85.3914801 C26.6332278,84.9696211 26.6033914,84.5776664 26.6056659,84.2259262 C26.5324642,84.0487485 26.4718462,83.8396867 26.4302665,83.5899311 C26.3578111,83.1547157 26.5224935,82.6635277 26.7324598,82.1512265 L26.7310135,82.1928996 C26.7447342,82.103357 26.7369861,82.0228371 26.7133677,81.9487867 C26.6830186,81.8929057 26.6522088,81.8336998 26.620244,81.77228 C26.5490067,81.6708339 26.4503522,81.5808411 26.3459181,81.4916475 L26.1471505,81.3219534 C25.9843692,81.1774215 25.8394512,81.0202014 25.7927786,80.8136323 C25.7051999,80.4531914 25.8983746,80.2406525 26.1204614,80.0579461 C26.1249715,79.9752935 26.1371063,79.8909385 26.1559296,79.805721 C26.2416933,79.4174507 26.2926604,79.1124339 26.3194195,78.8601974 L26.3282531,78.8708279 C26.2259887,78.7632713 26.1156409,78.6634736 26.0070539,78.5658279 L25.8467245,78.4202722 C25.4292641,78.0326893 25.1187309,77.6346789 25.5451545,76.8673841 C25.6081899,76.7590952 25.6756446,76.6632651 25.7392124,76.573042 C25.7087041,76.5232186 25.6777069,76.4697409 25.6467855,76.4142729 C25.3262603,75.839304 24.9528308,74.5725443 24.9528308,73.1183526 C24.9528308,71.5949885 23.8269238,71.741113 23.5493647,70.0739079 C23.3354037,68.7887157 25.1893381,67.0154304 24.1707634,65.6517071 C22.299132,63.1458651 23.5728613,61.1175282 23.5493647,60.980276 C23.4618198,60.4688945 22.161655,59.4926772 22.5130896,58.3656081 L22.5533741,58.2278074 L22.5901537,58.0707754 C22.6941501,57.4631218 21.7967024,57.2559297 21.6761333,56.6753437 C21.5153105,55.9592037 22.4434949,55.8412664 22.5257442,55.3728451 C22.5196717,55.3163772 22.5168822,55.2567158 22.5151479,55.194094 C22.485677,55.0687101 22.4021337,54.9218113 22.2454329,54.7421805 C22.1701541,54.6601867 22.0902529,54.5824774 22.009923,54.5067598 L21.8499342,54.357301 C21.4020543,53.9375092 21.0301843,53.5325942 21.4974185,52.7253749 C21.6591479,52.4583685 21.8469534,52.2691598 21.9342612,52.0495716 C21.8971161,51.81501 21.8678867,51.5766602 21.8496099,51.337049 L21.8503741,51.338 L21.8045785,51.2497607 C21.6075342,50.9298989 21.2516124,50.679521 21.1537179,50.2768365 C20.9730645,49.4849164 21.4476452,49.6341193 21.818855,49.2854384 C22.3890011,48.7063103 21.6383395,48.3357248 21.4402119,47.7766894 C21.1816429,47.1642436 21.3977358,46.8586638 21.743137,46.3065619 C21.7031632,45.8689234 21.5558129,45.5082925 21.4810723,44.9236165 C21.4691022,44.828927 21.4589131,44.7289453 21.451375,44.6218642 C21.4444142,44.5235784 21.439706,44.4183737 21.4378557,44.3061055 C21.43736,44.275582 21.4370697,44.2449355 21.4369973,44.2137601 L21.4372263,44.1402153 L21.4372263,44.1402153 Z" fill="#34CCBF"></path>
                </g>
                <circle id="Oval-" stroke="#A7ADAD" cx="60" cy="60" r="60"></circle>
            </g>
        </g>
    </g>
</svg>