<?xml version="1.0" encoding="UTF-8"?>
<svg width="122px" height="122px" viewBox="0 0 122 122" version="1.1" xmlns="http://www.w3.org/2000/svg" xmlns:xlink="http://www.w3.org/1999/xlink">
    <title>Tiny Winy Afro/Pixie</title>
    <g id="Page-1" stroke="none" stroke-width="1" fill="none" fill-rule="evenodd">
        <g id="Hair-lenght-states" transform="translate(-495.000000, -492.000000)">
            <g id="Tiny-Winy-Afro/Pixie" transform="translate(495.000000, 493.000000)">
                <path d="M79.8690198,36.937084 C79.8690198,36.937084 83.3035112,35.9532535 83.3816723,38.7365689 C83.4605997,41.5198843 81.9111705,47.0865151 81.8330094,48.3233743 C81.7548483,49.5602335 81.5218975,53.3487836 79.1969875,53.1936029 C79.1969875,53.1936029 78.5241888,63.0953564 71.9647854,69.1535202 C71.9647854,69.1535202 71.8340397,72.698853 71.7847422,76.3593994 L71.7767237,77.0254592 C71.7462756,79.9106023 71.7743697,82.7382187 71.9647854,83.8307121 C72.4107635,86.3938696 76.3785896,89.4218049 79.6490959,90.8199603 C82.2895421,91.9484096 98.0269101,95.6601143 105.585945,99.9917739 C94.5993116,112.272146 78.6309847,120 60.8577207,120 C42.9704575,120 26.9113596,112.172694 15.9187389,99.7563928 C23.6251283,95.5259934 38.8423213,91.9278917 41.4359731,90.8199603 C44.7057131,89.4218049 48.6743055,86.3938696 49.1202836,83.8307121 C49.2591948,83.0323516 49.3115712,81.3073943 49.3178429,79.3105189 L49.318338,78.6716514 C49.3175521,78.1330022 49.3138681,77.5802944 49.3080227,77.0254592 L49.300018,76.3593994 C49.250805,72.698853 49.1202836,69.1535202 49.1202836,69.1535202 C43.9602196,64.3877646 42.442574,57.243425 42.0298855,54.4120682 L41.9916274,54.1392624 C41.9107853,53.538624 41.8873153,53.1936029 41.8873153,53.1936029 C39.5616389,53.3487836 39.3294544,49.5602335 39.2512933,48.3233743 C39.1738985,47.0865151 37.6244693,41.5198843 37.7026304,38.7365689 C37.7800253,35.9532535 41.2152829,36.937084 41.2152829,36.937084 C41.2152829,15.2330259 52.3666709,12.8821932 60.3022939,12.8373469 L60.5417682,12.8366762 C68.4912135,12.8366762 79.8690198,15.013793 79.8690198,36.937084 Z" id="Combined-Shape" fill="#EBFAF9"></path>
                <circle id="Oval-" stroke="#A7ADAD" cx="60.9187571" cy="60" r="60"></circle>
                <path d="M41.5203619,38.0573779 C41.5124703,38.056169 41.5126457,38.0554982 41.5128211,38.0548274 C41.4854185,38.0492076 41.470025,38.0320596 41.4654309,38.0042292 L41.4654309,38.0042292 L41.391535,37.7123277 C41.3364052,37.4843407 41.2849921,37.2475122 41.2375007,37.0026832 L41.2152829,36.937084 L40.6275127,36.8252407 C40.6275127,36.5945963 40.672993,36.4066276 40.7639537,36.2613345 C40.6687989,36.212377 40.5944838,36.1413098 40.54612,36.051686 C40.497363,35.9616675 40.4419215,35.7836045 40.5508384,35.5352638 C40.3774365,35.3267998 40.2803156,35.1740051 40.2944709,35.0322654 C40.3046941,34.9276385 40.3235678,34.8155102 40.3931645,34.7104885 C40.4041742,34.6939061 40.4316983,34.6607414 40.464334,34.6212596 C40.4757369,34.6086254 40.4918581,34.5896741 40.5079794,34.5691436 C40.4159702,34.4743872 40.3235678,34.3283045 40.3546308,34.127342 C40.368786,34.0310063 40.4254071,33.9437515 40.4930377,33.8683412 C40.4851737,33.8616293 40.4792757,33.855707 40.4737709,33.851364 C40.4379895,33.8201734 40.4108586,33.7941154 40.4014218,33.7810864 C40.2492527,33.5998648 40.2626216,33.3515242 40.4372031,33.117397 C40.4163634,33.108711 40.3951305,33.1023939 40.374684,33.0988405 C40.2846409,33.0858115 40.2118986,33.0182976 40.1902725,32.9286738 C40.1694328,32.8354967 40.2063937,32.7360025 40.2842477,32.6811228 C40.320029,32.6554596 40.35699,32.6029488 40.3951305,32.5476742 C40.3974897,32.5445157 40.399849,32.5409623 40.401815,32.5381986 C40.3514851,32.5002961 40.3035145,32.4525231 40.2630148,32.3869832 C40.1470203,32.1990498 40.2582964,32.0024303 40.3448007,31.88359 C40.2598692,31.8239724 40.1344378,31.7347435 40.1139913,31.5748421 C40.0990497,31.4563967 40.1670736,31.3576921 40.2075733,31.2988642 L40.2075733,31.2988642 L40.220549,31.2799129 C40.2492527,31.2345088 40.2512187,31.2163472 40.2512187,31.2159524 C40.2465003,31.2041078 40.2040345,31.1527814 40.1721852,31.1156685 L40.1721852,31.1156685 L40.1497727,31.0884261 C40.0046813,30.9135216 40.0848944,30.7255881 40.123035,30.6355696 C40.1277534,30.6245147 40.1332582,30.6110908 40.1379766,30.5992463 C39.9032352,30.3323492 39.840323,30.0836137 39.9504194,29.8605414 C39.9728319,29.8159269 40.0101861,29.7732866 40.0797828,29.6947177 C40.0990497,29.6722131 40.1281466,29.6402328 40.1533115,29.6102266 C40.1057341,29.539949 40.0660207,29.4605905 40.0475403,29.3607015 C40.0196229,29.2134343 40.0966905,29.0961733 40.1379766,29.0333972 C40.1568503,29.0041806 40.1808356,28.9828605 40.2288062,28.9402201 C40.2331314,28.9358771 40.2398159,28.9303496 40.2461071,28.9244274 C40.1014089,28.7661052 40.0141181,28.5659324 40.1159573,28.3787886 C40.1741512,28.2710032 40.2504323,28.2125701 40.3235678,28.1711142 C40.2099325,27.9859444 40.1875201,27.739183 40.3617084,27.5777024 C40.3884461,27.5528288 40.4171498,27.5291397 40.4474264,27.5082144 C40.4269799,27.4849201 40.4171498,27.4707066 40.4081062,27.4545191 C40.2602624,27.1967028 40.2991893,26.9495466 40.5166298,26.7592442 C40.5626344,26.7197624 40.6149303,26.6885717 40.6668329,26.6644878 C40.6184691,26.5760485 40.6039206,26.5484113 40.596843,26.5306444 C40.5001154,26.3032291 40.5787557,26.0343579 40.7749633,25.893013 L40.7749633,25.893013 L40.7478324,25.8570845 C40.7018278,25.7935188 40.6542504,25.727979 40.6090322,25.6967883 C40.5429744,25.6513842 40.5044406,25.5724206 40.509159,25.4930621 C40.5134842,25.4140985 40.557916,25.3446105 40.6275127,25.3071027 C40.6711581,25.2842033 40.7132307,25.2597246 40.7560897,25.2352458 C40.7828274,25.2198479 40.8095651,25.2040552 40.8370892,25.1890521 C40.8276524,25.1791816 40.8213611,25.1712853 40.8178223,25.1673371 C40.6837406,24.9951963 40.6526776,24.761464 40.7309248,24.5241782 C40.8429872,24.1866086 41.1536165,23.9974907 41.4697507,23.9347146 C41.3698775,23.7870526 41.2444461,23.6046465 41.3077516,23.4084219 C41.3356689,23.3227463 41.3934696,23.2532583 41.4815467,23.2015371 C41.4434062,23.1284958 41.400154,23.0396617 41.4009404,22.9370089 C41.4032996,22.7656578 41.5436726,22.6326041 41.6734292,22.5816725 C41.6923028,22.574171 41.7111765,22.5670642 41.7292638,22.5607471 C41.7249386,22.5508767 41.7202201,22.5406114 41.7155017,22.5291617 C41.6356818,22.3593898 41.6584875,22.1607963 41.7760548,21.9973415 C41.8244186,21.9306172 41.9502431,21.8548121 42.0744949,21.8062495 C42.0642716,21.7612402 42.0568008,21.7174154 42.0493299,21.674775 C42.0351747,21.5942321 42.022199,21.518427 41.9966409,21.4548613 C41.9702964,21.3853733 41.9781604,21.3107526 42.0174806,21.2495558 C42.0587668,21.1855952 42.1291499,21.1445342 42.2038582,21.1397963 C42.2573336,21.1366378 42.3112023,21.1299259 42.3666437,21.1212399 C42.339906,21.0478037 42.3229983,20.9708141 42.3233915,20.8886919 C42.3265371,20.57797 42.5176331,20.3355516 42.8105684,20.2700118 C42.8168596,20.2684325 42.8266896,20.267248 42.8384857,20.265274 C42.8376993,20.2573776 42.8376993,20.2494812 42.8369129,20.2419797 L42.8370576,20.1683635 C42.8406562,20.0669489 42.8606623,19.9530517 42.9304949,19.8333428 C42.9879023,19.7354279 43.1554062,19.6458042 43.3060025,19.5944778 C43.2721871,19.4191785 43.2769055,19.1913684 43.4597443,19.0065934 C43.5301274,18.9351313 43.6846557,18.8853842 43.8183442,18.857747 C43.7849221,18.5932188 43.9182175,18.4554272 44.0534788,18.3843599 C44.1226823,18.3484315 44.2091867,18.329875 44.3110259,18.3294802 L44.3110259,18.3294802 L44.3094531,18.299474 C44.3059143,18.0479748 44.5001559,17.8288507 44.7514118,17.8000289 C44.7624214,17.7992393 44.80646,17.7972652 44.8619015,17.7972652 C44.8611151,17.745544 44.8611151,17.6906643 44.8689791,17.6322312 C44.8972896,17.4213983 45.0817012,17.2575487 45.3168358,17.2338596 C45.3593016,17.2295166 45.4025538,17.2271477 45.4458059,17.2271477 L45.4458059,17.2271477 L45.4548496,17.2271477 C45.45367,17.1892451 45.4544564,17.1477892 45.4560292,17.1023851 C45.4658592,16.8714165 45.6483048,16.6894053 45.8759686,16.6799296 C45.8740026,16.6436063 45.874789,16.6068882 45.8814734,16.5697753 C45.9219732,16.3084057 46.1260448,16.1370546 46.3997132,16.1346856 C46.4142617,16.1346856 46.4276305,16.1350805 46.4413926,16.1362649 C46.442179,16.0624339 46.4543682,15.9889977 46.4779603,15.9131926 C46.5530618,15.6759069 46.8035313,15.5697008 47.0190058,15.5697008 L47.0190058,15.5697008 L47.0697288,15.5716748 C47.0913549,15.5736489 47.1125878,15.5752282 47.1326411,15.5768075 C47.1334275,15.5428531 47.1369663,15.5077143 47.1448303,15.4733651 C47.200665,15.2447654 47.3693485,15.1136857 47.6072355,15.1136857 C47.619818,15.1136857 47.631614,15.1140805 47.6445897,15.1148702 C47.6445897,15.0670972 47.6493081,15.0173501 47.6611041,14.9636548 C47.6835166,14.8641606 47.777885,14.6327971 48.1659751,14.6327971 C48.1840624,14.6327971 48.2033292,14.6331919 48.2210233,14.6347712 C48.2218097,14.461446 48.2878676,14.3505021 48.3476342,14.2857519 C48.4510463,14.1728339 48.6106862,14.1128215 48.8096462,14.1128215 C48.9362571,14.1128215 49.0793826,14.1384847 49.2091391,14.1823095 L49.2091391,14.1823095 L49.2079595,14.1511189 C49.2012751,13.9884538 49.1902654,13.7168188 49.4132108,13.5719205 C49.4835939,13.525332 49.5642002,13.5024325 49.6510978,13.5024325 L49.6510978,13.5024325 C49.6558162,13.4988791 49.6546366,13.4957206 49.653457,13.4929569 C49.6334037,13.425443 49.6463794,13.3508223 49.6892383,13.2923892 C49.7320973,13.2347458 49.7993348,13.2000017 49.8701111,13.2000017 C49.8901644,13.2000017 49.9192613,13.2047396 49.938135,13.2110567 C50.0104841,13.2343509 50.0930564,13.2375095 50.1827064,13.2382991 C50.168158,13.1771023 50.1583279,13.1178796 50.1520367,13.0594465 C50.1457455,12.9966704 50.166192,12.9327098 50.2102305,12.8849368 C50.2546623,12.8344001 50.3191474,12.8055783 50.3867781,12.8055783 C50.404079,12.8055783 50.4304235,12.8091317 50.4465447,12.8134747 C50.5043454,12.8292674 50.5637188,12.8312415 50.6195535,12.8312415 L50.6195535,12.8312415 L50.6863978,12.8304519 C50.653762,12.758595 50.6541552,12.6725246 50.6930822,12.6018521 C50.7359412,12.5268367 50.8153679,12.4798533 50.9022655,12.4798533 C50.9164207,12.4798533 50.9419788,12.4830118 50.9565273,12.4861704 C51.0418521,12.5070958 51.1299292,12.5165714 51.2219384,12.526047 C51.2608654,12.5299952 51.2986128,12.5339434 51.3383261,12.539076 C51.3328213,12.4620865 51.3265301,12.3890451 51.3111952,12.3187675 C51.2954671,12.2469105 51.3131612,12.1722899 51.3591658,12.1146464 C51.4051704,12.0577926 51.4720147,12.0254175 51.5439706,12.0254175 C51.587616,12.0254175 51.6296886,12.0372621 51.6678291,12.0605563 C51.7146201,12.0893781 51.7889352,12.0992485 51.8707212,12.1075397 C51.8726872,12.0921418 51.8746532,12.0763491 51.8766192,12.0609512 L51.8766192,12.0609512 L51.88409,11.9890942 C51.8947065,11.8639369 51.9996913,11.7652323 52.1207974,11.7652323 C52.1487148,11.7652323 52.1778117,11.7707598 52.2045494,11.781025 C52.2902674,11.8134001 52.3913202,11.824455 52.4986642,11.8355099 C52.5395572,11.8398529 52.5808434,11.8445908 52.6217364,11.850513 C52.628814,11.8220861 52.6374644,11.7964229 52.6441489,11.7731287 C52.7066679,11.5745351 52.8918659,11.4402969 53.104588,11.4402969 C53.1446946,11.4402969 53.1848012,11.4454295 53.2253009,11.4553 C53.2524318,11.4620119 53.2787764,11.4691186 53.3035481,11.4762254 L53.3035481,11.4762254 C53.3436546,11.3779156 53.395164,11.2717095 53.517843,11.1820858 C53.582328,11.1351024 53.6586092,11.1102289 53.7403951,11.1102289 C53.8477392,11.1102289 53.9499716,11.15129 54.04434,11.2073541 C54.1815674,11.0431098 54.3380616,11.0134984 54.4316436,11.0134984 C54.5256188,11.0134984 54.6207736,11.040346 54.7159284,11.0928569 C54.8264181,10.9076871 54.9927424,10.805824 55.1960277,10.805824 C55.276634,10.805824 55.3627452,10.8224064 55.452002,10.8547815 C55.4704824,10.8614934 55.4783465,10.8614934 55.4783465,10.8614934 C55.4791329,10.8603089 55.4952542,10.8500436 55.5062638,10.8425421 C55.5585596,10.8085877 55.6446708,10.753708 55.7740341,10.753708 C55.9568729,10.7560769 56.1023575,10.831882 56.2313277,10.8990011 L56.2313277,10.8990011 L56.2855895,10.9278228 L56.3284485,10.905713 C56.4373653,10.6660584 56.6009372,10.5401113 56.8494407,10.4994451 C56.883256,10.4939176 56.918251,10.4911539 56.9548187,10.4911539 C57.0248086,10.4911539 57.1018762,10.5014192 57.1773709,10.519186 C57.2060746,10.4240348 57.2941518,10.3545468 57.397957,10.3545468 C57.4152579,10.3545468 57.4419956,10.3581001 57.4589033,10.362838 C57.5190631,10.3790255 57.5784366,10.3928441 57.6374168,10.4058731 C57.7380765,10.4287726 57.8407021,10.4520669 57.9437209,10.488785 C58.0164632,10.3336214 58.1308849,10.2743987 58.2291853,10.2546578 C58.2744035,10.2451821 58.3168693,10.2404443 58.3593351,10.2404443 C58.4198882,10.2404443 58.4776888,10.2495251 58.5441399,10.2684764 C58.5512175,10.2566318 58.5594747,10.2455769 58.5685184,10.2353117 C58.6133434,10.1816164 58.6786149,10.1512154 58.7486047,10.1512154 C58.7643328,10.1512154 58.7926433,10.1555584 58.807585,10.1587169 C58.8197742,10.1614807 58.8921234,10.1729304 58.9833461,10.1879335 C59.1650053,10.2175448 59.2943687,10.238865 59.3883439,10.256237 C59.4449649,10.1488465 59.5346149,10.0367181 59.6852111,10.0090808 C59.7178469,10.0031585 59.7508758,10 59.7839047,10 C59.9254573,10 60.0618983,10.0556694 60.2006985,10.1701667 C60.2203586,10.1863542 60.2722612,10.2289946 60.2887757,10.2349168 C60.2911349,10.2341272 60.308829,10.2329428 60.3587656,10.2151759 L60.3587656,10.2151759 L60.3776393,10.208464 C60.4260031,10.1906972 60.4932405,10.1666133 60.5695217,10.1666133 C60.6855162,10.1666133 60.7814574,10.2092537 60.8589181,10.2436028 C60.889981,10.2570267 60.934806,10.2775572 60.9548593,10.2795313 L60.9548593,10.2795313 C61.0555189,10.1831957 61.1691542,10.1354227 61.2914399,10.1354227 C61.3606434,10.1354227 61.4325993,10.1504257 61.5037688,10.1800371 C61.6056081,10.2218878 61.6909328,10.2965085 61.7581703,10.3608639 C61.7817624,10.34744 61.8061409,10.334411 61.8313058,10.3237509 C61.8863541,10.3012463 61.9449411,10.2890069 62.0047078,10.2890069 C62.1191294,10.2890069 62.215857,10.330068 62.3011818,10.3659965 L62.3011818,10.3659965 L62.3357836,10.3809996 C62.3495456,10.386527 62.3554436,10.386527 62.3554436,10.386527 C62.3613417,10.3849478 62.3845406,10.369155 62.3963366,10.3608639 C62.4521713,10.3229613 62.5323844,10.269266 62.6460197,10.269266 C62.6652866,10.269266 62.6861262,10.2712401 62.7081455,10.2747935 C62.8139168,10.2925603 62.8874455,10.3367799 62.9421005,10.3687602 C62.9590082,10.3782359 62.9810275,10.3916597 62.9908575,10.3944234 C62.9912507,10.3940286 63.0022604,10.39087 63.0215273,10.3794203 C63.1265121,10.3205924 63.2212737,10.2913759 63.3105305,10.2913759 C63.4104037,10.2913759 63.5020197,10.3276991 63.5763348,10.3956079 C63.6278442,10.4429861 63.6730624,10.4951021 63.715135,10.5551144 C63.7395135,10.5377424 63.757994,10.5266875 63.7650716,10.5231342 C63.8472508,10.4808886 63.9361143,10.458384 64.0281235,10.458384 C64.1704625,10.458384 64.315554,10.5112896 64.4484561,10.6107838 C64.4692958,10.6273662 64.4865967,10.6463174 64.5137276,10.6767184 C64.5487225,10.6522397 64.5852903,10.6305247 64.6246105,10.6095993 C64.713474,10.5630108 64.8039104,10.5389269 64.8935604,10.5389269 C65.0929136,10.5389269 65.2765388,10.6577672 65.4090478,10.8658364 C65.508921,10.8160893 65.608401,10.7900313 65.7031626,10.7900313 C65.7959582,10.7900313 65.9905931,10.8180634 66.1274272,11.0269222 C66.2355577,10.966515 66.3436881,10.9353244 66.4482798,10.9353244 C66.5497258,10.9353244 66.7640207,10.9676995 66.9091121,11.2199883 C67.0097718,11.1607656 67.1277323,11.116546 67.2582752,11.116546 C67.3200079,11.116546 67.3821338,11.1268112 67.4415072,11.1465521 C67.6219868,11.207749 67.7096707,11.3573851 67.7529229,11.4999145 C67.8264516,11.4758305 67.8976211,11.463986 67.9668246,11.463986 C68.1771875,11.463986 68.339973,11.5737455 68.4300162,11.767996 C68.5220254,11.7285142 68.6234714,11.7008769 68.7304223,11.7008769 C68.8094558,11.7008769 68.8865233,11.7162748 68.9592656,11.7466758 C69.0705417,11.7920799 69.174347,11.9567191 69.2404048,12.1024071 C69.2683221,12.1000382 69.2962395,12.0984589 69.3229772,12.0984589 C69.7032032,12.0984589 69.9607503,12.3440358 70.038211,12.7649121 C70.1656084,12.7131909 70.2977241,12.6756831 70.4459611,12.6756831 C70.5088734,12.6756831 70.5709993,12.682395 70.6335183,12.6962137 C70.7314256,12.719508 70.8002358,12.8039991 70.8053475,12.9023088 L70.8053475,12.9023088 L70.8132115,13.0341781 C70.8898858,13.0053564 70.9712786,12.9871947 71.0538509,12.9871947 C71.1725978,12.9871947 71.2795487,13.0231232 71.3727375,13.0934008 C71.488732,13.1818401 71.5272657,13.3247643 71.5256929,13.4408409 C71.5426006,13.442815 71.5595083,13.4443942 71.5764159,13.4463683 C71.6617407,13.4546595 71.7431334,13.4633455 71.8225602,13.4633455 C71.8724968,13.4633455 71.9169286,13.460187 71.9597876,13.4530802 C71.970404,13.4518958 71.9877049,13.4507113 71.9975349,13.4507113 C72.0844325,13.4507113 72.1658252,13.4969051 72.2075046,13.5719205 C72.2495772,13.6457515 72.2483976,13.7334012 72.204359,13.807627 C72.1988542,13.8174975 72.1925629,13.8285524 72.1878445,13.8400021 C72.2476112,13.8475036 72.3054118,13.8569793 72.3624261,13.8664549 C72.4418528,13.8802736 72.5169543,13.8929077 72.5955947,13.89883 C72.6813126,13.9059367 72.7579869,13.9580527 72.7961275,14.0350423 C72.8330885,14.1108474 72.8271904,14.1973126 72.7823654,14.2683799 C72.777647,14.2750918 72.7733218,14.2821985 72.7686034,14.2893052 C72.8181468,14.2968068 72.8669038,14.3047032 72.914088,14.3129943 C73.0033448,14.3279974 73.0867035,14.3422109 73.1716351,14.3473435 C73.3025713,14.3560295 73.4044105,14.4646045 73.4024445,14.5948946 C73.4012649,14.6158199 73.4012649,14.6375349 73.4008717,14.6588551 C73.5003517,14.66991 73.6175258,14.6912302 73.7398115,14.7551908 C73.8219907,14.7982259 73.9835965,14.9170662 73.9682617,15.1784359 C74.0425768,15.2009405 74.1137463,15.2277882 74.183343,15.2546358 C74.2490077,15.2799042 74.3154587,15.3055674 74.3858418,15.3268875 C74.5085208,15.3643953 74.5796903,15.4871837 74.5533458,15.6127359 C74.5478409,15.6399784 74.5427293,15.6672209 74.5332925,15.6956478 C74.5789039,15.7157835 74.649287,15.7418415 74.7550582,15.7742166 L74.7550582,15.7742166 L74.7778639,15.7813233 C74.904868,15.8235689 74.9732851,15.955833 74.9343582,16.0829645 C75.1769636,16.1402131 75.3999089,16.2432607 75.6110582,16.3936864 C75.6932374,16.4513299 75.7317712,16.5492448 75.7097519,16.6479493 C75.7069994,16.6609783 75.704247,16.6728229 75.7007082,16.6842726 C75.7789554,16.7123047 75.8536637,16.7438902 75.926406,16.7754756 C76.0156628,16.813773 76.0994147,16.8500963 76.1878851,16.8769439 C76.2802875,16.9053708 76.3467386,16.9859137 76.3585346,17.0818546 C76.3699375,17.1770058 76.3243261,17.2701829 76.2425401,17.3191403 C76.2362489,17.3226937 76.2311373,17.3262471 76.2252392,17.3298004 C76.2445061,17.3436191 76.263773,17.3574377 76.2822535,17.3708615 C76.3703307,17.4348221 76.4532962,17.4952293 76.542553,17.5339214 C76.5983876,17.5576105 76.642033,17.6026198 76.6656251,17.6602633 C76.6880376,17.7163275 76.6896104,17.780288 76.6695571,17.8387211 C76.87009,17.9417687 77.0458511,18.0977219 77.2172871,18.3215838 C77.2743013,18.3946252 77.2805925,18.5012261 77.2341947,18.5865068 C77.2172871,18.616513 77.1999862,18.6437555 77.1826853,18.6698135 C77.2263307,18.7021886 77.2664373,18.7357481 77.3073302,18.7681232 C77.3961938,18.8411646 77.480339,18.909863 77.5754938,18.9521085 C77.6612117,18.9900111 77.7150804,19.0737125 77.7174396,19.1700482 C77.7190124,19.2320347 77.6981727,19.2908626 77.6612117,19.3362667 C77.8000119,19.4231267 77.9309481,19.5490737 77.9769527,19.7306901 C77.9946467,19.8005729 77.9981856,19.8609801 78.0005448,19.9091479 C78.0056564,19.9845582 78.0076224,19.997982 78.0343601,20.0264089 C78.0913744,20.0887902 78.1354129,20.1523559 78.1786651,20.2139476 C78.2313542,20.2901475 78.2773587,20.3560821 78.3394846,20.4062241 C78.4051493,20.4595245 78.437785,20.5436208 78.4263822,20.6312705 C78.4145861,20.7189201 78.3618971,20.7915667 78.2848296,20.825521 C78.2749995,20.8302588 78.2655627,20.8346018 78.2557327,20.83855 C78.4291346,20.8989572 78.5986045,20.9909499 78.7366183,21.1670388 C78.7975646,21.2456076 78.8011034,21.3494448 78.7543124,21.4268292 L78.7543124,21.4268292 L78.7739725,21.440253 C78.8345255,21.4821037 78.891933,21.5282975 78.9509132,21.5740964 C79.0326991,21.640031 79.1105531,21.7012279 79.1939118,21.7478164 C79.2670473,21.7888775 79.3138383,21.868236 79.3138383,21.9543063 C79.3142315,22.007212 79.2969307,22.0577487 79.2662609,22.0980202 C79.3338916,22.1564533 79.3971971,22.2176501 79.4585366,22.2780573 C79.5340313,22.3507038 79.6048076,22.4194022 79.6818751,22.4817835 C79.755797,22.5421907 79.7860735,22.6357626 79.759729,22.726176 C79.7424282,22.7861884 79.7027148,22.8367251 79.6515986,22.8687054 C79.7172633,22.9358245 79.7797823,22.9978109 79.8485926,23.0412409 C79.9319514,23.0945414 79.9755967,23.1964045 79.9571163,23.295109 C79.9476794,23.3448561 79.9233009,23.388681 79.8890924,23.4218457 L79.8890924,23.4218457 L79.9056069,23.4411918 C79.9276261,23.4680394 79.9480726,23.4940974 79.9681259,23.5193658 C80.0251402,23.5916175 80.073504,23.6539988 80.1348434,23.7017718 C80.1969693,23.7507293 80.2303914,23.8277188 80.2248866,23.9082618 C80.221741,23.9524814 80.2067993,23.9951218 80.1816344,24.0318399 C80.2614544,24.1001434 80.3176822,24.1834501 80.3467791,24.2774168 C80.3770556,24.3753317 80.3892449,24.5178611 80.3062793,24.6892122 C80.3770556,24.7579106 80.4415407,24.8297675 80.5040598,24.8996503 L80.5040598,24.8996503 L80.5484916,24.9486078 C80.5956758,25.0023031 80.6200543,25.0725807 80.6145495,25.1428584 C80.609831,25.2008966 80.5866321,25.2530126 80.5469188,25.2932841 C80.6692045,25.3927783 80.7415536,25.5080652 80.7588545,25.632433 C80.7694709,25.7094225 80.7616069,25.8128649 80.6931898,25.9238088 C80.7026266,25.9317052 80.7116703,25.9388119 80.7211071,25.9467083 C80.7753689,25.9917176 80.8268784,26.0343579 80.8823198,26.0691019 C80.9593873,26.1168749 81.0046055,26.2045246 80.9998871,26.2980965 C80.9959551,26.3873254 80.9436593,26.4670787 80.8650189,26.5065605 L80.8650189,26.5065605 C80.8897906,26.5563076 80.9153487,26.6111874 80.9287176,26.677122 C80.9562417,26.8070172 80.919674,26.9329642 80.8870382,27.0435133 C80.8740626,27.0885226 80.8622665,27.1303733 80.8579413,27.1619588 C80.845752,27.248424 80.789131,27.3167275 80.7132431,27.3463389 L80.7132431,27.3463389 C80.9892706,27.535062 81.1457649,27.8059073 81.1669978,28.1442665 C81.1705366,28.2034893 81.1493037,28.262712 81.108804,28.3073265 C81.1044787,28.3128539 81.0997603,28.3171969 81.0950419,28.3215399 C81.108804,28.3385171 81.1213864,28.3543098 81.1320029,28.3693129 C81.1563814,28.4036621 81.1799735,28.4384061 81.2035656,28.4719657 C81.2790603,28.5817251 81.3490502,28.6843779 81.4320157,28.7747912 C81.4799863,28.8280917 81.5020056,28.9015279 81.4902096,28.9714107 C81.4776271,29.0408987 81.4351613,29.1001215 81.3738219,29.1332862 C81.3423657,29.1498686 81.2971476,29.1688198 81.2456381,29.19014 C81.2130024,29.2035638 81.159527,29.2260685 81.1150952,29.2477835 C81.1685706,29.3310901 81.2047452,29.4207139 81.2377741,29.5028361 C81.2519294,29.5379749 81.2660846,29.5731137 81.2806331,29.6062784 C81.3109096,29.6714234 81.3101232,29.748413 81.2794535,29.8115839 C81.2491769,29.8727807 81.1933423,29.9173952 81.126498,29.9331879 C81.1044787,29.9383206 81.0820662,29.9458221 81.0592605,29.9545081 C81.1009399,30.0168894 81.1410465,30.0757173 81.1866579,30.1274385 C81.2424925,30.1925835 81.260973,30.2829969 81.2354149,30.3639346 C81.2110364,30.4385553 81.1532357,30.4954091 81.0789206,30.5175189 C81.1717162,30.6632068 81.2354149,30.8369269 81.1839055,31.0220966 C81.1426193,31.1741016 81.0722362,31.2696476 80.980227,31.3525595 C80.9979211,31.3837501 81.0254452,31.4220475 81.0415665,31.4445521 C81.062013,31.4737687 81.0801002,31.4998267 81.0918963,31.5199624 C81.1320029,31.5898452 81.1355417,31.675126 81.1021195,31.7493518 C81.0690906,31.8208139 81.0049987,31.8717454 80.9291108,31.8863537 C80.9558485,31.9104376 80.9833726,31.9329423 81.0116831,31.9518935 C81.0793138,31.9957184 81.1221728,32.070339 81.126498,32.1508819 C81.1308232,32.2278715 81.0997603,32.3001232 81.0411733,32.3490807 C80.9825862,32.3972485 80.9302904,32.4343614 80.872883,32.4675261 C80.8791742,32.476607 80.8842858,32.485293 80.8909702,32.4935841 C80.9444457,32.5689944 81.025052,32.6830969 80.9747222,32.8603703 C80.9562417,32.9266997 80.9165283,32.9728935 80.8740626,33.0048738 C80.8992275,33.0530416 80.9381544,33.1185814 80.9904503,33.2003088 C81.0105035,33.2322891 81.0258384,33.256373 81.0325228,33.2686123 C81.0808866,33.3602102 81.0706634,33.4644422 81.0049987,33.5481436 C80.9967415,33.5584089 80.9888774,33.5678846 80.980227,33.5769654 C80.990057,33.5911788 81.0006735,33.6073664 81.0136491,33.6259228 L81.0136491,33.6259228 L81.0246588,33.6436897 C81.0966147,33.7562128 81.065945,33.9011111 80.9546689,33.9816541 C80.9397272,33.992709 80.9239992,34.0025794 80.9082711,34.0120551 C80.9578145,34.0712778 81.0073579,34.1301057 81.0592605,34.1865647 C81.1209932,34.2528942 81.1426193,34.3523884 81.1135224,34.4396432 C81.0918963,34.5039986 81.0454985,34.5553249 80.986125,34.583357 C80.9924163,34.5865156 80.9987075,34.5904638 81.0046055,34.5940171 C81.0824594,34.6402109 81.1292504,34.7254916 81.1272844,34.8170894 C81.1253184,34.9067132 81.0753818,34.9876509 80.9967415,35.0295016 C80.9330428,35.0630612 80.8720965,35.0950415 80.8107571,35.1238632 C80.8343492,35.1447886 80.8583345,35.1641347 80.8838926,35.180717 C80.9527029,35.2257263 80.9955619,35.3015314 80.9975279,35.3824691 C80.9998871,35.4645913 80.9613533,35.5443446 80.8933294,35.5948813 C80.8603005,35.6193601 80.8272716,35.6406803 80.795029,35.6600263 C80.8445724,35.7287247 80.8952954,35.7899215 80.9527029,35.830193 C81.0274112,35.8830986 81.0683042,35.9703535 81.0616198,36.060372 C81.0549353,36.1444683 81.0065715,36.2175097 80.9318632,36.2562019 C80.9430694,36.2686386 80.9497785,36.3689654 80.9519902,36.5571821 L80.9527029,36.7746955 C80.5002588,36.7941083 80.2576534,36.8252665 80.2248866,36.8681701 C80.2228758,36.870803 80.2177709,36.8774332 80.2098771,36.8876326 C80.1077516,37.0429804 79.7570842,37.5563632 79.7533686,37.5703895 L79.7533686,37.5703895 L79.3361803,38.1419313 C79.3361803,38.1419313 78.9086997,39.3107199 78.6074307,39.499395 C78.3061618,39.6880702 78.7283102,36.3131348 78.3061618,35.0386911 C77.8840133,33.7642475 77.1597191,32.4405193 77.1597191,32.4405193 C77.1597191,32.4405193 76.9079764,26.4711522 76.0640513,24.1181936 C76.0640513,24.1181936 73.6629004,20.1849977 67.8740731,19.2534293 C67.8740731,19.2534293 66.0645996,19.449358 65.4014359,20.1849977 C65.4014359,20.1849977 63.8363003,21.1082928 60.7001276,21.1082928 C57.5639549,21.1082928 56.1495033,20.1849977 56.1495033,20.1849977 C55.4859677,19.449358 53.6768662,19.2534293 53.6768662,19.2534293 C47.8880389,20.1849977 45.4731965,24.784348 45.4731965,24.784348 C44.6288996,27.1373065 44.4505972,32.4405193 44.4505972,32.4405193 C44.4505972,32.4405193 43.666554,33.7642475 43.2440336,35.0386911 C42.822629,36.3131348 43.6066722,40.8231232 42.9431366,39.499395 C42.279601,38.1756669 41.7971987,38.0777025 41.7971987,38.0777025 L41.7971987,38.0777025 L41.5259466,38.0580487 C41.5240411,38.0578685 41.5221795,38.0576449 41.5203619,38.0573779 Z" id="Tiny_Winy_Afro/Pixie" fill="#34CCBF"></path>
            </g>
        </g>
    </g>
</svg>