<?xml version="1.0" encoding="UTF-8"?>
<svg width="122px" height="122px" viewBox="0 0 122 122" version="1.1" xmlns="http://www.w3.org/2000/svg" xmlns:xlink="http://www.w3.org/1999/xlink">
    <title>Ear length</title>
    <g id="Page-1" stroke="none" stroke-width="1" fill="none" fill-rule="evenodd">
        <g id="Hair-lenght-states" transform="translate(-494.000000, -642.000000)">
            <g id="Ear-length" transform="translate(495.000000, 643.000000)">
                <path d="M78.7006171,39.9199312 L78.7073586,39.9180441 L78.7591491,39.9044499 C79.2019039,39.7928047 82.00875,39.1832778 82.0779676,41.6547893 C82.1538548,44.3381447 80.6641073,49.7048554 80.5889568,50.897294 C80.5138063,52.0897326 80.2898285,55.7422207 78.0544704,55.5926131 C78.0544704,55.5926131 77.4075869,65.1387548 71.1008416,70.9793456 C71.1008416,70.9793456 70.9629127,74.7295928 70.921534,78.4294565 L70.9152818,79.0810771 C70.8946641,81.6792784 70.929027,84.1409787 71.1008416,85.1294204 C71.5296414,87.6005247 75.3446328,90.5197146 78.4891643,91.8676566 C81.0481888,92.9642711 96.4016903,96.5913223 103.599658,100.810287 C92.6430799,112.614673 76.9931044,120 59.6181935,120 C42.4346745,120 26.9382985,112.776482 16,101.200381 C22.8815042,96.8159944 39.1092724,92.9978759 41.7479523,91.8676566 C44.8917469,90.5197146 48.7074752,87.6005247 49.1362749,85.1294204 C49.2720615,84.3469041 49.3218499,82.6410434 49.3264893,80.675092 L49.3265012,80.0463932 C49.3258044,79.7284946 49.3240892,79.4058522 49.3215164,79.0810771 L49.315275,78.4294565 C49.2739673,74.7295928 49.1362749,70.9793456 49.1362749,70.9793456 C42.8295296,65.1387548 42.1819094,55.5926131 42.1819094,55.5926131 C39.9458146,55.7422207 39.7225735,52.0897326 39.647423,50.897294 C39.5730093,49.7048554 38.0832617,44.3381447 38.1584122,41.6547893 C38.2249929,39.2538925 40.8761807,39.7604897 41.4335878,39.8937445 L41.5290197,39.9180441 C41.5334754,39.9192744 41.5357627,39.9199312 41.5357627,39.9199312 C41.5357627,18.9953532 52.2576164,16.7289483 59.8875714,16.6857127 L60.1178215,16.6850661 C67.7610663,16.6850661 78.7006171,18.7839939 78.7006171,39.9199312 Z" id="Combined-Shape" fill="#EBFAF9"></path>
                <path d="M83.5173097,28.6242488 C83.6114354,28.5996568 83.6987404,28.5368108 83.7573984,28.4220484 C85.0369625,25.9464606 84.0234059,22.1470072 81.6866328,20.519841 C81.2555643,19.5334313 80.903616,18.5333594 80.2856602,17.6302891 C79.6035898,16.6329496 78.7114418,15.7449076 77.6801514,15.1137147 C76.4251419,14.3472662 75.0364466,14.0562617 73.6436589,14.1191077 C72.1894848,13.1040074 70.5797987,12.2870088 68.905998,11.7651133 C67.6728147,11.3825722 66.5242082,11.1694421 65.2664704,11.337487 C62.6023035,9.91935225 59.7116893,9.4930921 56.7515038,10.7254211 C54.9876698,11.4604466 53.2429338,12.8703841 52.1502571,14.602749 C49.6702492,13.6286353 46.7155203,14.9948537 44.8930282,16.7463457 C44.2273275,17.3816373 43.6612091,18.1193953 43.2014937,18.9172668 C41.3298926,19.5634881 39.5742434,21.2207111 38.5484095,22.8328488 C37.7899473,24.0228251 37.5198474,25.3835787 37.4693742,26.7730228 C37.0246643,27.4288076 36.6495256,28.1269453 36.3835182,28.8674356 C35.6959912,30.7828739 36.1325163,32.8308353 36.5963241,34.7421749 C36.9018917,36.0004621 37.3261394,37.2245938 37.768121,38.4377957 C38.0918771,39.3249269 38.2392102,40.2393204 38.2101204,41.1809761 C38.3689308,40.5233701 38.7592876,40.1030218 39.3811908,39.9199312 C40.003094,39.7368406 40.7212846,39.7368406 41.5357627,39.9199312 C41.8768746,43.8314121 42.3057079,45.9114784 42.8222625,46.1601301 C42.729501,45.0002107 42.6176414,44.637695 42.8222625,43.7141313 C43.1551129,42.2017275 43.7757969,41.5787319 43.8139929,40.04037 C43.824906,39.584053 44.7675273,38.7465611 44.9516863,39.1564266 C45.3186401,38.1932426 45.3213684,37.1726775 45.2954497,36.1275204 C45.2872649,35.6944291 45.4946143,35.4594396 45.8124591,35.2230838 C46.1125701,35.0017564 46.4945295,35.2039567 46.7891839,35.2913947 C47.1834205,35.4129881 47.5353689,34.1273766 47.8150177,33.8131464 C48.0360085,33.5617622 48.4493432,33.5344378 48.7562748,33.5002823 C50.0985894,33.3513645 49.968996,32.8567935 50.3727816,32.0042732 C50.5432992,31.6435915 51.0071071,31.4045033 51.3904307,31.3894749 C51.5909593,31.3812776 53.6876437,31.5110683 53.3247822,30.8429875 C53.1569929,30.5328559 53.1515364,30.5150951 53.0560465,30.1653432 C53.0083016,29.9972983 53.1419874,29.8005628 53.3247822,29.8087601 C54.4733888,29.8675075 55.3709934,29.739083 56.4882247,29.5081921 C56.8961028,29.4234865 57.4472156,29.4958961 57.7882508,29.7527452 C57.9219366,29.8524791 58.0433451,29.9631428 58.1606612,30.0792714 C59.6857706,31.1968381 60.0827356,34.2571673 59.2424249,35.7449792 C58.7663397,36.5920346 57.8919255,36.9431528 56.9752229,36.9281244 C57.8632786,37.3338913 58.875471,37.3584832 59.9326801,36.794235 C60.9666988,36.2395503 61.6351277,35.2640703 62.1548654,34.205251 C64.1028584,30.2336541 61.4891647,27.8072501 61.4809798,27.7922217 C61.4782516,27.7908555 60.9666988,27.3044818 61.2913643,27.456132 C62.006174,27.7799258 62.4727102,28.3100185 63.1193129,28.7335462 C64.1615164,29.4166555 65.3728734,29.4521771 66.5378496,29.0477765 C67.3563341,28.763603 67.9742899,28.2922577 68.7354804,27.9288436 C69.0533252,27.7771933 69.4816654,27.5449362 69.8527117,27.6392053 C70.2387635,27.7348406 70.5211407,27.9015192 70.7612294,28.2294116 C71.4105604,29.1201861 71.8402648,29.7363506 72.9834147,30.0109605 C73.8728345,30.2240905 74.3066313,30.5765749 74.5153448,31.4782791 C74.7417922,32.4605901 75.0105279,33.0740222 75.6953266,33.8350059 C75.9886168,34.1601658 76.2859995,34.5153826 76.2914561,34.9826293 C76.310554,36.5865698 74.5174288,37.4915883 75.6953266,38.8916849 C76.8732243,40.2917814 76.6091205,44.2156815 76.8732243,45.2490272 C77.1373282,46.2823729 77.4858265,41.3014148 78.745188,40.04037 C79.2262135,39.5587015 81.1499603,39.7532728 81.5562108,40.2917814 C81.8270444,40.6507872 81.9607372,40.8591899 81.957289,40.9169894 C82.1897314,40.1431275 82.3464222,39.5867854 82.4273612,39.2479633 C83.2403891,38.3243996 83.9974872,37.3434548 84.3276093,36.2081273 C84.6877424,34.9757982 84.5295021,33.38552 83.8160565,32.272052 C84.1011619,31.0561176 83.9702044,29.8155912 83.5173097,28.6242488 Z" fill="#34CCBF"></path>
                <circle id="Oval-" stroke="#A7ADAD" cx="60" cy="60" r="60"></circle>
            </g>
        </g>
    </g>
</svg>