<?xml version="1.0" encoding="UTF-8"?>
<svg width="122px" height="122px" viewBox="0 0 122 122" version="1.1" xmlns="http://www.w3.org/2000/svg" xmlns:xlink="http://www.w3.org/1999/xlink">
    <title>Chin length</title>
    <g id="Page-1" stroke="none" stroke-width="1" fill="none" fill-rule="evenodd">
        <g id="Hair-lenght-states" transform="translate(-494.000000, -792.000000)">
            <g id="Chin-length" transform="translate(495.000000, 793.000000)">
                <g id="Illustration" transform="translate(16.000000, 16.000000)" fill="#EBFAF9">
                    <path d="M62.7498427,23.4751175 C62.7498427,23.4751175 66.0793913,22.5213485 66.1551641,25.2196181 C66.2316799,27.9178878 64.7295944,33.3144271 64.6538215,34.5134934 C64.5780486,35.7125597 64.3522158,39.3853486 62.0983447,39.2349095 C62.0983447,39.2349095 61.4461038,48.8341094 55.0871266,54.7071626 C55.0871266,54.7071626 54.9639354,58.047645 54.9146589,61.5423878 L54.9063339,62.1986819 C54.8744293,65.043715 54.8994525,67.8591213 55.0871266,68.9358848 C55.5194776,71.4207236 59.3660645,74.3561386 62.5366387,75.7115726 C65.1342189,76.8217022 80.8064352,80.5106917 88.0004795,84.7896273 C77.0434299,96.6059196 61.385205,104 44,104 C26.6201872,104 10.9662832,96.6105056 0.00873823156,84.8019668 C7.19331285,80.5170683 22.890096,76.8226614 25.4911391,75.7115726 C28.6609704,74.3561386 32.5083002,71.4207236 32.9406512,68.9358848 C33.1280033,67.8591213 33.1529836,65.043715 33.1211338,62.1986819 L33.112823,61.5423878 C33.0636311,58.047645 32.9406512,54.7071626 32.9406512,54.7071626 C26.581674,48.8341094 25.9286902,39.2349095 25.9286902,39.2349095 C23.6740762,39.3853486 23.4489863,35.7125597 23.3732134,34.5134934 C23.2981834,33.3144271 21.7960979,27.9178878 21.8718708,25.2196181 C21.9469008,22.5213485 25.2771922,23.4751175 25.2771922,23.4751175 C25.2771922,2.43423902 36.0878434,0.155237269 43.780989,0.111761321 L44.013146,0.111111111 C51.7196915,0.111111111 62.7498427,2.2217049 62.7498427,23.4751175 Z" id="Combined-Shape"></path>
                </g>
                <path d="M78.460073,57.0897207 C78.460073,57.0897207 77.2489795,58.2777778 74.5804747,58.4305556 C73.7904655,58.4757853 78.6918087,45.792943 76.6361417,43.0214715 C74.5804747,40.25 75.771198,38.151698 75.7643208,38.052134 C75.6175183,35.9268128 72.4527612,36.7993427 72.602708,32.2051607 C72.3739083,31.727359 69.0089037,30.7386173 68.5064555,30.2824066 C65.7033969,27.737063 67.9703765,26.0318721 62.1939737,25.4445159 C56.4172204,24.8571597 55.1418228,22.5133745 55.1418228,22.5133745 C53.0826259,25.8096065 54.2892998,26.2003362 52.2301029,28.0277778 C51.4925481,28.682506 48.3336887,30.5508765 47.3333333,32.2051607 C46.228303,34.0325455 44.0684598,37.6042762 44.4305556,39.0905702 C45.5992131,43.8875576 42.9342237,47.5972979 43.0539574,48.3670529 C43.5776889,51.7340657 45.7987147,57.1349065 44.4305556,58.4305556 C41.8677001,60.857584 36.7540873,56.7458979 36.7540873,56.7458979 C36.7540873,56.7458979 33.1837134,57.2098366 33.3294725,55.3411584 C27.6389133,53.0860943 30.6952982,50.0375596 33.1837134,48.3670529 C35.672479,46.6967461 30.9878674,44.9006916 29.2314009,43.0214715 C27.4749343,41.1422514 28.425872,39.8895713 32.4514144,38.052134 C36.4773072,36.2144966 33.0372536,33.2497271 32.8175639,32.2051607 C32.5978742,31.1615938 34.3546911,30.9526805 34.427921,28.7807819 C34.5011509,26.609683 36.0386285,25.481951 37.9415549,24.3546189 C39.8437805,23.2266871 37.2824858,22.5169816 39.6976711,18.7585415 C40.659461,17.2617527 42.3306961,16.4711582 43.9354074,15.6948709 C46.3603443,14.5217953 48.828704,13.7725711 50.0174814,13.7725711 C51.9932873,13.7725711 52.7988162,11.738805 55.1418228,10.9873168 C56.053868,10.6946383 58.0338784,10.19292 60.0138889,10.19292 C61.9938994,10.19292 64.23885,10.6946383 65.1508952,10.9873168 C67.4939018,11.738805 66.5306496,12.5434491 68.5064555,12.5434491 C70.1298551,12.5434491 74.6291235,14.6135846 77.8101612,17.1768095 C78.5006982,17.7332322 79.8990446,18.0881476 80.3297563,18.7585415 C82.7456424,22.5169816 80.1836469,23.2266871 82.0865733,24.3546189 C83.9891492,25.481951 85.5262765,26.609683 85.5995064,28.7807819 C85.6730867,30.9526805 87.4299036,31.1615938 87.2102139,32.2051607 C86.9905242,33.2497271 83.550821,36.2144966 87.5763634,38.052134 C91.6019058,39.8895713 92.5528434,41.1422514 90.7963769,43.0214715 C89.0399103,44.9006916 84.3552988,46.6967461 86.8440644,48.3670529 C89.3324796,50.0375596 92.3885141,53.0860943 86.6983053,55.3411584 C87.8871525,53.5243124 84.4804853,53.2815818 84.4804853,53.2815818 C84.4804853,53.2815818 86.3503757,58.2777778 82.0865733,58.2777778 C81.3763483,58.2777778 78.460073,57.0897207 78.460073,57.0897207 Z" fill="#34CCBF"></path>
                <circle id="Oval--" stroke="#A7ADAD" cx="60" cy="60" r="60"></circle>
            </g>
        </g>
    </g>
</svg>