<?xml version="1.0" encoding="UTF-8"?>
<svg width="122px" height="122px" viewBox="0 0 122 122" version="1.1" xmlns="http://www.w3.org/2000/svg" xmlns:xlink="http://www.w3.org/1999/xlink">
    <title>Shoulder length</title>
    <g id="Page-1" stroke="none" stroke-width="1" fill="none" fill-rule="evenodd">
        <g id="Hair-lenght-states" transform="translate(-494.000000, -942.000000)">
            <g id="Shoulder-length" transform="translate(495.000000, 943.000000)">
                <path d="M79.2239752,36.5645444 C79.2239752,36.5645444 82.6683358,35.5778867 82.7467215,38.3692002 C82.8258757,41.1605136 81.2719942,46.7431405 81.1936084,47.9835539 C81.1152227,49.2239673 80.8816026,53.0234041 78.5500117,52.8677774 C78.5500117,52.8677774 78.5425355,52.9778074 78.5214844,53.1817894 L78.5030555,53.3521407 C78.2702429,55.4142544 77.0097203,63.5974016 71.2970275,68.8735566 C71.2970275,68.8735566 70.8489993,81.0224014 71.2970275,83.5929243 C71.7442872,86.1634472 75.723515,89.2000834 79.0034193,90.6022565 C81.6426101,91.7301693 97.3287808,95.4314869 104.938581,99.7569265 C93.9463434,112.172702 77.8872534,120 60,120 C42.0563877,120 25.9524771,112.1233 14.9572811,99.6389135 C22.6409824,95.3637613 38.0642951,91.7198172 40.6804887,90.6022565 C43.9596246,89.2000834 47.9396209,86.1634472 48.3868806,83.5929243 C48.8341402,81.0224014 48.3868806,68.8735566 48.3868806,68.8735566 C41.8086283,62.7979842 41.1331278,52.8677774 41.1331278,52.8677774 C38.8007685,53.0234041 38.5679168,49.2239673 38.4895311,47.9835539 C38.4119139,46.7431405 36.8580323,41.1605136 36.936418,38.3692002 C37.0140353,35.5778867 40.4591644,36.5645444 40.4591644,36.5645444 C40.4591644,14.7981183 51.6425966,12.4405303 59.6010231,12.3955552 L59.8411855,12.3948826 C67.813474,12.3948826 79.2239752,14.5782554 79.2239752,36.5645444 Z" id="Combined-Shape" fill="#EBFAF9"></path>
                <circle id="Oval--" stroke="#A7ADAD" cx="60" cy="60" r="60"></circle>
                <path d="M96.8345055,55.3818381 C94.5516517,55.491815 93.3678992,53.107624 93.8717108,51.1986418 C94.1365874,50.2074918 94.1147419,49.4349379 93.7338112,48.7017584 C93.7201577,48.7085471 93.709235,48.7166935 93.6955815,48.7234822 C93.7242537,48.792727 93.7310805,48.8782646 93.7515606,48.9529402 C93.6450638,48.6528798 93.4894147,48.3799741 93.299632,48.1301499 C93.3160161,48.1478006 93.339227,48.1586625 93.3542458,48.1763131 L93.387014,48.1573047 C93.2928053,48.0378236 93.1890392,47.9156271 93.0743504,47.7947882 C92.1145142,46.7819143 90.4296807,46.6760106 89.1380661,46.8267198 C88.3625511,46.9190461 87.5993243,47.0561778 86.8292708,47.1756589 C85.0270178,47.456711 84.7471224,46.2605423 84.8959448,44.9774782 C85.4134099,44.0772967 85.799802,43.1078705 86.1247537,42.0936389 C86.5684902,40.7196062 86.5097805,39.4121028 86.1780021,38.1602667 C86.1370418,38.054363 86.1124656,37.9484593 86.0810627,37.8425556 C86.1288497,37.7814573 86.1766367,37.7230745 86.2244237,37.657903 C86.2339811,37.6429679 86.2449039,37.6253173 86.2558266,37.6103821 C86.3104404,37.5316332 86.3650541,37.4515266 86.4169371,37.3673467 C86.4169371,37.3714199 86.4169371,37.3754931 86.4183025,37.3809241 C88.1331735,34.7129654 88.1836912,31.5806597 87.2102015,28.4524273 C86.3800729,25.7817531 84.5327636,23.9053568 82.4874795,22.1959624 C82.4779221,22.1416528 82.4710954,22.0873432 82.4588073,22.0316759 C82.4710954,22.0384646 82.4792874,22.0452533 82.4902102,22.052042 C82.4724607,21.952927 82.4369618,21.8565274 82.4123856,21.7574124 C82.3837134,21.6392891 82.3564065,21.5238812 82.3195423,21.4071156 C82.2403524,21.1505027 79.583301,16.187986 75.7754525,15.5810542 C75.7863752,15.5579726 75.7945673,15.5294601 75.7809139,15.5050207 C74.6558711,13.2240179 71.4555067,11.3082471 68.9623901,11.0380569 C67.9725163,10.9307954 67.0768512,10.9728853 66.2344344,11.1317409 C63.578842,10.1813231 60.9355376,9.55432139 58.6717986,10.563122 C57.057963,9.91683791 55.3348999,10.7488583 53.7661206,11.2810923 C49.6154774,10.2424213 44.7562211,13.1534154 42.0473802,16.8315325 C40.9032227,17.4995405 39.9993655,18.7269372 39.2129278,19.6841438 C37.2987167,22.0085943 36.6898952,23.3264918 35.6822719,26.189965 C35.228978,27.4825333 35.6535997,30.4034994 35.6822719,31.5412853 C34.9449866,33.5299215 35.6112941,35.2784453 37.6811945,36.7868566 C38.4302655,36.3252306 39.3562554,36.2511265 40.4591644,36.5645444 C41.3079748,36.8057541 42.5768373,37.5194911 43.3378336,38.1602667 C44.0600477,38.7683869 63.7355519,38.0828756 63.787435,38.1602667 C63.8646399,38.3366166 65.589625,36.3860863 68.9623901,32.3086757 C69.8960969,35.7320803 71.1968667,38.1462233 72.8646995,39.5511047 C73.7917298,40.3319789 77.6585737,36.8379514 79.2239752,36.5645444 C80.7893767,36.2911373 81.4761315,36.2911373 82.4123856,37.2186781 C83.3384256,38.1360998 81.9055378,43.9917481 81.8538176,44.3311206 C81.6175063,45.881725 81.1282824,47.7367405 81.1282824,48.7017584 C81.1282824,49.6667763 80.8828493,50.6081431 80.3400177,51.7379602 C79.97813,52.4911717 79.3814613,52.8677774 78.5500117,52.8677774 C78.3517433,54.4061837 78.2155601,55.3418705 78.1414621,55.6748378 C77.4988816,58.5623413 77.0517825,60.0163349 75.7809139,62.582326 C74.5100452,65.1483171 73.3076229,66.7952321 71.1224385,68.9708289 C71.2613507,70.6867841 71.2346174,74.1185609 71.1224385,77.4943581 C71.0279728,80.3371148 71.0271363,83.3474493 71.6389654,84.6966926 C72.3267298,86.2133931 75.1773477,88.6494211 77.0984527,89.6516374 C79.1185113,90.7054766 87.1787986,90.1046753 87.2880261,89.7557362 C87.2880261,89.7557362 87.2907567,89.746232 87.2934874,89.740801 C87.3699467,89.1651193 87.3440051,88.5595674 88.5700833,87.7625742 C89.0138198,87.6050763 89.4643831,87.5005304 89.9272344,87.4475785 C90.5307161,87.3552522 91.1464859,87.3348861 91.7513329,87.2724301 C92.8695489,87.15838 93.9304206,86.9750851 94.7892214,86.2133931 C95.4186446,85.6526465 95.5756591,84.8067747 95.4991999,84.0138546 C95.4828157,83.86043 95.4350287,83.7178673 95.3681269,83.5848088 C95.6725984,83.5644428 95.9784353,83.4517503 96.2501386,83.2698132 C96.6979712,82.9711105 97.5513106,82.300387 97.1567265,81.705697 C97.1621878,81.6052242 97.0802673,81.507467 96.9491943,81.5549879 C94.4110214,82.47282 94.1597982,79.1341378 95.8692079,78.2909814 C96.7116246,77.8727976 97.6632688,77.7954064 98.5780487,77.656917 C99.6293629,77.4980614 100.522297,76.8992982 101.218622,76.1321752 C102.660425,74.5449774 101.640513,72.90347 100.131809,72.1010458 C100.108598,72.0779642 100.084022,72.0535249 100.060811,72.0345165 C100.940092,71.635341 101.703319,70.6278981 101.621399,69.6801957 L101.621399,69.6611874 C101.615937,69.6245284 101.621399,69.5878694 101.615937,69.5512105 C101.602284,69.486039 101.540843,69.4778925 101.487595,69.4887544 C101.428885,69.4656729 101.360618,69.4724616 101.293716,69.5267712 C99.0422654,71.3990943 97.4079496,66.292635 101.135336,64.8167719 C102.385991,64.3211968 103.39771,63.9451029 104.554156,63.240436 C105.504435,62.6593233 106.426041,61.3205919 106.46154,60.182806 C106.568037,56.7368624 104.530945,54.1829539 100.927804,54.5400394 C99.5174048,54.6826021 98.2749425,55.3112356 96.8345055,55.3818381 Z" id="Shoulder_length" fill="#34CCBF"></path>
            </g>
        </g>
    </g>
</svg>