<?xml version="1.0" encoding="UTF-8"?>
<svg width="122px" height="122px" viewBox="0 0 122 122" version="1.1" xmlns="http://www.w3.org/2000/svg" xmlns:xlink="http://www.w3.org/1999/xlink">
    <title>Collarbone length</title>
    <g id="Page-1" stroke="none" stroke-width="1" fill="none" fill-rule="evenodd">
        <g id="Hair-lenght-states" transform="translate(-494.000000, -1092.000000)">
            <g id="Collarbone-length" transform="translate(495.000000, 1093.000000)">
                <path d="M79.1048279,37.9049619 C79.1048279,37.9049619 79.1405417,37.8947587 79.2047267,37.879406 L79.3214522,37.8531463 C80.0709283,37.6944241 82.5117545,37.3571811 82.5771311,39.6790317 C82.6551519,42.4230369 81.1235207,47.9110474 81.0462575,49.1304378 C80.9689942,50.3498282 80.7387193,54.0848707 78.4405151,53.9318817 C78.4405151,53.9318817 77.7754448,63.6937877 71.2913882,69.666389 C71.2913882,69.666389 71.1572718,73.2934225 71.1107684,76.9727879 L71.1016931,77.8211741 L71.1016931,77.8211741 L71.0976699,78.3829761 C71.0966241,78.5693365 71.0958834,78.7546293 71.0954778,78.9383723 L71.0954901,79.5812812 C71.1002681,81.5916674 71.1515442,83.3360844 71.2913882,84.1362874 C71.7322435,86.6632442 75.6544917,89.6484143 78.8874302,91.0268229 C81.507758,92.1436872 97.176069,95.8272896 104.613679,100.119251 C93.6308573,112.325632 77.711651,120 60,120 C42.288349,120 26.3691427,112.325632 15.3862478,100.120762 C22.8227213,95.8275089 38.4916217,92.1437204 41.1132558,91.0268229 C44.3454368,89.6484143 48.2684425,86.6632442 48.7092978,84.1362874 C48.8489019,83.3360844 48.9000901,81.5916674 48.9048599,79.5812812 L48.9048722,78.9383723 C48.8955591,74.7122818 48.7092978,69.666389 48.7092978,69.666389 C42.2252412,63.6937877 41.5594134,53.9318817 41.5594134,53.9318817 C39.2604518,54.0848707 39.0309344,50.3498282 38.9536711,49.1304378 C38.8771653,47.9110474 37.3455341,42.4230369 37.4227974,39.6790317 C37.4875331,37.3571811 39.928803,37.6944241 40.6784308,37.8531463 L40.7951804,37.879406 C40.8593789,37.8947587 40.8951006,37.9049619 40.8951006,37.9049619 C40.8951006,16.5074413 51.9183943,14.1898105 59.762862,14.1455977 L59.9995855,14.1449364 C67.8577167,14.1449364 79.1048279,16.2913047 79.1048279,37.9049619 Z" id="Combined-Shape" fill="#EBFAF9"></path>
                <path d="M57.5326903,10.6145716 C68.2610929,7.71956376 80.4090378,15.9922988 80.4090378,15.9922988 C93.2345687,28.62737 91.2915367,40.1736823 89.6319275,44.9680819 C90.7275434,45.4760592 91.4808927,46.5342187 91.4808927,47.7570024 C91.4808927,48.7886514 90.9430447,49.7018197 90.1193044,50.2682152 C90.9430447,50.835574 91.4808927,51.7468158 91.4808927,52.779428 C91.4808927,53.2620201 91.3605711,53.7166778 91.1538647,54.1231725 C92.5853835,54.4699453 93.6456535,55.6865397 93.6456535,57.1362426 C93.6456535,57.7084176 93.4769976,58.2449522 93.1900768,58.7063526 C94.6946113,59.0039992 95.8258402,60.2543077 95.8258402,61.7531367 C95.8258402,62.6624519 95.4052287,63.4764047 94.7429456,64.0466532 L94.7429456,64.0466532 L94.8087625,64.0447267 C96.6444386,64.0447267 98.1335472,65.4395239 98.1335472,67.1589388 C98.1335472,67.8312927 97.9042163,68.4516307 97.5185701,68.9602307 C98.9994516,69.2761792 100.103942,70.5130021 100.103942,71.9954557 C100.103942,72.8855058 99.7038987,73.6869362 99.0652685,74.254295 C100.881405,74.2783764 102.346861,75.6616145 102.346861,77.3685071 C102.346861,78.2421818 101.963271,79.0301266 101.345209,79.5965221 C102.90322,79.8556385 104.086897,81.1271386 104.086897,82.6596816 C104.086897,84.0968621 103.048223,85.3018974 101.6383,85.6631191 C102.702684,86.182315 103.429755,87.2235965 103.429755,88.4276687 C103.429755,90.1480469 101.941675,91.542844 100.103942,91.542844 C99.897236,91.542844 99.6936148,91.5226156 99.4971923,91.4889016 C100.266428,92.0610767 100.757998,92.9395677 100.757998,93.9297966 C100.757998,95.6492116 99.2699181,97.044972 97.4321853,97.044972 L97.4321853,97.044972 L97.3293463,97.0391924 C97.3961917,97.2828966 97.4321853,97.5371966 97.4321853,97.7992027 C97.4321853,99.5215075 95.944105,100.915341 94.1063722,100.915341 C93.5171048,100.915341 92.9628026,100.769889 92.4835729,100.518479 C92.3488538,102.122303 90.9183634,103.385134 89.1690721,103.385134 C87.9216351,103.385134 86.8366837,102.738788 86.2669557,101.786126 C85.6735747,102.644389 84.6451847,103.216564 83.4728202,103.216564 C81.6350874,103.216564 80.1449503,101.81984 80.1449503,100.100425 C80.1449503,99.8441988 80.180944,99.5985681 80.2426474,99.3616067 C79.6646922,99.8210806 78.914996,100.100425 78.0953692,100.100425 C76.2576363,100.100425 74.7695561,98.704665 74.7695561,96.9823602 C74.7695561,96.5026579 74.8878209,96.0489635 75.0965841,95.643432 C74.6667171,95.8331938 74.1905725,95.9410786 73.6866615,95.9410786 C71.8489286,95.9410786 70.3587916,94.5453182 70.3587916,92.82494 C70.3587916,91.572705 71.1496235,90.4957829 72.2870228,90.0016317 C70.8369929,89.6654548 69.7582119,88.4421175 69.7582119,86.9789291 C69.7582119,85.8673297 70.3803878,84.8944394 71.3151943,84.3424928 C69.9104136,83.9774181 68.8799669,82.7752725 68.8799669,81.3429083 C68.8799669,80.2043377 69.5350513,79.2102558 70.5089365,78.6669785 C69.5350513,78.1237011 68.8799669,77.1296192 68.8799669,75.9900853 C68.8799669,74.5259337 69.9587479,73.3006699 71.4128913,72.9673827 C70.4246086,72.4269951 69.7582119,71.4252072 69.7582119,70.2760407 C69.7582119,69.3301217 70.2076183,68.4853447 70.9192641,67.9131696 C70.2076183,67.3419578 69.7582119,66.4971808 69.7582119,65.5512618 C69.7582119,64.4309931 70.3927285,63.4503967 71.340904,62.9023031 C70.3927285,62.3532462 69.7582119,61.3736131 69.7582119,60.2523812 C69.7582119,59.3045356 70.2117319,58.4559056 70.9254345,57.885657 C70.2117319,57.3125187 69.7582119,56.4658152 69.7582119,55.5160431 C69.7582119,54.1395479 70.7125578,52.9730428 72.0340388,52.5607685 C71.6617617,52.0589113 70.5220027,51.5244779 71.3151943,49.52649 C69.2107623,48.4757248 70.5220027,46.1558224 70.5089365,46.0728767 C70.372964,45.2097035 55.0943383,35.5735772 50.7252937,25.0766562 L50.8077566,25.2709883 C50.6749143,25.3059243 50.5482257,25.3403768 50.4279981,25.3740082 C48.4971129,26.8644422 45.2864412,30.8910234 43.1451409,41.6755599 C43.1451409,41.6755599 43.8395692,46.2693147 42.7457869,47.3935505 L42.7311219,47.3632098 C42.2624097,46.38689 30.8489573,22.1261462 50.5647455,14.9610979 C53.308534,11.4444442 57.5326903,10.6145716 57.5326903,10.6145716 Z M39.3823407,52.0391508 C40.1596884,54.1160173 41.5594134,53.9318817 41.5594134,53.9318817 C42.6090393,64.5938358 48.7092978,69.666389 48.7092978,69.666389 L48.7092978,69.666389 L48.9044371,78.0163788 C43.1298523,70.1486287 40.8212159,61.1898632 40.8212159,61.1898632 L40.8212159,61.1898632 Z" id="Combined-Shape" fill="#34CCBF"></path>
                <circle id="Oval-" stroke="#A7ADAD" cx="60" cy="60" r="60"></circle>
            </g>
        </g>
    </g>
</svg>