<?xml version="1.0" encoding="UTF-8"?>
<svg width="122px" height="122px" viewBox="0 0 122 122" version="1.1" xmlns="http://www.w3.org/2000/svg" xmlns:xlink="http://www.w3.org/1999/xlink">
    <title>Armpit length</title>
    <g id="Page-1" stroke="none" stroke-width="1" fill="none" fill-rule="evenodd">
        <g id="Hair-lenght-states" transform="translate(-494.000000, -1242.000000)">
            <g id="Armpit-length" transform="translate(495.000000, 1243.000000)">
                <g id="Illustration-" transform="translate(19.000000, 10.000000)">
                    <path d="M54.6980634,24.0267248 C54.6980634,24.0267248 57.2043054,23.3087969 57.2613417,25.339858 C57.3189372,27.3709192 56.1882765,31.4330415 56.1312402,32.3356114 C56.0742039,33.2381813 55.9042133,36.0027896 54.2076631,35.88955 C54.2076631,35.88955 53.7167036,43.1151296 48.930128,47.535937 C48.930128,47.535937 48.793636,51.2370889 48.785607,54.3563856 L48.7856218,54.9161654 C48.7897505,56.3867288 48.827853,57.6594902 48.930128,58.2462842 C49.2555704,60.1166901 52.1510013,62.3262571 54.5375789,63.3465292 C56.9235974,64.3662435 73.9651485,68.2766359 76.1811764,72.3571666 C76.5578061,73.050762 76.9245457,73.6264462 77.2780628,74.1877873 L77.4639652,74.484197 C78.0383713,75.4057331 78.575312,76.3379403 79.0598976,77.7435759 L79.1629306,78.0521985 C79.469593,79.0008173 79.7541793,80.1587478 80.0127337,81.6489309 L80.097949,82.1581329 C80.5191503,84.7673575 80.8668201,88.337451 81.1226447,93.4375844 C81.141449,93.8124809 81.160501,94.1861372 81.1797899,94.5584713 C76.8959691,98.4259245 72.0503598,101.683102 66.7808301,104.194356 C66.6883819,103.400239 66.6382209,102.697374 66.6382209,102.107945 L66.6382209,101.42795 C66.6382209,101.42795 66.4174727,102.776884 66.0092416,104.555277 C58.3959931,108.051057 49.9255965,110 41,110 C31.7188416,110 22.9298723,107.892688 15.0854619,104.130433 C14.7380611,102.56627 14.5517791,101.42795 14.5517791,101.42795 L14.5517791,102.107945 C14.5517791,102.60301 14.5163896,103.178097 14.4508121,103.819302 C9.16038836,101.206707 4.3113172,97.8352825 0.04463102,93.8484182 L0.0667961479,93.4375844 L0.0667961479,93.4375844 C0.493170433,84.937362 1.17467031,80.6872508 2.02658012,78.0521985 L2.12962184,77.7435759 C2.52770908,76.5889467 2.96113803,75.7537608 3.4216628,74.9815329 L3.54240892,74.7813417 C3.68398384,74.5490579 3.82800216,74.3205399 3.97423143,74.0885571 L4.10010684,73.8886975 C4.39505421,73.4195916 4.69857969,72.9283629 5.0088236,72.3571666 C7.22429234,68.2766359 24.2652843,64.3662435 26.6524211,63.3465292 C29.0384395,62.3262571 31.9344296,60.1166901 32.259872,58.2462842 C32.3619716,57.6594902 32.4000087,56.3867288 32.4041304,54.9161654 L32.4041451,54.3563856 C32.3961299,51.2370889 32.259872,47.535937 32.259872,47.535937 C28.0225756,43.6224354 27.1511448,37.5109451 27.0069431,36.159843 L26.9891907,35.9799301 C26.9838912,35.9206194 26.9817777,35.88955 26.9817777,35.88955 C25.2846683,36.0027896 25.1152369,33.2381813 25.0582006,32.3356114 C25.0017235,31.4330415 23.8710628,27.3709192 23.9280991,25.339858 C23.9845762,23.3087969 26.4913774,24.0267248 26.4913774,24.0267248 C26.4913774,8.5086422 34.3033837,6.54829048 40.0659432,6.44463565 L40.4196899,6.44048943 L40.4196899,6.44048943 L40.5944408,6.44 C46.3953678,6.44 54.6980634,8.0287015 54.6980634,24.0267248 Z" id="Combined-Shape" fill="#EBFAF9"></path>
                    <path d="M55.5659895,35.0132886 C55.5210721,35.1630934 55.5183461,35.2693798 55.5085964,35.3209097 C55.5024785,35.353244 55.4999356,35.38311 55.4991192,35.438778 L55.4992407,35.5928932 C55.4993514,35.6099991 55.4994758,35.6283452 55.4996054,35.6480625 L55.5003764,35.7838668 C55.5004924,35.8095921 55.5005965,35.8369503 55.5006801,35.8660723 L55.5006476,36.1793261 C55.4999489,36.4246216 55.4975879,36.7475483 55.4917161,37.1763766 C55.4791117,38.096899 55.6887142,39.5075806 55.8497332,40.4462857 C56.5478052,42.9463031 56.8250097,45.1491947 56.6824272,47.0553375 C56.5527566,48.7888657 56.4178366,49.6708505 56.3299376,50.2023155 L56.300952,50.3761528 C56.189023,51.0466297 56.1920822,51.0865359 56.4763676,52.0892953 C57.0797818,54.2226861 58.6517163,55.6233352 60.2929805,56.9750556 L60.8125303,57.4010858 C62.8049316,59.0340815 64.7602269,60.7008566 65.0833658,63.614409 C65.2135412,64.7812819 65.2073717,66.0701038 64.7878492,67.1800259 C64.4102192,68.1836623 63.7887863,68.9841682 62.9738457,69.5728015 C63.9064179,70.6717604 64.5959438,70.8632655 64.9567497,72.3634653 C65.4141301,74.2652138 63.5212869,75.9222258 64.2404091,76.6879637 C65.2933113,77.8091182 66.0722395,78.2400327 66.2330587,79.6698109 C66.3637692,80.8251306 66.3575744,82.1011919 65.9363274,83.2001246 C65.3825116,84.6514758 64.3064735,85.6737959 62.8655612,86.240117 C62.2943999,86.4638261 61.4290218,86.71 60.563101,86.71 C59.6971803,86.71 57.9171323,86.2613178 57.7628979,85.9565972 C59.0192049,84.3697947 60.4826987,83.2126631 59.2383665,81.7957002 C57.9940343,80.3787374 58.1623239,81.0439704 53.4620835,78.2884639 C51.7660628,77.2941752 53.5946355,74.5962242 53.4620835,73.5900082 C53.0283812,70.2977283 51.136514,70.2977283 50.3588186,68.4514306 C49.6035296,66.6583273 49.2868112,64.6680023 51.7228185,61.6947552 C50.3441968,60.6818618 49.3511864,59.6672458 48.930128,58.4735254 C48.4433914,57.0936043 48.7402454,52.6952775 48.7600001,51.6540321 C48.7673728,51.265424 48.7816921,50.813739 48.799024,50.3548036 L48.8145259,49.9609568 C48.8653704,48.7163991 48.930128,47.535937 48.930128,47.535937 C49.3997776,47.0868041 49.9285357,46.502461 50.3379809,45.9772715 C51.3660222,44.6586173 52.3122844,43.0726711 53.0410611,41.1351185 C53.396436,39.7698188 53.7853977,38.021053 54.2076631,35.88955 L54.25247,35.89 L54.2856366,35.8910867 C54.3321329,35.891599 54.3676571,35.8910867 54.3922093,35.88955 C54.5143364,35.8819062 54.6058237,35.8620029 54.6667334,35.8445874 C54.9108471,35.7747894 55.0864429,35.6338711 55.1981229,35.5242218 C55.4567011,35.2703456 55.5726238,34.9911622 55.5659895,35.0132886 Z M25.3900272,34.488592 C25.9131466,36.0669228 26.9817778,35.88955 26.9817778,35.88955 C27.7566189,43.7813283 32.2598721,47.535937 32.2598721,47.535937 L32.2598721,47.535937 L32.4039253,53.7164427 C28.1410867,47.8928818 26.4368353,41.2617717 26.4368353,41.2617717 L26.4368353,41.2617717 Z M39.0193236,0.546757325 C47.0283919,-1.96585798 52.5009891,4.99659731 52.5009891,4.99659731 C59.0767717,13.1871836 57.1725321,21.082264 56.450195,23.2736658 L56.3977633,23.4290468 C56.3640026,23.5267403 56.3340166,23.6089787 56.3091207,23.6750257 C56.2978959,23.8165844 56.2906179,23.9356379 56.2906179,23.9944451 C54.6788947,23.6979951 54.2695524,24.3579804 54.2695524,24.3579804 C43.3231174,22.6612609 36.8561393,14.0410487 34.6135383,10.4788086 C33.9507455,10.8410395 28.0703693,14.3066129 26.4913775,24.0267248 C26.4913775,24.0267248 25.6105222,23.81235 25.0139402,23.9713148 C25.0139402,23.9713148 25.0112161,23.9533894 25.0063528,23.918632 L25.0028802,23.92 C25.0028802,23.92 19.9359762,8.94532504 34.0992979,4.1435861 C36.0529315,1.58743545 39.0193236,0.546757325 39.0193236,0.546757325 Z" id="Armpit-length" fill="#34CCBF"></path>
                </g>
                <circle id="Oval-" stroke="#A7ADAD" cx="60" cy="60" r="60"></circle>
            </g>
        </g>
    </g>
</svg>