<?xml version="1.0" encoding="UTF-8"?>
<svg width="122px" height="122px" viewBox="0 0 122 122" version="1.1" xmlns="http://www.w3.org/2000/svg" xmlns:xlink="http://www.w3.org/1999/xlink">
    <title>Bra-strap_length</title>
    <g id="Page-1" stroke="none" stroke-width="1" fill="none" fill-rule="evenodd">
        <g id="Hair-lenght-states" transform="translate(-933.000000, -342.000000)">
            <g id="Bra-strap_length" transform="translate(934.000000, 343.000000)">
                <path d="M72.0267535,29.949289 C72.0267535,29.949289 74.1162232,29.3531965 74.1637747,31.039578 C74.2117924,32.7259596 73.2691535,36.0987228 73.221602,36.8481228 C73.1740504,37.5975228 73.0323283,39.8929655 71.6179036,39.7989432 C71.6179036,39.7989432 71.2085876,45.7983116 67.2179895,49.4688895 C67.2179895,49.4688895 67.1341038,51.7342494 67.1061419,54.0141905 L67.1005764,54.5605039 C67.0991269,54.7419334 67.0981068,54.9223039 67.0975878,55.1004628 L67.0976057,55.6271529 C67.1014891,56.8352381 67.1334327,57.8784934 67.2179895,58.3616459 C67.4893129,59.9146362 69.9032518,61.7492304 71.8929566,62.596358 C73.8821951,63.4430226 88.0898433,66.689805 89.9373597,70.0778526 C90.2694137,70.6868565 90.5922467,71.1863766 90.9025732,71.6781084 L91.018353,71.8623414 L91.018353,71.8623414 L91.1329217,72.0470359 C92.4433518,74.1782459 93.5059132,76.6374366 94.0570929,87.5808352 C94.4639691,95.659427 95.0099492,103.044437 95.5358133,108.545214 C92.5938143,110.687309 89.4487051,112.567895 86.1354139,114.153362 C84.5192534,108.120706 81.9813378,98.59233 81.9813378,94.7797995 L81.9813378,94.2152021 C81.9813378,94.2152021 80.8447632,101.132099 78.9972468,103.249224 C77.5834024,104.869745 76.6689074,113.18595 76.5723827,117.759928 C71.3885983,119.218731 65.9199064,120 60.2687393,120 C54.6172076,120 49.1481747,119.21863 43.9637782,117.758027 C43.8680677,113.18595 42.9536565,104.869745 41.5401688,103.249224 C39.6931186,101.132099 38.5565441,94.2152021 38.5565441,94.2152021 L38.5565441,94.7797995 C38.5565441,97.1618622 37.565702,101.775237 36.42797,106.373303 L36.1730657,107.39393 C35.565097,109.806864 34.9337445,112.169433 34.40214,114.15386 C31.0884829,112.567756 27.9431126,110.686979 25,108.545077 C25.5274664,103.044437 26.0734466,95.659427 26.4803228,87.5808352 C27.0075381,77.1132365 28.0026339,74.4081268 29.2351858,72.3275502 L29.3478837,72.1399287 C29.3856634,72.0778293 29.4236548,72.0161048 29.4618514,71.9545565 L29.6350997,71.6781084 C29.9454826,71.1863766 30.2683844,70.6868565 30.6005221,70.0778526 C32.4475724,66.689805 46.6547544,63.4430226 48.6449253,62.596358 C50.6341639,61.7492304 53.048569,59.9146362 53.3198924,58.3616459 C53.4043041,57.8784934 53.436193,56.8352381 53.4400696,55.6271529 L53.4400875,55.1004628 C53.4395694,54.9223039 53.4385511,54.7419334 53.4371041,54.5605039 L53.4315481,54.0141905 C53.4036342,51.7342494 53.3198924,49.4688895 53.3198924,49.4688895 C49.3292942,45.7983116 48.919512,39.7989432 48.919512,39.7989432 C47.5046212,39.8929655 47.3633652,37.5975228 47.3158137,36.8481228 C47.2687284,36.0987228 46.3260894,32.7259596 46.373641,31.039578 C46.417479,29.4694986 48.2321115,29.8779254 48.4821971,29.9417278 L48.5106622,29.949289 L48.5106622,29.949289 C48.5106622,16.8060193 55.2877121,15.3762011 60.1150822,15.3475559 L60.2684747,15.347105 C65.104744,15.347105 72.0267535,16.6661972 72.0267535,29.949289 Z" id="Combined-Shape" fill="#EBFAF9"></path>
                <path d="M72.7503489,39.071387 C72.712901,39.1957693 72.7106284,39.2840184 72.7025,39.3268035 L72.6978615,39.3580963 C72.6961124,39.3746132 72.6951534,39.3934274 72.6946915,39.4190013 L72.6948009,39.5679264 C72.6951438,39.6194594 72.6955933,39.683702 72.6958563,39.7651166 L72.6960468,39.9521641 C72.6958152,40.1647518 72.6940564,40.4579274 72.6884267,40.8673899 C72.6779066,41.632554 72.853058,42.8056098 72.9873599,43.5850058 C73.1395306,44.1247192 73.2670921,44.648533 73.3709122,45.1556327 C74.5935602,48.2741725 78.0014867,50.6044239 78.3181859,54.1327026 C78.4490225,55.5962237 78.0934511,56.7941732 77.5659833,58.0237308 C79.0648528,59.2702539 80.4396162,60.6149402 80.6850454,62.8187775 C80.7935734,63.7876272 80.7884299,64.8577306 80.4386713,65.7792943 C80.1238413,66.612603 79.6057543,67.2772558 78.926341,67.7659945 C79.7043868,68.6786249 80.2788278,68.8380907 80.5794847,70.0830824 C80.9608056,71.6620961 79.3827304,73.0379062 79.9822671,73.6736952 C80.8600782,74.6045851 81.5094756,74.9623716 81.6435516,76.1495105 C81.7267988,76.8823038 81.7434381,77.6736007 81.5900918,78.413146 C82.7049469,80.2700713 82.4340568,81.6304875 81.9071622,82.8762514 C81.6987577,83.3689928 81.3943835,83.7033531 81.0652583,84.0210189 L80.8429562,84.2318777 C80.2071399,84.8311144 79.5394816,85.4831257 79.3199507,87.1427909 C79.2094413,87.9782478 80.7339338,90.2183452 79.3199507,91.043899 C78.7802105,91.3590262 78.3174744,91.6202699 77.9180586,91.8395695 C78.0628082,92.7858989 78.0217728,93.6914774 77.7461538,94.1777823 C76.0917429,97.0968427 81.2463021,97.6459346 78.8171625,97.6459346 C77.333955,97.6459346 75.5990624,96.6258841 74.1186903,95.0132082 C74.2117725,95.7670609 75.0139138,96.5044989 75.7343347,97.410718 C75.6057486,97.6637262 74.1217114,98.0362652 73.3997878,98.0362652 C72.6778642,98.0362652 71.9563931,97.831868 71.4802123,97.6461233 C70.2789147,97.1759092 69.3818149,96.3270812 68.9200952,95.1220303 C68.568899,94.2095911 68.5637343,93.1500827 68.6727084,92.1908256 C68.8067844,91.0036867 69.4561818,90.6459002 70.3339929,89.7150103 C70.9335296,89.0792214 69.3554544,87.7034113 69.7367753,86.1243975 C69.8721442,85.5638476 70.0630146,85.223355 70.3029695,84.9351702 C69.800291,83.7973701 69.0121225,82.7183889 68.741121,81.1756059 C68.330888,78.840192 70.7466702,78.1820049 70.2157169,76.3897105 C69.6847636,74.5974162 69.4612506,74.6539441 69.0865866,73.8561501 C68.5075536,72.6231812 68.0084587,71.5244714 68.2486881,70.6696957 C68.6042036,69.4047136 68.9264712,68.5526185 69.1897286,67.9183292 C68.8837865,67.6191416 68.604331,67.296536 68.4090978,66.8349363 C67.7794762,65.3462896 67.5154152,63.6939257 69.5456205,61.2256904 C68.3973705,60.3843668 67.5691267,59.5417415 67.2179895,58.5503233 C66.8121942,57.4045807 67.0596833,53.7526683 67.0761528,52.8881266 C67.1007395,51.597488 67.2179895,49.4688895 67.2179895,49.4688895 C67.6095394,49.0959763 68.0503683,48.6107987 68.3917253,48.174736 C69.2488355,47.0798303 70.0377617,45.7629798 70.6453547,44.1541725 C70.9417202,43.02008 71.2659353,41.5683347 71.6179037,39.7989432 L71.6548556,39.799 L71.6829107,39.8002191 C71.721675,39.8006444 71.7512918,39.8002191 71.771761,39.7989432 C71.8735792,39.7925965 71.9498527,39.7760709 72.0006335,39.7616109 C72.2041526,39.7036579 72.3505479,39.586654 72.4436563,39.4956127 C72.6592345,39.2848203 72.7558801,39.0530155 72.7503489,39.071387 Z M47.5924597,38.6357335 C48.0285876,39.946215 48.9195121,39.7989432 48.9195121,39.7989432 C49.565502,46.3514536 53.3198925,49.4688895 53.3198925,49.4688895 L53.3198925,49.4688895 L53.4399905,54.6005375 C49.8860352,49.7652592 48.4651901,44.2594763 48.4651901,44.2594763 L48.4651901,44.2594763 Z M58.9552897,10.4539703 C65.6325002,8.36775635 70.1950389,14.1486538 70.1950389,14.1486538 C76.1013145,21.4752293 73.8018749,28.5170276 73.3691972,29.6591362 C73.36038,29.7774893 73.3544762,29.8743239 73.3544762,29.9224873 C72.0107724,29.6763461 71.6695012,30.2243292 71.6695012,30.2243292 C62.5426057,28.815429 57.1509031,21.6569944 55.2816771,18.6997488 C54.7329924,18.9992703 49.8275352,21.8759159 48.5106623,29.949289 C48.5106623,29.949289 47.7762878,29.7712945 47.2789136,29.9032824 C47.2789136,29.9032824 47.2766105,29.8881895 47.2725024,29.8589309 L47.2696928,29.8606759 C47.2696928,29.8606759 43.0449773,17.4260716 54.8551348,13.4398278 C56.4830516,11.31774 58.9552897,10.4539703 58.9552897,10.4539703 Z" fill="#34CCBF"></path>
                <circle id="Oval-" stroke="#A7ADAD" cx="60" cy="60" r="60"></circle>
            </g>
        </g>
    </g>
</svg>