<?xml version="1.0" encoding="UTF-8"?>
<svg width="122px" height="122px" viewBox="0 0 122 122" version="1.1" xmlns="http://www.w3.org/2000/svg" xmlns:xlink="http://www.w3.org/1999/xlink">
    <title>Waist length</title>
    <g id="Page-1" stroke="none" stroke-width="1" fill="none" fill-rule="evenodd">
        <g id="Hair-lenght-states" transform="translate(-933.000000, -492.000000)">
            <g id="Waist-length" transform="translate(934.000000, 493.000000)">
                <path d="M70.0423552,26.5101193 C70.0423552,26.5101193 71.7515434,26.0167904 71.7904406,27.4124472 C71.8297192,28.808104 71.0586396,31.5994176 71.0197424,32.2196244 C70.9808452,32.8398311 70.8649163,34.7395496 69.7079156,34.6617363 C69.7079156,34.6617363 69.3730947,39.62684 66.1087816,42.6646263 C66.1087816,42.6646263 66.0148497,45.23107 66.0101531,47.3805455 L66.0107367,47.8678185 C66.0154055,48.8221292 66.0420844,49.6387322 66.1087816,50.0243107 C66.3307244,51.3095722 68.3053288,52.8278904 69.9329092,53.528977 C71.5601083,54.2296803 83.1819781,56.9167317 84.6932483,59.7206948 C84.9483335,60.1940264 85.1967663,60.5874449 85.4363206,60.9706599 L85.5462457,61.1470577 C86.6754559,62.9675942 87.5949321,64.7999821 88.063194,74.2062401 C88.6447451,85.888589 89.5737015,95.8184131 90.1552526,98.7389045 C90.1750782,98.8384667 90.1958483,98.937893 90.2174661,99.0376741 L90.2618036,99.2378547 C90.7343879,101.329066 91.5463376,103.715665 91.8261537,110.821636 C89.1179539,112.528936 86.2624518,114.02269 83.2840328,115.282777 C83.1944874,114.600631 83.1206061,113.914046 83.0660493,113.224833 C82.5318703,106.473673 82.7997877,104.206201 82.8161938,102.485509 L82.8167731,102.253889 C82.8126516,101.452491 82.7403294,100.734881 82.4852609,99.6730477 C81.6714706,96.2856764 78.1852148,84.2529758 78.1852148,80.1641345 L78.1852148,79.6968712 C78.1852148,79.6968712 77.2554957,85.4213257 75.7442255,87.1734672 C74.2329553,88.925992 73.4191651,100.140694 73.884406,101.542484 C74.1506686,102.344964 77.0435771,108.925085 79.4475263,116.749964 C73.3279687,118.857012 66.7596137,120 59.9242996,120 C53.4258106,120 47.1686189,118.966883 41.3080076,117.055933 C43.7297937,109.096134 46.694255,102.355335 46.9637378,101.542484 C47.4289787,100.140694 46.6151885,88.925992 45.1042996,87.1734672 C43.5934108,85.4213257 42.6636917,79.6968712 42.6636917,79.6968712 L42.6636917,80.1641345 C42.6636917,84.2529758 39.1770545,96.2856764 38.3632642,99.6730477 C37.8288349,101.897842 38.0968308,102.611487 38.1132122,105.75089 L38.1137875,106.194396 C38.1096494,107.80188 38.0372826,110.002688 37.7820945,113.224833 C37.7171636,114.045485 37.6248299,114.862412 37.5103549,115.672703 C34.5483976,114.4797 31.7046707,113.05716 29,111.427289 C29.2489534,104.084901 30.0489779,101.545662 30.5403017,99.4398535 L30.586725,99.2378547 C30.6245649,99.0704011 30.6602298,98.9048415 30.6932725,98.7389045 C31.2748236,95.8184131 32.20378,85.888589 32.7853311,74.2062401 C33.2460404,64.9516959 34.1435261,63.0286738 35.2479945,61.2351891 L35.4124234,60.9706599 C35.6520223,60.5874449 35.9005086,60.1940264 36.1556581,59.7206948 C37.6665469,56.9167317 49.2880355,54.2296803 50.9159973,53.528977 C52.5431963,52.8278904 54.518182,51.3095722 54.7401248,50.0243107 C54.8067076,49.6387322 54.8333408,48.8221292 54.8380016,47.8678185 L54.8385842,47.3805455 C54.8338956,45.23107 54.7401248,42.6646263 54.7401248,42.6646263 C51.4758117,39.62684 51.1406095,34.6617363 51.1406095,34.6617363 C49.9832274,34.7395496 49.8676799,32.8398311 49.8287827,32.2196244 C49.7902668,31.5994176 49.0191873,28.808104 49.0580845,27.4124472 C49.0966003,26.0167904 50.8061699,26.5101193 50.8061699,26.5101193 C50.8061699,15.6463053 56.3359355,14.4523448 60.2837626,14.4257553 L60.4240719,14.4252876 C64.3801448,14.4252876 70.0423552,15.5169741 70.0423552,26.5101193 Z" id="Combined-Shape" fill="#EBFAF9"></path>
                <path d="M70.6342571,34.0596076 C70.6036246,34.1625469 70.6017656,34.2355823 70.5951166,34.2709914 C70.5913534,34.2910318 70.5895736,34.3096924 70.5888523,34.3412275 L70.5889385,34.4887112 L70.5891194,34.5168377 L70.5891194,34.5168377 L70.5895217,34.9119897 C70.5888805,35.0736237 70.5872165,35.2802048 70.5836046,35.5459875 C70.5749874,36.1801021 70.7186632,37.1527087 70.8285804,37.7977289 C71.3041419,39.5133412 71.4927936,41.0256476 71.395637,42.3343793 C71.1667547,45.4174984 72.624189,46.888055 72.9654087,48.1007876 C73.3858388,49.5985312 74.1978925,50.2361041 75.0103893,50.8098467 L75.3344844,51.0378271 C75.8823862,51.4260617 76.4063707,51.833882 76.7834028,52.5117552 C78.191176,54.7023478 79.3544772,59.3709949 79.5594211,61.6810376 C79.6917866,63.1790433 81.1515071,65.7767029 80.5533605,67.0676067 C80.4520579,67.2864822 80.3411524,67.5033089 80.2281557,67.7186684 L80.0580313,68.04068 C79.3504693,69.3784159 78.7079321,70.6701991 79.9643113,72.0580181 C81.5931803,73.8569252 80.3222895,75.593252 80.5533605,78.2735027 C80.7425841,80.4805769 83.7801677,81.0924877 82.5365688,82.663397 C81.1610592,84.4010093 81.3539217,86.6015825 82.6361841,88.2718635 C83.1574585,88.9512132 78.9011609,91.0171436 79.9643113,91.7339947 C81.0274617,92.4508458 81.5572526,95.3126245 81.0274617,96.2583676 C79.7405551,98.5556569 83.4902187,99.0793082 82.1526277,99.1251654 C82.097456,99.1526499 81.9517497,99.1552934 81.688188,99.1271829 C79.7857224,98.924273 76.6770128,99.6680213 74.5070651,97.3486907 C74.829726,97.9874528 75.3438297,98.5331655 75.6565647,98.8484729 L75.8376071,99.0298241 C75.9066954,99.0999462 75.9398941,99.1379365 75.9203731,99.1379365 C75.1621843,99.1379365 71.4179855,97.8683016 70.3586125,96.9973238 C69.6523639,96.4166719 69.2575767,95.9244224 69.174251,95.5205752 C69.1656963,95.259303 69.1144645,95.4612266 69.0205557,96.126346 C68.9599156,96.5558358 69.3839844,97.3453295 69.8036684,97.871499 C70.3088288,98.5048327 71.2210247,99.1352792 69.5276319,98.5657407 C66.4273795,97.5230333 66.6378524,92.6858992 66.6006141,92.5171499 C66.4618698,91.888415 65.7419455,90.9399668 65.812224,90.3140691 C65.9218983,89.3315878 65.8825637,88.8231162 66.6006141,88.0527076 C67.0910357,87.5265259 66.2886932,86.9513635 66.6006141,85.6445648 L66.6422662,85.4933762 C66.3572225,84.7024308 65.9670471,83.6152254 66.3035557,82.7412354 C66.6652694,81.8017819 65.4343485,80.7266962 65.8176621,79.6561966 C66.5108468,77.720304 66.7154143,76.8740304 66.6205592,75.8257365 C66.5422509,74.9603113 66.1175308,73.9106214 66.8497832,72.4070464 C68.4690167,69.0821836 66.6205592,69.5973813 66.6205592,67.1715034 C66.6205592,66.0596427 66.8291407,65.507679 67.0500801,64.9867002 L67.1706386,64.7024238 C67.3895849,64.1752275 67.585212,63.5828504 67.5612959,62.3963803 C67.5091154,59.8077184 68.4311853,60.1043994 67.3362951,57.036843 C66.9997054,56.0938188 66.1469058,52.9919611 66.0598415,50.0116059 C65.7977928,48.9179961 65.9800019,46.1719353 65.9927592,45.494402 C66.0128711,44.4262638 66.1087818,42.6646263 66.1087818,42.6646263 C66.4290699,42.3560018 66.7896684,41.9544666 67.0688988,41.5935793 C67.7707332,40.6865031 68.416679,39.5953683 68.9138953,38.2620544 C69.1556992,37.3234757 69.4204949,36.123602 69.7079158,34.6617363 L69.7379583,34.662 L69.8030434,34.6627922 C69.8151567,34.6626162 69.8253993,34.6622643 69.8337712,34.6617363 C69.9170586,34.6564838 69.9794504,34.6428071 70.0209891,34.6308399 C70.1874679,34.5828778 70.3072195,34.4860449 70.3833822,34.4106986 C70.5597254,34.2362459 70.6387815,34.0444032 70.6342571,34.0596076 Z M50.0550794,33.6990589 C50.4118325,34.7836191 51.1406096,34.6617363 51.1406096,34.6617363 C51.6575426,39.9667339 54.6078008,42.5511088 54.7358286,42.6609658 L54.740125,42.6646263 L54.8383653,46.9116008 C51.9917918,42.993272 50.8181583,38.542911 50.7704924,38.35918 L50.7689738,38.3532931 L50.0550794,33.6990589 Z M68.544011,13.4334441 C73.3744101,19.4957704 71.495138,25.3225055 71.1406823,26.2694352 C71.1332842,26.3675862 71.1284337,26.4479906 71.1284337,26.487938 C70.9623567,26.4571587 70.815,26.4413836 70.6844981,26.4367814 C70.5905328,26.4440942 70.496268,26.4466948 70.4031137,26.446776 C69.8979527,26.4975844 69.7501226,26.7377437 69.7501226,26.7377437 C63.0643291,25.6935548 58.828834,20.8333726 56.918674,18.0715284 C56.3713136,17.9054774 55.9396195,17.7742803 55.6240115,17.6783633 C54.3046472,18.671956 51.6515135,21.266715 50.8061701,26.5101193 C50.8061701,26.5101193 50.205451,26.3628102 49.7985984,26.4720439 C49.7985984,26.4720439 49.796748,26.4597749 49.7934436,26.4359837 L49.7910558,26.4367826 C49.7910558,26.4367826 49.7771853,26.3954781 49.7536582,26.3172639 L49.7270684,26.2269091 C49.3008034,24.7480648 47.1512083,15.8668396 55.9964564,12.8466453 C56.959099,11.5765504 58.2835565,10.8510775 58.9428141,10.5468411 L59.0959036,10.4783033 C59.2562078,10.4088218 59.3498853,10.3757078 59.3498853,10.3757078 C64.81185,8.64914798 68.544011,13.4334441 68.544011,13.4334441 Z" fill="#34CCBF"></path>
                <circle id="Oval-" stroke="#A7ADAD" cx="60" cy="60" r="60"></circle>
            </g>
        </g>
    </g>
</svg>