<?xml version="1.0" encoding="UTF-8"?>
<svg width="120px" height="80px" viewBox="0 0 120 80" version="1.1" xmlns="http://www.w3.org/2000/svg" xmlns:xlink="http://www.w3.org/1999/xlink">
    <title>factory (1)</title>
    <g id="Page-1" stroke="none" stroke-width="1" fill="none" fill-rule="evenodd">
        <g id="Quiz_page_q13_1920" transform="translate(-785.000000, -599.000000)">
            <g id="Group" transform="translate(405.000000, 409.000000)">
                <g id="factory-(1)" transform="translate(380.000000, 190.000000)">
                    <path d="M75.4535865,22.4632911 C75.8613917,22.4632911 76.1919831,22.7938826 76.1919831,23.2016878 L76.1919831,23.2016878 L76.1919831,25.7333333 C76.1922889,26.0250419 76.0208297,26.2895885 75.7544304,26.4084388 L75.7544304,26.4084388 L76.6025316,44.1940928 L81.7299578,44.1940928 C82.137763,44.1940928 82.4683544,44.5246843 82.4683544,44.9324895 L82.4683544,44.9324895 L82.4683544,60.9915612 L84.2616034,60.9915612 C84.6694086,60.9915612 85,61.3221526 85,61.7299578 L85,61.7299578 L85,64.2616034 C85,64.6694086 84.6694086,65 84.2616034,65 L84.2616034,65 L35.7383966,65 C35.3306879,65 35,64.6693121 35,64.2616034 L35,64.2616034 L35,61.7299578 C35,61.3222491 35.3306879,60.991794 35.7383966,60.9915612 L35.7383966,60.9915612 L37.5316456,60.9915612 L37.5316456,40.7383966 L35.7383966,40.7383966 C35.3306879,40.7381638 35,40.4077087 35,40 L35,40 L35,37.4683544 C35,37.0606457 35.3306879,36.7301906 35.7383966,36.7299578 L35.7383966,36.7299578 L57.5983122,36.7299578 C58.006021,36.7301906 58.3364761,37.0606457 58.3367089,37.4683544 L58.3367089,37.4683544 L58.3367089,40 C58.3364761,40.4077087 58.006021,40.7381638 57.5983122,40.7383966 L57.5983122,40.7383966 L55.8059072,40.7383966 L55.8059072,44.1940928 L65.8649789,44.1940928 L66.7139241,26.4084388 C66.4475247,26.2895885 66.2760655,26.0250419 66.2763713,25.7333333 L66.2763713,25.7333333 L66.2763713,23.2016878 C66.2763713,22.7938826 66.6069627,22.4632911 67.0147679,22.4632911 L67.0147679,22.4632911 Z M83.5232068,62.4683544 L36.4767932,62.4683544 L36.4767932,63.5232068 L83.5232068,63.5232068 L83.5232068,62.4683544 Z M55.8059072,45.6708861 L55.8059072,60.9924051 L80.9915612,60.9924051 L80.9915612,45.67173 L55.8059072,45.6708861 Z M54.3291139,40.7383966 L39.0084388,40.7383966 L39.0084388,60.9915612 L43.3983122,60.9915612 L43.3983122,53.2911392 C43.3983122,52.883334 43.7289037,52.5527426 44.1367089,52.5527426 L44.1367089,52.5527426 L49.2,52.5527426 C49.6077087,52.5529754 49.9381638,52.8834305 49.9383966,53.2911392 L49.9383966,53.2911392 L49.9383966,60.9915612 L54.3291139,60.9915612 L54.3291139,40.7383966 Z M48.4599156,54.0295359 L44.8734177,54.0295359 L44.8734177,60.9915612 L48.4599156,60.9915612 L48.4599156,54.0295359 Z M61.3957806,51.3270042 C61.8034893,51.327237 62.1339444,51.6576921 62.1341772,52.0654008 L62.1341772,52.0654008 L62.1341772,54.5970464 C62.1341772,55.0048516 61.8035858,55.3354432 61.3957806,55.3354432 L61.3957806,55.3354432 L58.864135,55.3354432 C58.6682657,55.3355551 58.4803866,55.2577959 58.3418861,55.1192954 C58.2033855,54.9807949 58.1256264,54.7929157 58.1257383,54.5970464 L58.1257383,54.5970464 L58.1257383,52.0654008 C58.1257383,51.6575956 58.4563298,51.3270042 58.864135,51.3270042 L58.864135,51.3270042 Z M69.6624473,51.3270042 C70.0702525,51.3270042 70.400844,51.6575956 70.400844,52.0654008 L70.400844,52.0654008 L70.400844,54.5970464 C70.4009559,54.7929157 70.3231967,54.9807949 70.1846962,55.1192954 C70.0461957,55.2577959 69.8583165,55.3355551 69.6624473,55.3354432 L69.6624473,55.3354432 L67.1308017,55.3354432 C66.9349324,55.3355551 66.7470532,55.2577959 66.6085527,55.1192954 C66.4700522,54.9807949 66.392293,54.7929157 66.3924049,54.5970464 L66.3924049,54.5970464 L66.3924049,52.0654008 C66.3924049,51.6575956 66.7229965,51.3270042 67.1308017,51.3270042 L67.1308017,51.3270042 Z M77.9324895,51.3270042 C78.3402946,51.3270042 78.6708862,51.6575956 78.6708862,52.0654008 L78.6708862,52.0654008 L78.6708862,54.5970464 C78.6709981,54.7929157 78.5932389,54.9807949 78.4547384,55.1192954 C78.3162379,55.2577959 78.1283587,55.3355551 77.9324895,55.3354432 L77.9324895,55.3354432 L75.4008439,55.3354432 C75.2049746,55.3355551 75.0170954,55.2577959 74.8785949,55.1192954 C74.7400944,54.9807949 74.6623352,54.7929157 74.6624471,54.5970464 L74.6624471,54.5970464 L74.6624471,52.0654008 C74.6624471,51.6575956 74.9930387,51.3270042 75.4008439,51.3270042 L75.4008439,51.3270042 Z M60.657384,52.8037975 L59.6025316,52.8037975 L59.6025316,53.8586498 L60.657384,53.8586498 L60.657384,52.8037975 Z M68.9240506,52.8037975 L67.8691983,52.8037975 L67.8691983,53.8586498 L68.9240506,53.8586498 L68.9240506,52.8037975 Z M77.1940928,52.8037975 L76.1392405,52.8037975 L76.1392405,53.8586498 L77.1940928,53.8586498 L77.1940928,52.8037975 Z M47.9324895,46.2940927 C48.3402946,46.2940927 48.6708861,46.6246843 48.6708861,47.0324895 L48.6708861,47.0324895 L48.6708861,49.564135 C48.6706533,49.9718438 48.3401982,50.3022989 47.9324895,50.3025316 L47.9324895,50.3025316 L45.4008439,50.3025316 C44.9930387,50.3025316 44.6624471,49.9719402 44.6624471,49.564135 L44.6624471,49.564135 L44.6624471,47.0324895 C44.6623352,46.8366202 44.7400944,46.648741 44.8785949,46.5102405 C45.0170954,46.37174 45.2049746,46.2939808 45.4008439,46.2940927 L45.4008439,46.2940927 Z M47.1940928,47.7708861 L46.1392405,47.7708861 L46.1392405,48.8257384 L47.1940928,48.8257384 L47.1940928,47.7708861 Z M74.278903,26.4734177 L68.1894515,26.4734177 L67.3443038,44.1949367 L75.1227848,44.1949367 L74.278903,26.4734177 Z M56.8599156,38.2067511 L36.4767932,38.2067511 L36.4767932,39.2616034 L56.8599156,39.2616034 L56.8599156,38.2067511 Z M72.7381857,31.8411392 C73.1459908,31.8216811 73.4923562,32.1364986 73.5118143,32.5443038 L73.5118143,32.5443038 L73.628692,34.9531646 C73.638194,35.1494762 73.5690398,35.3414757 73.4365442,35.4866427 C73.3040486,35.6318097 73.1191459,35.7181643 72.9227848,35.7265823 L72.9227848,35.7265823 L72.8873418,35.7265823 C72.4933899,35.7265823 72.1689062,35.4171368 72.150211,35.0236287 L72.150211,35.0236287 L72.0350211,32.6147679 C72.015563,32.2069627 72.3303805,31.8605974 72.7381857,31.8411392 Z M74.7151899,23.9417722 L67.7531646,23.9417722 L67.7531646,24.9966245 L74.7151899,24.9966245 L74.7151899,23.9417722 Z M77.257384,17.5316456 C77.6651892,17.5316456 77.9957806,17.862237 77.9957806,18.2700422 C77.9957806,18.6778474 77.6651892,19.0084388 77.257384,19.0084388 L77.257384,19.0084388 L75.0316456,19.0084388 C74.0417435,19.0096014 73.2395592,19.8117857 73.2383966,20.8016878 C73.2383966,21.209493 72.9078052,21.5400844 72.5,21.5400844 C72.0921948,21.5400844 71.7616034,21.209493 71.7616034,20.8016878 C71.763696,18.9965608 73.2265186,17.5337382 75.0316456,17.5316456 L75.0316456,17.5316456 Z M79.1835443,15 C79.5913495,15 79.9219409,15.3305914 79.9219409,15.7383966 C79.9219409,16.1462018 79.5913495,16.4767932 79.1835443,16.4767932 L79.1835443,16.4767932 L75.0316456,16.4767932 C72.6441327,16.4793513 70.7093091,18.4141749 70.7067511,20.8016878 C70.7067511,21.209493 70.3761596,21.5400844 69.9683544,21.5400844 C69.5605492,21.5400844 69.2299578,21.209493 69.2299578,20.8016878 C69.233446,17.5989501 71.8289079,15.0034882 75.0316456,15 L75.0316456,15 Z M84.2616034,17.5316456 C84.6694086,17.5316456 85,17.862237 85,18.2700422 C85,18.6778474 84.6694086,19.0084388 84.2616034,19.0084388 L84.2616034,19.0084388 L80.3700422,19.0084388 C79.962237,19.0084388 79.6316456,18.6778474 79.6316456,18.2700422 C79.6316456,17.862237 79.962237,17.5316456 80.3700422,17.5316456 L80.3700422,17.5316456 Z M84.2616034,15 C84.6694086,15 85,15.3305914 85,15.7383966 C85,16.1462018 84.6694086,16.4767932 84.2616034,16.4767932 L84.2616034,16.4767932 L83.2447257,16.4767932 C82.8369205,16.4767932 82.5063291,16.1462018 82.5063291,15.7383966 C82.5063291,15.3305914 82.8369205,15 83.2447257,15 L83.2447257,15 Z" id="Combined-Shape" fill="#030303" fill-rule="nonzero"></path>
                    <rect id="Rectangle-Copy-17" x="0" y="0" width="120" height="80"></rect>
                </g>
            </g>
        </g>
    </g>
</svg>