<?xml version="1.0" encoding="UTF-8"?>
<svg width="120px" height="80px" viewBox="0 0 120 80" version="1.1" xmlns="http://www.w3.org/2000/svg" xmlns:xlink="http://www.w3.org/1999/xlink">
    <title>shopping-store</title>
    <g id="Page-1" stroke="none" stroke-width="1" fill="none" fill-rule="evenodd">
        <g id="Quiz_page_q13_1920" transform="translate(-1165.000000, -599.000000)">
            <g id="Group" transform="translate(405.000000, 409.000000)">
                <g id="shopping-store" transform="translate(760.000000, 190.000000)">
                    <path d="M74.0967742,18 C74.5065338,18 74.8387097,18.3321758 74.8387097,18.7419355 L74.8387097,18.7419355 L74.8387097,27.6451613 C74.8387097,28.0549209 74.5065338,28.3870968 74.0967742,28.3870968 L74.0967742,28.3870968 L68.1612903,28.3870968 L68.1612903,29.8709677 L74.5688306,29.8709677 C74.7394998,29.8710892 74.9049088,29.9300469 75.0371774,30.0379032 L75.0371774,30.0379032 L80.5006048,34.4895161 C80.6738528,34.6301125 80.7743833,34.841397 80.7741935,35.0645161 L80.7741935,35.0645161 L80.7741935,36.5483871 C81.1839532,36.5483871 81.516129,36.8805629 81.516129,37.2903226 L81.516129,37.2903226 L81.516129,39.516129 C81.516129,39.9258887 81.1839532,40.2580645 80.7741935,40.2580645 L80.7741935,40.2580645 L79.2903226,40.2580645 L79.2903226,59.5483871 L82.2580645,59.5483871 C82.6678242,59.5483871 83,59.8805629 83,60.2903226 C83,60.7000822 82.6678242,61.0322581 82.2580645,61.0322581 L82.2580645,61.0322581 L37.7419355,61.0322581 C37.3321758,61.0322581 37,60.7000822 37,60.2903226 C37,59.8805629 37.3321758,59.5483871 37.7419355,59.5483871 L37.7419355,59.5483871 L40.7096774,59.5483871 L40.7096774,40.2580645 L39.2258065,40.2580645 C38.8160468,40.2580645 38.483871,39.9258887 38.483871,39.516129 L38.483871,39.516129 L38.483871,37.2903226 C38.483871,36.8805629 38.8160468,36.5483871 39.2258065,36.5483871 L39.2258065,36.5483871 L39.2258065,35.0645161 C39.2256167,34.841397 39.3261472,34.6301125 39.4993952,34.4895161 L39.4993952,34.4895161 L44.9628226,30.0379032 C45.0950912,29.9300469 45.2605002,29.8710892 45.4311694,29.8709677 L45.4311694,29.8709677 L51.8387097,29.8709677 L51.8387097,28.3870968 L45.9032258,28.3870968 C45.4934662,28.3870968 45.1612903,28.0549209 45.1612903,27.6451613 L45.1612903,27.6451613 L45.1612903,18.7419355 C45.1612903,18.3321758 45.4934662,18 45.9032258,18 L45.9032258,18 Z M67.4193548,44.7096774 L61.483871,44.7096774 L61.483871,59.5483871 L67.4193548,59.5483871 L67.4193548,44.7096774 Z M74.8387097,44.7096774 L68.9032258,44.7096774 L68.9032258,59.5483871 L74.8387097,59.5483871 L74.8387097,44.7096774 Z M77.8064516,40.2580645 L42.1935484,40.2580645 L42.1935484,59.5483871 L60,59.5483871 L60,43.9677419 C60,43.5579823 60.3321758,43.2258065 60.7419355,43.2258065 L60.7419355,43.2258065 L75.5806452,43.2258065 C75.9904048,43.2258065 76.3225806,43.5579823 76.3225806,43.9677419 L76.3225806,43.9677419 L76.3225806,59.5483871 L77.8064516,59.5483871 L77.8064516,40.2580645 Z M70.3870968,51.3870968 C70.7968564,51.3870968 71.1290323,51.7192726 71.1290323,52.1290323 L71.1290323,52.1290323 L71.1290323,53.6129032 C71.1290323,54.0226629 70.7968564,54.3548387 70.3870968,54.3548387 C69.9773371,54.3548387 69.6451613,54.0226629 69.6451613,53.6129032 L69.6451613,53.6129032 L69.6451613,52.1290323 C69.6451613,51.7192726 69.9773371,51.3870968 70.3870968,51.3870968 Z M65.9354839,51.3870968 C66.3452435,51.3870968 66.6774194,51.7192726 66.6774194,52.1290323 L66.6774194,52.1290323 L66.6774194,53.6129032 C66.6774194,54.0226629 66.3452435,54.3548387 65.9354839,54.3548387 C65.5257242,54.3548387 65.1935484,54.0226629 65.1935484,53.6129032 L65.1935484,53.6129032 L65.1935484,52.1290323 C65.1935484,51.7192726 65.5257242,51.3870968 65.9354839,51.3870968 Z M58.516129,43.2258065 C58.9258887,43.2258065 59.2580645,43.5579823 59.2580645,43.9677419 L59.2580645,43.9677419 L59.2580645,53.6129032 C59.2580645,54.0226629 58.9258887,54.3548387 58.516129,54.3548387 L58.516129,54.3548387 L43.6774194,54.3548387 C43.2676597,54.3548387 42.9354839,54.0226629 42.9354839,53.6129032 L42.9354839,53.6129032 L42.9354839,43.9677419 C42.9354839,43.5579823 43.2676597,43.2258065 43.6774194,43.2258065 L43.6774194,43.2258065 Z M51.5313629,44.7096774 L44.4193548,44.7096774 L44.4193548,52.8709677 L47.4872581,52.8709677 C47.5194234,52.8148475 47.5588029,52.7631834 47.6043911,52.7172944 L47.6043911,52.7172944 L53.1689073,47.1527782 C53.3563435,46.965342 53.6295377,46.8921398 53.8855804,46.9607462 C54.141623,47.0293526 54.3416151,47.2293447 54.4102215,47.4853874 C54.478828,47.74143 54.4056258,48.0146243 54.2181895,48.2020605 L54.2181895,48.2020605 L49.5492823,52.8709677 L57.7741935,52.8709677 L57.7741935,44.7096774 L53.6299274,44.7096774 L48.2827056,50.0568992 C48.0952694,50.2443354 47.8220752,50.3175376 47.5660325,50.2489312 C47.3099899,50.1803248 47.1099978,49.9803327 47.0413914,49.72429 C46.972785,49.4682474 47.0459872,49.1950532 47.2334234,49.0076169 L47.2334234,49.0076169 L51.5313629,44.7096774 Z M80.0322581,38.0322581 L39.9677419,38.0322581 L39.9677419,38.7741935 L80.0322581,38.7741935 L80.0322581,38.0322581 Z M74.3045161,31.3548387 L45.6954839,31.3548387 L40.7096774,35.4169355 L40.7096774,36.5483871 L79.2903226,36.5483871 L79.2903226,35.4169355 L74.3045161,31.3548387 Z M66.6774194,28.3870968 L53.3225806,28.3870968 L53.3225806,29.8709677 L66.6774194,29.8709677 L66.6774194,28.3870968 Z M73.3548387,19.483871 L46.6451613,19.483871 L46.6451613,26.9032258 L73.3548387,26.9032258 L73.3548387,19.483871 Z M51.8387097,23.1935484 C52.2484693,23.1935484 52.5806452,23.5257242 52.5806452,23.9354839 C52.5806452,24.3452435 52.2484693,24.6774194 51.8387097,24.6774194 L51.8387097,24.6774194 L48.8709677,24.6774194 C48.4612081,24.6774194 48.1290323,24.3452435 48.1290323,23.9354839 C48.1290323,23.5257242 48.4612081,23.1935484 48.8709677,23.1935484 L48.8709677,23.1935484 Z M54.8064516,23.1935484 C55.2162113,23.1935484 55.5483871,23.5257242 55.5483871,23.9354839 C55.5483871,24.3452435 55.2162113,24.6774194 54.8064516,24.6774194 L54.8064516,24.6774194 L54.0645161,24.6774194 C53.6547565,24.6774194 53.3225806,24.3452435 53.3225806,23.9354839 C53.3225806,23.5257242 53.6547565,23.1935484 54.0645161,23.1935484 L54.0645161,23.1935484 Z M57.0322581,20.9677419 C57.4420177,20.9677419 57.7741935,21.2999178 57.7741935,21.7096774 C57.7741935,22.1194371 57.4420177,22.4516129 57.0322581,22.4516129 L57.0322581,22.4516129 L48.8709677,22.4516129 C48.4612081,22.4516129 48.1290323,22.1194371 48.1290323,21.7096774 C48.1290323,21.2999178 48.4612081,20.9677419 48.8709677,20.9677419 L48.8709677,20.9677419 Z" id="Combined-Shape" fill="#030303" fill-rule="nonzero"></path>
                    <rect id="Rectangle-Copy-18" x="0" y="0" width="120" height="80"></rect>
                </g>
            </g>
        </g>
    </g>
</svg>