<?xml version="1.0" encoding="UTF-8"?>
<svg width="122px" height="122px" viewBox="0 0 122 122" version="1.1" xmlns="http://www.w3.org/2000/svg" xmlns:xlink="http://www.w3.org/1999/xlink">
    <title>Group 4</title>
    <g id="Page-1" stroke="none" stroke-width="1" fill="none" fill-rule="evenodd">
        <g id="Quiz_page_q4_1920" transform="translate(-899.000000, -520.000000)">
            <g id="Group" transform="translate(421.000000, 521.000000)">
                <g id="Group-4" transform="translate(479.000000, 0.000000)">
                    <g id="Group-3" transform="translate(27.000000, 15.000000)" fill="#A7ADAD">
                        <circle id="Oval" cx="66.5" cy="75.5" r="2.5"></circle>
                        <circle id="Oval" cx="76.5" cy="55.5" r="2.5"></circle>
                        <circle id="Oval" cx="30.5" cy="64.5" r="2.5"></circle>
                        <circle id="Oval" cx="2.5" cy="82.5" r="2.5"></circle>
                        <circle id="Oval" cx="52.5" cy="2.5" r="2.5"></circle>
                        <circle id="Oval" cx="50.5" cy="40.5" r="2.5"></circle>
                        <circle id="Oval" cx="40.5" cy="50.5" r="2.5"></circle>
                        <circle id="Oval-Copy-5" cx="24.5" cy="43.5" r="2.5"></circle>
                        <circle id="Oval" cx="29.5" cy="6.5" r="2.5"></circle>
                    </g>
                    <g id="Group-3" transform="translate(24.000000, 9.000000)" fill="#A7ADAD">
                        <circle id="Oval" cx="61.5" cy="66.5" r="2.5"></circle>
                        <circle id="Oval" cx="43.5" cy="99.5" r="2.5"></circle>
                        <circle id="Oval" cx="2.5" cy="65.5" r="2.5"></circle>
                        <circle id="Oval" cx="38.5" cy="2.5" r="2.5"></circle>
                        <circle id="Oval" cx="12.5" cy="22.5" r="2.5"></circle>
                        <circle id="Oval" cx="18.5" cy="62.5" r="2.5"></circle>
                        <circle id="Oval" cx="13.5" cy="35.5" r="2.5"></circle>
                        <circle id="Oval-Copy-5" cx="26.5" cy="86.5" r="2.5"></circle>
                        <circle id="Oval" cx="83.5" cy="33.5" r="2.5"></circle>
                    </g>
                    <g id="Group-3" transform="translate(6.000000, 29.000000)" fill="#A7ADAD">
                        <circle id="Oval" cx="56.5" cy="15.5" r="2.5"></circle>
                        <circle id="Oval" cx="61.5" cy="64.5" r="2.5"></circle>
                        <circle id="Oval" cx="10.5" cy="35.5" r="2.5"></circle>
                        <circle id="Oval" cx="89.5" cy="27.5" r="2.5"></circle>
                        <circle id="Oval" cx="11.5" cy="2.5" r="2.5"></circle>
                        <circle id="Oval-Copy-5" cx="2.5" cy="22.5" r="2.5"></circle>
                        <circle id="Oval" cx="78.5" cy="8.5" r="2.5"></circle>
                    </g>
                    <circle id="Oval-Copy" stroke="#A7ADAD" cx="60" cy="60" r="60"></circle>
                </g>
            </g>
        </g>
    </g>
</svg>