<?xml version="1.0" encoding="UTF-8"?>
<svg width="122px" height="122px" viewBox="0 0 122 122" version="1.1" xmlns="http://www.w3.org/2000/svg" xmlns:xlink="http://www.w3.org/1999/xlink">
    <title>Group 4</title>
    <g id="Page-1" stroke="none" stroke-width="1" fill="none" fill-rule="evenodd">
        <g id="Quiz_page_q4_1920" transform="translate(-1099.000000, -520.000000)">
            <g id="Group" transform="translate(421.000000, 521.000000)">
                <g id="Group-4" transform="translate(679.000000, 0.000000)">
                    <g id="Group-3" transform="translate(43.000000, 25.000000)" fill="#A7ADAD">
                        <circle id="Oval" cx="35.5" cy="59.5" r="2.5"></circle>
                        <circle id="Oval" cx="2.5" cy="82.5" r="2.5"></circle>
                        <circle id="Oval" cx="52.5" cy="2.5" r="2.5"></circle>
                        <circle id="Oval" cx="46.5" cy="20.5" r="2.5"></circle>
                        <circle id="Oval-Copy-5" cx="30.5" cy="46.5" r="2.5"></circle>
                        <circle id="Oval" cx="22.5" cy="17.5" r="2.5"></circle>
                    </g>
                    <g id="Group-3" transform="translate(40.000000, 20.000000)" fill="#A7ADAD">
                        <circle id="Oval" cx="61.5" cy="65.5" r="2.5"></circle>
                        <circle id="Oval" cx="13.5" cy="90.5" r="2.5"></circle>
                        <circle id="Oval" cx="2.5" cy="64.5" r="2.5"></circle>
                        <circle id="Oval" cx="24.5" cy="2.5" r="2.5"></circle>
                        <circle id="Oval" cx="13.5" cy="34.5" r="2.5"></circle>
                        <circle id="Oval-Copy-5" cx="26.5" cy="85.5" r="2.5"></circle>
                    </g>
                    <g id="Group-3" transform="translate(22.000000, 41.000000)" fill="#A7ADAD">
                        <circle id="Oval" cx="56.5" cy="13.5" r="2.5"></circle>
                        <circle id="Oval" cx="61.5" cy="62.5" r="2.5"></circle>
                        <circle id="Oval" cx="32.5" cy="30.5" r="2.5"></circle>
                        <circle id="Oval" cx="89.5" cy="25.5" r="2.5"></circle>
                        <circle id="Oval-Copy-5" cx="2.5" cy="10.5" r="2.5"></circle>
                        <circle id="Oval" cx="82.5" cy="2.5" r="2.5"></circle>
                    </g>
                    <g id="Group-3" transform="translate(40.000000, 36.000000) scale(1, -1) translate(-40.000000, -36.000000) translate(3.000000, 9.000000)" fill="#A7ADAD">
                        <circle id="Oval" cx="28.5" cy="42.5" r="2.5"></circle>
                        <circle id="Oval" cx="2.5" cy="2.5" r="2.5"></circle>
                        <circle id="Oval" cx="68.5" cy="51.5" r="2.5"></circle>
                        <circle id="Oval" cx="71.5" cy="37.5" r="2.5"></circle>
                        <circle id="Oval" cx="43.5" cy="39.5" r="2.5"></circle>
                    </g>
                    <g transform="translate(8.000000, 10.000000)" fill="#A7ADAD" id="Group-3">
                        <g transform="translate(21.000000, 5.000000)">
                            <circle id="Oval" cx="66.5" cy="75.5" r="2.5"></circle>
                            <circle id="Oval" cx="30.5" cy="64.5" r="2.5"></circle>
                            <circle id="Oval" cx="2.5" cy="82.5" r="2.5"></circle>
                            <circle id="Oval" cx="52.5" cy="2.5" r="2.5"></circle>
                            <circle id="Oval" cx="46.5" cy="20.5" r="2.5"></circle>
                            <circle id="Oval" cx="22.5" cy="17.5" r="2.5"></circle>
                        </g>
                        <g transform="translate(18.000000, 0.000000)">
                            <circle id="Oval" cx="61.5" cy="65.5" r="2.5"></circle>
                            <circle id="Oval" cx="2.5" cy="64.5" r="2.5"></circle>
                            <circle id="Oval" cx="24.5" cy="2.5" r="2.5"></circle>
                            <circle id="Oval" cx="13.5" cy="34.5" r="2.5"></circle>
                            <circle id="Oval-Copy-5" cx="26.5" cy="85.5" r="2.5"></circle>
                            <circle id="Oval" cx="83.5" cy="45.5" r="2.5"></circle>
                        </g>
                        <g transform="translate(0.000000, 19.000000)">
                            <circle id="Oval" cx="61.5" cy="64.5" r="2.5"></circle>
                            <circle id="Oval" cx="32.5" cy="32.5" r="2.5"></circle>
                            <circle id="Oval" cx="89.5" cy="27.5" r="2.5"></circle>
                            <circle id="Oval" cx="11.5" cy="2.5" r="2.5"></circle>
                            <circle id="Oval-Copy-5" cx="2.5" cy="22.5" r="2.5"></circle>
                        </g>
                        <g transform="translate(0.000000, 52.000000)">
                            <circle id="Oval" cx="56.5" cy="2.5" r="2.5"></circle>
                            <circle id="Oval" cx="10.5" cy="22.5" r="2.5"></circle>
                            <circle id="Oval" cx="96.5" cy="11.5" r="2.5"></circle>
                            <circle id="Oval-Copy-5" cx="2.5" cy="9.5" r="2.5"></circle>
                        </g>
                    </g>
                    <circle id="Oval-Copy-3" stroke="#A7ADAD" cx="60" cy="60" r="60"></circle>
                </g>
            </g>
        </g>
    </g>
</svg>