<?xml version="1.0" encoding="UTF-8"?>
<svg width="80px" height="80px" viewBox="0 0 80 80" version="1.1" xmlns="http://www.w3.org/2000/svg" xmlns:xlink="http://www.w3.org/1999/xlink">
    <title>Group 13</title>
    <g id="Page-1" stroke="none" stroke-width="1" fill="none" fill-rule="evenodd">
        <g id="Quiz_page_q2_320-" transform="translate(-20.000000, -690.000000)">
            <g id="Group-13" transform="translate(20.000000, 690.000000)">
                <rect id="Rectangle-" fill="#EBFAF9" x="0" y="0" width="80" height="80" rx="15"></rect>
                <g id="4a" transform="translate(29.090909, 0.000000)" stroke="#595A5A" stroke-linejoin="round">
                    <g id="Group-6-Copy">
                        <g id="Group-4" transform="translate(0.000000, 0.000000)">
                            <path d="M4.7816644,0 L4.7816644,3.96408254 C4.03695424,2.9344887 3.15194829,2.41969178 2.12664654,2.41969178 C0.588693931,2.41969178 0,3.4047075 0,4.24488087 C0,5.08505423 0.506915652,6.16652582 2.12664654,6.07006995 C3.20646714,6.00576604 4.09147309,5.30377024 4.7816644,3.96408254 C5.53039607,5.1894674 5.9047619,6.33112464 5.9047619,7.38905425 C5.9047619,8.44698386 5.53039607,9.50491347 4.7816644,10.5628431 C3.80740839,9.91203447 2.92240244,9.58663017 2.12664654,9.58663017 C0.933012704,9.58663017 0,10.1492307 0,11.1244397 C0,12.0996487 0.663411722,12.8262311 2.12664654,12.8262311 C3.10213643,12.8262311 3.98714238,12.0717684 4.7816644,10.5628431 C5.41228712,11.9913543 5.72759848,13.1559201 5.72759848,14.0565405 C5.72759848,14.9571608 5.41228712,15.8517827 4.7816644,16.7404061 C3.61143252,15.8763023 2.67174777,15.4442504 1.96261015,15.4442504 C0.898903716,15.4442504 0,16.43959 0,17.3020028 C0,18.1644156 0.831903767,18.9459344 2.12664654,18.9459344 C2.9898084,18.9459344 3.87481435,18.2107583 4.7816644,16.7404061 L4.7816644,20.952381" id="Path-Copy"></path>
                            <path d="M4.7816644,19.047619 L4.7816644,23.0117016 C4.03695424,21.9821077 3.15194829,21.4673108 2.12664654,21.4673108 C0.588693931,21.4673108 0,22.4523265 0,23.2924999 C0,24.1326733 0.506915652,25.2141449 2.12664654,25.117689 C3.20646714,25.0533851 4.09147309,24.3513893 4.7816644,23.0117016 C5.53039607,24.2370865 5.9047619,25.3787437 5.9047619,26.4366733 C5.9047619,27.4946029 5.53039607,28.5525325 4.7816644,29.6104621 C3.80740839,28.9596535 2.92240244,28.6342492 2.12664654,28.6342492 C0.933012704,28.6342492 0,29.1968498 0,30.1720588 C0,31.1472678 0.663411722,31.8738502 2.12664654,31.8738502 C3.10213643,31.8738502 3.98714238,31.1193875 4.7816644,29.6104621 C5.41228712,31.0389733 5.72759848,32.2035391 5.72759848,33.1041595 C5.72759848,34.0047799 5.41228712,34.8994018 4.7816644,35.7880252 C3.61143252,34.9239214 2.67174777,34.4918695 1.96261015,34.4918695 C0.898903716,34.4918695 0,35.487209 0,36.3496218 C0,37.2120346 0.831903767,37.9935534 2.12664654,37.9935534 C2.9898084,37.9935534 3.87481435,37.2583773 4.7816644,35.7880252 L4.7816644,40" id="Path-Copy-2"></path>
                        </g>
                        <g id="Group-4-Copy-2" transform="translate(8.000000, 0.000000)">
                            <path d="M4.7816644,0 L4.7816644,3.96408254 C4.03695424,2.9344887 3.15194829,2.41969178 2.12664654,2.41969178 C0.588693931,2.41969178 3.16514491e-14,3.4047075 3.16514491e-14,4.24488087 C3.16514491e-14,5.08505423 0.506915652,6.16652582 2.12664654,6.07006995 C3.20646714,6.00576604 4.09147309,5.30377024 4.7816644,3.96408254 C5.53039607,5.1894674 5.9047619,6.33112464 5.9047619,7.38905425 C5.9047619,8.44698386 5.53039607,9.50491347 4.7816644,10.5628431 C3.80740839,9.91203447 2.92240244,9.58663017 2.12664654,9.58663017 C0.933012704,9.58663017 3.16514491e-14,10.1492307 3.16514491e-14,11.1244397 C3.16514491e-14,12.0996487 0.663411722,12.8262311 2.12664654,12.8262311 C3.10213643,12.8262311 3.98714238,12.0717684 4.7816644,10.5628431 C5.41228712,11.9913543 5.72759848,13.1559201 5.72759848,14.0565405 C5.72759848,14.9571608 5.41228712,15.8517827 4.7816644,16.7404061 C3.61143252,15.8763023 2.67174777,15.4442504 1.96261015,15.4442504 C0.898903716,15.4442504 3.16514491e-14,16.43959 3.16514491e-14,17.3020028 C3.16514491e-14,18.1644156 0.831903767,18.9459344 2.12664654,18.9459344 C2.9898084,18.9459344 3.87481435,18.2107583 4.7816644,16.7404061 L4.7816644,20.952381" id="Path-Copy"></path>
                            <path d="M4.7816644,19.047619 L4.7816644,23.0117016 C4.03695424,21.9821077 3.15194829,21.4673108 2.12664654,21.4673108 C0.588693931,21.4673108 3.16514491e-14,22.4523265 3.16514491e-14,23.2924999 C3.16514491e-14,24.1326733 0.506915652,25.2141449 2.12664654,25.117689 C3.20646714,25.0533851 4.09147309,24.3513893 4.7816644,23.0117016 C5.53039607,24.2370865 5.9047619,25.3787437 5.9047619,26.4366733 C5.9047619,27.4946029 5.53039607,28.5525325 4.7816644,29.6104621 C3.80740839,28.9596535 2.92240244,28.6342492 2.12664654,28.6342492 C0.933012704,28.6342492 3.16514491e-14,29.1968498 3.16514491e-14,30.1720588 C3.16514491e-14,31.1472678 0.663411722,31.8738502 2.12664654,31.8738502 C3.10213643,31.8738502 3.98714238,31.1193875 4.7816644,29.6104621 C5.41228712,31.0389733 5.72759848,32.2035391 5.72759848,33.1041595 C5.72759848,34.0047799 5.41228712,34.8994018 4.7816644,35.7880252 C3.61143252,34.9239214 2.67174777,34.4918695 1.96261015,34.4918695 C0.898903716,34.4918695 3.16514491e-14,35.487209 3.16514491e-14,36.3496218 C3.16514491e-14,37.2120346 0.831903767,37.9935534 2.12664654,37.9935534 C2.9898084,37.9935534 3.87481435,37.2583773 4.7816644,35.7880252 L4.7816644,40" id="Path-Copy-2"></path>
                        </g>
                        <g id="Group-4-Copy-3" transform="translate(15.636364, 0.000000)">
                            <path d="M4.7816644,0 L4.7816644,3.96408254 C4.03695424,2.9344887 3.15194829,2.41969178 2.12664654,2.41969178 C0.588693931,2.41969178 3.16514491e-14,3.4047075 3.16514491e-14,4.24488087 C3.16514491e-14,5.08505423 0.506915652,6.16652582 2.12664654,6.07006995 C3.20646714,6.00576604 4.09147309,5.30377024 4.7816644,3.96408254 C5.53039607,5.1894674 5.9047619,6.33112464 5.9047619,7.38905425 C5.9047619,8.44698386 5.53039607,9.50491347 4.7816644,10.5628431 C3.80740839,9.91203447 2.92240244,9.58663017 2.12664654,9.58663017 C0.933012704,9.58663017 3.16514491e-14,10.1492307 3.16514491e-14,11.1244397 C3.16514491e-14,12.0996487 0.663411722,12.8262311 2.12664654,12.8262311 C3.10213643,12.8262311 3.98714238,12.0717684 4.7816644,10.5628431 C5.41228712,11.9913543 5.72759848,13.1559201 5.72759848,14.0565405 C5.72759848,14.9571608 5.41228712,15.8517827 4.7816644,16.7404061 C3.61143252,15.8763023 2.67174777,15.4442504 1.96261015,15.4442504 C0.898903716,15.4442504 3.16514491e-14,16.43959 3.16514491e-14,17.3020028 C3.16514491e-14,18.1644156 0.831903767,18.9459344 2.12664654,18.9459344 C2.9898084,18.9459344 3.87481435,18.2107583 4.7816644,16.7404061 L4.7816644,20.952381" id="Path-Copy"></path>
                            <path d="M4.7816644,19.047619 L4.7816644,23.0117016 C4.03695424,21.9821077 3.15194829,21.4673108 2.12664654,21.4673108 C0.588693931,21.4673108 3.16514491e-14,22.4523265 3.16514491e-14,23.2924999 C3.16514491e-14,24.1326733 0.506915652,25.2141449 2.12664654,25.117689 C3.20646714,25.0533851 4.09147309,24.3513893 4.7816644,23.0117016 C5.53039607,24.2370865 5.9047619,25.3787437 5.9047619,26.4366733 C5.9047619,27.4946029 5.53039607,28.5525325 4.7816644,29.6104621 C3.80740839,28.9596535 2.92240244,28.6342492 2.12664654,28.6342492 C0.933012704,28.6342492 3.16514491e-14,29.1968498 3.16514491e-14,30.1720588 C3.16514491e-14,31.1472678 0.663411722,31.8738502 2.12664654,31.8738502 C3.10213643,31.8738502 3.98714238,31.1193875 4.7816644,29.6104621 C5.41228712,31.0389733 5.72759848,32.2035391 5.72759848,33.1041595 C5.72759848,34.0047799 5.41228712,34.8994018 4.7816644,35.7880252 C3.61143252,34.9239214 2.67174777,34.4918695 1.96261015,34.4918695 C0.898903716,34.4918695 3.16514491e-14,35.487209 3.16514491e-14,36.3496218 C3.16514491e-14,37.2120346 0.831903767,37.9935534 2.12664654,37.9935534 C2.9898084,37.9935534 3.87481435,37.2583773 4.7816644,35.7880252 L4.7816644,40" id="Path-Copy-2"></path>
                        </g>
                    </g>
                    <g id="Group-6-Copy-2" transform="translate(0.000000, 40.000000)">
                        <g id="Group-4" transform="translate(0.000000, 0.000000)">
                            <path d="M4.7816644,0 L4.7816644,3.96408254 C4.03695424,2.9344887 3.15194829,2.41969178 2.12664654,2.41969178 C0.588693931,2.41969178 0,3.4047075 0,4.24488087 C0,5.08505423 0.506915652,6.16652582 2.12664654,6.07006995 C3.20646714,6.00576604 4.09147309,5.30377024 4.7816644,3.96408254 C5.53039607,5.1894674 5.9047619,6.33112464 5.9047619,7.38905425 C5.9047619,8.44698386 5.53039607,9.50491347 4.7816644,10.5628431 C3.80740839,9.91203447 2.92240244,9.58663017 2.12664654,9.58663017 C0.933012704,9.58663017 0,10.1492307 0,11.1244397 C0,12.0996487 0.663411722,12.8262311 2.12664654,12.8262311 C3.10213643,12.8262311 3.98714238,12.0717684 4.7816644,10.5628431 C5.41228712,11.9913543 5.72759848,13.1559201 5.72759848,14.0565405 C5.72759848,14.9571608 5.41228712,15.8517827 4.7816644,16.7404061 C3.61143252,15.8763023 2.67174777,15.4442504 1.96261015,15.4442504 C0.898903716,15.4442504 0,16.43959 0,17.3020028 C0,18.1644156 0.831903767,18.9459344 2.12664654,18.9459344 C2.9898084,18.9459344 3.87481435,18.2107583 4.7816644,16.7404061 L4.7816644,20.952381" id="Path-Copy"></path>
                            <path d="M4.7816644,19.047619 L4.7816644,23.0117016 C4.03695424,21.9821077 3.15194829,21.4673108 2.12664654,21.4673108 C0.588693931,21.4673108 0,22.4523265 0,23.2924999 C0,24.1326733 0.506915652,25.2141449 2.12664654,25.117689 C3.20646714,25.0533851 4.09147309,24.3513893 4.7816644,23.0117016 C5.53039607,24.2370865 5.9047619,25.3787437 5.9047619,26.4366733 C5.9047619,27.4946029 5.53039607,28.5525325 4.7816644,29.6104621 C3.80740839,28.9596535 2.92240244,28.6342492 2.12664654,28.6342492 C0.933012704,28.6342492 0,29.1968498 0,30.1720588 C0,31.1472678 0.663411722,31.8738502 2.12664654,31.8738502 C3.10213643,31.8738502 3.98714238,31.1193875 4.7816644,29.6104621 C5.41228712,31.0389733 5.72759848,32.2035391 5.72759848,33.1041595 C5.72759848,34.0047799 5.41228712,34.8994018 4.7816644,35.7880252 C3.61143252,34.9239214 2.67174777,34.4918695 1.96261015,34.4918695 C0.898903716,34.4918695 0,35.487209 0,36.3496218 C0,37.2120346 0.831903767,37.9935534 2.12664654,37.9935534 C2.9898084,37.9935534 3.87481435,37.2583773 4.7816644,35.7880252 L4.7816644,40" id="Path-Copy-2"></path>
                        </g>
                        <g id="Group-4-Copy-2" transform="translate(8.000000, 0.000000)">
                            <path d="M4.7816644,0 L4.7816644,3.96408254 C4.03695424,2.9344887 3.15194829,2.41969178 2.12664654,2.41969178 C0.588693931,2.41969178 3.16514491e-14,3.4047075 3.16514491e-14,4.24488087 C3.16514491e-14,5.08505423 0.506915652,6.16652582 2.12664654,6.07006995 C3.20646714,6.00576604 4.09147309,5.30377024 4.7816644,3.96408254 C5.53039607,5.1894674 5.9047619,6.33112464 5.9047619,7.38905425 C5.9047619,8.44698386 5.53039607,9.50491347 4.7816644,10.5628431 C3.80740839,9.91203447 2.92240244,9.58663017 2.12664654,9.58663017 C0.933012704,9.58663017 3.16514491e-14,10.1492307 3.16514491e-14,11.1244397 C3.16514491e-14,12.0996487 0.663411722,12.8262311 2.12664654,12.8262311 C3.10213643,12.8262311 3.98714238,12.0717684 4.7816644,10.5628431 C5.41228712,11.9913543 5.72759848,13.1559201 5.72759848,14.0565405 C5.72759848,14.9571608 5.41228712,15.8517827 4.7816644,16.7404061 C3.61143252,15.8763023 2.67174777,15.4442504 1.96261015,15.4442504 C0.898903716,15.4442504 3.16514491e-14,16.43959 3.16514491e-14,17.3020028 C3.16514491e-14,18.1644156 0.831903767,18.9459344 2.12664654,18.9459344 C2.9898084,18.9459344 3.87481435,18.2107583 4.7816644,16.7404061 L4.7816644,20.952381" id="Path-Copy"></path>
                            <path d="M4.7816644,19.047619 L4.7816644,23.0117016 C4.03695424,21.9821077 3.15194829,21.4673108 2.12664654,21.4673108 C0.588693931,21.4673108 3.16514491e-14,22.4523265 3.16514491e-14,23.2924999 C3.16514491e-14,24.1326733 0.506915652,25.2141449 2.12664654,25.117689 C3.20646714,25.0533851 4.09147309,24.3513893 4.7816644,23.0117016 C5.53039607,24.2370865 5.9047619,25.3787437 5.9047619,26.4366733 C5.9047619,27.4946029 5.53039607,28.5525325 4.7816644,29.6104621 C3.80740839,28.9596535 2.92240244,28.6342492 2.12664654,28.6342492 C0.933012704,28.6342492 3.16514491e-14,29.1968498 3.16514491e-14,30.1720588 C3.16514491e-14,31.1472678 0.663411722,31.8738502 2.12664654,31.8738502 C3.10213643,31.8738502 3.98714238,31.1193875 4.7816644,29.6104621 C5.41228712,31.0389733 5.72759848,32.2035391 5.72759848,33.1041595 C5.72759848,34.0047799 5.41228712,34.8994018 4.7816644,35.7880252 C3.61143252,34.9239214 2.67174777,34.4918695 1.96261015,34.4918695 C0.898903716,34.4918695 3.16514491e-14,35.487209 3.16514491e-14,36.3496218 C3.16514491e-14,37.2120346 0.831903767,37.9935534 2.12664654,37.9935534 C2.9898084,37.9935534 3.87481435,37.2583773 4.7816644,35.7880252 L4.7816644,40" id="Path-Copy-2"></path>
                        </g>
                        <g id="Group-4-Copy-3" transform="translate(15.636364, 0.000000)">
                            <path d="M4.7816644,0 L4.7816644,3.96408254 C4.03695424,2.9344887 3.15194829,2.41969178 2.12664654,2.41969178 C0.588693931,2.41969178 3.16514491e-14,3.4047075 3.16514491e-14,4.24488087 C3.16514491e-14,5.08505423 0.506915652,6.16652582 2.12664654,6.07006995 C3.20646714,6.00576604 4.09147309,5.30377024 4.7816644,3.96408254 C5.53039607,5.1894674 5.9047619,6.33112464 5.9047619,7.38905425 C5.9047619,8.44698386 5.53039607,9.50491347 4.7816644,10.5628431 C3.80740839,9.91203447 2.92240244,9.58663017 2.12664654,9.58663017 C0.933012704,9.58663017 3.16514491e-14,10.1492307 3.16514491e-14,11.1244397 C3.16514491e-14,12.0996487 0.663411722,12.8262311 2.12664654,12.8262311 C3.10213643,12.8262311 3.98714238,12.0717684 4.7816644,10.5628431 C5.41228712,11.9913543 5.72759848,13.1559201 5.72759848,14.0565405 C5.72759848,14.9571608 5.41228712,15.8517827 4.7816644,16.7404061 C3.61143252,15.8763023 2.67174777,15.4442504 1.96261015,15.4442504 C0.898903716,15.4442504 3.16514491e-14,16.43959 3.16514491e-14,17.3020028 C3.16514491e-14,18.1644156 0.831903767,18.9459344 2.12664654,18.9459344 C2.9898084,18.9459344 3.87481435,18.2107583 4.7816644,16.7404061 L4.7816644,20.952381" id="Path-Copy"></path>
                            <path d="M4.7816644,19.047619 L4.7816644,23.0117016 C4.03695424,21.9821077 3.15194829,21.4673108 2.12664654,21.4673108 C0.588693931,21.4673108 3.16514491e-14,22.4523265 3.16514491e-14,23.2924999 C3.16514491e-14,24.1326733 0.506915652,25.2141449 2.12664654,25.117689 C3.20646714,25.0533851 4.09147309,24.3513893 4.7816644,23.0117016 C5.53039607,24.2370865 5.9047619,25.3787437 5.9047619,26.4366733 C5.9047619,27.4946029 5.53039607,28.5525325 4.7816644,29.6104621 C3.80740839,28.9596535 2.92240244,28.6342492 2.12664654,28.6342492 C0.933012704,28.6342492 3.16514491e-14,29.1968498 3.16514491e-14,30.1720588 C3.16514491e-14,31.1472678 0.663411722,31.8738502 2.12664654,31.8738502 C3.10213643,31.8738502 3.98714238,31.1193875 4.7816644,29.6104621 C5.41228712,31.0389733 5.72759848,32.2035391 5.72759848,33.1041595 C5.72759848,34.0047799 5.41228712,34.8994018 4.7816644,35.7880252 C3.61143252,34.9239214 2.67174777,34.4918695 1.96261015,34.4918695 C0.898903716,34.4918695 3.16514491e-14,35.487209 3.16514491e-14,36.3496218 C3.16514491e-14,37.2120346 0.831903767,37.9935534 2.12664654,37.9935534 C2.9898084,37.9935534 3.87481435,37.2583773 4.7816644,35.7880252 L4.7816644,40" id="Path-Copy-2"></path>
                        </g>
                    </g>
                </g>
            </g>
        </g>
    </g>
</svg>