<?xml version="1.0" encoding="UTF-8"?>
<svg width="80px" height="80px" viewBox="0 0 80 80" version="1.1" xmlns="http://www.w3.org/2000/svg" xmlns:xlink="http://www.w3.org/1999/xlink">
    <title>Group 8</title>
    <g id="Page-1" stroke="none" stroke-width="1" fill="none" fill-rule="evenodd">
        <g id="Quiz_page_q2_320-" transform="translate(-120.000000, -690.000000)">
            <g id="Group-8" transform="translate(120.000000, 690.000000)">
                <rect id="Rectangle" fill="#EBFAF9" x="0" y="0" width="80" height="80" rx="15"></rect>
                <g id="4b" transform="translate(29.090909, 0.000000)" stroke="#595A5A" stroke-linejoin="round">
                    <g id="Group-10" transform="translate(0.000000, 0.000000)">
                        <g id="Group-9-Copy">
                            <g id="Group-6-Copy" transform="translate(0.000000, 0.000000)">
                                <g id="Group-4" transform="translate(0.000000, 0.000000)">
                                    <path d="M2.3908322,0 L2.3908322,1.98204127 C2.01847712,1.46724435 1.57597414,1.20984589 1.06332327,1.20984589 C0.294346966,1.20984589 0,1.70235375 0,2.12244043 C0,2.54252712 0.253457826,3.08326291 1.06332327,3.03503498 C1.60323357,3.00288302 2.04573655,2.65188512 2.3908322,1.98204127 C2.76519803,2.5947337 2.95238095,3.16556232 2.95238095,3.69452713 C2.95238095,4.22349193 2.76519803,4.75245674 2.3908322,5.28142154 C1.9037042,4.95601724 1.46120122,4.79331509 1.06332327,4.79331509 C0.466506352,4.79331509 0,5.07461536 0,5.56221986 C0,6.04982436 0.331705861,6.41311556 1.06332327,6.41311556 C1.55106821,6.41311556 1.99357119,6.03588422 2.3908322,5.28142154 C2.70614356,5.99567713 2.86379924,6.57796003 2.86379924,7.02827023 C2.86379924,7.47858042 2.70614356,7.92589137 2.3908322,8.37020307 C1.80571626,7.93815116 1.33587388,7.72212521 0.981305074,7.72212521 C0.449451858,7.72212521 0,8.21979499 0,8.65100139 C0,9.0822078 0.415951883,9.47296718 1.06332327,9.47296718 C1.4949042,9.47296718 1.93740717,9.10537914 2.3908322,8.37020307 L2.3908322,10.4761905" id="Path-Copy"></path>
                                    <path d="M2.3908322,9.52380952 L2.3908322,11.5058508 C2.01847712,10.9910539 1.57597414,10.7336554 1.06332327,10.7336554 C0.294346966,10.7336554 0,11.2261633 0,11.64625 C0,12.0663366 0.253457826,12.6070724 1.06332327,12.5588445 C1.60323357,12.5266925 2.04573655,12.1756946 2.3908322,11.5058508 C2.76519803,12.1185432 2.95238095,12.6893718 2.95238095,13.2183366 C2.95238095,13.7473015 2.76519803,14.2762663 2.3908322,14.8052311 C1.9037042,14.4798268 1.46120122,14.3171246 1.06332327,14.3171246 C0.466506352,14.3171246 0,14.5984249 0,15.0860294 C0,15.5736339 0.331705861,15.9369251 1.06332327,15.9369251 C1.55106821,15.9369251 1.99357119,15.5596937 2.3908322,14.8052311 C2.70614356,15.5194867 2.86379924,16.1017696 2.86379924,16.5520797 C2.86379924,17.0023899 2.70614356,17.4497009 2.3908322,17.8940126 C1.80571626,17.4619607 1.33587388,17.2459347 0.981305074,17.2459347 C0.449451858,17.2459347 0,17.7436045 0,18.1748109 C0,18.6060173 0.415951883,18.9967767 1.06332327,18.9967767 C1.4949042,18.9967767 1.93740717,18.6291887 2.3908322,17.8940126 L2.3908322,20" id="Path-Copy-2"></path>
                                </g>
                                <g id="Group-4-Copy-2" transform="translate(4.000000, 0.000000)">
                                    <path d="M2.3908322,0 L2.3908322,1.98204127 C2.01847712,1.46724435 1.57597414,1.20984589 1.06332327,1.20984589 C0.294346966,1.20984589 1.58257246e-14,1.70235375 1.58257246e-14,2.12244043 C1.58257246e-14,2.54252712 0.253457826,3.08326291 1.06332327,3.03503498 C1.60323357,3.00288302 2.04573655,2.65188512 2.3908322,1.98204127 C2.76519803,2.5947337 2.95238095,3.16556232 2.95238095,3.69452713 C2.95238095,4.22349193 2.76519803,4.75245674 2.3908322,5.28142154 C1.9037042,4.95601724 1.46120122,4.79331509 1.06332327,4.79331509 C0.466506352,4.79331509 1.58257246e-14,5.07461536 1.58257246e-14,5.56221986 C1.58257246e-14,6.04982436 0.331705861,6.41311556 1.06332327,6.41311556 C1.55106821,6.41311556 1.99357119,6.03588422 2.3908322,5.28142154 C2.70614356,5.99567713 2.86379924,6.57796003 2.86379924,7.02827023 C2.86379924,7.47858042 2.70614356,7.92589137 2.3908322,8.37020307 C1.80571626,7.93815116 1.33587388,7.72212521 0.981305074,7.72212521 C0.449451858,7.72212521 1.58257246e-14,8.21979499 1.58257246e-14,8.65100139 C1.58257246e-14,9.0822078 0.415951883,9.47296718 1.06332327,9.47296718 C1.4949042,9.47296718 1.93740717,9.10537914 2.3908322,8.37020307 L2.3908322,10.4761905" id="Path-Copy"></path>
                                    <path d="M2.3908322,9.52380952 L2.3908322,11.5058508 C2.01847712,10.9910539 1.57597414,10.7336554 1.06332327,10.7336554 C0.294346966,10.7336554 1.58257246e-14,11.2261633 1.58257246e-14,11.64625 C1.58257246e-14,12.0663366 0.253457826,12.6070724 1.06332327,12.5588445 C1.60323357,12.5266925 2.04573655,12.1756946 2.3908322,11.5058508 C2.76519803,12.1185432 2.95238095,12.6893718 2.95238095,13.2183366 C2.95238095,13.7473015 2.76519803,14.2762663 2.3908322,14.8052311 C1.9037042,14.4798268 1.46120122,14.3171246 1.06332327,14.3171246 C0.466506352,14.3171246 1.58257246e-14,14.5984249 1.58257246e-14,15.0860294 C1.58257246e-14,15.5736339 0.331705861,15.9369251 1.06332327,15.9369251 C1.55106821,15.9369251 1.99357119,15.5596937 2.3908322,14.8052311 C2.70614356,15.5194867 2.86379924,16.1017696 2.86379924,16.5520797 C2.86379924,17.0023899 2.70614356,17.4497009 2.3908322,17.8940126 C1.80571626,17.4619607 1.33587388,17.2459347 0.981305074,17.2459347 C0.449451858,17.2459347 1.58257246e-14,17.7436045 1.58257246e-14,18.1748109 C1.58257246e-14,18.6060173 0.415951883,18.9967767 1.06332327,18.9967767 C1.4949042,18.9967767 1.93740717,18.6291887 2.3908322,17.8940126 L2.3908322,20" id="Path-Copy-2"></path>
                                </g>
                                <g id="Group-4-Copy-3" transform="translate(7.818182, 0.000000)">
                                    <path d="M2.3908322,0 L2.3908322,1.98204127 C2.01847712,1.46724435 1.57597414,1.20984589 1.06332327,1.20984589 C0.294346966,1.20984589 1.58257246e-14,1.70235375 1.58257246e-14,2.12244043 C1.58257246e-14,2.54252712 0.253457826,3.08326291 1.06332327,3.03503498 C1.60323357,3.00288302 2.04573655,2.65188512 2.3908322,1.98204127 C2.76519803,2.5947337 2.95238095,3.16556232 2.95238095,3.69452713 C2.95238095,4.22349193 2.76519803,4.75245674 2.3908322,5.28142154 C1.9037042,4.95601724 1.46120122,4.79331509 1.06332327,4.79331509 C0.466506352,4.79331509 1.58257246e-14,5.07461536 1.58257246e-14,5.56221986 C1.58257246e-14,6.04982436 0.331705861,6.41311556 1.06332327,6.41311556 C1.55106821,6.41311556 1.99357119,6.03588422 2.3908322,5.28142154 C2.70614356,5.99567713 2.86379924,6.57796003 2.86379924,7.02827023 C2.86379924,7.47858042 2.70614356,7.92589137 2.3908322,8.37020307 C1.80571626,7.93815116 1.33587388,7.72212521 0.981305074,7.72212521 C0.449451858,7.72212521 1.58257246e-14,8.21979499 1.58257246e-14,8.65100139 C1.58257246e-14,9.0822078 0.415951883,9.47296718 1.06332327,9.47296718 C1.4949042,9.47296718 1.93740717,9.10537914 2.3908322,8.37020307 L2.3908322,10.4761905" id="Path-Copy"></path>
                                    <path d="M2.3908322,9.52380952 L2.3908322,11.5058508 C2.01847712,10.9910539 1.57597414,10.7336554 1.06332327,10.7336554 C0.294346966,10.7336554 1.58257246e-14,11.2261633 1.58257246e-14,11.64625 C1.58257246e-14,12.0663366 0.253457826,12.6070724 1.06332327,12.5588445 C1.60323357,12.5266925 2.04573655,12.1756946 2.3908322,11.5058508 C2.76519803,12.1185432 2.95238095,12.6893718 2.95238095,13.2183366 C2.95238095,13.7473015 2.76519803,14.2762663 2.3908322,14.8052311 C1.9037042,14.4798268 1.46120122,14.3171246 1.06332327,14.3171246 C0.466506352,14.3171246 1.58257246e-14,14.5984249 1.58257246e-14,15.0860294 C1.58257246e-14,15.5736339 0.331705861,15.9369251 1.06332327,15.9369251 C1.55106821,15.9369251 1.99357119,15.5596937 2.3908322,14.8052311 C2.70614356,15.5194867 2.86379924,16.1017696 2.86379924,16.5520797 C2.86379924,17.0023899 2.70614356,17.4497009 2.3908322,17.8940126 C1.80571626,17.4619607 1.33587388,17.2459347 0.981305074,17.2459347 C0.449451858,17.2459347 1.58257246e-14,17.7436045 1.58257246e-14,18.1748109 C1.58257246e-14,18.6060173 0.415951883,18.9967767 1.06332327,18.9967767 C1.4949042,18.9967767 1.93740717,18.6291887 2.3908322,17.8940126 L2.3908322,20" id="Path-Copy-2"></path>
                                </g>
                            </g>
                            <g id="Group-6-Copy-2" transform="translate(0.000000, 20.000000)">
                                <g id="Group-4" transform="translate(0.000000, 0.000000)">
                                    <path d="M2.3908322,0 L2.3908322,1.98204127 C2.01847712,1.46724435 1.57597414,1.20984589 1.06332327,1.20984589 C0.294346966,1.20984589 0,1.70235375 0,2.12244043 C0,2.54252712 0.253457826,3.08326291 1.06332327,3.03503498 C1.60323357,3.00288302 2.04573655,2.65188512 2.3908322,1.98204127 C2.76519803,2.5947337 2.95238095,3.16556232 2.95238095,3.69452713 C2.95238095,4.22349193 2.76519803,4.75245674 2.3908322,5.28142154 C1.9037042,4.95601724 1.46120122,4.79331509 1.06332327,4.79331509 C0.466506352,4.79331509 0,5.07461536 0,5.56221986 C0,6.04982436 0.331705861,6.41311556 1.06332327,6.41311556 C1.55106821,6.41311556 1.99357119,6.03588422 2.3908322,5.28142154 C2.70614356,5.99567713 2.86379924,6.57796003 2.86379924,7.02827023 C2.86379924,7.47858042 2.70614356,7.92589137 2.3908322,8.37020307 C1.80571626,7.93815116 1.33587388,7.72212521 0.981305074,7.72212521 C0.449451858,7.72212521 0,8.21979499 0,8.65100139 C0,9.0822078 0.415951883,9.47296718 1.06332327,9.47296718 C1.4949042,9.47296718 1.93740717,9.10537914 2.3908322,8.37020307 L2.3908322,10.4761905" id="Path-Copy"></path>
                                    <path d="M2.3908322,9.52380952 L2.3908322,11.5058508 C2.01847712,10.9910539 1.57597414,10.7336554 1.06332327,10.7336554 C0.294346966,10.7336554 0,11.2261633 0,11.64625 C0,12.0663366 0.253457826,12.6070724 1.06332327,12.5588445 C1.60323357,12.5266925 2.04573655,12.1756946 2.3908322,11.5058508 C2.76519803,12.1185432 2.95238095,12.6893718 2.95238095,13.2183366 C2.95238095,13.7473015 2.76519803,14.2762663 2.3908322,14.8052311 C1.9037042,14.4798268 1.46120122,14.3171246 1.06332327,14.3171246 C0.466506352,14.3171246 0,14.5984249 0,15.0860294 C0,15.5736339 0.331705861,15.9369251 1.06332327,15.9369251 C1.55106821,15.9369251 1.99357119,15.5596937 2.3908322,14.8052311 C2.70614356,15.5194867 2.86379924,16.1017696 2.86379924,16.5520797 C2.86379924,17.0023899 2.70614356,17.4497009 2.3908322,17.8940126 C1.80571626,17.4619607 1.33587388,17.2459347 0.981305074,17.2459347 C0.449451858,17.2459347 0,17.7436045 0,18.1748109 C0,18.6060173 0.415951883,18.9967767 1.06332327,18.9967767 C1.4949042,18.9967767 1.93740717,18.6291887 2.3908322,17.8940126 L2.3908322,20" id="Path-Copy-2"></path>
                                </g>
                                <g id="Group-4-Copy-2" transform="translate(4.000000, 0.000000)">
                                    <path d="M2.3908322,0 L2.3908322,1.98204127 C2.01847712,1.46724435 1.57597414,1.20984589 1.06332327,1.20984589 C0.294346966,1.20984589 1.58257246e-14,1.70235375 1.58257246e-14,2.12244043 C1.58257246e-14,2.54252712 0.253457826,3.08326291 1.06332327,3.03503498 C1.60323357,3.00288302 2.04573655,2.65188512 2.3908322,1.98204127 C2.76519803,2.5947337 2.95238095,3.16556232 2.95238095,3.69452713 C2.95238095,4.22349193 2.76519803,4.75245674 2.3908322,5.28142154 C1.9037042,4.95601724 1.46120122,4.79331509 1.06332327,4.79331509 C0.466506352,4.79331509 1.58257246e-14,5.07461536 1.58257246e-14,5.56221986 C1.58257246e-14,6.04982436 0.331705861,6.41311556 1.06332327,6.41311556 C1.55106821,6.41311556 1.99357119,6.03588422 2.3908322,5.28142154 C2.70614356,5.99567713 2.86379924,6.57796003 2.86379924,7.02827023 C2.86379924,7.47858042 2.70614356,7.92589137 2.3908322,8.37020307 C1.80571626,7.93815116 1.33587388,7.72212521 0.981305074,7.72212521 C0.449451858,7.72212521 1.58257246e-14,8.21979499 1.58257246e-14,8.65100139 C1.58257246e-14,9.0822078 0.415951883,9.47296718 1.06332327,9.47296718 C1.4949042,9.47296718 1.93740717,9.10537914 2.3908322,8.37020307 L2.3908322,10.4761905" id="Path-Copy"></path>
                                    <path d="M2.3908322,9.52380952 L2.3908322,11.5058508 C2.01847712,10.9910539 1.57597414,10.7336554 1.06332327,10.7336554 C0.294346966,10.7336554 1.58257246e-14,11.2261633 1.58257246e-14,11.64625 C1.58257246e-14,12.0663366 0.253457826,12.6070724 1.06332327,12.5588445 C1.60323357,12.5266925 2.04573655,12.1756946 2.3908322,11.5058508 C2.76519803,12.1185432 2.95238095,12.6893718 2.95238095,13.2183366 C2.95238095,13.7473015 2.76519803,14.2762663 2.3908322,14.8052311 C1.9037042,14.4798268 1.46120122,14.3171246 1.06332327,14.3171246 C0.466506352,14.3171246 1.58257246e-14,14.5984249 1.58257246e-14,15.0860294 C1.58257246e-14,15.5736339 0.331705861,15.9369251 1.06332327,15.9369251 C1.55106821,15.9369251 1.99357119,15.5596937 2.3908322,14.8052311 C2.70614356,15.5194867 2.86379924,16.1017696 2.86379924,16.5520797 C2.86379924,17.0023899 2.70614356,17.4497009 2.3908322,17.8940126 C1.80571626,17.4619607 1.33587388,17.2459347 0.981305074,17.2459347 C0.449451858,17.2459347 1.58257246e-14,17.7436045 1.58257246e-14,18.1748109 C1.58257246e-14,18.6060173 0.415951883,18.9967767 1.06332327,18.9967767 C1.4949042,18.9967767 1.93740717,18.6291887 2.3908322,17.8940126 L2.3908322,20" id="Path-Copy-2"></path>
                                </g>
                                <g id="Group-4-Copy-3" transform="translate(7.818182, 0.000000)">
                                    <path d="M2.3908322,0 L2.3908322,1.98204127 C2.01847712,1.46724435 1.57597414,1.20984589 1.06332327,1.20984589 C0.294346966,1.20984589 1.58257246e-14,1.70235375 1.58257246e-14,2.12244043 C1.58257246e-14,2.54252712 0.253457826,3.08326291 1.06332327,3.03503498 C1.60323357,3.00288302 2.04573655,2.65188512 2.3908322,1.98204127 C2.76519803,2.5947337 2.95238095,3.16556232 2.95238095,3.69452713 C2.95238095,4.22349193 2.76519803,4.75245674 2.3908322,5.28142154 C1.9037042,4.95601724 1.46120122,4.79331509 1.06332327,4.79331509 C0.466506352,4.79331509 1.58257246e-14,5.07461536 1.58257246e-14,5.56221986 C1.58257246e-14,6.04982436 0.331705861,6.41311556 1.06332327,6.41311556 C1.55106821,6.41311556 1.99357119,6.03588422 2.3908322,5.28142154 C2.70614356,5.99567713 2.86379924,6.57796003 2.86379924,7.02827023 C2.86379924,7.47858042 2.70614356,7.92589137 2.3908322,8.37020307 C1.80571626,7.93815116 1.33587388,7.72212521 0.981305074,7.72212521 C0.449451858,7.72212521 1.58257246e-14,8.21979499 1.58257246e-14,8.65100139 C1.58257246e-14,9.0822078 0.415951883,9.47296718 1.06332327,9.47296718 C1.4949042,9.47296718 1.93740717,9.10537914 2.3908322,8.37020307 L2.3908322,10.4761905" id="Path-Copy"></path>
                                    <path d="M2.3908322,9.52380952 L2.3908322,11.5058508 C2.01847712,10.9910539 1.57597414,10.7336554 1.06332327,10.7336554 C0.294346966,10.7336554 1.58257246e-14,11.2261633 1.58257246e-14,11.64625 C1.58257246e-14,12.0663366 0.253457826,12.6070724 1.06332327,12.5588445 C1.60323357,12.5266925 2.04573655,12.1756946 2.3908322,11.5058508 C2.76519803,12.1185432 2.95238095,12.6893718 2.95238095,13.2183366 C2.95238095,13.7473015 2.76519803,14.2762663 2.3908322,14.8052311 C1.9037042,14.4798268 1.46120122,14.3171246 1.06332327,14.3171246 C0.466506352,14.3171246 1.58257246e-14,14.5984249 1.58257246e-14,15.0860294 C1.58257246e-14,15.5736339 0.331705861,15.9369251 1.06332327,15.9369251 C1.55106821,15.9369251 1.99357119,15.5596937 2.3908322,14.8052311 C2.70614356,15.5194867 2.86379924,16.1017696 2.86379924,16.5520797 C2.86379924,17.0023899 2.70614356,17.4497009 2.3908322,17.8940126 C1.80571626,17.4619607 1.33587388,17.2459347 0.981305074,17.2459347 C0.449451858,17.2459347 1.58257246e-14,17.7436045 1.58257246e-14,18.1748109 C1.58257246e-14,18.6060173 0.415951883,18.9967767 1.06332327,18.9967767 C1.4949042,18.9967767 1.93740717,18.6291887 2.3908322,17.8940126 L2.3908322,20" id="Path-Copy-2"></path>
                                </g>
                            </g>
                        </g>
                        <g id="Group-9-Copy-2" transform="translate(0.000000, 40.000000)">
                            <g id="Group-6-Copy" transform="translate(0.000000, 0.000000)">
                                <g id="Group-4" transform="translate(0.000000, 0.000000)">
                                    <path d="M2.3908322,0 L2.3908322,1.98204127 C2.01847712,1.46724435 1.57597414,1.20984589 1.06332327,1.20984589 C0.294346966,1.20984589 0,1.70235375 0,2.12244043 C0,2.54252712 0.253457826,3.08326291 1.06332327,3.03503498 C1.60323357,3.00288302 2.04573655,2.65188512 2.3908322,1.98204127 C2.76519803,2.5947337 2.95238095,3.16556232 2.95238095,3.69452713 C2.95238095,4.22349193 2.76519803,4.75245674 2.3908322,5.28142154 C1.9037042,4.95601724 1.46120122,4.79331509 1.06332327,4.79331509 C0.466506352,4.79331509 0,5.07461536 0,5.56221986 C0,6.04982436 0.331705861,6.41311556 1.06332327,6.41311556 C1.55106821,6.41311556 1.99357119,6.03588422 2.3908322,5.28142154 C2.70614356,5.99567713 2.86379924,6.57796003 2.86379924,7.02827023 C2.86379924,7.47858042 2.70614356,7.92589137 2.3908322,8.37020307 C1.80571626,7.93815116 1.33587388,7.72212521 0.981305074,7.72212521 C0.449451858,7.72212521 0,8.21979499 0,8.65100139 C0,9.0822078 0.415951883,9.47296718 1.06332327,9.47296718 C1.4949042,9.47296718 1.93740717,9.10537914 2.3908322,8.37020307 L2.3908322,10.4761905" id="Path-Copy"></path>
                                    <path d="M2.3908322,9.52380952 L2.3908322,11.5058508 C2.01847712,10.9910539 1.57597414,10.7336554 1.06332327,10.7336554 C0.294346966,10.7336554 0,11.2261633 0,11.64625 C0,12.0663366 0.253457826,12.6070724 1.06332327,12.5588445 C1.60323357,12.5266925 2.04573655,12.1756946 2.3908322,11.5058508 C2.76519803,12.1185432 2.95238095,12.6893718 2.95238095,13.2183366 C2.95238095,13.7473015 2.76519803,14.2762663 2.3908322,14.8052311 C1.9037042,14.4798268 1.46120122,14.3171246 1.06332327,14.3171246 C0.466506352,14.3171246 0,14.5984249 0,15.0860294 C0,15.5736339 0.331705861,15.9369251 1.06332327,15.9369251 C1.55106821,15.9369251 1.99357119,15.5596937 2.3908322,14.8052311 C2.70614356,15.5194867 2.86379924,16.1017696 2.86379924,16.5520797 C2.86379924,17.0023899 2.70614356,17.4497009 2.3908322,17.8940126 C1.80571626,17.4619607 1.33587388,17.2459347 0.981305074,17.2459347 C0.449451858,17.2459347 0,17.7436045 0,18.1748109 C0,18.6060173 0.415951883,18.9967767 1.06332327,18.9967767 C1.4949042,18.9967767 1.93740717,18.6291887 2.3908322,17.8940126 L2.3908322,20" id="Path-Copy-2"></path>
                                </g>
                                <g id="Group-4-Copy-2" transform="translate(4.000000, 0.000000)">
                                    <path d="M2.3908322,0 L2.3908322,1.98204127 C2.01847712,1.46724435 1.57597414,1.20984589 1.06332327,1.20984589 C0.294346966,1.20984589 1.58257246e-14,1.70235375 1.58257246e-14,2.12244043 C1.58257246e-14,2.54252712 0.253457826,3.08326291 1.06332327,3.03503498 C1.60323357,3.00288302 2.04573655,2.65188512 2.3908322,1.98204127 C2.76519803,2.5947337 2.95238095,3.16556232 2.95238095,3.69452713 C2.95238095,4.22349193 2.76519803,4.75245674 2.3908322,5.28142154 C1.9037042,4.95601724 1.46120122,4.79331509 1.06332327,4.79331509 C0.466506352,4.79331509 1.58257246e-14,5.07461536 1.58257246e-14,5.56221986 C1.58257246e-14,6.04982436 0.331705861,6.41311556 1.06332327,6.41311556 C1.55106821,6.41311556 1.99357119,6.03588422 2.3908322,5.28142154 C2.70614356,5.99567713 2.86379924,6.57796003 2.86379924,7.02827023 C2.86379924,7.47858042 2.70614356,7.92589137 2.3908322,8.37020307 C1.80571626,7.93815116 1.33587388,7.72212521 0.981305074,7.72212521 C0.449451858,7.72212521 1.58257246e-14,8.21979499 1.58257246e-14,8.65100139 C1.58257246e-14,9.0822078 0.415951883,9.47296718 1.06332327,9.47296718 C1.4949042,9.47296718 1.93740717,9.10537914 2.3908322,8.37020307 L2.3908322,10.4761905" id="Path-Copy"></path>
                                    <path d="M2.3908322,9.52380952 L2.3908322,11.5058508 C2.01847712,10.9910539 1.57597414,10.7336554 1.06332327,10.7336554 C0.294346966,10.7336554 1.58257246e-14,11.2261633 1.58257246e-14,11.64625 C1.58257246e-14,12.0663366 0.253457826,12.6070724 1.06332327,12.5588445 C1.60323357,12.5266925 2.04573655,12.1756946 2.3908322,11.5058508 C2.76519803,12.1185432 2.95238095,12.6893718 2.95238095,13.2183366 C2.95238095,13.7473015 2.76519803,14.2762663 2.3908322,14.8052311 C1.9037042,14.4798268 1.46120122,14.3171246 1.06332327,14.3171246 C0.466506352,14.3171246 1.58257246e-14,14.5984249 1.58257246e-14,15.0860294 C1.58257246e-14,15.5736339 0.331705861,15.9369251 1.06332327,15.9369251 C1.55106821,15.9369251 1.99357119,15.5596937 2.3908322,14.8052311 C2.70614356,15.5194867 2.86379924,16.1017696 2.86379924,16.5520797 C2.86379924,17.0023899 2.70614356,17.4497009 2.3908322,17.8940126 C1.80571626,17.4619607 1.33587388,17.2459347 0.981305074,17.2459347 C0.449451858,17.2459347 1.58257246e-14,17.7436045 1.58257246e-14,18.1748109 C1.58257246e-14,18.6060173 0.415951883,18.9967767 1.06332327,18.9967767 C1.4949042,18.9967767 1.93740717,18.6291887 2.3908322,17.8940126 L2.3908322,20" id="Path-Copy-2"></path>
                                </g>
                                <g id="Group-4-Copy-3" transform="translate(7.818182, 0.000000)">
                                    <path d="M2.3908322,0 L2.3908322,1.98204127 C2.01847712,1.46724435 1.57597414,1.20984589 1.06332327,1.20984589 C0.294346966,1.20984589 1.58257246e-14,1.70235375 1.58257246e-14,2.12244043 C1.58257246e-14,2.54252712 0.253457826,3.08326291 1.06332327,3.03503498 C1.60323357,3.00288302 2.04573655,2.65188512 2.3908322,1.98204127 C2.76519803,2.5947337 2.95238095,3.16556232 2.95238095,3.69452713 C2.95238095,4.22349193 2.76519803,4.75245674 2.3908322,5.28142154 C1.9037042,4.95601724 1.46120122,4.79331509 1.06332327,4.79331509 C0.466506352,4.79331509 1.58257246e-14,5.07461536 1.58257246e-14,5.56221986 C1.58257246e-14,6.04982436 0.331705861,6.41311556 1.06332327,6.41311556 C1.55106821,6.41311556 1.99357119,6.03588422 2.3908322,5.28142154 C2.70614356,5.99567713 2.86379924,6.57796003 2.86379924,7.02827023 C2.86379924,7.47858042 2.70614356,7.92589137 2.3908322,8.37020307 C1.80571626,7.93815116 1.33587388,7.72212521 0.981305074,7.72212521 C0.449451858,7.72212521 1.58257246e-14,8.21979499 1.58257246e-14,8.65100139 C1.58257246e-14,9.0822078 0.415951883,9.47296718 1.06332327,9.47296718 C1.4949042,9.47296718 1.93740717,9.10537914 2.3908322,8.37020307 L2.3908322,10.4761905" id="Path-Copy"></path>
                                    <path d="M2.3908322,9.52380952 L2.3908322,11.5058508 C2.01847712,10.9910539 1.57597414,10.7336554 1.06332327,10.7336554 C0.294346966,10.7336554 1.58257246e-14,11.2261633 1.58257246e-14,11.64625 C1.58257246e-14,12.0663366 0.253457826,12.6070724 1.06332327,12.5588445 C1.60323357,12.5266925 2.04573655,12.1756946 2.3908322,11.5058508 C2.76519803,12.1185432 2.95238095,12.6893718 2.95238095,13.2183366 C2.95238095,13.7473015 2.76519803,14.2762663 2.3908322,14.8052311 C1.9037042,14.4798268 1.46120122,14.3171246 1.06332327,14.3171246 C0.466506352,14.3171246 1.58257246e-14,14.5984249 1.58257246e-14,15.0860294 C1.58257246e-14,15.5736339 0.331705861,15.9369251 1.06332327,15.9369251 C1.55106821,15.9369251 1.99357119,15.5596937 2.3908322,14.8052311 C2.70614356,15.5194867 2.86379924,16.1017696 2.86379924,16.5520797 C2.86379924,17.0023899 2.70614356,17.4497009 2.3908322,17.8940126 C1.80571626,17.4619607 1.33587388,17.2459347 0.981305074,17.2459347 C0.449451858,17.2459347 1.58257246e-14,17.7436045 1.58257246e-14,18.1748109 C1.58257246e-14,18.6060173 0.415951883,18.9967767 1.06332327,18.9967767 C1.4949042,18.9967767 1.93740717,18.6291887 2.3908322,17.8940126 L2.3908322,20" id="Path-Copy-2"></path>
                                </g>
                            </g>
                            <g id="Group-6-Copy-2" transform="translate(0.000000, 20.000000)">
                                <g id="Group-4" transform="translate(0.000000, 0.000000)">
                                    <path d="M2.3908322,0 L2.3908322,1.98204127 C2.01847712,1.46724435 1.57597414,1.20984589 1.06332327,1.20984589 C0.294346966,1.20984589 0,1.70235375 0,2.12244043 C0,2.54252712 0.253457826,3.08326291 1.06332327,3.03503498 C1.60323357,3.00288302 2.04573655,2.65188512 2.3908322,1.98204127 C2.76519803,2.5947337 2.95238095,3.16556232 2.95238095,3.69452713 C2.95238095,4.22349193 2.76519803,4.75245674 2.3908322,5.28142154 C1.9037042,4.95601724 1.46120122,4.79331509 1.06332327,4.79331509 C0.466506352,4.79331509 0,5.07461536 0,5.56221986 C0,6.04982436 0.331705861,6.41311556 1.06332327,6.41311556 C1.55106821,6.41311556 1.99357119,6.03588422 2.3908322,5.28142154 C2.70614356,5.99567713 2.86379924,6.57796003 2.86379924,7.02827023 C2.86379924,7.47858042 2.70614356,7.92589137 2.3908322,8.37020307 C1.80571626,7.93815116 1.33587388,7.72212521 0.981305074,7.72212521 C0.449451858,7.72212521 0,8.21979499 0,8.65100139 C0,9.0822078 0.415951883,9.47296718 1.06332327,9.47296718 C1.4949042,9.47296718 1.93740717,9.10537914 2.3908322,8.37020307 L2.3908322,10.4761905" id="Path-Copy"></path>
                                    <path d="M2.3908322,9.52380952 L2.3908322,11.5058508 C2.01847712,10.9910539 1.57597414,10.7336554 1.06332327,10.7336554 C0.294346966,10.7336554 0,11.2261633 0,11.64625 C0,12.0663366 0.253457826,12.6070724 1.06332327,12.5588445 C1.60323357,12.5266925 2.04573655,12.1756946 2.3908322,11.5058508 C2.76519803,12.1185432 2.95238095,12.6893718 2.95238095,13.2183366 C2.95238095,13.7473015 2.76519803,14.2762663 2.3908322,14.8052311 C1.9037042,14.4798268 1.46120122,14.3171246 1.06332327,14.3171246 C0.466506352,14.3171246 0,14.5984249 0,15.0860294 C0,15.5736339 0.331705861,15.9369251 1.06332327,15.9369251 C1.55106821,15.9369251 1.99357119,15.5596937 2.3908322,14.8052311 C2.70614356,15.5194867 2.86379924,16.1017696 2.86379924,16.5520797 C2.86379924,17.0023899 2.70614356,17.4497009 2.3908322,17.8940126 C1.80571626,17.4619607 1.33587388,17.2459347 0.981305074,17.2459347 C0.449451858,17.2459347 0,17.7436045 0,18.1748109 C0,18.6060173 0.415951883,18.9967767 1.06332327,18.9967767 C1.4949042,18.9967767 1.93740717,18.6291887 2.3908322,17.8940126 L2.3908322,20" id="Path-Copy-2"></path>
                                </g>
                                <g id="Group-4-Copy-2" transform="translate(4.000000, 0.000000)">
                                    <path d="M2.3908322,0 L2.3908322,1.98204127 C2.01847712,1.46724435 1.57597414,1.20984589 1.06332327,1.20984589 C0.294346966,1.20984589 1.58257246e-14,1.70235375 1.58257246e-14,2.12244043 C1.58257246e-14,2.54252712 0.253457826,3.08326291 1.06332327,3.03503498 C1.60323357,3.00288302 2.04573655,2.65188512 2.3908322,1.98204127 C2.76519803,2.5947337 2.95238095,3.16556232 2.95238095,3.69452713 C2.95238095,4.22349193 2.76519803,4.75245674 2.3908322,5.28142154 C1.9037042,4.95601724 1.46120122,4.79331509 1.06332327,4.79331509 C0.466506352,4.79331509 1.58257246e-14,5.07461536 1.58257246e-14,5.56221986 C1.58257246e-14,6.04982436 0.331705861,6.41311556 1.06332327,6.41311556 C1.55106821,6.41311556 1.99357119,6.03588422 2.3908322,5.28142154 C2.70614356,5.99567713 2.86379924,6.57796003 2.86379924,7.02827023 C2.86379924,7.47858042 2.70614356,7.92589137 2.3908322,8.37020307 C1.80571626,7.93815116 1.33587388,7.72212521 0.981305074,7.72212521 C0.449451858,7.72212521 1.58257246e-14,8.21979499 1.58257246e-14,8.65100139 C1.58257246e-14,9.0822078 0.415951883,9.47296718 1.06332327,9.47296718 C1.4949042,9.47296718 1.93740717,9.10537914 2.3908322,8.37020307 L2.3908322,10.4761905" id="Path-Copy"></path>
                                    <path d="M2.3908322,9.52380952 L2.3908322,11.5058508 C2.01847712,10.9910539 1.57597414,10.7336554 1.06332327,10.7336554 C0.294346966,10.7336554 1.58257246e-14,11.2261633 1.58257246e-14,11.64625 C1.58257246e-14,12.0663366 0.253457826,12.6070724 1.06332327,12.5588445 C1.60323357,12.5266925 2.04573655,12.1756946 2.3908322,11.5058508 C2.76519803,12.1185432 2.95238095,12.6893718 2.95238095,13.2183366 C2.95238095,13.7473015 2.76519803,14.2762663 2.3908322,14.8052311 C1.9037042,14.4798268 1.46120122,14.3171246 1.06332327,14.3171246 C0.466506352,14.3171246 1.58257246e-14,14.5984249 1.58257246e-14,15.0860294 C1.58257246e-14,15.5736339 0.331705861,15.9369251 1.06332327,15.9369251 C1.55106821,15.9369251 1.99357119,15.5596937 2.3908322,14.8052311 C2.70614356,15.5194867 2.86379924,16.1017696 2.86379924,16.5520797 C2.86379924,17.0023899 2.70614356,17.4497009 2.3908322,17.8940126 C1.80571626,17.4619607 1.33587388,17.2459347 0.981305074,17.2459347 C0.449451858,17.2459347 1.58257246e-14,17.7436045 1.58257246e-14,18.1748109 C1.58257246e-14,18.6060173 0.415951883,18.9967767 1.06332327,18.9967767 C1.4949042,18.9967767 1.93740717,18.6291887 2.3908322,17.8940126 L2.3908322,20" id="Path-Copy-2"></path>
                                </g>
                                <g id="Group-4-Copy-3" transform="translate(7.818182, 0.000000)">
                                    <path d="M2.3908322,0 L2.3908322,1.98204127 C2.01847712,1.46724435 1.57597414,1.20984589 1.06332327,1.20984589 C0.294346966,1.20984589 1.58257246e-14,1.70235375 1.58257246e-14,2.12244043 C1.58257246e-14,2.54252712 0.253457826,3.08326291 1.06332327,3.03503498 C1.60323357,3.00288302 2.04573655,2.65188512 2.3908322,1.98204127 C2.76519803,2.5947337 2.95238095,3.16556232 2.95238095,3.69452713 C2.95238095,4.22349193 2.76519803,4.75245674 2.3908322,5.28142154 C1.9037042,4.95601724 1.46120122,4.79331509 1.06332327,4.79331509 C0.466506352,4.79331509 1.58257246e-14,5.07461536 1.58257246e-14,5.56221986 C1.58257246e-14,6.04982436 0.331705861,6.41311556 1.06332327,6.41311556 C1.55106821,6.41311556 1.99357119,6.03588422 2.3908322,5.28142154 C2.70614356,5.99567713 2.86379924,6.57796003 2.86379924,7.02827023 C2.86379924,7.47858042 2.70614356,7.92589137 2.3908322,8.37020307 C1.80571626,7.93815116 1.33587388,7.72212521 0.981305074,7.72212521 C0.449451858,7.72212521 1.58257246e-14,8.21979499 1.58257246e-14,8.65100139 C1.58257246e-14,9.0822078 0.415951883,9.47296718 1.06332327,9.47296718 C1.4949042,9.47296718 1.93740717,9.10537914 2.3908322,8.37020307 L2.3908322,10.4761905" id="Path-Copy"></path>
                                    <path d="M2.3908322,9.52380952 L2.3908322,11.5058508 C2.01847712,10.9910539 1.57597414,10.7336554 1.06332327,10.7336554 C0.294346966,10.7336554 1.58257246e-14,11.2261633 1.58257246e-14,11.64625 C1.58257246e-14,12.0663366 0.253457826,12.6070724 1.06332327,12.5588445 C1.60323357,12.5266925 2.04573655,12.1756946 2.3908322,11.5058508 C2.76519803,12.1185432 2.95238095,12.6893718 2.95238095,13.2183366 C2.95238095,13.7473015 2.76519803,14.2762663 2.3908322,14.8052311 C1.9037042,14.4798268 1.46120122,14.3171246 1.06332327,14.3171246 C0.466506352,14.3171246 1.58257246e-14,14.5984249 1.58257246e-14,15.0860294 C1.58257246e-14,15.5736339 0.331705861,15.9369251 1.06332327,15.9369251 C1.55106821,15.9369251 1.99357119,15.5596937 2.3908322,14.8052311 C2.70614356,15.5194867 2.86379924,16.1017696 2.86379924,16.5520797 C2.86379924,17.0023899 2.70614356,17.4497009 2.3908322,17.8940126 C1.80571626,17.4619607 1.33587388,17.2459347 0.981305074,17.2459347 C0.449451858,17.2459347 1.58257246e-14,17.7436045 1.58257246e-14,18.1748109 C1.58257246e-14,18.6060173 0.415951883,18.9967767 1.06332327,18.9967767 C1.4949042,18.9967767 1.93740717,18.6291887 2.3908322,17.8940126 L2.3908322,20" id="Path-Copy-2"></path>
                                </g>
                            </g>
                        </g>
                    </g>
                    <g id="Group-10-Copy" transform="translate(11.636364, 0.000000)">
                        <g id="Group-9-Copy">
                            <g id="Group-6-Copy" transform="translate(0.000000, 0.000000)">
                                <g id="Group-4" transform="translate(0.000000, 0.000000)">
                                    <path d="M2.3908322,0 L2.3908322,1.98204127 C2.01847712,1.46724435 1.57597414,1.20984589 1.06332327,1.20984589 C0.294346966,1.20984589 0,1.70235375 0,2.12244043 C0,2.54252712 0.253457826,3.08326291 1.06332327,3.03503498 C1.60323357,3.00288302 2.04573655,2.65188512 2.3908322,1.98204127 C2.76519803,2.5947337 2.95238095,3.16556232 2.95238095,3.69452713 C2.95238095,4.22349193 2.76519803,4.75245674 2.3908322,5.28142154 C1.9037042,4.95601724 1.46120122,4.79331509 1.06332327,4.79331509 C0.466506352,4.79331509 0,5.07461536 0,5.56221986 C0,6.04982436 0.331705861,6.41311556 1.06332327,6.41311556 C1.55106821,6.41311556 1.99357119,6.03588422 2.3908322,5.28142154 C2.70614356,5.99567713 2.86379924,6.57796003 2.86379924,7.02827023 C2.86379924,7.47858042 2.70614356,7.92589137 2.3908322,8.37020307 C1.80571626,7.93815116 1.33587388,7.72212521 0.981305074,7.72212521 C0.449451858,7.72212521 0,8.21979499 0,8.65100139 C0,9.0822078 0.415951883,9.47296718 1.06332327,9.47296718 C1.4949042,9.47296718 1.93740717,9.10537914 2.3908322,8.37020307 L2.3908322,10.4761905" id="Path-Copy"></path>
                                    <path d="M2.3908322,9.52380952 L2.3908322,11.5058508 C2.01847712,10.9910539 1.57597414,10.7336554 1.06332327,10.7336554 C0.294346966,10.7336554 0,11.2261633 0,11.64625 C0,12.0663366 0.253457826,12.6070724 1.06332327,12.5588445 C1.60323357,12.5266925 2.04573655,12.1756946 2.3908322,11.5058508 C2.76519803,12.1185432 2.95238095,12.6893718 2.95238095,13.2183366 C2.95238095,13.7473015 2.76519803,14.2762663 2.3908322,14.8052311 C1.9037042,14.4798268 1.46120122,14.3171246 1.06332327,14.3171246 C0.466506352,14.3171246 0,14.5984249 0,15.0860294 C0,15.5736339 0.331705861,15.9369251 1.06332327,15.9369251 C1.55106821,15.9369251 1.99357119,15.5596937 2.3908322,14.8052311 C2.70614356,15.5194867 2.86379924,16.1017696 2.86379924,16.5520797 C2.86379924,17.0023899 2.70614356,17.4497009 2.3908322,17.8940126 C1.80571626,17.4619607 1.33587388,17.2459347 0.981305074,17.2459347 C0.449451858,17.2459347 0,17.7436045 0,18.1748109 C0,18.6060173 0.415951883,18.9967767 1.06332327,18.9967767 C1.4949042,18.9967767 1.93740717,18.6291887 2.3908322,17.8940126 L2.3908322,20" id="Path-Copy-2"></path>
                                </g>
                                <g id="Group-4-Copy-2" transform="translate(4.000000, 0.000000)">
                                    <path d="M2.3908322,0 L2.3908322,1.98204127 C2.01847712,1.46724435 1.57597414,1.20984589 1.06332327,1.20984589 C0.294346966,1.20984589 1.58257246e-14,1.70235375 1.58257246e-14,2.12244043 C1.58257246e-14,2.54252712 0.253457826,3.08326291 1.06332327,3.03503498 C1.60323357,3.00288302 2.04573655,2.65188512 2.3908322,1.98204127 C2.76519803,2.5947337 2.95238095,3.16556232 2.95238095,3.69452713 C2.95238095,4.22349193 2.76519803,4.75245674 2.3908322,5.28142154 C1.9037042,4.95601724 1.46120122,4.79331509 1.06332327,4.79331509 C0.466506352,4.79331509 1.58257246e-14,5.07461536 1.58257246e-14,5.56221986 C1.58257246e-14,6.04982436 0.331705861,6.41311556 1.06332327,6.41311556 C1.55106821,6.41311556 1.99357119,6.03588422 2.3908322,5.28142154 C2.70614356,5.99567713 2.86379924,6.57796003 2.86379924,7.02827023 C2.86379924,7.47858042 2.70614356,7.92589137 2.3908322,8.37020307 C1.80571626,7.93815116 1.33587388,7.72212521 0.981305074,7.72212521 C0.449451858,7.72212521 1.58257246e-14,8.21979499 1.58257246e-14,8.65100139 C1.58257246e-14,9.0822078 0.415951883,9.47296718 1.06332327,9.47296718 C1.4949042,9.47296718 1.93740717,9.10537914 2.3908322,8.37020307 L2.3908322,10.4761905" id="Path-Copy"></path>
                                    <path d="M2.3908322,9.52380952 L2.3908322,11.5058508 C2.01847712,10.9910539 1.57597414,10.7336554 1.06332327,10.7336554 C0.294346966,10.7336554 1.58257246e-14,11.2261633 1.58257246e-14,11.64625 C1.58257246e-14,12.0663366 0.253457826,12.6070724 1.06332327,12.5588445 C1.60323357,12.5266925 2.04573655,12.1756946 2.3908322,11.5058508 C2.76519803,12.1185432 2.95238095,12.6893718 2.95238095,13.2183366 C2.95238095,13.7473015 2.76519803,14.2762663 2.3908322,14.8052311 C1.9037042,14.4798268 1.46120122,14.3171246 1.06332327,14.3171246 C0.466506352,14.3171246 1.58257246e-14,14.5984249 1.58257246e-14,15.0860294 C1.58257246e-14,15.5736339 0.331705861,15.9369251 1.06332327,15.9369251 C1.55106821,15.9369251 1.99357119,15.5596937 2.3908322,14.8052311 C2.70614356,15.5194867 2.86379924,16.1017696 2.86379924,16.5520797 C2.86379924,17.0023899 2.70614356,17.4497009 2.3908322,17.8940126 C1.80571626,17.4619607 1.33587388,17.2459347 0.981305074,17.2459347 C0.449451858,17.2459347 1.58257246e-14,17.7436045 1.58257246e-14,18.1748109 C1.58257246e-14,18.6060173 0.415951883,18.9967767 1.06332327,18.9967767 C1.4949042,18.9967767 1.93740717,18.6291887 2.3908322,17.8940126 L2.3908322,20" id="Path-Copy-2"></path>
                                </g>
                                <g id="Group-4-Copy-3" transform="translate(7.818182, 0.000000)">
                                    <path d="M2.3908322,0 L2.3908322,1.98204127 C2.01847712,1.46724435 1.57597414,1.20984589 1.06332327,1.20984589 C0.294346966,1.20984589 1.58257246e-14,1.70235375 1.58257246e-14,2.12244043 C1.58257246e-14,2.54252712 0.253457826,3.08326291 1.06332327,3.03503498 C1.60323357,3.00288302 2.04573655,2.65188512 2.3908322,1.98204127 C2.76519803,2.5947337 2.95238095,3.16556232 2.95238095,3.69452713 C2.95238095,4.22349193 2.76519803,4.75245674 2.3908322,5.28142154 C1.9037042,4.95601724 1.46120122,4.79331509 1.06332327,4.79331509 C0.466506352,4.79331509 1.58257246e-14,5.07461536 1.58257246e-14,5.56221986 C1.58257246e-14,6.04982436 0.331705861,6.41311556 1.06332327,6.41311556 C1.55106821,6.41311556 1.99357119,6.03588422 2.3908322,5.28142154 C2.70614356,5.99567713 2.86379924,6.57796003 2.86379924,7.02827023 C2.86379924,7.47858042 2.70614356,7.92589137 2.3908322,8.37020307 C1.80571626,7.93815116 1.33587388,7.72212521 0.981305074,7.72212521 C0.449451858,7.72212521 1.58257246e-14,8.21979499 1.58257246e-14,8.65100139 C1.58257246e-14,9.0822078 0.415951883,9.47296718 1.06332327,9.47296718 C1.4949042,9.47296718 1.93740717,9.10537914 2.3908322,8.37020307 L2.3908322,10.4761905" id="Path-Copy"></path>
                                    <path d="M2.3908322,9.52380952 L2.3908322,11.5058508 C2.01847712,10.9910539 1.57597414,10.7336554 1.06332327,10.7336554 C0.294346966,10.7336554 1.58257246e-14,11.2261633 1.58257246e-14,11.64625 C1.58257246e-14,12.0663366 0.253457826,12.6070724 1.06332327,12.5588445 C1.60323357,12.5266925 2.04573655,12.1756946 2.3908322,11.5058508 C2.76519803,12.1185432 2.95238095,12.6893718 2.95238095,13.2183366 C2.95238095,13.7473015 2.76519803,14.2762663 2.3908322,14.8052311 C1.9037042,14.4798268 1.46120122,14.3171246 1.06332327,14.3171246 C0.466506352,14.3171246 1.58257246e-14,14.5984249 1.58257246e-14,15.0860294 C1.58257246e-14,15.5736339 0.331705861,15.9369251 1.06332327,15.9369251 C1.55106821,15.9369251 1.99357119,15.5596937 2.3908322,14.8052311 C2.70614356,15.5194867 2.86379924,16.1017696 2.86379924,16.5520797 C2.86379924,17.0023899 2.70614356,17.4497009 2.3908322,17.8940126 C1.80571626,17.4619607 1.33587388,17.2459347 0.981305074,17.2459347 C0.449451858,17.2459347 1.58257246e-14,17.7436045 1.58257246e-14,18.1748109 C1.58257246e-14,18.6060173 0.415951883,18.9967767 1.06332327,18.9967767 C1.4949042,18.9967767 1.93740717,18.6291887 2.3908322,17.8940126 L2.3908322,20" id="Path-Copy-2"></path>
                                </g>
                            </g>
                            <g id="Group-6-Copy-2" transform="translate(0.000000, 20.000000)">
                                <g id="Group-4" transform="translate(0.000000, 0.000000)">
                                    <path d="M2.3908322,0 L2.3908322,1.98204127 C2.01847712,1.46724435 1.57597414,1.20984589 1.06332327,1.20984589 C0.294346966,1.20984589 0,1.70235375 0,2.12244043 C0,2.54252712 0.253457826,3.08326291 1.06332327,3.03503498 C1.60323357,3.00288302 2.04573655,2.65188512 2.3908322,1.98204127 C2.76519803,2.5947337 2.95238095,3.16556232 2.95238095,3.69452713 C2.95238095,4.22349193 2.76519803,4.75245674 2.3908322,5.28142154 C1.9037042,4.95601724 1.46120122,4.79331509 1.06332327,4.79331509 C0.466506352,4.79331509 0,5.07461536 0,5.56221986 C0,6.04982436 0.331705861,6.41311556 1.06332327,6.41311556 C1.55106821,6.41311556 1.99357119,6.03588422 2.3908322,5.28142154 C2.70614356,5.99567713 2.86379924,6.57796003 2.86379924,7.02827023 C2.86379924,7.47858042 2.70614356,7.92589137 2.3908322,8.37020307 C1.80571626,7.93815116 1.33587388,7.72212521 0.981305074,7.72212521 C0.449451858,7.72212521 0,8.21979499 0,8.65100139 C0,9.0822078 0.415951883,9.47296718 1.06332327,9.47296718 C1.4949042,9.47296718 1.93740717,9.10537914 2.3908322,8.37020307 L2.3908322,10.4761905" id="Path-Copy"></path>
                                    <path d="M2.3908322,9.52380952 L2.3908322,11.5058508 C2.01847712,10.9910539 1.57597414,10.7336554 1.06332327,10.7336554 C0.294346966,10.7336554 0,11.2261633 0,11.64625 C0,12.0663366 0.253457826,12.6070724 1.06332327,12.5588445 C1.60323357,12.5266925 2.04573655,12.1756946 2.3908322,11.5058508 C2.76519803,12.1185432 2.95238095,12.6893718 2.95238095,13.2183366 C2.95238095,13.7473015 2.76519803,14.2762663 2.3908322,14.8052311 C1.9037042,14.4798268 1.46120122,14.3171246 1.06332327,14.3171246 C0.466506352,14.3171246 0,14.5984249 0,15.0860294 C0,15.5736339 0.331705861,15.9369251 1.06332327,15.9369251 C1.55106821,15.9369251 1.99357119,15.5596937 2.3908322,14.8052311 C2.70614356,15.5194867 2.86379924,16.1017696 2.86379924,16.5520797 C2.86379924,17.0023899 2.70614356,17.4497009 2.3908322,17.8940126 C1.80571626,17.4619607 1.33587388,17.2459347 0.981305074,17.2459347 C0.449451858,17.2459347 0,17.7436045 0,18.1748109 C0,18.6060173 0.415951883,18.9967767 1.06332327,18.9967767 C1.4949042,18.9967767 1.93740717,18.6291887 2.3908322,17.8940126 L2.3908322,20" id="Path-Copy-2"></path>
                                </g>
                                <g id="Group-4-Copy-2" transform="translate(4.000000, 0.000000)">
                                    <path d="M2.3908322,0 L2.3908322,1.98204127 C2.01847712,1.46724435 1.57597414,1.20984589 1.06332327,1.20984589 C0.294346966,1.20984589 1.58257246e-14,1.70235375 1.58257246e-14,2.12244043 C1.58257246e-14,2.54252712 0.253457826,3.08326291 1.06332327,3.03503498 C1.60323357,3.00288302 2.04573655,2.65188512 2.3908322,1.98204127 C2.76519803,2.5947337 2.95238095,3.16556232 2.95238095,3.69452713 C2.95238095,4.22349193 2.76519803,4.75245674 2.3908322,5.28142154 C1.9037042,4.95601724 1.46120122,4.79331509 1.06332327,4.79331509 C0.466506352,4.79331509 1.58257246e-14,5.07461536 1.58257246e-14,5.56221986 C1.58257246e-14,6.04982436 0.331705861,6.41311556 1.06332327,6.41311556 C1.55106821,6.41311556 1.99357119,6.03588422 2.3908322,5.28142154 C2.70614356,5.99567713 2.86379924,6.57796003 2.86379924,7.02827023 C2.86379924,7.47858042 2.70614356,7.92589137 2.3908322,8.37020307 C1.80571626,7.93815116 1.33587388,7.72212521 0.981305074,7.72212521 C0.449451858,7.72212521 1.58257246e-14,8.21979499 1.58257246e-14,8.65100139 C1.58257246e-14,9.0822078 0.415951883,9.47296718 1.06332327,9.47296718 C1.4949042,9.47296718 1.93740717,9.10537914 2.3908322,8.37020307 L2.3908322,10.4761905" id="Path-Copy"></path>
                                    <path d="M2.3908322,9.52380952 L2.3908322,11.5058508 C2.01847712,10.9910539 1.57597414,10.7336554 1.06332327,10.7336554 C0.294346966,10.7336554 1.58257246e-14,11.2261633 1.58257246e-14,11.64625 C1.58257246e-14,12.0663366 0.253457826,12.6070724 1.06332327,12.5588445 C1.60323357,12.5266925 2.04573655,12.1756946 2.3908322,11.5058508 C2.76519803,12.1185432 2.95238095,12.6893718 2.95238095,13.2183366 C2.95238095,13.7473015 2.76519803,14.2762663 2.3908322,14.8052311 C1.9037042,14.4798268 1.46120122,14.3171246 1.06332327,14.3171246 C0.466506352,14.3171246 1.58257246e-14,14.5984249 1.58257246e-14,15.0860294 C1.58257246e-14,15.5736339 0.331705861,15.9369251 1.06332327,15.9369251 C1.55106821,15.9369251 1.99357119,15.5596937 2.3908322,14.8052311 C2.70614356,15.5194867 2.86379924,16.1017696 2.86379924,16.5520797 C2.86379924,17.0023899 2.70614356,17.4497009 2.3908322,17.8940126 C1.80571626,17.4619607 1.33587388,17.2459347 0.981305074,17.2459347 C0.449451858,17.2459347 1.58257246e-14,17.7436045 1.58257246e-14,18.1748109 C1.58257246e-14,18.6060173 0.415951883,18.9967767 1.06332327,18.9967767 C1.4949042,18.9967767 1.93740717,18.6291887 2.3908322,17.8940126 L2.3908322,20" id="Path-Copy-2"></path>
                                </g>
                                <g id="Group-4-Copy-3" transform="translate(7.818182, 0.000000)">
                                    <path d="M2.3908322,0 L2.3908322,1.98204127 C2.01847712,1.46724435 1.57597414,1.20984589 1.06332327,1.20984589 C0.294346966,1.20984589 1.58257246e-14,1.70235375 1.58257246e-14,2.12244043 C1.58257246e-14,2.54252712 0.253457826,3.08326291 1.06332327,3.03503498 C1.60323357,3.00288302 2.04573655,2.65188512 2.3908322,1.98204127 C2.76519803,2.5947337 2.95238095,3.16556232 2.95238095,3.69452713 C2.95238095,4.22349193 2.76519803,4.75245674 2.3908322,5.28142154 C1.9037042,4.95601724 1.46120122,4.79331509 1.06332327,4.79331509 C0.466506352,4.79331509 1.58257246e-14,5.07461536 1.58257246e-14,5.56221986 C1.58257246e-14,6.04982436 0.331705861,6.41311556 1.06332327,6.41311556 C1.55106821,6.41311556 1.99357119,6.03588422 2.3908322,5.28142154 C2.70614356,5.99567713 2.86379924,6.57796003 2.86379924,7.02827023 C2.86379924,7.47858042 2.70614356,7.92589137 2.3908322,8.37020307 C1.80571626,7.93815116 1.33587388,7.72212521 0.981305074,7.72212521 C0.449451858,7.72212521 1.58257246e-14,8.21979499 1.58257246e-14,8.65100139 C1.58257246e-14,9.0822078 0.415951883,9.47296718 1.06332327,9.47296718 C1.4949042,9.47296718 1.93740717,9.10537914 2.3908322,8.37020307 L2.3908322,10.4761905" id="Path-Copy"></path>
                                    <path d="M2.3908322,9.52380952 L2.3908322,11.5058508 C2.01847712,10.9910539 1.57597414,10.7336554 1.06332327,10.7336554 C0.294346966,10.7336554 1.58257246e-14,11.2261633 1.58257246e-14,11.64625 C1.58257246e-14,12.0663366 0.253457826,12.6070724 1.06332327,12.5588445 C1.60323357,12.5266925 2.04573655,12.1756946 2.3908322,11.5058508 C2.76519803,12.1185432 2.95238095,12.6893718 2.95238095,13.2183366 C2.95238095,13.7473015 2.76519803,14.2762663 2.3908322,14.8052311 C1.9037042,14.4798268 1.46120122,14.3171246 1.06332327,14.3171246 C0.466506352,14.3171246 1.58257246e-14,14.5984249 1.58257246e-14,15.0860294 C1.58257246e-14,15.5736339 0.331705861,15.9369251 1.06332327,15.9369251 C1.55106821,15.9369251 1.99357119,15.5596937 2.3908322,14.8052311 C2.70614356,15.5194867 2.86379924,16.1017696 2.86379924,16.5520797 C2.86379924,17.0023899 2.70614356,17.4497009 2.3908322,17.8940126 C1.80571626,17.4619607 1.33587388,17.2459347 0.981305074,17.2459347 C0.449451858,17.2459347 1.58257246e-14,17.7436045 1.58257246e-14,18.1748109 C1.58257246e-14,18.6060173 0.415951883,18.9967767 1.06332327,18.9967767 C1.4949042,18.9967767 1.93740717,18.6291887 2.3908322,17.8940126 L2.3908322,20" id="Path-Copy-2"></path>
                                </g>
                            </g>
                        </g>
                        <g id="Group-9-Copy-2" transform="translate(0.000000, 40.000000)">
                            <g id="Group-6-Copy" transform="translate(0.000000, 0.000000)">
                                <g id="Group-4" transform="translate(0.000000, 0.000000)">
                                    <path d="M2.3908322,0 L2.3908322,1.98204127 C2.01847712,1.46724435 1.57597414,1.20984589 1.06332327,1.20984589 C0.294346966,1.20984589 0,1.70235375 0,2.12244043 C0,2.54252712 0.253457826,3.08326291 1.06332327,3.03503498 C1.60323357,3.00288302 2.04573655,2.65188512 2.3908322,1.98204127 C2.76519803,2.5947337 2.95238095,3.16556232 2.95238095,3.69452713 C2.95238095,4.22349193 2.76519803,4.75245674 2.3908322,5.28142154 C1.9037042,4.95601724 1.46120122,4.79331509 1.06332327,4.79331509 C0.466506352,4.79331509 0,5.07461536 0,5.56221986 C0,6.04982436 0.331705861,6.41311556 1.06332327,6.41311556 C1.55106821,6.41311556 1.99357119,6.03588422 2.3908322,5.28142154 C2.70614356,5.99567713 2.86379924,6.57796003 2.86379924,7.02827023 C2.86379924,7.47858042 2.70614356,7.92589137 2.3908322,8.37020307 C1.80571626,7.93815116 1.33587388,7.72212521 0.981305074,7.72212521 C0.449451858,7.72212521 0,8.21979499 0,8.65100139 C0,9.0822078 0.415951883,9.47296718 1.06332327,9.47296718 C1.4949042,9.47296718 1.93740717,9.10537914 2.3908322,8.37020307 L2.3908322,10.4761905" id="Path-Copy"></path>
                                    <path d="M2.3908322,9.52380952 L2.3908322,11.5058508 C2.01847712,10.9910539 1.57597414,10.7336554 1.06332327,10.7336554 C0.294346966,10.7336554 0,11.2261633 0,11.64625 C0,12.0663366 0.253457826,12.6070724 1.06332327,12.5588445 C1.60323357,12.5266925 2.04573655,12.1756946 2.3908322,11.5058508 C2.76519803,12.1185432 2.95238095,12.6893718 2.95238095,13.2183366 C2.95238095,13.7473015 2.76519803,14.2762663 2.3908322,14.8052311 C1.9037042,14.4798268 1.46120122,14.3171246 1.06332327,14.3171246 C0.466506352,14.3171246 0,14.5984249 0,15.0860294 C0,15.5736339 0.331705861,15.9369251 1.06332327,15.9369251 C1.55106821,15.9369251 1.99357119,15.5596937 2.3908322,14.8052311 C2.70614356,15.5194867 2.86379924,16.1017696 2.86379924,16.5520797 C2.86379924,17.0023899 2.70614356,17.4497009 2.3908322,17.8940126 C1.80571626,17.4619607 1.33587388,17.2459347 0.981305074,17.2459347 C0.449451858,17.2459347 0,17.7436045 0,18.1748109 C0,18.6060173 0.415951883,18.9967767 1.06332327,18.9967767 C1.4949042,18.9967767 1.93740717,18.6291887 2.3908322,17.8940126 L2.3908322,20" id="Path-Copy-2"></path>
                                </g>
                                <g id="Group-4-Copy-2" transform="translate(4.000000, 0.000000)">
                                    <path d="M2.3908322,0 L2.3908322,1.98204127 C2.01847712,1.46724435 1.57597414,1.20984589 1.06332327,1.20984589 C0.294346966,1.20984589 1.58257246e-14,1.70235375 1.58257246e-14,2.12244043 C1.58257246e-14,2.54252712 0.253457826,3.08326291 1.06332327,3.03503498 C1.60323357,3.00288302 2.04573655,2.65188512 2.3908322,1.98204127 C2.76519803,2.5947337 2.95238095,3.16556232 2.95238095,3.69452713 C2.95238095,4.22349193 2.76519803,4.75245674 2.3908322,5.28142154 C1.9037042,4.95601724 1.46120122,4.79331509 1.06332327,4.79331509 C0.466506352,4.79331509 1.58257246e-14,5.07461536 1.58257246e-14,5.56221986 C1.58257246e-14,6.04982436 0.331705861,6.41311556 1.06332327,6.41311556 C1.55106821,6.41311556 1.99357119,6.03588422 2.3908322,5.28142154 C2.70614356,5.99567713 2.86379924,6.57796003 2.86379924,7.02827023 C2.86379924,7.47858042 2.70614356,7.92589137 2.3908322,8.37020307 C1.80571626,7.93815116 1.33587388,7.72212521 0.981305074,7.72212521 C0.449451858,7.72212521 1.58257246e-14,8.21979499 1.58257246e-14,8.65100139 C1.58257246e-14,9.0822078 0.415951883,9.47296718 1.06332327,9.47296718 C1.4949042,9.47296718 1.93740717,9.10537914 2.3908322,8.37020307 L2.3908322,10.4761905" id="Path-Copy"></path>
                                    <path d="M2.3908322,9.52380952 L2.3908322,11.5058508 C2.01847712,10.9910539 1.57597414,10.7336554 1.06332327,10.7336554 C0.294346966,10.7336554 1.58257246e-14,11.2261633 1.58257246e-14,11.64625 C1.58257246e-14,12.0663366 0.253457826,12.6070724 1.06332327,12.5588445 C1.60323357,12.5266925 2.04573655,12.1756946 2.3908322,11.5058508 C2.76519803,12.1185432 2.95238095,12.6893718 2.95238095,13.2183366 C2.95238095,13.7473015 2.76519803,14.2762663 2.3908322,14.8052311 C1.9037042,14.4798268 1.46120122,14.3171246 1.06332327,14.3171246 C0.466506352,14.3171246 1.58257246e-14,14.5984249 1.58257246e-14,15.0860294 C1.58257246e-14,15.5736339 0.331705861,15.9369251 1.06332327,15.9369251 C1.55106821,15.9369251 1.99357119,15.5596937 2.3908322,14.8052311 C2.70614356,15.5194867 2.86379924,16.1017696 2.86379924,16.5520797 C2.86379924,17.0023899 2.70614356,17.4497009 2.3908322,17.8940126 C1.80571626,17.4619607 1.33587388,17.2459347 0.981305074,17.2459347 C0.449451858,17.2459347 1.58257246e-14,17.7436045 1.58257246e-14,18.1748109 C1.58257246e-14,18.6060173 0.415951883,18.9967767 1.06332327,18.9967767 C1.4949042,18.9967767 1.93740717,18.6291887 2.3908322,17.8940126 L2.3908322,20" id="Path-Copy-2"></path>
                                </g>
                                <g id="Group-4-Copy-3" transform="translate(7.818182, 0.000000)">
                                    <path d="M2.3908322,0 L2.3908322,1.98204127 C2.01847712,1.46724435 1.57597414,1.20984589 1.06332327,1.20984589 C0.294346966,1.20984589 1.58257246e-14,1.70235375 1.58257246e-14,2.12244043 C1.58257246e-14,2.54252712 0.253457826,3.08326291 1.06332327,3.03503498 C1.60323357,3.00288302 2.04573655,2.65188512 2.3908322,1.98204127 C2.76519803,2.5947337 2.95238095,3.16556232 2.95238095,3.69452713 C2.95238095,4.22349193 2.76519803,4.75245674 2.3908322,5.28142154 C1.9037042,4.95601724 1.46120122,4.79331509 1.06332327,4.79331509 C0.466506352,4.79331509 1.58257246e-14,5.07461536 1.58257246e-14,5.56221986 C1.58257246e-14,6.04982436 0.331705861,6.41311556 1.06332327,6.41311556 C1.55106821,6.41311556 1.99357119,6.03588422 2.3908322,5.28142154 C2.70614356,5.99567713 2.86379924,6.57796003 2.86379924,7.02827023 C2.86379924,7.47858042 2.70614356,7.92589137 2.3908322,8.37020307 C1.80571626,7.93815116 1.33587388,7.72212521 0.981305074,7.72212521 C0.449451858,7.72212521 1.58257246e-14,8.21979499 1.58257246e-14,8.65100139 C1.58257246e-14,9.0822078 0.415951883,9.47296718 1.06332327,9.47296718 C1.4949042,9.47296718 1.93740717,9.10537914 2.3908322,8.37020307 L2.3908322,10.4761905" id="Path-Copy"></path>
                                    <path d="M2.3908322,9.52380952 L2.3908322,11.5058508 C2.01847712,10.9910539 1.57597414,10.7336554 1.06332327,10.7336554 C0.294346966,10.7336554 1.58257246e-14,11.2261633 1.58257246e-14,11.64625 C1.58257246e-14,12.0663366 0.253457826,12.6070724 1.06332327,12.5588445 C1.60323357,12.5266925 2.04573655,12.1756946 2.3908322,11.5058508 C2.76519803,12.1185432 2.95238095,12.6893718 2.95238095,13.2183366 C2.95238095,13.7473015 2.76519803,14.2762663 2.3908322,14.8052311 C1.9037042,14.4798268 1.46120122,14.3171246 1.06332327,14.3171246 C0.466506352,14.3171246 1.58257246e-14,14.5984249 1.58257246e-14,15.0860294 C1.58257246e-14,15.5736339 0.331705861,15.9369251 1.06332327,15.9369251 C1.55106821,15.9369251 1.99357119,15.5596937 2.3908322,14.8052311 C2.70614356,15.5194867 2.86379924,16.1017696 2.86379924,16.5520797 C2.86379924,17.0023899 2.70614356,17.4497009 2.3908322,17.8940126 C1.80571626,17.4619607 1.33587388,17.2459347 0.981305074,17.2459347 C0.449451858,17.2459347 1.58257246e-14,17.7436045 1.58257246e-14,18.1748109 C1.58257246e-14,18.6060173 0.415951883,18.9967767 1.06332327,18.9967767 C1.4949042,18.9967767 1.93740717,18.6291887 2.3908322,17.8940126 L2.3908322,20" id="Path-Copy-2"></path>
                                </g>
                            </g>
                            <g id="Group-6-Copy-2" transform="translate(0.000000, 20.000000)">
                                <g id="Group-4" transform="translate(0.000000, 0.000000)">
                                    <path d="M2.3908322,0 L2.3908322,1.98204127 C2.01847712,1.46724435 1.57597414,1.20984589 1.06332327,1.20984589 C0.294346966,1.20984589 0,1.70235375 0,2.12244043 C0,2.54252712 0.253457826,3.08326291 1.06332327,3.03503498 C1.60323357,3.00288302 2.04573655,2.65188512 2.3908322,1.98204127 C2.76519803,2.5947337 2.95238095,3.16556232 2.95238095,3.69452713 C2.95238095,4.22349193 2.76519803,4.75245674 2.3908322,5.28142154 C1.9037042,4.95601724 1.46120122,4.79331509 1.06332327,4.79331509 C0.466506352,4.79331509 0,5.07461536 0,5.56221986 C0,6.04982436 0.331705861,6.41311556 1.06332327,6.41311556 C1.55106821,6.41311556 1.99357119,6.03588422 2.3908322,5.28142154 C2.70614356,5.99567713 2.86379924,6.57796003 2.86379924,7.02827023 C2.86379924,7.47858042 2.70614356,7.92589137 2.3908322,8.37020307 C1.80571626,7.93815116 1.33587388,7.72212521 0.981305074,7.72212521 C0.449451858,7.72212521 0,8.21979499 0,8.65100139 C0,9.0822078 0.415951883,9.47296718 1.06332327,9.47296718 C1.4949042,9.47296718 1.93740717,9.10537914 2.3908322,8.37020307 L2.3908322,10.4761905" id="Path-Copy"></path>
                                    <path d="M2.3908322,9.52380952 L2.3908322,11.5058508 C2.01847712,10.9910539 1.57597414,10.7336554 1.06332327,10.7336554 C0.294346966,10.7336554 0,11.2261633 0,11.64625 C0,12.0663366 0.253457826,12.6070724 1.06332327,12.5588445 C1.60323357,12.5266925 2.04573655,12.1756946 2.3908322,11.5058508 C2.76519803,12.1185432 2.95238095,12.6893718 2.95238095,13.2183366 C2.95238095,13.7473015 2.76519803,14.2762663 2.3908322,14.8052311 C1.9037042,14.4798268 1.46120122,14.3171246 1.06332327,14.3171246 C0.466506352,14.3171246 0,14.5984249 0,15.0860294 C0,15.5736339 0.331705861,15.9369251 1.06332327,15.9369251 C1.55106821,15.9369251 1.99357119,15.5596937 2.3908322,14.8052311 C2.70614356,15.5194867 2.86379924,16.1017696 2.86379924,16.5520797 C2.86379924,17.0023899 2.70614356,17.4497009 2.3908322,17.8940126 C1.80571626,17.4619607 1.33587388,17.2459347 0.981305074,17.2459347 C0.449451858,17.2459347 0,17.7436045 0,18.1748109 C0,18.6060173 0.415951883,18.9967767 1.06332327,18.9967767 C1.4949042,18.9967767 1.93740717,18.6291887 2.3908322,17.8940126 L2.3908322,20" id="Path-Copy-2"></path>
                                </g>
                                <g id="Group-4-Copy-2" transform="translate(4.000000, 0.000000)">
                                    <path d="M2.3908322,0 L2.3908322,1.98204127 C2.01847712,1.46724435 1.57597414,1.20984589 1.06332327,1.20984589 C0.294346966,1.20984589 1.58257246e-14,1.70235375 1.58257246e-14,2.12244043 C1.58257246e-14,2.54252712 0.253457826,3.08326291 1.06332327,3.03503498 C1.60323357,3.00288302 2.04573655,2.65188512 2.3908322,1.98204127 C2.76519803,2.5947337 2.95238095,3.16556232 2.95238095,3.69452713 C2.95238095,4.22349193 2.76519803,4.75245674 2.3908322,5.28142154 C1.9037042,4.95601724 1.46120122,4.79331509 1.06332327,4.79331509 C0.466506352,4.79331509 1.58257246e-14,5.07461536 1.58257246e-14,5.56221986 C1.58257246e-14,6.04982436 0.331705861,6.41311556 1.06332327,6.41311556 C1.55106821,6.41311556 1.99357119,6.03588422 2.3908322,5.28142154 C2.70614356,5.99567713 2.86379924,6.57796003 2.86379924,7.02827023 C2.86379924,7.47858042 2.70614356,7.92589137 2.3908322,8.37020307 C1.80571626,7.93815116 1.33587388,7.72212521 0.981305074,7.72212521 C0.449451858,7.72212521 1.58257246e-14,8.21979499 1.58257246e-14,8.65100139 C1.58257246e-14,9.0822078 0.415951883,9.47296718 1.06332327,9.47296718 C1.4949042,9.47296718 1.93740717,9.10537914 2.3908322,8.37020307 L2.3908322,10.4761905" id="Path-Copy"></path>
                                    <path d="M2.3908322,9.52380952 L2.3908322,11.5058508 C2.01847712,10.9910539 1.57597414,10.7336554 1.06332327,10.7336554 C0.294346966,10.7336554 1.58257246e-14,11.2261633 1.58257246e-14,11.64625 C1.58257246e-14,12.0663366 0.253457826,12.6070724 1.06332327,12.5588445 C1.60323357,12.5266925 2.04573655,12.1756946 2.3908322,11.5058508 C2.76519803,12.1185432 2.95238095,12.6893718 2.95238095,13.2183366 C2.95238095,13.7473015 2.76519803,14.2762663 2.3908322,14.8052311 C1.9037042,14.4798268 1.46120122,14.3171246 1.06332327,14.3171246 C0.466506352,14.3171246 1.58257246e-14,14.5984249 1.58257246e-14,15.0860294 C1.58257246e-14,15.5736339 0.331705861,15.9369251 1.06332327,15.9369251 C1.55106821,15.9369251 1.99357119,15.5596937 2.3908322,14.8052311 C2.70614356,15.5194867 2.86379924,16.1017696 2.86379924,16.5520797 C2.86379924,17.0023899 2.70614356,17.4497009 2.3908322,17.8940126 C1.80571626,17.4619607 1.33587388,17.2459347 0.981305074,17.2459347 C0.449451858,17.2459347 1.58257246e-14,17.7436045 1.58257246e-14,18.1748109 C1.58257246e-14,18.6060173 0.415951883,18.9967767 1.06332327,18.9967767 C1.4949042,18.9967767 1.93740717,18.6291887 2.3908322,17.8940126 L2.3908322,20" id="Path-Copy-2"></path>
                                </g>
                                <g id="Group-4-Copy-3" transform="translate(7.818182, 0.000000)">
                                    <path d="M2.3908322,0 L2.3908322,1.98204127 C2.01847712,1.46724435 1.57597414,1.20984589 1.06332327,1.20984589 C0.294346966,1.20984589 1.58257246e-14,1.70235375 1.58257246e-14,2.12244043 C1.58257246e-14,2.54252712 0.253457826,3.08326291 1.06332327,3.03503498 C1.60323357,3.00288302 2.04573655,2.65188512 2.3908322,1.98204127 C2.76519803,2.5947337 2.95238095,3.16556232 2.95238095,3.69452713 C2.95238095,4.22349193 2.76519803,4.75245674 2.3908322,5.28142154 C1.9037042,4.95601724 1.46120122,4.79331509 1.06332327,4.79331509 C0.466506352,4.79331509 1.58257246e-14,5.07461536 1.58257246e-14,5.56221986 C1.58257246e-14,6.04982436 0.331705861,6.41311556 1.06332327,6.41311556 C1.55106821,6.41311556 1.99357119,6.03588422 2.3908322,5.28142154 C2.70614356,5.99567713 2.86379924,6.57796003 2.86379924,7.02827023 C2.86379924,7.47858042 2.70614356,7.92589137 2.3908322,8.37020307 C1.80571626,7.93815116 1.33587388,7.72212521 0.981305074,7.72212521 C0.449451858,7.72212521 1.58257246e-14,8.21979499 1.58257246e-14,8.65100139 C1.58257246e-14,9.0822078 0.415951883,9.47296718 1.06332327,9.47296718 C1.4949042,9.47296718 1.93740717,9.10537914 2.3908322,8.37020307 L2.3908322,10.4761905" id="Path-Copy"></path>
                                    <path d="M2.3908322,9.52380952 L2.3908322,11.5058508 C2.01847712,10.9910539 1.57597414,10.7336554 1.06332327,10.7336554 C0.294346966,10.7336554 1.58257246e-14,11.2261633 1.58257246e-14,11.64625 C1.58257246e-14,12.0663366 0.253457826,12.6070724 1.06332327,12.5588445 C1.60323357,12.5266925 2.04573655,12.1756946 2.3908322,11.5058508 C2.76519803,12.1185432 2.95238095,12.6893718 2.95238095,13.2183366 C2.95238095,13.7473015 2.76519803,14.2762663 2.3908322,14.8052311 C1.9037042,14.4798268 1.46120122,14.3171246 1.06332327,14.3171246 C0.466506352,14.3171246 1.58257246e-14,14.5984249 1.58257246e-14,15.0860294 C1.58257246e-14,15.5736339 0.331705861,15.9369251 1.06332327,15.9369251 C1.55106821,15.9369251 1.99357119,15.5596937 2.3908322,14.8052311 C2.70614356,15.5194867 2.86379924,16.1017696 2.86379924,16.5520797 C2.86379924,17.0023899 2.70614356,17.4497009 2.3908322,17.8940126 C1.80571626,17.4619607 1.33587388,17.2459347 0.981305074,17.2459347 C0.449451858,17.2459347 1.58257246e-14,17.7436045 1.58257246e-14,18.1748109 C1.58257246e-14,18.6060173 0.415951883,18.9967767 1.06332327,18.9967767 C1.4949042,18.9967767 1.93740717,18.6291887 2.3908322,17.8940126 L2.3908322,20" id="Path-Copy-2"></path>
                                </g>
                            </g>
                        </g>
                    </g>
                </g>
            </g>
        </g>
    </g>
</svg>