<?xml version="1.0" encoding="UTF-8"?>
<svg width="80px" height="81px" viewBox="0 0 80 81" version="1.1" xmlns="http://www.w3.org/2000/svg" xmlns:xlink="http://www.w3.org/1999/xlink">
    <title>Group 14</title>
    <g id="Page-1" stroke="none" stroke-width="1" fill="none" fill-rule="evenodd">
        <g id="Quiz_page_q2_320-" transform="translate(-220.000000, -689.000000)">
            <g id="Group-14" transform="translate(220.000000, 690.000000)">
                <rect id="Rectangle-Copy-2" fill="#EBFAF9" x="0" y="0" width="80" height="80" rx="15"></rect>
                <g id="4c" transform="translate(28.363636, 0.000000)" stroke="#595A5A" stroke-linecap="round" stroke-linejoin="round">
                    <g id="Group-5">
                        <g id="Group-3" transform="translate(0.050223, 0.118583)">
                            <polyline id="Path-2" points="2.75870596e-14 0 1.92982456 2.68607469 2.75870596e-14 4.66847431 1.92982456 6.69130357 2.75870596e-14 8.52294134 1.92982456 10.5590368 2.75870596e-14 12.3170163 1.92982456 13.9919626 2.75870596e-14 15.6856584 1.92982456 17.4088175 2.75870596e-14 19.4658945"></polyline>
                            <polyline id="Path-2-Copy" points="0.0345284598 19.549249 1.96435302 22.2353236 0.0345284598 24.2177233 1.96435302 26.2405525 0.0345284598 28.0721903 1.96435302 30.1082858 0.0345284598 31.8662652 1.96435302 33.5412116 0.0345284598 35.2349073 1.96435302 36.9580664 0.0345284598 39.0151434"></polyline>
                        </g>
                        <g id="Group-3-Copy" transform="translate(0.050223, 39.404297)">
                            <polyline id="Path-2" points="2.75870596e-14 0 1.92982456 2.68607469 2.75870596e-14 4.66847431 1.92982456 6.69130357 2.75870596e-14 8.52294134 1.92982456 10.5590368 2.75870596e-14 12.3170163 1.92982456 13.9919626 2.75870596e-14 15.6856584 1.92982456 17.4088175 2.75870596e-14 19.4658945"></polyline>
                            <polyline id="Path-2-Copy" points="0.0345284598 19.549249 1.96435302 22.2353236 0.0345284598 24.2177233 1.96435302 26.2405525 0.0345284598 28.0721903 1.96435302 30.1082858 0.0345284598 31.8662652 1.96435302 33.5412116 0.0345284598 35.2349073 1.96435302 36.9580664 0.0345284598 39.0151434"></polyline>
                        </g>
                    </g>
                    <g id="Group-5-Copy-2" transform="translate(5.764509, 0.118583)">
                        <g id="Group-3" transform="translate(0.050223, 0.118583)">
                            <polyline id="Path-2" points="2.75870596e-14 0 1.92982456 2.68607469 2.75870596e-14 4.66847431 1.92982456 6.69130357 2.75870596e-14 8.52294134 1.92982456 10.5590368 2.75870596e-14 12.3170163 1.92982456 13.9919626 2.75870596e-14 15.6856584 1.92982456 17.4088175 2.75870596e-14 19.4658945"></polyline>
                            <polyline id="Path-2-Copy" points="0.0345284598 19.549249 1.96435302 22.2353236 0.0345284598 24.2177233 1.96435302 26.2405525 0.0345284598 28.0721903 1.96435302 30.1082858 0.0345284598 31.8662652 1.96435302 33.5412116 0.0345284598 35.2349073 1.96435302 36.9580664 0.0345284598 39.0151434"></polyline>
                        </g>
                        <g id="Group-3-Copy" transform="translate(0.050223, 39.404297)">
                            <polyline id="Path-2" points="2.75870596e-14 0 1.92982456 2.68607469 2.75870596e-14 4.66847431 1.92982456 6.69130357 2.75870596e-14 8.52294134 1.92982456 10.5590368 2.75870596e-14 12.3170163 1.92982456 13.9919626 2.75870596e-14 15.6856584 1.92982456 17.4088175 2.75870596e-14 19.4658945"></polyline>
                            <polyline id="Path-2-Copy" points="0.0345284598 19.549249 1.96435302 22.2353236 0.0345284598 24.2177233 1.96435302 26.2405525 0.0345284598 28.0721903 1.96435302 30.1082858 0.0345284598 31.8662652 1.96435302 33.5412116 0.0345284598 35.2349073 1.96435302 36.9580664 0.0345284598 39.0151434"></polyline>
                        </g>
                    </g>
                    <g id="Group-5-Copy-6" transform="translate(14.335938, 0.118583)">
                        <g id="Group-3" transform="translate(0.050223, 0.118583)">
                            <polyline id="Path-2" points="2.75870596e-14 0 1.92982456 2.68607469 2.75870596e-14 4.66847431 1.92982456 6.69130357 2.75870596e-14 8.52294134 1.92982456 10.5590368 2.75870596e-14 12.3170163 1.92982456 13.9919626 2.75870596e-14 15.6856584 1.92982456 17.4088175 2.75870596e-14 19.4658945"></polyline>
                            <polyline id="Path-2-Copy" points="0.0345284598 19.549249 1.96435302 22.2353236 0.0345284598 24.2177233 1.96435302 26.2405525 0.0345284598 28.0721903 1.96435302 30.1082858 0.0345284598 31.8662652 1.96435302 33.5412116 0.0345284598 35.2349073 1.96435302 36.9580664 0.0345284598 39.0151434"></polyline>
                        </g>
                        <g id="Group-3-Copy" transform="translate(0.050223, 39.404297)">
                            <polyline id="Path-2" points="2.75870596e-14 0 1.92982456 2.68607469 2.75870596e-14 4.66847431 1.92982456 6.69130357 2.75870596e-14 8.52294134 1.92982456 10.5590368 2.75870596e-14 12.3170163 1.92982456 13.9919626 2.75870596e-14 15.6856584 1.92982456 17.4088175 2.75870596e-14 19.4658945"></polyline>
                            <polyline id="Path-2-Copy" points="0.0345284598 19.549249 1.96435302 22.2353236 0.0345284598 24.2177233 1.96435302 26.2405525 0.0345284598 28.0721903 1.96435302 30.1082858 0.0345284598 31.8662652 1.96435302 33.5412116 0.0345284598 35.2349073 1.96435302 36.9580664 0.0345284598 39.0151434"></polyline>
                        </g>
                    </g>
                    <g id="Group-5-Copy-4" transform="translate(8.621652, 0.118583)">
                        <g id="Group-3" transform="translate(0.050223, 0.118583)">
                            <polyline id="Path-2" points="2.75870596e-14 0 1.92982456 2.68607469 2.75870596e-14 4.66847431 1.92982456 6.69130357 2.75870596e-14 8.52294134 1.92982456 10.5590368 2.75870596e-14 12.3170163 1.92982456 13.9919626 2.75870596e-14 15.6856584 1.92982456 17.4088175 2.75870596e-14 19.4658945"></polyline>
                            <polyline id="Path-2-Copy" points="0.0345284598 19.549249 1.96435302 22.2353236 0.0345284598 24.2177233 1.96435302 26.2405525 0.0345284598 28.0721903 1.96435302 30.1082858 0.0345284598 31.8662652 1.96435302 33.5412116 0.0345284598 35.2349073 1.96435302 36.9580664 0.0345284598 39.0151434"></polyline>
                        </g>
                        <g id="Group-3-Copy" transform="translate(0.050223, 39.404297)">
                            <polyline id="Path-2" points="2.75870596e-14 0 1.92982456 2.68607469 2.75870596e-14 4.66847431 1.92982456 6.69130357 2.75870596e-14 8.52294134 1.92982456 10.5590368 2.75870596e-14 12.3170163 1.92982456 13.9919626 2.75870596e-14 15.6856584 1.92982456 17.4088175 2.75870596e-14 19.4658945"></polyline>
                            <polyline id="Path-2-Copy" points="0.0345284598 19.549249 1.96435302 22.2353236 0.0345284598 24.2177233 1.96435302 26.2405525 0.0345284598 28.0721903 1.96435302 30.1082858 0.0345284598 31.8662652 1.96435302 33.5412116 0.0345284598 35.2349073 1.96435302 36.9580664 0.0345284598 39.0151434"></polyline>
                        </g>
                    </g>
                    <g id="Group-5-Copy-7" transform="translate(17.193080, 0.118583)">
                        <g id="Group-3" transform="translate(0.050223, 0.118583)">
                            <polyline id="Path-2" points="2.75870596e-14 0 1.92982456 2.68607469 2.75870596e-14 4.66847431 1.92982456 6.69130357 2.75870596e-14 8.52294134 1.92982456 10.5590368 2.75870596e-14 12.3170163 1.92982456 13.9919626 2.75870596e-14 15.6856584 1.92982456 17.4088175 2.75870596e-14 19.4658945"></polyline>
                            <polyline id="Path-2-Copy" points="0.0345284598 19.549249 1.96435302 22.2353236 0.0345284598 24.2177233 1.96435302 26.2405525 0.0345284598 28.0721903 1.96435302 30.1082858 0.0345284598 31.8662652 1.96435302 33.5412116 0.0345284598 35.2349073 1.96435302 36.9580664 0.0345284598 39.0151434"></polyline>
                        </g>
                        <g id="Group-3-Copy" transform="translate(0.050223, 39.404297)">
                            <polyline id="Path-2" points="2.75870596e-14 0 1.92982456 2.68607469 2.75870596e-14 4.66847431 1.92982456 6.69130357 2.75870596e-14 8.52294134 1.92982456 10.5590368 2.75870596e-14 12.3170163 1.92982456 13.9919626 2.75870596e-14 15.6856584 1.92982456 17.4088175 2.75870596e-14 19.4658945"></polyline>
                            <polyline id="Path-2-Copy" points="0.0345284598 19.549249 1.96435302 22.2353236 0.0345284598 24.2177233 1.96435302 26.2405525 0.0345284598 28.0721903 1.96435302 30.1082858 0.0345284598 31.8662652 1.96435302 33.5412116 0.0345284598 35.2349073 1.96435302 36.9580664 0.0345284598 39.0151434"></polyline>
                        </g>
                    </g>
                    <g id="Group-5-Copy" transform="translate(2.907366, 0.118583)">
                        <g id="Group-3" transform="translate(0.050223, 0.118583)">
                            <polyline id="Path-2" points="2.75870596e-14 0 1.92982456 2.68607469 2.75870596e-14 4.66847431 1.92982456 6.69130357 2.75870596e-14 8.52294134 1.92982456 10.5590368 2.75870596e-14 12.3170163 1.92982456 13.9919626 2.75870596e-14 15.6856584 1.92982456 17.4088175 2.75870596e-14 19.4658945"></polyline>
                            <polyline id="Path-2-Copy" points="0.0345284598 19.549249 1.96435302 22.2353236 0.0345284598 24.2177233 1.96435302 26.2405525 0.0345284598 28.0721903 1.96435302 30.1082858 0.0345284598 31.8662652 1.96435302 33.5412116 0.0345284598 35.2349073 1.96435302 36.9580664 0.0345284598 39.0151434"></polyline>
                        </g>
                        <g id="Group-3-Copy" transform="translate(0.050223, 39.404297)">
                            <polyline id="Path-2" points="2.75870596e-14 0 1.92982456 2.68607469 2.75870596e-14 4.66847431 1.92982456 6.69130357 2.75870596e-14 8.52294134 1.92982456 10.5590368 2.75870596e-14 12.3170163 1.92982456 13.9919626 2.75870596e-14 15.6856584 1.92982456 17.4088175 2.75870596e-14 19.4658945"></polyline>
                            <polyline id="Path-2-Copy" points="0.0345284598 19.549249 1.96435302 22.2353236 0.0345284598 24.2177233 1.96435302 26.2405525 0.0345284598 28.0721903 1.96435302 30.1082858 0.0345284598 31.8662652 1.96435302 33.5412116 0.0345284598 35.2349073 1.96435302 36.9580664 0.0345284598 39.0151434"></polyline>
                        </g>
                    </g>
                    <g id="Group-5-Copy-3" transform="translate(8.671875, 0.237165)">
                        <g id="Group-3" transform="translate(0.050223, 0.118583)">
                            <polyline id="Path-2" points="2.75870596e-14 0 1.92982456 2.68607469 2.75870596e-14 4.66847431 1.92982456 6.69130357 2.75870596e-14 8.52294134 1.92982456 10.5590368 2.75870596e-14 12.3170163 1.92982456 13.9919626 2.75870596e-14 15.6856584 1.92982456 17.4088175 2.75870596e-14 19.4658945"></polyline>
                            <polyline id="Path-2-Copy" points="0.0345284598 19.549249 1.96435302 22.2353236 0.0345284598 24.2177233 1.96435302 26.2405525 0.0345284598 28.0721903 1.96435302 30.1082858 0.0345284598 31.8662652 1.96435302 33.5412116 0.0345284598 35.2349073 1.96435302 36.9580664 0.0345284598 39.0151434"></polyline>
                        </g>
                        <g id="Group-3-Copy" transform="translate(0.050223, 39.404297)">
                            <polyline id="Path-2" points="2.75870596e-14 0 1.92982456 2.68607469 2.75870596e-14 4.66847431 1.92982456 6.69130357 2.75870596e-14 8.52294134 1.92982456 10.5590368 2.75870596e-14 12.3170163 1.92982456 13.9919626 2.75870596e-14 15.6856584 1.92982456 17.4088175 2.75870596e-14 19.4658945"></polyline>
                            <polyline id="Path-2-Copy" points="0.0345284598 19.549249 1.96435302 22.2353236 0.0345284598 24.2177233 1.96435302 26.2405525 0.0345284598 28.0721903 1.96435302 30.1082858 0.0345284598 31.8662652 1.96435302 33.5412116 0.0345284598 35.2349073 1.96435302 36.9580664 0.0345284598 39.0151434"></polyline>
                        </g>
                    </g>
                    <g id="Group-5-Copy-8" transform="translate(17.243304, 0.237165)">
                        <g id="Group-3" transform="translate(0.050223, 0.118583)">
                            <polyline id="Path-2" points="2.75870596e-14 0 1.92982456 2.68607469 2.75870596e-14 4.66847431 1.92982456 6.69130357 2.75870596e-14 8.52294134 1.92982456 10.5590368 2.75870596e-14 12.3170163 1.92982456 13.9919626 2.75870596e-14 15.6856584 1.92982456 17.4088175 2.75870596e-14 19.4658945"></polyline>
                            <polyline id="Path-2-Copy" points="0.0345284598 19.549249 1.96435302 22.2353236 0.0345284598 24.2177233 1.96435302 26.2405525 0.0345284598 28.0721903 1.96435302 30.1082858 0.0345284598 31.8662652 1.96435302 33.5412116 0.0345284598 35.2349073 1.96435302 36.9580664 0.0345284598 39.0151434"></polyline>
                        </g>
                        <g id="Group-3-Copy" transform="translate(0.050223, 39.404297)">
                            <polyline id="Path-2" points="2.75870596e-14 0 1.92982456 2.68607469 2.75870596e-14 4.66847431 1.92982456 6.69130357 2.75870596e-14 8.52294134 1.92982456 10.5590368 2.75870596e-14 12.3170163 1.92982456 13.9919626 2.75870596e-14 15.6856584 1.92982456 17.4088175 2.75870596e-14 19.4658945"></polyline>
                            <polyline id="Path-2-Copy" points="0.0345284598 19.549249 1.96435302 22.2353236 0.0345284598 24.2177233 1.96435302 26.2405525 0.0345284598 28.0721903 1.96435302 30.1082858 0.0345284598 31.8662652 1.96435302 33.5412116 0.0345284598 35.2349073 1.96435302 36.9580664 0.0345284598 39.0151434"></polyline>
                        </g>
                    </g>
                    <g id="Group-5-Copy-5" transform="translate(11.529018, 0.237165)">
                        <g id="Group-3" transform="translate(0.050223, 0.118583)">
                            <polyline id="Path-2" points="2.75870596e-14 0 1.92982456 2.68607469 2.75870596e-14 4.66847431 1.92982456 6.69130357 2.75870596e-14 8.52294134 1.92982456 10.5590368 2.75870596e-14 12.3170163 1.92982456 13.9919626 2.75870596e-14 15.6856584 1.92982456 17.4088175 2.75870596e-14 19.4658945"></polyline>
                            <polyline id="Path-2-Copy" points="0.0345284598 19.549249 1.96435302 22.2353236 0.0345284598 24.2177233 1.96435302 26.2405525 0.0345284598 28.0721903 1.96435302 30.1082858 0.0345284598 31.8662652 1.96435302 33.5412116 0.0345284598 35.2349073 1.96435302 36.9580664 0.0345284598 39.0151434"></polyline>
                        </g>
                        <g id="Group-3-Copy" transform="translate(0.050223, 39.404297)">
                            <polyline id="Path-2" points="2.75870596e-14 0 1.92982456 2.68607469 2.75870596e-14 4.66847431 1.92982456 6.69130357 2.75870596e-14 8.52294134 1.92982456 10.5590368 2.75870596e-14 12.3170163 1.92982456 13.9919626 2.75870596e-14 15.6856584 1.92982456 17.4088175 2.75870596e-14 19.4658945"></polyline>
                            <polyline id="Path-2-Copy" points="0.0345284598 19.549249 1.96435302 22.2353236 0.0345284598 24.2177233 1.96435302 26.2405525 0.0345284598 28.0721903 1.96435302 30.1082858 0.0345284598 31.8662652 1.96435302 33.5412116 0.0345284598 35.2349073 1.96435302 36.9580664 0.0345284598 39.0151434"></polyline>
                        </g>
                    </g>
                    <g id="Group-5-Copy-9" transform="translate(20.100446, 0.237165)">
                        <g id="Group-3" transform="translate(0.050223, 0.118583)">
                            <polyline id="Path-2" points="2.75870596e-14 0 1.92982456 2.68607469 2.75870596e-14 4.66847431 1.92982456 6.69130357 2.75870596e-14 8.52294134 1.92982456 10.5590368 2.75870596e-14 12.3170163 1.92982456 13.9919626 2.75870596e-14 15.6856584 1.92982456 17.4088175 2.75870596e-14 19.4658945"></polyline>
                            <polyline id="Path-2-Copy" points="0.0345284598 19.549249 1.96435302 22.2353236 0.0345284598 24.2177233 1.96435302 26.2405525 0.0345284598 28.0721903 1.96435302 30.1082858 0.0345284598 31.8662652 1.96435302 33.5412116 0.0345284598 35.2349073 1.96435302 36.9580664 0.0345284598 39.0151434"></polyline>
                        </g>
                        <g id="Group-3-Copy" transform="translate(0.050223, 39.404297)">
                            <polyline id="Path-2" points="2.75870596e-14 0 1.92982456 2.68607469 2.75870596e-14 4.66847431 1.92982456 6.69130357 2.75870596e-14 8.52294134 1.92982456 10.5590368 2.75870596e-14 12.3170163 1.92982456 13.9919626 2.75870596e-14 15.6856584 1.92982456 17.4088175 2.75870596e-14 19.4658945"></polyline>
                            <polyline id="Path-2-Copy" points="0.0345284598 19.549249 1.96435302 22.2353236 0.0345284598 24.2177233 1.96435302 26.2405525 0.0345284598 28.0721903 1.96435302 30.1082858 0.0345284598 31.8662652 1.96435302 33.5412116 0.0345284598 35.2349073 1.96435302 36.9580664 0.0345284598 39.0151434"></polyline>
                        </g>
                    </g>
                </g>
            </g>
        </g>
    </g>
</svg>