<?xml version="1.0" encoding="UTF-8"?>
<svg width="80px" height="80px" viewBox="0 0 80 80" version="1.1" xmlns="http://www.w3.org/2000/svg" xmlns:xlink="http://www.w3.org/1999/xlink">
    <title>Group 9</title>
    <g id="Page-1" stroke="none" stroke-width="1" fill="none" fill-rule="evenodd">
        <g id="Quiz_page_q2_320-" transform="translate(-20.000000, -384.000000)">
            <g id="Group-9" transform="translate(20.000000, 384.000000)">
                <rect id="Rectangle-" fill="#EBFAF9" x="0" y="0" width="80" height="80" rx="15"></rect>
                <g id="2a" transform="translate(24.727273, 2.181818)" stroke="#595A5A" stroke-linecap="square">
                    <path d="M2.18181818,0 C3.63636364,5.83277157 4.36363636,11.2920418 4.36363636,16.3778108 C4.36363636,24.0064643 0,27.7762363 0,33.651772 C0,39.5273076 4.36363636,43.4474913 4.36363636,49.077818 C4.36363636,54.7081447 0,59.063764 0,63.6298332 C0,66.6738793 0.727272727,70.9184804 2.18181818,76.3636364" id="Line-2"></path>
                    <path d="M9.45454545,0 C10.9090909,5.83277157 11.6363636,11.2920418 11.6363636,16.3778108 C11.6363636,24.0064643 7.27272727,27.7762363 7.27272727,33.651772 C7.27272727,39.5273076 11.6363636,43.4474913 11.6363636,49.077818 C11.6363636,54.7081447 7.27272727,59.063764 7.27272727,63.6298332 C7.27272727,66.6738793 8,70.9184804 9.45454545,76.3636364" id="Line-2"></path>
                    <path d="M16,0 C17.4545455,5.83277157 18.1818182,11.2920418 18.1818182,16.3778108 C18.1818182,24.0064643 13.8181818,27.7762363 13.8181818,33.651772 C13.8181818,39.5273076 18.1818182,43.4474913 18.1818182,49.077818 C18.1818182,54.7081447 13.8181818,59.063764 13.8181818,63.6298332 C13.8181818,66.6738793 14.5454545,70.9184804 16,76.3636364" id="Line-2"></path>
                    <path d="M22.5454545,0 C24,5.83277157 24.7272727,11.2920418 24.7272727,16.3778108 C24.7272727,24.0064643 20.3636364,27.7762363 20.3636364,33.651772 C20.3636364,39.5273076 24.7272727,43.4474913 24.7272727,49.077818 C24.7272727,54.7081447 20.3636364,59.063764 20.3636364,63.6298332 C20.3636364,66.6738793 21.0909091,70.9184804 22.5454545,76.3636364" id="Line-2"></path>
                    <path d="M29.0909091,0 C30.5454545,5.83277157 31.2727273,11.2920418 31.2727273,16.3778108 C31.2727273,24.0064643 26.9090909,27.7762363 26.9090909,33.651772 C26.9090909,39.5273076 31.2727273,43.4474913 31.2727273,49.077818 C31.2727273,54.7081447 26.9090909,59.063764 26.9090909,63.6298332 C26.9090909,66.6738793 27.6363636,70.9184804 29.0909091,76.3636364" id="Line-2"></path>
                </g>
            </g>
        </g>
    </g>
</svg>