<?xml version="1.0" encoding="UTF-8"?>
<svg width="80px" height="80px" viewBox="0 0 80 80" version="1.1" xmlns="http://www.w3.org/2000/svg" xmlns:xlink="http://www.w3.org/1999/xlink">
    <title>Group </title>
    <g id="Page-1" stroke="none" stroke-width="1" fill="none" fill-rule="evenodd">
        <g id="Quiz_page_q2_320-" transform="translate(-120.000000, -384.000000)">
            <g id="Group-" transform="translate(120.000000, 384.000000)">
                <rect id="Rectangle" fill="#EBFAF9" x="0" y="0" width="80" height="80" rx="15"></rect>
                <g id="2b" transform="translate(21.090909, 2.181818)" stroke="#595A5A" stroke-linecap="square">
                    <g id="Group-2">
                        <path d="M5.09090909,0 C8.48484848,4.06547403 10.1818182,9.77364073 10.1818182,17.1245001 C10.1818182,28.1507891 0,28.9226567 0,37.4150276 C0,45.9073985 10.1818182,49.702795 10.1818182,57.8407462 C10.1818182,65.9786974 0,69.4137049 0,76.0134016" id="Line-2"></path>
                    </g>
                    <g id="Group-2" transform="translate(7.272727, 0.000000)">
                        <path d="M5.09090909,0 C8.48484848,4.06547403 10.1818182,9.77364073 10.1818182,17.1245001 C10.1818182,28.1507891 0,28.9226567 0,37.4150276 C0,45.9073985 10.1818182,49.702795 10.1818182,57.8407462 C10.1818182,65.9786974 0,69.4137049 0,76.0134016" id="Line-2"></path>
                    </g>
                    <g id="Group-2" transform="translate(14.545455, 0.000000)">
                        <path d="M5.09090909,0 C8.48484848,4.06547403 10.1818182,9.77364073 10.1818182,17.1245001 C10.1818182,28.1507891 0,28.9226567 0,37.4150276 C0,45.9073985 10.1818182,49.702795 10.1818182,57.8407462 C10.1818182,65.9786974 0,69.4137049 0,76.0134016" id="Line-2"></path>
                    </g>
                    <g id="Group-2" transform="translate(21.090909, 0.000000)">
                        <path d="M5.09090909,0 C8.48484848,4.06547403 10.1818182,9.77364073 10.1818182,17.1245001 C10.1818182,28.1507891 0,28.9226567 0,37.4150276 C0,45.9073985 10.1818182,49.702795 10.1818182,57.8407462 C10.1818182,65.9786974 0,69.4137049 0,76.0134016" id="Line-2"></path>
                    </g>
                    <g id="Group-2" transform="translate(28.363636, 0.000000)">
                        <path d="M5.09090909,0 C8.48484848,4.06547403 10.1818182,9.77364073 10.1818182,17.1245001 C10.1818182,28.1507891 0,28.9226567 0,37.4150276 C0,45.9073985 10.1818182,49.702795 10.1818182,57.8407462 C10.1818182,65.9786974 0,69.4137049 0,76.0134016" id="Line-2"></path>
                    </g>
                </g>
            </g>
        </g>
    </g>
</svg>