<?xml version="1.0" encoding="UTF-8"?>
<svg width="80px" height="81px" viewBox="0 0 80 81" version="1.1" xmlns="http://www.w3.org/2000/svg" xmlns:xlink="http://www.w3.org/1999/xlink">
    <title>Group 11</title>
    <g id="Page-1" stroke="none" stroke-width="1" fill="none" fill-rule="evenodd">
        <g id="Quiz_page_q2_320-" transform="translate(-220.000000, -384.000000)">
            <g id="Group-11" transform="translate(220.000000, 384.000000)">
                <rect id="Rectangle-" fill="#EBFAF9" x="0" y="0" width="80" height="80" rx="15"></rect>
                <g id="2c" transform="translate(20.363636, 2.181818)" stroke="#595A5A" stroke-linecap="square">
                    <g id="Group-2" transform="translate(0.000000, 0.000000)">
                        <path d="M5.09090909,0 C8.48484848,2.81274076 10.1818182,6.76199562 10.1818182,11.8477646 C10.1818182,19.476418 0,20.0104427 0,25.8859784 C0,31.7615141 10.1818182,34.3873989 10.1818182,40.0177256 C10.1818182,45.6480523 0,49.3565221 0,53.9225912 C0,58.4886604 10.5172977,62.1514727 10.5172977,66.2850277 C10.5172977,69.040731 8.7085015,72.4002672 5.09090909,76.3636364" id="Line-2"></path>
                    </g>
                    <g id="Group-2" transform="translate(7.272727, 0.000000)">
                        <path d="M5.09090909,0 C8.48484848,2.81274076 10.1818182,6.76199562 10.1818182,11.8477646 C10.1818182,19.476418 0,20.0104427 0,25.8859784 C0,31.7615141 10.1818182,34.3873989 10.1818182,40.0177256 C10.1818182,45.6480523 0,49.3565221 0,53.9225912 C0,58.4886604 10.5172977,62.1514727 10.5172977,66.2850277 C10.5172977,69.040731 8.7085015,72.4002672 5.09090909,76.3636364" id="Line-2"></path>
                    </g>
                    <g id="Group-2" transform="translate(14.545455, 0.000000)">
                        <path d="M5.09090909,0 C8.48484848,2.81274076 10.1818182,6.76199562 10.1818182,11.8477646 C10.1818182,19.476418 0,20.0104427 0,25.8859784 C0,31.7615141 10.1818182,34.3873989 10.1818182,40.0177256 C10.1818182,45.6480523 0,49.3565221 0,53.9225912 C0,58.4886604 10.5172977,62.1514727 10.5172977,66.2850277 C10.5172977,69.040731 8.7085015,72.4002672 5.09090909,76.3636364" id="Line-2"></path>
                    </g>
                    <g id="Group-2" transform="translate(21.090909, 0.000000)">
                        <path d="M5.09090909,0 C8.48484848,2.81274076 10.1818182,6.76199562 10.1818182,11.8477646 C10.1818182,19.476418 0,20.0104427 0,25.8859784 C0,31.7615141 10.1818182,34.3873989 10.1818182,40.0177256 C10.1818182,45.6480523 0,49.3565221 0,53.9225912 C0,58.4886604 10.5172977,62.1514727 10.5172977,66.2850277 C10.5172977,69.040731 8.7085015,72.4002672 5.09090909,76.3636364" id="Line-2"></path>
                    </g>
                    <g id="Group-2" transform="translate(28.363636, 0.000000)">
                        <path d="M5.09090909,0 C8.48484848,2.81274076 10.1818182,6.76199562 10.1818182,11.8477646 C10.1818182,19.476418 0,20.0104427 0,25.8859784 C0,31.7615141 10.1818182,34.3873989 10.1818182,40.0177256 C10.1818182,45.6480523 0,49.3565221 0,53.9225912 C0,58.4886604 10.5172977,62.1514727 10.5172977,66.2850277 C10.5172977,69.040731 8.7085015,72.4002672 5.09090909,76.3636364" id="Line-2"></path>
                    </g>
                </g>
            </g>
        </g>
    </g>
</svg>