<?xml version="1.0" encoding="UTF-8"?>
<svg width="80px" height="80px" viewBox="0 0 80 80" version="1.1" xmlns="http://www.w3.org/2000/svg" xmlns:xlink="http://www.w3.org/1999/xlink">
    <title>Group 12</title>
    <g id="Page-1" stroke="none" stroke-width="1" fill="none" fill-rule="evenodd">
        <g id="Quiz_page_q2_320-" transform="translate(-20.000000, -537.000000)">
            <g id="Group-12" transform="translate(20.000000, 537.000000)">
                <rect id="Rectangle-" fill="#EBFAF9" x="0" y="0" width="80" height="80" rx="15"></rect>
                <g id="3a" transform="translate(16.000000, 0.000000)" stroke="#595A5A" stroke-linejoin="round">
                    <path d="M18.2572641,0 L18.2572641,15.1355879 C15.4138253,11.2044114 12.0347116,9.23882316 8.11992317,9.23882316 C2.24774046,9.23882316 0,12.9997923 0,16.2077269 C0,19.4156616 1.93549613,23.5449168 8.11992317,23.1766307 C12.2428745,22.9311067 15.6219882,20.2507591 18.2572641,15.1355879 C21.1160577,19.8143301 22.5454545,24.173385 22.5454545,28.2127526 C22.5454545,32.2521202 21.1160577,36.2914878 18.2572641,40.3308554 C14.5373775,37.8459498 11.1582639,36.603497 8.11992317,36.603497 C3.56241214,36.603497 0,38.7516082 0,42.4751335 C0,46.1986588 2.53302657,48.9728824 8.11992317,48.9728824 C11.8445209,48.9728824 15.2236345,46.0922067 18.2572641,40.3308554 C20.6650963,45.7851708 21.8690124,50.2316948 21.8690124,53.6704272 C21.8690124,57.1091596 20.6650963,60.5249887 18.2572641,63.9179144 C13.789106,60.6186089 10.2012188,58.9689561 7.49360238,58.9689561 C3.43217782,58.9689561 0,62.7693435 0,66.0621924 C0,69.3550414 3.17635984,72.3390221 8.11992317,72.3390221 C11.4156321,72.3390221 14.7947457,69.5319862 18.2572641,63.9179144 L18.2572641,80" id="Path"></path>
                    <path d="M43.7118095,0 L43.7118095,15.1355879 C40.8683707,11.2044114 37.4892571,9.23882316 33.5744686,9.23882316 C27.7022859,9.23882316 25.4545455,12.9997923 25.4545455,16.2077269 C25.4545455,19.4156616 27.3900416,23.5449168 33.5744686,23.1766307 C37.69742,22.9311067 41.0765336,20.2507591 43.7118095,15.1355879 C46.5706032,19.8143301 48,24.173385 48,28.2127526 C48,32.2521202 46.5706032,36.2914878 43.7118095,40.3308554 C39.9919229,37.8459498 36.6128093,36.603497 33.5744686,36.603497 C29.0169576,36.603497 25.4545455,38.7516082 25.4545455,42.4751335 C25.4545455,46.1986588 27.987572,48.9728824 33.5744686,48.9728824 C37.2990664,48.9728824 40.67818,46.0922067 43.7118095,40.3308554 C46.1196417,45.7851708 47.3235578,50.2316948 47.3235578,53.6704272 C47.3235578,57.1091596 46.1196417,60.5249887 43.7118095,63.9179144 C39.2436514,60.6186089 35.6557642,58.9689561 32.9481478,58.9689561 C28.8867233,58.9689561 25.4545455,62.7693435 25.4545455,66.0621924 C25.4545455,69.3550414 28.6309053,72.3390221 33.5744686,72.3390221 C36.8701775,72.3390221 40.2492911,69.5319862 43.7118095,63.9179144 L43.7118095,80" id="Path-Copy-4"></path>
                </g>
            </g>
        </g>
    </g>
</svg>