<?xml version="1.0" encoding="UTF-8"?>
<svg width="80px" height="80px" viewBox="0 0 80 80" version="1.1" xmlns="http://www.w3.org/2000/svg" xmlns:xlink="http://www.w3.org/1999/xlink">
    <title>3b</title>
    <g id="Page-1" stroke="none" stroke-width="1" fill="none" fill-rule="evenodd">
        <g id="Quiz_page_q2_320-" transform="translate(-120.000000, -537.000000)">
            <g id="3b" transform="translate(120.000000, 537.000000)">
                <rect id="Rectangle" fill="#EBFAF9" x="0" y="0" width="80" height="80" rx="15"></rect>
                <g transform="translate(18.181818, 0.000000)" stroke="#595A5A" stroke-linejoin="round">
                    <g id="Group-4" transform="translate(0.000000, 0.000000)">
                        <path d="M9.5633288,0 L9.5633288,7.92816509 C8.07390848,5.8689774 6.30389657,4.83938356 4.25329309,4.83938356 C1.17738786,4.83938356 0,6.809415 0,8.48976173 C0,10.1701085 1.0138313,12.3330516 4.25329309,12.1401399 C6.41293428,12.0115321 8.18294618,10.6075405 9.5633288,7.92816509 C11.0607921,10.3789348 11.8095238,12.6622493 11.8095238,14.7781085 C11.8095238,16.8939677 11.0607921,19.0098269 9.5633288,21.1256862 C7.61481678,19.8240689 5.84480488,19.1732603 4.25329309,19.1732603 C1.86602541,19.1732603 0,20.2984614 0,22.2488794 C0,24.1992975 1.32682344,25.6524622 4.25329309,25.6524622 C6.20427285,25.6524622 7.97428476,24.1435369 9.5633288,21.1256862 C10.8245742,23.9827085 11.455197,26.3118401 11.455197,28.1130809 C11.455197,29.9143217 10.8245742,31.7035655 9.5633288,33.4808123 C7.22286504,31.7526046 5.34349554,30.8885008 3.92522029,30.8885008 C1.79780743,30.8885008 0,32.8791799 0,34.6040056 C0,36.3288312 1.66380753,37.8918687 4.25329309,37.8918687 C5.97961679,37.8918687 7.7496287,36.4215166 9.5633288,33.4808123 L9.5633288,41.9047619" id="Path-Copy"></path>
                        <path d="M9.5633288,38.0952381 L9.5633288,46.0234032 C8.07390848,43.9642155 6.30389657,42.9346217 4.25329309,42.9346217 C1.17738786,42.9346217 0,44.9046531 0,46.5849998 C0,48.2653466 1.0138313,50.4282897 4.25329309,50.235378 C6.41293428,50.1067702 8.18294618,48.7027786 9.5633288,46.0234032 C11.0607921,48.4741729 11.8095238,50.7574874 11.8095238,52.8733466 C11.8095238,54.9892058 11.0607921,57.105065 9.5633288,59.2209243 C7.61481678,57.919307 5.84480488,57.2684984 4.25329309,57.2684984 C1.86602541,57.2684984 0,58.3936995 0,60.3441175 C0,62.2945356 1.32682344,63.7477003 4.25329309,63.7477003 C6.20427285,63.7477003 7.97428476,62.238775 9.5633288,59.2209243 C10.8245742,62.0779466 11.455197,64.4070782 11.455197,66.208319 C11.455197,68.0095598 10.8245742,69.7988036 9.5633288,71.5760504 C7.22286504,69.8478427 5.34349554,68.9837389 3.92522029,68.9837389 C1.79780743,68.9837389 0,70.974418 0,72.6992437 C0,74.4240693 1.66380753,75.9871068 4.25329309,75.9871068 C5.97961679,75.9871068 7.7496287,74.5167547 9.5633288,71.5760504 L9.5633288,80" id="Path-Copy-2"></path>
                    </g>
                    <g id="Group-4-Copy-2" transform="translate(16.000000, 0.000000)">
                        <path d="M9.5633288,0 L9.5633288,7.92816509 C8.07390848,5.8689774 6.30389657,4.83938356 4.25329309,4.83938356 C1.17738786,4.83938356 6.33028983e-14,6.809415 6.33028983e-14,8.48976173 C6.33028983e-14,10.1701085 1.0138313,12.3330516 4.25329309,12.1401399 C6.41293428,12.0115321 8.18294618,10.6075405 9.5633288,7.92816509 C11.0607921,10.3789348 11.8095238,12.6622493 11.8095238,14.7781085 C11.8095238,16.8939677 11.0607921,19.0098269 9.5633288,21.1256862 C7.61481678,19.8240689 5.84480488,19.1732603 4.25329309,19.1732603 C1.86602541,19.1732603 6.33028983e-14,20.2984614 6.33028983e-14,22.2488794 C6.33028983e-14,24.1992975 1.32682344,25.6524622 4.25329309,25.6524622 C6.20427285,25.6524622 7.97428476,24.1435369 9.5633288,21.1256862 C10.8245742,23.9827085 11.455197,26.3118401 11.455197,28.1130809 C11.455197,29.9143217 10.8245742,31.7035655 9.5633288,33.4808123 C7.22286504,31.7526046 5.34349554,30.8885008 3.92522029,30.8885008 C1.79780743,30.8885008 6.33028983e-14,32.8791799 6.33028983e-14,34.6040056 C6.33028983e-14,36.3288312 1.66380753,37.8918687 4.25329309,37.8918687 C5.97961679,37.8918687 7.7496287,36.4215166 9.5633288,33.4808123 L9.5633288,41.9047619" id="Path-Copy"></path>
                        <path d="M9.5633288,38.0952381 L9.5633288,46.0234032 C8.07390848,43.9642155 6.30389657,42.9346217 4.25329309,42.9346217 C1.17738786,42.9346217 6.33028983e-14,44.9046531 6.33028983e-14,46.5849998 C6.33028983e-14,48.2653466 1.0138313,50.4282897 4.25329309,50.235378 C6.41293428,50.1067702 8.18294618,48.7027786 9.5633288,46.0234032 C11.0607921,48.4741729 11.8095238,50.7574874 11.8095238,52.8733466 C11.8095238,54.9892058 11.0607921,57.105065 9.5633288,59.2209243 C7.61481678,57.919307 5.84480488,57.2684984 4.25329309,57.2684984 C1.86602541,57.2684984 6.33028983e-14,58.3936995 6.33028983e-14,60.3441175 C6.33028983e-14,62.2945356 1.32682344,63.7477003 4.25329309,63.7477003 C6.20427285,63.7477003 7.97428476,62.238775 9.5633288,59.2209243 C10.8245742,62.0779466 11.455197,64.4070782 11.455197,66.208319 C11.455197,68.0095598 10.8245742,69.7988036 9.5633288,71.5760504 C7.22286504,69.8478427 5.34349554,68.9837389 3.92522029,68.9837389 C1.79780743,68.9837389 6.33028983e-14,70.974418 6.33028983e-14,72.6992437 C6.33028983e-14,74.4240693 1.66380753,75.9871068 4.25329309,75.9871068 C5.97961679,75.9871068 7.7496287,74.5167547 9.5633288,71.5760504 L9.5633288,80" id="Path-Copy-2"></path>
                    </g>
                    <g id="Group-4-Copy-3" transform="translate(31.272727, 0.000000)">
                        <path d="M9.5633288,0 L9.5633288,7.92816509 C8.07390848,5.8689774 6.30389657,4.83938356 4.25329309,4.83938356 C1.17738786,4.83938356 6.33028983e-14,6.809415 6.33028983e-14,8.48976173 C6.33028983e-14,10.1701085 1.0138313,12.3330516 4.25329309,12.1401399 C6.41293428,12.0115321 8.18294618,10.6075405 9.5633288,7.92816509 C11.0607921,10.3789348 11.8095238,12.6622493 11.8095238,14.7781085 C11.8095238,16.8939677 11.0607921,19.0098269 9.5633288,21.1256862 C7.61481678,19.8240689 5.84480488,19.1732603 4.25329309,19.1732603 C1.86602541,19.1732603 6.33028983e-14,20.2984614 6.33028983e-14,22.2488794 C6.33028983e-14,24.1992975 1.32682344,25.6524622 4.25329309,25.6524622 C6.20427285,25.6524622 7.97428476,24.1435369 9.5633288,21.1256862 C10.8245742,23.9827085 11.455197,26.3118401 11.455197,28.1130809 C11.455197,29.9143217 10.8245742,31.7035655 9.5633288,33.4808123 C7.22286504,31.7526046 5.34349554,30.8885008 3.92522029,30.8885008 C1.79780743,30.8885008 6.33028983e-14,32.8791799 6.33028983e-14,34.6040056 C6.33028983e-14,36.3288312 1.66380753,37.8918687 4.25329309,37.8918687 C5.97961679,37.8918687 7.7496287,36.4215166 9.5633288,33.4808123 L9.5633288,41.9047619" id="Path-Copy"></path>
                        <path d="M9.5633288,38.0952381 L9.5633288,46.0234032 C8.07390848,43.9642155 6.30389657,42.9346217 4.25329309,42.9346217 C1.17738786,42.9346217 6.33028983e-14,44.9046531 6.33028983e-14,46.5849998 C6.33028983e-14,48.2653466 1.0138313,50.4282897 4.25329309,50.235378 C6.41293428,50.1067702 8.18294618,48.7027786 9.5633288,46.0234032 C11.0607921,48.4741729 11.8095238,50.7574874 11.8095238,52.8733466 C11.8095238,54.9892058 11.0607921,57.105065 9.5633288,59.2209243 C7.61481678,57.919307 5.84480488,57.2684984 4.25329309,57.2684984 C1.86602541,57.2684984 6.33028983e-14,58.3936995 6.33028983e-14,60.3441175 C6.33028983e-14,62.2945356 1.32682344,63.7477003 4.25329309,63.7477003 C6.20427285,63.7477003 7.97428476,62.238775 9.5633288,59.2209243 C10.8245742,62.0779466 11.455197,64.4070782 11.455197,66.208319 C11.455197,68.0095598 10.8245742,69.7988036 9.5633288,71.5760504 C7.22286504,69.8478427 5.34349554,68.9837389 3.92522029,68.9837389 C1.79780743,68.9837389 6.33028983e-14,70.974418 6.33028983e-14,72.6992437 C6.33028983e-14,74.4240693 1.66380753,75.9871068 4.25329309,75.9871068 C5.97961679,75.9871068 7.7496287,74.5167547 9.5633288,71.5760504 L9.5633288,80" id="Path-Copy-2"></path>
                    </g>
                </g>
            </g>
        </g>
    </g>
</svg>