<?xml version="1.0" encoding="UTF-8"?>
<svg width="80px" height="80px" viewBox="0 0 80 80" version="1.1" xmlns="http://www.w3.org/2000/svg" xmlns:xlink="http://www.w3.org/1999/xlink">
    <title>Group 15</title>
    <g id="Page-1" stroke="none" stroke-width="1" fill="none" fill-rule="evenodd">
        <g id="Quiz_page_q2_320-" transform="translate(-220.000000, -537.000000)">
            <g id="Group-15" transform="translate(220.000000, 537.000000)">
                <rect id="Rectangle-" fill="#EBFAF9" x="0" y="0" width="80" height="80" rx="15"></rect>
                <g id="3c" transform="translate(24.000000, 0.000000)" stroke="#595A5A" stroke-linejoin="round">
                    <g id="Group-4-Copy">
                        <path d="M6.96154082,0 L6.96154082,5.4506135 C5.87733044,4.03492196 4.58886589,3.3270762 3.09614717,3.3270762 C0.857069106,3.3270762 4.60807862e-14,4.68147281 4.60807862e-14,5.83671119 C4.60807862e-14,6.99194957 0.738009553,8.478973 3.09614717,8.34634618 C4.66823892,8.2579283 5.95670347,7.29268407 6.96154082,5.4506135 C8.05160604,7.13551768 8.59663866,8.70529638 8.59663866,10.1599496 C8.59663866,11.6146028 8.05160604,13.069256 6.96154082,14.5239092 C5.54313869,13.6290474 4.25467414,13.1816165 3.09614717,13.1816165 C1.35835673,13.1816165 4.60807862e-14,13.9551922 4.60807862e-14,15.2961046 C4.60807862e-14,16.637017 0.965849418,17.6360678 3.09614717,17.6360678 C4.51634568,17.6360678 5.80481023,16.5986816 6.96154082,14.5239092 C7.87965331,16.4881121 8.33870956,18.0893901 8.33870956,19.3277431 C8.33870956,20.5660962 7.87965331,21.7962013 6.96154082,23.0180584 C5.25782087,21.8299157 3.88975043,21.2358443 2.85732948,21.2358443 C1.30869806,21.2358443 4.60807862e-14,22.6044362 4.60807862e-14,23.7902538 C4.60807862e-14,24.9760714 1.21115401,26.0506597 3.09614717,26.0506597 C4.35280928,26.0506597 5.64127383,25.0397926 6.96154082,23.0180584 L6.96154082,28.8095238" id="Path-Copy"></path>
                        <path d="M6.96154082,51 L6.96154082,56.4506135 C5.87733044,55.034922 4.58886589,54.3270762 3.09614717,54.3270762 C0.857069106,54.3270762 4.60807862e-14,55.6814728 4.60807862e-14,56.8367112 C4.60807862e-14,57.9919496 0.738009553,59.478973 3.09614717,59.3463462 C4.66823892,59.2579283 5.95670347,58.2926841 6.96154082,56.4506135 C8.05160604,58.1355177 8.59663866,59.7052964 8.59663866,61.1599496 C8.59663866,62.6146028 8.05160604,64.069256 6.96154082,65.5239092 C5.54313869,64.6290474 4.25467414,64.1816165 3.09614717,64.1816165 C1.35835673,64.1816165 4.60807862e-14,64.9551922 4.60807862e-14,66.2961046 C4.60807862e-14,67.637017 0.965849418,68.6360678 3.09614717,68.6360678 C4.51634568,68.6360678 5.80481023,67.5986816 6.96154082,65.5239092 C7.87965331,67.4881121 8.33870956,69.0893901 8.33870956,70.3277431 C8.33870956,71.5660962 7.87965331,72.7962013 6.96154082,74.0180584 C5.25782087,72.8299157 3.88975043,72.2358443 2.85732948,72.2358443 C1.30869806,72.2358443 4.60807862e-14,73.6044362 4.60807862e-14,74.7902538 C4.60807862e-14,75.9760714 1.21115401,77.0506597 3.09614717,77.0506597 C4.35280928,77.0506597 5.64127383,76.0397926 6.96154082,74.0180584 L6.96154082,79.8095238" id="Path-Copy-3"></path>
                        <path d="M6.96154082,26.1904762 L6.96154082,31.6410897 C5.87733044,30.2253982 4.58886589,29.5175524 3.09614717,29.5175524 C0.857069106,29.5175524 0,30.871949 0,32.0271874 C0,33.1824258 0.738009553,34.6694492 3.09614717,34.5368224 C4.66823892,34.4484045 5.95670347,33.4831603 6.96154082,31.6410897 C8.05160604,33.3259939 8.59663866,34.8957726 8.59663866,36.3504258 C8.59663866,37.805079 8.05160604,39.2597322 6.96154082,40.7143854 C5.54313869,39.8195236 4.25467414,39.3720927 3.09614717,39.3720927 C1.35835673,39.3720927 0,40.1456684 0,41.4865808 C0,42.8274932 0.965849418,43.826544 3.09614717,43.826544 C4.51634568,43.826544 5.80481023,42.7891578 6.96154082,40.7143854 C7.87965331,42.6785883 8.33870956,44.2798663 8.33870956,45.5182193 C8.33870956,46.7565724 7.87965331,47.9866775 6.96154082,49.2085346 C5.25782087,48.0203919 3.88975043,47.4263205 2.85732948,47.4263205 C1.30869806,47.4263205 0,48.7949124 0,49.98073 C0,51.1665476 1.21115401,52.2411359 3.09614717,52.2411359 C4.35280928,52.2411359 5.64127383,51.2302688 6.96154082,49.2085346 L6.96154082,55" id="Path-Copy-2"></path>
                    </g>
                    <g id="Group-4-Copy-4" transform="translate(12.000000, 0.000000)">
                        <path d="M6.78025069,0 L6.78025069,5.4506135 C5.72427496,4.03492196 4.46936417,3.3270762 3.01551834,3.3270762 C0.834749598,3.3270762 4.48807658e-14,4.68147281 4.48807658e-14,5.83671119 C4.48807658e-14,6.99194957 0.718790554,8.478973 3.01551834,8.34634618 C4.5466702,8.2579283 5.80158098,7.29268407 6.78025069,5.4506135 C7.8419288,7.13551768 8.37276786,8.70529638 8.37276786,10.1599496 C8.37276786,11.6146028 7.8419288,13.069256 6.78025069,14.5239092 C5.39878612,13.6290474 4.14387533,13.1816165 3.01551834,13.1816165 C1.32298286,13.1816165 4.48807658e-14,13.9551922 4.48807658e-14,15.2961046 C4.48807658e-14,16.637017 0.94069709,17.6360678 3.01551834,17.6360678 C4.39873251,17.6360678 5.65364329,16.5986816 6.78025069,14.5239092 C7.67445401,16.4881121 8.12155566,18.0893901 8.12155566,19.3277431 C8.12155566,20.5660962 7.67445401,21.7962013 6.78025069,23.0180584 C5.12089846,21.8299157 3.78845484,21.2358443 2.78291986,21.2358443 C1.27461738,21.2358443 4.48807658e-14,22.6044362 4.48807658e-14,23.7902538 C4.48807658e-14,24.9760714 1.17961354,26.0506597 3.01551834,26.0506597 C4.23945487,26.0506597 5.49436566,25.0397926 6.78025069,23.0180584 L6.78025069,28.8095238" id="Path-Copy"></path>
                        <path d="M6.78025069,51 L6.78025069,56.4506135 C5.72427496,55.034922 4.46936417,54.3270762 3.01551834,54.3270762 C0.834749598,54.3270762 4.48807658e-14,55.6814728 4.48807658e-14,56.8367112 C4.48807658e-14,57.9919496 0.718790554,59.478973 3.01551834,59.3463462 C4.5466702,59.2579283 5.80158098,58.2926841 6.78025069,56.4506135 C7.8419288,58.1355177 8.37276786,59.7052964 8.37276786,61.1599496 C8.37276786,62.6146028 7.8419288,64.069256 6.78025069,65.5239092 C5.39878612,64.6290474 4.14387533,64.1816165 3.01551834,64.1816165 C1.32298286,64.1816165 4.48807658e-14,64.9551922 4.48807658e-14,66.2961046 C4.48807658e-14,67.637017 0.94069709,68.6360678 3.01551834,68.6360678 C4.39873251,68.6360678 5.65364329,67.5986816 6.78025069,65.5239092 C7.67445401,67.4881121 8.12155566,69.0893901 8.12155566,70.3277431 C8.12155566,71.5660962 7.67445401,72.7962013 6.78025069,74.0180584 C5.12089846,72.8299157 3.78845484,72.2358443 2.78291986,72.2358443 C1.27461738,72.2358443 4.48807658e-14,73.6044362 4.48807658e-14,74.7902538 C4.48807658e-14,75.9760714 1.17961354,77.0506597 3.01551834,77.0506597 C4.23945487,77.0506597 5.49436566,76.0397926 6.78025069,74.0180584 L6.78025069,79.8095238" id="Path-Copy-3"></path>
                        <path d="M6.78025069,26.1904762 L6.78025069,31.6410897 C5.72427496,30.2253982 4.46936417,29.5175524 3.01551834,29.5175524 C0.834749598,29.5175524 0,30.871949 0,32.0271874 C0,33.1824258 0.718790554,34.6694492 3.01551834,34.5368224 C4.5466702,34.4484045 5.80158098,33.4831603 6.78025069,31.6410897 C7.8419288,33.3259939 8.37276786,34.8957726 8.37276786,36.3504258 C8.37276786,37.805079 7.8419288,39.2597322 6.78025069,40.7143854 C5.39878612,39.8195236 4.14387533,39.3720927 3.01551834,39.3720927 C1.32298286,39.3720927 0,40.1456684 0,41.4865808 C0,42.8274932 0.94069709,43.826544 3.01551834,43.826544 C4.39873251,43.826544 5.65364329,42.7891578 6.78025069,40.7143854 C7.67445401,42.6785883 8.12155566,44.2798663 8.12155566,45.5182193 C8.12155566,46.7565724 7.67445401,47.9866775 6.78025069,49.2085346 C5.12089846,48.0203919 3.78845484,47.4263205 2.78291986,47.4263205 C1.27461738,47.4263205 0,48.7949124 0,49.98073 C0,51.1665476 1.17961354,52.2411359 3.01551834,52.2411359 C4.23945487,52.2411359 5.49436566,51.2302688 6.78025069,49.2085346 L6.78025069,55" id="Path-Copy-2"></path>
                    </g>
                    <g id="Group-4-Copy-5" transform="translate(23.000000, 0.000000)">
                        <path d="M6.96154082,0 L6.96154082,5.4506135 C5.87733044,4.03492196 4.58886589,3.3270762 3.09614717,3.3270762 C0.857069106,3.3270762 4.60807862e-14,4.68147281 4.60807862e-14,5.83671119 C4.60807862e-14,6.99194957 0.738009553,8.478973 3.09614717,8.34634618 C4.66823892,8.2579283 5.95670347,7.29268407 6.96154082,5.4506135 C8.05160604,7.13551768 8.59663866,8.70529638 8.59663866,10.1599496 C8.59663866,11.6146028 8.05160604,13.069256 6.96154082,14.5239092 C5.54313869,13.6290474 4.25467414,13.1816165 3.09614717,13.1816165 C1.35835673,13.1816165 4.60807862e-14,13.9551922 4.60807862e-14,15.2961046 C4.60807862e-14,16.637017 0.965849418,17.6360678 3.09614717,17.6360678 C4.51634568,17.6360678 5.80481023,16.5986816 6.96154082,14.5239092 C7.87965331,16.4881121 8.33870956,18.0893901 8.33870956,19.3277431 C8.33870956,20.5660962 7.87965331,21.7962013 6.96154082,23.0180584 C5.25782087,21.8299157 3.88975043,21.2358443 2.85732948,21.2358443 C1.30869806,21.2358443 4.60807862e-14,22.6044362 4.60807862e-14,23.7902538 C4.60807862e-14,24.9760714 1.21115401,26.0506597 3.09614717,26.0506597 C4.35280928,26.0506597 5.64127383,25.0397926 6.96154082,23.0180584 L6.96154082,28.8095238" id="Path-Copy"></path>
                        <path d="M6.96154082,51 L6.96154082,56.4506135 C5.87733044,55.034922 4.58886589,54.3270762 3.09614717,54.3270762 C0.857069106,54.3270762 4.60807862e-14,55.6814728 4.60807862e-14,56.8367112 C4.60807862e-14,57.9919496 0.738009553,59.478973 3.09614717,59.3463462 C4.66823892,59.2579283 5.95670347,58.2926841 6.96154082,56.4506135 C8.05160604,58.1355177 8.59663866,59.7052964 8.59663866,61.1599496 C8.59663866,62.6146028 8.05160604,64.069256 6.96154082,65.5239092 C5.54313869,64.6290474 4.25467414,64.1816165 3.09614717,64.1816165 C1.35835673,64.1816165 4.60807862e-14,64.9551922 4.60807862e-14,66.2961046 C4.60807862e-14,67.637017 0.965849418,68.6360678 3.09614717,68.6360678 C4.51634568,68.6360678 5.80481023,67.5986816 6.96154082,65.5239092 C7.87965331,67.4881121 8.33870956,69.0893901 8.33870956,70.3277431 C8.33870956,71.5660962 7.87965331,72.7962013 6.96154082,74.0180584 C5.25782087,72.8299157 3.88975043,72.2358443 2.85732948,72.2358443 C1.30869806,72.2358443 4.60807862e-14,73.6044362 4.60807862e-14,74.7902538 C4.60807862e-14,75.9760714 1.21115401,77.0506597 3.09614717,77.0506597 C4.35280928,77.0506597 5.64127383,76.0397926 6.96154082,74.0180584 L6.96154082,79.8095238" id="Path-Copy-3"></path>
                        <path d="M6.96154082,26.1904762 L6.96154082,31.6410897 C5.87733044,30.2253982 4.58886589,29.5175524 3.09614717,29.5175524 C0.857069106,29.5175524 0,30.871949 0,32.0271874 C0,33.1824258 0.738009553,34.6694492 3.09614717,34.5368224 C4.66823892,34.4484045 5.95670347,33.4831603 6.96154082,31.6410897 C8.05160604,33.3259939 8.59663866,34.8957726 8.59663866,36.3504258 C8.59663866,37.805079 8.05160604,39.2597322 6.96154082,40.7143854 C5.54313869,39.8195236 4.25467414,39.3720927 3.09614717,39.3720927 C1.35835673,39.3720927 0,40.1456684 0,41.4865808 C0,42.8274932 0.965849418,43.826544 3.09614717,43.826544 C4.51634568,43.826544 5.80481023,42.7891578 6.96154082,40.7143854 C7.87965331,42.6785883 8.33870956,44.2798663 8.33870956,45.5182193 C8.33870956,46.7565724 7.87965331,47.9866775 6.96154082,49.2085346 C5.25782087,48.0203919 3.88975043,47.4263205 2.85732948,47.4263205 C1.30869806,47.4263205 0,48.7949124 0,49.98073 C0,51.1665476 1.21115401,52.2411359 3.09614717,52.2411359 C4.35280928,52.2411359 5.64127383,51.2302688 6.96154082,49.2085346 L6.96154082,55" id="Path-Copy-2"></path>
                    </g>
                </g>
            </g>
        </g>
    </g>
</svg>